<svg fill="none" height="300" viewBox="0 0 500 300" width="500" xmlns="http://www.w3.org/2000/svg" xmlns:xlink="http://www.w3.org/1999/xlink"><clipPath id="a"><path d="m100.5 71.5h300v157.69h-300z"/></clipPath><mask id="b" height="5922" maskUnits="userSpaceOnUse" width="4561" x="-175" y="-4846"><path d="m-174.041 1075.12h4559.841v-5920.98h-4559.841z" fill="#fff"/></mask><g clip-path="url(#a)"><g mask="url(#b)"><path d="m336.608 75.9487-21.401 87.0533-21.46-87.0533h-61.985v32.1453c-7.532-28.1299-35.163-35.1852-59.853-35.586-30.104-.3932-63.46 12.6511-64.617 52.457h41.636c0-12.016 11.003-18.897 21.393-18.723 12.757-.106 18.625 5.338 18.92 13.815-.439 7.358-4.779 12.478-18.814 12.478h-14.005v28.886h12.712c7.221 0 17.271 3.932 17.664 14.216.484 12.258-8.038 17.642-18.526 17.748-18.724-.695-23.556-15.078-23.556-27.449h-43.216c.181 8.333-.091 62.65 67.641 62.249 32.449.295 56.064-13.347 62.726-32.153v28.826h41.682v-93.919l23.049 93.919h37.242l23.132-93.813v93.896h42.528v-148.9923zm-104.71 86.8483c-5.309-10.98-12.78-15.781-16.984-17.301 8.824-3.925 13.445-9.249 16.984-19.858z" fill="#06182e"/></g></g></svg>