<svg fill="none" height="300" viewBox="0 0 500 300" width="500" xmlns="http://www.w3.org/2000/svg"><g fill="#211f22"><path d="m87.7665 176.782c-.3619.929-1.252 1.54-2.2433 1.54h-20.1113c-1.6977 0-2.8631-1.72-2.2433-3.311l24.7289-63.471c.3619-.929 1.252-1.54 2.2432-1.54h20.1113c1.698 0 2.863 1.72 2.243 3.311z"/><path d="m101.948 159.168c0-1.34 1.079-2.426 2.41-2.426h16.475c1.331 0 2.41 1.086 2.41 2.426v16.583c0 1.34-1.079 2.426-2.41 2.426h-16.475c-1.331 0-2.41-1.086-2.41-2.426z"/><path d="m203.411 177.896c2.414.544 4.962.816 7.644.816 3.799 0 7.174-.498 10.124-1.496 2.95-.997 5.274-2.583 6.973-4.759s2.548-5.055 2.548-8.636c0-2.085-.402-3.876-1.207-5.372s-1.877-2.742-3.218-3.74c-1.341-1.042-2.861-1.904-4.56-2.584-1.698-.68-3.442-1.269-5.229-1.768-1.788-.498-3.532-.952-5.23-1.36-1.699-.408-3.241-.861-4.627-1.359-1.341-.544-2.413-1.156-3.218-1.836-.76-.726-1.14-1.632-1.14-2.72 0-.952.335-1.768 1.006-2.448.715-.726 1.721-1.27 3.017-1.632 1.341-.363 2.95-.544 4.828-.544 1.743 0 3.263.249 4.559.748 1.296.498 2.302 1.178 3.017 2.04.715.861 1.073 1.904 1.073 3.128v.544h9.722v-.816c0-2.358-.492-4.398-1.475-6.12-.939-1.723-2.257-3.151-3.956-4.284s-3.665-1.949-5.9-2.448c-2.235-.544-4.604-.816-7.107-.816-2.682 0-5.163.272-7.443.816-2.28.499-4.291 1.292-6.034 2.38-1.744 1.088-3.107 2.471-4.09 4.148-.939 1.677-1.408 3.672-1.408 5.984 0 2.176.402 4.034 1.207 5.575.804 1.542 1.877 2.811 3.218 3.808 1.341.998 2.861 1.859 4.559 2.584 1.699.68 3.442 1.27 5.23 1.768 1.788.453 3.531.907 5.23 1.36 1.698.453 3.218.952 4.559 1.496 1.386.544 2.459 1.201 3.219 1.972.804.771 1.206 1.768 1.206 2.992 0 .68-.134 1.292-.402 1.836-.223.544-.603 1.02-1.14 1.428-.491.408-1.139.77-1.944 1.088-.76.272-1.654.498-2.682.68-.983.136-2.123.204-3.42.204-2.011 0-3.777-.25-5.296-.748-1.52-.499-2.682-1.247-3.487-2.244-.76-.997-1.14-2.221-1.14-3.672v-.612c0-.227.023-.408.067-.544h-9.923c-.045.136-.067.34-.067.612v.68c0 2.629.514 4.873 1.542 6.732 1.073 1.813 2.526 3.332 4.358 4.556 1.878 1.178 4.023 2.039 6.437 2.583z"/><path clip-rule="evenodd" d="m161.094 130.744-17.701 47.659h10.325l3.286-9.18h20.047l3.286 9.18h10.795l-17.701-47.659zm13.074 30.319h-14.281l4.09-11.491c.223-.68.514-1.541.872-2.584.357-1.088.715-2.199 1.072-3.332.358-1.179.648-2.199.872-3.06h.402c.224.68.447 1.451.671 2.312.268.816.536 1.655.804 2.516.269.861.514 1.655.738 2.38.268.68.492 1.269.67 1.768z" fill-rule="evenodd"/><path clip-rule="evenodd" d="m258.322 190v-16.047h-.403c-.715 1.042-1.586 1.926-2.615 2.651-1.028.68-2.19 1.202-3.486 1.564-1.296.363-2.704.544-4.224.544-2.727 0-5.141-.657-7.241-1.972-2.057-1.359-3.688-3.422-4.895-6.187-1.162-2.766-1.743-6.256-1.743-10.472 0-4.352.581-7.91 1.743-10.676 1.162-2.765 2.794-4.805 4.895-6.119 2.145-1.315 4.671-1.972 7.576-1.972 2.28 0 4.358.476 6.236 1.428 1.922.906 3.442 2.312 4.559 4.216h.469l.805-4.828h7.644v47.87zm-7.443-19.039c1.341 0 2.481-.227 3.42-.68.938-.499 1.698-1.202 2.279-2.108.626-.907 1.073-1.995 1.341-3.264.313-1.315.47-2.765.47-4.352v-1.156c0-2.176-.268-4.034-.805-5.576-.536-1.541-1.363-2.72-2.481-3.536-1.072-.816-2.48-1.224-4.224-1.224-1.877 0-3.375.386-4.492 1.156-1.118.726-1.922 1.859-2.414 3.4-.492 1.496-.737 3.378-.737 5.644v1.564c0 2.221.245 4.103.737 5.644.492 1.496 1.296 2.629 2.414 3.4 1.117.725 2.615 1.088 4.492 1.088z" fill-rule="evenodd"/><path d="m275.153 175.721c2.101 1.994 4.939 2.991 8.515 2.991 1.699 0 3.263-.249 4.694-.748 1.43-.453 2.704-1.11 3.821-1.972 1.163-.861 2.168-1.858 3.018-2.991h.469l.67 5.402h7.644v-36.273h-9.32v20.807c0 1.496-.313 2.856-.938 4.08-.626 1.178-1.498 2.108-2.615 2.788-1.118.68-2.369 1.02-3.755 1.02-.939 0-1.788-.114-2.548-.34-.76-.227-1.408-.59-1.944-1.088-.492-.499-.872-1.134-1.14-1.904-.268-.816-.403-1.813-.403-2.992v-22.371h-9.319v23.935c0 4.442 1.05 7.661 3.151 9.656z"/><path clip-rule="evenodd" d="m319.462 178.712c-1.163 0-2.414-.136-3.755-.408-1.297-.272-2.526-.748-3.688-1.428-1.162-.725-2.123-1.745-2.883-3.059-.715-1.36-1.073-3.083-1.073-5.168 0-2.493.537-4.556 1.609-6.188 1.073-1.632 2.593-2.901 4.56-3.808 2.011-.952 4.403-1.609 7.174-1.972 2.771-.362 5.833-.544 9.186-.544v-2.652c0-1.042-.179-1.949-.537-2.72-.313-.77-.894-1.382-1.743-1.836-.805-.453-1.944-.68-3.42-.68-1.475 0-2.681.182-3.62.544-.894.363-1.542.839-1.945 1.428-.357.544-.536 1.156-.536 1.836v.816h-9.052c-.044-.226-.067-.43-.067-.612v-.816c0-2.085.626-3.875 1.878-5.371 1.251-1.542 3.017-2.72 5.297-3.536 2.279-.816 4.939-1.224 7.978-1.224 3.264 0 5.99.43 8.18 1.292 2.235.861 3.934 2.13 5.096 3.808 1.207 1.677 1.81 3.785 1.81 6.323v16.252c0 .816.224 1.428.671 1.836.492.362 1.028.544 1.609.544h.477v7.034h-3.81c-1.296 0-2.667-.366-3.695-.774-.156-.058-.302-.109-.439-.158-.728-.256-1.222-.43-1.786-1.003-.67-.725-1.139-1.586-1.408-2.583h-.469c-.76.952-1.699 1.79-2.816 2.515-1.073.726-2.347 1.292-3.822 1.7-1.43.408-3.084.612-4.961.612zm3.151-7.139c1.251 0 2.369-.182 3.352-.544.984-.408 1.811-.93 2.481-1.564.671-.68 1.185-1.496 1.542-2.448.403-.952.604-1.972.604-3.06v-1.972c-2.503 0-4.738.181-6.705.544-1.967.317-3.531.884-4.694 1.7-1.117.816-1.676 1.949-1.676 3.4 0 .816.201 1.518.604 2.108.402.589.983 1.042 1.743 1.36.76.317 1.676.476 2.749.476z" fill-rule="evenodd"/><path d="m345.026 142.13v36.273h9.32v-18.39c0-1.587.156-2.969.469-4.148.358-1.178.894-2.176 1.609-2.992.716-.816 1.587-1.405 2.615-1.768 1.073-.408 2.302-.612 3.688-.612h2.883v-8.567c-.313-.136-.782-.272-1.408-.408-.626-.182-1.318-.272-2.078-.272-1.431 0-2.682.294-3.755.884-1.073.589-1.967 1.382-2.682 2.38-.715.952-1.296 2.017-1.743 3.196h-.47l-.737-5.576z"/><g clip-rule="evenodd" fill-rule="evenodd"><path d="m384.027 178.712c-3.889 0-7.152-.657-9.79-1.972-2.637-1.359-4.626-3.422-5.967-6.187-1.341-2.766-2.011-6.279-2.011-10.54 0-4.306.67-7.82 2.011-10.54 1.341-2.765 3.308-4.805 5.9-6.119 2.638-1.36 5.856-2.04 9.655-2.04 3.576 0 6.594.657 9.052 1.972 2.458 1.269 4.314 3.264 5.565 5.983 1.252 2.675 1.877 6.143 1.877 10.404v2.448h-24.607c.09 2.085.403 3.853.939 5.304.581 1.45 1.453 2.538 2.615 3.264 1.207.68 2.794 1.02 4.761 1.02 1.072 0 2.033-.136 2.883-.408.894-.272 1.654-.68 2.279-1.224.626-.544 1.118-1.224 1.475-2.04.358-.816.537-1.745.537-2.788h9.118c0 2.266-.402 4.238-1.206 5.916-.805 1.677-1.922 3.082-3.353 4.216-1.43 1.087-3.151 1.926-5.163 2.515-1.966.544-4.157.816-6.57.816zm-8.18-22.575h14.884c0-1.36-.178-2.538-.536-3.536-.313-.997-.76-1.813-1.341-2.448-.581-.634-1.296-1.088-2.145-1.36-.805-.317-1.721-.476-2.75-.476-1.698 0-3.128.295-4.291.884-1.117.544-1.989 1.406-2.615 2.584-.581 1.134-.983 2.584-1.206 4.352z"/><path d="m410.711 176.74c2.146 1.315 4.671 1.972 7.577 1.972 2.324 0 4.425-.453 6.302-1.36 1.878-.952 3.397-2.379 4.56-4.283h.469l.737 5.334h7.644v-47.644h-9.32v15.315h-.402c-.715-1.043-1.587-1.927-2.615-2.652-.983-.726-2.146-1.247-3.487-1.564-1.296-.363-2.704-.544-4.224-.544-2.726 0-5.14.657-7.241 1.972-2.056 1.314-3.688 3.354-4.895 6.119-1.162 2.72-1.743 6.234-1.743 10.54 0 4.307.581 7.842 1.743 10.608 1.163 2.765 2.794 4.828 4.895 6.187zm14.751-7.003c-1.073.816-2.481 1.224-4.224 1.224-1.878 0-3.375-.363-4.493-1.088-1.117-.771-1.922-1.904-2.413-3.4-.492-1.496-.738-3.377-.738-5.644v-1.564c0-2.266.246-4.148.738-5.644.491-1.541 1.296-2.674 2.413-3.4 1.118-.77 2.615-1.156 4.493-1.156 1.296 0 2.414.25 3.352.748.939.454 1.721 1.134 2.347 2.04.626.862 1.073 1.95 1.341 3.264.313 1.315.469 2.765.469 4.352v1.224c0 2.131-.268 3.967-.804 5.508-.537 1.541-1.364 2.72-2.481 3.536z"/></g></g></svg>