<svg fill="none" height="300" viewBox="0 0 500 300" width="500" xmlns="http://www.w3.org/2000/svg" xmlns:xlink="http://www.w3.org/1999/xlink"><clipPath id="a"><path d="m108 109h284v82h-284z"/></clipPath><g clip-path="url(#a)" fill="#000"><path d="m130.821 126.937h17.142c5.046 0 8.976 1.02 11.715 3.065 2.769 2.045 4.158 4.977 4.158 8.815 0 2.194-.496 4.095-1.491 5.689-.994 1.614-2.459 2.89-4.407 3.839 2.688.902 4.747 2.331 6.188 4.289 1.43 1.958 2.14 4.336 2.14 7.124 0 2.752-.695 5.12-2.08 7.072-1.384 1.979-3.362 3.506-5.933 4.582-2.566 1.076-5.629 1.615-9.23 1.615h-18.207zm-22.821 64.063h81.143v-82h-81.143zm39.101-56.375c4.924 0 7.404 1.83 7.404 5.484 0 1.891-.629 3.367-1.892 4.417-1.262 1.056-3.093 1.579-5.477 1.579h-6.998v-11.48zm1.176 18.706h-8.215v12.454h8.063c2.769 0 4.904-.528 6.39-1.579 1.491-1.055 2.237-2.567 2.237-4.545 0-4.213-2.835-6.304-8.52-6.304z"/><path d="m232.25 126.937h17.142c5.046 0 8.976 1.02 11.715 3.065 2.769 2.045 4.158 4.977 4.158 8.815 0 2.194-.496 4.095-1.491 5.689-.994 1.614-2.465 2.89-4.407 3.839 2.688.902 4.747 2.331 6.187 4.289 1.43 1.958 2.14 4.336 2.14 7.124 0 2.752-.694 5.12-2.079 7.072-1.384 1.979-3.362 3.506-5.934 4.582-2.566 1.076-5.629 1.615-9.229 1.615h-18.207zm-22.821 64.063h81.143v-82h-81.143zm39.1-56.375c4.925 0 7.405 1.83 7.405 5.484 0 1.891-.629 3.367-1.892 4.417-1.263 1.056-3.093 1.579-5.477 1.579h-6.999v-11.48zm1.177 18.706h-8.216v12.454h8.064c2.769 0 4.904-.528 6.39-1.579 1.491-1.055 2.236-2.567 2.236-4.545 0-4.213-2.835-6.304-8.52-6.304z"/><path d="m362.586 172.55c2.49-.61 4.68-1.445 6.592-2.496v-8.764c-3.991 2.486-8.367 3.731-13.084 3.731-3.093 0-5.731-.589-7.911-1.768-2.171-1.179-3.824-2.895-4.96-5.176-1.141-2.255-1.709-4.987-1.709-8.2 0-3.203.588-5.945 1.77-8.149 1.181-2.234 2.875-3.941 5.071-5.12 2.211-1.178 4.884-1.768 8.013-1.768 2.277 0 4.448.307 6.491.918 2.059.609 3.971 1.506 5.731 2.685v-8.969c-1.932-1.009-4.027-1.778-6.288-2.306-2.257-.528-4.651-.789-7.202-.789-3.651 0-6.948.548-9.889 1.645-2.942 1.097-5.477 2.675-7.557 4.741-2.104 2.065-3.717 4.54-4.833 7.431-1.115 2.885-1.673 6.099-1.673 9.686 0 3.67.537 6.97 1.612 9.891 1.076 2.932 2.617 5.382 4.641 7.432 2.018 2.024 4.488 3.572 7.404 4.648 2.921 1.076 6.187 1.614 9.839 1.614 2.748 0 5.375-.306 7.86-.917zm29.414 18.347h-81.143v-82h81.143z"/></g></svg>