<svg fill="none" height="300" viewBox="0 0 500 300" width="500" xmlns="http://www.w3.org/2000/svg" xmlns:xlink="http://www.w3.org/1999/xlink"><clipPath id="a"><path d="m199 48h101v129h-101z"/></clipPath><mask id="b" height="1564" maskUnits="userSpaceOnUse" width="1227" x="140" y="-15"><path d="m140.848 1548.98h1225.752v-1563.4334h-1225.752z" fill="#fff"/></mask><g clip-path="url(#a)"><g mask="url(#b)"><path d="m200.27 117.776v-68.2424h98.463v73.2174c0 28.217-33.797 52.711-48.568 52.711-14.236 0-49.895-25.029-49.895-57.686z" fill="#06182e"/><path d="m200.27 117.776v-68.2424h98.463v73.2174c0 28.217-33.797 52.711-48.568 52.711-14.236 0-49.895-25.029-49.895-57.686z" fill="#06182e"/><path d="m219.679 159.072c-10.732-10.374-19.695-24.858-19.701-41.294h.006c-.006-24.4993-.006-68.2421-.006-68.2421v-.2868h99.044v73.5039c-.005 14.224-8.51 27.456-18.838 37.141-10.34 9.685-22.491 15.84-30.018 15.857-7.267-.017-19.745-6.304-30.487-16.679zm-19.121-41.294c0 16.216 8.864 30.578 19.524 40.881 10.643 10.302 23.116 16.529 30.084 16.513 7.239.016 19.374-6.078 29.625-15.697 10.262-9.613 18.656-22.735 18.651-36.722v-72.9303h-97.884v24.6484z" fill="#06182e"/><path d="m219.679 159.072c-10.732-10.374-19.695-24.858-19.701-41.294h.006c-.006-24.4993-.006-68.2421-.006-68.2421v-.2868h99.044v73.5039c-.005 14.224-8.51 27.456-18.838 37.141-10.34 9.685-22.491 15.84-30.018 15.857-7.267-.017-19.745-6.304-30.487-16.679zm-19.121-41.294c0 16.216 8.864 30.578 19.524 40.881 10.643 10.302 23.116 16.529 30.084 16.513 7.239.016 19.374-6.078 29.625-15.697 10.262-9.613 18.656-22.735 18.651-36.722v-72.9303h-97.884v24.6484z" fill="#06182e"/><path d="m288.211 54.8301-55.123 80.8229-2.067 2.262-3.188 1.373-2.293 1.147.69 3.635 2.725 2.294 3.216.684 3.443-.915-.232-4.551 1.121-3.667 53.084-80.5643.459-2.0628z" fill="#fff"/><path d="m261.868 57.4268 1.58 27.6102-2.265 1.605-.232 3.4361h-23.79l-1.835-1.605v-29.4413l2.752-1.605z" fill="#fff"/><path d="m288.211 59.6132 8.234 5.0411-3.443 5.6975 3.675 2.2944-4.134 6.3869-3.641-1.8367-2.758 3.8939-8.466-5.0356z" fill="#fff"/><path d="m210.851 60.2446-8.239 5.0411 3.443 5.6974-3.67 2.2889 4.128 6.3869 3.647-1.8311 2.758 3.8939 8.46-5.0411z" fill="#fff"/><g fill="#06182e"><path d="m256.781 89.3561h-16.363c-2.105-.524-4.84-.6839-4.84-2.835 0-2.4157 3.47-2.0462 5.89-1.8917 2.896.2095 4.803-.2593 7.472-.1048 3.896 0 6.106-.2096 9.996-.1048.951 0 1.526.3143 2.421.1048 0 .3695.42.5791.42.9431 0 .7887-.575 1.1582-.84 1.8918-.105.7887.315 1.6822-.365 2.0462-1.265.6343-2.321-.1544-3.791-.0496z"/><path d="m286.109 66.2398c0-.8108.663-1.4726 1.475-1.4726.813 0 1.47.6618 1.47 1.4726s-.657 1.4726-1.47 1.4726c-.812 0-1.475-.6618-1.475-1.4726z"/><path d="m285.821 66.2394c0-.9708.79-1.7595 1.763-1.7595.972 0 1.757.7887 1.757 1.7595 0 .9707-.785 1.7594-1.757 1.7594-.973 0-1.763-.7887-1.763-1.7594zm.575 0c0 .6508.53 1.1803 1.188 1.1803.652 0 1.182-.5295 1.182-1.1803 0-.6509-.53-1.1803-1.182-1.1803-.658 0-1.188.5294-1.188 1.1803z"/><path d="m285.941 71.4256c0-.8108.658-1.4671 1.475-1.4671.813 0 1.476.6563 1.476 1.4671 0 .8107-.663 1.4726-1.476 1.4726-.817 0-1.475-.6619-1.475-1.4726z"/><path d="m285.652 71.4249c0-.9707.79-1.7594 1.763-1.7594.972 0 1.763.7887 1.763 1.7594s-.791 1.7594-1.763 1.7594c-.973-.0055-1.763-.7887-1.763-1.7594zm.575 0c0 .6563.53 1.1803 1.188 1.1803.652 0 1.182-.5295 1.188-1.1803-.006-.6508-.536-1.1803-1.188-1.1803-.658 0-1.183.5295-1.188 1.1803z"/><path d="m281.782 73.6653c0-.8107.658-1.4726 1.47-1.4726.813 0 1.476.6619 1.476 1.4726 0 .8108-.663 1.4726-1.476 1.4726-.812 0-1.47-.6618-1.47-1.4726z"/><path d="m281.493 73.6659c0-.9707.784-1.7595 1.762-1.7595.973 0 1.758.7888 1.758 1.7595s-.785 1.7594-1.758 1.7594c-.978 0-1.762-.7887-1.762-1.7594zm.58 0c0 .6508.525 1.1803 1.182 1.1803.653 0 1.183-.5295 1.183-1.1803 0-.6509-.53-1.1803-1.183-1.1803-.657 0-1.182.5239-1.182 1.1803z"/></g><path d="m228.398 134.944c0 .518-.392 2.195-.331 2.713h1.779c1.492-.458 2.293-1.776 2.293-3.381 0-1.831-2.238-2.52-4.072-2.52-5.278 0-9.422 5.333-9.422 10.6 0 2.923 1.309 5.847 4.233 5.847 1.436 0 4.094-.64 4.094-2.069 0-.689-.552-1.125-.608-1.814-.685-.061-.878-1.092-1.569-1.092-.801 0-1.033 1.643-1.724 1.991-.575-.921-1.144-1.605-1.144-2.752 0-2.637.216-4.016 1.879-5.968.978-1.142 4.592-3.1 4.592-1.555z" fill="#fff"/><path d="m232.572 151.277c0-.689 2.382-1.103 1.741-3.303l-4.299.055c-1.045 1.158-1.42 2.294-.929 3.414.879 1.991 2.051 3.199 4.233 3.199 6.024 0 10.528-5.847 10.528-11.858 0-2.637-1.813-5.416-3.703-5.472-2.006-.06-3.155 1.55-3.901 3.436v1.837c.519.055 1.812.656 2.326.656 1.034 0 .569-1.764 1.083-2.625.686.69.929 1.754.929 2.725 0 4.241-2.327 8.753-6.576 8.753-.746 0-1.432.099-1.432-.817z" fill="#fff"/><path d="m227.817 146.06c-.768.419-3.238 2.316-3.89 2.895-1.31 1.159-2.592 1.975-4.349 1.975.447.678 1.193 1.439 2.022 1.439.873 0 1.365-.375 2.211-.579-.498 1.131-1.47 1.363-1.863 2.554l.177 2.316 1.337-.347c1.785-.48 2.134-1.919 2.891-3.574.011.347 0 .551 0 .899 0 1.031.259 1.886 1.16 2.377.696.375 1.879.342 2.68.414-.177-.508-.657-.927-.989-1.335-.812-.982-1.199-1.903-1.199-3.193v-1.506c.492-1.236.956-1.842 1.658-2.989z" fill="#fff"/><path d="m210.851 55.4612 55.123 80.8228 2.066 2.262 3.183 1.373 2.294 1.147-.685 3.635-2.73 2.294-3.211.684-3.443-.915.227-4.551-1.116-3.667-53.084-80.5642-.464-2.0628z" fill="#fff"/><path d="m270.661 135.573c0 .513.392 2.196.331 2.714h-1.779c-1.487-.458-2.294-1.776-2.294-3.381 0-1.831 2.239-2.52 4.073-2.52 5.283 0 9.422 5.333 9.422 10.6 0 2.923-1.304 5.847-4.233 5.847-1.437 0-4.095-.64-4.095-2.069 0-.689.553-1.125.608-1.814.691-.061.879-1.092 1.57-1.092.801 0 1.033 1.643 1.724 1.991.569-.916 1.144-1.605 1.144-2.753 0-2.63-.216-4.02-1.879-5.967-.978-1.147-4.592-3.1-4.592-1.556z" fill="#fff"/><path d="m266.486 151.908c0-.689-2.382-1.103-1.741-3.303l4.3.055c1.044 1.158 1.42 2.294.928 3.414-.879 1.991-2.05 3.199-4.233 3.199-6.023 0-10.527-5.847-10.527-11.858 0-2.637 1.812-5.417 3.702-5.472 2.006-.055 3.156 1.55 3.902 3.436v1.831c-.514.061-1.807.662-2.327.662-1.033 0-.569-1.765-1.083-2.625-.685.689-.928 1.754-.928 2.725 0 4.235 2.332 8.747 6.576 8.747.746 0 1.431.105 1.431-.811z" fill="#fff"/><path d="m271.241 146.689c.774.419 3.239 2.322 3.891 2.901 1.309 1.158 2.597 1.969 4.349 1.969-.448.684-1.194 1.44-2.023 1.44-.867 0-1.365-.376-2.205-.58.492 1.131 1.465 1.363 1.857 2.554l-.177 2.317-1.332-.348c-1.79-.474-2.138-1.919-2.89-3.574-.016.348 0 .552 0 .899 0 1.031-.265 1.886-1.166 2.377-.696.381-1.879.342-2.674.414.171-.508.652-.927.983-1.335.818-.982 1.199-1.903 1.199-3.193v-1.506c-.497-1.235-.961-1.842-1.657-2.984z" fill="#fff"/><path d="m210.661 66.8697c0-.8108.663-1.4671 1.475-1.4671s1.47.6563 1.47 1.4671c0 .8107-.658 1.4726-1.47 1.4726s-1.475-.6619-1.475-1.4726z" fill="#06182e"/><path d="m210.372 66.8692c0-.9707.79-1.7539 1.762-1.7594.973.0055 1.763.7887 1.763 1.7594 0 .9708-.79 1.7595-1.763 1.7595-.972 0-1.762-.7887-1.762-1.7595zm.574 0c.006.6509.536 1.1803 1.188 1.1803s1.183-.5294 1.183-1.1803c0-.6563-.531-1.1803-1.183-1.1803s-1.182.5295-1.188 1.1803z" fill="#06182e"/><path d="m210.171 72.0559c0-.8107.658-1.4671 1.476-1.4671.812 0 1.47.6564 1.47 1.4671 0 .8108-.658 1.4727-1.47 1.4727-.818 0-1.476-.6619-1.476-1.4727z" fill="#06182e"/><path d="m209.883 72.0555c0-.9707.79-1.7539 1.763-1.7594.972 0 1.762.7887 1.762 1.7594s-.79 1.7594-1.762 1.7594c-.973-.0055-1.763-.7887-1.763-1.7594zm.575 0c0 .6508.53 1.1803 1.188 1.1803.652 0 1.182-.5295 1.182-1.1803s-.53-1.1803-1.182-1.1803c-.658 0-1.183.5295-1.188 1.1803z" fill="#06182e"/><path d="m214.094 74.2962c0-.8108.657-1.4726 1.47-1.4726.818 0 1.475.6618 1.475 1.4726 0 .8107-.657 1.4726-1.475 1.4726-.813 0-1.47-.6619-1.47-1.4726z" fill="#06182e"/><path d="m213.805 74.2962c0-.9707.79-1.7594 1.763-1.7594.967 0 1.757.7887 1.757 1.7594 0 .9708-.79 1.7595-1.757 1.7595-.978 0-1.763-.7887-1.763-1.7595zm.575 0c0 .6564.53 1.1803 1.188 1.1859.652-.0056 1.183-.5295 1.183-1.1859 0-.6563-.531-1.1803-1.183-1.1803-.658 0-1.188.524-1.188 1.1803z" fill="#06182e"/><path d="m208.324 62.64 2.934 3.9931zm-.293-.2979 2.934 3.9932zm10.29 15.526-2.106-2.5206zm-12.401-12.3711 1.896 2.7191zm-1.05 2.8018 1.686-1.4671zm.21 7.6775 5.25-3.563zm7.571.4192 1.89 2.7301zm-.636 2.5205 1.476-1.2575zm79.012-17.2026-2.934 3.9931zm2.951 13.6341-5.249-3.5629zm.21-7.7657-1.68-1.4671zm-1.055-2.7191-1.89 2.7191zm-6.09 13.4245-1.475-1.263zm-.63-2.5205-1.895 2.7301zm-5.67 1.4726 2.1-2.5261zm-18.418-9.0067h-3.902zm.718 6.6185h-4.62zm-1.171-12.7737h-3.216zm1.619 18.3609h-5.294zm-24.492-.9377c-1.492 0-2.409.342-3.614 1.1417zm.232-16.2374c-1.381 0-2.354.2261-3.387 1.1417zm0 5.3996c-1.497.1158-2.354.4578-3.619 1.1472zm0 5.4217c-1.497.1158-2.354.4578-3.619 1.1472z" fill="#aeb4dd"/><path d="m235.263 80.4635c1.221-.8163 2.211-1.1858 3.736-1.1803v.4302c-1.459.0055-2.305.3199-3.498 1.1086zm22.933-.2427h5.294v.4302h-5.294zm-44.728-2.2613-1.309 1.1196-.282-.3254 1.343-1.1527-.752-1.081.359-.2482 1.896 2.7301-.36.2482zm70.872.4137 1.896-2.7302.353.2427-.751 1.0866 1.348 1.1527-.282.3254-1.315-1.1196-.895 1.2906zm-68.291-2.8901.331-.2758 2.106 2.5206-.332.2757zm64.528 1.616 2.1-2.5205.332.2757-2.1 2.5206zm-75.619-1.3016 5.25-3.563.248.3585-5.255 3.563zm83.648-3.8333.244-.3585 5.249 3.563-.243.353zm-53.1 3.0721c1.271-.6894 2.189-1.0534 3.708-1.1692l.033.4302c-1.47.1158-2.276.4357-3.531 1.1196zm22.917-.4026h4.625v.4302h-4.625zm-22.917-5.0135c1.271-.695 2.189-1.059 3.708-1.1693l.033.4302c-1.47.1158-2.276.4357-3.531 1.1196zm-30.775-1.4837 1.68-1.4671.288.3254-1.686 1.4671zm53.697-.1158h3.902v.4302h-3.902zm-52.68-2.4047.354-.2427 1.895 2.7191-.359.2427zm86.649.6894-.978 1.4009-.353-.2427 1.889-2.7246.354.2482-.702 1.0093.045-.0441 1.679 1.4671-.287.3254zm-81.554.1213-.055.0331-2.934-3.9876.348-.2592.249.3364.049-.0386 2.935 3.9932-.349.2537zm77.078-.8493 2.935-3.9932.348.2537-2.935 3.9932zm-52.221-1.3348c1.066-.9541 2.133-1.2023 3.531-1.1968v.4302c-1.36.0055-2.249.2151-3.244 1.092zm22.955-2.3826h3.216v.4302h-3.216z" fill="#06182e"/><path d="m255.541 62.1916c0-.7611.618-1.3733 1.376-1.3733.762 0 1.381.6122 1.381 1.3733s-.619 1.3733-1.381 1.3733c-.758 0-1.376-.6122-1.376-1.3733z" fill="#06182e"/><path d="m255.673 74.8508c0-.7612.613-1.3734 1.376-1.3734.762 0 1.376.6122 1.376 1.3734 0 .7611-.614 1.3733-1.376 1.3733-.763 0-1.376-.6122-1.376-1.3733z" fill="#06182e"/><path d="m255.673 80.3476c0-.7611.613-1.3733 1.376-1.3733.762 0 1.376.6122 1.376 1.3733s-.614 1.3733-1.376 1.3733c-.763 0-1.376-.6122-1.376-1.3733z" fill="#06182e"/><path d="m256 68.259c0-.7611.619-1.3734 1.382-1.3734.757 0 1.376.6123 1.376 1.3734s-.619 1.3733-1.376 1.3733c-.763 0-1.382-.6122-1.382-1.3733z" fill="#06182e"/><path d="m226.574 88.7322c.503.5019 4.869 5.3555 5.018 5.9566l-.121 2.7798c.326 1.081.397 1.7539.9 2.7574v4.407c.426 1.329.354 2.157.453 3.558.05.275.045.518.094.794v2.007c-.552 2.405-1.63 3.552-3.006 5.56-.856 1.224-1.707 2.002-1.707 3.502 0 1.683.221 3.012 1.503 4.06l-.122-.083c.376.05.603.105.978.105 2.26 0 3.012-2.482 5.272-2.482 1.028 0 1.603.502 2.41 1.103-.199 0-.304.099-.503.099-.398 0-.603-.298-1.001-.298-.403 0-.607.072-1.005.094 0 2.306-2.99 2.03-5.073 3.061l.127.022c.851.552 1.403.976 2.431 1.081 1.36.122 3.217.044 3.217 1.401 0 .623-.503.905-.907 1.351-.276-.397-.497-.849-1-.849h-1.459c-1.05 0-1.376-.927-2.083-1.704-.724-.805-1.603-.805-2.68-.805-1.736 0-2.587 1.003-4.322 1.003-.298 0-.447-.298-.751-.298-.326 0-.503.171-.802.298.802-1.202 1.581-2.151 3.012-2.151 1.155 0 1.807.072 2.962 0-.978-1.307-2.337-1.505-3.99-1.505-1.033 0-1.381.877-1.984 1.704-.878 1.224-1.608 2.079-1.608 3.607 0 .226.078.375.1.601h.807c1.304-.425 2.033-1.053 3.409-1.053 1.686 0 3.664.579 3.664 2.256 0 .325-.099.501-.199.799l-.028.221-1.276-.05v-1.026c-.879.199-1.354.574-2.26.574-1.233 0-1.907-.375-3.111-.673 0 .149-.1.248-.1.403 0 1.323 2.26 1.224 2.26 2.553 0 1.103-.431 1.705-.552 2.802h-.708v.353-1.153c-.602-.099-1.149-.176-1.403-.7-.326-.678.127-1.379-.299-2.002-.602-.877-1.53-1.004-2.614-1.004-1.652 0-2.508 1.004-4.166 1.004-.824 0-.122-1.506-.802-1.958-.326-.199-.602 0-1.005 0 .204-.998 1.359-1.098 2.359-1.098 1.133 0 1.686.701 2.813.701.553 0 .851-.127 1.404-.199.127-.502.381-.855.381-1.384 0-1.572-.525-2.427-.779-3.982-.1-.646-.448-.949-.602-1.6-.1-.424.049-1.103-.404-1.103-1.475 0-2.332.353-3.658 1.004l.077-.121c-3.288-.403-5.073-.651-8.355-1.181l-.326-.121c.602-1.478 1.658-1.98 2.934-2.934 2.012-1.5 3.089-2.554 4.719-4.506v-1.153c-1.403-.226-2.205 0-3.614 0-.602-.303-1.028-.53-1.354-1.103.078-.474.255-.794.454-1.197-.503-.325-.907-.397-1.504-.397-1.083-.452-2.613-.43-2.613-1.605 0-.976 1.027-1.5 2.006-1.5 0-.155.105-.254.105-.403 0-.954-1.106-1.053-1.708-1.754-.857-.976-.906-1.881-1.105-3.204v-1.054c.575-.099.95-.077 1.503.05l.177-.022c.127-.375.199-.623.199-1.026 0-2.1565-2.183-2.9563-2.183-5.1073 0-1.0314-.348-3.1328.68-3.1328.851 0 1.403 2.1014 1.807 2.8294l-.1.1765c.398-.1985.779-.4246.779-.8769 0-2.6805-1.459-4.0318-1.459-6.7123 0-1.5498.1-2.7301 1.155-3.8553 1.658 1.6547 1.255 3.4582 2.559 5.4107 1.254-.9763.95-2.4268 1.205-4.0042.149-1.0756.398-2.4544 1.503-2.4544.602 0 .729.6784.9 1.252v2.6033c.282.8273.807 1.1803 1.509 1.7042l.227.0773c.729-1.3293 1.077-2.2559 1.077-3.7836.277-.0276.431-.0993.702-.0993.984 0 .68 1.3513 1.155 2.2007 1.232-1.3734.531-3.5796 2.31-4.1532h.801c.055.3475.105.5516.105.8991 0 1.5553-1.309 2.2061-1.309 3.756 0 1.2795 1.005 2.0296 2.21 2.4543 0-.7997 0-1.252.099-2.0517.205-.0993.326-.1986.503-.3034.426.4302.63.7281 1.006 1.1803.249-.7501.199-1.252.497-1.98.63.6232.503 1.3568.956 2.0793.603-1.1527.221-1.98.619-3.2045z" fill="#fff"/><path d="m227.176 92.5071c.73 1.1031 1.885 1.1748 2.487 2.3772v.8052c-.227.0221-.381.0993-.602.0993-1.481 0-1.708-1.8035-1.885-3.2817z" fill="#fff"/><path d="m227.033 92.5241.265-.0993c.669 1.0479 1.841 1.1252 2.493 2.3992l.016.0276v.9652l-.127.0165c-.199.0166-.359.0938-.624.0993-1.641-.0331-1.846-1.9524-2.023-3.4085zm2.023 3.1217c.154 0 .282-.0496.464-.0827v-.6453c-.486-.9542-1.398-1.1417-2.139-1.9249.183 1.3458.509 2.6805 1.675 2.6529z" fill="#06182e"/><path d="m229.229 106.163c-.337-.75-.763-1.208-.768-2.113.005-1.919.685-2.973.679-4.8091 0-.4082-.066-.6343-.193-1.0369l.127-.0387c-.006-.011-.011-.022-.017-.033v-.0056c-.292-.7004-.514-1.1527-1.011-1.7428-.376-.4633-.995-.2979-1.674-.6729-.619-.3751-.818-.9156-.945-1.5774l.282-.0552c.132.6508.281 1.059.812 1.3844.53.3309 1.216.1379 1.746.7335.531.6233.768 1.1252 1.067 1.8532 1.392 3.0005.591 5.4765 2.89 7.7495l-.205.204c-.817-.822-1.265-1.66-1.547-2.521-.193 1.065-.558 1.677-.978 2.675l-.127.309zm.199-6.9221c-.006 1.9191-.68 2.9731-.675 4.8091-.005.695.282 1.087.597 1.705.398-.91.719-1.484.873-2.526l.177.027c-.398-1.351-.458-2.758-.978-4.2468.006.0717.006.1489.006.2317z" fill="#06182e"/><path d="m228.106 94.0107c.199.3751.454.5516.851.6729.028-.171.205-.2206.205-.3971s-.177-.2041-.205-.3751c-.326 0-.552.0497-.851.0993z" fill="#1c4e9d"/><path d="m228.938 94.7542c-.414-.1269-.691-.3199-.895-.7115l-.05-.0883.1-.0165c.298-.0497.53-.0993.867-.0993h.061l.011.0607c0 .1213.182.1489.199.386-.017.2317-.199.2869-.199.4137l-.017.0827zm-.028-.16c.067-.1599.188-.2096.177-.3089.017-.1047-.116-.1323-.182-.3033-.254.0055-.448.0386-.685.0827.171.2758.376.4192.69.5295z" fill="#06182e"/><path d="m228.782 101.672c-.248-.326-.475-.524-.674-.877v-2.1072c-.431-1.7263-2.16-1.8753-3.116-3.3534-1.028-1.605-1.155-3.8056-3.062-3.8056-1.155 0-1.304 1.5498-1.304 2.7025 0 2.2282 1.807 3.1328 3.664 4.3572 1.608 1.0535 2.183 2.6305 4.117 2.7795z" fill="#06182e"/><path d="m219.3 87.6519c-.099 1.2023-.176 2.1565-1.077 2.9287-.58.4798-1.033.8549-1.205 1.605l.398.7997c-.199.5295-.497.8273-.497 1.4009 0 .4026.597.2813.801.6067.475.7225-.05 1.4506.398 2.2007.254.4522.779.4743.984.9541.171.4247-.128.8273.099 1.2024.403.6232 1.028.6232 1.58 1.0979 1.277 1.152 1.758 2.156 2.31 3.811v.8c-1.033 0-1.58.226-2.613.303.226.397.502.623.906.849-.177 0-.227.155-.404.155h-1.304c-.248 0-.177-.453-.376-.557-.248-.149-.502.077-.779 0-.326-.072-.149-.624-.403-.85-.249-.226-.801-.149-.801-.502 0-.877 1.204-1.025 1.204-1.902 0-1.528-.851-2.306-1.602-3.6075-.884-1.5113-.73-5.2618-.404-5.157.199-.6508 0-1.0313 0-1.7042 0-1.1528.127-2.0297 1.001-2.7577.232-.1765.602-.0717.806-.2979.426-.4522.454-1.0038.978-1.3788z" fill="#06182e"/><path d="m272.003 92.5071c-.729 1.1031-1.884 1.1748-2.486 2.3772v.8052c.226.0221.381.0993.602.0993 1.481 0 1.708-1.8035 1.884-3.2817z" fill="#fff"/><path d="m269.504 95.8309-.128-.0165v-.9597l.012-.0331c.657-1.2686 1.823-1.3513 2.492-2.3937l.265.0937c-.177 1.4561-.381 3.381-2.023 3.4086-.265 0-.419-.0828-.618-.0993zm2.293-2.8404c-.741.7831-1.652.9707-2.133 1.9304v.6453c.177.033.304.0827.458.0772 1.172.0276 1.498-1.3017 1.675-2.6529z" fill="#1c4e9d"/><path d="m269.687 106.159c-.42-.998-.79-1.611-.978-2.681-.287.866-.729 1.705-1.547 2.526l-.204-.204c2.293-2.277 1.492-4.754 2.884-7.7543.299-.7225.542-1.2244 1.072-1.8477.531-.5956 1.221-.4081 1.741-.7335.536-.3254.685-.7391.812-1.3844l.282.0552c-.121.6618-.32 1.2023-.945 1.5774-.674.3695-1.299.2096-1.669.6674-.503.5956-.724 1.0424-1.011 1.7428v.0111c-.006.011-.011.022-.017.0331l.127.0386c-.127.4026-.193.6232-.193 1.0369-.005 1.8364.669 2.8844.674 4.8094 0 .899-.425 1.362-.762 2.112l-.138.304zm.144-.403c.315-.617.597-1.009.597-1.704 0-1.837-.674-2.89-.674-4.8094 0-.0828 0-.16.005-.2317-.519 1.4891-.58 2.8961-.978 4.2411l.177-.022c.155 1.043.47 1.616.873 2.526z" fill="#1c4e9d"/><path d="m271.075 94.0107c-.199.3751-.453.5516-.851.6729-.028-.171-.199-.2206-.199-.3971s.171-.2041.199-.3751c.32 0 .547.0497.851.0993z" fill="#1c4e9d"/><path d="m270.08 94.7073c.016-.0772-.172-.1323-.199-.4191.033-.3034.226-.331.199-.4027l.016-.1213h.127c.338 0 .581.0552.874.1048l.199.0331-.094.1765c-.21.4026-.52.6177-.934.7446l-.166.0496zm.088-.4191c-.022.0441.061.0827.133.2151.237-.0883.398-.1986.541-.3861-.176-.0331-.337-.0552-.525-.0607-.077.1655-.176.182-.149.2317z" fill="#1c4e9d"/><path d="m270.398 101.672c.249-.326.476-.524.675-.877v-2.1072c.431-1.7263 2.16-1.8753 3.116-3.3534 1.028-1.605 1.155-3.8056 3.062-3.8056 1.149 0 1.304 1.5498 1.304 2.7025 0 2.2282-1.807 3.1328-3.664 4.3572-1.608 1.0535-2.183 2.6305-4.117 2.7795z" fill="#1c4e9d"/><path d="m279.88 87.6519c.1 1.2023.177 2.1565 1.078 2.9287.58.4798 1.028.8549 1.205 1.605l-.404.7997c.205.5295.509.8273.509 1.4009 0 .4026-.603.2813-.807.6067-.476.7225.049 1.4506-.404 2.2007-.248.4522-.773.4743-.978.9541-.171.4247.127.8273-.099 1.2024-.404.6232-1.028.6232-1.581 1.0979-1.282 1.152-1.757 2.156-2.31 3.811v.8c1.028 0 1.586.226 2.609.303-.221.397-.498.623-.901.849.177 0 .226.155.403.155h1.304c.255 0 .177-.453.376-.557.249-.149.503.077.774 0 .331-.072.155-.624.403-.85.255-.226.807-.149.807-.502 0-.877-1.21-1.025-1.21-1.902 0-1.528.856-2.306 1.614-3.6075 1.326-2.2779 2.453-3.6071 2.658-6.26-.581.022-.829.3971-1.404.3971-.177 0-.055-.3254-.205-.3971.1.2978.15.4743.205.7997-.326.1268-.531.1985-.857.3033-.199-.6508 0-1.0313 0-1.7042 0-1.1528-.127-2.0297-1-2.7577-.226-.1765-.608-.0717-.807-.2979-.425-.4522-.453-1.0038-.978-1.3788z" fill="#1c4e9d"/><path d="m272.42 88.7322c-.498.5019-4.869 5.3555-5.018 5.9566l.127 2.7798c-.326 1.081-.403 1.7539-.906 2.7574v4.407c-.426 1.329-.354 2.157-.453 3.558-.05.275-.045.518-.094.794v2.007c.552 2.405 1.63 3.552 3.011 5.56.851 1.224 1.708 2.002 1.708 3.502 0 1.683-.227 3.012-1.509 4.06l.122-.083c-.376.05-.602.105-.978.105-2.26 0-3.012-2.482-5.272-2.482-1.028 0-1.603.502-2.409 1.103.204 0 .303.099.502.099.404 0 .603-.298 1.006-.298.404 0 .603.072 1.006.094 0 2.306 2.984 2.03 5.067 3.061l-.127.022c-.851.552-1.403.976-2.431 1.081-1.36.122-3.216.044-3.216 1.401 0 .623.502.905.906 1.351.276-.397.503-.849 1.006-.849h1.453c1.055 0 1.381-.927 2.083-1.704.73-.805 1.608-.805 2.686-.805 1.73 0 2.586 1.003 4.316 1.003.298 0 .453-.298.751-.298.326 0 .503.171.802.298-.802-1.202-1.581-2.151-3.007-2.151-1.154 0-1.812.072-2.961 0 .978-1.307 2.332-1.505 3.989-1.505 1.028 0 1.376.877 1.979 1.704.884 1.224 1.608 2.079 1.608 3.607 0 .226-.078.375-.1.601h-.801c-1.31-.425-2.034-1.053-3.415-1.053-1.68 0-3.664.579-3.664 2.256 0 .325.1.501.199.799l.028.221 1.282-.05v-1.026c.873.199 1.354.574 2.254.574 1.233 0 1.907-.375 3.112-.673 0 .149.105.248.105.403 0 1.323-2.261 1.224-2.261 2.553 0 1.103.426 1.705.553 2.802h.702v.353-1.153c.602-.099 1.155-.176 1.403-.7.326-.678-.121-1.379.304-2.002.597-.877 1.531-1.004 2.609-1.004 1.658 0 2.509 1.004 4.166 1.004.829 0 .127-1.506.802-1.958.326-.199.602 0 1.005 0-.199-.998-1.359-1.098-2.359-1.098-1.133 0-1.68.701-2.813.701-.553 0-.851-.127-1.404-.199-.127-.502-.381-.855-.381-1.384 0-1.572.525-2.427.779-3.982.1-.646.453-.949.603-1.6.099-.424-.05-1.103.403-1.103 1.481 0 2.332.353 3.664 1.004l-.078-.121c3.283-.403 5.068-.651 8.356-1.181l.32-.121c-.602-1.478-1.652-1.98-2.934-2.934-2.011-1.5-3.089-2.554-4.719-4.506v-1.153c1.403-.226 2.21 0 3.614 0 .602-.303 1.028-.53 1.354-1.103-.072-.474-.249-.794-.453-1.197.502-.325.906-.397 1.508-.397 1.078-.452 2.608-.43 2.608-1.605 0-.976-1.027-1.5-2.005-1.5 0-.155-.1-.254-.1-.403 0-.954 1.105-1.053 1.708-1.754.851-.976.9-1.881 1.099-3.204v-1.054c-.574-.099-.95-.077-1.503.05l-.177-.022c-.127-.375-.199-.623-.199-1.026 0-2.1565 2.183-2.9563 2.183-5.1073 0-1.0314.348-3.1328-.679-3.1328-.852 0-1.404 2.1014-1.808 2.8294l.1.1765c-.398-.1985-.774-.4246-.774-.8769 0-2.6805 1.454-4.0318 1.454-6.7123 0-1.5498-.1-2.7301-1.155-3.8553-1.653 1.6547-1.255 3.4582-2.559 5.4107-1.254-.9763-.95-2.4268-1.199-4.0042-.155-1.0756-.403-2.4544-1.509-2.4544-.602 0-.724.6784-.9 1.252v2.6033c-.277.8273-.802 1.1803-1.509 1.7042l-.227.0773c-.724-1.3293-1.077-2.2559-1.077-3.7836-.276-.0276-.426-.0993-.702-.0993-.978 0-.68 1.3513-1.155 2.2007-1.232-1.3734-.525-3.5796-2.31-4.1532h-.801c-.05.3475-.1.5516-.1.8991 0 1.5553 1.305 2.2061 1.305 3.756 0 1.2795-1.006 2.0296-2.211 2.4543 0-.7997 0-1.252-.099-2.0517-.199-.0993-.326-.1986-.503-.3034-.426.4302-.625.7281-1.006 1.1803-.249-.7501-.199-1.252-.497-1.98-.63.6232-.503 1.3568-.956 2.0793-.603-1.1527-.221-1.98-.619-3.2045z" fill="#fff"/><path d="m271.819 92.5071c-.73 1.1031-1.885 1.1748-2.487 2.3772v.8052c.227.0221.381.0993.602.0993 1.481 0 1.708-1.8035 1.885-3.2817z" fill="#fff"/><path d="m269.318 95.8314-.127-.0166v-.9652l.016-.0275c.653-1.2741 1.819-1.3513 2.493-2.3937l.259.0937c-.176 1.4561-.375 3.381-2.022 3.4086-.265 0-.42-.0828-.619-.0993zm2.293-2.8405c-.74.7832-1.652.9708-2.133 1.9304v.6453c.177.0331.304.0773.459.0773 1.171.0275 1.498-1.3017 1.674-2.653z" fill="#06182e"/><path d="m269.502 106.158c-.42-.998-.79-1.61-.978-2.675-.288.861-.73 1.699-1.548 2.521l-.204-.204c2.304-2.278 1.492-4.765 2.896-7.7768.293-.7115.536-1.2079 1.061-1.8256.53-.5957 1.215-.4082 1.74-.7336.536-.3254.686-.7391.813-1.3844l.287.0552c-.127.6618-.326 1.2023-.95 1.5774-.675.375-1.294.2096-1.669.6674-.498.5956-.719 1.0479-1.012 1.7484-.005.011-.011.0275-.016.0386l.127.0386c-.127.4026-.193.6287-.193 1.0369-.006 1.8369.674 2.8849.679 4.8099-.005.904-.431 1.362-.768 2.112l-.138.303zm.144-.402c.315-.618.602-1.01.596-1.704.006-1.837-.674-2.891-.679-4.8099 0-.0828.005-.1545.011-.2262-.52 1.4891-.581 2.8901-.978 4.2411l.176-.027c.155 1.042.47 1.616.874 2.526z" fill="#06182e"/><path d="m270.89 94.0107c-.198.3751-.453.5516-.856.6729-.022-.171-.199-.2206-.199-.3971s.177-.2041.199-.3751c.331 0 .553.0497.856.0993z" fill="#1c4e9d"/><path d="m269.964 94.6963c0-.1268-.188-.1765-.199-.4081.017-.2427.199-.2703.199-.3861l.006-.0662h.066c.331 0 .569.0552.868.1048l.099.0166-.05.0882c-.204.3861-.486.5846-.895.7115l-.083.0221zm-.055-.4081c-.017.0993.11.1489.171.3088.321-.1103.525-.2537.696-.535-.237-.0386-.431-.0772-.69-.0827-.061.1765-.194.2041-.177.3089z" fill="#06182e"/><path d="m272.699 101.672c.249-.326.475-.524.68-.877v-2.1072c.425-1.7263 2.155-1.8753 3.111-3.3534 1.028-1.605 1.155-3.8056 3.062-3.8056 1.155 0 1.304 1.5498 1.304 2.7025 0 2.2282-1.807 3.1328-3.664 4.3572-1.608 1.0535-2.183 2.6305-4.117 2.7795z" fill="#06182e"/><path d="m282.183 87.6519c.099 1.2023.177 2.1565 1.078 2.9287.58.4798 1.027.8549 1.204 1.605l-.398.7997c.199.5295.498.8273.498 1.4009 0 .4026-.603.2813-.802.6067-.475.7225.05 1.4506-.397 2.2007-.255.4522-.78.4743-.984.9541-.171.4247.127.8273-.1 1.2024-.403.6232-1.027.6232-1.58 1.0979-1.282 1.152-1.757 2.156-2.31 3.811v.8c1.028 0 1.581.226 2.614.303-.227.397-.503.623-.906.849.176 0 .226.155.403.155h1.304c.249 0 .177-.453.376-.557.249-.149.503.077.779 0 .326-.072.149-.624.404-.85.248-.226.801-.149.801-.502 0-.877-1.205-1.025-1.205-1.902 0-1.528.851-2.306 1.603-3.6075.884-1.5113.729-5.2618.403-5.157-.199-.6508 0-1.0313 0-1.7042 0-1.1528-.127-2.0297-1.006-2.7577-.226-.1765-.596-.0717-.801-.2979-.425-.4522-.448-1.0038-.978-1.3788z" fill="#06182e"/><path d="m233.084 139.033s-3.725 2.145-4.93 2.575c0 0 1.001 3.089 5.129 2.802 0 0-.57-3.546-.199-5.377z" fill="#06182e"/><path d="m266.42 140.236s3.725 2.146 4.924 2.571c0 0-1 3.088-5.123 2.807 0 0 .569-3.546.199-5.378z" fill="#06182e"/><path d="m239.159 57.4688-.066 26.8987.287.0055.066-26.9042z" fill="#06182e"/></g></g><g fill="#000"><path d="m305.613 245.001v-4.512c0-3.94 0-4.662-.06-5.474-.06-.842-.271-1.263-1.143-1.443-.181-.03-.481-.061-.722-.061-.211 0-.391-.09-.391-.18 0-.18.15-.241.451-.241.602 0 1.414.061 3.098.091.15 0 5.504 0 6.106-.03.601-.031.932-.061 1.173-.151.18-.06.21-.09.331-.09.06 0 .12.06.12.21 0 .181-.181.602-.241 1.354-.03.511-.06.993-.09 1.564 0 .271-.06.451-.21.451-.151 0-.211-.12-.211-.331-.03-.451-.12-.752-.211-.962-.18-.602-.451-.812-1.955-.903-.391-.03-3.368-.06-3.428-.06-.091 0-.151.06-.151.241v6.828c0 .18.03.3.181.3.361 0 3.429-.03 4.06-.09.692-.03 1.143-.12 1.384-.451.12-.181.21-.241.331-.241.06 0 .12.03.12.181 0 .15-.12.722-.211 1.594-.09.842-.09 1.444-.12 1.835-.03.24-.09.33-.211.33-.15 0-.18-.18-.18-.391 0-.18-.03-.481-.09-.721-.121-.391-.301-.813-1.444-.903-.692-.06-3.128-.12-3.609-.12-.181 0-.211.09-.211.211v2.195c0 .933-.03 3.579 0 4.091.06 1.113.211 1.684.842 1.955.452.21 1.173.27 2.196.27.572 0 1.534.031 2.286-.18.902-.271 1.113-.872 1.353-1.985.061-.301.151-.421.271-.421.181 0 .181.27.181.451 0 .21-.241 2.105-.331 2.617-.121.601-.331.661-1.324.661-1.985 0-2.827-.06-3.88-.06-1.052-.03-2.436-.09-3.549-.09-.692 0-1.263.09-1.985.09-.271 0-.421-.06-.421-.21 0-.121.12-.211.271-.211.18 0 .391-.03.601-.09.542-.12.903-.511.963-2.376.03-1.023.06-2.256.06-4.542z"/><path d="m297.68 247.498v2.707c0 1.203-.03 1.233-.361 1.413-1.654.843-4.06 1.143-5.534 1.143-1.955 0-5.745-.15-8.813-2.707-1.624-1.353-3.248-3.88-3.248-7.308 0-4.091 2.075-7.009 4.542-8.482 2.316-1.354 4.872-1.534 6.707-1.534 1.925 0 3.218.24 4.301.421.481.09 1.654.24 2.286.271.241 0 .241.12.241.24 0 .361-.211 1.263-.211 3.91 0 .421-.03.542-.24.542-.151 0-.181-.181-.211-.361 0-.271-.12-1.203-.571-1.865-.692-.993-2.858-2.106-6.227-2.106-1.624 0-3.519.061-5.534 1.595-1.534 1.173-2.526 3.458-2.526 6.436 0 3.579 1.955 6.226 2.737 6.978 1.985 1.925 4.211 2.797 6.827 2.797.843 0 2.166-.15 2.858-.511.301-.18.511-.481.511-.902v-4.331c0-1.986-.15-2.377-1.203-2.527-.181-.03-.481-.06-.722-.06s-.361-.12-.361-.211c0-.15.12-.21.451-.21 1.203 0 2.948.06 3.068.06.121 0 1.895-.06 2.707-.06.301 0 .421.06.421.21 0 .091-.09.211-.361.211-.21 0-.27 0-.511.03-.722.09-.902.632-.962 1.504-.061.872-.061 1.624-.061 2.707z"/><path d="m266.43 245.001v-4.512c0-3.94 0-4.662-.06-5.474-.061-.842-.271-1.263-1.143-1.443-.181-.03-.482-.061-.722-.061-.211 0-.391-.09-.391-.18 0-.18.15-.241.451-.241.601 0 1.414.061 3.098.091.15 0 5.504 0 6.106-.03.601-.031.932-.061 1.173-.151.18-.06.21-.09.331-.09.06 0 .12.06.12.21 0 .181-.181.602-.241 1.354-.03.511-.06.993-.09 1.564 0 .271-.06.451-.211.451-.15 0-.21-.12-.21-.331-.03-.451-.12-.752-.211-.962-.18-.602-.451-.812-1.955-.903-.391-.03-3.368-.06-3.429-.06-.09 0-.15.06-.15.241v6.828c0 .18.03.3.181.3.36 0 3.428-.03 4.06-.09.692-.03 1.143-.12 1.384-.451.12-.181.21-.241.33-.241.061 0 .121.03.121.181 0 .15-.121.722-.211 1.594-.09.842-.09 1.444-.12 1.835-.03.24-.09.33-.211.33-.15 0-.18-.18-.18-.391 0-.18-.03-.481-.09-.721-.121-.391-.301-.813-1.444-.903-.692-.06-3.128-.12-3.609-.12-.181 0-.211.09-.211.211v2.195c0 .933-.03 3.579 0 4.091.06 1.113.211 1.684.842 1.955.451.21 1.173.27 2.196.27.571 0 1.534.031 2.286-.18.902-.271 1.113-.872 1.353-1.985.06-.301.151-.421.271-.421.18 0 .18.27.18.451 0 .21-.24 2.105-.33 2.617-.121.601-.331.661-1.324.661-1.985 0-2.827-.06-3.88-.06-1.053-.03-2.436-.09-3.549-.09-.692 0-1.263.09-1.985.09-.271 0-.421-.06-.421-.21 0-.121.12-.211.271-.211.18 0 .391-.03.601-.09.541-.12.902-.511.963-2.376.03-1.023.06-2.256.06-4.542z"/><path d="m253.123 240.49v4.571c0 3.459.12 5.204.632 5.685.481.421 1.082.602 3.158.602 1.323 0 2.526 0 3.188-.843.301-.451.511-1.052.571-1.503.03-.241.091-.361.241-.361.12 0 .18.09.18.391 0 .3-.18 2.015-.36 2.707-.181.601-.151.752-1.595.752-2.045 0-4.301-.151-7.308-.151-.993 0-1.594.09-2.647.09-.301 0-.481-.06-.481-.24 0-.09.09-.181.33-.181.241 0 .482 0 .722-.06.512-.09.692-.692.782-1.413.181-1.143.121-3.219.121-5.535v-4.511c0-3.971 0-4.632-.061-5.444-.06-.843-.18-1.384-1.203-1.504-.18-.03-.511-.03-.752-.03-.21 0-.33-.091-.33-.211 0-.15.15-.21.451-.21 1.263 0 3.068.09 3.128.09.421 0 2.256-.09 3.098-.09.301 0 .391.09.391.21s-.151.211-.331.211c-.211 0-.511.03-.812.06-.842.12-1.023.601-1.083 1.474-.06.812-.03 1.473-.03 5.444z"/><path d="m237.35 240.49v4.571c0 3.459.12 5.204.632 5.685.481.421 1.082.602 3.158.602 1.323 0 2.526 0 3.188-.843.301-.451.511-1.052.571-1.503.031-.241.091-.361.241-.361.12 0 .181.09.181.391 0 .3-.181 2.015-.361 2.707-.181.601-.151.752-1.594.752-2.046 0-4.302-.151-7.309-.151-.993 0-1.594.09-2.647.09-.301 0-.481-.06-.481-.24 0-.09.09-.181.33-.181.241 0 .482 0 .722-.06.512-.09.692-.692.782-1.413.181-1.143.121-3.219.121-5.535v-4.511c0-3.971 0-4.632-.061-5.444-.06-.843-.18-1.384-1.203-1.504-.18-.03-.511-.03-.752-.03-.21 0-.33-.091-.33-.211 0-.15.15-.21.451-.21 1.263 0 3.068.09 3.128.09.421 0 2.256-.09 3.098-.09.301 0 .391.09.391.21s-.151.211-.331.211c-.211 0-.511.03-.812.06-.842.12-1.023.601-1.083 1.474-.06.812-.03 1.473-.03 5.444z"/><path d="m218.197 252.761c-7.369 0-10.377-5.474-10.377-10.046 0-4 3.098-9.985 10.527-9.985 5.955 0 10.497 3.549 10.497 9.594 0 5.745-4.241 10.437-10.647 10.437zm.752-1.022c2.015 0 7.068-1.023 7.068-8.663 0-6.045-3.73-9.414-7.851-9.414-4.18 0-7.549 2.587-7.549 8.271 0 5.896 3.278 9.806 8.332 9.806z"/><path d="m197.453 252.852c-4.512 0-7.55-1.113-9.926-3.249-2.917-2.617-3.639-6.045-3.639-8.903 0-2.015.691-5.534 3.368-8.211 1.805-1.805 4.542-3.218 9.174-3.218 1.203 0 2.887.09 4.361.361 1.143.21 2.076.3 3.188.451.211.03.271.15.271.331 0 .24-.09.601-.15 1.684-.06.993-.06 2.647-.09 3.098-.031.451-.091.632-.271.632-.211 0-.241-.211-.241-.632 0-1.173-.481-2.406-1.263-3.068-1.053-.902-3.369-1.714-6.016-1.714-4 0-5.865 1.173-6.917 2.195-2.196 2.106-2.707 4.783-2.707 7.851 0 5.744 4.421 11.008 10.858 11.008 2.255 0 4.03-.271 5.233-1.504.632-.662 1.023-1.985 1.113-2.526.06-.331.12-.452.301-.452.15 0 .21.211.21.452 0 .21-.361 2.827-.661 3.85-.181.571-.241.631-.782.872-1.203.481-3.489.692-5.414.692z"/><path d="m311.63 212.424c0-14.347.03-9.716 0-14.708 0-.933.09-1.234.331-1.234.21 0 .722.602.932.813.271.3 4.452 4.571 8.663 8.872 2.346 2.286 5.353 5.384 6.135 6.106l-.33-12.512c-.031-1.624-.211-2.166-1.023-2.376-.511-.09-.963-.121-1.173-.121-.301 0-.361-.12-.361-.24 0-.151.241-.181.541-.181 1.294 0 2.557.091 2.828.091.3 0 1.233-.091 2.406-.091.331 0 .421.03.421.181 0 .12-.09.21-.271.24-.18.031-.421.031-.752.091-.692.15-.902.451-.902 2.255l-.06 15.099c0 1.504-.06 1.655-.271 1.655-.21 0-.511-.211-1.985-1.594-.12-.061-4.301-4.211-6.918-6.768-3.128-3.248-6.136-6.376-6.888-7.158l.391 11.76c.061 2.075.241 2.857.993 3.038.481.12.992.12 1.233.12s.361.09.361.211c0 .15-.15.21-.481.21-1.624 0-2.707-.09-2.918-.09-.21 0-1.323.09-2.616.09-.271 0-.452-.03-.452-.21 0-.121.121-.211.421-.211.211 0 .542 0 .933-.12.662-.211.812-1.023.812-3.218z"/><path d="m295.461 216.514c-7.369 0-10.377-5.474-10.377-10.046 0-4 3.098-9.986 10.528-9.986 5.955 0 10.497 3.55 10.497 9.595 0 5.745-4.241 10.437-10.648 10.437zm.752-1.023c2.015 0 7.068-1.022 7.068-8.662 0-6.045-3.729-9.414-7.85-9.414-4.181 0-7.549 2.586-7.549 8.271 0 5.895 3.278 9.805 8.331 9.805z"/><path d="m276.011 198.016v10.738c0 2.316.03 4.451.15 5.564.09.722.15 1.143.902 1.324.361.09.933.12 1.173.12.241 0 .361.09.361.18 0 .151-.09.241-.391.241-1.534 0-3.308-.09-3.428-.09-.121 0-1.895.09-2.677.09-.331 0-.452-.06-.452-.211 0-.09.091-.21.331-.21.241 0 .421 0 .662-.03.571-.09.662-.451.782-1.474.12-1.083.12-3.248.12-5.504v-10.738c-.992 0-2.586 0-3.789.03-1.925.03-2.346.331-2.768.963-.27.421-.391.782-.451.932-.09.211-.15.241-.27.241-.121 0-.151-.121-.151-.271-.03-.18.421-2.166.602-2.978.09-.361.18-.481.27-.481.211 0 .782.271 1.324.331 1.053.12 1.895.15 1.925.15h9.865c.842 0 1.745-.06 2.166-.15.391-.09.481-.12.571-.12.121 0 .181.15.181.27 0 .843-.06 2.828-.06 3.068 0 .271-.121.361-.211.361-.15 0-.21-.12-.21-.361 0-.09 0-.12-.031-.421-.12-1.203-.511-1.504-3.549-1.534-1.143 0-2.075-.03-2.947-.03z"/><path d="m247.65 204.904h10.888c.09 0 .18 0 .18-.15v-.542c0-3.97 0-4.662-.06-5.474s-.18-1.233-1.173-1.413c-.211-.031-.511-.061-.752-.061-.211 0-.361-.09-.361-.21 0-.181.15-.211.421-.211 1.263 0 3.038.09 3.158.09.121 0 1.805-.09 2.707-.09.301 0 .482.03.482.211 0 .09-.091.21-.331.21-.181 0-.421.03-.602.061-.812.12-.932.601-.992 1.443-.031.812-.03 1.504-.03 5.474v4.512c0 2.466-.001 4.421.12 5.504.09.722.24 1.324 1.022 1.414.391.06.782.09 1.053.09.241 0 .391.09.391.211 0 .15-.15.21-.451.21-1.504 0-3.248-.09-3.399-.09-.12 0-1.865.09-2.677.09-.3 0-.451-.06-.451-.241 0-.09.09-.18.331-.18s.451 0 .692-.06c.511-.09.662-.752.752-1.444.15-1.083.15-2.978.15-5.414v-2.677c0-.12-.09-.18-.18-.18h-10.918c-.091 0-.151.03-.151.18v2.677c0 2.436 0 4.392.151 5.474.09.662.24 1.264 1.022 1.354.391.06.842.09 1.083.09.21 0 .361.09.361.211 0 .12-.12.21-.391.21-1.534 0-3.309-.09-3.459-.09-.09 0-1.925.09-2.707.09-.301 0-.481-.06-.481-.21 0-.091.06-.211.331-.211.24 0 .481-.03.721-.09.542-.121.662-.692.752-1.354.181-1.082.151-3.098.151-5.564v-4.452c0-3.97 0-4.752-.06-5.564-.061-.782-.271-1.353-1.143-1.444-.271-.03-.572-.06-.812-.06-.211 0-.331-.09-.331-.18 0-.181.15-.211.451-.211 1.293 0 2.737.09 3.128.09.12 0 1.865-.09 2.707-.09.301 0 .451.06.451.211 0 .12-.12.18-.301.18-.18 0-.27 0-.601.06-.752.121-.933.632-.993 1.474-.03.812-.03 1.474-.03 5.444v.542c0 .15.09.15.181.15z"/><path d="m237.07 211.25v2.707c0 1.204-.03 1.234-.361 1.414-1.654.842-4.06 1.143-5.534 1.143-1.955 0-5.745-.15-8.813-2.707-1.624-1.353-3.248-3.88-3.248-7.309 0-4.09 2.075-7.008 4.541-8.482 2.316-1.353 4.873-1.534 6.708-1.534 1.925 0 3.218.241 4.301.422.481.09 1.654.24 2.286.27.24 0 .24.121.24.241 0 .361-.21 1.263-.21 3.91 0 .421-.03.541-.241.541-.15 0-.18-.18-.21-.361 0-.27-.121-1.203-.572-1.864-.692-.993-2.857-2.106-6.226-2.106-1.624 0-3.519.06-5.534 1.594-1.534 1.173-2.527 3.459-2.527 6.437 0 3.579 1.955 6.226 2.737 6.978 1.986 1.925 4.211 2.797 6.828 2.797.842 0 2.166-.15 2.857-.511.301-.181.512-.482.512-.903v-4.331c0-1.985-.151-2.376-1.203-2.526-.181-.03-.482-.06-.722-.06-.241 0-.361-.121-.361-.211 0-.15.12-.211.451-.211 1.203 0 2.948.061 3.068.061s1.895-.061 2.707-.061c.301 0 .421.061.421.211 0 .09-.09.211-.361.211-.211 0-.271 0-.511.03-.722.09-.903.631-.963 1.504-.06.872-.06 1.624-.06 2.706z"/><path d="m210.637 208.754v-4.512c0-3.97 0-4.692-.06-5.504-.061-.812-.241-1.263-.873-1.383-.3-.061-.511-.061-.692-.091-.21-.03-.33-.09-.33-.21 0-.151.12-.211.451-.211.932 0 2.647.09 2.737.09.12 0 1.865-.09 2.707-.09.301 0 .451.06.451.211 0 .12-.09.18-.331.21-.18.03-.331.03-.541.061-.872.12-.963.571-1.023 1.443-.06.812-.03 1.504-.03 5.474v4.512c0 2.316-.03 4.421.12 5.504.121.872.241 1.203 1.023 1.384.391.09 1.023.12 1.143.12.271.03.331.09.331.211 0 .12-.121.21-.421.21-1.534 0-3.279-.09-3.429-.09-.09 0-1.865.09-2.707.09-.271 0-.481-.06-.481-.21 0-.121.12-.211.391-.211.15 0 .481-.03.722-.09.511-.121.601-.722.691-1.444.151-1.083.151-3.218.151-5.474z"/><path d="m191.134 208.754v-4.512c0-3.97 0-4.692-.06-5.504s-.271-1.263-1.203-1.444c-.181-.03-.482-.06-.722-.06-.211 0-.331-.06-.331-.18 0-.121.09-.211.361-.211 1.293 0 3.128.09 3.188.09.271 0 2.316-.09 3.158-.09 1.685 0 3.519.151 4.933 1.143.571.421 1.805 1.624 1.805 3.67 0 1.654-.813 3.759-3.189 5.684 2.196 2.707 4.001 4.933 5.535 6.527 1.443 1.474 2.346 1.715 3.188 1.835.21.03.842.06.932.06.241 0 .331.09.331.211 0 .15-.12.21-.541.21h-2.106c-1.413 0-2.075-.09-2.737-.361-1.263-.541-2.165-1.895-3.729-3.91-1.173-1.444-2.377-3.068-2.888-3.699-.12-.121-.18-.181-.361-.181l-3.098-.03c-.12 0-.15.03-.15.15v.422c0 2.406 0 4.601.15 5.684.09.722.181 1.324 1.173 1.444.301.03.632.06.872.06.271 0 .391.09.391.18 0 .151-.12.241-.421.241-1.564 0-3.248-.09-3.368-.09-.482 0-1.805.09-2.617.09-.301 0-.421-.06-.421-.241 0-.09.18-.18.361-.18.21 0 .421 0 .662-.06.511-.09.691-.421.782-1.143.15-1.083.12-3.549.12-5.805zm2.316-10.557v8.181c0 .15.03.301.15.361.391.21 1.594.391 2.677.391.632 0 1.384-.03 2.015-.451.903-.572 1.504-1.895 1.504-3.82 0-3.279-1.744-5.083-4.421-5.083-.752 0-1.384.06-1.745.15-.09.03-.18.12-.18.271z"/><path d="m171.558 207.461v-5.294c0-4.692 0-5.534-.06-6.497-.061-1.022-.301-1.504-1.294-1.714-.24-.06-.752-.09-.872-.09-.271 0-.391-.06-.391-.181 0-.18.15-.24.481-.24 1.354 0 3.249.09 3.399.09.722 0 1.895-.09 3.278-.09 4.933 0 6.016 3.007 6.016 4.511 0 2.467-1.414 3.94-2.827 5.414 2.225.692 5.203 2.827 5.203 6.347 0 3.218-2.527 6.556-7.67 6.556-.331 0-1.293-.06-2.165-.09-.873-.06-1.715-.09-1.835-.09-.963 0-1.895.09-2.948.09-.331 0-.481-.06-.481-.21 0-.091.06-.211.451-.211.241 0 .451-.03.722-.09.602-.12.722-.812.842-1.684.151-1.264.151-3.64.151-6.527zm2.406-12.693v8.061c0 .21.06.27.21.331.181.03.722.12 1.835.12 1.684 0 2.106-.06 2.737-.782.632-.722 1.083-1.805 1.083-3.038 0-2.496-1.113-5.173-4.06-5.173-.331 0-.963.03-1.444.15-.271.06-.361.151-.361.331zm0 9.535v1.714c0 2.316 0 6.046.03 6.497.09 1.474.09 1.895 1.023 2.346.812.391 2.105.451 2.646.451 1.625 0 4.241-.872 4.241-4.271 0-1.805-.601-4.421-2.917-6.016-1.023-.691-1.775-.782-2.497-.872-.391-.06-1.895-.06-2.346-.06-.12 0-.18.06-.18.211z"/></g></svg>