<svg fill="none" height="300" viewBox="0 0 500 300" width="500" xmlns="http://www.w3.org/2000/svg"><g fill="#282c36"><path d="m225.5 149.707c.004-.255.093-.501.253-.7.16-.198.383-.338.632-.396 0 0 .158 0 .158-.357 0-.275-.127-.338-.127-.338h-1.94c-.586 0-1.214 1.065-1.214 1.876-.013.203.021.405.101.592s.203.352.359.482l-1.814 4.069.14.189h2.143l1.813-4.106c.028-.063.043-.131.041-.199 0-.04-.008-.079-.025-.116-.016-.036-.04-.069-.07-.096-.14-.105-.253-.241-.331-.397-.079-.156-.119-.328-.119-.503zm19.063 0c.002-.257.091-.505.254-.704.162-.199.388-.337.64-.392 0 0 .126 0 .126-.357 0-.275-.117-.338-.117-.338h-1.95c-.469-1.453-.894-2.941-1.312-4.422-.491-1.791-.862-3.371-1.129-4.868-1.696-2.527-3.804-4.299-3.858-7.691.194-2.421 1.317-4.673 3.135-6.289.812-.948.682-1.011 1.047-2.414 0 0 .634-2.264 1.011-3.79 1.557-6.059 4.178-8.892 5.992-14.878 1.51-4.2081 2.477-8.5905 2.878-13.0421.219-2.5576.19-5.1301-.085-7.682l-.108-.3159c-1.3-.0537-1.408 1.2635-1.471 2.2427-.438 7.2177-3.17 9.7258-7.688 14.467-1.771 1.4063-3.721 2.5743-5.798 3.4743-6.747 2.883-12.381 7.857-16.067 14.183-.58 1.346-1.005 2.753-1.268 4.195-.2 1.03-.335 2.071-.406 3.117-.704 1.507 2.4 3.244 2.803 6.634.336 1.985-.017 4.025-1.002 5.783 2.157 3.694 4.774 7.101 7.789 10.14.602.557 1.238 1.078 1.902 1.56-.333.427-.527.945-.555 1.485-.008.202.029.403.108.589.08.185.2.351.352.485l-1.801 4.068.118.19h2.152l1.823-4.106c.028-.063.043-.131.041-.199-.003-.08-.037-.156-.095-.212-.144-.101-.261-.235-.341-.392-.08-.156-.121-.33-.118-.505.002-.23.073-.454.203-.645.131-.189.315-.337.529-.423.167.095.306.233.402.4s.145.356.143.548c.001.139-.021.278-.063.41h3.059c.007.168.053.331.132.479.08.148.192.276.328.374l-.384.834-1.832 3.383.532.041h2.153l1.791-4.106c.034-.062.056-.129.064-.199 0-.041-.01-.082-.029-.119-.018-.037-.046-.068-.079-.093-.166-.124-.294-.292-.37-.484-.077-.192-.098-.402-.063-.605.036-.204.127-.394.263-.549.137-.156.314-.271.512-.333.178.093.328.232.433.403s.161.367.163.567c-.006.141-.035.279-.085.411h2.964c.01.165.055.327.132.474s.184.276.315.378l-.374.822-1.845 3.392.51.041h2.184l1.801-4.106c.029-.063.047-.13.054-.199.002-.039-.005-.079-.02-.115-.015-.037-.037-.07-.066-.097-.144-.1-.261-.235-.341-.391-.08-.157-.121-.333-.118-.509zm-36.375.003c0-.259.09-.51.256-.71.165-.2.395-.336.65-.386 0 0 .127 0 .127-.357 0-.275-.117-.338-.117-.338h-1.95c-.577 0-1.214 1.065-1.214 1.876-.012.204.025.407.106.593.081.187.206.352.363.481l-1.832 4.066.139.189h2.153l1.791-4.106c.029-.063.047-.13.054-.199 0-.04-.009-.079-.025-.116-.016-.036-.041-.069-.07-.096-.138-.105-.25-.241-.325-.397-.076-.155-.115-.327-.113-.5zm42.858 0c0-.256.087-.504.248-.703.161-.2.385-.338.636-.393 0 0 .149 0 .149-.357 0-.275-.127-.338-.127-.338h-1.94c-.596 0-1.214 1.065-1.214 1.876-.013.202.02.403.098.589.077.187.197.352.349.485l-1.801 4.069.14.189h2.152l1.791-4.106c.03-.063.048-.13.054-.199.003-.042-.006-.083-.025-.12-.018-.038-.047-.069-.082-.092-.135-.107-.243-.244-.316-.399-.074-.156-.111-.326-.109-.498zm6.473.003c.005-.258.097-.506.261-.706.165-.199.393-.336.646-.39 0 0 .139 0 .139-.357 0-.274-.117-.338-.117-.338h-1.943c-.587 0-1.227 1.065-1.227 1.877-.008.2.027.4.105.586.077.185.193.352.342.488l-1.791 4.068.126.19h2.144l1.813-4.107c.029-.063.047-.13.054-.199 0-.04-.009-.079-.025-.116-.016-.036-.041-.069-.07-.095-.141-.105-.256-.24-.336-.395-.079-.156-.122-.328-.124-.502zm6.49.004c.001-.256.089-.503.25-.702s.384-.338.634-.395c0 0 .149 0 .149-.356 0-.275-.127-.338-.127-.338h-1.93c-.587 0-1.205 1.064-1.205 1.876-.012.2.02.401.096.586.076.186.192.353.341.488l-1.813 4.068.127.19h2.165l1.801-4.107c.034-.061.053-.129.054-.199-.007-.077-.036-.151-.086-.211-.142-.103-.258-.238-.338-.393-.08-.157-.122-.329-.122-.504zm6.489.003c.002-.257.092-.505.254-.704.163-.2.388-.338.64-.392 0 0 .117 0 .117-.357 0-.275-.117-.338-.117-.338h-1.902c-.609 0-1.246 1.064-1.246 1.876-.009.203.028.405.11.591.081.186.204.352.359.483l-1.813 4.068.139.19h2.153l1.813-4.106c.023-.065.037-.132.041-.199-.001-.041-.012-.081-.031-.118-.018-.036-.044-.068-.076-.094-.138-.106-.249-.241-.325-.397s-.115-.327-.113-.5zm6.486.003c.005-.258.097-.507.262-.706.164-.199.392-.337.645-.39 0 0 .139 0 .139-.357 0-.275-.126-.338-.126-.338h-1.95c-.564 0-1.214 1.064-1.214 1.876-.009.202.028.403.108.589.079.186.199.351.351.485l-1.791 4.069.118.189h2.143l1.813-4.106c.034-.062.056-.129.063-.199.001-.042-.009-.082-.028-.119-.018-.037-.046-.069-.079-.093-.139-.105-.252-.241-.33-.396-.077-.156-.117-.327-.117-.501zm-110.729 5.19c-.545-1.017-1.029-2.066-1.449-3.14-1.08-2.648-1.466-5.527-1.119-8.364.587-4.236 3.231-5.869 5.139-9.695 1.792-3.004 3.279-6.178 4.438-9.476.924-2.846 1.444-5.807 1.548-8.797-.526.059-1.008.319-1.345.727-.745.736-1.962 5.805-3.709 9.072-1.101 2.215-2.686 4.158-4.638 5.685-3.804 3.159-8.464 4.078-10.106 6.826-1.448 2.079-2.039 4.632-1.652 7.133.312 1.644.969 3.205 1.928 4.579s2.198 2.532 3.636 3.396c1.084.819 2.261 1.507 3.506 2.054zm10.5-44.538c0 .947-1.151 1.411-2.089 1.411-.939 0-2.112-.464-2.112-1.411 0-.948 1.151-1.422 2.112-1.422.96 0 2.089.474 2.089 1.422zm-3.655-3.004c.031-.601.478-3.529 1.585-3.529 1.106 0 1.502 2.802 1.534 3.446.006.204-.029.407-.102.597-.073.191-.183.365-.324.512-.14.149-.308.267-.495.351-.187.083-.388.128-.593.134-.204.006-.408-.029-.599-.102-.191-.072-.365-.182-.514-.322-.148-.14-.268-.308-.351-.494-.084-.186-.129-.387-.135-.59zm2.393-13.2923c-.158-.4107-.317-.6634-.428-1.0329l-.393-1.1909c-.282.8908-.628 1.7607-1.033 2.6028-.111.1535-.184.331-.212.518-.028.1867-.011.3778.049.5569.061.1791.163.3412.299.4732.136.1317.302.2296.483.2852s.373.0673.56.0341c.187-.0328.363-.1099.514-.2239.151-.1144.273-.2631.354-.4334.083-.1702.123-.3579.118-.5468.063-.4959-.171-.6633-.317-1.0423zm1.668 7.7133c-.183.521-.515.978-.954 1.314-.439.337-.967.539-1.519.582-.566-.012-1.115-.202-1.567-.542s-.784-.814-.95-1.354c-.127-.316-.501-.388-.993-.432v-.632h1.024c.117-.559.429-1.0587.879-1.4112.451-.3525 1.012-.5354 1.585-.5158.569-.0105 1.124.1759 1.571.5271.446.3513.757.8459.879 1.3999h1.012v.632c-.492.041-.85.104-.967.432zm-2.498-5.477c.231.0051.457.0781.647.2098s.338.3168.423.5313c.086.2148.106.4501.058.6759-.048.2262-.161.4331-.327.5951-.165.1624-.374.2723-.602.3162s-.463.0203-.678-.0685c-.214-.0885-.397-.2382-.526-.4299-.129-.1921-.199-.4176-.2-.6485.005-.3149.134-.6156.359-.8364.226-.2211.529-.345.846-.345zm.843 17.91c-.492.041-.885.063-.885.063s-.383-.022-.862-.063c-.612-.058-1.218-.164-1.813-.316l-.181-1.011c.802-.702 1.837-1.085 2.905-1.075s2.095.412 2.884 1.129l-.213.948c-.6.159-1.213.264-1.832.316zm154.177-3.844c0 .947-1.173 1.412-2.112 1.412-.938 0-2.089-.465-2.089-1.412 0-.948 1.151-1.422 2.089-1.422.939 0 2.112.474 2.112 1.422zm-3.668-3.004c.031-.6.478-3.528 1.585-3.528 1.106 0 1.525 2.801 1.534 3.446.012.411-.141.81-.425 1.109s-.676.473-1.088.484c-.413.012-.814-.141-1.114-.424-.299-.283-.474-.673-.486-1.084zm2.384-13.292c-.14-.4107-.298-.6634-.428-1.0329l-.393-1.1909c-.266.8936-.604 1.7642-1.012 2.6028-.11.1535-.183.3311-.211.5181-.028.1866-.011.3777.049.5568.061.1791.163.3412.299.4732.136.1317.302.2297.483.2852.181.0556.373.0673.56.0342.186-.0329.363-.11.514-.224.151-.1143.273-.2628.354-.4334.082-.1702.123-.3579.118-.5467.063-.496-.181-.6634-.317-1.0424zm1.69 7.714c-.175.52-.5.977-.934 1.314s-.959.539-1.508.581c-.568-.011-1.12-.2-1.575-.54s-.791-.814-.961-1.355c-.117-.316-.501-.389-.979-.433v-.632h1.011c.143-.539.461-1.0164.904-1.3569.444-.3405.988-.525 1.548-.525s1.104.1845 1.548.525c.443.3405.761.8179.904 1.3569h1.012v.632c-.479.041-.853.104-.97.433zm-2.495-5.4776c.233.0006.46.0698.653.199.194.1295.344.3127.433.5271.089.2145.113.4502.067.6779-.045.2274-.157.4365-.322.6008-.164.1643-.374.2764-.602.3222s-.465.0231-.68-.0648c-.216-.0881-.4-.2378-.53-.4302-.131-.1923-.201-.4188-.202-.6507 0-.3127.125-.6128.346-.8342.222-.2214.523-.3462.837-.3471zm.852 17.9006c-.491.041-.884.063-.884.063s-.374-.022-.853-.063c-.612-.058-1.218-.164-1.813-.316l-.194-1.011c.393-.374.859-.662 1.369-.847s1.054-.262 1.595-.227c.524-.013 1.044.08 1.529.274.486.194.927.485 1.296.854l-.212.948c-.6.158-1.214.264-1.833.315zm-33.411-37.9144c.118.2843.318.4202.257.7897-.009.215-.095.4197-.241.578-.146.1584-.343.2602-.558.2875-.146-.0216-.285-.0775-.405-.1631s-.218-.1985-.286-.3293c-.068-.1309-.103-.2759-.104-.4231 0-.1473.034-.2925.101-.4238.264-.5698.496-1.154.694-1.7499.159.4833.362.9476.546 1.434zm-7.668 80.5604-.726-.897.564-.812v-6.633h.634c.138-.002.275.024.403.076s.245.129.343.226.176.212.229.339c.054.127.081.263.081.401.006.243-.076.48-.231.668s-.372.314-.612.355l1.48 3.226v-11.23l.951-1.105v-2.581c0-1.917 1.471-2.77 1.398-3.446-.14-.827-.473-1.61-.97-2.287v-30.22c.377-.974 1.009-1.829 1.832-2.476v-.9919c-.541-.0736-1.053-.2875-1.485-.6201s-.77-.7723-.978-1.2752c-.501-1.0423-1.363-1.1592-2.441-.9918v-1.2224h2.432v-6.6334h-2.219v-1.0771h2.238l.317-.7265h.437c-.16-.4779-.225-.982-.193-1.4846.108-1.7057 1.449-2.3817 2.346-3.582.42-.5146.772-1.0816 1.046-1.6868-.188-.035-.362-.1216-.503-.2499-.141-.1284-.244-.2934-.296-.4766l-.342-.041v-.6002h.383c.076-.1886.208-.3498.378-.4626.169-.1127.369-.1717.573-.1691.208-.0019.411.057.585.1693.175.1123.312.2731.395.4624h.361v.6002l-.342.041c-.052.1886-.159.3578-.307.4868-.147.1291-.329.2124-.524.2397.297.5968.654 1.162 1.066 1.6868.916 1.2003 2.25 1.8763 2.345 3.582.039.5013-.019 1.0051-.171 1.4846h.438l.317.7265h2.251v1.0866h-2.219v6.6334h2.431v1.2224c-1.065-.1674-1.94-.0537-2.441.9918-.208.5051-.546.9464-.98 1.2793-.435.3329-.949.5455-1.493.616v.9914c.826.644 1.46 1.5 1.833 2.477v30.219c-.483.683-.808 1.464-.951 2.287-.086.673 1.398 1.529 1.398 3.447v2.58l.951 1.106v11.21l1.48-3.225c-.238-.044-.452-.171-.604-.359-.153-.188-.233-.423-.226-.664-.002-.137.025-.274.077-.401s.129-.242.226-.339c.098-.097.213-.174.341-.226s.264-.078.402-.077h.634v6.634l.555.811-.714.897zm3.988-67.758v6.1627h1.173v-6.169c-.066-.0945-.153-.1719-.256-.2249-.102-.0534-.215-.0812-.331-.0812-.115 0-.229.0278-.331.0812-.102.053-.19.1304-.255.2249zm3.23 60.597c.005-.258.097-.507.262-.706.164-.199.392-.336.645-.39 0 0 .127 0 .127-.357 0-.275-.117-.338-.117-.338h-1.931c-.596 0-1.227 1.065-1.227 1.876-.009.202.028.403.108.589.079.186.199.352.352.485l-1.801 4.069.117.189h2.166l1.8-4.106c.029-.063.048-.13.054-.199 0-.04-.008-.079-.025-.116-.016-.036-.04-.069-.07-.096-.142-.102-.258-.237-.338-.393s-.122-.332-.122-.507zm-1.632-46.822-.929.104v29.336h.951zm1.163-13.8445v6.2322h1.164v-6.2322c-.063-.1096-.156-.1981-.269-.2546-.113-.0562-.24-.0774-.365-.0613-.109.0029-.215.0335-.308.0888-.093.0552-.168.1333-.222.2271zm2.85 0v6.2322h.577v-6.2322s-.095-.2843-.257-.3159c-.161-.0316-.32.3159-.32.3159zm-88.731-12.7202c.095.2843.276.4201.235.7897-.01.2135-.094.417-.238.5752s-.339.2609-.552.2903c-.146-.0216-.285-.0775-.405-.1632-.12-.0856-.218-.1985-.286-.3293s-.104-.2758-.104-.4231c0-.1472.034-.2925.101-.4238.274-.5658.506-1.1506.694-1.7499.181.4833.352.9476.555 1.4341zm-7.643 80.5477-.736-.897.564-.812v-6.633h.635c.138-.002.276.024.404.076.129.052.246.128.345.225s.177.212.232.339c.054.127.082.264.084.402.001.243-.083.48-.239.667s-.374.313-.614.356l1.493 3.226v-11.23l.951-1.105v-2.581c0-1.917 1.471-2.77 1.408-3.446-.144-.828-.48-1.611-.98-2.287v-30.22c.381-.975 1.018-1.83 1.845-2.476v-.9919c-.543-.072-1.057-.2852-1.491-.6179-.434-.3326-.772-.7732-.982-1.2774-.491-1.0423-1.375-1.1592-2.45-.9918v-1.2224h2.441v-6.6334h-2.219v-1.0771h2.26l.317-.7265h.4c-.147-.4804-.205-.9836-.172-1.4846.096-1.7057 1.43-2.3817 2.346-3.582.42-.5171.775-1.0836 1.056-1.6868-.192-.032-.372-.1171-.519-.2454-.147-.1284-.254-.295-.312-.4811l-.342-.041v-.6002h.406c.071-.1918.202-.3562.373-.4696.17-.1135.373-.1702.578-.1621.205-.0058.406.052.576.1651.171.1132.302.2762.375.4666h.39v.6002l-.361.041c-.05.1848-.151.3516-.293.4804-.141.1288-.317.2143-.506.2461.273.6052.625 1.1722 1.046 1.6868.906 1.2003 2.251 1.8763 2.346 3.582.028.501-.03 1.0032-.171 1.4846h.447l.298.7265h2.25v1.0866h-2.219v6.6334h2.432v1.2224c-1.078-.1674-1.95-.0537-2.441.9918-.213.5004-.551.9375-.982 1.2695-.432.332-.942.5474-1.481.6258v.9914c.822.647 1.456 1.502 1.832 2.477v30.219c-.492.681-.827 1.462-.98 2.287-.076.673 1.417 1.529 1.417 3.447v2.58l.907 1.106v11.21l1.512-3.225c-.238-.044-.452-.171-.604-.359s-.233-.423-.226-.664c-.001-.137.026-.273.079-.4.052-.126.129-.242.226-.338.097-.097.213-.174.34-.226.127-.053.263-.079.401-.079h.634v6.634l.555.811-.704.897zm3.985-67.7643v6.169h1.15v-6.169c-.058-.1018-.144-.1851-.248-.2411-.103-.0555-.22-.0818-.338-.0748-.113.0003-.225.0294-.323.0846-.099.0553-.182.1349-.241.2313zm1.585 13.7813-.929.104v29.336h.929zm1.182-13.8445v6.2322h1.142v-6.2322c-.063-.1096-.156-.1981-.269-.2546-.113-.0562-.24-.0774-.366-.0613-.107.0025-.212.0332-.303.0885-.092.0555-.168.1339-.22.2274zm2.819 0v6.2322h.596v-6.2322s-.108-.2843-.276-.3159-.32.3159-.32.3159zm-55.188 69.7825h192.188c.178-.022.359-.006.531.048.171.052.33.141.464.26.135.118.243.264.316.427.074.163.112.34.112.519s-.038.356-.112.519c-.073.163-.181.309-.316.428-.134.118-.293.207-.464.26-.172.053-.353.069-.531.047h-192.188c-.178.022-.359.006-.53-.047-.172-.053-.33-.142-.465-.26-.134-.119-.242-.265-.316-.428s-.112-.34-.112-.519.038-.356.112-.519.182-.309.316-.427c.135-.119.293-.208.465-.26.171-.054.352-.07.53-.048zm175.196-43.06c.33.55.56 1.153.682 1.782.81 2.862 1.974 5.612 3.465 8.187 4.21 7.84 18.165 4.53 18.612 18.321.192 2.172-.216 4.355-1.18 6.313s-2.447 3.615-4.289 4.793l.501.812-.608.897h-39.539l-.745-1.001.554-.686c-1.843-1.183-3.329-2.842-4.298-4.802s-1.385-4.146-1.202-6.323c.447-13.791 14.393-10.484 18.581-18.321 1.511-2.568 2.683-5.32 3.487-8.187.437-1.718 1.268-3.118 3.389-3.077.507-.035 1.015.067 1.469.295s.838.573 1.111 1zm-11.01 39.345c-.557-1.076-1.041-2.188-1.449-3.329-1.069-2.651-1.446-5.529-1.097-8.364.564-4.236 3.208-5.869 5.126-9.694 1.788-3.006 3.275-6.18 4.439-9.476.933-2.845 1.454-5.807 1.547-8.798-.525.061-1.007.322-1.344.727-.758.736-1.963 5.806-3.71 9.072-1.101 2.216-2.686 4.158-4.638 5.686-3.804 3.158-8.442 4.077-10.106 6.826-1.44 2.081-2.027 4.633-1.642 7.132.314 1.641.972 3.197 1.931 4.568.959 1.37 2.196 2.524 3.632 3.386 1.065.866 2.219 1.618 3.443 2.242zm-68.093 1.76h-33.325l-.917-.916.853-.736v-6.709h.847c.142.003.281.035.41.094s.245.143.341.247c.096.105.169.227.216.361.047.133.066.275.057.416-.033.227-.131.441-.282.615-.152.173-.35.3-.571.364l2.121 3.655v-4.246h1.033v-.167c-3.975-5.743-7.035-10.74-6.813-18.681.523-15.446 7.58-23.507 20.331-29.944 1.901-.818 3.691-1.8692 5.329-3.1308 4.254-4.4222 6.854-6.6807 7.26-13.4214.117-1.8952 1.195-3.7905 3.122-3.7905 1.928 0 2.996 1.8953 3.114 3.7905.424 6.7439 3.018 8.9866 7.25 13.4214 1.644 1.2642 3.442 2.3158 5.351 3.1308 12.729 6.437 19.808 14.498 20.318 29.944.244 7.954-2.825 12.951-6.813 18.681v.167h1.034v4.246l2.133-3.655c-.226-.055-.43-.179-.582-.354-.153-.176-.248-.394-.27-.625-.013-.141.004-.282.048-.417.045-.134.117-.257.213-.362.094-.105.21-.189.339-.248.129-.058.269-.089.411-.091h.84v6.722l.853.735-.951.917zm.352-98.6283c.08.4752.282.9217.587 1.2963.304.3746.7.6647 1.15.8422h.65l.063.3885c-.176.0144-.346.0718-.495.1671-.148.0953-.271.2256-.358.3793-.437.9287-.608 2.7197-1.917 2.7197-1.31 0-1.462-1.791-1.903-2.7197-.085-.1526-.206-.2823-.353-.3775-.147-.0953-.315-.1533-.49-.1689l.064-.3885h.634c.29-.1091.56-.266.798-.4644.268-.1961.494-.4436.664-.7278.171-.2842.282-.5995.329-.9273-.153-.05-.293-.1324-.411-.2415-.117-.109-.21-.2422-.271-.3903-.041-.1263-.193-.1358-.374-.1579v-.2306h.393c.052-.2019.17-.3805.336-.5067.167-.1262.371-.1925.58-.1882.214-.0077.425.0567.597.1828.173.1261.297.3065.354.5121h.4v.2306c-.203.0221-.317.0316-.374.1579-.056.1432-.142.2732-.251.3819-.109.1088-.24.1938-.383.2499zm-26.373 65.8023c.266 1.213 3.357 3.56 3.325 7.111-.407 2.486-1.513 4.807-3.189 6.693-1.516-2.057-2.48-4.465-2.802-6.997-.086-3.55 2.418-5.594 2.666-6.807zm25.212-.6c-.415 1.264-4.39 3.541-4.317 7.218.095 3.424 3.221 5.784 4.105 7.047.907-1.263 4.02-3.623 4.105-7.047.096-3.677-3.509-5.954-3.893-7.218zm9.33.338c-.383 1.264-4.105 3.446-4.073 7.069.095 3.339 3.103 5.775 3.858 6.997.821-1.222 4.121-3.456 4.191-6.794.085-3.623-3.636-6.002-3.976-7.265zm9.425.123c-.393 1.264-4.34 3.731-4.254 7.367.076 3.424 3.272 5.521 4.02 6.807 1.912-1.817 3.173-4.208 3.592-6.807.085-3.636-3.028-6.09-3.358-7.367zm-27.717 1.264c-1.685 1.461-2.739 3.516-2.942 5.733.245 2.365 1.304 4.573 2.996 6.248 1.831-1.625 3.037-3.834 3.411-6.248.041-2.783-1.642-4.226-3.05-6.257-.129.182-.267.358-.415.527zm42.462-.796c-.225 1.169-2.622 3.275-2.568 6.712.249 2.36 1.1 4.616 2.473 6.555 1.338-1.952 2.169-4.204 2.419-6.555-.237-2.388-1.033-4.687-2.324-6.712zm-6.737-.316c-.266 1.213-3.465 3.456-3.433 7.006.086 3.298 2.707 5.572 3.316 6.794 1.619-2.024 2.678-4.437 3.069-6.996.085-3.551-2.698-5.591-2.952-6.804zm-43.888-.183c.374 1.285 3.37 3.528 3.294 7.173-.418 2.642-1.635 5.094-3.487 7.028-1.83-1.845-3.005-4.235-3.348-6.807-.086-3.635 3.199-6.112 3.55-7.397zm17.886-46.6136c-.916-.0537-1.407-.7897-1.683-1.6236-.127-.3569-1.173-.18-1.684-.2211v-.7486h1.481c.158-.3914.431-.7255.785-.9575.353-.232.77-.3508 1.193-.3405s.833.1492 1.175.3982c.342.2489.599.5959.737.9946l1.585.0221v.6317c-.545.0537-1.62-.18-1.737.1801-.289.8212-.907 1.7057-1.864 1.6551zm.064 3.0766c-.315-.0319-.614-.1518-.863-.3457s-.438-.4541-.545-.7504c-.063-.18-.288-.2211-.564-.2527v-.3474h.596c.071-.3187.25-.6036.506-.8077.256-.2042.574-.3154.901-.3154.328 0 .646.1112.902.3154.256.2041.434.489.506.8077h.596v.3474c-.289.0316-.501.0727-.564.2527-.115.3038-.314.5685-.575.7627-.26.1943-.572.31-.896.3334zm.022-27.1082c.139.4012.288.6728.46 1.1182.139.338.361.5149.317.8844.017.1092.01.2208-.02.3272s-.083.205-.154.2891c-.073.0841-.162.1516-.263.1979-.1.0463-.21.0702-.321.0702s-.221-.0239-.321-.0702c-.101-.0463-.19-.1138-.263-.1979-.072-.0841-.124-.1827-.154-.2891-.031-.1064-.037-.218-.02-.3272-.054-.3695.181-.5464.317-.8844.171-.4422.317-.717.438-1.1182zm-.07 19.6599c-1.62-.4643-3.05-1.6867-3.05-3.0229.108-2.17 1.471-5.6857 3.05-5.4456 1.439-.0948 3.145 3.3609 3.24 5.5404 0 1.3267-1.566 2.5617-3.24 2.9281zm-73.79 42.8733c.332.551.568 1.153.701 1.782.799 2.869 1.971 5.621 3.487 8.187 4.169 7.84 18.134 4.53 18.581 18.321.194 2.17-.211 4.351-1.171 6.309-.96 1.957-2.439 3.616-4.276 4.797l.479.812-.615.9h-39.542l-.745-1.001.577-.686c-1.848-1.179-3.339-2.838-4.312-4.798s-1.392-4.148-1.211-6.327c.46-13.791 14.403-10.484 18.581-18.321 1.529-2.559 2.703-5.313 3.487-8.187.469-1.718 1.268-3.118 3.421-3.077.505-.032 1.01.071 1.461.299.452.228.834.572 1.107.996"/><path d="m113.561 194.394c0 2.445.384 4.561 2.834 4.561 3.018 0 4.286-2.707 4.286-5.815.067-1.105-.139-2.209-.6-3.216-.461-1.006-1.163-1.885-2.044-2.559-1.041-.624-2.256-.897-3.465-.78-.97 0-1.011.591-1.011 1.738zm0-11.252c0 1.813 0 1.728 1.376 1.728.676.051 1.355-.051 1.986-.298.631-.248 1.198-.634 1.659-1.13.46-.497.802-1.09 1-1.737.197-.646.246-1.329.142-1.996.065-.581.009-1.17-.162-1.729s-.456-1.078-.835-1.524c-.38-.446-.847-.81-1.373-1.069-.525-.26-1.099-.41-1.685-.442-.697-.039-1.382.186-1.918.632-.317.389-.193 1.434-.193 2.044zm-6.141-3.983c0-1.687.14-2.95-1.534-2.95-.596 0-1.642.211-1.642-.812 0-.663.608-.79 1.046-.948 3.442-.877 6.994-1.25 10.544-1.105 2.07-.029 4.132.27 6.109.884 1.168.431 2.176 1.206 2.892 2.222.716 1.015 1.105 2.223 1.115 3.464 0 4.321-3.722 5.458-6.79 5.711 4.061.212 7.738 2.022 7.738 7.344.056 1.176-.182 2.348-.694 3.41-.512 1.061-1.282 1.979-2.238 2.671-1.839 1.123-3.993 1.626-6.141 1.434-3.592 0-7.089-.18-10.608-.18-.735 0-1.398.18-2.143.18-.123.018-.25.007-.368-.032-.119-.038-.227-.104-.317-.191-.089-.087-.157-.193-.198-.311s-.055-.243-.039-.367c0-.663.577-.802 1.011-.875 2.432-.464 2.238-1.348 2.238-4.087z"/><path d="m136.627 183.749c.634 0 2.218-3.203 5.243-3.203.845.012 1.65.355 2.243.955.594.599.926 1.406.927 2.248.042.861-.26 1.704-.838 2.345-.579.641-1.389 1.029-2.253 1.079-2.377 0-2.634-2.445-3.763-2.445-1.845 0-1.556 4.384-1.556 5.686v4.195c-.087 1.125-.034 2.257.158 3.37.181.632 1.322.591 2.004.717.415.073.907.338.907.865 0 .727-.673.812-1.174.812-1.556 0-3.135-.085-4.679-.085s-3.069.085-4.638.085c-.478 0-1.109-.085-1.109-.812 0-.527.447-.789.894-.865.523-.095 1.664-.126 1.854-.717.215-1.11.301-2.241.257-3.37v-6.223c0-1.769.117-2.729-1.642-2.991-.511-.023-1.11 0-1.11-.717s1.205-.885 1.611-1.002c1.837-.5 3.497-1.5 4.796-2.887.143-.229.342-.419.579-.55s.504-.199.775-.198c.596 0 .51 1.105.51 1.528z"/><path d="m147.663 175.353c-.001-.432.085-.86.253-1.259.168-.398.414-.76.724-1.062.309-.302.677-.54 1.08-.698.404-.159.835-.235 1.269-.225.428-.015.856.057 1.255.213.4.156.763.391 1.068.692.304.301.543.661.703 1.058.159.397.235.822.223 1.249.025.45-.044.899-.201 1.321-.158.421-.4.806-.714 1.131-.313.324-.69.58-1.106.753-.417.173-.866.258-1.317.251-.443.004-.883-.082-1.291-.256-.408-.173-.776-.428-1.08-.75-.304-.321-.538-.702-.687-1.119-.149-.416-.21-.858-.179-1.299zm6.119 19.268c-.093 1.125-.047 2.257.139 3.371.181.631 1.332.59 2.016.717.229.015.444.112.607.272.162.161.261.375.278.603 0 .717-.672.799-1.141.799-1.585 0-3.145-.086-4.692-.086s-3.069.086-4.638.086c-.479 0-1.129-.086-1.129-.799 0-.537.469-.803.916-.875.523-.086 1.674-.127 1.855-.717.223-1.109.313-2.241.266-3.371v-6.235c0-1.76.118-2.729-1.651-2.991-.511-.032-1.11 0-1.11-.705 0-.704 1.195-.897 1.585-1.011 1.84-.492 3.503-1.493 4.797-2.887.144-.23.345-.419.584-.55s.506-.199.779-.198c.586 0 .523 1.105.523 1.538z"/><path d="m168.969 188.089c0-2.306-.317-6.144-3.05-6.144-2.536 0-2.901 2.688-2.901 5.016s.447 6.036 3.17 6.036c2.537 0 2.771-2.697 2.771-4.908zm2.675 16.511c0-2.527-2.973-2.212-4.498-2.212-1.661-.008-3.301-.371-4.809-1.064-.268.059-.512.194-.704.388-.434.518-.672 1.171-.672 1.845 0 3.582 3.17 4.511 5.735 4.511 1.813 0 4.945-.803 4.945-3.456zm-13.029-6.795c-.267-.284-.916-.834-.916-1.286 0-.799 1.268-1.137 1.737-1.348l1.471-.686c.117 0 1.097-.388 1.097-.59 0-.086-.416-.294-.492-.294-1.221-.438-2.277-1.241-3.025-2.298s-1.15-2.319-1.153-3.612c.012-1.052.267-2.087.746-3.024.479-.938 1.168-1.752 2.015-2.381 1.724-1.201 3.795-1.808 5.897-1.728 1.623-.041 3.234.299 4.701.992.59.349 1.264.531 1.95.528h2.219c1.11-.117 1.481-.117 1.481 1.307 0 1.15-.267.898-1.237.898h-1.3c-.031.041-.18.041-.18.157.606.943.928 2.039.929 3.159-.089 1.88-.916 3.65-2.301 4.929-1.386 1.279-3.22 1.965-5.108 1.91l-1.95.041c-.393 0-2.067 0-2.067.843 0 .433.634.897.951 1.024.723.195 1.472.27 2.219.221h2.835c1.539-.102 3.083.121 4.53.654.86.419 1.582 1.076 2.077 1.892.495.817.744 1.759.716 2.713-.067 1.246-.451 2.454-1.117 3.51-.665 1.056-1.59 1.926-2.688 2.526-2.103 1.251-4.526 1.866-6.974 1.769-2.825 0-8.975-.717-8.975-5.054 0-3.37 4.169-3.455 4.169-4.267 0-.243-.634-.758-.745-.875z"/><path d="m198.106 194.729c-.098 1.03-.007 2.069.267 3.067.447.736 1.182.78 1.876.906.236.017.456.119.62.289.163.169.258.393.265.627 0 .727-.634.758-1.119.758-1.791 0-3.487-.085-5.298-.085-1.322 0-2.751.085-4.121.085-.437 0-.894-.136-.894-.758-.007-.216.064-.428.201-.596.137-.169.33-.282.544-.32.555-.076 1.071-.327 1.471-.717.399-1.036.534-2.155.393-3.256v-6.078c0-2.612 0-5.278-3.05-5.278-1.131.033-2.21.483-3.027 1.263-.672.717-.596 1.308-.596 2.275v7.808c-.08.975-.012 1.955.203 2.909.109.254.273.48.479.664.207.184.451.321.716.401.501.158 1.214.104 1.214.916 0 .59-.447.758-.884.758-.758 0-1.43-.085-2.166-.085-2.45 0-4.841.085-7.269.085-.479 0-1.151-.032-1.151-.758.008-.235.102-.459.266-.628.163-.169.384-.272.619-.288.555-.127 1.344-.168 1.769-.717.423-1.031.559-2.156.393-3.257v-17.544c0-2.318.127-2.738-1.982-3.076-.288-.041-.726-.168-.726-.632 0-.799 1.066-.884 1.586-.97 1.7-.294 3.356-.803 4.926-1.516.43-.237.899-.394 1.385-.464.822 0 .635 1.443.635 2.021v10.124c0 .212.031.42.225.42.532 0 2.834-2.527 6.077-2.527.92-.007 1.831.181 2.673.551s1.595.915 2.209 1.597c1.076 1.648 1.536 3.62 1.3 5.572z"/><path d="m208.809 191.737c0 1.548-.158 5.686 1.814 5.686 1.236 0 2.057-1.222 2.622-1.222.256 0 .447.243.447.578 0 .559-.736 1.402-1.047 1.737-.625.66-1.376 1.189-2.209 1.558-.832.369-1.73.569-2.641.59-.669-.009-1.327-.173-1.921-.48s-1.107-.749-1.5-1.289c-.794-1.431-1.17-3.055-1.087-4.688v-8.803c.001-.591-.035-1.182-.108-1.769-.076-.42-.523-.559-.906-.559-.479 0-1.674.212-1.674-.464s.799-.948 1.195-1.137c2.128-.925 3.879-2.54 4.968-4.584.266-.568.634-1.412 1.268-1.412.789 0 .634.97.634 1.58v2.909c0 1.191.234 1.15 1.204 1.15h1.941c.767 0 1.331-.222 1.331.843 0 1.191-.257 1.128-1.268 1.128h-1.823c-1.227 0-1.227-.041-1.227 1.655z"/><path d="m228.63 191.314c.014-2.108-.373-4.199-1.141-6.163-.682-1.516-1.982-3.158-3.614-3.158-3.231 0-4.191 4.687-4.191 7.524 0 3.117 1.204 9.735 4.926 9.735 3.272 0 4.02-5.152 4.02-7.922zm-14.935-.657c.099-1.971.747-3.876 1.871-5.502 1.125-1.624 2.682-2.905 4.496-3.697 1.815-.792 3.815-1.065 5.776-.788 1.962.278 3.807 1.095 5.328 2.359 1.065.898 1.924 2.014 2.518 3.271.594 1.258.909 2.629.925 4.019-.004 1.384-.285 2.754-.827 4.029-.541 1.275-1.332 2.43-2.326 3.397-.995.967-2.172 1.728-3.465 2.236-1.292.509-2.673.756-4.062.727-1.346.051-2.687-.173-3.942-.659-1.255-.485-2.397-1.221-3.356-2.162-.958-.942-1.713-2.069-2.218-3.313-.505-1.243-.75-2.576-.718-3.917z"/><path d="m244.576 183.433c.596 0 2.451-2.878 6.119-2.878 1.727-.038 3.405.58 4.692 1.728.636.709 1.104 1.552 1.368 2.466.264.913.318 1.875.157 2.812v7.06c-.149 1.138-.017 2.295.383 3.371.374.546 1.173.59 1.747.717.235.016.456.119.619.288.164.169.258.393.266.628 0 .726-.66.758-1.151.758-1.354 0-2.612-.086-3.944-.086-1.728 0-3.433.086-5.139.086-.428 0-.862-.127-.862-.758-.008-.215.062-.426.197-.594s.326-.283.538-.322c.316-.041.62-.146.892-.309.273-.164.509-.381.693-.639.268-1.03.355-2.099.257-3.159v-6.207c.048-1.253-.168-2.502-.634-3.667-.245-.458-.611-.841-1.057-1.108-.447-.267-.958-.408-1.479-.408-1.054.053-2.054.483-2.815 1.213-.992.97-.853 1.863-.853 3.307v6.88c-.103 1.059-.016 2.129.257 3.158.183.255.417.471.686.633.269.163.568.271.88.315.213.04.405.154.541.322.137.167.209.378.204.594 0 .632-.447.758-.853.758-1.715 0-3.42-.085-5.139-.085-1.344 0-2.612.085-3.956.085-.479 0-1.151-.031-1.151-.758.012-.235.11-.457.274-.625.165-.169.385-.272.62-.291.564-.126 1.385-.167 1.76-.717.381-1.08.509-2.233.374-3.37v-6.236c0-1.769.107-2.738-1.643-3.004-.532-.031-1.119 0-1.119-.717s1.196-.884 1.585-1.001c1.84-.495 3.502-1.495 4.797-2.887.143-.23.342-.419.579-.55s.504-.2.775-.199c.586 0 .51 1.096.51 1.539z"/><path d="m284.853 182.034c.697-.813 1.048-1.863.98-2.929 0-1.895-1.11-4.289-2.974-4.289-.304.007-.604.079-.879.209s-.519.317-.717.548c-.198.23-.345.499-.431.79-.087.291-.111.597-.072.898.304 1.849 1.145 3.57 2.419 4.949.127.127.343.506.523.506.447-.094.851-.33 1.151-.673zm-5.725 5.328c-.108-.189-.181-.316-.374-.316-.317 0-1.056.759-1.269 1.011-.731.879-1.124 1.989-1.109 3.131-.089 1.448.391 2.874 1.337 3.976.946 1.103 2.286 1.796 3.735 1.934 1.066-.017 2.095-.392 2.92-1.065.181-.167.735-.591.735-.929 0-.221-.393-.631-.478-.758zm14.456 8.725c1.033 1.39 1.642 2.287 3.23 2.58.533.086 1.205.158 1.205.916 0 .844-.821.898-1.385.898-1.3 0-2.676-.263-4.008-.263-.811 0-1.642.032-2.517.086-.992.053-1.173-.285-1.769-1.128l-1.309-1.804c-.086-.117-.596-.875-.777-.875-.18 0-.298.199-.415.285-.879 1.251-2.042 2.278-3.395 2.997-1.352.72-2.855 1.112-4.388 1.144-.98.044-1.958-.114-2.874-.464s-1.75-.884-2.449-1.57c-.7-.685-1.25-1.507-1.616-2.413-.367-.907-.542-1.879-.514-2.856 0-4.394 3.303-6.153 6.439-7.512.234-.085.757-.293.757-.59 0-.537-2.536-3.131-2.536-6.207-.001-.9.219-1.785.641-2.58.421-.795 1.032-1.476 1.778-1.981 1.604-1.011 3.478-1.511 5.374-1.435 2.932 0 7.665.727 7.665 5.152.021.775-.167 1.541-.546 2.217s-.934 1.239-1.606 1.628c-1.043.676-2.193 1.172-3.402 1.465-.149.041-.438.18-.438.389.139.309.323.596.546.853l3.658 4.728c.095.136.298.379.425.379.861-.871 1.46-1.965 1.728-3.158 0-.768-.951-.844-1.417-.929s-1.269-.054-1.269-.844c0-.884.929-.811 1.494-.811h6.648c.459 0 1.077.085 1.077.77 0 .749-.672.831-1.173.885-.969.048-1.881.476-2.536 1.191-1.307 1.351-2.425 2.871-3.325 4.52 0 .316.501.875.634 1.086z"/><path d="m326.044 185.391c1.268 0 1.227.054 1.227-1.516v-4.087c0-2.571.225-3.655-2.152-4.132-.46-.095-1.196-.136-1.196-.853 0-.663.352-.789.885-.789 1.95 0 3.804.167 5.735.167 1.791 0 3.582-.167 5.342-.167.51 0 .929.126.929.789 0 .664-.609.758-1.056.853-2.536.474-2.333 1.308-2.333 4.132v14.982c0 2.498-.14 3.519 2.197 3.929.491.073 1.195.212 1.195.97 0 .632-.416.802-.894.802-1.95 0-3.805-.18-5.748-.18-1.791 0-3.573.18-5.361.18-.532 0-.884-.18-.884-.802 0-.673.555-.897 1.002-.97 2.463-.464 2.346-1.191 2.346-3.929v-6.447c-.054-1.15-.118-1.011-1.12-1.011h-6.651c-1.556 0-1.448-.18-1.448 1.548v5.91c0 2.498-.14 3.519 2.219 3.929.478.073 1.182.212 1.182.97 0 .632-.415.802-.894.802-1.93 0-3.804-.18-5.735-.18-1.781 0-3.582.18-5.361.18-.523 0-.894-.18-.894-.802 0-.673.555-.897 1.002-.97 2.463-.464 2.356-1.191 2.356-3.929v-14.982c0-2.571.212-3.655-2.166-4.132-.459-.095-1.195-.136-1.195-.853 0-.663.374-.789.894-.789 1.931 0 3.805.167 5.748.167 1.791 0 3.56-.167 5.31-.167.523 0 .951.126.951.789 0 .664-.586.758-1.033.853-2.537.474-2.356 1.308-2.356 4.132v4.087c0 1.516.032 1.516 1.344 1.516z"/><path d="m352.718 191.314c.021-2.109-.37-4.202-1.151-6.163-.659-1.516-1.972-3.158-3.614-3.158-3.208 0-4.191 4.687-4.191 7.524 0 3.117 1.214 9.735 4.927 9.735 3.284 0 4.029-5.152 4.029-7.922zm-14.948-.657c.099-1.973.748-3.879 1.874-5.504 1.126-1.626 2.684-2.907 4.5-3.699s3.817-1.065 5.78-.786c1.962.277 3.808 1.095 5.33 2.361 1.062.899 1.917 2.016 2.507 3.274.591 1.257.902 2.627.914 4.016-.002 1.384-.28 2.753-.819 4.028-.54 1.276-1.329 2.431-2.322 3.398-.992.968-2.169 1.728-3.461 2.237-1.291.509-2.671.755-4.06.726-1.346.051-2.688-.172-3.944-.657-1.255-.485-2.399-1.221-3.358-2.163-.96-.941-1.716-2.068-2.223-3.312-.506-1.244-.748-2.577-.718-3.919z"/><path d="m373.807 187.088c.436-.932.713-1.929.821-2.951 0-1.096-.894-1.348-1.683-1.484-.469-.073-1.227 0-1.227-.802 0-.12.025-.238.075-.347.049-.109.121-.206.211-.285s.196-.138.311-.173c.114-.034.235-.045.354-.029 1.119 0 2.184.085 3.316.085 1.065 0 2.197-.085 3.272-.085.491 0 1.046.085 1.046.748-.007.227-.098.442-.256.606-.158.163-.37.262-.597.279-1.48.316-1.791.135-2.536 1.895l-6.109 14.435c-.479 1.128-.587 1.687-1.791 1.687-1.078 0-1.097-.6-1.535-1.601l-5.551-13.368c-.312-.78-.671-1.539-1.078-2.274-.321-.41-.785-.684-1.299-.768-.523-.126-1.196-.041-1.196-.802 0-.762.695-.834 1.246-.834 1.43 0 2.92.085 4.413.085 1.642 0 3.285-.085 4.873-.085.491 0 1.195 0 1.195.748 0 .812-.821.844-1.344.885s-1.195.275-1.195.979c.076.528.227 1.043.447 1.529l2.58 6.731c.086.212.406 1.245.695 1.245.225 0 .532-.948.564-1.106z"/><path d="m391.363 186.753c1.002-.243 1.364-1.055 1.364-2.107.031-.336-.008-.674-.114-.994s-.278-.615-.505-.865c-.226-.251-.502-.452-.811-.591-.308-.139-.641-.212-.98-.216-.59.016-1.169.162-1.696.426s-.989.641-1.353 1.103c-.594.832-.954 1.807-1.047 2.824 0 .758.672.663 1.214.663 1.312.042 2.625-.039 3.922-.243zm-4.229 1.813c-.916 0-1.29-.126-1.29 1.064 0 4.088 2.419 8.134 6.439 8.134 2.834 0 4.038-2.211 4.913-2.211.08.003.158.022.231.056.072.033.137.081.19.14.054.059.095.127.122.202s.039.154.034.234c0 .843-1.385 1.99-1.94 2.369-1.77 1.356-3.939 2.097-6.172 2.107-1.328-.027-2.636-.316-3.85-.852s-2.308-1.308-3.22-2.27c-.911-.963-1.62-2.096-2.087-3.334-.466-1.239-.68-2.558-.629-3.88.007-1.31.278-2.606.794-3.811.517-1.205 1.269-2.295 2.214-3.207s2.062-1.627 3.288-2.103c1.225-.476 2.533-.704 3.848-.671 2.052-.02 4.046.681 5.631 1.981.684.526 1.247 1.193 1.648 1.957.401.763.632 1.604.675 2.465 0 1.56-.821 1.601-2.099 1.601z"/><path d="m167.457 234.664c-.076 1.403-.031 1.949-1.173 2.698-2.138 1.351-4.633 2.033-7.164 1.958-3.534.113-6.998-.993-9.809-3.13-1.477-1.321-2.659-2.935-3.472-4.739-.812-1.805-1.236-3.758-1.245-5.735-.007-1.989.42-3.955 1.25-5.764.83-1.808 2.044-3.416 3.559-4.711 2.993-2.324 6.686-3.572 10.481-3.541 1.892.023 3.77.321 5.576.885 1.011.338 1.011.496 1.214 1.674l.289 2.17c.078.4.124.806.139 1.213.01.094-.002.189-.033.279-.031.089-.081.171-.147.239s-.147.121-.235.156c-.089.034-.184.049-.279.043-1.715 0-1.832-5.026-6.854-5.026-1.261.07-2.485.453-3.56 1.115-1.074.662-1.965 1.582-2.59 2.676-1.42 2.492-2.132 5.323-2.058 8.187-.057 2.813.584 5.596 1.864 8.102.578 1.208 1.472 2.238 2.588 2.982 1.116.743 2.412 1.174 3.753 1.245 1.452-.028 2.841-.6 3.89-1.602 1.063-1.132 1.902-2.455 2.473-3.898.18-.464.447-.875.951-.875.811 0 .757.948.726 1.602z"/><path d="m171.414 213.725c.001-.433.087-.861.256-1.26.168-.399.415-.761.725-1.064s.678-.542 1.081-.702c.404-.16.836-.238 1.27-.23.429-.017.858.054 1.258.209.401.154.765.389 1.072.688.306.3.548.66.71 1.056s.241.822.232 1.25c.025.452-.043.904-.201 1.328-.158.425-.403.812-.718 1.138s-.694.584-1.114.757c-.419.174-.87.259-1.324.251-.443.005-.882-.082-1.289-.255-.408-.172-.776-.426-1.08-.747s-.538-.7-.688-1.116c-.15-.415-.213-.856-.183-1.296zm6.125 19.256c-.085 1.125-.035 2.257.149 3.37.171.632 1.332.591 2.004.705.415.094.894.347.894.884 0 .736-.65.821-1.142.821-1.585 0-3.144-.085-4.701-.085s-3.069.085-4.616.085c-.501 0-1.128-.085-1.128-.821 0-.537.447-.79.894-.884.51-.086 1.683-.117 1.864-.705.215-1.11.301-2.241.256-3.37v-6.223c0-1.759.118-2.729-1.642-2.991-.523-.041-1.119 0-1.119-.717s1.195-.885 1.585-1.011c1.84-.497 3.505-1.493 4.809-2.878.145-.231.345-.422.584-.554.238-.133.507-.203.78-.204.577 0 .51 1.106.51 1.529z"/><path d="m188.212 230.1c0 1.56-.149 5.686 1.832 5.686 1.227 0 2.048-1.213 2.603-1.213.068.006.134.027.194.059s.113.076.156.129c.042.053.074.114.093.179.019.066.025.134.017.201 0 .569-.758 1.412-1.046 1.75-.625.662-1.375 1.193-2.208 1.562s-1.731.568-2.643.586c-.671-.005-1.331-.169-1.926-.479s-1.107-.756-1.494-1.302c-.795-1.428-1.171-3.048-1.088-4.678v-8.813c-.004-.591-.039-1.182-.108-1.769-.076-.42-.532-.537-.906-.537-.479 0-1.684.199-1.684-.483 0-.632.79-.948 1.205-1.128 2.125-.931 3.87-2.555 4.946-4.605.275-.56.65-1.403 1.268-1.403.776 0 .634.97.634 1.579v2.897c0 1.213.225 1.15 1.195 1.15h1.931c.789 0 1.344-.212 1.344.843 0 1.181-.257 1.159-1.268 1.159h-1.804c-1.237 0-1.237-.041-1.237 1.633z"/><path d="m208.416 224.029c.24-.541.387-1.117.437-1.706 0-.947-.951-1.263-1.674-1.307-.555-.032-1.407-.073-1.407-.97 0-.673.745-.673 1.195-.673 1.078 0 2.121.085 3.198.085 1.078 0 2.121-.085 3.209-.085.491 0 .97 0 .97.673 0 .726-.523.897-1.046.97-.951.189-1.227.094-1.855.979-.711 1.159-1.301 2.388-1.759 3.667l-5.618 13.507-2.026 5.49c-.745 2.486-.577 3.108-3.037 3.108-1.642 0-3.294-.104-3.294-2.35-.013-.722.156-1.436.492-2.076.554-.833 1.417-.726 2.197-.672 1.119.041 2.016.293 2.793-.749.435-.602.707-1.306.789-2.044-.113-.804-.35-1.586-.704-2.318l-5.522-12.635c-.473-1.073-1.022-2.112-1.642-3.108-.492-.664-.822-.664-1.525-.812-.46-.073-1.078-.199-1.078-.929 0-.729.704-.717 1.268-.717 1.642 0 3.357.085 4.977.085 1.43 0 2.92-.085 4.372-.085.479 0 1.354 0 1.354.717 0 .632-.533.812-.98.929s-1.449.189-1.449 1.011c.105.647.306 1.275.596 1.863l2.752 6.501c.127.212.491 1.295.777 1.295.374 0 .713-1.042.798-1.339z"/><path d="m247.008 234.664c-.064 1.403-.022 1.949-1.173 2.698-2.138 1.353-4.633 2.035-7.165 1.958-3.529.111-6.989-.995-9.796-3.13-1.478-1.317-2.663-2.929-3.477-4.731-.813-1.802-1.238-3.755-1.246-5.731-.009-1.987.415-3.953 1.243-5.762.828-1.808 2.041-3.416 3.553-4.712 2.991-2.327 6.686-3.576 10.481-3.541 1.898.025 3.782.323 5.595.885 1.002.338 1.002.495 1.173 1.674l.317 2.17c.084.399.13.805.14 1.213.007.094-.006.19-.038.279-.033.089-.084.17-.151.238-.066.068-.147.121-.236.155-.089.035-.184.05-.279.045-1.706 0-1.832-5.026-6.845-5.026-1.263.067-2.489.45-3.566 1.112s-1.97 1.583-2.596 2.679c-1.404 2.497-2.107 5.325-2.036 8.187-.055 2.811.582 5.593 1.855 8.102.576 1.209 1.47 2.239 2.586 2.983s2.413 1.174 3.754 1.244c1.456-.031 2.848-.602 3.903-1.602 1.049-1.141 1.884-2.462 2.463-3.898.171-.464.447-.875.929-.875.821 0 .777.948.745 1.602z"/><path d="m263.385 229.677c.009-2.109-.386-4.201-1.163-6.163-.672-1.516-1.972-3.159-3.605-3.159-3.23 0-4.178 4.688-4.178 7.524 0 3.109 1.182 9.726 4.926 9.726 3.272 0 4.02-5.142 4.02-7.922zm-14.947-.657c.06-2.729 1.201-5.324 3.174-7.218 1.973-1.893 4.618-2.933 7.357-2.89 2.536-.044 5.003.824 6.949 2.445 1.062.902 1.917 2.021 2.507 3.281.591 1.26.903 2.631.917 4.022.002 1.383-.275 2.753-.812 4.029-.537 1.275-1.325 2.431-2.317 3.399s-2.169 1.728-3.46 2.237c-1.291.508-2.672.754-4.06.724-1.345.055-2.688-.165-3.945-.646-1.257-.482-2.401-1.216-3.363-2.156-.961-.94-1.718-2.066-2.225-3.309s-.753-2.577-.722-3.918z"/><path d="m289.915 234.273c-.041 1.086.634 1.348 1.674 1.484.362.041.704.168.704.673 0 .704-1.268.929-1.715 1.001l-3.871 1.286c-.498.227-1.02.396-1.556.505-.682 0-.447-1.118-.447-1.579 0-.253.149-1.516-.343-1.516-.234 0-.564.294-.704.42-1.469 1.454-3.412 2.336-5.478 2.486-.813.003-1.615-.178-2.347-.53-.732-.353-1.373-.867-1.875-1.504-.913-1.583-1.326-3.405-1.183-5.225v-6.731c.091-1.065-.025-2.138-.342-3.159-.416-.717-1.151-.767-1.845-.947-.438-.073-.885-.285-.885-.885 0-.717.634-.673 1.119-.673 1.164 0 2.283.086 3.443.086s2.26-.086 3.433-.086c.479 0 .577.086.577.673v11.372c-.038 1.127.158 2.249.577 3.297.219.39.538.716.924.943.385.228.825.349 1.273.352 1.08-.091 2.08-.601 2.784-1.421.523-.748.731-1.672.577-2.571v-6.94c.096-1.078-.011-2.164-.317-3.203-.222-.282-.503-.513-.823-.677s-.672-.256-1.032-.271c-.415-.072-.862-.284-.862-.843 0-.758.634-.717 1.119-.717 1.163 0 2.314.085 3.455.085 1.142 0 2.324-.085 3.488-.085.659 0 .491.853.491 1.443z"/><path d="m301.503 221.786c.586 0 2.441-2.865 6.109-2.865 1.73-.037 3.41.58 4.701 1.728.635.71 1.1 1.553 1.362 2.467s.313 1.875.15 2.811v7.048c-.137 1.137-.005 2.292.384 3.37.361.546 1.195.591 1.759.704.235.027.452.138.611.312.159.175.248.401.252.636 0 .726-.65.767-1.129.767-1.354 0-2.622-.085-3.956-.085-1.706 0-3.421.085-5.139.085-.406 0-.862-.126-.862-.767-.012-.22.055-.436.19-.61s.329-.294.545-.338c.315-.034.619-.134.893-.294.273-.161.509-.377.692-.634.277-1.029.367-2.099.266-3.159v-6.204c.061-1.254-.155-2.506-.634-3.667-.245-.458-.611-.84-1.058-1.107-.446-.267-.957-.408-1.478-.409-1.049.051-2.041.49-2.783 1.232-1.012.947-.853 1.844-.853 3.288v6.88c-.109 1.059-.022 2.13.257 3.158.184.257.42.473.693.632.273.16.577.262.892.297.216.044.41.163.545.337s.202.391.19.611c0 .631-.459.767-.875.767-1.696 0-3.411-.085-5.116-.085-1.354 0-2.622.085-3.957.085-.479 0-1.151-.041-1.151-.767.007-.239.101-.466.263-.641.163-.174.384-.283.622-.307.564-.117 1.385-.158 1.747-.704.391-1.079.52-2.234.374-3.371v-6.229c0-1.759.127-2.729-1.642-2.991-.511-.054-1.119 0-1.119-.727 0-.726 1.204-.875 1.61-1.001 1.838-.5 3.503-1.496 4.809-2.878.138-.229.333-.42.566-.553.234-.132.497-.203.766-.205.608 0 .532 1.119.532 1.529z"/><path d="m327.537 220.466c-.595.088-1.165.3-1.673.621-.509.321-.944.744-1.278 1.243-1.092 1.526-1.66 3.363-1.62 5.237 0 4.299 2.644 8.607 6.822 8.607 2.717 0 3.529-1.56 4.255-1.56.119.019.228.079.308.17.08.09.125.205.129.326 0 .97-1.078 1.737-1.683 2.211-1.68 1.145-3.671 1.751-5.707 1.737-1.336.041-2.667-.196-3.907-.694s-2.363-1.247-3.297-2.2c-.935-.952-1.661-2.088-2.133-3.335-.472-1.246-.679-2.577-.608-3.907.187-2.814 1.479-5.441 3.596-7.312 2.118-1.871 4.89-2.836 7.716-2.685 1.591-.035 3.162.355 4.552 1.127.353.137.652.385.85.706.198.322.285.7.247 1.076 0 1.01-.352 3.834-1.566 3.834s-1.769-1.443-2.251-2.35c-.672-1.285-1.214-2.843-2.761-2.843"/><path d="m338.176 213.725c-.001-.43.083-.856.249-1.254.165-.397.408-.757.715-1.061.306-.302.67-.542 1.07-.703.4-.162.828-.243 1.26-.238.431-.021.861.048 1.264.201s.77.387 1.078.687c.308.301.551.662.713 1.06s.24.825.229 1.254c.027.453-.041.905-.199 1.33s-.402.813-.717 1.139-.695.584-1.115.757-.872.258-1.326.249c-.443.009-.883-.075-1.291-.247-.409-.171-.777-.426-1.08-.748-.304-.321-.536-.703-.682-1.12-.147-.417-.204-.859-.168-1.299zm6.109 19.256c-.083 1.125-.036 2.256.14 3.37.193.632 1.353.591 2.025.705.406.094.885.347.885.884 0 .736-.682.821-1.164.821-1.556 0-3.113-.085-4.701-.085s-3.05.085-4.606.085c-.492 0-1.119-.085-1.119-.821 0-.537.447-.79.894-.884.523-.086 1.674-.117 1.854-.705.216-1.11.302-2.241.257-3.37v-6.223c0-1.759.139-2.729-1.629-2.991-.524-.041-1.11 0-1.11-.717s1.195-.885 1.585-1.011c1.844-.5 3.514-1.495 4.828-2.878.133-.229.325-.42.555-.553s.491-.204.758-.205c.634 0 .542 1.106.542 1.529z"/><path d="m356.205 235.204c0 .136 0 1.58 2.035 1.864.501.085 1.205.199 1.205.97 0 .632-.383.717-.843.717-1.801 0-3.529-.073-5.225-.073-1.8 0-3.569.073-5.373.073-.533 0-.907-.073-.907-.717 0-.771.587-.885 1.034-.97 2.251-.294 2.251-1.728 2.251-1.864v-19.669c0-2.306.126-2.751-1.972-3.077-.276-.041-.726-.167-.726-.631 0-.8 1.078-.897 1.585-.97 1.699-.306 3.353-.82 4.926-1.529.432-.232.901-.39 1.386-.464.799 0 .634 1.434.634 2.034z"/></g></svg>