<svg fill="none" height="300" viewBox="0 0 500 300" width="500" xmlns="http://www.w3.org/2000/svg"><g fill="#06182e"><path d="m111.784 179.319h-4.136v-1.498h9.985v1.498h-4.066v11.982h-1.783zm6.704-2.211h1.783v6.062h.072c.285-.499.713-.927 1.283-1.283.5-.286 1.142-.5 1.783-.5 1.284 0 3.424.785 3.424 4.137v5.777h-1.855v-5.563c0-1.569-.57-2.853-2.21-2.853-1.142 0-1.997.785-2.354 1.712-.071.285-.143.499-.143.855v5.849h-1.783zm16.475 8.416c0-1.141-.428-2.853-2.425-2.853-1.783 0-2.567 1.64-2.71 2.853zm-5.135 1.284c.071 2.353 1.569 3.352 3.352 3.352 1.284 0 2.068-.214 2.71-.5l.286 1.284c-.642.285-1.712.642-3.281.642-2.996 0-4.778-1.997-4.778-4.921s1.711-5.206 4.564-5.206c3.209 0 3.994 2.781 3.994 4.564 0 .357 0 .642-.072.785zm11.982 4.493v-13.48h1.925l4.351 6.776c.998 1.569 1.783 2.995 2.425 4.35h.071c-.143-1.783-.214-3.423-.214-5.563v-5.634h1.64v13.479h-1.783l-4.279-6.846c-.927-1.498-1.854-3.067-2.496-4.493h-.071c.071 1.711.142 3.28.142 5.562v5.777h-1.711m17.473-4.849c-1.926 0-4.137.285-4.137 2.211 0 1.141.785 1.711 1.641 1.711 1.284 0 2.068-.784 2.353-1.64.072-.214.072-.428.072-.571v-1.711zm1.712 2.638c0 .856.071 1.641.142 2.354h-1.569l-.142-1.212h-.072c-.57.784-1.569 1.426-2.995 1.426-1.997 0-2.996-1.355-2.996-2.781 0-2.354 2.069-3.638 5.849-3.566v-.214c0-.785-.214-2.211-2.211-2.211-.927 0-1.855.285-2.568.713l-.428-1.213c.785-.499 1.997-.855 3.21-.855 2.995 0 3.708 1.997 3.708 3.922v3.637zm3.993-9.699v2.354h2.497v1.355h-2.497v5.206c0 1.212.357 1.854 1.356 1.854.499 0 .784-.071.998-.142l.071 1.355c-.356.142-.856.214-1.569.214-.856 0-1.497-.286-1.925-.714-.5-.57-.714-1.426-.714-2.567v-5.206h-1.497v-1.355h1.497v-1.783zm3.566 2.354h1.783v9.699h-1.783zm1.997-2.711c0 .571-.428 1.07-1.141 1.07-.642 0-1.07-.499-1.07-1.07 0-.57.428-1.069 1.142-1.069.641-.072 1.069.428 1.069 1.069zm2.996 7.56c0 2.14 1.212 3.709 2.924 3.709 1.711 0 2.924-1.569 2.924-3.78 0-1.64-.856-3.709-2.924-3.709-1.997.072-2.924 1.926-2.924 3.78zm7.702-.142c0 3.566-2.496 5.135-4.85 5.135-2.638 0-4.635-1.926-4.635-4.993 0-3.209 2.139-5.135 4.849-5.135 2.711.072 4.636 2.069 4.636 4.993zm1.427-2.14c0-.998 0-1.854-.072-2.639h1.569l.072 1.569h.071c.499-.927 1.64-1.783 3.209-1.783 1.355 0 3.424.785 3.424 4.137v5.777h-1.783v-5.563c0-1.569-.571-2.853-2.283-2.853-1.141 0-2.068.856-2.353 1.783-.071.214-.143.499-.143.856v5.777h-1.783v-7.061m15.405 2.14c-1.925 0-4.136.285-4.136 2.211 0 1.141.784 1.711 1.64 1.711 1.284 0 2.14-.784 2.354-1.64.071-.214.071-.428.071-.571v-1.711zm1.712 2.638c0 .856.071 1.641.142 2.354h-1.569l-.142-1.212h-.072c-.57.784-1.569 1.426-2.995 1.426-1.997 0-2.995-1.355-2.995-2.781 0-2.354 2.068-3.638 5.848-3.566v-.214c0-.785-.214-2.211-2.211-2.211-.927 0-1.854.285-2.568.713l-.427-1.213c.784-.499 1.996-.855 3.209-.855 2.995 0 3.708 1.997 3.708 3.922v3.637zm1.925-11.91h1.783v14.193h-1.783zm17.117 13.836c-.642.285-1.926.642-3.566.642-3.78 0-6.633-2.425-6.633-6.847 0-4.208 2.853-7.06 7.061-7.06 1.64 0 2.781.356 3.209.57l-.428 1.427c-.641-.286-1.569-.571-2.71-.571-3.138 0-5.277 1.997-5.277 5.563 0 3.352 1.925 5.42 5.206 5.42 1.07 0 2.14-.214 2.853-.57zm.785-9.271 2.139 5.705c.214.642.499 1.426.642 1.997h.071c.214-.571.357-1.355.642-1.997l1.926-5.705h1.854l-2.639 6.918c-1.284 3.28-2.139 4.992-3.352 6.062-.856.713-1.711 1.069-2.139 1.141l-.428-1.427c.428-.142.998-.428 1.569-.855.499-.357 1.07-1.07 1.497-1.926.072-.143.143-.285.143-.428 0-.071-.071-.214-.143-.428l-3.565-8.915h1.783m14.691 9.2c-.499.214-1.497.571-2.781.571-2.924 0-4.85-1.997-4.85-4.921 0-2.995 2.068-5.135 5.206-5.135 1.07 0 1.997.285 2.425.499l-.428 1.355c-.428-.214-1.069-.428-2.068-.428-2.211 0-3.423 1.641-3.423 3.638 0 2.21 1.426 3.637 3.352 3.637.998 0 1.64-.214 2.139-.428zm1.07-13.907h1.783v14.193h-1.783zm10.127 8.416c0-1.141-.428-2.853-2.425-2.853-1.783 0-2.567 1.64-2.71 2.853zm-5.206 1.284c.071 2.353 1.569 3.352 3.352 3.352 1.284 0 2.068-.214 2.71-.5l.357 1.284c-.642.285-1.712.642-3.281.642-2.995 0-4.778-1.997-4.778-4.921s1.711-5.206 4.564-5.206c3.209 0 3.994 2.781 3.994 4.564 0 .357 0 .642-.071.785zm13.765 3.138c.427.071 1.069.071 1.783.071 3.779 0 5.776-2.068 5.776-5.706 0-3.209-1.783-5.206-5.491-5.206-.927 0-1.569.071-2.068.214zm-1.712-11.911c1.07-.142 2.353-.285 3.709-.285 2.496 0 4.279.571 5.491 1.64 1.212 1.141 1.926 2.639 1.926 4.85s-.714 3.994-1.926 5.206c-1.284 1.284-3.352 1.926-5.991 1.926-1.283 0-2.282-.071-3.138-.143v-13.194zm17.473 8.345c-1.926 0-4.136.285-4.136 2.211 0 1.141.784 1.711 1.64 1.711 1.284 0 2.139-.784 2.353-1.64.072-.214.072-.428.072-.571v-1.711zm1.712 2.638c0 .856.071 1.641.142 2.354h-1.569l-.142-1.212h-.072c-.57.784-1.569 1.426-2.995 1.426-1.997 0-2.995-1.355-2.995-2.781 0-2.354 2.068-3.638 5.848-3.566v-.214c0-.785-.214-2.211-2.211-2.211-.927 0-1.854.285-2.568.713l-.428-1.213c.785-.499 1.997-.855 3.21-.855 2.995 0 3.708 1.997 3.708 3.922v3.637zm3.994-9.699v2.354h2.567v1.355h-2.567v5.206c0 1.212.356 1.854 1.355 1.854.499 0 .784-.071.998-.142l.071 1.355c-.356.142-.855.214-1.569.214-.855 0-1.497-.286-1.925-.714-.499-.57-.713-1.426-.713-2.567v-5.206h-1.498v-1.355h1.498v-1.783zm8.914 7.061c-1.925 0-4.136.285-4.136 2.211 0 1.141.784 1.711 1.64 1.711 1.284 0 2.14-.784 2.354-1.64.071-.214.071-.428.071-.571v-1.711zm1.712 2.638c0 .856.071 1.641.143 2.354h-1.569l-.143-1.212h-.071c-.571.784-1.569 1.426-2.996 1.426-1.997 0-2.995-1.355-2.995-2.781 0-2.354 2.068-3.638 5.848-3.566v-.214c0-.785-.214-2.211-2.211-2.211-.927 0-1.854.285-2.567.713l-.428-1.213c.784-.499 1.997-.855 3.209-.855 2.996 0 3.709 1.997 3.709 3.922v3.637zm3.709-1.569c0 .214 0 .428.071.642.285 1.213 1.355 2.069 2.639 2.069 1.854 0 2.924-1.498 2.924-3.709 0-1.926-.999-3.566-2.924-3.566-1.213 0-2.282.856-2.639 2.14-.071.214-.071.427-.071.713zm-1.712-10.341h1.712v6.062h.071c.642-1.069 1.783-1.783 3.281-1.783 2.425 0 4.136 1.997 4.136 4.921 0 3.424-2.211 5.135-4.35 5.135-1.427 0-2.496-.57-3.281-1.783h-.071l-.072 1.569h-1.497c.071-.642.071-1.64.071-2.496zm15.762 9.272c-1.926 0-4.137.285-4.137 2.211 0 1.141.785 1.711 1.64 1.711 1.284 0 2.14-.784 2.354-1.64.071-.214.071-.428.071-.571v-1.711zm1.711 2.638c0 .856.072 1.641.143 2.354h-1.569l-.143-1.212h-.071c-.571.784-1.569 1.426-2.996 1.426-1.996 0-2.995-1.355-2.995-2.781 0-2.354 2.068-3.638 5.848-3.566v-.214c0-.785-.214-2.211-2.211-2.211-.927 0-1.854.285-2.567.713l-.428-1.213c.784-.499 1.997-.855 3.209-.855 2.996 0 3.709 1.997 3.709 3.922v3.637zm1.641.5c.57.356 1.497.713 2.353.713 1.284 0 1.854-.642 1.854-1.426 0-.856-.499-1.284-1.783-1.783-1.783-.642-2.567-1.57-2.567-2.711 0-1.569 1.284-2.852 3.352-2.852.998 0 1.854.285 2.353.57l-.427 1.284c-.357-.214-1.07-.571-1.997-.571-1.07 0-1.569.571-1.569 1.355 0 .785.57 1.142 1.854 1.641 1.64.642 2.567 1.426 2.567 2.924 0 1.712-1.355 2.924-3.637 2.924-1.07 0-2.068-.285-2.71-.642zm13.55-3.994c0-1.141-.499-2.853-2.425-2.853-1.783 0-2.567 1.64-2.71 2.853zm-5.135 1.284c.072 2.353 1.569 3.352 3.352 3.352 1.284 0 2.068-.214 2.71-.5l.357 1.284c-.642.285-1.712.642-3.281.642-2.995 0-4.778-1.997-4.778-4.921s1.712-5.206 4.564-5.206c3.21 0 3.994 2.781 3.994 4.564 0 .357 0 .642-.071.785zm-64.9-53.918c4.422 0 6.847-2.852 6.847-7.702 0-2.782-1.498-4.422-4.208-4.422h-2.639l-2.568 12.124zm-9.913-20.753h11.268c6.276 0 10.698.356 13.693 2.852 2.568 2.14 3.78 5.135 3.78 9.129 0 7.774-3.138 12.481-9.628 14.05 3.709.927 5.349 2.924 5.349 6.419 0 4.065-1.854 8.558-1.854 13.194 0 1.497.214 2.71.784 3.78v.998h-12.409c-.428-.856-.5-1.854-.5-3.067 0-4.778 2.069-9.699 2.069-14.049 0-2.211-1.569-3.638-4.065-3.638h-2.996l-4.35 20.825h-11.839zm47.284 26.673c.428-1.997.571-3.495.571-4.422 0-2.567-1.141-3.922-3.281-3.922-3.138 0-4.208 2.496-5.349 8.344zm-8.13 24.819c-8.273 0-12.766-3.923-12.766-10.841 0-2.282.57-5.776 1.569-10.484 1.212-5.491 2.282-9.128 3.209-10.983 2.781-5.491 6.561-7.631 13.622-7.631 8.273 0 12.695 3.923 12.695 11.269 0 2.068-.571 5.491-1.641 10.198h-17.972l-.713 3.21c-.428 1.711-.642 3.28-.642 4.421 0 2.354 1.07 3.495 3.209 3.495 2.782 0 4.137-1.997 4.85-6.561h10.127c-1.711 9.77-6.418 13.907-15.547 13.907zm29.027-18.757c-.642 2.639-.785 4.493-.785 5.563 0 2.068 1.07 3.352 2.781 3.352 2.782 0 3.709-2.71 4.85-7.917l.927-4.564c.571-2.425.714-4.136.714-5.135 0-2.282-1.07-3.495-2.925-3.495-2.567 0-3.352 2.782-4.635 8.345zm-200.763 22.252 200.335-1.213c3.352 0 2.781.642 3.922-4.85l.785-3.637c-2.283 2.639-4.636 3.851-7.774 3.851-5.349 0-7.917-2.924-7.917-8.986 0-4.279.856-9.985 2.925-16.831 2.353-7.988 4.992-11.696 10.911-11.696 4.066 0 6.348 1.783 8.273 5.634l.999-4.707h10.056l-6.847 32.093c-1.355 6.419-.998 8.059-3.423 10.983-2.853 3.424-6.419 6.134-11.625 6.134zm229.433-55.772h10.484l-1.783 8.701h-10.555zm-2.853 13.337h10.484l-8.059 37.87h-10.484zm15.976 25.461v.927c0 3.851 1.212 5.705 4.065 5.705 2.139 0 3.637-1.355 3.637-3.423s-1.355-3.281-3.851-5.278c-5.135-4.207-9.2-7.06-9.2-13.479 0-6.775 4.635-10.769 12.837-10.769 8.273 0 12.623 3.851 12.623 10.912 0 .642 0 1.283-.071 1.925h-9.129v-.927c0-3.637-1.069-5.277-3.566-5.277-1.997 0-3.138 1.141-3.138 3.066 0 2.425 1.783 3.638 4.707 5.991 5.207 4.137 8.273 7.061 8.273 12.624 0 7.203-4.635 11.482-12.694 11.482-9.343 0-13.979-3.923-13.979-11.768 0-.499 0-1.07.071-1.64h9.415m30.239 3.209c0 1.641.856 1.926 3.209 1.926h1.355l-1.64 7.56c-1.783.214-3.423.356-4.921.356-5.991 0-9.058-2.282-9.058-6.846 0-1.712.571-4.137 1.213-7.346l3.708-17.473h-4.279l1.498-6.918h4.279l2.425-11.269h10.484l-2.425 11.269h5.206l-1.498 6.918h-5.206l-4.136 19.612c-.072.999-.214 1.712-.214 2.211zm27.03-14.62c.428-1.997.57-3.495.57-4.422 0-2.567-1.141-3.922-3.28-3.922-3.139 0-4.208 2.496-5.349 8.344zm-8.131 24.819c-8.273 0-12.766-3.923-12.766-10.841 0-2.282.571-5.776 1.569-10.484 1.213-5.491 2.282-9.128 3.21-10.983 2.781-5.491 6.632-7.631 13.622-7.631 8.272 0 12.694 3.923 12.694 11.269 0 2.068-.57 5.491-1.64 10.198h-17.972l-.714 3.21c-.428 1.711-.642 3.28-.642 4.421 0 2.354 1.07 3.495 3.21 3.495 2.781 0 4.136-1.997 4.85-6.561h10.127c-1.783 9.77-6.49 13.907-15.548 13.907zm23.75-38.94h9.271l-1.569 7.274c2.496-5.705 5.563-8.344 10.199-8.344h.713l-2.496 11.768h-2.283c-5.277 0-6.204 3.066-7.559 9.485l-3.852 17.758h-10.484z"/><path d="m118.56 154.714h10.912c3.993 0 7.559-1.284 7.559-6.062 0-4.707-2.995-6.633-7.346-6.633h-11.125zm0-19.613h10.341c3.566 0 6.276-1.64 6.276-5.491 0-4.422-3.352-5.278-6.989-5.278h-9.628zm-10.199-18.685h21.824c8.843 0 14.834 2.852 14.834 11.411 0 4.493-2.282 7.702-6.276 9.628 5.634 1.64 8.487 5.919 8.487 11.696 0 9.414-7.988 13.408-16.403 13.408h-22.466zm41.365 12.766h9.2v33.448h-9.2zm0-12.766h9.2v7.56h-9.2zm12.41 0h9.2v24.747l11.625-12.053h10.912l-12.695 12.267 14.121 21.182h-11.126l-9.2-14.977-3.566 3.423v11.483h-9.2v-46.072m54.06 25.888c-.856-4.635-2.853-7.131-7.346-7.131-5.848 0-7.56 4.493-7.703 7.131zm-14.977 5.849c.285 5.848 3.138 8.487 8.273 8.487 3.708 0 6.704-2.283 7.274-4.351h8.131c-2.568 7.917-8.131 11.269-15.762 11.269-10.626 0-17.188-7.275-17.188-17.616 0-10.056 6.99-17.687 17.188-17.687 11.411 0 16.974 9.556 16.332 19.826h-24.248zm-158.899 12.409c5.8481 12.338 15.3336 22.323 26.6733 22.965 9.3428.57 15.0483-3.637 17.4732-8.844 1.2837-2.852 3.9938-3.138 2.6388 1.569-.428 1.569-5.7056 11.839-20.6112 10.983-15.6189-.927-24.8904-14.121-29.8827-25.389-2.0683-4.707-4.8497-13.194 0-14.906 4.8497-1.711 7.3459 4.565 10.6265 11.982 6.4187 14.478 16.6887 17.901 21.1105 18.044 4.4931.142 10.4125-2.639 10.7691-8.416.4279-7.132-5.2776-8.986-5.2776-8.986s5.9195 9.057-1.9969 12.837c-9.2002 4.422-18.543-6.347-21.5384-16.974-.9984-3.494 1.5691-4.065 3.8513.785 2.3535 4.921 6.7753 12.766 12.7661 13.122 4.9923.286 5.6342-3.566 3.6372-7.631-1.8542-3.851-5.8481-6.632-10.6265-8.415-23.6779-8.987-25.7462-15.263-27.5291-17.616-1.2125-1.641-1.8543-4.779-.214-4.707 1.1411.071 1.9256 1.284 3.9939 3.851 3.7086 4.707 11.9816 9.485 23.6066 14.192 10.8405 4.351 17.9724 8.487 23.7492 12.339 5.7769 3.78 7.4172 6.846 6.918 7.845-.5706 1.212-3.78-.927-4.2792-1.284-.5705-.285-2.2822-1.426-2.7101 1.854-.4992 3.352-5.135 11.768-15.1196 11.126-13.4793-.784-21.4671-13.622-24.9617-20.968-1.6403-3.494-4.2078-10.127-5.6342-9.628-1.4264.642 1.9256 8.986 2.5675 10.27zm-6.2761-14.121c-.7845 0-1.4977-.571-1.6403-1.355l-.1427-2.282c-.1426-.856.214-1.712 1.1411-1.855.9272-.142 1.6404.785 1.783 1.712l.4992 1.926c.1427.856-.4279 1.711-1.355 1.854-.0713 0-.214 0-.2853 0zm33.092 16.831c-1.9256-1.64-4.2078-2.995-5.4915-5.349-1.2838-2.496-4.1365-2.995-3.2094.072.9272 3.066 3.6373 5.919 6.49 7.417 2.9241 1.426 4.2079-.499 2.2109-2.14zm9.5568-13.622c-11.4824-5.277-23.7493-9.984-29.74-13.408-6.0622-3.423-10.6266-11.197-11.2685-14.834-.3565-2.211-3.4233-5.135-3.138.285.214 5.492 5.2776 14.264 13.6933 18.258 8.4869 4.065 26.6733 10.84 35.1602 15.975 8.273 4.993 10.8405 7.988 11.7677 6.633.9984-1.426-4.9924-7.702-16.4747-12.909zm-27.6005-15.191c10.6266 6.918 26.3167 8.915 40.1526 19.114 1.6404 1.212 4.7071 2.211 2.2822-1.426-2.6388-3.994-15.0483-10.199-23.7492-13.337-4.7784-1.712-26.3167-8.63-25.1756-22.109.5705-6.704 7.7024-6.918 9.4141-6.775 1.783.142 9.6994 2.139 14.6917 9.77 4.9924 7.632 6.704 13.48.7132 12.98-5.9908-.499-17.5445-11.553-17.2592-14.477.214-2.425 5.5629-1.213 13.2653 9.485 3.1381 4.351 3.7086.642 2.9954-.998-.9984-2.283-6.49-12.695-14.763-13.337-6.2047-.499-6.9179 5.064-3.0667 10.127 3.138 4.137 11.7676 12.053 19.3274 12.695 2.9954.285 5.4916-.998 6.704-3.352 1.7117 3.138 4.5644 8.915 5.135 8.63.6419-.286 1.783.356.214-4.707-1.5691-4.993-5.2063-11.554-6.6327-14.122-1.1411-2.21-2.8528-4.635-5.2063-7.203-2.7814-2.924-7.2745-7.346-12.9087-8.487-11.839-2.567-16.4747 5.278-16.9027 9.985-.3565 3.138 1.4977 11.411 10.7692 17.544zm401.8118-14.263h.784c.927 0 1.64-.286 1.64-.999 0-.642-.499-1.07-1.497-1.07-.428 0-.713.072-.856.072v1.997zm-.072 3.922h-1.64v-6.989c.642-.071 1.569-.214 2.71-.214 1.355 0 1.926.214 2.354.57.427.286.713.785.713 1.498 0 .856-.642 1.427-1.427 1.641v.071c.642.214.999.784 1.213 1.711.214 1.07.356 1.427.499 1.712h-1.712c-.214-.285-.356-.856-.57-1.712-.143-.713-.571-1.069-1.427-1.069h-.784v2.781zm-4.279-3.637c0 3.138 2.354 5.563 5.492 5.563 2.995.071 5.349-2.496 5.349-5.492 0-3.138-2.283-5.634-5.421-5.634-3.066 0-5.42 2.496-5.42 5.563zm12.624 0c0 3.922-3.138 6.989-7.204 6.989-3.993 0-7.203-3.067-7.203-6.989 0-3.923 3.21-6.989 7.275-6.989 3.922 0 7.132 3.066 7.132 6.989z"/></g></svg>