<svg fill="none" height="300" viewBox="0 0 500 300" width="500" xmlns="http://www.w3.org/2000/svg" xmlns:xlink="http://www.w3.org/1999/xlink"><clipPath id="a"><path d="m97 58h306v206h-306z"/></clipPath><mask id="b" height="206" maskUnits="userSpaceOnUse" width="306" x="97" y="58"><path d="m97 58h306v206h-306z" fill="#fff"/></mask><g clip-path="url(#a)"><g mask="url(#b)"><path d="m179.76 249.651c-34.059-17.952-63.068-54.344-74.651-75.406-25.3022-45.996 12.714-77.9211 57.874-79.3422 46.706-1.4682 192.027-1.9794 229.761 29.2372 23.898 19.773 2.428 93.01-27.323 114.728-39.245 28.649-142.408 33.578-185.658 10.782" fill="#fff"/><path d="m305.596 148.013c-9.54-16.84-21.438-23.772-31.138-21.776-9.644 2.25-17.549 13.527-19.167 32.815-1.484 17.705 1.914 30.996 3.679 34.227.685 1.298 1.711 2.385 2.966 3.146 1.256.76 2.694 1.165 4.162 1.171s2.909-.387 4.171-1.137 2.296-1.829 2.992-3.121c0 0 1.271-2.224 1.009-10.091-.306-8.95-.049-14.761 1.481-19.234.871-2.548 2.887-5.579 5.621-6.245 2.762-.541 5.861 1.369 7.719 3.317 3.261 3.421 5.925 8.592 9.395 16.848 3.046 7.25 5.131 8.736 5.131 8.736 1.173.884 2.565 1.433 4.025 1.586 1.461.154 2.936-.093 4.267-.713 1.332-.621 2.469-1.592 3.291-2.809.822-1.218 1.297-2.636 1.375-4.103.251-3.673-2.226-17.165-10.982-32.626" fill="#06182e"/><path d="m230.02 117.134c.662 2.454.582 5.049-.231 7.457-.812 2.408-2.32 4.521-4.333 6.072s-4.441 2.47-6.976 2.641c-2.535.17-5.064-.414-7.267-1.681s-3.98-3.159-5.108-5.436c-1.128-2.278-1.556-4.838-1.229-7.359.328-2.52 1.394-4.887 3.066-6.801s3.874-3.289 6.327-3.951c3.29-.888 6.797-.433 9.751 1.266s5.112 4.502 6 7.792zm-7.871 20.41-.077 48.076c.124 3.994.76 12.078 5.587 17.928 1.485 2.157 3.603 3.8 6.061 4.704 2.458.903 5.135 1.023 7.664.341l.089-.027.091-.022c2.528-.683 4.783-2.133 6.453-4.151s2.674-4.504 2.873-7.117c1.229-7.482-2.287-14.791-4.188-18.306-2.208-4.081-23.741-41.658-23.741-41.658-.2-.31-.786-.113-.812.232z" fill="#06182e"/><path d="m207.959 181.723c-3.045-3.168-6.748-5.628-10.848-7.208 4.457-8.099 6.207-17.413 4.993-26.579-1.214-9.165-5.328-17.702-11.74-24.361-16.587-17.221-43.547-17.262-61.2-1.144-15.233 13.902-18.063 41.745-4.775 55.542l47.815 49.662c7.554 7.844 23.864 7.417 34.959-3.272 2.851-2.747 5.133-6.029 6.716-9.658 1.583-3.63 2.436-7.535 2.509-11.494.074-3.959-.632-7.893-2.079-11.579-1.446-3.686-3.604-7.05-6.35-9.902m-62.658-14.725c-2.646-2.747-4.419-6.217-5.094-9.972-.674-3.755-.221-7.625 1.303-11.122 1.525-3.497 4.052-6.463 7.261-8.523 3.21-2.061 6.959-3.123 10.772-3.052 3.813.07 7.52 1.27 10.651 3.448s5.547 5.235 6.941 8.786 1.704 7.436.891 11.163-2.713 7.129-5.459 9.776c-1.824 1.758-3.975 3.139-6.332 4.065s-4.874 1.378-7.406 1.331c-2.531-.046-5.029-.592-7.351-1.604-2.321-1.013-4.42-2.472-6.177-4.296zm50.197 44.67c-1.497 1.441-3.387 2.406-5.432 2.772-2.045.367-4.153.118-6.056-.714-1.904-.831-3.519-2.209-4.64-3.959-1.121-1.749-1.698-3.792-1.659-5.869.04-2.078.694-4.097 1.881-5.803s2.852-3.021 4.787-3.78c1.934-.759 4.049-.927 6.079-.483 2.029.444 3.882 1.48 5.323 2.976 1.933 2.007 2.989 4.7 2.937 7.486s-1.208 5.438-3.215 7.371" fill="#06182e"/><path d="m351.187 192.855.708-2.946c6.685-.434 13.045-3.041 18.113-7.423 5.067-4.383 8.565-10.301 9.961-16.855 1.395-6.554.612-13.384-2.23-19.452-2.843-6.067-7.589-11.04-13.517-14.161 1.132-1.056 1.959-2.396 2.393-3.882.434-1.485.46-3.06.074-4.559-.385-1.499-1.167-2.866-2.264-3.957-1.096-1.092-2.467-1.868-3.967-2.246-1.501-.378-3.075-.344-4.558.097-1.483.442-2.819 1.275-3.868 2.413-1.05 1.137-1.773 2.536-2.094 4.05s-.228 3.086.269 4.552c-6.756-.064-13.344 2.1-18.747 6.157-5.402 4.058-9.318 9.783-11.14 16.291-1.823 6.507-1.451 13.433 1.057 19.708 2.509 6.274 7.015 11.548 12.82 15.003l-.708 2.947c-5.479.85-10.493 3.575-14.186 7.712-3.693 4.136-5.837 9.426-6.065 14.967s1.474 10.99 4.815 15.415c3.342 4.426 8.115 7.555 13.506 8.852 5.39 1.297 11.064.682 16.052-1.739s8.981-6.499 11.297-11.538c2.317-5.039 2.813-10.725 1.405-16.089-1.409-5.364-4.635-10.073-9.128-13.322m1.791-45.549c2.392.577 4.559 1.849 6.228 3.658 1.669 1.808 2.765 4.071 3.148 6.502.384 2.431.038 4.921-.994 7.156-1.031 2.234-2.702 4.113-4.8 5.398-2.099 1.285-4.531 1.918-6.99 1.82-2.458-.097-4.832-.922-6.822-2.369-1.991-1.448-3.507-3.453-4.358-5.762s-.998-4.819-.423-7.212c.382-1.589 1.073-3.088 2.034-4.41.962-1.323 2.174-2.443 3.568-3.296 1.394-.854 2.942-1.424 4.557-1.679 1.614-.254 3.263-.188 4.852.194zm-18.37 75.599c-2.094-.504-3.991-1.618-5.452-3.201-1.461-1.582-2.42-3.562-2.755-5.69-.336-2.128-.033-4.307.869-6.263.903-1.955 2.365-3.599 4.201-4.724 1.837-1.124 3.966-1.679 6.117-1.593 2.152.085 4.23.807 5.972 2.074 1.741 1.267 3.068 3.021 3.813 5.043.744 2.021.873 4.217.369 6.311-.334 1.391-.939 2.703-1.78 3.859-.841 1.157-1.902 2.137-3.122 2.884-1.219.747-2.574 1.246-3.987 1.469-1.412.223-2.855.165-4.245-.169z" fill="#06182e"/><path d="m375.413 133.474c-.491-.096-.741-.151-1.037-.2s-.537-.079-1.043-.145l.088-.524.731.178.193-1.542-.722-.049-.096.572-.545-.091.239-1.058c.526.111 1.042.205 1.557.289.514.084 1.035.168 1.553.227l-.116 1.078-.541-.089.094-.572-.708-.188-.286 1.527.725.064z" fill="#06182e"/><path d="m380.203 133.73-.087.528c-.227-.053-.493-.11-.732-.15-.238-.04-.44-.059-.748-.096l.086-.52.412.106.156-1.237-.982 1.382-.336-.055-.486-1.627-.252 1.223.424.032-.086.521c-.303-.064-.505-.112-.735-.149s-.504-.071-.745-.096l.088-.528.465.122.337-1.419-.533.01v-.577l1.442.148.39 1.49.841-1.286 1.409.326-.182.547-.504-.182-.133 1.453z" fill="#06182e"/><path d="m169.159 58h11.326v17.1741h-11.326z" fill="#06182e"/><path d="m158 58h11.327v17.1741h-11.327z" fill="#06182e" opacity=".5"/><path d="m147 58h11v17h-11z" fill="#06182e" opacity=".2"/><g fill="#000"><path d="m200.341 58.6121h5.237l6.179 16.0389h-4.684l-1.197-3.4224h-6.019l-1.261 3.4224h-4.353zm2.618 3.308h-.046l-2.069 6.2729h4.021z"/><path d="m225.083 74.286c-1.549.4267-3.149.6428-4.756.6425-4.273 0-9.212-2.1611-9.212-8.2289-.002-5.5834 3.904-8.3583 9.186-8.3583 1.618.043 3.221.3224 4.759.8291l-.347 3.4695c-1.271-.7344-2.713-1.1229-4.181-1.1268-.679-.0197-1.354.1026-1.983.3591s-1.197.6415-1.668 1.1304c-.472.4889-.836 1.0709-1.069 1.7087-.234.6378-.331 1.3173-.287 1.9951-.024.6962.1 1.3895.365 2.0338.265.6444.664 1.225 1.17 1.7032s1.109.8431 1.767 1.0704c.659.2273 1.358.3118 2.051.2479 1.372-.0303 2.726-.3107 3.997-.8274z"/><path d="m232.642 58.6121h5.229l6.182 16.0389h-4.687l-1.197-3.4224h-6.014l-1.263 3.4224h-4.345zm2.618 3.308h-.045l-2.07 6.2729h4.022z"/><path d="m245.6 58.6121h6.725l3.398 10.664h.049l3.556-10.664h6.482v16.0389h-4.182l.066-12.3138h-.046l-4.087 12.3138h-3.929l-3.889-12.3138h-.047l.092 12.3138h-4.18z"/><path d="m273.35 58.6121h5.238l6.182 16.0389h-4.688l-1.195-3.4224h-6.021l-1.263 3.4224h-4.341zm2.623 3.308h-.05l-2.067 6.2729h4.022z"/><path d="m286.196 58.6121h7.628c2.848 0 5.17 1.2865 5.17 4.0362.088.9381-.179 1.8751-.75 2.6248s-1.403 1.2571-2.33 1.4215v.0471c1.38.3683 1.473 1.5842 2.275 3.5317l1.563 4.3725h-4.459l-.921-2.8926c-.878-2.7581-1.426-3.4459-3.008-3.4459h-.898v6.3402h-4.27zm4.27 6.6681h1.127c1.375 0 3.122-.0521 3.122-1.8634 0-1.495-1.49-1.7692-3.122-1.7692h-1.127z"/><path d="m304.347 58.6121h7.625v1.3706h-6.038v5.718h5.762v1.3807h-5.762v7.5578h-1.587z"/><path d="m313.964 58.6121h1.582v16.0389h-1.582z"/><path d="m318.896 58.6121h1.582v14.6565h6.436v1.3773h-8.017z"/><path d="m328.805 58.6121h2.452l5.859 14.1116 5.885-14.1116h2.273v16.0389h-1.576v-14.4547h-.043l-5.841 14.4547h-1.361l-6.015-14.453h-.046v14.453h-1.583z"/><path d="m348.097 72.606c1.058.6555 2.286.9837 3.531.9435.46.0602.929.0192 1.372-.1202s.851-.3739 1.194-.6871c.344-.3132.615-.6976.794-1.1263.18-.4287.264-.8915.246-1.3559 0-3.1432-7.354-3.5317-7.354-7.7361 0-2.5714 2.253-4.1809 5.079-4.1809 1.071-.0016 2.135.1769 3.148.5281l-.253 1.448c-.914-.4206-1.914-.6249-2.92-.597-1.651 0-3.474.6895-3.474 2.7547 0 3.2172 7.356 3.2407 7.356 7.9311 0 3.2374-2.777 4.5273-5.259 4.5273-1.244.0183-2.479-.2169-3.63-.6912z"/></g></g></g></svg>