<svg fill="none" height="300" viewBox="0 0 500 300" width="500" xmlns="http://www.w3.org/2000/svg"><path clip-rule="evenodd" d="m386.375 119.667c-.255.017-2.037-.189-2.729-.139-.201.014-1.135-.071-1.135.036 0 .27-.041.679-.073.922-.074.636-.021 1.218-.062 1.857-.079 1.275-.059 2.574-.063 3.853-.004.646.148 3.163.126 3.778-.026.879-.099 2.604.01 3.265.084.511.064 1.787.984 2.476.96.719 4.667 1.112 5.254 1.136.571.023 1.882.035 1.882.142 0 .702.059 1.82 0 2.52-.049.591-.017 1.293-.082 1.881-.071.638-.065 1.296-.094 1.938-.014.32.091 1.663-.108 1.862-.338.337-1.269.097-1.711.147-.263.029-6.297-.105-6.986-.147-.519-.033-3.351-.116-5.149-1.598-2.687-2.22-2.803-4.544-2.874-5.396-.056-.662-.07-1.347-.05-2.023.017-.537-.007-2.76-.097-3.365-.088-.589.032-4.497.004-5.091-.013-.258-.243-2.996-.222-3.569.024-.725.015-1.446.007-2.17-.004-.463.119-2.216.038-2.454-.034-.107-3.271-.058-3.832.036-.16.026-1.101-.107-1.351-.036 0 0-.009-6.451-.096-6.754-.082-.289.016-1.537-.045-1.837-.009-.043 4.982-.041 5.271-.068.333-.033.515.033.55-.039.135-.267.119-.943.107-1.242-.021-.597.08-4.408.018-5.068-.03-.313-.252-2.128-.05-2.424.13-.188 2.799-.111 3.42-.089 1.251.044 4.554-.037 4.736.013.139.04.313-.025.445.041.069.035.115.374.142.674.117 1.324-.056 2.636-.054 3.966.001.606.093 1.357.078 1.965-.01.321-.023.643-.037.966-.01.247-.072 1.163-.002 1.093.056-.057 1.23.054 1.589.062.663.013 4.762.055 5.901.186.558.063.888.067.888.106.037.816.03 1.875.045 2.562.029 1.237-.07 2.453.028 3.685.045.581.068 2.177-.107 2.202-.25.036-4.222.12-4.514.139zm-25.569 24.828c-.349-.007-1.858.078-2.275.085-.813.015-2.98.462-3.332.286-.705-.352-.751-.851-.761-1.567-.009-.769-.05-1.527-.157-2.291-.051-.37-.132-.51-.472-.247-.285.219-.561.461-.831.7-.519.463-.935 1.033-1.537 1.402-.586.36-1.229.685-1.84 1.003-.655.341-1.355.599-2.062.802-.694.198-3.844.434-4.182.434-.911.001-1.885-.343-2.732-.641-.882-.31-1.605-.516-2.3-1.15-3.527-3.212-3.683-6.291-3.748-6.82-.1-.786-.281-1.559-.396-2.343-.102-.703.061-1.444.026-2.163-.032-.748-.154-3.802-.211-4.581-.105-1.461-.031-2.898-.066-4.36-.017-.732.115-1.416.043-2.146-.058-.577.052-5.103.008-6.764-.008-.345-.288-1.863-.141-2.358.047-.163.129-.326.269-.421.166-.112.38-.114.579-.11 1.696.031 3.39.083 5.084.12.343.008 2.69-.006 3.027.138.412.174.571.222.574.692.016 2.243-.228 4.454-.066 6.7.054.749.055 1.501.079 2.25.036 1.112.272 5.639.273 6.8 0 .767-.072 1.532-.092 2.298-.015.725.061 1.483.131 2.205.071.725.136 1.487.4 2.169.219.567.476 1.343 1.006 1.69.605.394 1.386.592 2.08.758.717.17 1.468-.139 2.164-.311.704-.174 1.339-.488 1.851-.99 2.301-2.25 2.454-5.736 2.49-6.494.036-.722-.025-1.441-.017-2.161.004-.346.037-.632-.041-.971-.077-.339-.038-2.568-.054-3.347-.013-.731.016-2.824.029-3.189.024-.695-.124-5.834-.136-6.196-.011-.341 0-1.342.06-1.516.052-.147.04-.288.076-.435.08-.349 2.166-.255 2.883-.284.361-.014 3.733.251 4.473.338.345.041 1.727-.083 2.007.084.258.154.193.425.142.671-.073.346-.075.71-.119 1.061-.09.749-.037 1.516-.028 2.268.017 1.566.035 3.128-.005 4.693-.041 1.586.099 3.168.003 4.755-.097 1.568-.063 3.107-.036 4.675.025 1.518.038 3.033.119 4.545.02.376.059.751.079 1.129.02.407-.03.813-.014 1.217.017.386.451 3.917.438 4.286-.022.745-.165 1.768.084 2.491.091.267.265.638.118.913-.153.287-2.222.211-2.944.198zm-41.879-.246c-.145-.016-.097-.787-.07-1.266.125-2.168.1-4.345-.004-6.514-.081-1.716.151-7.589.129-8.866-.027-1.344-.193-2.678-.29-4.017-.055-.762-.218-1.521-.469-2.266-.416-1.242-2.441-2.36-4.187-2.272-5.414.274-5.515 4.613-5.466 5.426.141 2.35-.18 4.657-.157 6.996.005.552.036 3.868.046 4.974.02 2.209.134 4.975.156 7.184.004.342.003.702-.161 1.003-.09.167-3.527-.047-5.117.097-1.145.101-4.672.137-4.672-.395 0-9.634.832-21.932-.078-31.522-.035-.346.016-.747-.032-1.225-.053-.527.921-.329 1.291-.336 1.472-.025 2.844-.001 4.304-.19 1.086-.141 3.125-.075 3.157.095.037.199-.116.682-.048.862.447 1.159-.102 3.642.357 3.708.26.013.802-.652 1.181-1.003 3.235-2.997 7.938-4.329 12.266-3.472 1.415.282 2.829.805 3.884 1.792.898.837 1.485 1.956 1.913 3.106 1.76 4.719 1.045 9.941.897 14.975-.097 3.334.246 5.835.229 10-.003.738.172 3.413-.116 3.413-2.594 0-6.364-.003-8.943-.287zm-27.854-23.828c-1.59-.063-3.228.054-4.667.735-1.437.679-2.644 2.01-2.82 3.59-.074.66.025 4.073.062 5.156.16 4.579.293 7.481.293 12.594 0 .535.053 1.171.027 1.756-.01.209-2.861.206-3.781.186-1.665-.035-5.512.107-5.724-.158-.27-.339-.134-1.174-.123-1.591.111-4.36.098-8.72-.061-13.077-.057-1.545-.407-15.117-.482-15.923-.056-.59-.159-1.545-.053-1.918.079-.276 1.201-.099 1.568-.116 1.211-.057 6.502-.077 6.845.223.156.136.276.83.339 1.027.237.74.475 1.48.712 2.22.012.034.022.07.034.106 2.055-2.269 4.924-3.784 7.957-4.203.309-.042.936-.107 1.188.08.31.231.091.999.095 1.386.009 1.058-.01 1.837 0 2.894.006.698.241 4.81-.114 4.933-.411.144-.86.116-1.295.1zm-23.848 10.996c-.448-.053-.847.004-1.294.005-2.432.008-4.865.077-7.298.077-1.144-.024-2.291-.081-3.434-.073-1.104.008-2.256-.003-3.35.119-1.203.132-2.429-.107-3.641.015-.292.027-.351.12-.333.407.066 1.037.17 2.069.648 3.006.514 1.005 1.25 1.893 2.178 2.537 1.086.753 2.387.855 3.665.757 1.18-.091 2.463-.301 3.398-1.091 1.576-1.336 1.501-2.81 1.604-3.015.053-.105.634-.052.996-.03.397.025 3.013.177 3.939.106 1.054-.082 4.143.031 4.17.325.013.15-.081.559-.16.931-.113.524-.325.828-.481 1.33-.168.546-.467 1.082-.731 1.587-.33.632-.7 1.245-1.106 1.833-.356.514-.728 1.192-1.199 1.601-.967.845-2.02 1.583-3.352 2.116-1.039.415-1.828.56-2.738.848-1.353.427-2.86.64-4.264.669-1.446.029-2.828-.081-4.269-.217-1.642-.156-2.459-.637-3.553-1.223-.539-.29-1.099-.537-1.627-.848-1.63-.958-2.792-2.334-3.893-3.837-.79-1.08-1.464-2.203-1.901-3.475-.313-.911-.533-1.849-.723-2.79-.184-.906-.354-1.781-.338-2.709.038-.925.059-1.837.031-2.762-.023-.778-.037-1.562.08-2.333.116-.771 1.085-6.564 3.334-9.66.508-.702 1.184-1.557 1.81-2.155.65-.62 2.611-1.652 4.02-2.203.725-.283 2.126-.614 2.895-.731 1.536-.232 3.522-.186 4.666-.094 2.044.166 5.055 1.379 5.565 1.598.471.202 1.333.778 1.747 1.078.857.623 1.641 1.347 2.327 2.154.53.623 1 1.293 1.46 1.968.432.637.688 1.315 1.057 1.986.518.941.896 1.995 1.093 3.064.102.551.479 4.54.516 5.298.047 1.04.027 3.781-.054 3.781-.446 0-1.071.096-1.46.05zm-40.896-11.327c-.384-.014-1.359-.065-1.359-.012 0 .24-.066 1.276-.068 1.77-.004.541-.022 1.076-.055 1.615.117 1.168-.214 2.366-.15 3.534.032.571-.342 5.069.378 7.059.357.984 1.397 2.066 2.392 2.504.488.215 1.044.248 1.566.296.603.053 3.95.022 3.976.181.214 1.28-.006 3.096.171 4.376.082.596.16 1.171.169 1.775.008.584-.073 1.092-.073 1.118 0 .263-.869.398-1.118.426-.205.023-.46.015-.654.074-.503.149-6.098.137-6.686.03-.632-.115-5.253-1.076-7.304-3.725-.679-.879-1.305-2.088-1.597-3.176-.308-1.149-.714-4.57-.705-5.139.012-.652.011-3.122.086-3.717.078-.635.459-8.704.019-8.898-.233-.102-.571-.066-.82-.078-.317-.015-3.585-.078-3.799-.148 0 0-.026-8.177.144-8.28.283-.171 3.128-.019 3.449.01.391.035 1.226.033 1.226-.02 0-.589-.009-1.464.051-2.054.063-.631-.107-7.333.109-7.398.267-.079 2.454-.025 3.066-.004.555.019 2.932.069 3.576.057.601-.012 2.438.078 2.438.214 0 .346.14 2.06.131 2.643-.011.638-.169 6.458-.131 6.462.745.08 8.918.076 8.892.346-.053.533-.102 8.193-.213 8.307-.055.052-6.516-.129-7.107-.148zm-24.428 81.35c-.293-.078-.651.041-.902-.152-.227-.176-.352-.541-.482-.791-.166-.315-.32-.633-.468-.955-.128-.283-.288-.547-.397-.839-.127-.34-2.816-6.245-3.098-6.93-.137-.329-.273-.656-.415-.983-.123-.285-.262-.761-.528-.951-.424-.308-.75.908-.884 1.178-.322.662-2.146 5.075-2.405 5.712-.119.289-1.712 4.975-2.187 4.826-.322-.102-2.164-.039-2.559.013-.706.091-5.034.06-5.433.03-.314-.024-1.687.239-2.206-.043-.248-.135.515-1.147.626-1.569.082-.309 5.237-10.807 5.398-11.083.342-.585 1.484-3.089 1.783-3.708.134-.279.294-.523.224-.838-.068-.306-.275-.623-.415-.903-.335-.674-.683-1.342-1.019-2.016-.303-.611-.565-1.243-.93-1.822-.783-1.241-1.578-2.456-2.242-3.766-.648-1.275-3.686-6.842-3.519-7.095.312-.472 8.544-.198 8.868-.178.49.03 1.298-.122 1.472.215.399.767.922 1.603.999 1.859.096.331 1.147 2.306 1.5 2.994.684 1.334 1.522 3.065 2.222 4.392.088.164.241.642.474.663.268.024 3.962-6.713 4.266-7.277.285-.53.452-1.123.776-1.623.161-.248.326-.582.538-.791.248-.246.569-.066.873-.111.27-.04 5.435-.04 5.794-.021.348.02 2.153-.229 2.771.185.644.431.022.853-.193 1.328-.261.579-5.541 11.136-5.701 11.385-.358.559-.634 1.178-.988 1.742-.148.235-.476.571-.525.851-.045.271.271.64.383.879.612 1.288 1.174 2.602 1.783 3.893.639 1.359 1.251 2.728 1.926 4.072.298.592.529 1.196.886 1.759.372.586.745 1.174 1.078 1.785.332.614.674 1.207 1.084 1.774.38.527 1.124 2.286 1.255 2.553-.059.51-1.936.317-2.303.324-.751.013-6.864.116-7.18.033zm-29.096-2.765c-.264.283-2.454 1.627-4.012 2.1-1.986.601-7.245.781-8.194.717-.853-.058-1.77-.175-2.593-.401-.798-.22-1.604-.546-2.369-.869-.79-.335-1.474-.782-2.136-1.322-.333-.272-3.05-2.815-3.516-3.535-.453-.7-.714-1.406-1.029-2.171-.152-.369-1.266-5.004-1.317-5.877-.108-1.852-.185-2.805-.169-4.66.008-.878-.035-1.811.098-2.68.065-.415.542-2.038.666-2.454.258-.859.667-1.628 1.097-2.409.202-.369 2.283-4.431 5.895-6.026 3.416-1.509 7.98-1.533 8.922-1.555 1.817-.045 3.538.461 5.175 1.23.774.362 1.558.726 2.199 1.302.613.552 1.217 1.12 1.813 1.691.577.553 2.532 3.091 2.666 3.505.133.4.678 1.858.706 2.28.026.386.522 1.931.534 2.387.01.41.76 7.814-.185 11.503-.673 2.635-2.549 5.423-4.251 7.244zm-15.931-87.513c.214.314-.044 2.467.002 2.832.064.479.008 2.791-.02 3.492-.122 3.116.052 6.23.002 9.345-.013.784.1 5.293.157 5.664.063.395.769 2.987 3.149 3.913 1.411.551 3.851-.218 4.198-.348.637-.24 1.179-.648 1.67-1.114.472-.445 1.087-1 1.369-1.593.282-.59.127-12.18.174-15.246.01-.786.025-1.571.01-2.357-.01-.712.016-1.425-.137-2.124-.078-.35-.185-1.677.009-1.929.178-.234 5.423-.357 6.106-.267.365.048 3.398-.106 3.408.16.053 1.332-.175 8.782-.19 9.534-.005.379.079 4.112.032 4.112.005.352.006.481.005.495.017 1.415.029 2.832.067 4.245.02.711-.088 1.462-.013 2.164.074.708-.037 5.906.061 6.652.095.752.428 5.361-.139 5.67-.623.341-1.303.379-1.996.32-.706-.06-3.502-.193-3.897-.179-.563.023-1.57.434-1.971-.158-.165-.247-.16-3.355-.315-4.317-.037-.217.025-.575-.282-.538-.254.033-.551.469-.694.657-.409.539-2.335 2.406-2.981 2.661-.294.116-1.704 1.15-2.404 1.253-.319.047-3.702.96-5.96.693-.382-.044-4.537-.687-6.547-3.425-1.858-2.533-1.916-4.614-1.916-5.584.001-.714-.041-7.968-.046-8.744-.005-.67-.156-5.015-.18-6.519-.024-1.581-.071-3.166-.028-4.747.02-.763-.105-4.298-.105-4.458 0-.075 1.651-.124 2.183-.105.761.025 7.048-.362 7.219-.11zm25.476 3.927c-.003-.659-.045-1.316.007-1.975.043-.524-.007-1.799.134-1.799.1 0 1.115.003 1.668-.01.568-.014 1.038-.081 1.605.005.595.091 1.413-.029 1.413-.101 0-.305.016-1.943.021-2.201.013-.661.02-1.323.033-1.983.01-.594-.114-5.054.106-5.054.692 0 6.534.055 7.153 0 .093-.07 1.649-.214 1.704.142.087.563.185 1.325.142 1.881-.02.245.116 1.282.129 1.573.011.251-.075 5.296.057 5.27.108-.021 8.834.301 8.834.419 0 .054-.074 8.446-.146 8.464-.288.071-1.096.092-1.394.062-.269-.027-1.867-.146-2.405-.122-1.231.054-4.81-.038-4.782-.011.018.019.02.791.026.959.027.692-.272 6.459-.22 7.068.023.283.049 4.328.452 5.513.334.984.617 2.032 1.439 2.743.337.292.742.493 1.174.6.247.062 4.489-.066 4.824.013.234.057.26.545.228.941-.049.624.056 4.702.172 5.294.056.292.078 1.712-.011 1.896-.215.441-2.444.333-3.016.319-.665-.018-2.984.075-3.535.007-.608-.074-1.521-.167-2.124-.28-.256-.046-4.423-.072-7.441-4.804-1.301-2.039-1.584-5.384-1.649-6.501-.017-.282.32-5.716.262-7-.061-1.305.083-5.105.025-5.712-.021-.226.102-.976.102-.923 0 .027-4.526-.027-4.952-.053-.059-.004-.106-1.545-.09-1.866.016-.325.057-2.17.055-2.774zm-39.846 78.709c-.285.585-1.193 2.681-1.552 3.149-2.629 3.423-7.159 3.852-7.795 3.957-.607.101-1.216.109-1.825.237-.65.137-1.279.152-1.942.19-1.343.076-11.253.288-11.596.3-1.347.045-2.697.14-4.044.152-.632.005-1.543.061-2.372.029-.49-.017-.39-1.662-.418-2.216-.033-.643-.071-4.602-.103-5.942-.015-.662.006-5.17.033-5.794.031-.724.039-1.445.008-2.168-.112-2.661-.009-11.424-.018-11.6-.031-.622.116-1.246.113-1.869-.001-.709-.056-1.383-.011-2.092.087-1.367-.014-2.743.017-4.112.014-.618-.188-2.324-.118-2.564.093-.309-.217-9.279.122-9.484.19-.116 18.693-.266 19.339-.273.669-.007 1.342.141 1.995.277.611.128 1.225.252 1.833.391.275.062.543.144.802.254.299.127 1.349.526 1.589.651.245.13 1.554 1.307 2.039 1.672.445.336.625.856.94 1.298.324.455.692.868.969 1.358.584 1.036.769 2.249 1.181 3.358.096.257.118.487.156.761.044.317.361 2.213.368 2.838.006.627-.177 2.985-.384 3.592-.182.534-1.287 2.844-1.404 3.132-.434 1.057-1.345 2.03-2.31 2.624-.168.105-.519.263-.533.497-.013.215.295.431.431.574.472.495.958.976 1.441 1.461.886.893 1.564 1.814 2.078 2.968.253.566 1.912 2.627 1.884 7.796-.003.684-.282 2.168-.401 2.843-.106.6-.243 1.202-.512 1.755zm-32.014-56.164c-.015-.674-.02-1.349-.024-2.023-.013-2.607.009-5.205.098-7.81.02-.606-.085-1.182.016-1.786.088-.531-.005-1.098.029-1.64.037-.615.108-1.225.14-1.838.037-.705-.05-1.401-.04-2.103.025-1.325-.038-2.649-.049-3.973-.005-.644.069-1.314-.001-1.953-.078-.71-.143-1.401-.147-2.117-.007-1.269.048-2.539.035-3.806-.005-.592-.083-1.202.008-1.786.096-.625.03-1.251-.004-1.878-.017-.303-.035-.599.005-.9.036-.272-.009-.494-.007-.765.003-.286.11-.557.123-.842.016-.357-.062-.71-.092-1.064-.05-.598-.016-1.204-.04-1.8048-.028-.6951-.099-2.0641-.128-2.7578-.026-.6013.617-.3013 1.225-.3727.611-.0713.774-.0489 1.385-.0489.666 0 1.333.0291 1.991.1282.689.1018 8.923.0661 9.649.0793 1.335.0251 2.674.037 4.007.0991.638.0278 1.269.1454 1.904.2101.613.0635 5.717 1.2897 7.954 4.6975 1.198 1.828 2.448 4.366 2.685 6.424.074.626-.361 5.858-.472 6.142-.125.317-.177.646-.28.971-.16.507-.398.986-.629 1.463-.244.505-1.564 2.144-1.942 2.544-.171.179-.361.339-.57.473-.186.117-.519.183-.431.469.058.187.364.382.501.502.234.206.48.399.715.602.53.458 1.012.96 1.5 1.461.445.459 1.835 2.454 2.034 2.898.455 1.025 1.158 3.446 1.028 5.322-.049.707-.061 1.418-.147 2.124-.04.316-.114.629-.138.946-.022.301-.233 1.685-.819 3.495-.205.63-1.149 2.566-2.216 3.631-.361.361-.906.694-1.294 1.01-.465.378-2.903 1.522-3.22 1.653-.518.213-1.093.373-1.625.55-.612.203-1.257.268-1.896.339-1.24.139-2.509.296-3.756.249-.633-.024-17.003.484-17.072-.073-.06-.498-.075-1.225-.039-1.667.105-1.289.061-4.933.046-5.474zm297.456 12.19c.082 2.497.088 4.989-.103 7.482-.431 5.568.454 49.611-.061 54.381-.079.73-.102 1.464-.176 2.194-.119 1.168.147 2.845-.03 4.006-.059.537-.131 1.005-.215 1.403h-313.9799c-.0306-.193-.0531-.337-.0676-.433-.817-5.374-.5263-62.292.3336-67.937-.2102-3.713 1.1126-8.367.555-12.052-.2194-1.449-.3317-2.917-.4004-4.381-.1176-2.493-.1758-4.988-.23-7.481-.0132-.632.1269-1.267.1229-1.9-.0119-2.494-.0634-4.986-.0819-7.48-.0106-1.515.0462-3.031.0159-4.547-.0476-2.347-.2168-4.693-.2009-7.04.0185-2.884.1824-5.766.2669-8.6477.0278-.929.0331-1.858 0-2.7869-.0845-2.4447-.1308-4.8854.3106-7.3102.0977-.5431.0343-1.0598-.1124-1.5923-.1281-.4638-.2735-.9924-.1506-1.4298.2207-.7942.0938-1.5421.0225-2.3218-.0344-.3788.022-1.0754.1691-2.0899h312.6192c.532 4.9559.644 8.9504.336 11.9835-.051 3.0314.877 4.6316.937 7.6603.058 2.7938-.078 5.5778-.244 8.3578-.404 6.798-.215 13.598-.231 20.398-.005 2.15.23 4.3.29 6.451.067 2.445.048 4.892.096 7.338.05 2.593.124 5.184.209 7.775zm-151.733-31.275c-.726-.46-1.602-.625-2.461-.658-.985-.038-1.991.091-2.895.489-.962.424-1.711 1.148-2.201 2.073-.562 1.057-.693 2.481-.684 3.646 0 .111.012.59.053.693.053.132.461.022.693.026 2.422.04 7.233-.026 7.18-.036.073.003 1.572.052 2.249.069.211.005.462-.009.574-.188.067-.105.062-.241.054-.367-.073-1.004-.279-1.999-.61-2.951-.382-1.094-.974-2.175-1.952-2.796zm-88.884 59.418c-.661-.802-2.22-1.936-3.683-1.982-5.382-.175-6.266 4.223-6.442 4.967-.09.375-.489 1.842-.536 2.224-.049.379.021.77-.023 1.155-.053.462-.096.905-.039 1.37.113.948.375 1.89.577 2.82.098.452.822 2.306.949 2.455.636.743 1.161 1.442 1.987 1.988.361.238.732.557 1.154.672.435.118 2.301.093 2.435.081.402-.032.8-.313 1.172-.473.637-.272 3.411-1.955 3.535-5.125.016-.405.107-1.061.142-1.464.035-.415-.007-5.168-.142-6.044-.131-.855-.539-1.98-1.086-2.644zm-46.33-61.744c.813.049 1.627.096 2.439.143-.98-.058.337-.022 0 0 1.371-.09 2.745-.083 4.118-.173.67-.044 1.234-.305 1.817-.622 2.125-1.158 2.501-4.251 2.452-4.972-.045-.651-.54-4.227-2.206-5-.291-.135-.972-.522-1.284-.543-.347-.024-.696-.048-1.045-.067-1.349-.08-2.333.084-3.673-.107-.721-.104-1.472.101-2.198.121-.235.007-.646-.063-.85.077-.247.17-.171.563-.174.818-.012.683.049 1.362.041 2.045-.009.695-.061 1.389-.09 2.084-.069 1.59-.054 3.188-.172 4.775-.024.323-.142.847-.02 1.157.123.311.575.249.845.264zm-.975 19.079c-.025.317-.201.882.185.87.53-.016 1.039.066 1.423.099.473.042 8.76 1.316 10.516-1.904.16-.292.978-2.153 1.011-2.997.133-3.402-2.239-6.004-2.55-6.178-.306-.169-1.155-.341-1.491-.431-.338-.09-.773-.087-1.125-.092-.404-.007-.808-.011-1.213-.016-.827-.009-4.101-.061-4.91-.106-.379-.021-1.23-.009-1.562.033-.133.016-.005.745-.018 1.01-.024.417-.039.835-.053 1.252-.031.825-.088 1.647-.115 2.47-.027.814-.097 1.62-.143 2.433-.042.769-.003 1.538-.025 2.306-.012.423.103.836.07 1.251zm.607 37.473c.289.32 1.645.035 2.03 0 1.405-.128 2.846-.094 4.251-.236 1.443-.147 2.758-.16 3.824-1.228.4-.4.911-1.508.967-2.093.062-.65.059-1.316.089-1.968-.038.822-.019-.35 0 0-.067-1.287.111-3.06-1.623-4.391-1.023-.786-7.129-.353-7.839-.26-.329.042-.656.082-.985.118-.221.022-.654-.007-.797.215-.118.184-.105.617-.14.838-.06.374-.023.721-.025 1.094-.004.674.062 1.345.066 2.02.002.678.103 1.347.127 2.023.023.647-.09 1.293.054 1.926.07.304-.18 1.741.001 1.942zm10.266 9.33c-1.136-1.002-2.568-.953-3.992-1.01-.823-.034-1.634-.115-2.459-.095-.823.02-1.642.093-2.464.128-.419.017-.964-.1-1.151.365-.225.558-.151 1.307-.177 1.897-.073 1.606-.04 6.705-.021 7.11.033.773-.133 1.69.093 2.438.203.674 1.624.343 2.156.314.864-.05 1.733-.055 2.599-.075.063-.003.78-.022.158-.003.828-.026 1.644-.035 2.473-.063 2.34-.078 3.252-.895 3.758-1.399.613-.615.716-1.032.892-1.64.102-.352.477-2.055.477-2.423 0-1.416-.55-3.356-.817-3.989-.268-.637-1.02-1.111-1.525-1.555z" fill="#06182e" fill-rule="evenodd"/></svg>