<svg fill="none" height="300" viewBox="0 0 500 300" width="500" xmlns="http://www.w3.org/2000/svg"><g clip-rule="evenodd" fill="#212121" fill-rule="evenodd"><path d="m428.234 190.481c-.098-.567-.313-1.108-.633-1.59-.319-.481-.735-.892-1.223-1.208-.487-.316-1.035-.529-1.61-.626s-1.163-.076-1.73.061c-2.542.825-5.251 1.019-7.888.565-3.312-.424-6.815-.729-10.247-1.082-5.696-.612-11.439-1.129-17.206-1.552-6.268-.471-12.583-.8-18.874-1.223-5.911-.4-11.916-.917-17.731-1.2-12.519-.611-25.038-1.074-37.558-1.387-10.438-.353-46.733-.753-57.195-.612-7.316 0-14.632.329-21.948.424-9.699 0-45.279.799-54.812 1.364-10.342.541-20.709.917-30.98 1.599-9.533.635-19.065 1.058-28.598 1.74-2.167.05-4.326.27-6.458.659-5.6 0-10.581.517-15.5855.776-3.956.212-8.0311.306-11.9156.894v.329c0 .094 0-.235 0-.329-1.6444 0-2.3831-.941-4.9331-.612-2.5499.329-4.9568 1.082-5.0522 2.517-1.3107.282 0 .964-1.4775 1.223v1.128c1.0247.471 1.3345.965 0 1.576v.447c.8103-.329.9294 0 1.3584.165v.917c-.9533.447-.3813.87-.2145 1.27s1.1916 1.035 1.0009 1.67c-.0761.539-.006 1.089.2034 1.593.2093.504.5503.944.9882 1.276v.541c.2621 1.646 2.5022 3.01 2.812 4.704.2384 1.293 2.3832 2.351 5.505 2.093 2.6691-.165 3.5985-1.247 5.9817-1.647.4528 0 1.9303-.211 2.3831-.235 10.1047-.658 20.1847-1.387 30.2177-2.352 2.955-.282 6.172-.211 8.865-.705 3.575-.682 7.34-.682 10.963-1.176 6.839-.819 13.724-1.212 20.614-1.176 5.743 0 11.391-.611 17.087-.847 3.193-.141 6.339.141 9.532-.188 1.255-.249 2.533-.375 3.813-.376 3.408.212 32.625-.282 36.057-.259 6.649 0 13.321-.329 19.97-.4 7.888-.141 41.466-.399 49.378 0 2.693 0 5.505.494 8.031.353 7.436-.4 14.776.235 22.163.4 6.459.141 12.869.729 19.351.917s12.464.541 18.612 1.2c2.503.258 4.981.588 7.507.823 2.002.188 3.36-.494 5.267-.259 4.766.635 9.818 1.082 14.823 1.435 2.593.067 5.179.287 7.745.658 3.726.768 7.5 1.287 11.296 1.552l2.383.847c2.04.995 4.373 1.237 6.578.682.605-.397 1.071-.971 1.331-1.641.261-.67.303-1.403.122-2.098v-.424c.239-.352.453-.729.215-1.129.619-.235.691-.517.5-.87.596-1.34 1.692-2.61 1.049-4.092-.262-.588-.93-1.458 1.001-1.858v-1.129c-.93-.117-1.025-.447-1.216-.752.119-1.012.382-2.258.382-3.364zm-175.398 2.964c-.15-.02-.302-.02-.453 0 .151-.02.303-.02.453 0z"/><path d="m416.866 142.48c0 6.209 2.383 9.408 7.149 9.408h5.315v12.182h-5.41c-13.035 0-20.185-7.714-20.185-21.707v-16.181h-18.016v37.888h-12.941v-37.865h-7.363l-.143-10.512h7.506v-1.576c0-13.994 7.174-21.7078 20.185-21.7078h5.41v12.2768h-5.41c-4.766 0-7.149 3.081-7.149 9.407v1.576h18.112v-9.172l12.94-8.0906v17.2626h9.533v10.513h-9.533zm-174.278-27.254c2.688 1.118 5.096 2.802 7.055 4.935v-5.221h12.94v48.965h-12.94v-5.174c-1.959 2.133-4.367 3.818-7.055 4.935s-5.592 1.64-8.507 1.533c-13.345 0-23.831-11.312-23.831-25.753 0-14.44 10.462-25.753 23.831-25.753 2.915-.107 5.819.416 8.507 1.533zm-6.553 38.825c8.008 0 13.608-5.997 13.608-14.605 0-8.466-5.791-14.605-13.608-14.605-7.816 0-13.488 6.139-13.488 14.605 0 8.467 5.481 14.605 13.488 14.605zm43.873-34.407v-4.704h-12.273v48.965h12.845v-22.013c0-10.489 1.931-16.181 12.059-16.181h3.336v-12.276h-.333c-4.147 0-11.606.823-15.634 6.209zm19.804-26.8586h12.893v71.1196h-12.893zm-193.199 12.8886c3.762.023 7.45 1.033 10.687 2.926s5.906 4.6 7.734 7.845l.167.306.286-.188 11.534-7.22.286-.189-.19-.282c-3.324-4.977-7.855-9.0558-13.183-11.8652-5.327-2.8094-11.281-4.2605-17.321-4.2213-4.839-.072-9.6438.8092-14.1333 2.5921-4.4895 1.7828-8.5736 4.4315-12.0133 7.7914-3.4397 3.359-6.1658 7.362-8.0188 11.774-1.8531 4.412-2.7958 9.144-2.7731 13.92-.032 4.787.903 9.533 2.7504 13.959 1.8474 4.427 4.5701 8.445 8.0091 11.822 3.4389 3.376 7.5252 6.042 12.0201 7.842 4.4948 1.801 9.3079 2.699 14.1589 2.642 5.968.068 11.859-1.328 17.146-4.062 5.286-2.734 9.802-6.72 13.143-11.601l.191-.282-12.035-7.832-.19.282c-1.849 3.198-4.518 5.86-7.739 7.718s-6.881 2.846-10.611 2.866c-12.4404 0-22.1873-10.278-22.1873-23.378.0953-11.265 8.3647-23.165 22.2823-23.165zm34.817-12.8886h12.893v71.1196h-12.893zm200.039 20.6726c-14.68 0-24.951 10.678-24.951 25.871s10.533 25.87 25.594 25.87c7.449.3 14.74-2.177 20.424-6.938l.691-.588-6.387-8.796-.834.659c-3.786 2.955-8.448 4.607-13.274 4.703-3.057.187-6.077-.739-8.489-2.603-2.411-1.864-4.046-4.536-4.594-7.51h35.294v-.893c0-.609.051-1.241.103-1.886v-.001c.055-.676.111-1.367.111-2.064.024-15.17-9.747-25.824-23.688-25.824zm-.191 11.172c5.767 0 9.676 3.457 11.01 9.713h-22.544c1.358-6.256 5.457-9.713 11.534-9.713zm-183.047 14.699c0-15.193 10.272-25.871 24.952-25.871 13.988 0 23.688 10.654 23.735 25.824 0 .697-.056 1.388-.11 2.064-.053.646-.104 1.278-.104 1.887v.893h-35.294c.548 2.974 2.183 5.646 4.594 7.51 2.412 1.864 5.432 2.79 8.489 2.603 4.827-.096 9.488-1.748 13.274-4.703l.834-.659 6.411 8.984-.691.588c-5.731 4.71-13.047 7.12-20.495 6.75-15.061 0-25.595-10.677-25.595-25.87zm24.642-14.699c-5.958 0-10.057 3.457-11.439 9.736l22.449-.023c-1.335-6.256-5.052-9.713-11.01-9.713z"/></g></svg>