<svg fill="none" height="300" viewBox="0 0 500 300" width="500" xmlns="http://www.w3.org/2000/svg" xmlns:xlink="http://www.w3.org/1999/xlink"><clipPath id="a"><path d="m50 81h401v138h-401z"/></clipPath><g clip-path="url(#a)"><path d="m416.922 195.692 6.356-17.689 6.341 17.689zm13.963-30.136h-14.938l-20.115 52.483h13.09l3.971-11.021h20.799l3.97 11.021h13.338zm-67.314 11.021c2.51-.069 4.991.537 7.187 1.756 2.195 1.219 4.023 3.006 5.293 5.174l10.966-6.29c-4.45-7.949-13.293-12.637-23.271-12.637-16.174 0-27.635 11.327-27.635 27.21 0 15.884 11.417 27.21 27.635 27.21 10.05 0 18.021-4.455 22.821-11.647l-10.269-7.279c-1.344 2.138-3.212 3.894-5.428 5.103-2.215 1.208-4.703 1.827-7.226 1.798-7.752 0-14.458-5.474-14.458-15.228 0-8.983 6.138-15.214 14.414-15.214m-54.877 41.506h12.494v-52.41h-12.494zm-45.293-30.18v-10.948h10.182c4.363 0 7.272 1.733 7.272 5.431s-2.763 5.517-7.272 5.517zm30.152-5.517c0-10.337-6.895-16.786-19.854-16.786h-22.806v52.483h12.508v-19.639h1.833l13.818 19.639h14.908l-15.054-20.018c9.396-1.456 14.647-7.279 14.647-15.679zm-86.905 14.82h25.875v-11.253h-25.875v-9.07h27.489v-11.283h-39.998v52.483h40.144v-11.283h-27.635zm-59.692 1.762-11.942-33.368h-17.715v52.483h12.508v-35.799l10.487 30.849h13.294l10.487-30.966v35.916h12.436v-52.41h-17.687zm-75.9096-3.232 6.3706-17.689 6.3706 17.689zm-.96-30.136-20.1154 52.483h13.0903l3.9707-11.021h20.7555l3.9707 11.021h13.3228l-20.1007-52.41zm331.3306-55.322c1.761-2.238 4.092-3.958 6.749-4.979l2.007 5.707h.145c1.913.083 3.787-.557 5.251-1.791.658-.563 1.182-1.265 1.534-2.056s.524-1.65.502-2.516c.033-.741-.088-1.48-.356-2.172-.269-.691-.678-1.319-1.202-1.844-.524-.524-1.151-.9339-1.842-1.2024-.691-.2686-1.43-.3901-2.17-.3571-2.23.1724-4.339 1.0845-5.993 2.5915-2.607 2.159-4.894 4.679-6.792 7.483l2.08-10.0745h-2.604l-12.901 2.9995v2.649l6.21.903-5.992 30.427h9.221l2.909-17.47c.392-3.025 1.505-5.911 3.244-8.415m-43.504-1.761c1.998-3.679 4.422-5.523 7.273-5.533.978-.047 1.951.176 2.811.646.859.47 1.573 1.169 2.061 2.019 1.246 2.481 1.808 5.25 1.629 8.021.169 4.75-.872 9.464-3.025 13.7-2.036 3.659-4.499 5.488-7.389 5.488-.958.033-1.907-.198-2.743-.667-.836-.47-1.527-1.161-1.998-1.997-1.234-2.407-1.797-5.103-1.629-7.803-.173-4.801.851-9.569 2.981-13.874m-10.908 4.047c-1.148 2.764-1.741 5.727-1.746 8.72-.103 2.069.207 4.137.911 6.084s1.789 3.734 3.191 5.257c1.461 1.433 3.202 2.547 5.115 3.271s3.955 1.043 5.997.937c2.701.014 5.377-.516 7.869-1.558 2.438-1.004 4.649-2.489 6.501-4.368 2.093-2.168 3.744-4.725 4.858-7.526 1.132-2.808 1.71-5.809 1.702-8.837.101-2.059-.214-4.116-.926-6.05s-1.807-3.704-3.219-5.204c-1.468-1.419-3.213-2.521-5.124-3.2373-1.912-.7162-3.95-1.0316-5.988-.9264-2.678-.0052-5.33.5296-7.796 1.5727-2.467 1.034-4.695 2.565-6.546 4.498-2.068 2.135-3.694 4.658-4.785 7.425m-.669-11.516h-10.181c.575-3.4967 1.407-6.9466 2.487-10.3217.645-2.2017 1.674-4.2718 3.04-6.1146l6.283 6.595c1.323-.2423 2.541-.8821 3.491-1.8344.414-.4062.743-.8909.968-1.4258.225-.535.341-1.1094.341-1.6897.001-.7384-.186-1.4649-.542-2.1116s-.87-1.1924-1.494-1.5862c-1.526-1.0282-3.341-1.5385-5.178-1.4559-2.146.0414-4.258.5393-6.196 1.4605-1.939.9212-3.659 2.2446-5.047 3.8825-3.485 3.8393-5.753 8.6274-6.516 13.7579l-5.818 2.562-.073 3.305 5.018-.626-3.229 22.944c-.552 4.262-1.339 8.491-2.356 12.666-.478 2.112-1.325 4.123-2.502 5.94l-8.014-4.295c-.916.37-1.693 1.016-2.226 1.849-.53.877-.798 1.887-.77 2.912-.014.63.109 1.255.36 1.833.252.578.625 1.095 1.094 1.515 1.019.893 2.341 1.361 3.694 1.31 2.718-.107 5.331-1.075 7.462-2.766 2.773-2.072 5.119-4.663 6.909-7.628 1.411-2.261 2.539-4.686 3.36-7.221.969-3.095 1.679-6.265 2.123-9.478l2.734-19.581h10.865zm-55.081 23.731h-27.635v-9.609h25.875v-11.254h-25.89v-9.0697h27.49v-11.2828h-39.998v52.4835h40.158zm-82.542-.306h-9.657v-29.3209h9.657c9.745 0 14.414 6.0709 14.414 14.6459s-4.669 14.66-14.414 14.66m.262-40.8945h-22.428v52.4835h22.428c16.407 0 27.228-10.424 27.228-26.205 0-15.7818-10.821-26.2057-27.228-26.2057m-66.455 10.948c8.538 0 14.545 6.2307 14.545 15.2137s-6.065 15.228-14.545 15.228-14.545-6.231-14.545-15.228 6.065-15.2137 14.545-15.2137zm0 42.4377c16.174 0 27.635-11.545 27.635-27.224 0-15.6796-11.461-27.239-27.635-27.239s-27.635 11.5449-27.635 27.21c0 15.665 11.447 27.224 27.635 27.224m-62.8044 0c10.0359 0 18.021-4.469 22.8064-11.647l-10.1816-7.279c-1.3447 2.14-3.2158 3.898-5.434 5.106-2.2182 1.209-4.7092 1.827-7.2345 1.795-7.7524 0-14.443-5.474-14.443-15.228 0-8.983 6.1379-15.214 14.4139-15.214 2.4979-.0517 4.9642.5663 7.1432 1.7899 2.1789 1.2236 3.9912 3.0083 5.249 5.1691l10.981-6.2601c-4.4649-7.949-13.2936-12.6659-23.3004-12.6659-16.1739 0-27.6351 11.3265-27.6351 27.21 0 15.883 11.4176 27.224 27.6351 27.224z" fill="#06182e"/></g></svg>