<svg fill="none" height="300" viewBox="0 0 500 300" width="500" xmlns="http://www.w3.org/2000/svg" xmlns:xlink="http://www.w3.org/1999/xlink"><clipPath id="a"><path d="m71 105h358v90h-358z"/></clipPath><g clip-path="url(#a)" fill="#000"><path d="m71 193.189v-2.435c5.7196 0 9.9298-.606 9.9298-9.126v-44.407c0-8.813-3.3099-8.813-9.9298-8.813v-2.758h33.69v2.758c-6.9196 0-9.6293 0-9.6293 8.813v44.389c0 8.51 3.6372 9.126 9.6293 9.126v2.453zm116.393-51.079v51.686h-3.91l-51.44-53.515c.249 1.404.35 2.83.3 4.255v32.534c0 10.036 0 13.684 9.029 13.684v2.435h-24.042v-2.435c9.03 0 9.03-4.595 9.03-13.684v-37.11c0-5.781 0-11.552-9.33-11.552v-2.758h22.56l42.12 43.783c-.279-1.204-.38-2.443-.3-3.676v-23.665c0-9.733.3-13.684-8.721-13.684v-2.758h24.07v2.758c-9.029 0-9.329 3.676-9.329 13.684zm83.03 28.279v17.286c-9.593 4.89-18.604 7.353-27.643 7.353-24.97 0-40.01-14.898-40.01-33.747 0-20.375 17.15-37.092 39.101-37.092 5.456 0 9.629 1.213 13.84 2.436 3.009.919 4.81 2.132 6.919 2.132 1.501 0 2.11-2.757 2.41-4.595h2.41l2.11 23.407h-3.01c-1.201-4.595-3.31-8.51-6.02-10.945-4.547-4.862-10.83-7.297-18.05-7.297-15.04 0-23.77 12.158-23.77 30.401 0 17.939 10.83 29.795 24.97 29.795 4.481-.055 8.896-1.093 12.94-3.042v-17.636c0-5.781-.909-7.904-9.03-7.904v-2.757h30.081v2.757c-7.52 0-7.22 2.435-7.22 9.429z"/><path d="m328.52 137.533c-.3-.919-1.501 0-2.728-.606-.037.283-.001.572.104.837.105.266.276.499.496.679.655-.409 1.365-.719 2.11-.919zm2.109-12.774c0-.607-.6-.919-1.2-1.516h-5.72c-.035.361.07.722.294 1.005.225.284.55.467.907.511 0 .919.909 1.213 1.2 1.516.223.149.484.228.75.228.267 0 .528-.079.75-.228.91.304.91-.606 1.201 0 .065 1.024-.036 2.052-.3 3.042 0 1.838-1.501 1.517-2.728 2.436 0 .606-.91 1.838 0 2.435l2.409-1.213c0-.607.601-1.213 1.501-1.838 0-2.132.909-4.255.909-6.387zm10.83 13.988v-1.214h-2.409l-.3.304zm-14.167-22.195c-.3-2.435-3.01-2.757-4.21-3.676h-.909c-1.819.607-2.41 2.757-2.41 4.255.6 2.132 1.819.919 2.728 2.132 1.2-.606 3.637-2.435 4.81-2.757zm5.111 2.436c-.3-.304-1.819.303-2.728.606-.418.093-.793.324-1.065.657s-.425.749-.436 1.181h2.728c0-.919 1.201-1.838 1.501-2.435zm12.03 5.164s.3 0 0-.303l-5.11-.606c-.601.606-1.819.606-1.819 1.516h-.6c.512 1.984.714 4.037.6 6.084.495.098.944.362 1.274.748.33.387.521.874.545 1.384 1.032.444 2.037.95 3.009 1.516.369-.462.675-.972.91-1.516-.91-1.213-3.01-.607-3.01-2.757l-1.501-.607c.066-1.233-.035-2.47-.3-3.676l.3-.303c0 .303.301.607.601.919 1.2 0 2.109.303 3.009-.303.301-.303.301-1.517.91-1.517.237.032.478-.009.692-.118.214-.108.391-.278.508-.488zm-3.91-2.757c0-.919 0-.919-.3-.919-1.201 0-1.201-1.838-2.11-1.516-.6 0-1.2-.303-1.819 0 0 .303 0 .303.601.303 1.2 0 .6 1.838 1.5 2.132zm8.12-1.516c.409-1.552.193-3.204-.6-4.595-.3-.919-1.5-1.517-2.728-2.436l-1.819.919c-.425.31-.76.729-.972 1.214-.211.484-.289 1.018-.228 1.544 1.718.818 3.1 2.215 3.91 3.951h.6c.91-.606 1.201 0 1.819-.606zm-49.34 67.199c-.3 0-.909-.919-1.5-.919-.909 1.516 0 2.435 0 4.255-.037.516-.138 1.026-.3 1.516-.6 0-1.501-1.213-1.501-2.132v-3.961l1.819-2.435c1.5.919 2.11 2.435 1.5 3.676zm6.32-2.757c-.021.991-.338 1.952-.909 2.757-.3-1.213-.91-2.435-2.11-2.435-.909 2.132-1.2 2.757 0 5.78-.759.573-1.565 1.081-2.41 1.517-.239-1.21-.34-2.444-.3-3.676.013-1.639.215-3.271.6-4.862.91-.919 1.201-2.132 2.11-2.436h2.41c-1.2 0-1.2.919-1.2 1.517.6.303 1.818.606 1.818 1.838zm8.42 1.516c0 1.838-3.31 4.595-3.31 4.595 0-1.213.91-2.757.91-4.255-.616-.48-1.342-.796-2.11-.919-.48.506-.797 1.147-.909 1.838-.6 1.517-2.11 2.757-2.41 4.255-.04.002-.079-.005-.116-.02s-.071-.037-.099-.066c-.028-.028-.05-.062-.065-.099-.014-.038-.021-.078-.02-.118 0-2.435.3-6.387 1.819-8.207 1.2-1.516 2.109-1.516 3.637-1.516h1.2l-.909 1.516c.909.607 2.41 1.517 2.41 3.042zm6.32-2.435-.6 2.435-1.5-4.595c-1.819-1.516-4.211-1.838-5.456-2.757-.91-.303-.91.303-1.201 0-.05-.759.162-1.513.601-2.132h1.5l1.5.919c.6.607 2.41.607 2.41 2.132 0 .303-.3.303.3 1.517l2.41.303zm3.637-3.676-1.5 1.516c-.6-.303 0-1.516-.909-2.435 0-.304.6-.607.3-.919-.972-.567-1.977-1.073-3.01-1.517-1.075-.717-2.082-1.532-3.01-2.435-1.023.083-2.033.287-3.01.606v-.606c.6-.919.6-2.132 2.11-2.132.374-.044.752-.013 1.114.091s.701.279.996.515c.909 0 1.5 1.213 2.109 1.517.95.655 1.861 1.367 2.728 2.132.012.562.225 1.101.6 1.516 1.501 0 1.201 1.213 1.501 2.132zm1.201-7.297c0 .606-.3 3.676-.3 3.676-.3-1.838-1.501-3.676-3.01-3.676-.6-.607-1.501-1.213-1.501-2.132-.6-.607-1.5 0-2.409-.607-1.04-.093-2.085.117-3.01.607v-.607l1.5-2.132c1.819.303 3.91 0 4.21 1.213 1.201.919 2.41 1.516 2.728 2.132v.607c.3.303 1.501.606 1.819.919zm-1.201-12.462-.909 3.676c-1.2.919-2.728.606-4.21.606 1.819-.606 3.31-2.757 4.21-4.255.3-.303.6 0 .909 0zm-3.309-2.757c-.013.631-.153 1.253-.411 1.828s-.629 1.091-1.09 1.517c-.276.24-.582.444-.909.606 0-1.516.6-2.757.6-3.676.909-.303 1.5-.919 1.819-.303zm-2.728-3.676c-1.201 1.213-2.41 1.516-2.728 3.042-.012-.66-.221-1.301-.601-1.838.161-.742.589-1.398 1.201-1.839.691.243 1.395.446 2.109.607zm17.513 18.353c-.914.519-1.968.732-3.01.606l-1.537-2.123h3.638zm-4.81-10.946c-.91 1.213-1.501 2.757-3.01 3.345-1.098.159-2.212.159-3.31 0 .759-.573 1.566-1.08 2.41-1.516l1.818-1.838zm21.96 25.236-.909.919c-.601-.919-.301-2.757-1.501-3.042-1.2 0-2.109-1.213-2.41-1.516l.91-.303s.3-.304.909 0c.609.303.909.606.909 1.213.601.606 1.201 0 1.819.606.3.607.6 1.838.3 2.133zm-17.786-23.407c-.301 1.516-.91 1.838-2.11 3.676-.6.303-2.11.606-3.637 1.213.3-.607.909-.919 1.5-1.516.3-.919 1.5-1.838 1.5-2.757.833-.463 1.78-.674 2.728-.607zm-11.431-8.51c-1.513-.577-2.793-1.648-3.637-3.042-.574-.91-.889-1.963-.909-3.042.909 0 1.5.919 1.818 1.213v.303c1.201 1.516 2.41 2.757 2.728 4.595zm18.351 17.332h-.301c-.3 0-2.109-.606-2.409-1.213-.195-.481-.297-.996-.3-1.516h1.818zm18.95 11.249c-.246 1.031-.55 2.046-.91 3.042-.3-1.516-.909-3.676-2.728-3.676 0-.919-.3-1.213-1.2-2.132l-2.109-.303c.3 1.213 1.818 1.213.909 2.435.909.607 1.5.607 2.109 1.838.301.607.001 1.838.301 2.132l-1.501.919c0-1.213.3-3.676-1.5-4.255-1.2.607-1.501-1.516-2.728-1.838-.3 0-.3-1.213-1.2-.919-1.201.919-2.41 0-3.638.919l1.201-2.132c.909-.606 1.818-.303 2.728-.606l2.109-.304c1.819 0 3.31.919 5.456 1.838.436.158.813.447 1.082.828.268.381.414.837.418 1.304.301.304 1.201.304 1.201.919zm-34.327-32.239-.6 3.042c-.916-1.387-1.535-2.952-1.819-4.595zm4.546 6.994c-1.2-1.517-2.409-2.757-2.409-4.255.715-.03 1.43.073 2.109.303 0 1.213.3 2.435.3 3.952zm27.38 20.374c-.909-.606-2.41-.606-2.728-1.838-.886-.252-1.808-.355-2.728-.303-1.087.239-2.198.341-3.31.303-.3 0 0-.303-.6-.606-1.2.606-2.728.606-4.21 2.132l1.2-3.042c.725-.118 1.433-.321 2.11-.607h2.41c2.728 0 5.719 0 7.82 2.133zm-14.14-13.684c-.839.489-1.767.802-2.728.919-1.5-1.213-2.409-2.757-3.91-4.595l3.91.607c.984.943 1.895 1.96 2.728 3.042zm-8.129-10.615c0 1.517-.3 3.952-1.819 4.596l-.6-2.436c.945-.528 1.767-1.255 2.41-2.132zm21.96 19.456c-1.2 0-2.11 0-3.01-1.213-.3 0-.6-.606-.909-.303-1.2.919-2.41-.607-3.91-.303-.287.37-.653.672-1.069.881-.417.21-.875.323-1.341.332-.02-.434.083-.865.295-1.242.213-.377.526-.686.905-.891 1.501.607 2.728-2.757 4.21-.919.579.228 1.199.331 1.819.304 1.819.606 2.11 2.132 3.01 3.345zm5.456 9.126h-.3c-.3-.919-.6-1.213-1.2-1.213.909-2.757-.601-4.862-1.201-6.994v-.919c.91 1.213 2.728 2.436 2.41 3.676.229 1.829.329 3.672.3 5.514zm-21.96-24.63c-1.201-.919-3.31-1.213-3.01-2.757.6-1.213 1.2-1.213 1.819-1.838.3 1.838.3 3.042 1.2 4.595zm-24.67-31.32-1.2 1.213c.3 2.435-.601 4.255-.601 6.387l-1.2-3.952c.185-1.087.594-2.123 1.2-3.042zm35.8 36.485h-.909c-2.728.919-4.811-.606-6.92-2.132 1.326-.594 2.759-.906 4.21-.919l.909 1.516c.937.453 1.848.959 2.728 1.517zm-12.331-19.456c-.3 1.214-.909 3.677-2.109 4.596-.045-.42-.175-.826-.381-1.193-.207-.366-.485-.686-.819-.94v.524c0 .607-.601 1.517-.601 2.436-.732.417-1.598.526-2.409.303v-.919c-.3-.303-.3-1.213-.3-1.838l-.3-.303c-.218.116-.396.298-.508.52s-.154.473-.12.72c-.379.538-.589 1.178-.6 1.838-.891.023-1.756-.307-2.41-.919v-2.435l-1.2 1.213c-1.2-.919-1.2-2.757-1.2-3.952 3.637-2.132 8.42-1.516 11.43-.303.6.303.909.303 1.5.606zm6.62 13.078c-.909.303-2.409.919-3.01-.303-.451-.895-.687-1.886-.687-2.89 0-1.005.236-1.996.687-2.891.601 1.213.601 2.757.91 3.952.3.919 1.818 1.516 2.109 2.132zm-30.38-33.746-1.819.606.3-1.213c.289-.841.809-1.581 1.501-2.132zm40.01 37.395c-.909 0-2.728 0-3.637-.607-1.501-.919-1.819-1.213-2.728-1.838 1.2-.919 2.41-.919 2.728-1.213.909 1.213 1.818 2.757 3.637 3.676zm-6.62-6.691c-1.2.303-2.109-.919-3.31-1.516-.6-1.213-.6-2.757-.909-3.676.909.919 3.01.919 2.41 3.042 0 .606.909 1.213 1.818 2.132zm19.551 17.03c0 1.516-.91 2.757-1.201 4.255.061-.663-.014-1.332-.221-1.965-.206-.632-.54-1.215-.979-1.711 0-.607.909-.607.3-1.213 0 0-1.2-.919-1.2-1.838 0-.92.909-1.517 1.2-2.436 0-.303.909.607.909 2.132 0 0 0 .919-.3 1.213 0 .919 1.501.919 1.501 1.517zm5.719 2.757c0 1.213-1.5 2.757-2.109 3.676.6-1.213.6-3.676 0-3.676-.3-.304-1.501 0-1.501-.607 0-.606.3-1.516.3-2.132 0-.919-.6-1.516-.6-1.838 0-1.516 1.501-1.838 2.11-2.757.264.991.365 2.018.3 3.042 0 .606.6 2.132 0 3.345 0 .607 1.5.303 1.5.919zm-19.55-22.498c-1.501 0-3.01.607-3.91-.919.638-.343 1.16-.871 1.5-1.516zm6.62 5.514-1.201.303c-2.728 0-3.91-.606-5.11-1.516.9-.16 1.723-.611 2.346-1.287 1.08 1.132 2.425 1.97 3.91 2.436zm-9.63-15.2c-2.862-1.912-6.2-2.967-9.63-3.042.078.525-.028 1.061-.3 1.516 2.812 1.257 5.442 2.892 7.82 4.862v2.012c-2.409-2.435-4.81-4.861-7.82-5.514-.645.476-1.161 1.108-1.5 1.838-1.819-1.213-3.637-2.435-5.456-2.757-.909 0-1.2-2.435-1.2-2.435 1.076-.479 1.936-1.348 2.409-2.436h.91c.6 0 .6-.606.6-1.213 0-1.516-3.01-1.516-4.547-1.516-1.818 0-3.01 0-3.91.606-.3 0-.3.919-.3 1.213 0 .295.909.919.909.919.3 0 .91-.606 1.501-.606-.3 1.516 0 2.132 1.5 3.042l-.3 2.435c-2.469.071-4.87.832-6.938 2.197-.664-.577-1.179-1.309-1.501-2.132-3.009.919-7.82 4.861-7.82 4.861v-1.516c2.11-2.132 4.811-3.042 6.92-4.255v-1.517c-.909-.606-1.818 0-2.728 0-2.082.302-4.052 1.14-5.719 2.436-.014-.624-.115-1.243-.3-1.838 2.728-1.517 6.019-2.757 9.029-2.132v-.919c-.3-.607-.3-1.213-.6-1.213-1.5-1.517-3.01-3.677-3.01-5.165l.909-.304c-.3-1.516-.909-5.165 0-6.387-1.2-.606-2.727-1.838-3.009-3.042-.579-.932-.986-1.963-1.201-3.042.542-1.149 1.15-2.266 1.819-3.345.6 0 1.2-.303 1.2-.919 1.201-.303 2.11-1.517 3.31-.607.944-.017 1.879.191 2.728.607 0 .606 0 .919.6 1.213 1.501 0 1.501 1.516 2.11 2.757.579.228 1.198.331 1.819.303 1.5.304 2.728.304 3.31.919 1.867-.917 3.967-1.237 6.019-.919.3-.919.6-1.838.91-3.042.3.607.3 0 .6 0 .909-.606 2.109-1.838 3.91-1.516.909.919 2.409.303 3.31 1.516.909.919 1.2 2.436 2.109 3.676-.909 1.517 0 3.346-1.5 3.952l-1.5 1.517c-.3 0-.301.606-1.201.606.91 1.517.3 3.952-.3 5.781.3-.303 1.2-.303 1.2-.919.301 0 0 .606 0 .919v.606c-.172 1.306-.821 2.499-1.818 3.346-.3 1.516-1.501 3.345-3.31 3.676v.606c3.637 0 6.32.919 9.93 2.436zm18.305 23.315c-.065.217-.182.415-.34.576-.159.16-.355.278-.57.343-.673-.688-1.186-1.52-1.5-2.435-.3-.919.6-2.757.6-2.757.3 0 .6.606.909.606.3.304 0 .919.301 1.517.6.606 1.2 1.516.6 2.132zm19.25 16.726-.3.304c-1.065-.376-2.182-.58-3.31-.607 0-.919-.6-2.132-1.2-2.132-1.501 0-1.201.919-2.41.919l2.11-2.132c.3-.607.3-.607.909-.607.6.607.909.919 1.5.919.013.425-.091.845-.3 1.213.91.607 1.201 0 1.819.607.6.303 1.2.303 1.2 1.516zm-22.26-22.194c0 .919-.6.919-.91 1.516-.426-.541-.736-1.167-.909-1.838v-2.132c.909.919 1.819 1.838 1.819 2.436zm9.329 7.297c0 1.516-.3 3.042-.3 4.862-.6 0-.6-.607-.6-1.517-.3-1.516-.909-2.757-1.2-4.255-.6-1.838-1.819-3.345-2.728-5.514-.3-1.213-1.5-1.516-2.41-2.132 1.201 0 2.41 0 3.31.919 0 .303.3.606.909 1.213 1.819 0 1.201 2.435 2.728 3.345-.6.607-.909 1.213-1.5 1.517.909.606 1.5.606 1.819 1.516zm-12.33-13.684c-.6.606-2.728.919-4.21-.303l2.109-.92c.634.517 1.347.927 2.11 1.214zm-5.456-5.514c0 .919-1.2 0-1.2 0h-2.41c0-.607-.3-.919-.3-1.213.909-.304 1.5-.92 2.41-.304.3.607.909 1.517 1.5 1.517zm21.06 18.849c0 .919-.6 1.838-.3 2.757-.3-1.517-1.501-3.042-1.819-4.255 0-.303-.3-.303.3-.607 0 0 1.201 0 1.201.304 0 .303.6 1.213.6 1.838zm12.03 10.036c-.091.835-.293 1.654-.6 2.435-1.5-.303-1.5-2.132-1.818-2.435-1.201-1.517-2.728-.304-3.911-.304-.3-1.516.301-1.516.301-2.435.6 0 1.5-.607 2.109 0 1.2-.607 1.819.919 3.01.919.3.303.6 1.516.909 1.838zm4.811 6.69c-.601.919-.601.919-.601 1.516 0-1.213-1.5-1.838-2.409-3.951l.909-1.517c.438.239.807.59 1.07 1.017s.411.916.43 1.419v.919c0 .303.601.303.601.606zm-39.41-41.044c-1.501 0-2.11-.606-3.01-2.132-.157-.912-.157-1.845 0-2.757.365.58.669 1.196.909 1.838 1.2-.606 1.2.607 1.2.919.429.649.737 1.372.91 2.132zm20.459 17.94c-2.109-1.213-3.31-3.345-5.456-5.781 2.11 0 2.41 2.132 3.911 2.436.641.338 1.165.868 1.5 1.516zm15.041 13.684c-1.819 0-.91-3.345-4.547-3.345-.6 0-.909 1.213-1.819 1.516v-1.838c-.014-.394.094-.784.309-1.113.215-.33.527-.583.892-.725 1.818 0 1.5.607 2.728 1.213.909 0 1.2.607 2.409.607zm5.719 3.042c0 1.516 0 2.132-.909 3.345l-1.501-2.132c.601-.919.601-1.838 1.501-3.042l.909 1.838zm-46.33-46.218c0 .304-.3 2.436-.3 2.436l-2.109.606 1.2-5.514c.579.708.99 1.541 1.2 2.436zm41.829 37.68c-.909 0-2.728-.303-2.728-.919 0-1.213-.3-1.516-1.5-1.516-1.054.101-2.077.414-3.01.919-.372-.576-.677-1.192-.909-1.838 1.047-.485 2.164-.795 3.309-.919 1.501 0 3.31 0 3.31.919s1.501.919 1.501 3.345zm2.11-5.165c-1.819 0-3.31-.303-3.638-1.213-.6-.303 0-1.516-1.2-1.516-.6 0-1.2.919-1.2.919-.6.303-1.819-.919-1.819 0 0 1.213-.909 1.516-2.11 1.516h-1.5v-2.435c3.01 0 3.01-1.213 4.21-1.213.91 0 1.501.606 2.41.606 1.2 0 .3-.606 1.5-.606 1.201 0 1.819 1.213 2.41 1.213 0 .919.909 1.838.909 2.757zm-.91-5.165c-1.91-1.205-4.076-1.936-6.319-2.132-1.789.367-3.449 1.208-4.811 2.436l-.3-2.436c1.501-.303 1.501-1.516 2.41-1.516h2.11c.909 0 1.2-.607 1.5-.607 1.2 0 .6 1.213 1.5 1.213.6 0 1.201-.606 1.501-.606 1.2 0 2.409 2.132 2.409 3.676zm-5.456-5.514c-1.5 0-1.5-.303-2.409-.303-.663-.014-1.318.148-1.899.47-.581.323-1.068.795-1.411 1.368-.22-.311-.337-.684-.337-1.066s.117-.755.337-1.066c.6-.607 1.818-1.838 2.728-1.838 1.5 0 3.01 1.516 3.01 2.435zm.3-3.676c-1.818-.303-2.409-1.213-3.91-1.213-1.067.217-2.087.628-3.009 1.213-.601-.919.6-2.757 1.5-3.345.903-.306 1.509-.306 1.819 0 0 1.516 1.818.919 2.728 1.213.3.919.6 1.213.909 2.132zm5.72-27.672h-2.728c-.3-.606-1.2 0-1.819 0-.3 0-.6 0-1.5-.606 1.501 0 2.11-.919 3.31-1.213.909.606 2.11.919 2.728 1.838zm7.22 5.165c-.223-.391-.527-.729-.891-.99-.364-.262-.78-.441-1.219-.526-.909-.919-1.818-2.132-2.727-2.132.6 0 1.818-.607 2.727-.607.601 1.213 1.501 1.838 1.819 2.757zm-62.816 61.207c-.3 0 .3.607-2.109-2.132-.601 0-1.201 1.517-1.201 2.132.107 2.191.514 4.356 1.21 6.433h1.818c0-2.132.3-4.595.3-6.387zm5.111.304c0-1.214-.601-1.214-1.501-1.214-.6 0-1.818.607-1.818 1.214 0 .919-.301 6.084-.301 6.084h1.501c.6-2.133 2.109-4.862 2.109-6.084zm31.589-3.042-2.409.303c.909.303.909 1.516.909 1.838-.115.778-.428 1.513-.909 2.132-.6-.606-.6-1.213-1.201-2.132-.3 0-.6 1.213-.6 1.838.045 1.874.683 3.684 1.819 5.165h2.11c-.473-1.896-.778-3.83-.91-5.781.164-1.187.573-2.327 1.201-3.345zm51.441-21.892c-.04-10.953-4.364-21.446-12.031-29.188-3.31-3.345-6.92-4.861-9.629-8.207-1.47-1.406-2.699-3.049-3.638-4.861-1.026-1.009-2.133-1.931-3.31-2.757.16.721.36 1.433.601 2.132h-.3c-1.195-.079-2.343-.5-3.31-1.213l.909-1.213c0-.304-.909-.304-1.5-.304-3.638-.606-7.22 1.517-10.83 2.132v.304c2.409.919 2.728 3.676 3.91 5.165h1.5c.6 0 1.2.606 1.819.606-.087-.544-.292-1.062-.601-1.516.601-.607.91-.607 1.501 0 1.2.606 2.728-.607 4.21 1.516-1.431-.12-2.87.088-4.21.607 0 .303.6.919.6 1.213-1.2-.303-2.728 0-3.31-.919l-.3.303c1.586 1.673 3.548 2.934 5.72 3.676 3.31.607 6.019-.919 9.029-.303 10.83 5.514 18.35 17.939 18.35 30.401 0 17.94-9.929 24.933-16.249 24.933-1.306-.022-2.575-.445-3.638-1.213.692-3.195.997-6.463.91-9.732 0-10.339-3.91-21.588-9.33-27.369-2.728-2.757-5.719-4.861-8.72-4.861-1.201 0-2.728 0-3.638 1.213-1.2.919-2.109 3.042-1.818 4.255-2.288 1.342-4.875 2.076-7.52 2.132-3.298-.048-6.482-1.228-9.03-3.345v-3.676c-.6-.304-3.01-1.838-1.818-3.042.909.303 1.2.919 1.5.919-.3-1.517-.3-3.346-1.5-4.862-.662.045-1.314-.173-1.819-.607-.465-.289-.847-.695-1.11-1.178s-.398-1.027-.391-1.579c.601 1.214 1.819.607 2.728 1.214-1.2-2.758-.909-3.952-3.009-8.207-.3-2.132-2.728-3.346-3.91-4.862-.91-.607-1.201-1.213-2.11-1.213-.909-.303-.909-1.516-.909-2.132.529.12 1.035.325 1.5.606-1.5-3.345-2.41-6.993-5.456-8.813l-.909.303h-3.638c.3-.303 1.201-.606 2.11-1.213-.369-.332-.801-.585-1.27-.744-.469-.158-.965-.217-1.458-.175-.724.487-1.548.801-2.41.919h-.3c0-.607-.3-1.516 1.201-2.132-1.388-.304-2.823-.304-4.211 0-.3 1.213-1.2 2.132-1.2 3.042-.6.303-.909 1.213-1.5 1.838 0-1.516.6-2.757.909-4.255-.876.399-1.79.707-2.728.919-1.598-.878-3.322-1.498-5.11-1.838 1.2.919.6 2.435.909 3.676l-.909-.303c-.3-.919-1.501-1.838-1.819-3.042-1.297.073-2.552.492-3.637 1.213v.312c.452.046.884.209 1.254.475s.665.625.855 1.042c-1.5 0-2.728-.919-4.546-.919h-.3c-.6 0-1.201.919-1.501 1.213-1.818 1.516-3.009 2.757-3.637 4.861.3 0 1.2 0 1.2.304-.909.303-1.2 1.516-2.409 1.838v3.345c-.6.919-1.501 1.516-2.11 3.042-1.2 3.952-1.5 8.207-1.5 13.078 0 .919-.6 1.213-1.201 1.516v3.676s1.501-1.213 2.41-1.838v3.042c-.519.045-1 .293-1.339.691-.34.399-.512.916-.48 1.441 0 .919.3 1.838.3 2.757 0 .607.001.607.301.919 0-.303.3-.919 1.2-1.213.35-.245.777-.353 1.2-.303-.576.71-.986 1.543-1.2 2.435l-.909.919c-.163.164-.268.377-.301.607 1.059 4.9 2.582 9.685 4.547 14.291-2.11 3.042-4.21 9.126-5.72 14.897-1.2-1.213-2.727-1.213-4.21-1.213-.744-.03-1.48.155-2.124.533-.644.377-1.169.932-1.513 1.599-.7-.419-1.508-.615-2.32-.56-.811.054-1.588.355-2.227.863-1.818 1.838-1.818 2.757-1.818 4.255-.428.421-.752.936-.946 1.506s-.253 1.178-.173 1.775c-.12 1.956.408 3.896 1.501 5.514h35.781c-.16-.823-.581-1.572-1.2-2.132-.6-1.516 0-3.345 0-4.861.508-1.48 1.331-2.828 2.41-3.952v-.919l1.819-.303c.909 0 1.818-.919 3.009-.919.601 1.213.601-.607 1.819-1.214 2.728-.303 5.11 0 6.62 2.133-.001.04.006.08.02.117.015.038.037.071.065.1.028.028.062.051.099.065.037.015.076.022.116.021h-1.2c-1.501-.303-3.01-1.213-4.811-.303 0 .303-.3.303-.3 1.213v1.213c1.201 0 1.819.919 2.728 1.213.746-.707 1.709-1.135 2.728-1.213 1.2 0 3.01.606 3.01 2.435v2.757c.909.919 2.11 1.213 3.31 1.838-.6.919-1.2.919-2.11.919h-1.818c-.3-.303-.6-.303-.6-.919-.71.845-1.321 1.77-1.819 2.757h27.934c-.6-.919-1.2-1.516-1.2-2.132-.494-1.569-.698-3.217-.6-4.861l2.728-3.676c1.713-.104 3.42-.306 5.11-.607.6-.607 0-.919 2.41-.919 1.5 0 2.728.303 3.31.303.3.607.3.607 0 1.213-.6.304-1.501-.606-2.11-.303s0 .607 0 1.213c.6.303-2.109-.606-2.109-.606-.106.64-.308 1.26-.601 1.838.419.582.925 1.093 1.501 1.516.3.919-.91 1.516-.91 2.435-.3-.303-1.5-1.213-1.5-.919-.153 1.835-.153 3.68 0 5.515h2.41l.3-3.952c.3-2.436 3.31-6.691 4.81-6.691.891-.022 1.756.307 2.41.919.3.919 1.5 1.213 1.5 1.838s-.6.607-1.818.607c-.3 0-.3-.607-1.201-1.213l-1.2 1.516s1.5 1.517 1.5 2.436c.04.449-.021.901-.179 1.322-.157.422-.407.802-.73 1.113l-1.5-2.757c-.47.148-.889.427-1.211.804-.321.376-.532.837-.608 1.328 0 .919-.6 1.517-.6 2.757h14.74c1.685.068 3.354-.353 4.81-1.213h3.01c2.75.058 5.482-.466 8.02-1.538 2.539-1.071 4.827-2.666 6.72-4.684 5.72-5.78 9.03-14.897 9.03-23.72zm-92.051 31.063c-.902-1.904-1.412-3.974-1.5-6.083-.097-1.446.107-2.895.6-4.256l-2.728.607c-.6.919-.909 1.213-.909 1.838l1.2-.606c.3 0 .6.606.909 1.213-.3 1.213-1.818 1.213-2.409 1.516-.601 2.435 1.5 3.952 1.818 5.781z"/></g></svg>