<svg fill="none" height="300" viewBox="0 0 500 300" width="500" xmlns="http://www.w3.org/2000/svg" xmlns:xlink="http://www.w3.org/1999/xlink"><clipPath id="a"><path d="m182 50h136v200h-136z"/></clipPath><g clip-path="url(#a)" fill="#000"><path d="m217.622 242.752c.258-.257 0-1.003 0-1.252 0-.497-.5-.497-1.003-.755-1.008-1.243-3.009-.488-4.516-.488-.503 0-.749.24-.749.746 0 .497.246 1.003.246 1.492 0 .506.258 1.261.258 1.75.503.257.994.506 1.752.257h.504c1.007-.746 2.505-1.003 3.508-1.75zm45.15-2.255c-.74-.746-.994-1.99-1.992-1.99-.758 0-1.262-.755-2.264-.506-.246.257-.246 0-.246.257-.512 0-1.007 0-1.51.249.249.738-.758 1.244-.758 1.99-.749.506-.245 1.252-.245 1.998.749 1.501 2.001 3.251 4.265 3.251h-.254v.257h1.752v-.257h-.245c.504 0 1.003-.747 1.261-1.244.994-1.003.749-3.002.236-4.005zm-71.243-78.48c0-.505 0-.754-.245-1.012.245-1.492-.245-2.487 0-3.74-.245-.497-.503-.994-.245-1.5-.504-.497-.504-1.75-1.261-2.247-.25-1.004-1.503 0-2.26-.498-.757.498-1.003.755-2.01.995 0 .506-.491 1.253-.491 1.75 0 1.5-.504 2.505-.258 3.748-.245 1.003.258 1.492.258 2.504.491.747.994.249 1.498.507v-.258c1.003-.249 1.76.258 2.759.258.757 0 1.003-.507 1.765-.507zm86.299 76.49c-.245-.249-.503-.755-1.252-.755-1.253-.746-3.013-.497-4.769-.497h.258c-.258 0-.504.24-.504.24.246 1.012.246 2.007.246 2.762.503.24 0 1.243.757 1.243 1.253-.497 3.263-.497 4.761-.497.258 0 .258-.506.503-.746 1.008-.258 0-1.013 0-1.75zm17.067 1.244c0-.249-1.003-.996-1.253-1.244-1.261-1.012-2.768-1.012-4.274-1.012h.254-.757c-.491 2.007-.749 5-1.253 7.007.504.755 2.01.249 3.008.755 1.515 0 3.022-.506 3.517-2.007 1.262-.755.245-2.505.758-3.499zm-97.344-139.471c-.994-1.252-.994-2.4958-2.002-3.2506-.757-.2488-1.252 0-1.764-.2488-.245.7462-.749-.2574-1.249-.2574-1.007.506-1.755.506-2.505.506-.757-.506-.757.7548-1.506.4976-.25 0-.503.4974-.757.7462-.749.2574-.495 1.0035-1.253 1.0035-1.007.4974-1.253 1.9985-1.253 3.0015-.503 1.244.246 2.745.246 3.748.258 1.004 1.252 1.75 2.01 2.505 1.756.746 3.521.249 5.018-.257 2.51-1.501 5.015-3.748 4.769-6.493-.249-.506.5-1.003.246-1.501zm91.817 111.475c-.504 0 0-.257 0-.257-.504-1.99.254-3.989 0-5.987-.246-2.255.254-5.506-.749-8.002-.504-.746-1.253 0-2.002 0-.253 0-.512-.249-.757-.249-.504.249-1.253.249-2.01 0-.999.249-2.01-.755-3.004-.497h.245c-.245.248-.504.248-.504 0l-1.752-.258c-1.007-.986.254-2.496 0-3.747 0-2.745 0-4.992-.249-7.257-.255-1.492-.255-2.993-.5-3.98.749-2.264-.258-4.511-.258-7.007v-4.992c-.504-1.509 0-3.259-.504-5.009 0-2.247-.245-5-.245-7.248-.254-.24 0-.754 0-.754-.254-.489-.254-.995-.254-1.492v-1.75-1.501c0-.248-.249-.248 0-.248 0-.507 0-1.253-.249-1.75 0-.249.249-.506 0-.995v-.257c-.246-1.742.249-4.006-.246-5.996.495-1.003 0-2.007 0-3.002 0-.746.246-1.492-.254-1.998.5-1.244-.25-2.505 0-3.748-.25-2.745-.25-6.253-.504-9.246-.503-.506-.25-1.004-.503-1.252.253-1.253 0-2.256-.246-3.5l-1.261-.755c-.749.249-1.253.506-1.498.755-1.007 0-1.252.755-2.01.755-.748-.514-1.756 0-2.505 0-.757.746-1.752.249-2.768.489v.257c-.245 0-.748-.257-.994.249-.258-.249-1.015 0-1.015-.249v.249c-.994-.249-1.993.995-3.005.497-.249.258-.998.498-1.252.258-.758.24-1.507.995-2.514.497-.245.498-1.253 0-1.752.498-.249.248-1.007.248-1.506.248-.495.498-1.502 0-2.01.755-.999-.257-1.503.738-2.505.249-.504.746-1.756.489-2.759.489-.246.257-.749.514-1.007.257-.246.257-.995 0-1.498.257-1.012 0-1.507.746-2.51.498-.504 0-1.253-.258-1.511.488-.254 0-.749.258-1.248 0-1.007.258-2.01.755-3.009.507-.503.497-1.261.497-2.009.497-.758 0-1.753.746-2.51.257-.495.489-1.007-.257-1.511 0 0 0-.245.249-.499.489.254 1.759 1.003 3.251 1.003 5.249-.245 0 .253.258 0 .258.253 1.243.512 2.753.253 3.748.259 1.252.259 2.504 1.253 3.756 1.253-.506 3.009-.763 4.27-1.252 1.248-.506 3.013-.257 4.007-1.252 1.253.498 1.756-.506 2.768-.257v4.005 1.99c0 1.004 0 2.504.495 3.507-.495 1.245 0 2.505.245 3.5-.245 1.999.258 3.748.258 5.506 0 1.493.504 2.994 0 4.238.504 1.501 0 2.246 0 3.748v4.751c.254 1.501.504 2.753 0 3.757 0 1.243 0 2.993.504 4.245-.25 1.75.254 3.989.254 5.747v1.99c.245 1.012.245 1.758.245 2.513v1.998c.25 1.244 0 2.505.25 3.5-.25 2.007.254 3.25.758 5.249-.259.745-1.008.745-1.757.745-.757-.505-2.264.25-3.013 0-1.261 0-2.255.755-3.017.498-1.248.506-3.004.257-4.256.257 0 .249-.255.498-.255.995.255 1.252 0 3.002.255 4.254 0 1.999.503 3.5.249 5.241.254 1.252 0 3.251 1.003 3.757.254 0 1.253 0 1.756-.249 1.003.249 2.01-.498 3.516-.498 1.753-.257 2.751-.755 4.761-.506v-.249h2.264v-.248c.503 0 .503 0 .749.248h-.246.75v-.248c.503-.249 1.261 0 1.751-.249 2.011 0 4.012-.755 5.777-.506.749-.506 1.752.258 2.255.258 1.756-.764 3.517-.258 5.273-.507.749.249 2.246-.257 3.262 0 1.997-.257 3.762 0 5.26 0 .749.249 1.756 0 2.759.249.258-.506 1.007.258 1.253.506 1.506 0 3.017-.248 4.265-.248 2.269.497 5.019 0 7.528.248l1.007.249v.248h.504c.246-.247.749-.744.995-1.251zm-97.335-128.2257h-.245c0-.995.499-1.9985 0-2.9935 0-.7462.748-1.2524.245-1.7497-.749-.2574-.994-1.0036-1.498-1.501-.757 0-1.261-.2488-2.01-.7462-.504.4974-1.007.4974-1.507.9864-.258 1.0034-1.51 2.0069-1.51 3.0105 0 1.2435-.995 2.2471-.749 3.4909.258 1.0036-.246 2.0069.258 3.0019.245.5059.491 0 .994 0 .749.5059 1.506 0 2.513.5059 1.004-.2571 2.514.995 3.263 0v-3.7566zm9.034 146.4777c0 .746-.254 1.492-.254 1.99 0 .248 0 .506-.249.506v-.258h-1.003l.245.258h-.749-2.002c-.499 0-.757-.506-1.506-.258-1.507 0-3.762-.746-5.273-.248h-2.001s0-.24-.254-.24v.24c-.749 0-1.752 0-2.514-.24-.245.746-.994-.258-1.498.24-.499-.498 0-1.501.25-1.99v-.258c.254-.239.254-.746.254-1.252 0-.488.749 0 .994 0h.762c1.248.258 2.255-.24 3.004.506 1.262.249 2.514-.248 3.263.507 1.76 0 2.759 0 4.02.239 1.507 0 3.005 0 4.511.258zm18.814 18.501c-.25 0-.753 0-.998-.258.245-.755-.255-.755-.513-1.003-.49-.746-.749-1.75-1.752-1.99-.25 0-.503.489-1.007.24 0 .249-.491 0-.994 0-.254.249-1.007.249-1.765.249-.245.257-.491 0-.749.257-.245.498.258 1.244 0 1.492 0 1.013 1.007 1.999 0 2.505-1.506-.506-.245-2.007-1.002-3.002 0-1.252-.504-1.999-.504-3.002 0-.746-.245-1.501 0-2.247-.245-.498-.495-1.75-.495-2.504 1.498.257 2.505-.738 4.012-.49h.748v.249c1.756-.249 3.018.498 3.766 1.741.255.755.758 1.502.5 2.256 0 .498-.5.995-1.003 1.501 0 .995.757 1.501 1.261 2.247.245.746.994.746.495 1.759zm-19.317-29.248c0 .489 0 1.244-.245 1.741-1.507.257-2.514.257-3.762.506h-5.776c-.504.498-1.507.24-2.256.498l-.25.248c-1.256.258-2.509 0-3.761.498 0-1.004 1.253-1.99 1.756-2.745 1.003-.506.491-2.006 1.752-2.006.503-1.493 1.506-2.497 2.255-3.492.258-1.501 2.01-1.749 2.01-3.01.25-.987 1.253-1.99 1.756-2.993.254-.755-.258-1.244-.503-1.75-.246 0-.749 0-.749.249-.758-.498-2.256-.249-3.263 0-.758.505-1.253-.498-2.01.257-1.003 0-2.01-.257-3.004 0-.254-.506 0-.755 0-1.261-.254-.489-.504-.986 0-1.492 1.253 0 3.004 0 4.011.506.504.24 1.003-.257 1.253-.506 2.759.249 5.014.506 7.528 0h2.01c.245.746-.504 1.003-.504 1.492-.258.258-.258.506-.258.506 0 .249-.491.498-.749.498v-.249c-.749.249-.254 1.509-1.248 1.509-.259.747-.259 1.493-1.007 1.99-.254 1.004-1.253 1.244-1.253 2.256-.757.497-.757 1.493-1.761 1.998 0 .498-.748.995-1.007 1.741 0 .755-.49 1.004-.748 1.751.258.257.258.754.748 1.003 1.007.257 2.514 0 3.767.257 1.002-.257 2.255.24 3.516-.257.503.497 1.507-.746 1.752.257zm32.617 19.247c0 .248-.254.248-.254.248 0 .249.254.49 0 .747-1.007.497-2.26-.257-3.254 0-1.016.249-2.264-.498-2.768.755 0 .746-.503 1.99.255 2.238 1.252.755 2.513.506 3.766.506.245.498.245.755 0 1.244-.259.257-.758 0-1.253 0-1.016-.249-2.01-.489-2.768.257 0 .995-.503 1.999.504 2.496 1.248.497 2.759.497 4.265.497.246.249 1.253 0 1.253.755-.249.258-.249.497-.504.497-.503-.239-.998.258-1.497-.239-.758.497-1.253-.258-2.269 0 0-.515-.994 0-1.248-.258 0 .258-.753.258-1.007.258-.495.239-.749-.258-.749-.515 0-.498-.254-.995 0-1.492v-1.004c0-.995.254-1.741 0-2.745 0-1.252 0-3.001.503-4.245 1.507 0 3.005.248 4.511 0 .758.248 1.511-.249 2.26-.249zm-32.617-45.99c-1.003.497-2.01 0-3.013.24 0 0-.749.257-.994 0-1.261.506-2.772 0-4.02.506h-1.253v-.249c-.504.249-1.253.249-2.01.249 0 .249-.504.249-.749.249 0-.249-.758 0-1.007 0-.245 0-.5 0-.758.249-.491 1.99 0 4.751-.245 6.75l-.245.248c-.504.249-1.253.249-1.511-.248-.245-1.004 0-2.256-.245-3.5.245-.506 0-1.003.245-1.492 0-.257-.245-1.261 0-2.007h-.245c.245-.249 0-.994 0-1.252 0-1.501.245-3.251-.254-4.752l.254-.249-.254-.248c.254-.755.254-1.75.254-2.496.503-.506.994 0 1.756-.249.245.249.491.498.491.747-.246.488 0 .488 0 .488.258 1.261-.246 2.513 0 3.766 0 .497-.246 1.244 0 1.492.757.755 2.009.755 3.017.249 1.752.506 3.258-.497 4.769-.249.749-.248 1.248 0 2.01-.497.994.249 1.997.249 3.004-.249.245 0 .758 0 1.003.249-.245.745.249 1.251 0 2.255zm48.177 54.978c-1.765-.248-2.269.755-3.775.755h.258v-.257h-.762.259v.257c-1.008-.257-1.507-.755-2.269-.755-.74-.994-2.255-1.749-2.501-2.993-.245-1.003 0-1.501-.503-2.256.258-.746.748-.995.258-1.749 0-.746.994-.746.994-1.493 1.012-.249 1.506-1.509 2.767-1.252.75-.257 2.76-.746 3.263.249v.754c-1.506 0-2.768.249-3.766.996-1.253-.249-1.253.994-2.01 1.749-.254 1.501.249 3.002 1.497 3.997.259 0 .763.506 1.016.746h2.002c0-.24-.245-.24-.504-.24h2.759s0-.257.258-.257c.001.755.759 1.003.759 1.749zm-49.18-75.983c-1.007 1.003.245 2.247-.246 3.002.246 1.998-.761 3.748 0 5.258-.257.232-.257.746-.761.746h-1.997-1.511-4.511-1.261-.999c-.757.24-.757 0-1.257 0-1.252 0-2.259-.746-3.262-.258l-.245-.746c0-.497.245-1.003.245-1.501-.504-1.501.254-3.499-.245-5 0-1.501-.762-2.745-.259-3.997v-.248c.504.248 2.011-.506 1.765.754.491.987-.258 1.742 0 2.496.491 1.501.491 3.997.491 5.747.258.746 1.511.746 2.26.746h.507c.495.249.999.249 1.503 0 .757-.746.499-1.999.757-3.002v-2.994c0-1.003.994-.497 1.498-.497.254.249.758.497.504.995-.749.746.254 1.501-.25 2.496 0 1.261.25 2.256.749 3.002h.504c1.007 0 1.756.249 2.759 0 1.506-.995 1.007-3.5 1.007-5.25v-.746c.499-1.003.245-2.006.499-2.993.749-.257 1.253-.257 1.757 0 .502.986-.504 1.492-.001 1.99zm64.727 70.237c0 1.75-.255 3.25-1.003 4.494-.255.258-.513.755-1.008 1.004-1.256.248-2.509.248-3.508 0-.499.248-1.261.248-1.76-.249-.25-.497-1.007-1.501-1.253-1.741-1.007-.755-1.007-1.758-1.506-2.762 0-1.492.499-2.993 1.261-3.988l.749-1.252c1.003-.747 2.01-.747 3.004-.747 1.516.241 3.271.498 4.02 1.999.75.995.75 2.238 1.004 3.242zm15.551 3.508c.245.24 0 .489-.246.746-.757-.506-1.007-1.501-1.765-2.007 0-.746-1.002-1.501-1.497-1.75-1.261 0-1.757.249-2.768.249-.495.257-.998 0-1.253.506 0 1.501 0 2.256.255 3.5-.255 0-.255.497-.758.497 0-.249 0-.497-.245-.995-.749-.506.245-1.758-.504-2.504-.245-1.999 0-3.5-.499-5.498-.25-.746-.25-.995 0-1.749 1.752-.258 4.015-.499 6.017.256h1.007c1.003.987 1.752 1.999 2.01 3.749-.258.746-1.007 1.243-1.506 1.989.499 1.004 1.506 1.999 1.752 3.011zm-80.033-81.748c-.245 0-.245.258-.491 0-.761 0-1.51 0-1.764.258-.749-.258-.749.257-1.253.257 0 0-.245-.257 0-.257h-.503v.257c-.246 0-1.003.24-1.249-.257-.249.746-1.252-.258-2.01.257-.503.489-1.007-.515-1.497.24-.504 0-1.008.249-1.511-.24 0 .24-.5.489-1.004.24-.249.249-.757.498-1.007 0-.244 0-1.002.747-1.506 0-.504 0-.994.747-1.498.249h-1.002c-.762 0-.259-.746-.504-1.004.504-.985-.504-2.993 0-3.996.245-.746-.258-1.998.245-2.745 0-.257.259-.746 0-1.003.757-1.244.757-2.496 2.256-3.251 1.007-.994 2.513-1.99 4.269-1.749 1.262.506 1.752 1.261 2.51 1.998 1.252.755 2.01-.995 3.008-.995.5-.497 1.761-1.003 2.768-1.501l.491.257c0 .489.761 1.502 0 1.99-1.003 0-1.248 1.004-1.997 1.004-1.262.257-1.765 1.501-3.018 1.75-1.506.248-.245 1.757-1.003 2.744 1.003 1.252.5 2.762 1.003 4.005.246.249.758.249 1.007.249 0-.249 1.003-.249 1.249-.497 1.261-.257 2.759.248 3.766 0 .245.755.503.995.245 1.74zm87.56 82.734h-.494v-.24h.494zm8.781-5.986c-.258 1.492.246 4.245-2.01 5-.245.489-.749.746-1.253.746v.24c-.253-.24-.749 0-1.003.258-.748-.258-1.007.248-1.755 0h-1.262c-.245 0-.749-.258-.994-.258v-.24c-.757.24-1.253-.257-2.01 0v.24c-.258-.24-.258-.497-.258-.497 0-.249.503-.489.503-.747.259-2.247 1.261-4.254 1.261-6.492.504-.755.246-1.501.246-1.999 0-.514-.246-1.011 0-1.011h1.51c-.257 0-.257 0-.257.256h.257l.246-.256c1.506.755 2.767.755 4.274 1.509 1.253.746 2.505 1.501 2.505 3.251zm-96.083-101.741c.5 1.999-.749 3.002-.503 5.01 0 .986-.504 1.5-.749 2.487-.258.506-.258.763-.749.506-.512 0-1.007-.249-1.261-.506.749-.987.749-2.247 1.003-3.242.258-.249.504-.747.258-.995-.512-1.004.245-2.256-.512-3.002l-1.253-1.004-1.752-.248c-.504.995-1.756.248-2.01.995-1.007 1.252-2.001 2.504-2.759 4.005-.749.249-1.253 1.244-2.01 1.244-.495.506-1.007 0-1.498.506-2.758-.747-3.766-3.251-4.269-5.756 0-.488 0-.994.258-1.5-.258 0 0-.249 0-.249 0-.241 0-.747.245-1.004 0-.746 1.008-1.741 1.253-2.495.757-.498.757-1.493 1.752-1.493.503.497 1.511.755 2.01 1.493.25.506-.499.248-.757.506-.75-.258-.75.746-1.498.746-.246.746-.749 1.5-1.003 2.006v1.99 1.253c.254.746 1.003 1.252 1.506 1.749 2.759.258 3.762-2.744 5.015-4.502.748-.49 1.506-1.493 2.759-1.493v-.257c1.252-.249 2.758-.489 3.516.257h.25v-.257c.757.257 1.248 1.012 2.01 1.501.245.755.245 1.261.748 1.749zm110.636 98.738c-.255.498-.513 1.004-.758 1.253 0-.506-1.003-1.012-1.003-1.501-1.007-.498-2.513-.498-3.512-.498-.499.498-1.248.987-1.248 1.493.749 2.496 4.257 2.255 4.511 5 .249.497-.255 1.501-.255 2.256-.503.24-.748.746-1.497.986-.259.506-1.511.257-2.011.257-.749-.257-1.756 0-2.505-.257h-.503.249c0-.498-.249 0-.503-.24-.255-.258-.504-.506-.255-1.004.508-.248 1.249.498 2.006.498.762 0 1.756.248 2.514-.24.495 0 1.007-.258 1.007-.755-.258-.506.749-.506.749-1.004-.25-.248-.25-1.003-.749-1.003-.258-.995-1.253-.995-2.01-1.998-.259-.241-1.007-.241-1.007-.995-1.003 0-.504-.995-1.003-1.501.254-.747.254-1.75 1.261-2.008.749-1.243 2.759-.497 4.007-.497h.754c.508.755 1.507 1.012 1.761 1.758zm-110.636-115.48c0 1.003-1.51 1.252-1.51 2.247 0 .506-.491.506-.491.995-.512 0-.757.515-1.007.515 0 .497-.254.986-.499 1.243-1.008-.257-1.008 1.004-2.011 1.004-.503.489-1.252-.257-1.51.489-.5.257-1.003.257-1.507.257-.245-.746-.49 0-.994 0-.258 0-1.261 0-1.506-1.003-.259 0-.504 0-.504.257-1.007 0-1.507-.506-2.01-1.261-.504.257-.749 0-1.007-.24.258-1.004-1.248-1.261-1.248-2.256-.251-1.501-.504-3.242-.749-4.751.245-.498 0-1.244.245-1.741l.253-1.004c.504 0 1.499.249 1.757.746-.504 1.252.245 2.256 0 3.259 1.252 1.244.749 2.993 2.255 3.997.749 1.003 2.01 1.75 3.263 1.75.749 0 1.752-.747 2.759-.747.503-.514 1.752-1.003 2.255-1.758 1.506-1.252 1.253-3.242 1.506-5 0-.498.259-1.501-.253-2.247.512-.249 0-1.004 0-1.501l1.003-.249 1.007.249c0 1.252-.246 2.247.245 3.25.758 1.253-.245 2.256.258 3.5zm-.749-16.751c-.503.506-.761 1.253-1.51 1.75-.254.506-.254 1.252-1.248 1.003 0 .249 0 .755-.762.755-.246.746-.5.995-1.249 1.244-.761-.249-1.007.755-1.51.506-.5.995-1.752-.258-2.501.249-1.007-.507-2.011.746-3.018 0-1.506-.249-3.004-1.004-3.761-2.256-.245-.995-.749-2.247-1.007-3.499 0-.507-.246-1.75-.246-2.239 0 0 0-.514.246-.514.258-.49.258-.987.258-1.493-.258-1.5008 1.506-2.2558 2.255-3.7481l2.255-1.2436c2.759-.5059 5.777-1.2607 8.536-.5059.503.2488.748.5059.748.7461.504.506.75.2488.75.2488.512.4974 2.01.4974 1.506 1.501.749 1.9983.504 5.0087.258 6.9987zm0-14.2375c-.761.2402-1.764-.2572-2.513-.2572-1.007-.2488-2.01.4974-2.505-.2488-1.761 0-2.768-.7462-4.519-.7462h-.25c0 .2488-.758 0-1.003 0h-.25-2.509c-.749-.2574-1.756-.2574-2.759-.2574-.504-.4973-.258-.7461-.258-1.4923-.246-.506.258-.995 0-1.7498.503-1.2523.762-2.7533.762-3.9968 1.003-1.7584.749-3.7567 1.752-5.4978 1.252-1.0036 3.012-1.7498 4.515-1.2607 1.261.2573 2.255.7547 2.759 2.0069 1.003.9949 1.003 1.9985 1.248 2.9932-.245 1.2524 0 3.0019 0 4.2457 0 .5062-.245 1.0036-.245 1.7497.245.5146-.245 1.2608.503 1.5096.504-.2488 1.253.2488 1.753.4976.761.2488 1.51 0 2.009.2488h1.253c0 .7459.257 1.5093.257 2.2555zm114.389 135.7135c0 1.004.504 2.504-.749 3.011-1.003 0-2.01.986-3.013.239-.254.258-.495.747-1.003.507v-.249c-.753-.258-1.502 0-2.001 0v.249h-3.766v-.249h-2.514v.249c-.749 0-1.752.24-2.509 0 0 0 .253-.249-.25-.249-.254 0-1.003 0-1.003.249-1.007-.507-3.004-.249-4.012-.249v.249h-1.252.249v-.249l-10.79.746c-1.498.249-4.265.249-6.267 0 0-.257-.25 0-.749 0l-.258.249c-1.003 0-2.501.249-3.258-.249-.762.498-1.756 0-2.764.498h-2.759c-.748.248-2.264-.249-3.004-.249l-2.514.497h-.254c-1.506 0-3.262-.248-4.515.258-.994.24-2.005-.258-2.501-.258h-.503c-.504.498-1.253 0-1.752.498-.762 0-1.253-.498-1.765-.24-.749.488-2.001-.258-2.513.488-1.253-.248-3.263 0-5.015 0v.258h.254l-26.337.497c0 .506-.254 0-.503 0-.504.258-1.507.258-2.011.506-1.003.241-2.002-.248-3.262-.248-.246-.498-.5-.755-.246-1.261 0-1.741-.254-3.5 0-4.992-.757-1.501 0-2.753-.503-4.254 0-.24-.254-.746 0-1.244.249-.248-.254-.506 0-.746v-.257-.257-.987c.503-2.255-.5-4.254 0-6.253 0-1.252-.5-3.002 0-3.996 0-2.505-.5-5.001-.254-7.754-.246-1.75.254-3.5-.504-4.992 0-1.003.258-2.007 0-3.002-.499-.745.258-2.006.258-3.002 0-1.509-.504-3.25-.504-4.76.246-.737-.254-1.989 0-2.736 0-.257-.503-.755-.254-1.244-.249-.257.254-.763.254-1.003-.254-1.261.504-2.505-.254-3.508 0-.497 0-.746-.249-.995v-.506c0-.995.249-1.989 0-2.993.249-1.004 0-2.007 0-2.993 0-1.004-.245-2.007 0-3.002.249-1.51-.245-3.251.249-5.009-.249-.738.254-1.493-.249-2.247.503-.995 0-1.999 0-2.754-.245-1.243.503-1.989 0-2.993.249-1.003.249-2.505.249-3.499 0-.498-.249-.755 0-1.004-.249-1.252 0-2.496-.249-3.748.249-1.252 0-2.496.249-3.491-.249-1.261 0-2.504-.249-4.005-.245-1.244.249-2.247-.245-3.251 0-1.003.245-1.989 0-3.001.245-.747-.504-1.493 0-2.239 0-1.253.245-1.759.245-2.762 0-.986-.749-1.749 0-2.496-.245-.497-.245-.995-.504-1.501.259-.994-.245-1.99 0-3.25 0-.249.259-.746.259-1.244-.259-1.501 0-3.499-.504-4.752v-.497c.245-.249-.255-.746 0-1.252-.255-1.244.504-2.994 0-4.752v-.746-.25c0-.249 0-.755-.255-1.252 0-1.004.5-1.99 0-2.994-.503-1.003.5-2.504 0-3.7478v-1.0036c0-1.0035-.748-2.2471 0-2.9935v-.2572c0-.7547 0-2.2471-.249-3.2506 0-.4974.249-1.0036 0-1.2436-.254-1.7581 0-3.5078 0-5.2576 0-.2488 0-.4976-.254-.7461.254-.4974 0-1.2524.254-1.7498 0-1.9985-.758-4.2456 0-6.4928 0-.2574.249-.2574 0-.2574.249-1.0035-.254-1.5009 0-1.9985 0-.2488.249-.7462.249-1.0036-.249-.2488-.249-.7462-.249-.995.249-.2488 0-.2488 0-.2488 0-.5062.249-.7461 0-1.5009.249-1.2524-.499-2.7533.249-4.2543 0-.9949-.249-1.9983 0-3.242-.249-.2574 0-.4977 0-.7551-.249-1.2523 0-2.9932-.503-4.4942.254-.5059 0-1.2524 0-1.7497-.245-.2574.254-.506.503-1.0036 1.003-.4974 2.256 0 3.517 0 2.501-.4974 5.264-.4974 7.773-.7548 2.76.506 4.761-.2488 7.529 0 1.506 0 3.262-.7461 4.76-.2488 2.264-.7461 5.023-.2399 7.528-.4973l.749.2574c1.252 0 2.513-.2574 3.262.4887 0 0 .504 0 0 .2574.504.7462.255 1.7498.255 2.5045h-.255c.504.2403 0 .2403.255.2403-.255.5059.249 1.0035.503 1.2523 1.253.7548 2.759 0 4.257.7548 1.261 0 2.768-.506 3.767.24 2.263 0 3.761.7461 5.771 1.0035.749 1.0036 2.256.4974 3.017 1.2524 1.498 0 2.51.4974 3.509 1.501 1.252.9949 3.004.9949 4.265 2.2471 1.752.4976 2.505 1.75 4.011 2.5045 0 .2402.504.2402.758.7462.245 1.5009 1.252 2.7444 1.498 4.4942.254 0 0 0 0 .2574.504.995 1.007 1.5009.757 2.4873.495.5146.25 1.2607.749 1.7583 0 .7462.259 1.2522.504 2.0069.749 2.9936 1.506 5.4895 1.756 8.7485.254.7462-.504 1.2436-1.007 1.7412-.245 0-.495.7461-.994 1.0035-.259.995-1.261 1.9986-1.511 2.9933-.5.5062-1.506 1.0036-1.506 1.501-1.004.2488-.5 1.5095-1.262 1.7497-.749.7462-1.248 1.5012-2.001 1.7498-.749.4973-1.003 1.5009-1.997 1.7497-.762.7547-2.011 1.2527-2.011 2.5047-.258 0-.757.24-.757.755-.495.986-1.511 0-2.251.746-.512-.258-1.012 0-1.515.24-.995.257-2.002-.24-2.759 0-.994.746-1.757-.497-2.751.257-1.011 0-2.01-.257-2.767 0-.749-.257-2.01 0-2.76-.497-1.498 0-2.513-.746-4.011-1.004-1.003-1.003-1.003-2.7529-1.506-3.7479-.758-.7461-.999-1.7497-1.507-2.2471 0-1.2521-.504-2.0069-.504-3.0105-.749-2.7447-2.255-5.738-2.505-8.7484-.499-.995-.757-1.9898-1.002-3.2421.503-2.4959 2.513-3.7567 3.507-5.7466.758-1.0036 2.011-1.501 2.514-2.5045.749-.4974 1.752-1.501 3.013-1.0036 1.252 0 1.756-.4974 3.004-.4974h3.017v-.2488c.994.2488 2.002-.7462 2.76-.2402 1.751-.2574 2.75.489 4.76.489.254 0 1.012 0 1.012.7548.241 1.0036.241 1.7497.998 2.5045.758 1.2435 1.253 2.2471 2.01 3.4909.246 1.2524 1.248 2.5045 1.248 3.7566-1.002 1.2436-.254 2.7445-1.248 3.9969-.258.995 0 2.4959-1.015 3.4995.258.2488 0 .7462-.237.995-1.515 0-2.514.2571-3.766 1.0035-.255-.2488-1.012-.7461-1.262 0-.749-.2488-1.248 0-1.506-.2488l-.491.2488c-1.261 0-2.514 0-3.766.4974 0 0-.504.4974-1.012 0 .758-1.7497 1.761-3.748 2.011-5.4978.757-.7462 1.76-.2574 2.264-.7462.994.2488 1.751.4888 2.5 0 .762-1.0035 0-2.0069 0-3.0018.504-1.2524-.245-2.2472 0-3.7567-.499-.4976-.749-.9864-1.751-.4976-1.008.4976-1.756-.4888-3.013 0-.25.4976-1.503.7548-2.505 1.0036-.245-.506-.758 0-1.261 0-1.253.4973-3.263-.2488-4.257 1.0035 0 .4974.245.995 0 1.2436.245.2574.245.4976 0 .755.245.995 0 1.4923.245 2.2471v1.75c.258.4974 0 1.2521.503 1.9983 0 0-.245.2488-.245.7462.491.2574.491 1.2523.749 2.0071.254.2488 0 .7462.499 1.2436.258 0 .258 1.0035.258 1.0035 0 1.2436.491 2.9933 2.011 3.9969h1.992.758l3.517.2571c.994.4888 1.497-.2571 2.5-.2571.25-.4976 1.262-.2488 1.756-.4976h.504c.758.2488 1.012-.506 1.752-.506.757.506 1.511-.7462 2.268-.9864 1.498-1.0035 2.501-3.0105 4.008-4.0054.503-1.9986 2.763-2.2557 2.513-3.9969.25-3.0105-.749-5.4978-.749-8.0023-.512-2.0069-.757-3.7483-.757-5.4978-.254-.506-.504-1.5009-.757-2.0069-.25-.4974-1.253-.4974-1.253-1.4923-.504-.2488-.504-.7548-.994-.995-.762-.7548-1.262-1.261-2.011-2.0072-.503-.2488-1.015-1.0035-1.756-1.0035-.512-.995-1.764 0-2.513-.7462-.5-.2488-1.003.2488-1.761-.2488-.249 0-.495.4974-.749 0-1.007.7548-1.756-.2488-2.759.2488-.749 0-1.506-.2488-2.504 0-.255-.2488-.504 0-1.012.2488-.999-.4974-1.993-.2488-3.254-.2488-.749-.2488-1.765.7462-2.759 0-1.008-.2488-2.01 1.0033-3.517.7462-.749 1.0035-1.498 2.0071-2.514 2.753-.245.7551-1.756.4974-1.756 1.501-.748.7462-1.248 1.7497-1.997 2.2473-.753 1.0036-1.261 2.2472-2.01 3.0019-.749 1.0036.254 2.2471 0 3.4995-.249 0 0 .2572 0 .4974.254 2.0071-.249 4.2542.5 6.5016.249 1.5009 0 3.0019.503 5.0002h-.254c.254.7461 0 1.7411.254 2.4959 0 .5062.254 1.0036.254 1.5095 0 .9864 0 1.7412.504 2.4873.25 2.5044 1.253 4.7514 1.756 7.2474.245 1.004.245 1.759 1.252 2.256 1.249 0 2.011 1.003 3.005.746 1.012.257 2.264-.249 3.013.257 3.508.747 7.274.995 11.036.995 2.01-.248 3.766 0 5.518-.248 2.01.248 4.515.248 6.525-.258 1.253.258 2.514 0 4.02-.489.749-1.003.994-2.753 2.002-4.005 1.002-1.004 1.002-2.504 2.01-3.491 0-1.003 1.003-1.5094 1.003-2.7618.249-.7462 1.253-1.2435.998-2.4959.758-1.2435 1.761-2.7447 2.01-4.2457 1.003-1.2523 1.003-2.2557 2.011-3.4995 1.248-1.9985.499-3.748.245-5.7551-.245-.4977-.245-1.2436-.245-1.7412 0-1.5095-.259-2.4959-.762-3.7566-.246-.995 0-1.501-.246-2.5046 0-.9863-.504-1.7411-.245-2.7447-.504-1.9897-.757-3.7397-1.506-5.4978-.259-.4973-1.007-1.2435-1.511-1.7497 0-.7462-1.507-.7462-1.752-1.501-1.506-.4973-2.01-1.7497-4.011-2.2473-.255-1.0033-1.253-.7462-2.011-1.4924-1.007-.5145-2.514-.5145-3.004-1.7583-.762 0-1.261-.4974-2.268-.4974-.5-.2488-.758-.5062-.758-.9949-1.252.2488-1.992-1.0036-3.004-1.0036-.25-1.2522-2.26-.2488-2.759-1.2522-1.007.2489-1.253-.7461-2.26-.4973-.499-.7548-1.507-.2488-2.006-.7548-.495 0-1.253.2488-1.502-.4974 1.007-1.7497 3.262-.7461 5.019-1.0035 1.003.5062 1.497-.7462 2.759-.24.499-.5062.749 0 1.506 0 2.247 0 4.76.24 7.27-.2574v.2574c.753 0 1.007-.2574 1.511 0h2.501c2.513-.5062 4.02.4974 6.279 0 .749-.5062 1.507 0 1.998 0h4.769c.503.24 1.007 0 1.252 0h-.245c1.003 0 2.01.4974 2.513 0l16.554-.2574-.258-.2488c1.016.2488 2.768-.4974 3.263.5062.503-.2574 1.007-.2574 1.515-.2574.494 1.7583.241 2.5045 0 4.5028-.254.2488 0 .7462 0 1.0036-.254.7462 0 .995 0 1.7497-.254.9864.494 2.9933-.508 3.9969l.254.2488h-.254c.508.995.254 2.4959.508 3.2507-.254.4976.494 1.4923 0 2.2473-.254 1.2524.494 2.496-.254 4.2457-.254 1.9985.494 4.0055.254 5.9954 0 .7548.241 1.2607 0 2.0069 0 2.5045.494 5.249 0 8.0023.74.995 0 2.5045.494 3.9969-.494 1.5009 0 2.7447 0 4.2456.246 1.0036-.748 2.0069 0 3.0022-.748 1.7493 0 3.7563 0 5.7463v3.5c.246 1.749-.254 3.499 0 5.506 0 .995-.254 1.99 0 2.993 0 1.004.246 1.75 0 2.745 0 1.75.758 3.508.246 5.258.512 1.003-.246 1.501.258 2.247.254 1.492-.758 2.745 0 3.997-.258 1.501-.504 2.745-.258 3.748-.246 1.244.757 2.496-.246 3.748.246 1.004 1.262 1.999.504 3.251.758 1.003-.504 2.247.5 3.25v2.496c.258.257-.246.755 0 1.253.258 2.247 0 4.751 0 6.998 0 .995.753 2.247 0 3.499.503 1.253.503 2.497.258 3.749.495 1.26.245 3.25.245 4.503.25.746-.245 1.749 0 2.495.25 1.004-.504 1.999.25 2.753 0 .746-.754.746-.754 1.244 1.007.755.259 2.256.754 3.251 0 1.501-.495 2.504 0 3.748 0 1.252-.495 2.753-.25 4.254.25 1.501.504 2.753.504 4.254-.254.24-.254.995-.254 1.492-.25 0 .254.249 0 .498 0 .257.254.515.254.515.503.746 0 1.741.245 2.736-.245 1.012.504 1.758-.245 2.753 0 .995.503 1.741.245 2.496 0 1.749.757 3.996.258 5.755.499.995 0 1.998.245 2.993 0 1.004 0 2.247.254 3.251-.499 1.501.25 2.753 0 4.254.25.497 0 1.243 0 1.749.25 1.244 0 2.745.25 3.989.5 1.75-.503 3.251.5 4.752zm-114.646-159.2145c0 .2488 0 .506-.504.7462-1.997 1.0035-5.26.7547-7.025 1.2521l-.749.2574c-2.505 0-4.511.7462-7.024.4974-.245-.4974-.245-1.0036 0-1.501h-.245c.245-.2574 0-.5062 0-.2574 0-1.9897.245-3.4909 0-5.2404v-1.5009c-.504-1.2524-.504-2.256-.259-3.4995-.245-.4974 0-1.2521 0-1.7583l-.503-1.7409c-.246-.2488.258-.2488 0-.506.503-.2488 1.261 0 1.511.506l.254 1.9985v.2488c.245.7548 0 1.2521.245 1.9983.504 1.0036.749 2.2474.504 3.7483 0 1.0033.245 1.7498.245 2.5043v.7462c0 .7461 0 1.7497.762 2.0069.749 0 1.752.7461 2.255 0 1.003-1.0036 1.003-2.0069 1.003-3.2593-.499-.995 0-2.2471-.499-3.7397.245-1.0033-.504-1.5096-.259-2.5045l-.245-.7462v-.506c-.249-.2488 0-.4973 0-.755.504-.2399 1.004-.7461 1.507-.4887.245.4887 0 1.2435.245 1.7497.258.9864.504 1.7411.258 2.4959.504 2.2471.994 4.4942.994 6.4928.259.5062.504.7548 1.007 1.0036.758-.2488 1.761-1.0036 2.76-.4974.499.2488 1.002 0 1.261-.5062.245-1.9986-.762-3.4909-.762-5.2404-.499-1.7583-.499-3.7483-1.248-5.4978-.25-.7548 0-1.2524-.504-2.0069 0-.4974.504-.4974.749-.7462.504 0 1.003.2488 1.003.4974v.2488c.258 0 0 0 0 .2488.258.506 0 .7548.503 1.2607.259 1.9897.758 3.4909 1.253 5.2404l-.245.2574c.757 1.99 1.248 4.2457 1.752 6.4928z"/><path d="m313.607 235.789v-.271h1.891v.271h-.789v2.046h-.311v-2.046z"/><path d="m315.785 237.835v-2.317h.447l.66 1.959.661-1.959h.447v2.317h-.291v-1.968l-.661 1.968h-.311l-.661-1.968v1.968z"/></g></svg>