<svg fill="none" height="300" viewBox="0 0 500 300" width="500" xmlns="http://www.w3.org/2000/svg" xmlns:xlink="http://www.w3.org/1999/xlink"><clipPath id="a"><path d="m29 105h443v91h-443z"/></clipPath><g clip-path="url(#a)"><path d="m74.1636 107.27h-8.674v42.508c0 15.965-5.6251 20.766-19.8858 20.766-11.9545-.038-16.6038-4.644-16.6038-10.617 0-1.367.5074-5.777 4.8831-5.777 4.3367 0 4.6103 2.928 4.6103 7.69 0 1.99.8208 5.894 5.9385 5.894 8.1267 0 11.7598-3.708 11.7598-16.824v-43.64h-8.3606v-2.264h26.3325zm1.7582 53.125c-1.4455 0-2.6956.468-3.6721 1.483-1.0156 1.015-1.5237 2.225-1.5237 3.669 0 1.445.5081 2.655 1.5237 3.592 1.0156 1.014 2.2266 1.483 3.6721 1.483s2.6566-.468 3.7119-1.483c1.0156-.937 1.523-2.147 1.523-3.592 0-1.483-.5074-2.654-1.523-3.669-1.0155-1.014-2.228-1.483-3.7119-1.483zm56.4542 0c-1.445 0-2.656.468-3.672 1.483-1.016 1.016-1.485 2.225-1.485 3.669 0 1.445.469 2.655 1.485 3.592 1.055 1.014 2.266 1.483 3.672 1.483 1.446 0 2.696-.468 3.711-1.483 1.016-.937 1.524-2.147 1.524-3.592 0-1.483-.508-2.654-1.524-3.669-1.015-1.014-2.265-1.483-3.711-1.483zm-16.37-55.389c20.199 0 23.637 7.611 23.637 18.463 0 10.734-5.588 18.58-25.552 18.58l-6.875.039v16.198c0 1.991.234 2.968.703 4.06.508 1.288 1.602 2.264 3.242 2.927 1.172.43 2.97.664 5.314.742v2.889h-27.7388v-2.889c2.3439-.078 4.1021-.313 5.274-.82 1.5629-.664 2.6175-1.639 3.0873-2.927.4292-1.132.6638-1.328.6638-5.231v-49.768h-7.5795v-2.225zm-3.556 34.584c12.19 0 18.245-5.269 18.245-15.574 0-10.266-3.36-16.551-18.753-16.551l-4.766.078v32.086h5.274m106.502 22.484c-.352-1.132-.547-2.538-.547-4.333v-50.51h6.68v-2.264h-16.291c-.197.585-19.613 48.832-19.613 48.832-.043.078-.105.144-.18.191-.075.048-.161.076-.25.082-.235 0-.391-.117-.469-.273 0 0-20.628-48.247-20.862-48.832h-18.089v2.224h7.502v48.559s-.156 4.489-.156 4.528c-.118 1.171-.508 2.225-1.095 3.084-.625.898-1.602 1.6-2.891 2.069-.86.273-2.148.468-3.711.507v2.888h18.401v-2.888c-1.523-.077-2.187-.234-3.086-.507-1.329-.43-2.306-1.094-2.97-2.03-.586-.859-.977-1.913-1.094-3.162 0 0-.196-4.489-.196-4.528v-41.806h1.055s23.285 54.336 23.559 54.96h1.953l22.074-54.335h.547v43.21c0 1.874-.196 3.357-.547 4.489-.43 1.327-1.368 2.304-2.735 2.967-1.016.468-2.539.703-4.571.78v2.889h25.161v-2.889c-2.032-.116-3.595-.351-4.649-.819-1.562-.741-2.501-1.756-2.93-3.083zm33.833-40.01c12.424 0 21.644 8.47 21.644 24.006 0 19.946-14.377 24.669-21.917 24.669-3.829 0-21.527-1.484-21.527-24.24-.039-15.535 8.4-24.435 21.8-24.435zm-.155 45.865c9.025 0 11.798-5.621 11.798-21.976 0-11.359-.039-21.04-11.798-21.04-10.862 0-11.643 9.368-11.643 21.859 0 16.121 1.523 21.157 11.643 21.157zm56.922-45.163c-8.009 0-10.782 4.724-13.01 9.564 0 0-.587-.039-.625-.039-.039.039-1.602-9.134-1.602-9.134h-15.237v2.42h8.361v31.462c0 3.122-.156 5.542-.977 6.87-.937 1.522-2.852 2.108-6.056 2.108h-1.367v2.888h26.059v-2.888h-1.407c-3.398 0-5.157-.742-6.055-2.226-.821-1.287-1.211-3.512-1.211-6.752v-16.317c0-5.503 4.415-11.827 9.415-11.827 5.235 0 5.392 7.495 11.018 4.802 3.985-1.875 3.087-10.931-7.306-10.931zm103.727 41.415c1.641 0 3.634-1.717 4.063-4.957h1.563c-.43 7.417-4.063 10.383-10.119 10.383-5.391 0-8.36-3.825-8.868-6.987-3.164 3.357-7.853 7.573-15.277 7.573-6.68 0-11.876-5.153-12.189-11.008-.898-14.989 18.832-16.589 27.153-17.331v-7.651c0-2.771-.625-4.996-1.836-6.674-1.289-1.757-3.594-2.615-6.876-2.615-2.813 0-4.884.703-6.212 2.068-1.251 1.327-1.797 2.771-2.187 5.27-.547 3.396-1.993 4.723-4.571 4.723-1.133 0-2.032-.313-2.852-1.015-.781-.663-1.172-1.64-1.172-3.045 0-3.005 1.172-5.075 4.142-7.338 3.047-2.341 7.814-3.512 14.26-3.512 6.719 0 11.368 1.249 13.751 3.669 2.423 2.42 3.088 5.23 3.088 9.328v19.127l.156 5.855c.311 2.616 1.17 4.137 3.983 4.137zm-13.635-19.516c-6.408 0-18.05 4.254-18.05 12.764 0 2.654.938 7.962 7.345 7.962 2.5 0 5.899-1.444 10.353-5.503l.196-.196c.156-.117.156-.195.156-.351zm66.847 19.244c-1.132-1.405-1.368-4.489-1.368-6.831v-20.688c0-3.005-.39-5.542-1.523-7.651-1.132-2.03-2.734-3.59-4.727-4.605-2.032-1.015-4.336-1.522-6.876-1.522-9.142 0-13.127 5.27-14.924 8.821h-.703l-1.602-8.275h-14.183v2.381h7.111v31.501c0 2.421-.196 4.177-.548 5.348-.39 1.405-1.288 2.342-2.617 2.928-.859.351-2.188.586-3.906.663v2.889h22.503v-2.889c-2.265-.195-3.789-.78-4.609-1.951-.899-1.25-1.289-3.357-1.289-6.48v-12.061c0-5.036-.04-9.915 1.679-12.96 1.875-3.278 5.274-5.113 9.063-5.113 3.439 0 5.275 1.093 6.369 3.279 1.212 2.459 1.484 7.026 1.484 10.656v14.95c0 2.498-.077 4.294-.233 5.465-.274 1.366-.587 2.498-1.68 3.2-.782.547-1.992.899-3.594 1.015v2.85h21.682v-2.891c-2.774-.117-4.415-.585-5.509-2.029zm-101.735-43.68c2.461-.78 4.493-.195 5.157 2.577.313 1.327.04 2.928-.742 4.332-.742 1.405-2.032 2.421-4.063 3.045-1.758.586-3.634.586-5.704.117.977 2.108 1.797 5.075 1.797 8.548 0 12.101-9.259 15.731-19.143 17.253-10.08 1.561-12.658 2.772-12.658 5.933 0 2.147 1.328 3.396 8.321 3.396 14.455.703 20.902-.117 25.434 6.09 1.406 1.99 2.109 4.645 2.109 7.963 0 2.42-.624 4.957-1.992 7.417-1.289 2.458-3.711 4.605-7.189 6.362-3.477 1.756-8.321 2.694-14.26 2.694-4.493 0-7.736-.352-12.658-1.835-3.204-.937-7.423-3.513-7.423-8.938 0-1.641.274-3.006 1.016-4.177.82-1.25 2.5-1.991 3.906-1.757 2.5.43 3.242 2.694 2.813 4.84-.507 2.108-.039 5.075 2.384 6.558 3.281 2.03 6.876 2.498 11.29 2.498 5.158 0 9.299-.898 12.347-2.577 3.281-1.834 4.883-4.294 4.883-7.338 0-2.225-.781-3.942-2.305-5.113-1.446-1.054-3.438-1.757-5.9-2.069-2.305-.273-5.86-.467-10.821-.507-5.704-.117-10.236-.781-13.479-2.108-2.93-1.21-5.196-3.357-5.196-7.338 0-6.597 6.172-8.627 13.127-10.032.43-.077.43-.663-.078-.741-8.165-1.718-11.876-6.402-11.876-16.004 0-8.236 5.586-17.252 18.284-17.252 7.853 0 12.346 2.654 14.69 4.801.703.546 2.305.507 3.242.234.938-.313 1.641-1.367 1.992-3.24.469-2.031 1.327-3.202 2.695-3.632zm-22.386 33.296c5.547 0 9.533-1.678 9.533-14.364 0-8.861-2.149-14.638-9.533-14.638-6.329 0-9.299 6.324-9.299 14.794-.038 12.061 3.36 14.208 9.299 14.208z" fill="#06182e"/></g></svg>