<svg fill="none" height="300" viewBox="0 0 500 300" width="500" xmlns="http://www.w3.org/2000/svg"><g fill="#06182e"><g clip-rule="evenodd" fill-rule="evenodd"><path d="m74.5215 129.002c-4.0212.998-8.3795 3.988-10.9161 7.489-7.6439 10.547-2.5987 25.076 10.0932 29.066 4.9971 1.572 8.832 1.09 14.7591-1.854 5.5893-2.776 8.1459-2.751 13.8043.137 8.215 4.193 16.259 3.054 22.64-3.207 3.606-3.537 5.213-7.537 5.232-13.021.027-7.764-3.105-13.185-9.691-16.773-5.778-3.149-12.061-3.079-18.323.201-5.5896 2.929-7.8061 2.961-13.2956.191-4.8218-2.433-10.1427-3.262-14.3029-2.229zm12.7481 5.516c7.0554 3.184 9.7 3.238 15.2634.313 5.889-3.096 10.104-3.521 14.715-1.482 4.493 1.986 6.001 3.335 7.921 7.081 3.875 7.56.905 16.457-6.859 20.546-5.103 2.686-9.455 2.439-15.775-.896-5.8065-3.064-9.024-3.001-15.5929.306-2.8227 1.421-6.1112 2.584-7.3075 2.584-3.982 0-8.1754-1.775-11.299-4.784-6.6029-6.357-6.1889-16.579.9101-22.449 5.4429-4.5 10.0622-4.812 18.0239-1.219z"/><path d="m110.847 155.318c4.369 0 7.95-3.487 7.95-7.835 0-4.349-3.581-7.836-7.95-7.836-4.368 0-7.949 3.487-7.949 7.836 0 4.348 3.581 7.835 7.949 7.835zm0 2.504c5.81 0 10.52-4.629 10.52-10.339 0-5.711-4.71-10.34-10.52-10.34s-10.52 4.629-10.52 10.34c0 5.71 4.71 10.339 10.52 10.339z"/><path d="m79.2867 155.318c4.3688 0 7.9498-3.487 7.9498-7.835 0-4.349-3.581-7.836-7.9498-7.836-4.3687 0-7.9497 3.487-7.9497 7.836 0 4.348 3.581 7.835 7.9497 7.835zm0 2.504c5.8102 0 10.5202-4.629 10.5202-10.339 0-5.711-4.71-10.34-10.5202-10.34-5.8101 0-10.5201 4.629-10.5201 10.34 0 5.71 4.71 10.339 10.5201 10.339z"/></g><path d="m160.225 164.305v-36.141h-8.608v36.141z"/><path d="m175.458 130.933c0-2.869-2.239-4.933-5.473-4.933s-5.473 2.064-5.473 4.933c0 2.819 2.239 4.882 5.473 4.882s5.473-2.063 5.473-4.882zm-1.144 33.372v-27.08h-8.509v27.08z"/><path d="m188.405 150.06c0-4.077 1.891-5.587 3.981-5.587 2.587 0 3.782 1.862 3.782 5.285v14.547h8.508v-17.416c0-6.594-3.732-10.168-9.006-10.168-3.383 0-5.871 1.41-7.961 3.776v-3.272h-7.812v27.08h8.508z"/><path d="m218.532 164.305v-12.332l8.658 12.332h10.847l-11.295-14.245 9.902-12.835h-9.802l-8.31 10.973v-20.034h-8.508v36.141z"/><path d="m259.835 164.305v-14.698c0-3.624 1.741-5.134 3.931-5.134 2.438 0 3.682 1.963 3.682 5.084v14.748h8.508v-14.698c0-3.624 1.791-5.134 3.931-5.134 2.438 0 3.682 1.963 3.682 5.084v14.748h8.509v-17.416c0-6.594-3.732-10.168-9.056-10.168-3.931 0-6.319 1.561-8.608 4.178-1.493-2.718-4.18-4.178-7.563-4.178-3.483 0-5.673 1.41-7.713 3.826v-3.322h-7.812v27.08z"/><path d="m322.144 137.225h-8.559l-5.174 16.761-5.772-16.761h-9.255l10.449 26.778-3.732 10.017h9.305z"/><path d="m343.606 151.822c0-5.99 3.832-6.443 9.852-5.839v-8.96c-4.279 0-8.508 1.813-10.548 4.984v-4.782h-7.812v27.08h8.508z"/><path d="m366.374 130.933c0-2.869-2.239-4.933-5.474-4.933-3.234 0-5.473 2.064-5.473 4.933 0 2.819 2.239 4.882 5.473 4.882 3.235 0 5.474-2.063 5.474-4.882zm-1.145 33.372v-27.08h-8.508v27.08z"/><path d="m369.121 150.765c0 7.752 4.727 14.044 11.941 14.044 3.135 0 5.772-1.259 7.962-3.574v3.07h7.812v-36.141h-8.509v11.578c-2.09-2.014-4.478-3.021-7.265-3.021-7.214 0-11.941 6.192-11.941 14.044zm8.856 0c0-4.329 2.538-6.292 5.125-6.292 2.588 0 5.125 1.913 5.125 6.242 0 4.278-2.487 6.342-5.125 6.342-2.587 0-5.125-2.064-5.125-6.292z"/><path d="m414.488 164.758c6.667 0 11.394-3.473 13.036-9.664h-8.508c-.747 1.963-2.339 2.97-4.727 2.97-2.737 0-4.329-1.712-4.777-5.135h18.162c1.542-8.909-4.379-16.208-13.236-16.208-7.961 0-13.733 5.89-13.733 13.994 0 8.406 5.523 14.043 13.783 14.043zm-.249-21.694c2.538 0 4.229 1.761 4.329 4.48h-8.956c.597-3.021 2.089-4.48 4.627-4.48z"/><path d="m441 159.07c0-3.271-2.19-5.537-5.374-5.537-3.185 0-5.424 2.266-5.424 5.537 0 3.222 2.239 5.487 5.424 5.487 3.184 0 5.374-2.265 5.374-5.487z"/></g></svg>