<svg fill="none" height="300" viewBox="0 0 500 300" width="500" xmlns="http://www.w3.org/2000/svg" xmlns:xlink="http://www.w3.org/1999/xlink"><clipPath id="a"><path d="m24 123h452v54h-452z"/></clipPath><g clip-path="url(#a)"><path d="m57.6643 126.936h17.4214v.68l-2.8054 2.831c-.3297.293-.5913.655-.7659 1.061-.1746.407-.2579.847-.244 1.29v44.202h-.6733l-32.935-30.525v22.823c-.0254.437.05.874.2204 1.277s.431.761.7615 1.045l2.8054 2.831v.68h-17.4494v-.68l2.8054-2.831c.3355-.281.6015-.638.7768-1.041s.2551-.842.2331-1.281v-44.571h.6172l32.963 30.441v-22.37c.0367-.438-.0278-.878-.1885-1.286s-.4131-.772-.7373-1.065l-2.8054-2.831zm66.0107 34.518c0 9.373-6.537 13.677-17.225 13.677h-27.4929v-.68l2.8053-2.831c.3395-.284.6079-.645.7834-1.053.1754-.409.2531-.853.2265-1.297v-36.472c.0266-.445-.0511-.889-.2265-1.297-.1755-.409-.4439-.77-.7834-1.054l-2.8053-2.831v-.68h27.7449c10.043 0 15.037 4.814 15.037 13.026-.082 2.364-.961 4.629-2.491 6.421-1.531 1.791-3.621 3.003-5.925 3.433 6.424 1.104 10.464 4.955 10.464 11.525m-30.2982-15.319h11.8672c3.646 0 5.61-1.756 5.61-5.126s-1.655-5.153-5.61-5.153h-11.8672zm19.3012 14.158c0-4.248-2.553-5.918-7.631-5.918h-11.6702v11.779h11.6702c4.32 0 7.631-1.5 7.631-5.861zm40.257 6.768c-8.108 0-13.634-6.287-13.634-15.688 0-9.967 6.115-15.914 14.026-15.914 2.175-.22 4.36.298 6.209 1.473 1.85 1.174 3.258 2.938 4.003 5.012l.729.198 4.012-16.452-.673-.283c-1.293 1.147-2.964 1.764-4.685 1.727-2.329 0-5.948-.906-10.296-.906-14.027 0-24.968 9.514-24.968 25.088 0 15.575 10.773 24.919 24.744 24.919 3.332.123 6.653-.458 9.75-1.706 3.096-1.249 5.9-3.137 8.232-5.543l-6.228-7.645c-1.278 1.788-2.966 3.238-4.92 4.224-1.955.987-4.117 1.48-6.301 1.439m49.879-39.247 2.805 2.832c.332.292.597.653.776 1.059s.269.847.262 1.291v23.701c0 6.909-3.45 10.307-9.51 10.307-6.059 0-9.622-3.228-9.622-10.307v-23.729c-.023-.447.059-.893.239-1.301.18-.409.454-.769.799-1.05l2.805-2.831v-.652h-18.263v.68l2.806 2.832c.339.284.607.645.783 1.053.175.408.253.853.227 1.297v23.418c0 13.337 8.416 19.822 20.226 19.822 11.811 0 20.255-6.57 20.255-19.822v-23.446c-.027-.445.051-.889.226-1.297.176-.409.444-.77.784-1.054l2.805-2.831v-.652h-18.403zm56.724 40.804v-13.903c0-8.269-4.067-13.082-11.053-13.082-2.233-.055-4.435.53-6.352 1.688s-3.469 2.84-4.476 4.853v-5.919h-13.606v.737l2.805 2.831c.87.878 1.01 1.445 1.01 3.172v19.822c0 1.727 0 2.293-1.01 3.171l-2.805 2.832v.679h17.617v-.679l-2.805-2.832c-.87-.878-1.01-1.444-1.01-3.171v-11.299c0-3.908 1.908-6.994 6.2-6.994 3.619 0 5.302 2.662 5.302 6.484v18.293h13.858v-.68l-2.805-2.831c-.87-.878-.982-1.444-.982-3.172m21.377 0v-26.363h-13.746v.737l2.805 2.831c.87.878 1.01 1.445 1.01 3.172v19.822c0 1.727 0 2.293-1.01 3.171l-2.805 2.832v.679h17.73v-.679l-2.806-2.832c-.869-.878-1.038-1.444-1.038-3.171m-5.133-31.489c.781.012 1.557-.136 2.281-.434.723-.298 1.38-.741 1.93-1.301.55-.561.983-1.228 1.271-1.961.289-.733.428-1.518.409-2.307.015-.785-.127-1.565-.418-2.294-.29-.728-.724-1.39-1.274-1.945s-1.205-.993-1.927-1.286-1.495-.437-2.272-.421c-.826-.082-1.66.013-2.447.276-.788.263-1.512.69-2.127 1.253-.614.562-1.105 1.248-1.441 2.014s-.51 1.594-.51 2.432c0 .837.174 1.665.51 2.431s.827 1.452 1.441 2.015c.615.562 1.339.989 2.127 1.252.787.264 1.621.358 2.447.276zm46.569 4.899h-12.568l-5.808 15.971h-.168l-6.649-15.943h-12.399v.737c2.22 1.735 3.975 4.003 5.105 6.598l13.354 27.184h.729l13.27-27.184c1.09-2.627 2.864-4.907 5.134-6.598zm32.205 16.537v2.832h-22.639c.343 1.889 1.38 3.578 2.905 4.728 1.524 1.15 3.422 1.676 5.315 1.473 1.287.051 2.571-.175 3.766-.663 1.195-.489 2.273-1.228 3.163-2.169l5.611 6.74c-3.811 3.021-8.57 4.558-13.41 4.332-10.801 0-17.674-6.626-17.674-16.99-.156-2.356.187-4.719 1.008-6.931.821-2.211 2.1-4.22 3.752-5.893 1.651-1.673 3.638-2.97 5.826-3.806 2.189-.835 4.529-1.19 6.863-1.039 10.857 0 15.626 7.22 15.626 17.131m-10.239-3.058c.059-.825-.054-1.654-.331-2.433s-.711-1.492-1.277-2.091c-.565-.6-1.248-1.074-2.005-1.392s-1.571-.473-2.391-.455c-1.712-.031-3.367.621-4.606 1.813-1.239 1.193-1.963 2.831-2.014 4.558zm27.605-6.796v-6.4h-13.606v.737l2.805 2.831c.87.878 1.01 1.445 1.01 3.172v19.822c0 1.727 0 2.293-1.01 3.171l-2.805 2.832v.679h17.645v-.679l-2.805-2.832c-.842-.878-.982-1.444-.982-3.171v-10.194c0-4.956 2.413-7.618 6.284-7.618 1.802-.008 3.539.681 4.853 1.926l2.637-10.336c-1.317-.652-2.768-.982-4.236-.962-2.184.041-4.303.766-6.061 2.074-1.759 1.309-3.072 3.137-3.758 5.231m35.068 6.117c-4.489-.737-7.856-.737-7.856-3.427 0-1.529 1.263-2.548 4.209-2.548 3.983 0 7.686 1.331 9.061 4.389l.701.198 3.17-12.601-.673-.255c-1.22 1.101-2.796 1.715-4.432 1.728-2.217 0-4.265-.878-8.417-.878-7.181 0-14.026 2.605-14.026 10.788 0 6.4 5.049 8.864 9.874 9.685 4.826.821 8.164.934 8.164 3.681 0 1.586-1.375 2.832-4.292 2.832-3.944.036-7.779-1.305-10.857-3.795l-4.685 7.051c4.328 3.089 9.544 4.652 14.841 4.446 9.426 0 15.261-4.191 15.261-11.553 0-6.343-5.33-8.807-10.24-9.656m45.812 16.735 2.805 2.831v.68h-13.634v-4.559c-1.026 1.768-2.52 3.213-4.313 4.173-1.794.96-3.817 1.398-5.842 1.264-1.319.105-2.645-.065-3.896-.501-1.25-.435-2.399-1.126-3.373-2.03-.974-.903-1.753-2-2.288-3.221-.536-1.221-.816-2.541-.823-3.876 0-7.334 4.993-10.732 15.906-10.958 3.507 0 4.433-.85 4.433-2.832s-1.599-3.37-5.836-3.37c-1.506.01-2.994.335-4.37.954s-2.61 1.518-3.625 2.642l-5.33-6.342c1.954-1.774 4.237-3.137 6.717-4.012s5.108-1.244 7.731-1.085c10.351 0 14.84 4.332 14.84 12.799v14.158c0 1.727.14 2.294 1.01 3.172m-11.025-11.327c-1.378.339-2.79.519-4.208.538-4.517.283-6.088 1.954-6.088 4.219-.025.499.055.997.235 1.462.179.465.454.887.807 1.237.352.351.774.622 1.237.796.464.174.959.247 1.452.215.843.087 1.694-.006 2.498-.272.805-.267 1.545-.701 2.172-1.275.627-.575 1.128-1.276 1.469-2.058.341-.783.514-1.629.51-2.484zm31.336 11.327c-.898-.878-1.038-1.445-1.038-3.172v-45.42h-13.803v.68l2.806 2.831c.869.878 1.01 1.444 1.01 3.143v38.794c0 1.728-.141 2.294-1.01 3.172l-2.806 2.831v.68h17.59v-.68z" fill="#06182e"/></g></svg>