<svg fill="none" height="300" viewBox="0 0 500 300" width="500" xmlns="http://www.w3.org/2000/svg" xmlns:xlink="http://www.w3.org/1999/xlink"><clipPath id="a"><path d="m83 65h334v170h-334z"/></clipPath><mask id="b" height="170" maskUnits="userSpaceOnUse" width="334" x="83" y="65"><path d="m83 65h334v170h-334z" fill="#fff"/></mask><g clip-path="url(#a)"><g mask="url(#b)"><path d="m272.619 124.883h4.101v-23.035l17.355 23.035h3.509v-30.2392h-4.101v23.0992l-17.355-23.0992h-3.509zm0 80.07h4.016v-22.079l6.828 12.792h3.171l6.934-12.962v22.249h4.016v-30.239h-3.847l-8.456 15.98-8.815-15.98h-3.847zm29.404-90.802c0 6.439 4.715 11.263 10.697 11.263 3.509 0 6.405-1.658 8.033-4.484v3.953h4.016v-21.463h-4.016v3.846c-.832-1.38-2.015-2.513-3.426-3.283-1.412-.769-3.002-1.147-4.607-1.094-5.982 0-10.697 4.802-10.697 11.262zm.846 82.387c0 5.418 3.425 8.925 8.794 8.925 5.39 0 8.9-3.507 8.9-8.925v-13.069h-4.017v13.324c0 3.187-1.881 5.248-4.862 5.248-2.917 0-4.799-2.061-4.799-5.248v-13.324h-4.016zm3.277-82.387c0-4.398 3.171-7.565 7.335-7.565 4.122 0 7.272 3.188 7.272 7.544 0 4.314-3.171 7.565-7.272 7.565-.979.006-1.95-.186-2.854-.565s-1.722-.937-2.407-1.642c-.684-.704-1.221-1.539-1.577-2.456-.357-.917-.526-1.897-.497-2.881zm18.179 89.165c2.051 1.552 4.862 2.147 7.019 2.147 5.221 0 8.286-2.402 8.286-6.439 0-3.081-1.522-5.313-5.707-6.375l-2.749-.659c-2.135-.531-2.917-1.487-2.917-2.762 0-1.637 1.628-2.827 4.207-2.827 2.304 0 4.439.68 6.321 1.977v-3.868c-2.035-1.043-4.291-1.575-6.575-1.551-4.122 0-7.885 2.486-7.885 6.439 0 2.762 1.544 5.078 5.814 6.098l2.494.617c2.22.51 3.171 1.445 3.171 2.996 0 1.912-1.649 2.932-4.376 2.932-2.598.007-5.114-.911-7.103-2.592zm3.7-96.475h3.763v9.967c0 5.673 3.17 8.585 7.694 8.585 1.29 0 2.748-.34 4.376-1.105v-3.358c-1.289.68-2.41 1.02-3.763 1.02-2.494 0-4.291-1.7-4.291-5.227v-9.882h7.526v-3.442h-7.526v-6.3752h-4.016v6.3752h-3.763zm19.236 9.627c0 5.397 3.425 8.925 8.816 8.925 5.39 0 8.878-3.528 8.878-8.925v-13.069h-4.016v13.324c0 3.187-1.861 5.227-4.862 5.227-2.897 0-4.778-2.061-4.778-5.227v-13.324h-4.016v13.069zm37.036-2.338c0 6.46 4.714 11.263 10.697 11.263 3.509 0 6.405-1.637 8.033-4.463v3.953h4.016v-21.463h-4.016v3.846c-.832-1.38-2.015-2.513-3.427-3.283-1.411-.769-3.001-1.147-4.606-1.094-5.983 0-10.697 4.802-10.697 11.262zm4.101 0c0-4.377 3.171-7.544 7.357-7.544 4.101 0 7.272 3.188 7.272 7.544 0 4.314-3.171 7.565-7.272 7.565-.981.009-1.954-.181-2.86-.559-.907-.378-1.728-.935-2.415-1.64-.686-.704-1.225-1.541-1.583-2.459-.357-.918-.527-1.9-.499-2.886zm24.12 10.753h4.017v-30.2392h-4.017zm-42.743 0v-21.463h4.016v4.08c.463-1.345 1.33-2.513 2.481-3.343 1.151-.829 2.529-1.28 3.946-1.289.93 0 1.966.085 2.896.51v3.782c-1.015-.372-2.092-.545-3.171-.51-2.537 0-6.131 2.316-6.131 7.119v11.092h-4.016zm19.384 80.07v-21.463h4.123v2.741c.436-1.005 1.164-1.855 2.087-2.438.924-.584 2.001-.875 3.092-.834 2.452 0 4.65 1.211 5.707 3.612.538-1.1 1.376-2.025 2.416-2.664 1.041-.64 2.241-.969 3.461-.948 4.207 0 6.934 3.017 6.934 7.82v14.174h-4.144v-14.45c0-3.4-1.902-4.102-3.403-4.102-2.537 0-4.312 1.892-4.312 4.293v14.259h-4.123v-14.153c0-3.527-1.839-4.377-3.424-4.377-2.537 0-4.291 1.891-4.291 4.377v14.174h-4.123zm-22.682-8.415v-13.069h4.016v13.324c0 3.187 1.903 5.248 4.863 5.248 2.917 0 4.883-2.061 4.883-5.248v-13.324h4.016v13.069c0 5.418-3.488 8.925-8.878 8.925-5.391 0-8.879-3.507-8.879-8.925zm-4.016-2.763c0-6.162-3.171-10.816-9.577-10.816-6.151 0-10.421 4.802-10.421 11.262 0 6.694 4.524 11.263 11.035 11.263 3.762 0 6.658-1.296 8.371-2.933v-4.037c-.952 1.113-2.133 2.005-3.462 2.614s-2.773.92-4.233.913c-4.608 0-7.356-2.932-7.779-6.885h15.981c.085-.765.085-1.19.085-1.381zm-15.897-1.87c.592-3.527 2.917-5.525 6.151-5.525 3.594 0 5.645 2.338 5.729 5.525zm-73.987-26.987h4.122v-13.494h16.763v13.494h4.101v-30.239h-4.101v12.877h-16.763v-12.856h-4.08v30.239zm29.658-27.413c0 1.551 1.184 2.763 2.811 2.763 1.628 0 2.833-1.212 2.833-2.763 0-1.53-1.205-2.826-2.833-2.826-1.627 0-2.811 1.275-2.811 2.826zm.845 27.413h4.017v-21.463h-4.017zm8.815-1.637c2.159 1.425 4.69 2.172 7.272 2.147 5.285 0 8.541-2.402 8.541-6.439 0-3.081-1.628-5.313-5.983-6.375l-2.811-.659c-2.156-.531-3.002-1.487-3.002-2.762 0-1.552 1.374-2.763 3.763-2.827 2.473-.085 4.862.595 6.933 1.977v-3.868c-2.098-1.056-4.418-1.588-6.764-1.551-4.27 0-7.949 2.486-7.949 6.439 0 2.762 1.544 5.078 5.983 6.098l2.558.617c2.325.51 3.255 1.445 3.255 2.996 0 1.806-1.543 2.847-4.101 2.932-2.793.107-5.529-.815-7.695-2.592zm17.546-16.405h3.911v9.967c0 5.673 3.171 8.585 7.695 8.585 1.289 0 2.748-.34 4.375-1.105v-3.358c-1.289.68-2.41 1.041-3.762 1.041-2.495 0-4.292-1.721-4.292-5.248v-9.882h7.885v-3.442h-7.885v-6.354h-4.016v6.375h-3.932v3.421zm17.377 7.31c-.001 1.501.297 2.987.876 4.37s1.427 2.636 2.494 3.686c1.068 1.049 2.333 1.873 3.722 2.424 1.388.551 2.873.817 4.365.783 1.489.034 2.969-.233 4.353-.784 1.384-.552 2.644-1.378 3.704-2.428 1.061-1.051 1.901-2.304 2.471-3.687.569-1.383.857-2.867.845-4.364 0-6.375-4.947-11.262-11.373-11.262-1.492-.034-2.977.232-4.365.783-1.389.551-2.654 1.375-3.722 2.424-1.067 1.049-1.915 2.302-2.494 3.686-.579 1.383-.877 2.869-.876 4.369zm4.101 0c0-4.292 3.17-7.565 7.356-7.565.977 0 1.944.197 2.843.58s1.712.945 2.391 1.651 1.209 1.542 1.559 2.458c.35.917.513 1.895.479 2.876 0 4.378-3.171 7.565-7.272 7.565-.985.018-1.964-.166-2.876-.542s-1.738-.935-2.427-1.644c-.689-.708-1.226-1.551-1.58-2.476-.353-.925-.514-1.913-.473-2.903zm22.661 10.732h4.016v-11.072c0-4.823 3.594-7.14 6.173-7.14 1.08-.035 2.156.138 3.171.51v-3.782c-.925-.378-1.92-.552-2.917-.51-3.002 0-5.475 1.976-6.406 4.632v-4.122h-4.016v21.484zm15.41-21.463 9.407 21.123c-1.374 2.656-3.171 4.037-5.559 4.037-1.08.035-2.156-.138-3.171-.51v3.783c.93.425 2.05.51 3.002.51 4.692 0 7.61-3.103 9.407-7.31l9.237-21.654h-4.291l-6.574 16.681-6.934-16.681h-4.524zm-204.585 2.55 12.218-7.012-8.667.722-1.311-2.274 4.989-7.182-12.176 7.119-1.628-2.635 17.546-10.158 1.649 2.678-6.067 9.286 10.971-.765 1.48 2.762-17.546 10.2zm-6.575 19.146 17.546 10.2 1.67-2.698-6.152-9.159 11.035.637 1.48-2.783-17.546-10.2-1.458 2.762 12.239 7.013-8.688-.723-1.311 2.253 4.989 7.182-12.176-7.119zm-18.179 1.233v20.336l3.171.106 4.798-9.923 4.968 9.923 3.171-.106v-20.336l-3.108.085.064 14.152-3.7-7.926h-2.621l-3.699 7.926.063-14.152-3.086-.085zm-10.126-15.215-17.546 10.2 1.48 2.762 10.993-.765-6.089 9.287 1.67 2.698 17.546-10.2-1.628-2.613-12.197 7.118 4.989-7.182-1.29-2.274-8.688.744 12.219-7.013zm8.033-16.405-17.546-10.179-1.649 2.699 6.131 9.137-11.035-.637-1.48 2.805 17.546 10.157 1.459-2.72-12.24-7.033 8.688.743 1.311-2.273-4.989-7.183 12.176 7.119zm18.18-1.211v-20.358l-3.171-.106-4.799 9.924-4.968-9.924-3.17.106v20.358l3.107-.107-.042-14.152 3.699 7.926h2.6l3.7-7.926-.043 14.152zm27.121-33.469-9.428 18.02-3.002-1.7 3.911-7.48-8.138-4.293-3.911 7.48-3.087-1.53 9.429-18.0197 3.086 1.53-3.911 7.4797 8.139 4.293 3.911-7.4802zm17.165 19.231-6.912 4.781-5.222-7.607 6.913-4.781-2.029-2.805-16.679 11.56 2.029 2.783 6.934-4.781 5.221 7.608-6.934 4.781 1.882 2.911 16.679-11.56zm8.202 27.923-8.35.998-1.12-9.158 8.35-1.02-.507-3.422-20.104 2.444.508 3.421 8.35-1.02 1.099 9.18-8.35 1.02.317 3.443 20.103-2.444zm-5.707 28.581-7.864-2.996 3.277-8.649 7.842 2.996 1.142-3.272-18.941-7.225-1.142 3.272 7.864 2.996-3.255 8.649-7.864-2.996-1.311 3.187 18.941 7.225zm-18.222 22.631-5.56-6.311 6.87-6.141 5.581 6.332 2.516-2.359-13.445-15.257-2.494 2.38 5.559 6.332-6.87 6.12-5.581-6.332-2.642 2.21 13.423 15.257zm-26.636 11.539-1.987-8.203 8.921-2.21 2.008 8.203 3.319-.914-4.841-19.762-3.319.913 2.009 8.203-8.921 2.21-2.008-8.203-3.383.723 4.862 19.762 3.361-.722zm-28.876-2.189 2.029-8.202 8.921 2.21-2.008 8.202 3.361.723 4.862-19.763-3.382-.722-2.008 8.202-8.921-2.21 2.008-8.202-3.319-.935-4.862 19.762zm-24.564-15.512 5.581-6.312 6.87 6.12-5.58 6.333 2.642 2.231 13.445-15.236-2.643-2.21-5.581 6.311-6.87-6.12 5.56-6.311-2.495-2.38-13.444 15.236 2.515 2.359zm-14.607-25.16 7.864-2.975 3.255 8.627-7.863 2.996 1.31 3.188 18.941-7.204-1.311-3.187-7.863 2.975-3.256-8.628 7.864-2.996-1.121-3.273-18.961 7.225zm-1.311-29.092 8.35 1.02-1.099 9.18-8.35-1.02-.317 3.443 20.104 2.444.317-3.443-8.35-1.02 1.12-9.159 8.35 1.02.507-3.421-20.103-2.465zm12.304-26.35 6.933 4.782-5.221 7.607-6.934-4.802-1.86 2.89 16.658 11.581 1.881-2.911-6.913-4.803 5.222-7.607 6.912 4.802 2.051-2.784-16.7-11.56-2.029 2.784zm23.105-17.6372 3.91 7.5012-8.138 4.293-3.911-7.4805-3.002 1.7005 9.407 18.02 3.002-1.7-3.911-7.48 8.16-4.293 3.89 7.48 3.107-1.53-9.428-18.02-3.086 1.53zm28.601-4.8025v8.4575h-9.195v-8.4575l-3.446.1062v20.3575l3.446-.106v-8.436h9.195v8.457l3.446.106v-20.3572l-3.446-.1063zm30.271-16.49-6.574 19.2525-3.044-1.1475-4.439-16.4263-4.439 13.345-3.298-1.02 6.574-19.2525 3.108.9563 4.439 16.4262 4.439-13.345zm20.4 13.3662-8.519 11.1563 1.12-16.9575-2.621-1.9125-12.472 16.0437 2.79 2.04 8.54-11.1562-1.12 16.9577 2.494 2.082 12.451-16.0647zm17.651 21.4835-11.69 7.778 6.553-15.6827-1.86-2.6563-16.975 11.114 1.966 2.847 11.69-7.777-6.553 15.682 1.691 2.763 16.975-11.114zm9.724 26.095-13.55 3.549 11.246-12.707-.888-3.124-19.659 4.994.951 3.315 13.571-3.549-11.267 12.707.698 3.188 19.659-4.994-.761-3.4zm.782 27.838-13.973-1.063 14.755-8.33.17-3.272-20.188-1.679-.212 3.464 13.994 1.062-14.755 8.33-.359 3.252 20.188 1.678zm-8.244 26.605-12.895-5.568 16.658-3.081 1.205-3.017-18.561-8.182-1.268 3.188 12.853 5.589-16.637 3.06-1.395 2.953 18.539 8.182 1.48-3.124zm-16.446 22.419-10.38-9.457 16.743 2.529 2.114-2.465-14.904-13.812-2.262 2.635 10.38 9.456-16.742-2.529-2.262 2.338 14.903 13.791zm-22.767 15.937-6.765-12.325 15.009 7.841 2.833-1.657-9.64-17.893-2.98 1.743 6.764 12.325-15.03-7.863-2.896 1.488 9.64 17.892zm-26.678 7.586-2.41-13.876 11.669 12.325 3.192-.637-3.34-20.082-3.382.68 2.41 13.877-11.669-12.325-3.213.425 3.34 20.081zm-27.692-1.508 2.219-13.919 7.061 15.47 3.213.425 3.34-20.06-3.425-.468-2.198 13.898-7.061-15.47-3.171-.638-3.361 20.082zm-25.685-10.477 6.575-12.431 1.691 16.915 2.896 1.488 9.639-17.914-3.086-1.551-6.574 12.431-1.691-16.936-2.791-1.637-9.639 17.893 2.959 1.742zm-20.927-18.275 10.252-9.626-3.89 16.575 2.262 2.316 14.925-13.791-2.41-2.465-10.253 9.605 3.89-16.554-2.114-2.465-14.924 13.792zm-13.8889-24.14 12.8099-5.737-9.026 14.365 1.3952 2.954 18.5598-8.182-1.479-3.123-12.7895 5.737 9.0055-14.386-1.205-3.018-18.5604 8.182 1.2895 3.187zm-5.3271-27.348 13.9519-1.275-13.1697 10.71.3593 3.23 20.1885-1.679-.381-3.443-13.9519 1.275 13.1909-10.667-.169-3.273-20.1881 1.7.1691 3.443zm3.8051-27.604 13.6139 3.379-15.9181 5.78-.6976 3.187 19.6387 4.994.74-3.379-13.6141-3.357 15.9181-5.78.888-3.145-19.6388-4.994zm12.4933-24.8627 11.7956 7.6287-16.9113.276-1.6912 2.784 16.9535 11.135 1.797-2.954-11.8168-7.607 16.9118-.276 1.881-2.678-16.975-11.135-1.9658 2.8263zm19.8706-19.4225 8.667 11.05-16.065-5.27-2.516 2.0825 12.451 16.0647 2.642-2.188-8.667-11.0505 16.087 5.2488 2.622-1.9125-12.452-16.065-2.748 2.04zm25.071-11.9 4.651 13.2812-13.529-10.2425-3.044 1.1475 6.574 19.2525 3.234-1.2112-4.65-13.2813 13.529 10.2213 3.107-.9563-6.574-19.2525zm27.566-3.0813.085 14.0675-9.471-14.0675-3.234.085v20.3575l3.446-.1062-.106-14.0675 9.512 14.0675 3.235.1062v-20.3575z" fill="#06182e"/></g></g></svg>