<svg fill="none" height="300" viewBox="0 0 500 300" width="500" xmlns="http://www.w3.org/2000/svg"><g fill="#06182e"><path d="m424.053 124.942c-17.079 1.242-30.743 15.216-31.985 32.295-1.242 20.184 14.595 36.952 34.469 36.952 7.142 0 16.768-3.726 21.116-11.178v10.247h13.352v-32.916c.621-21.737-16.768-36.953-36.952-35.4zm22.668 35.4c-.621 11.49-10.558 20.184-22.358 18.632-9.005-1.242-16.147-8.385-17.389-17.39-1.242-12.11 8.073-22.358 19.873-22.358 10.558 0 19.253 8.385 19.874 18.942z"/><path d="m350.768 124.942c-18.321.621-33.847 14.595-33.847 35.09 0 18.631 15.216 34.468 34.779 34.468 13.663 0 27.016-8.074 32.295-21.426l-13.353-4.037c-2.484 5.589-8.384 10.247-14.905 11.489-9.316 1.864-18.011-4.036-21.427-10.247l51.858-14.284c-1.552-13.663-13.352-31.674-35.4-31.053zm-19.252 32.916c0-7.142 4.347-15.526 13.663-18.942 10.558-4.037 19.873 1.242 23.91 8.695z"/><path d="m236.805 138.916v-14.284c-13.042 0-17.389 6.521-19.563 9.936v-7.763h-14.905v31.674 34.468h15.216c0-20.494 0-20.184 0-32.605 0-14.905 8.694-20.805 19.252-21.426z"/><path d="m99.8632 166.553-45.3369-53.411h-15.5263v79.805h16.1474v-53.41l45.9576 53.721h13.974v-80.116h-15.2158z"/><path d="m307.916 106h-14.284v26.084c-3.416-4.347-13.974-8.073-22.979-7.142-17.079 1.242-30.742 15.216-31.985 32.295-1.242 20.184 14.595 36.952 34.469 36.952 7.453 0 17.7-3.415 21.116-9.936v8.694h13.352v-32.915c0-.311 0-.311 0-.621 0-.311 0-.311 0-.622zm-14.905 54.342c-.621 11.49-10.558 20.184-22.358 18.632-9.006-1.242-16.148-8.385-17.39-17.39-1.242-12.11 8.074-22.358 19.874-22.358 10.558 0 19.253 8.385 19.874 18.942z"/><path d="m158.863 124.632c-19.253 0-34.779 15.526-34.779 34.779 0 19.252 15.526 34.778 34.779 34.778s34.779-15.526 34.779-34.778c-.311-19.253-15.837-34.779-34.779-34.779zm0 54.652c-10.868 0-19.874-9.005-19.874-19.873 0-10.869 9.006-19.874 19.874-19.874s19.874 9.005 19.874 19.874c0 11.178-9.006 19.873-19.874 19.873z"/></g></svg>