<svg fill="none" height="300" viewBox="0 0 500 300" width="500" xmlns="http://www.w3.org/2000/svg"><g fill="#06182e"><path d="m47.8283 190v1.194h18.1514v-1.194l-3.5825-1.194c-1.5127-.478-2.5078-1.274-2.9855-2.389-.4776-1.114-.7165-2.468-.7165-4.06v-53.499l45.6178 62.694h6.687v-20.741l-42.5126-58.432h-21.1368v1.194l2.0301 2.03c1.1145 1.035 1.9903 1.911 2.6272 2.627.6368.637 1.1941 1.433 1.6718 2.388.5573.956 1.2738 2.389 2.1495 4.299v57.44c0 1.592-.3184 2.986-.9553 4.18-.6369 1.114-1.6719 1.871-3.1049 2.269z"/><path d="m304.52 190v1.195h62.72v-1.195l-1.552-.358c-1.513-.478-2.588-1.194-3.226-2.15-.636-1.035-.955-2.349-.955-3.941 0-2.867-.04-5.733-.118-8.6v-49.685l.477-16.721-1.434-1.075-21.857 5.136v1.194l1.553.358c1.592.398 2.708 1.035 3.344 1.911.638.797.957 1.991.957 3.583v63.899c0 3.025-1.435 5.016-4.301 5.971 0 0-2.742.339-3.75.359-.971.019-4.866-.239-4.866-.239-1.512-.478-2.587-1.194-3.223-2.15-.638-1.035-.957-2.349-.957-3.941 0-2.867-.038-5.733-.118-8.6v-49.685l.477-16.721-1.432-1.075-21.857 5.136v1.194l1.552.358c1.593.398 2.706 1.035 3.344 1.911.636.797.955 1.991.955 3.583v63.899c0 3.025-1.432 5.016-4.299 5.971z"/><path d="m272.625 131.955c5.175 0 9.594 1.075 13.257 3.224 3.663 2.071 6.452 4.937 8.361 8.6 1.992 3.583 2.987 7.683 2.987 12.302 0 .876-.04 1.791-.12 2.747-.081.876-.239 1.672-.478 2.388h-35.592c.08 8.6 1.593 14.811 4.539 18.633 3.026 3.742 7.485 5.613 13.377 5.613 3.982 0 7.205-.637 9.674-1.911 2.468-1.274 4.777-3.145 6.927-5.614l1.196 1.075c-2.47 4.38-5.774 7.803-9.914 10.272-4.062 2.468-8.959 3.702-14.692 3.702-5.652 0-10.669-1.194-15.048-3.583-4.379-2.468-7.803-5.971-10.272-10.51-2.468-4.539-3.702-9.953-3.702-16.243 0-6.529 1.433-12.063 4.3-16.602 2.866-4.618 6.529-8.122 10.988-10.51 4.538-2.389 9.276-3.583 14.212-3.583zm-.357 2.388c-2.31 0-4.3.717-5.972 2.15-1.593 1.354-2.867 3.822-3.822 7.405-.876 3.504-1.354 7.286-1.434 13.735h20.423c.796-8.679.48-13.735-.955-17.557-1.432-3.822-4.18-5.733-8.24-5.733z"/><path d="m185.415 140.793 21.14 50.76h8.122l4.344-12.47-15.094-37.454c-1.194-3.344-.238-5.414 2.867-6.21l2.15-.478v-1.195h-30.934v1.195l1.672.478c2.707.875 4.618 2.667 5.733 5.374z"/><path d="m150.447 192.986c-6.052 0-11.307-1.234-15.766-3.702-4.459-2.548-7.923-6.131-10.391-10.749-2.389-4.619-3.583-10.033-3.583-16.244 0-6.21 1.274-11.585 3.822-16.124 2.628-4.538 6.171-8.041 10.63-10.51 4.538-2.468 9.634-3.702 15.288-3.702 5.653 0 10.709 1.234 15.168 3.702 4.459 2.389 7.962 5.852 10.51 10.391 2.628 4.539 3.942 9.953 3.942 16.243 0 6.291-1.234 11.745-3.703 16.363-2.388 4.539-5.812 8.082-10.271 10.63-4.38 2.468-9.595 3.702-15.646 3.702zm0-2.388c2.786 0 5.016-.796 6.688-2.389s2.867-4.419 3.583-8.48c.796-4.061 1.194-9.794 1.194-17.199 0-7.484-.398-13.257-1.194-17.318-.716-4.061-1.911-6.887-3.583-8.48-1.672-1.592-3.902-2.389-6.688-2.389-2.787 0-5.057.797-6.808 2.389-1.672 1.593-2.907 4.419-3.703 8.48-.716 4.061-1.075 9.834-1.075 17.318 0 7.405.359 13.138 1.075 17.199.796 4.061 2.031 6.887 3.703 8.48 1.751 1.593 4.021 2.389 6.808 2.389z"/><path d="m445.221 192.566c-2.041 0-3.77-.709-5.186-2.126-1.419-1.418-2.128-3.119-2.128-5.103 0-1.985.709-3.714 2.128-5.188 1.416-1.474 3.145-2.211 5.186-2.211 2.042 0 3.77.737 5.189 2.211 1.417 1.474 2.126 3.203 2.126 5.188 0 1.984-.709 3.685-2.126 5.103-1.419 1.417-3.147 2.126-5.189 2.126z"/><path d="m229.796 148.375c-2.041 0-3.771-.709-5.188-2.126-1.418-1.418-2.127-3.119-2.127-5.103 0-1.985.709-3.714 2.127-5.188 1.417-1.474 3.147-2.212 5.188-2.212s3.77.738 5.188 2.212c1.417 1.474 2.126 3.203 2.126 5.188 0 1.984-.709 3.685-2.126 5.103-1.418 1.417-3.147 2.126-5.188 2.126z"/><path d="m110.012 126.995c-2.042 0-3.771-.709-5.189-2.126-1.417-1.418-2.126-3.119-2.126-5.103 0-1.985.709-3.714 2.126-5.188 1.418-1.475 3.147-2.212 5.189-2.212 2.041 0 3.77.737 5.188 2.212 1.417 1.474 2.126 3.203 2.126 5.188 0 1.984-.709 3.685-2.126 5.103-1.418 1.417-3.147 2.126-5.188 2.126z"/><path d="m384.87 153.909c-2.044 0-3.772-.709-5.189-2.127-1.419-1.417-2.126-3.118-2.126-5.103 0-1.984.707-3.714 2.126-5.188 1.417-1.474 3.145-2.211 5.189-2.211 2.041 0 3.77.737 5.186 2.211 1.419 1.474 2.126 3.204 2.126 5.188 0 1.985-.707 3.686-2.126 5.103-1.416 1.418-3.145 2.127-5.186 2.127z"/><path clip-rule="evenodd" d="m390.358 191.552c-4.618 0-8.52-1.314-11.705-3.941-3.105-2.628-4.658-6.41-4.658-11.347 0-3.742 1.912-7.166 5.733-10.271 3.822-3.185 9.833-5.574 18.034-7.166 1.276-.239 2.708-.478 4.301-.717 1.592-.318 3.263-.637 5.017-.956v-9.435c0-5.414-.679-9.196-2.033-11.346-1.273-2.23-3.433-4.474-6.219-4.474 7.864-3.227 15.058.373 18.881 3.876 3.902 3.424 5.852 9.038 5.852 16.841v26.395c0 3.583 1.673 5.375 5.017 5.375h2.627l1.076.955c-1.515 1.911-3.186 3.384-5.017 4.42-1.752 1.035-4.261 1.552-7.525 1.552-3.504 0-6.291-.796-8.361-2.389-1.99-1.672-3.303-3.861-3.941-6.569-2.39 2.548-4.857 4.738-7.404 6.569-2.47 1.752-5.693 2.628-9.675 2.628zm11.691-8.375c-1.354.717-2.826 1.075-4.419 1.075-2.15 0-3.982-.796-5.494-2.389-1.513-1.672-2.269-4.14-2.269-7.405 0-3.821 1.075-6.847 3.226-9.077 2.228-2.309 5.175-3.941 8.838-4.897 1.035-.159 1.95-.318 2.746-.477l2.389-.478v20.065c-1.912 1.593-3.582 2.787-5.017 3.583z" fill-rule="evenodd"/></g></svg>