<svg fill="none" height="300" viewBox="0 0 500 300" width="500" xmlns="http://www.w3.org/2000/svg" xmlns:xlink="http://www.w3.org/1999/xlink"><clipPath id="a"><path d="m58 92h385v116h-385z"/></clipPath><g clip-path="url(#a)"><path d="m298.073 173.901c-.142-.369-.536-.582-.922-.494l-.12.034c-1.143.243-2.023.175-2.641-.236-.876-.581-1.301-1.896-1.301-4.018v-19.169c0-7.488-4.533-11.286-13.483-11.286-8.012 0-14.29 3.733-14.29 8.5 0 2.452 1.517 4.223 3.757 4.489 1.463.175 2.861-.479 3.872-1.532 1.97-2.045 1.719-4.482-.671-7.093 1.413-1.456 3.915-2.315 6.768-2.315 4.649 0 6.633 2.714 6.633 9.077v4.847c-1.088.331-2.108.642-3.976 1.076-3.765.87-8.931 2.029-12.827 4.147-3.216 1.737-4.85 4.478-4.85 8.146 0 3.995 2.664 8.659 10.17 8.659 4.205 0 7.97-1.962 11.835-6.173.336 4.375 2.019 6.017 6.104 6.017 1.966 0 3.537-.452 5.406-1.342.506-.243.745-.821.536-1.334zm-12.398-5.858c-.911 1.251-3.892 4.972-7.606 4.972-5.016 0-6.07-3.466-6.07-6.374 0-4.782 3.722-6.995 13.676-9.416zm96.189 8.853c-10.634 0-18.653-8.203-18.653-19.082 0-10.651 8.367-19.317 18.653-19.317 10.413 0 18.576 8.343 18.576 19.002 0 11.981-9.642 19.397-18.576 19.397zm-.402-36.354c-4.595 0-9.873 1.946-9.873 17.113 0 11.57 3.468 17.192 10.599 17.192 6.823 0 9.869-5.298 9.869-17.192 0-11.514-3.467-17.113-10.595-17.113zm-163.993-1.361c0 8.826-2.209 13.684-13.507 13.684h-5.988v-26.661h6.232c11.687 0 13.263 6.56 13.263 12.977zm-19.495 30.006v-13.87h5.425c8.093 0 14.247-1.684 18.298-5.01 4.235-3.478 5.123-7.884 5.123-10.967 0-12.68-12.429-15.341-22.858-15.341l.043-.004h-21.147c-.479 0-.869.388-.869.855v.057-.015c0 .434.266.821.683.97 1.884.684 7-.274 7 5.127v38.191c0 2.779-1.251 4.74-6.969 5.272-.456.042-.795.407-.795.848v.133c0 .471.386.851.865.851h22.595c.479 0 .869-.38.869-.851v-.118c0-.441-.356-.813-.811-.851-6.213-.491-7.46-2.384-7.46-5.284v-13.837zm45.947-30.709c-9.834 0-17.838 8.765-17.838 19.542 0 10.909 7.502 18.827 17.838 18.827 8.684 0 12.912-5.109 15.333-8.948.239-.38.135-.882-.236-1.144l-.116-.08c-.374-.262-.895-.186-1.185.171-3.193 3.942-5.989 6.222-10.815 6.222-6.105 0-12.626-4.139-12.626-15.763v-.084c-.012-.513 0-1.216.019-1.874h24.978c.069 0 .124-.053.127-.121l.016-.198c.355-4.763-1.015-9.047-3.857-12.054-2.776-2.942-6.8-4.496-11.638-4.496zm-9.487 14.421c.823-7.952 3.974-12.312 8.923-12.312 2.475 0 4.313.677 5.611 2.068 1.784 1.905 2.54 5.352 2.243 10.244zm113.016.426h-.008c-6.831-1.889-9.491-3.797-9.491-6.812 0-3.432 2.768-5.926 6.583-5.926 4.487 0 6.41 2.114 11.147 9.91l.062.103c.023.041.066.064.066.064h.695c.479 0 .869-.384.869-.855v-11.206c0-.068-.058-.125-.058-.125h-.931c-.259 0-.506.114-.668.311l-1.513 1.81c-1.908-1.034-5.016-2.121-8.136-2.121-7.846 0-13.324 4.77-13.324 11.605 0 6.416 4.32 8.818 11.78 10.803 7.247 1.953 9.819 3.987 9.819 7.762 0 4.2-4.132 6.085-7.066 6.085-5.46 0-7.765-1.995-12.997-11.247l-.062-.111c-.023-.041-.065-.068-.065-.068h-.703c-.479 0-.869.388-.869.855v12.556c0 .072.058.129.131.129h.889c.227 0 .451-.091.613-.251l2.39-2.353c2.8 1.711 6.985 2.604 9.703 2.604 4.082 0 7.437-1.274 9.703-3.68 2.024-2.147 3.136-5.188 3.136-8.564 0-5.846-3.17-8.902-11.695-11.278zm-41.334 18.455c0 1.935-.498 2.569-3.629 2.763-.456.031-.811.403-.811.852 0 .471.39.851.869.851h15.456c.471 0 .853-.376.853-.836 0-.456-.359-.832-.822-.851-3.576-.172-4.502-.742-4.502-2.779v-22.313c2.544-4.166 4.37-6.348 7.459-7.006-.15.529-.247 1.156-.247 1.669 0 2.71 1.923 4.603 4.676 4.603 2.703 0 4.595-1.893 4.595-4.603 0-2.562-1.626-5.557-6.213-5.557-3.757 0-7.348 2.121-10.433 7.195v-5.74c0-.585-.49-1.056-1.085-1.041l-9.737.258c-.475.016-.842.388-.842.852v.122c0 .421.309.783.722.84 3.247.452 3.695 1.972 3.691 3.55zm106.903-32.816c.224 0 .44.088.599.243.173.16.266.373.27.609l.031 6.363s3.174-7.466 13.467-7.466h.093c6.417 0 10.097 4.03 10.097 11.054v21.979c0 1.934.502 2.569 3.629 2.763.456.027.811.399.811.852 0 .467-.39.851-.865.851h-13.888c-.479 0-.869-.384-.869-.855 0-.456.351-.829.792-.867 2.525-.213 2.926-.84 2.926-2.744v-19.835c0-6.553-1.892-9.1-6.745-9.1-3.282 0-5.966 2.817-7.641 5.181 0 0-.857 1.057-1.784 3.049l.1 20.701c0 1.904.394 2.531 2.846 2.744.44.038.788.415.788.852 0 .49-.39.874-.865.874h-13.804c-.475 0-.865-.384-.865-.855 0-.449.359-.821.811-.852 3.128-.194 3.626-.825 3.626-2.759v-27.133c0-1.582-.448-3.11-3.711-3.566-.413-.057-.726-.422-.726-.844v-.125c0-.468.371-.84.846-.855z" fill="#06182e"/><path d="m141.713 100.325c24.476 13.73 30.175 44.512 13.144 75.659-14.966 27.376-47.647 39.069-71.9987 25.134-24.356-13.943-29.109-52.833-18.6415-75.211 15.1974-32.5001 50.4532-40.7563 77.4962-25.582z" fill="#06182e"/><path d="m141.146 123.942c4.791 5.036 6.282 12.677 5.452 18.945-.954 7.146-5.356 13.76-12.673 18.143-5.803 3.482-13.429 4.866-20.931 4.934-.062 1.171-.297 5.204-.417 5.843-.173.938-.509 1.448-.919 1.972-.807 1.038-2.204 1.703-3.594 2.095-1.101.304-2.194.441-2.97.441-.127 0-.254-.012-.382-.023-.815-.091-1.722-.471-2.282-1.083-.56-.62-.876-1.395-.95-2.277l-.061-.799c-.159-.684-1.027-35.411-.861-34.792.127-4.162 6.95-4.884 10.652-4.151 3.711.734 2.773 5.174 2.672 10.628 0 0-.177 7.173-.521 14.753 4.726-.179 8.479-1.505 11.989-3.22 7.093-3.467 10.846-8.777 10.846-16.596s-7.73-16.577-21.997-16.577c-14.2669 0-20.3907 3.543-27.2982 9.169-1.5561 1.269-2.7569 2.546-3.8882 3.386-1.1351.841-4.1507.97-4.9538-.999-.9769-2.372.8417-5.018 1.9113-6.299 1.6796-2.011 5.8148-6.059 10.4018-8.412 5.255-2.699 11.6801-5.607 20.6261-5.831 8.093-.198 20.873.445 30.078 10.681m-30.873 57.566c-.746-.57-1.58-.962-2.425-1.125-.286-.057-.583-.088-.873-.088-1.591 0-3.154.863-4.174 2.311-.849 1.201-1.2 2.642-.976 4.033.146.894.482 1.665.984 2.239.56.646 1.417 1.144 2.483 1.445.614.167 1.243.258 1.872.258h.004c1.375 0 2.611-.41 3.572-1.171 1.116-.9 1.722-2.174 1.71-3.599-.015-1.654-.826-3.269-2.177-4.303z" fill="#fff"/></g></svg>