<svg fill="none" height="300" viewBox="0 0 500 300" width="500" xmlns="http://www.w3.org/2000/svg"><g fill="#06182e"><path d="m180.472 244.13c-8.76 0-14.38-6.728-14.38-16.752 0-10.095 5.62-16.752 14.38-16.752 8.838 0 14.458 6.728 14.458 16.752s-5.62 16.752-14.458 16.752zm0-36.493c-11.008 0-18.119 8.004-18.119 19.741 0 11.666 7.111 19.746 18.048 19.746 11.003 0 18.196-8.08 18.196-19.746 0-11.737-7.193-19.741-18.125-19.741zm-28.76-10.473 11.008-.821v-2.321h-26.063v2.321l11.085.75v20.19h-29.21v-20.19l11.091-.75v-2.321h-26.063v2.321l10.926.821v45.394l-10.926.75v2.322h26.063v-2.322l-11.091-.75v-22.281h29.21v22.281l-11.085.75v2.322h26.063v-2.322l-11.008-.75zm-33.251-139.9208h16.622c7.341 0 11.837 4.7135 11.837 11.7426 0 7.1059-3.892 12.4872-11.228 12.4872h-17.231zm11.606 46.2918-11.606-.75v-18.3229h17.746c9.293 0 14.682-6.5748 14.682-15.3996 0-8.677-5.696-14.8138-15.049-14.8138h-32.28v2.3156l10.855.8267v45.394l-10.855.75v2.321h26.507zm68.761 70.002v2.162h21.189v-2.091l-8.536-.75v-22.883c3.07-5.157 8.459-8.973 14.38-8.973 5.91 0 9.205 3.816 9.205 9.799v22.057l-8.684.75v2.091h20.444v-2.162l-8.01-.75v-22.358c0-6.81-3.3-12.646-12.209-12.646-6.36 0-11.946 3.575-15.203 8.453v-7.999l-2.1-.596c-3.07 3.361-7.11 4.861-11.979 4.861v1.571c3.591.668 7.413.597 10.411-.903v29.617zm-80.367-46.369h17.45c7.413 0 12.133 4.484 12.133 11.365s-3.969 11.819-11.985 11.819h-17.598zm11.606 46.21-11.606-.739v-19.226h15.422l10.943 22.286h13.7v-2.321l-11.156-1.117-9.288-18.848c8.767-.449 13.931-6.728 13.931-14.88 0-8.376-5.844-14.354-14.83-14.354h-33.623v2.316l10.926.821v45.323l-10.926.739v2.321h26.507zm259.362-70.445v-22.3523c0-6.8102-3.295-12.7171-12.204-12.7171-6.293 0-11.88 3.5803-15.136 8.5237v-8.0748l-2.089-.5967c-3.076 3.3613-7.116 4.9324-11.996 4.8558v1.6478c3.602.6734 7.423.5967 10.417-.8978v29.6114l-8.909.755v2.168h21.189v-2.097l-8.53-.75v-22.8827c3.064-5.1624 8.459-9.0492 14.298-9.0492 5.921 0 9.21 3.8868 9.21 9.8759v22.056l-8.684.75v2.097h20.444v-2.168zm-123.124 122.43c-4.874-1.199-11.009-2.847-11.009-8.157 0-3.514 2.539-6.657 8.992-6.657 5.762 0 8.755 2.546 11.458 7.259l2.39 4.183 1.875-.367-2.401-14.135h-2.029l-.065 6.202c-2.1-3.361-5.845-6.054-11.76-6.054-7.489 0-11.985 4.188-11.985 9.646 0 7.554 8.619 9.87 13.783 11.222 7.04 1.79 11.831 3.515 11.831 8.595 0 4.489-3.816 7.177-9.589 7.177-5.986 0-9.731-2.989-13.404-8.972l-2.325-3.811-1.946.373 2.473 14.584h2.099l-.224-7.03c2.845 4.708 7.187 7.703 13.777 7.703 7.643 0 12.659-4.04 12.659-10.319 0-7.254-6.36-9.351-14.6-11.442zm122.971-75.241c0-6.799-2.84-12.339-10.784-12.339-6.063 0-10.828 3.213-14.002 8.151-1.031-4.554-4.04-8.151-10.263-8.151-5.466 0-10.598 3.504-13.712 8.233v-7.779l-2.088-.596c-3.142 3.361-7.193 4.861-11.99 4.861v1.571c3.525.668 7.423.515 10.416-.974v29.687l-8.909.75v2.163h19.551v-2.091l-6.897-.75v-23.25c2.845-4.938 7.56-8.606 12.73-8.606 5.992 0 7.938 4.045 7.938 10.177v21.679l-7.335.75v2.091h18.498v-2.091l-7.413-.75v-22.128c0-.454 0-.974-.082-1.506 3.147-5.304 7.495-8.222 12.588-8.222 6.069 0 8.01 4.111 8.01 10.095v21.761l-6.815.75v2.091h18.723v-2.091l-8.164-.822zm-64.479-46.434v2.168h21.343v-2.168l-8.684-.755v-34.5441l-2.105-.6733c-3.213 3.3613-7.341 4.9324-12.05 4.8558v1.6478c3.514.6733 7.406.5255 10.405-.969v29.6828zm-34.451 120.098c1.118-8.003 6.211-13.16 13.558-13.16 6.063 0 12.204 3.969 12.423 13.16zm13.624-16.149c-10.554 0-17.522 8.075-17.522 19.741s7.039 19.746 18.196 19.746c8.169 0 12.884-3.816 14.753-9.575l-2.313-.821c-2.117 4.823-5.883 7.401-11.99 7.401-9.425 0-14.978-6.503-14.978-16.675v-.75h29.742c.071-.525.071-1.719.071-2.387 0-8.228-5.17-16.68-15.959-16.68zm2.692-33.433c-8.756 0-14.375-6.728-14.375-16.746 0-10.1 5.619-16.681 14.375-16.681 8.848 0 14.462 6.657 14.462 16.681 0 10.018-5.614 16.746-14.462 16.746zm0-36.421c-10.993 0-18.114 7.932-18.114 19.675 0 11.661 7.121 19.741 18.048 19.741 11.003 0 18.202-8.08 18.202-19.741 0-11.743-7.199-19.675-18.136-19.675zm-67.094 70.303-2.1-.597c-3.218 3.361-7.341 4.932-12.056 4.856v1.642c3.514.679 7.336.608 10.329-.892v22.21c-3.141 4.943-8.531 8.682-14.375 8.682-5.839 0-9.139-3.892-9.139-9.805v-26.096l-2.017-.597c-3.147 3.361-6.371 4.932-11.015 4.856v1.642c3.147.679 6.59.608 9.288-.662v21.082c0 6.733 3.218 12.717 12.28 12.717 6.365 0 11.853-3.548 15.06-8.305l.071 7.56.225.143 11.683-1.123v-2.014h-8.234zm42.16-134.5456v21.0984c0 6.7282 3.218 12.7112 12.28 12.7112 6.365 0 11.864-3.541 15.066-8.2988l.06 7.5488.231.148 11.683-1.122v-2.015h-8.235v-35.299l-2.1-.5967c-3.218 3.3613-7.335 4.9325-12.055 4.8559v1.6478c3.519.6733 7.335.5967 10.328-.8978v22.2098c-3.141 4.938-8.53 8.677-14.369 8.677-5.844 0-9.145-3.892-9.145-9.7993v-26.0967l-2.028-.5967c-3.136 3.3613-6.36 4.9325-11.003 4.8559v1.6478c3.141.6733 6.589.5969 9.287-.6786zm-83.728-.2192v29.6108l-8.914.756v2.168h21.195v-2.097l-8.536-.75v-22.8831c3.07-5.1624 8.465-9.0493 14.369-9.0493 5.927 0 9.222 3.8869 9.222 9.8759v22.0565l-8.695.75v2.097h20.455v-2.168l-8.016-.756v-22.3517c0-6.8102-3.295-12.7172-12.209-12.7172-6.371 0-11.946 3.5803-15.197 8.5237v-8.0748l-2.106-.5967c-3.064 3.3613-7.116 4.9325-11.979 4.8559v1.6478c3.597.6733 7.412.5967 10.411-.8978zm78.788 92.5068c-1.875 5.316-6.513 8.376-12.286 8.376-8.459 0-13.481-6.427-13.481-16.598 0-9.947 5.625-16.829 14.238-16.829 5.016 0 9.353 2.546 11.529 6.734zm-11.984-28.045c-10.483 0-17.522 8.151-17.522 19.965 0 11.6 6.206 19.451 16.628 19.451 5.685 0 10.504-2.655 12.955-7.183l.071 6.433.225.147 11.831-1.122v-2.015h-8.459v-53.846l-2.023-.597c-3.279 4.199-7.264 6.433-11.903 6.356v1.648c3.569.783 7.709.004 10.181-1.719v18.241c-2.703-3.663-6.897-5.759-11.984-5.759zm-15.055-32.677 7.489.667c8.766.794 11.464 3.296 11.464 6.586 0 4.56-4.649 8.075-14.008 8.075-8.388 0-13.18-3.367-13.18-7.85 0-3.367 2.851-6.581 8.235-7.478zm-6.14-23.2559c0-6.0602 4.566-11.0748 11.387-11.0748 6.584 0 11.085 5.0146 11.085 11.2226 0 5.8358-4.271 10.9161-11.316 10.9161-6.365 0-11.156-5.0092-11.156-11.0639zm-5.543 30.9639c0 5.753 5.471 10.543 16.546 10.543 11.612 0 17.681-4.861 17.681-11.299 0-7.1-8.317-8.983-16.481-9.646-6.063-.52-11.683-.744-11.683-3.7389 0-1.4946 1.503-2.9179 8.169-2.9179h2.467c8.992 0 14.759-6.1314 14.759-14.0584 0-3.5912-1.349-6.9525-3.673-9.4215.526-6.8047 6.518-3.4379 6.518-6.9525 0-1.5-.893-2.2445-2.401-2.2445-3.448 0-6.058 3.4324-6.508 7.1824-2.247-1.5-5.016-2.3978-8.24-2.3978-9.139 0-15.054 6.1314-15.054 13.8339 0 5.6113 2.845 9.8704 6.957 12.115-4.035.3779-6.212 2.4744-6.212 5.3102 0 2.02 1.278 3.963 4.638 5.086-4.336 1.122-7.483 4.637-7.483 8.606zm-53.251 55.335c-2.62 2.918-7.79 6.055-13.328 6.055-4.424 0-8.086-2.091-8.086-6.35 0-5.311 4.567-10.249 21.414-10.55zm-25.087-.295c0 5.605 4.342 9.344 11.162 9.344 6.135 0 11.118-3.032 14.155-6.054.653 3.262 2.994 4.938 6.217 4.938 3.52 0 5.839-1.878 6.59-5.765l-1.721-.744c-.609 2.315-1.727 3.585-3.745 3.585-2.626 0-3.826-1.341-3.826-6.126v-16.231c0-7.478-3.07-13.019-13.032-13.019-5.839 0-9.211 1.725-11.53 3.816-2.023 1.872-2.626 3.591-2.626 4.637 0 1.276.899 2.173 2.248 2.173 1.798 0 2.023-1.724 3.07-3.668 1.278-2.239 3.218-3.963 8.542-3.963 5.987 0 9.583 3.213 9.583 9.651v4.183c-16.025.153-25.087 4.713-25.087 13.243zm175.706-107.5458c1.792 0 3.289-1.4234 3.289-3.219 0-1.7901-1.497-3.2135-3.289-3.2135-1.804 0-3.229 1.4234-3.229 3.2135 0 1.7956 1.425 3.219 3.229 3.219zm-165.97 10.5438c6.064 0 12.204 3.9635 12.435 13.1605h-25.987c1.118-7.9981 6.211-13.1605 13.552-13.1605zm.751 36.498c8.158 0 12.879-3.816 14.748-9.5747l-2.319-.8212c-2.111 4.8229-5.877 7.4019-11.984 7.4019-9.436 0-14.978-6.5041-14.978-16.6756v-.7445h29.731c.077-.5256.077-1.719.077-2.3978 0-8.2281-5.165-16.6752-15.949-16.6752-10.564 0-17.527 8.0748-17.527 19.7409 0 11.666 7.045 19.7462 18.201 19.7462z"/><path d="m51.8057 245.626h3.9638v-95.803-95.6931h-3.9638v95.7811z"/><path d="m445.225 245.626h3.969v-95.803-95.6931h-3.969v95.7811z"/></g></svg>