<svg fill="none" height="300" viewBox="0 0 500 300" width="500" xmlns="http://www.w3.org/2000/svg" xmlns:xlink="http://www.w3.org/1999/xlink"><clipPath id="a"><path d="m108 76h284v148h-284z"/></clipPath><mask id="b" height="2563" maskUnits="userSpaceOnUse" width="1810" x="-1214" y="-27"><path d="m-1213.29 2535.89h1808.495v-2562.5162h-1808.495z" fill="#fff"/></mask><mask id="c" height="159" maskUnits="userSpaceOnUse" width="307" x="103" y="67"><path d="m103.709 225.823h305.907v-158.1665h-305.907z" fill="#fff"/></mask><mask id="d" height="145" maskUnits="userSpaceOnUse" width="278" x="111" y="78"><path d="m111.418 222.069h276.721v-143.135h-276.721z" fill="#fff"/></mask><g clip-path="url(#a)"><g mask="url(#b)"><g fill="#06182e" mask="url(#c)"><path d="m257.781 185.527 7.931-18.583 7.929 18.583zm13.039-42.405c-.16-.368-.621-.667-1.019-.667h-9.667c-.401 0-.855.303-1.01.669l-32.831 77.96h15.589c.398 0 .854-.302 1.012-.67l9.115-21.359h27.404l9.115 21.359c.157.368.611.67 1.012.67h15.61zm-41.682 56.732c0 6.231-2.551 11.911-7.187 15.99-4.556 4.015-10.855 6.225-17.736 6.225-9.235 0-16.885-2.303-24.079-7.246l-.843-.576v-17.557c0-.402.327-.727.728-.727.234 0 .44.11.573.28 2.924 3.835 10.696 12.298 22.298 12.298 8.321 0 11.419-4.589 11.419-7.485 0-6.033-6.893-9.828-14.87-14.223-9.669-5.323-20.627-11.359-20.627-23.476 0-6.569 2.609-12.119 7.545-16.053 4.785-3.816 11.459-5.835 19.3-5.835 6.654 0 13.326 1.916 19.297 5.541l.934.567v15.754c0 .402-.325.727-.728.727-.158 0-.306-.053-.425-.141-2.798-2.647-10.44-8.92-20.04-8.92-6.509 0-11.056 2.853-11.056 6.935 0 5.093 6.194 8.279 13.371 11.971 9.858 5.069 22.126 11.38 22.126 25.951zm-84.559-28.273c-2.296 2.346-6.282 3.534-11.851 3.534h-5.642v-19.57h5.642c12.572 0 14.119 5.354 14.188 9.386.052 2.774-.733 5.012-2.337 6.65zm32.597 44.954c-4.797-6.04-6.783-8.541-9.989-13.274l-.267-.397c-5.265-7.836-9.571-14.252-15.622-18.851 7.543-3.838 11.646-10.361 11.646-18.683 0-6.966-2.767-12.791-8.001-16.852-5.079-3.94-12.304-6.023-20.89-6.023h-22.635v78.629h14.701c.532 0 .967-.438.967-.971v-31.47h2.995c5.101 0 9.533 1.167 20.198 16.275l10.848 15.372c.308.435.995.794 1.528.794h18.133z"/><g mask="url(#d)"><path d="m312.351 165.277c-.21.352-.107.833.232 1.067l.627.437c.339.235.836.173 1.105-.138l1.731-1.995c-.702-.696-1.373-1.422-2.015-2.176zm8.624 5.001c-.134.389.067.836.446.997l.583.241c.377.16.852-.007 1.05-.366l.446-.813c-.714-.409-1.413-.846-2.096-1.305zm-16.009-11.704c-.281.302-.279.792.003 1.093l.615.656c.282.301.783.344 1.11.095l3.81-2.865c-.607-1.021-1.163-2.071-1.669-3.154zm70.047-45.691c-.048-.358-.36-.576-.733-.492l-2.79.631 3.335-2.353c-.225-1.944-.607-3.838-1.125-5.667-.114-.378-.494-.55-.856-.381l-5.311 2.464 5.036-5.429c-.618-1.568-1.341-3.0798-2.165-4.5265-.196-.3564-.623-.4472-.95-.2009l-6.965 5.2414 5.357-8.9313c-.886-1.1789-1.848-2.2956-2.87-3.3525-.284-.2559-.701-.2343-.959.0598l-7.406 8.5346 4.234-12.2532c-1.019-.7724-2.084-1.4897-3.182-2.1521-.346-.1985-.785-.079-.978.275l-6.497 11.7843 1.768-14.0729c.05-.4018-.215-.8369-.589-.9804-.838-.3037-1.693-.5739-2.557-.8154-.396-.1124-.818.1171-.938.5117l-4.361 14.4364-.004.0072-1.287-15.5389c-.036-.4113-.398-.7459-.811-.7459h-2.385c-.413 0-.776.3346-.809.7459l-1.329 16.0362-4.602-15.4048c-.12-.3945-.545-.648-.948-.5619l-2.198.4687c-.404.0861-.69.4901-.637.899l2.117 16.4523-7.917-14.5583c-.196-.3611-.664-.5189-1.041-.3515l-1.934.8608c-.372.1674-.568.6219-.432 1.0116l5.674 16.1196-11.073-12.9894c-.267-.3109-.756-.3707-1.09-.1292l-1.602 1.1671c-.332.2415-.427.7269-.215 1.0784l9.185 15.0101-13.916-10.732c-.324-.2511-.816-.2057-1.09.1004l-1.237 1.3727c-.277.3061-.267.801.017 1.0999l12.471 13.128-16.292-7.848c-.373-.179-.845-.031-1.048.325l-.857 1.483c-.205.356-.093.839.243 1.071l15.376 10.52-18.073-4.431c-.396-.101-.828.141-.955.533l-.487 1.499c-.128.39.079.84.461.997l15.959 6.538c5.673-9.264 15.459-15.83 27.045-16.961.816-.086 1.64-.13 2.48-.13 13.047 0 23.623 10.594 23.623 23.667 0 12.414-9.538 22.591-21.673 23.586 12.448-1.033 22.878-8.329 28.463-18.54 3.108-5.684 4.714-12.272 4.33-19.186zm-68.973 32.714-6.895 4.871c-.337.237-.437.72-.225 1.071l.537.885c.215.354.692.5 1.067.328l6.516-3.023c-.413-1.344-.744-2.721-1-4.132zm-12.977-22.008 14.808 2.66c.692-1.787 1.523-3.506 2.48-5.147l-16.971-.545c-.408-.012-.778.311-.821.722l-.153 1.433c-.042.411.253.806.657.877zm14.185 4.41-14.178 2.523c-.403.074-.699.466-.659.877l.139 1.299c.043.411.413.734.826.72l12.624-.424c.296-1.707.716-3.374 1.248-4.995zm-1.707 8.85-10.385 4.47c-.377.165-.575.617-.439 1.004l.384 1.107c.136.388.576.632.977.541l9.485-2.16c-.122-1.674-.124-3.331-.022-4.962z"/><path d="m385.754 140.137-15.956-6.538c-5.659 9.238-15.412 15.795-26.957 16.953v-.003c-.848.091-1.705.141-2.571.141-13.047 0-23.623-10.596-23.623-23.667 0-12.234 9.264-22.296 21.143-23.537-19.329 1.889-33.65 18.898-32.227 38.325l3.487-.789-2.726 1.923c-.009.005-.019.012-.028.017-.335.236-.557.765-.49 1.169l-.002.005.007.004c.265 1.921.678 3.786 1.229 5.589l5.965-2.767-4.545 4.898c-.281.301-.372.856-.205 1.231 0 0-.002 0-.002.003.649 1.547 1.403 3.034 2.25 4.459l7.545-5.679-4.995 8.329c-.196.354-.156.887.097 1.2.9 1.141 1.867 2.227 2.896 3.248l7.881-9.087-4.022 11.643c-.086.378.079.835.389 1.057 1.032.746 2.101 1.44 3.206 2.073l6.845-12.413-1.766 14.059c-.05.401.21.834.587.98.84.301 1.695.574 2.561.815h.005c.394.113.816-.117.936-.511l4.349-14.418c.009-.016.016-.026.016-.026l1.287 15.541c.033.409.398.746.811.746h2.385c.408 0 .773-.337.807-.746l1.329-16.038 4.604 15.405c.117.394.542.648.946.562l2.2-.469c.401-.086.69-.49.635-.897l-2.117-16.455 7.917 14.559c.198.361.666.521 1.041.351l1.933-.861c.373-.167.571-.621.432-1.009l-5.671-16.122 11.073 12.99c.267.313.756.37 1.088.129l1.602-1.165c.334-.244.429-.729.217-1.078l-9.185-15.013 13.913 10.732c.327.254.819.208 1.096-.1l1.231-1.373c.277-.306.27-.801-.014-1.1l-12.474-13.126 16.293 7.846c.372.179.845.034 1.05-.323l.857-1.485c.203-.356.093-.839-.246-1.071l-15.373-10.517 18.073 4.431c.396.098.828-.141.955-.533l.487-1.502c.126-.39-.082-.839-.461-.995zm1.721-9.682-14.806-2.659c-.69 1.786-1.52 3.505-2.477 5.146l16.965.545c.411.014.781-.311.826-.72l.151-1.435c.043-.408-.256-.805-.659-.877zm-26.079-45.8226c.134-.3898-.06-.8513-.432-1.0235l-.568-.2678c-.372-.1745-.84-.0239-1.038.3372l-.592 1.0856c.711.4615 1.403.9517 2.079 1.4635zm11.901 41.4126 14.171-2.523c.405-.071.701-.468.659-.877l-.137-1.296c-.043-.412-.415-.737-.825-.722l-12.622.423c-.299 1.707-.716 3.376-1.246 4.995zm1.482-6.566 11.183-4.814c.377-.163.589-.617.47-1.012l-.339-1.121c-.12-.395-.544-.641-.945-.55l-10.082 2.303c.031 1.757-.067 3.494-.287 5.194zm2.11-22.4716c.279-.3013.289-.8034.019-1.1167l-.589-.6791c-.27-.3133-.757-.3634-1.084-.1147l-4.206 3.178c.571 1.0952 1.084 2.2211 1.542 3.3811zm-2.062 13.6616 7.533-5.316c.336-.236.449-.727.248-1.085l-.496-.909c-.201-.361-.669-.514-1.041-.34l-7.029 3.276c.348 1.423.611 2.884.785 4.374zm-6.977-17.4254c-.618-.8203-1.27-1.6141-1.957-2.3746l1.998-2.3125c.269-.3109.759-.3634 1.086-.1147l.608.4638c.33.2463.425.739.21 1.093z"/></g></g></g></g></svg>