<svg fill="none" height="300" viewBox="0 0 500 300" width="500" xmlns="http://www.w3.org/2000/svg"><g fill="#06182e"><path d="m393.786 91.5913c-29.886 0-49.401 20.5477-49.401 54.5207 0 42.191 29.886 54.246 51.311 54.246 16.103 0 31.387-6.576 42.441-18.219l-13.783-13.836c-7.369 6.575-15.83 10.548-28.385 10.548-16.649 0-27.839-9.726-27.839-23.151h74.238c-.137-.137 12.827-64.1087-48.582-64.1087zm-25.656 45.7527c0-18.082 13.647-26.712 28.249-26.712 14.601 0 27.839 8.904 27.839 26.712z"/><path d="m120.445 135.563c-9.553-1.233-36.9821-.136-36.9821-12.739 0-7.397 11.5995-11.507 22.1071-11.507 11.19-.137 22.108 3.014 31.387 9.041l14.329-14.247c-4.23-3.424-19.924-14.5199-45.716-14.5199-23.4718 0-44.624 12.3289-44.624 32.0549 0 30.273 36.4363 30.273 51.584 31.78 9.28.959 17.604 1.507 17.604 10.548 0 8.493-12.828 13.151-22.79 13.151-16.2391 0-25.9281-5.343-35.4807-13.973l-15.2842 15.48c13.2372 12.876 31.1142 19.862 49.5369 19.725 27.293 0 47.081-12.054 47.081-36.301 0-16.027-10.781-25.616-32.752-28.493z"/><path d="m198.776 91.5913c-15.148-.1372-30.022 5.0684-41.895 14.5207l14.329 14.383c8.052-6.027 17.741-9.178 27.703-9.041 18.15 0 23.608 7.26 23.608 15.479v10.274h-32.342c-12.009 0-35.481 3.014-35.481 29.452 0 19.452 11.053 33.699 37.528 33.699 13.237 0 23.335-4.247 30.295-12.603v10.548h23.472v-69.726c0-24.383-14.874-36.9857-47.217-36.9857zm23.882 68.6297c0 20.137-14.329 19.041-27.021 19.041-12.691 0-21.152-3.425-21.152-12.466 0-8.356 6.687-11.233 20.607-11.233h27.566z"/><path d="m318.457 93.7831v11.6439c-8.052-9.1782-17.604-13.8357-30.569-13.8357-22.244 0-33.707 12.4657-37.528 25.8907-1.501 4.931-1.91 14.383-1.91 28.356 0 13.15.136 25.205 4.64 34.383 6.413 12.876 21.834 20.137 34.798 20.137 12.555 0 23.199-4.932 30.569-13.425v6.575c0 7.672-2.593 12.74-7.506 16.713-4.913 3.972-11.054 6.438-19.651 6.438-7.779 0-15.148-4.247-19.378-7.26l-15.83 15.89c10.235 8.356 22.38 13.972 35.617 14.109 12.692.274 25.11-3.835 35.072-11.917 9.416-7.397 15.421-21.507 15.421-36.301v-97.3969zm0 52.0549c0 8.082-.137 14.109-.819 17.26-1.501 6.712-9.143 15.616-23.063 15.616-3.548 0-21.289-2.055-23.336-17.534-.545-5.069-.818-10.274-.682-15.342 0-12.055.546-15.891 1.092-18.904 1.228-6.028 9.143-15.069 22.926-15.069 16.785 0 22.244 11.507 23.063 16.027.682 5.891.955 11.918.819 17.946z"/></g></svg>