<svg fill="none" height="300" viewBox="0 0 500 300" width="500" xmlns="http://www.w3.org/2000/svg"><g fill="#171717"><path d="m271.157 81.0494-42.314 24.4296v8.735l11.527 6.655-11.527 6.655v36.884l42.314-24.429v-8.736l-11.527-6.654 11.527-6.656zm-30.804 32.4096-6.256-3.613 30.651-17.6961v7.2247zm6.426 11.11 6.459 3.73-17.986 10.384v-7.459zm12.868 7.43 6.257 3.612-30.652 17.697v-7.225zm5.101-17.765-11.526 6.654-6.46-3.729 17.986-10.384z"/><path d="m225.001 177.361c2.549 0 4.719 2.115 4.719 4.664 0 2.495-2.17 4.61-4.719 4.61-2.494 0-4.61-2.115-4.61-4.61 0-2.549 2.116-4.664 4.61-4.664z"/><path d="m179.294 202.118c-.963-.242-1.943-.432-2.882-.605-3.571-.655-6.724-1.07-6.724-3.213 0-1.191.892-2.678 4.344-2.678 2.975 0 5.118 1.13 6.784 2.618l4.107-4.999c-2.738-2.321-6.785-3.809-11.189-3.809-5.832 0-11.546 2.5-11.546 9.047 0 5.746 4.372 7.533 8.652 8.52.861.199 1.719.366 2.537.525 3.452.655 5.476 1.131 5.476 2.916 0 1.607-1.786 2.262-4.285 2.262-2.441 0-5.531-.659-8.087-3.186l-6.137 3.543c2.916 3.868 8.748 5.892 13.688 5.892 6.368 0 12.378-3.333 12.378-9.522 0-4.669-3.438-6.385-7.116-7.311z"/><path d="m204.274 203.18 13.272-13.034h-10.474l-9.999 10.296v-21.246h-7.617v39.159h7.663l.014-11.426 11.367 11.426h10.652z"/><path d="m221.24 218.355h7.617v-28.209h-7.617z"/><path d="m254.654 179.196v14.759c-1.785-2.916-5.117-4.523-9.165-4.523-7.022 0-13.926 4.94-13.926 14.7 0 9.879 7.083 14.818 14.224 14.818 4.046 0 6.903-1.606 8.927-4.047v3.453h7.557v-39.16zm-7.796 33.387c-4.582 0-7.736-3.214-7.736-8.451 0-5.356 3.273-8.332 7.617-8.332 3.749 0 7.856 2.262 7.856 8.391 0 5.654-3.511 8.392-7.737 8.392z"/><path d="m287.88 179.196v14.759c-1.785-2.916-5.118-4.523-9.164-4.523-7.023 0-13.926 4.94-13.926 14.7 0 9.879 7.081 14.818 14.223 14.818 4.047 0 6.904-1.606 8.927-4.047v3.453h7.558v-39.16zm-7.796 33.387c-4.582 0-7.737-3.214-7.737-8.451 0-5.356 3.274-8.332 7.618-8.332 3.749 0 7.856 2.262 7.856 8.391 0 5.654-3.511 8.392-7.737 8.392z"/><path d="m310.474 212.414c-.285.067-.578.109-.871.109-1.786 0-3.511-.952-3.511-3.57v-29.756h-7.617v29.875c0 7.022 4.641 9.879 9.64 9.879 2.069 0 4.195-.53 6.089-1.411-1.583-1.465-2.833-3.187-3.73-5.126z"/><path d="m339.656 203.596c0-9.462-6.189-14.163-13.092-14.163-7.201 0-14.402 5.117-14.402 14.878 0 9.879 7.379 14.64 14.878 14.64 4.94 0 9.343-2.024 12.38-5.833l-4.584-4.582c-1.904 2.499-4.642 3.749-7.736 3.749-3.036 0-6.547-1.25-7.202-5.118h19.522c.177-1.488.236-2.618.236-3.571zm-19.758-2.202c.477-3.213 2.798-5.534 6.428-5.534 3.333 0 5.773 1.964 6.129 5.534z"/></g></svg>