<svg fill="none" height="300" viewBox="0 0 500 300" width="500" xmlns="http://www.w3.org/2000/svg"><path d="m72.7055 128.071 6.5707 5.579c1.7977-4.711 8.0585-14.815 28.3908-18.906-1.488-.31-3.038-.558-4.649-.682-.062 0-.124 0-.186 0-.434-.062-.868-.062-1.302-.062-.062 0-.062 0-.124 0-.372 0-.744 0-1.116 0-.248 0-.4337 0-.6816 0-.124 0-.248 0-.372 0h.062c-.124 0-.3099 0-.4339 0-.248 0-.4339 0-.6819.062-.3719 0-.8058.062-1.1777.062-.186 0-.372.062-.5579.062-.434.062-.8059.062-1.2398.124-.124 0-.3099.062-.4339.062-.4959.062-.9918.186-1.4877.248-.062 0-.124 0-.186 0-.4959.124-1.0538.248-1.5497.372-.124 0-.186.062-.3099.062-.434.124-.9299.248-1.3638.372-.186.062-.3719.124-.5579.186-.3719.124-.7438.248-1.0538.372-.3099.124-.5579.186-.8678.31-.248.124-.4959.186-.7439.31-.4339.185-.8058.309-1.2397.495-.124.062-.248.124-.434.186-.4959.248-.9918.496-1.4877.744 0 0-.062 0-.062.062.062-.062.124-.062.186-.124-.3719.186-.7439.434-1.1778.62.31-.186.6199-.31.8679-.496 0 0 0 0-.062 0-.8059.434-1.6117.93-2.4176 1.364.434-.31.9299-.558 1.4258-.806-.4959.31-.9918.62-1.4878.93-1.9836 1.302-3.8432 2.727-5.4549 4.215-.248.186-.4339.434-.6819.682-.124.124-.3099.248-.4339.434-.248.248-.4959.496-.6819.744-.1859.186-.3719.434-.6199.682-.1239.186-.2479.31-.4339.496-.2479.248-.1859.867.248 1.239z" fill="#676a75"/><path d="m95.0212 176.051 2.2935-10.043c.124-.557-.2479-1.177-.8058-1.301-12.8316-2.914-20.89-15.745-17.9766-28.639 0 0 .124-.93.7439-2.479l-6.5708-5.579c-.4339-.372-.4959-.992-.1859-1.426-7.9345 9.36-10.662 22.378-6.7568 34.341 12.7076 14.258 23.6795 15.621 29.2585 15.126z" fill="#989ba6"/><path d="m125.21 140.779-10.042 3.162c-.558.186-.868.806-.682 1.363 3.967 12.522-3.038 25.974-15.5594 30.003 0 0-1.3637.558-3.8433.806l-1.7976 7.996c-.124.558-.6819.93-1.2398.806 12.9551 2.975 26.7791-1.488 35.5191-11.902 4.959-17.481.992-27.461-2.355-32.234z" fill="#6e6f72"/><path d="m93.2235 184.109 1.7976-7.997c-5.5789.496-16.6128-.867-29.3204-15.125.6199 1.86 1.3637 3.72 2.2936 5.517-.062-.062-.062-.124-.124-.186.1239.248.3099.558.4339.806-.062-.186-.186-.31-.248-.434.4959.868.9919 1.736 1.4878 2.542-.31-.496-.6199-.992-.9299-1.55 2.7275 4.711 6.5088 8.864 11.0959 11.964.372.248.7439.496 1.1158.682.248.186.4959.31.8059.496-.186-.124-.372-.248-.5579-.31 0 0 .062 0 .062.062.1239.062.3099.186.4339.248.062.062.1859.123.2479.123.4959.248.9918.558 1.4877.806 2.0456.992 4.0293 1.86 6.0749 2.48.1859.062.3099.124.4959.186.062 0 .186.062.2479.062.5579.124 1.0538.31 1.6117.434h.124c.6819.124 1.2398-.248 1.3638-.806z" fill="#868891"/><path d="m79.2764 133.651 7.5625 6.447c.4339.371 1.1158.31 1.4877-.124 8.5544-9.981 23.6794-11.22 33.6594-2.728 0 0 1.488 1.054 3.224 3.533l7.624-2.417c.558-.186 1.116.124 1.302.62-3.843-12.15-13.947-21.51-26.531-24.238-20.2702 4.092-26.531 14.196-28.3286 18.907z" fill="#7b7e88"/><path d="m135.871 150.139c0-.434 0-.867 0-1.301v.929-.062c0-.248 0-.557 0-.805 0-.062 0-.124 0-.186 0-.558-.062-1.116-.124-1.612.062.558.062 1.116.062 1.612 0-.558-.062-1.178-.124-1.736-.247-2.356-.619-4.525-1.177-6.633 0-.124-.062-.186-.062-.31-.124-.31-.186-.682-.31-.992-.186-.557-.744-.805-1.302-.619l-7.625 2.417c3.286 4.773 7.315 14.753 2.232 32.172 1.054-1.24 2.046-2.603 2.913-4.029-.061.062-.061.124-.123.186.185-.248.309-.496.495-.806-.124.186-.186.372-.31.558.372-.558.682-1.178.992-1.736.124-.186.186-.372.31-.558 1.612-3.099 2.79-6.385 3.472-9.856 0-.062 0-.124.062-.186.124-.496.186-.992.248-1.488.062-.372.123-.743.123-1.115 0-.186.062-.372.062-.558.062-.496.062-.93.124-1.426 0-.124 0-.248 0-.372 0-.558.062-1.054.062-1.612z" fill="#34353a"/><path d="m174.924 138.238c-1.487-2.108-4.153-3.1-6.88-3.1-3.224 0-6.385 1.426-6.385 5.022 0 7.872 18.596 3.409 18.596 17.356 0 8.369-6.632 12.46-14.319 12.46-4.835 0-9.608-1.488-12.832-5.269l5.269-5.083c1.736 2.603 4.65 4.091 7.749 4.091 3.223 0 6.881-1.798 6.881-5.331 0-8.554-18.535-3.657-18.535-17.605 0-8.058 7.191-11.839 14.443-11.839 4.092 0 8.183 1.177 11.22 4.029zm7.873 4.339v-6.633l6.633-2.045v8.678h7.314v5.641h-7.314v11.654c0 2.665.743 4.339 3.719 4.339 1.178 0 2.789-.248 3.595-.806v5.579c-1.364.682-3.719.868-5.269.868-7.004 0-8.678-3.162-8.678-9.422v-12.15zm41.842 26.593h-6.323v-4.277h-.124c-1.24 2.665-3.719 4.959-8.12 4.959-7.129 0-9.671-5.021-9.671-10.476l-.309-16.799h6.942v13.452c0 2.913.248 7.81 4.897 7.81 4.401 0 6.075-3.223 6.075-6.757v-14.505h6.633zm25.725-3.967h-.124c-1.922 3.223-5.455 4.649-9.112 4.649-8.183 0-13.142-6.075-13.142-13.947 0-7.873 5.269-13.948 12.832-13.948 4.959 0 7.624 2.294 9.05 4.029h.186v-15.001l6.633-2.169v40.354h-6.323zm-15.745-9.298c0 4.153 2.913 7.996 7.811 7.996 4.897 0 7.81-3.843 7.81-7.996 0-4.154-2.913-7.997-7.81-7.997-4.836 0-7.811 3.843-7.811 7.997zm24.299-13.328h7.315l7.439 18.473h.124l6.632-18.473h6.943l-12.584 32.296c-1.921 4.959-4.277 7.562-10.104 7.562-1.735 0-3.409-.247-5.083-.681l.806-6.013c1.054.372 2.232.682 3.347.682 3.286 0 4.154-1.178 5.269-3.906l1.302-3.161zm71.039 0h6.633v4.215h.124c1.425-3.037 4.401-4.897 7.872-4.897.806 0 1.612.186 2.356.372v6.447c-1.116-.248-2.17-.496-3.224-.496-6.261 0-7.128 5.269-7.128 6.695v14.257h-6.633zm16.985 13.328c0-8.369 6.446-13.948 14.443-13.948 8.058 0 14.443 5.579 14.443 13.948 0 8.368-6.447 13.947-14.443 13.947-7.997 0-14.443-5.579-14.443-13.947zm6.694 0c0 4.153 2.914 7.996 7.811 7.996s7.81-3.843 7.81-7.996c0-4.154-2.913-7.997-7.81-7.997s-7.811 3.843-7.811 7.997zm49.405 13.265h-6.323v-4.277h-.124c-1.24 2.665-3.719 4.959-8.12 4.959-7.129 0-9.67-5.021-9.67-10.476v-16.799h6.632v13.452c0 2.913.248 7.81 4.897 7.81 4.402 0 6.075-3.223 6.075-6.757v-14.505h6.633zm4.215-26.593h6.323v3.967h.124c1.922-3.223 5.455-4.649 9.112-4.649 8.183 0 13.142 6.075 13.142 13.948 0 7.872-5.269 13.947-12.832 13.947-4.959 0-7.624-2.356-9.05-4.029h-.186v14.505l-6.633 2.169zm22.006 13.328c0-4.154-2.913-7.997-7.811-7.997-4.897 0-7.81 3.843-7.81 7.997 0 4.153 2.913 7.996 7.81 7.996 4.898-.062 7.811-3.843 7.811-7.996zm-103.334-9.609h-15.002v6.323h8.059v9.298c-2.418 1.364-5.641 2.046-9.236 2.046-8.121 0-13.452-6.199-13.452-14.567 0-7.811 5.393-14.01 13.452-14.01 3.905 0 7.748 1.364 10.228 3.844l5.145-5.207c-4.091-3.658-9.484-4.959-15.435-4.959-12.088 0-20.704 8.182-20.704 20.766 0 12.273 8.616 20.456 20.704 20.456 6.075 0 11.468-1.302 16.241-3.905z" fill="#343741"/></svg>