<svg fill="none" height="300" viewBox="0 0 500 300" width="500" xmlns="http://www.w3.org/2000/svg"><path d="m242.664 97.1128s-3.878.0816-6.125.0434c-.093.9475-1.176 9.5328-2.108 16.4398-1.071 6.391-9.56 53.798-12.436 67.989-.757 4.285-3.097 16.391-3.319 17.6-2.701.324-5.892.624-7.976.705-.279.009-.745.1-.966.1v2.458c.256-.01 1.606.094 2.561.053 2.294-.074 8.803-.384 10.038-.384 4.681 0 7.801.311 12.133.398.058 0 1.246-.005 1.77-.072v-2.483c-.361 0-.838-.012-1.118-.012-1.223.039-5.729-.309-8.011-.621.268-1.624 4.25-26.176 6.16-35.995 3.633-18.173 6.148-31.053 6.148-31.053l.675 1.599 28.703 68.73 5.24.027s2.993-7.442 6.544-15.79c.094-.198.35-.796.711-1.65 3.726-8.668 22.194-52.662 22.194-52.662s.174.792.466 2.209c1.758 8.623 7.708 39.698 8.977 47.195.594 3.857 1.153 7.769 1.479 10.061.478 3.245.792 6.421.792 7.334-.582.027-6.428.558-8.64.654-.315-.011-.908.018-.943.024v2.5c.791 0 1.56.035 2.329.018 4.518-.087 8.861-.443 13.379-.44 5.077.004 13.309.45 18.584.484.594 0 1.654-.053 1.654-.053v-2.525c-.303-.003-1.631-.068-2.12-.107-2.363-.186-6.346-.557-7.359-.624 0 0-.652-3.63-1.514-7.823-3.446-16.772-13.262-67.752-14.765-80.296-.512-4.312-1.967-13.9925-1.967-13.9925l-5.904-.0018s-3.016 8.6933-5.764 16.6193c-1.875 5.417-4.425 12.104-6.369 17.231-9.595 25.334-20.355 48.941-20.355 48.941s-22.869-54.821-24.08-57.991c-1.223-3.171-8.698-24.8372-8.698-24.8372zm-164.3946.0228.0501 5.7944-.0978 14.11 1.5215-.043.1592-12.55s8.3433-.072 9.4223-.071l15.5583.007 10.041.05.016 87.278.002 7.538-.212.029c-1.336.105-6.48.42-8.569.496-.468.016-.767.027-.818.021l.009 2.554c.377.019 1.394.044 1.528.039 4.942-.065 11.629-.496 16.37-.492 4.818.003 11.597.473 15.792.522.416.003.909-.038 1.308-.038v-2.395l-.52.005c-1.337-.006-8.73-.485-9.495-.585-.032-1.171-.169-6.824-.169-6.949l.036-88.032 7.645-.021 19.945.014 6.657.092c.044.477.381 6.834.375 7.007-.015.463.249 5.198.239 6.363l1.578.019-.113-14.272.072-6.4198c-5.862.1602-20.8.3619-43.984.3496-19.883-.0122-39.0438-.1795-44.3466-.4202zm92.8586.0229.024 2.4997c.788.0429 5.415.4538 6.54.5098.898.11 2.151.223 3.047.31 0 .801.014 6.323.027 8.503.15 20.658.022 66.314-.038 82.468-.019 4.671-.032 7.681-.032 7.681-.567.171-1.843.235-3.223.329-1.18.081-5.406.437-6.35.457v2.5c.392 0 1.109.083 1.518.08 4.784.001 11.437-.596 16.338-.592 4.953.003 11.567.609 15.468.61l-.012.003c.338.004 1.141-.084 1.479-.083v-2.499h-.338c-.151-.033-5.181-.246-6.404-.373-.64-.041-3.412-.282-3.447-.375-.011-.049-.023-.796-.023-2.042.012-1.183.012-3.149.012-5.281.011-16.294.058-64.689.07-83.188 0-3.575.011-6.48.011-8.038 1.083-.069 5.508-.533 7.092-.6737.07-.0069 2.166-.1281 3.027-.1805v-2.6047c-5.414-.002-12.579.4231-17.863.4204-5.527-.0034-12.335-.439-16.923-.441zm250.585.0708s-.57.0025-1.63.0046c-3.621.0157-12.89.084-23.731.1439-6.661.0388-11.866.0925-18.724.0891-4.809.0567-11.54.2429-15.697.2354-6.637-.0109-12.051-.4218-14.997-.4341-1.398-.0062-2.178.0467-2.562.0228.023.0354.023 2.4676.023 2.4676.256.045.769.1023 1.246.0914 1.665.1125 4.786.366 6.369.576.315.058.851.146 2.341.313-.012.553.07 6.816.058 10.579 0 3.486-.035 81.268-.035 81.268 0 .126-.174 6.255-.174 6.75-2.632.453-7.686.731-9.409.738h-.512v2.474c.244-.001 1.374.044 2.014.044 2.783-.002 9.956-.446 17.28-.451 5.135-.004 10.783.189 16.5.27 7.045.099 14.171.103 20.576.195 10.561.149 19.12.162 21.903.166 0 0 .337-19.68.337-21.267l-1.525.018c0 1.674-.617 7.908-.641 8.181-.197 2.346-.407 4.805-.57 6.017 0 0-.745.06-1.106.053-1.735-.033-7.278.169-7.394.169l-24.721.011-17.362-.292-.116-4.839-.012-37.566c3.097-.105 7.825-.27 10.701-.264 2.445.005 8.209-.133 11.435-.126 7.836.014 14.8.064 15.359.08 1.292.038 3.691.117 4.599.174.035.331.14.848.152.994.465 2.877.721 4.869 1.036 7.693.046.254.07.499.105.731h1.781s.047-1.01.024-1.638c-.035-2.214-.175-6.632-.175-11.527-.012-3.394.186-8.582.209-11.077.012-.675-.069-1.155-.069-1.348l-1.631.031c-.011.54-.139 1.335-.139 1.335-.14 1.86-.664 4.237-1.083 6.745-.117.313-.198.749-.198.749-.187.063-5.298.337-5.752.334-.175-.002-7.616.208-7.744.208l-28.598-.108.046-41.424c0 .001 3.633-.128 4.646-.123 4.122.001 10.829-.037 17.665-.027 10.002.012 19.713.075 19.737.089.058.028 3.016.07 3.074.121.07.056 3.773.167 4.681.196 0 0 .07.309.116.697.408 4.368.746 9.555.897 11.393l.012.735 1.525-.004c0-2.69-.14-10.926-.163-16.166-.012-1.683.023-3.0537.023-3.8335z" fill="#06182e"/></svg>