<svg fill="none" height="300" viewBox="0 0 500 300" width="500" xmlns="http://www.w3.org/2000/svg" xmlns:xlink="http://www.w3.org/1999/xlink"><clipPath id="a"><path d="m73 107h355v85h-355z"/></clipPath><g clip-path="url(#a)" fill="#06182e"><path d="m378.642 107c-18.442 0-33.629 14.841-33.629 33.46 0 18.35 14.916 33.461 33.629 33.461 18.441 0 33.629-14.842 33.629-33.461s-15.188-33.46-33.629-33.46zm26.035 14.841c-1.627 1.08-3.526 2.159-5.424 3.238-1.085-2.158-2.441-4.317-4.068-6.206 1.356-.81 2.712-1.889 3.797-2.698 2.441 1.349 4.339 3.508 5.695 5.666zm-14.102-11.063c2.712 1.079 5.152 2.428 7.593 4.317-1.085 1.08-2.441 1.889-3.797 2.699-1.627-1.889-3.525-3.508-5.424-5.127.543-.81 1.085-1.35 1.628-1.889zm2.712 7.555c-1.899 1.08-3.797 1.619-5.696 2.429-.813-1.889-1.627-3.778-2.712-5.397 1.085-.54 2.17-1.079 2.984-1.889 1.898 1.349 3.796 2.968 5.424 4.857zm-4.068-8.095c-.543.54-1.085 1.079-1.356 1.619-1.899-1.079-3.526-2.159-5.696-2.968 2.441 0 4.882.54 7.052 1.349zm-2.441 2.429c-.814.539-1.627 1.079-2.441 1.349-1.085-1.619-2.17-2.968-3.254-4.587 1.898.809 3.796 1.888 5.695 3.238zm-7.594-2.969c1.356 1.35 2.441 2.969 3.526 4.858-1.085.269-2.17.539-3.526.539zm0 6.746c1.356 0 2.983-.269 4.339-.809 1.085 1.619 1.899 3.508 2.712 5.397-2.169.539-4.61.809-7.051 1.079zm-1.356-6.746v5.397c-1.084 0-2.169-.27-3.525-.539 1.356-1.619 2.441-3.239 3.525-4.858zm-4.61 4.318c-.814-.27-1.898-.81-2.441-1.349 1.899-1.08 3.797-2.159 5.695-2.969-1.356 1.35-2.44 2.699-3.254 4.318zm1.898-5.397c-1.898.81-3.796 1.889-5.695 2.968-.542-.539-1.085-1.079-1.356-1.619 2.17-.539 4.611-1.079 7.051-1.349zm23.052 57.206c-4.339-2.428-4.61-5.936-4.339-7.015.271-1.35 1.085-.81 1.627-.81 2.983 0 5.967-.81 9.763-4.857 4.34-4.318 5.696-14.032-1.084-20.238-7.052-6.746-14.645-5.667-19.527.539-1.085 1.35-3.525 2.159-5.424 2.159-3.254 0-1.084 2.429-1.084 2.968 0 .54-.543.81-.814.81-1.085-.27-.542 1.349-.542 1.619s-.543.81-.543.81c-1.356 0-1.085 1.079-.813 1.619 0 .269 0 .809-.543 1.079-.542.27-.813 1.349-.813 2.159 0 1.349 1.356 2.428 3.525 4.047 2.17 1.619 2.441 3.238 2.441 4.318 0 1.079.271 2.968.542 4.047.543 1.35.543 4.048-2.44 4.048-3.797.27-10.306 2.968-10.848 3.238-2.17.81-4.882 1.079-7.052.54-1.084-.81-2.169-1.619-3.254-2.699-.542-1.349.271-2.968 1.085-4.047 1.356 1.349 2.983 1.079 4.068 1.079s5.966-.809 6.78-1.079c.813-.27 1.085-.27 1.356 0 1.898.809 4.61.809 5.695-2.699 1.085-3.777-1.356-2.698-1.898-2.428-.272.27-.814 0-.543-.27.543-.81-.271-.81-.542-.81-1.085 0-2.441 1.08-2.712 1.35-.543.269-.814.269-1.085.269-1.356-.809-5.424.27-6.78-1.888 0-.54-1.085-9.445-1.627-11.064 0-.27-.271-.809.271-1.349 1.085-1.619 3.797 0 5.424 0 1.898 0 2.17-.81 2.712-1.349.542-.54.814-.27 1.085-.54s0-.54 0-.81c0-.269.271 0 .542-.269.271-.27 0-.81 0-1.08.543-.809 1.627-.27 1.085-1.889-.271-1.079.271-2.158.814-2.698.813-1.079 4.339-5.937-1.628-11.064-5.695-4.857-11.661-4.317-15.458-.269-3.797 4.047-1.898 9.984-1.627 11.603s-.814 2.968-2.17 3.508c-1.085.539-3.525 2.158-5.153 3.508.272-12.953 8.136-24.286 20.069-28.873.543.539 1.085 1.349 1.627 1.889-1.356 1.079-4.339 3.507-4.339 3.507s.271 0 .814.27c.271 0 .813.27.813.27s2.441-2.159 3.797-2.968c.814.809 1.899 1.349 2.983 1.889-.542 1.079-2.169 3.778-2.169 3.778s.271.269.542.269c.271.27.543.27.543.27s1.627-2.968 2.169-4.047c1.356.539 2.712.809 4.068.809v5.397c-.813 0-2.712 0-3.525-.27h-.543l.271.54c.272.27.272.539.543.809h3.254v9.984h1.356v-2.428c2.17 0 3.797-.27 5.695-.54l1.899-1.619h-1.085c-2.17.27-4.068.54-5.695.54 0 0-.543 0-.814 0v-6.207c2.441 0 5.153-.269 7.594-1.079.542 1.619 1.898 5.667 1.898 5.667l1.356-.54s-1.356-4.048-1.898-5.667c2.169-.539 4.068-1.619 5.966-2.428 1.627 1.889 2.983 4.047 4.068 6.206-1.085.54-2.712 1.08-2.712 1.08 1.356.269 2.441.539 2.441.539s.542-.27.813-.27c0 .27.272.81.272.81l1.898.809-.271-.539s-.543-1.349-.814-1.619c1.899-.81 3.797-1.889 5.695-3.238 3.526 5.127 5.153 11.333 5.153 17.539.543 10.254-4.61 19.429-12.204 25.365z"/><path d="m342.03 115.905-.543.54c-1.898 1.619-6.509 6.206-5.695 11.333v.27l.271 1.079.543-.54c2.712-2.428 4.881-6.746 5.695-11.603l.271-1.349z"/><path d="m332.809 124.54-.271.539c-.271.81-.814 2.699-1.085 4.857-.542 3.239-.271 8.096 2.441 11.604l.271.539.271.54.543-2.159c.542-3.778-.271-11.603-1.627-15.111l-.543-1.079z"/><path d="m329.554 138.032v.539c-.271 3.238 0 11.604 6.78 16.191l.814.54v-1.08c0-3.238-3.797-12.682-6.509-15.92l-.813-1.08z"/><path d="m330.64 152.873v.54c1.084 4.857 5.424 12.412 12.475 14.841l1.085.27-.272-1.08c-1.356-3.508-8.136-11.873-12.475-14.571l-.813-.54z"/><path d="m345.013 123.19-.813.27c-5.153 3.238-7.594 7.016-7.594 11.873v1.08l.814-.54c2.712-2.429 6.508-8.365 7.322-11.603l.271-1.349z"/><path d="m341.759 133.444-.272.54c-1.356 1.349-5.695 5.937-5.424 11.603 0 .81.272 1.889.543 2.699l.271.809.542-.809c2.17-2.969 4.882-10.524 4.611-14.032v-1.079z"/><path d="m342.03 143.429-.271.539c-2.17 3.238-3.255 6.476-3.255 9.714 0 2.159.814 4.318 2.17 6.477l.542.809.272-.809c.813-1.889 1.627-7.556 1.627-12.143 0-1.619-.271-2.968-.543-3.778l-.271-1.079z"/><path d="m344.47 153.952-.271.54c-.542 2.159-1.085 4.048-.813 6.206 0 4.318 2.169 7.826 5.966 10.254l.542.27.272-.809v-.81c0-3.508-2.712-12.682-4.882-15.381l-.542-.809z"/><path d="m337.148 167.984.271.54c2.712 4.587 7.594 10.794 16.544 9.174h.813l-.542-.539c-1.627-2.429-12.475-8.635-16.272-9.175l-1.085-.27z"/><path d="m350.437 179.857-1.356.27 1.356.54c5.695 2.428 12.746 2.968 17.086 1.619 1.627-.54 2.44-1.35 3.525-2.429 7.323.81 14.103 6.746 18.171 11.603l.271.27h.271c.542-.27 1.085-.809 1.356-1.079l.271-.27-.271-.27c-4.068-5.397-10.577-8.635-10.848-8.905-5.966-2.698-16.272-4.857-29.832-1.349z"/><path d="m350.708 164.746v.54c.814 5.396 2.983 12.412 12.204 11.603h.543l-.272-.54c-.542-2.428-8.949-9.444-11.932-11.333l-.814-.54z"/><path d="m414.711 115.365.272 1.349c.813 4.857 2.983 9.175 5.695 11.603l.542.54.271-1.079v-.27c.814-5.127-3.796-9.714-5.695-11.333l-.542-.54z"/><path d="m424.203 124-.542 1.079c-1.356 3.508-1.899 11.334-1.627 15.111l.542 2.159.271-.27.271-.539c2.984-3.508 2.984-8.096 2.441-11.603-.271-2.429-.813-4.048-1.085-4.858l-.271-.539z"/><path d="m427.729 137.492-.814 1.079c-2.712 3.508-6.509 12.683-6.509 15.921v1.079l.814-.539c6.78-4.318 7.051-12.683 6.78-16.191v-.54z"/><path d="m426.644 152.333-1.085.54c-4.339 2.698-11.119 11.063-12.475 14.571l-.271 1.08 1.085-.27c7.051-2.159 11.661-9.984 12.475-14.841v-.54z"/><path d="m412.271 122.651.271 1.349c1.085 3.508 4.339 9.445 7.322 11.873l.814.54v-1.08c.271-4.857-2.17-8.635-7.323-11.873l-.542-.269z"/><path d="m415.254 133.175v1.079c-.272 3.508 2.712 11.333 4.61 14.032l.542.809.272-.809c.271-1.08.542-1.889.542-2.699.271-5.666-4.068-10.254-5.424-11.603l-.271-.27z"/><path d="m414.983 142.889-.272 1.079c-.271.81-.542 2.159-.542 3.778 0 4.587.542 10.254 1.627 12.143l.271.809.543-.809c1.356-1.889 2.169-4.048 2.169-6.476 0-2.969-1.084-6.476-3.254-9.715l-.271-.539z"/><path d="m412.542 153.413-.543.809c-2.169 2.699-4.881 11.873-4.881 15.381v.81l.271.809.542-.27c3.797-2.428 5.695-5.936 5.967-10.254 0-1.889-.272-4.047-.814-6.206l-.271-.54z"/><path d="m420.407 167.444-1.085.27c-3.797.54-14.645 6.746-16.272 9.175l-.543.539h.814c8.95 1.62 13.831-4.587 16.543-9.174l.271-.54z"/><path d="m377.286 181.206c-.272 0-6.78 3.508-10.848 8.905l-.271.27.271.27c.271.27 1.084.809 1.356 1.079h.271l.271-.27c4.068-4.857 10.848-11.063 18.17-11.603 1.085 1.079 2.17 1.889 3.526 2.429 4.068 1.349 11.39.809 17.086-1.619l1.356-.54-1.356-.27c-13.832-3.508-24.137-1.349-29.832 1.349z"/><path d="m406.575 164.206-.813.54c-2.984 1.889-11.12 8.905-11.933 11.333l-.271.54h.542c8.95.81 11.119-6.206 12.204-11.603v-.54z"/><path d="m177.683 110.238h11.39v10.254h-11.39zm1.085 22.127h9.492v50.19h-9.492z"/><path d="m106.9 132.365h9.492v50.19h-9.221v-7.285h-.271c-3.797 6.206-10.3057 8.905-17.3568 8.905-10.5768 0-16.5432-8.096-16.5432-18.08v-33.73h9.492v29.683c0 8.634 1.8984 15.111 11.1192 15.111 3.7967 0 9.2208-1.889 11.1188-7.286 1.899-4.587 1.899-10.524 1.899-11.873v-25.635z"/><path d="m135.376 139.651c3.525-6.206 10.305-8.905 15.458-8.905 3.526 0 18.984.81 18.984 17v34.54h-9.492v-31.572c0-8.365-3.525-12.682-11.661-12.682 0 0-5.153-.27-9.221 3.778-1.356 1.349-4.068 3.508-4.068 13.492v27.254h-9.492v-50.191h9.492z"/><path d="m228.126 148.286c-.543-6.207-3.526-10.524-10.306-10.524-8.949 0-12.475 7.825-12.475 19.429 0 11.603 3.526 19.428 12.475 19.428 6.238 0 10.035-4.048 10.577-11.333h9.492c-.814 11.333-9.221 18.079-20.34 18.079-16.001 0-22.509-11.333-22.509-25.905 0-14.571 7.322-26.714 23.323-26.714 10.576 0 18.441 6.746 18.984 17.54z"/><path d="m251.991 159.079c-.813 8.635 2.984 17.81 12.476 17.81 7.322 0 11.119-2.968 12.204-10.254h10.034c-1.627 11.333-10.306 17-22.238 17-16.001 0-22.51-11.333-22.51-25.905 0-14.571 7.322-26.714 23.323-26.714 14.916.27 21.967 9.714 21.967 23.476v4.587zm25.493-6.476c.271-8.365-3.525-14.841-12.746-14.841-7.865 0-12.475 6.746-12.475 14.841z"/><path d="m298.095 182.016v-43.175h-8.678v-6.476h8.678v-10.794c.272-10.793 8.679-13.761 15.73-13.761 2.17 0 4.61.539 6.78 1.079v7.825c-1.627 0-3.254-.27-4.882-.27-5.424 0-8.407 1.35-8.136 6.747v9.174h11.662v6.476h-11.662v43.175z"/></g></svg>