<svg fill="none" height="300" viewBox="0 0 500 300" width="500" xmlns="http://www.w3.org/2000/svg" xmlns:xlink="http://www.w3.org/1999/xlink"><clipPath id="a"><path d="m51 118h397v64h-397z"/></clipPath><g clip-path="url(#a)" fill="#000"><path clip-rule="evenodd" d="m102.819 173.096h11.283l9.612-15.444 9.89 15.444h12.676l-16.298-24.487 14.069-21.705h-11.422l-8.219 13.496-8.497-13.496h-12.676l15.044 22.4zm-42.3467-17.531c0 2.783.4179 5.287 1.393 7.652.8358 2.366 2.2287 4.313 3.761 5.983 1.6716 1.67 3.6218 2.922 5.9898 3.896 2.3681.834 5.0148 1.391 7.94 1.391 2.9253 0 5.572-.417 7.94-1.391 2.3681-.974 4.3183-2.226 5.9899-3.896 1.6715-1.67 2.9252-3.617 3.761-5.983.8358-2.365 1.393-4.869 1.393-7.652v-28.661h-10.4474v27.27c0 1.53-.1393 2.922-.4179 4.174s-.8358 2.226-1.5322 3.2c-.6965.835-1.5323 1.53-2.6467 2.087-1.1144.417-2.5074.695-4.0397.695-1.6715 0-3.0645-.278-4.1789-.695-1.1144-.418-1.9502-1.113-2.6467-2.087-.6965-.835-1.1144-1.948-1.5323-3.2-.2786-1.252-.4178-2.644-.4178-4.174v-27.27h-10.3081zm-9.4723 26.435h103.081v-64h-103.081z" fill-rule="evenodd"/><path d="m166.618 126.348h10.308v36.73h21.73v9.183h-32.038z"/><path d="m223.73 163.774c1.95 0 3.761-.417 5.433-1.113 1.532-.835 2.925-1.809 4.039-3.2 1.115-1.391 1.95-2.922 2.508-4.591.557-1.809.835-3.618.835-5.566 0-1.947-.278-3.895-.835-5.565-.558-1.809-1.393-3.339-2.508-4.591-1.114-1.252-2.507-2.365-4.039-3.061-1.533-.696-3.344-1.113-5.433-1.113-1.95 0-3.761.417-5.433 1.113-1.671.696-2.925 1.809-4.039 3.061-1.115 1.252-1.95 2.922-2.508 4.591-.557 1.809-.835 3.618-.835 5.565 0 1.948.278 3.896.835 5.566.558 1.808 1.393 3.339 2.508 4.591 1.114 1.391 2.507 2.365 4.039 3.2 1.672.696 3.483 1.113 5.433 1.113zm0 9.878c-3.343 0-6.547-.556-9.333-1.808-2.925-1.253-5.433-2.922-7.522-5.148-2.09-2.226-3.761-4.731-5.015-7.792-1.253-2.921-1.811-6.121-1.811-9.6 0-3.478.558-6.678 1.811-9.6 1.254-2.921 2.925-5.565 5.015-7.652 2.089-2.226 4.597-3.895 7.522-5.148 2.925-1.252 5.99-1.808 9.333-1.808s6.547.556 9.333 1.808c2.925 1.253 5.433 2.922 7.522 5.148 2.09 2.226 3.761 4.731 5.015 7.652 1.254 2.922 1.811 6.122 1.811 9.6 0 3.479-.557 6.679-1.811 9.6-1.254 2.922-2.925 5.566-5.015 7.792-2.089 2.226-4.597 3.895-7.522 5.148-2.786 1.252-5.99 1.808-9.333 1.808z"/><path d="m255.769 126.348h10.029l20.059 29.774v-29.774h10.308v45.913h-9.472l-20.616-30.33v30.33h-10.308z"/><path d="m322.632 163.078c4.597 0 8.079-1.252 10.586-3.617 2.508-2.365 3.762-5.704 3.762-9.878 0-2.087-.279-4.035-.836-5.705-.557-1.669-1.393-3.2-2.647-4.452-1.114-1.252-2.647-2.087-4.457-2.782-1.811-.696-3.901-.974-6.408-.974h-6.269v27.547h6.269zm-16.716-36.73h17.273c3.482 0 6.826.417 9.751 1.391 3.064.974 5.572 2.365 7.801 4.174 2.228 1.948 3.9 4.313 5.154 7.235 1.253 2.922 1.81 6.4 1.81 10.435 0 3.756-.557 7.095-1.81 9.878-1.254 2.783-2.926 5.148-5.154 7.096-2.229 1.947-4.737 3.339-7.801 4.313-3.065.974-6.269 1.391-9.751 1.391h-17.273z"/><path d="m376.958 163.774c1.95 0 3.761-.417 5.433-1.113 1.532-.835 2.925-1.809 4.039-3.2 1.115-1.391 1.951-2.922 2.508-4.591.557-1.809.835-3.618.835-5.566 0-1.947-.278-3.895-.835-5.565-.557-1.809-1.393-3.339-2.508-4.591-1.114-1.252-2.507-2.365-4.039-3.061-1.533-.696-3.343-1.113-5.433-1.113-1.95 0-3.761.417-5.433 1.113-1.671.696-2.925 1.809-4.039 3.061-1.115 1.252-1.95 2.922-2.508 4.591-.557 1.809-.835 3.618-.835 5.565 0 1.948.278 3.896.835 5.566.558 1.808 1.393 3.339 2.508 4.591 1.114 1.391 2.507 2.365 4.039 3.2 1.672.696 3.483 1.113 5.433 1.113zm0 9.878c-3.343 0-6.547-.556-9.333-1.808-2.925-1.253-5.433-2.922-7.522-5.148-2.09-2.226-3.761-4.731-5.015-7.792-1.253-2.921-1.811-6.121-1.811-9.6 0-3.478.558-6.678 1.811-9.6 1.254-2.921 2.925-5.565 5.015-7.652 2.089-2.226 4.597-3.895 7.522-5.148 2.925-1.252 5.99-1.808 9.333-1.808s6.547.556 9.333 1.808c2.925 1.253 5.433 2.922 7.522 5.148 2.09 2.226 3.761 4.731 5.015 7.652 1.254 2.922 1.811 6.122 1.811 9.6 0 3.479-.557 6.679-1.811 9.6-1.254 2.922-2.925 5.566-5.015 7.792-2.089 2.226-4.597 3.895-7.522 5.148-2.786 1.252-5.99 1.808-9.333 1.808z"/><path d="m407.604 126.348h10.029l20.059 29.774v-29.774h10.308v45.913h-9.472l-20.616-30.33v30.33h-10.308z"/></g></svg>