<svg fill="none" height="300" viewBox="0 0 500 300" width="500" xmlns="http://www.w3.org/2000/svg" xmlns:xlink="http://www.w3.org/1999/xlink"><mask id="a" height="107" maskUnits="userSpaceOnUse" width="457" x="22" y="97"><path d="m22.6938 203.308h455.6122v-105.6134h-455.6122z" fill="#fff"/></mask><g mask="url(#a)"><path d="m79.4252 191.033h4.0767v-17.547c0-13.779 8.5645-21.171 18.3801-21.171h.42v-4.295c-8.3985-.331-15.3705 4.628-18.8001 12.188v-11.786h-4.0767zm337.3158-9.877c-2.094 2.322-6.868 6.576-14.166 6.576-9.666 0-17.253-8.085-17.253-18.227v-.167c0-10.064 7.337-18.067 16.923-18.067 4.479 0 9.449 1.536 14.438 6.453l2.537-2.776c-2.71-3.198-8.485-7.463-16.892-7.463-12.625 0-21.386 10.225-21.386 22.02v.164c0 11.795 8.776 21.852 21.386 21.852 8.832 0 14.978-4.953 17.043-7.965zm-296.681 2.845c-8.616 0-15.994-6.841-15.994-16.213v-.164c0-9.879 7.298-16.023 15.966-16.023 8.593 0 16.753 6.306 16.753 16.101v.169c0 9.628-8.138 16.13-16.725 16.13zm.541 19.306c6.079 0 11.422-1.99 14.985-5.646 3.328-3.408 5.21-8.029 5.21-15.771v-33.468h-3.961v8.661c-2.222-4.756-8.942-9.389-17.207-9.389-9.973 0-19.854 7.887-19.854 20.094v.172c0 12.122 9.881 19.921 19.854 19.921 8.18 0 14.878-4.822 17.207-9.801v3.905c0 11.61-6.129 17.503-16.152 17.503-6.875 0-11.852-2.497-16.714-5.937l-2.328 3.275c2.74 2.361 9.765 6.481 18.96 6.481zm224.461-12.274h4.077v-24.919c0-12.322-6.356-18.425-16.734-18.425-10.859 0-15.135 8.194-15.54 9.226v-8.493h-4.073v42.611h4.073v-20.732c0-13.137 6.759-18.878 14.959-18.878 13.103 0 13.238 11.835 13.238 17.06zm-157.393 0h4.08v-24.919c0-12.322-6.358-18.425-16.737-18.425-10.859 0-15.139 8.194-15.54 9.226v-8.493h-4.068v42.611h4.068v-20.732c0-13.137 6.761-18.878 14.968-18.878 13.095 0 13.229 11.835 13.229 17.06zm100.441-2.735c7.518 0 15.521-4.219 15.521-14.235v-5.668h-12.187c-10.2 0-15.332 2.615-15.332 10.052v-.009c0 5.752 5.073 9.86 11.998 9.86zm15.448-23.551v-.584c0-8.679-5.324-12.368-13.807-12.368-4.477 0-8.681 1.118-13.146 3.291l-1.471-3.315c4.522-2.296 9.843-3.777 15.183-3.777 5.539 0 10.007 1.363 12.984 4.333 3.256 3.254 4.176 7.468 4.176 11.781v26.925h-3.919v-6.753c-.834 1.711-6.06 7.671-15.812 7.671-8.204 0-15.802-4.837-15.802-13.279v-.158c0-13.738 14.653-13.767 18.992-13.767zm-81.022 23.551c7.518 0 15.517-4.219 15.517-14.235v-5.668h-12.19c-10.198 0-15.325 2.615-15.325 10.052v-.009c0 5.752 5.075 9.86 11.998 9.86zm15.441-23.551v-.584c0-8.679-5.32-12.368-13.805-12.368-4.469 0-8.676 1.118-13.144 3.291l-1.471-3.315c4.519-2.296 9.843-3.777 15.179-3.777 5.549 0 10.011 1.363 12.986 4.333 3.26 3.254 4.177 7.468 4.177 11.781v26.925h-3.922v-6.753c-.836 1.711-6.059 7.671-15.802 7.671-8.21 0-15.809-4.837-15.809-13.279v-.158c0-13.738 14.65-13.767 18.986-13.767zm120.285 26.293v-38.876h8.521v-3.732h-8.521v-10.633h-4.065v10.635 3.737 38.869zm-107.375 0v-38.876h8.514v-3.742h-8.514v-10.623h-4.08v10.635 3.737 38.869zm120.011 0h4.077v-42.606h-4.077zm-108.216 0h4.073v-53.232h-4.073zm-116.59-.007h4.077v-42.601h-4.077zm0-48.344h4.077v-4.883h-4.077zm-76.2826 48.344h4.0767v-42.601h-4.0767zm-27.3641 0h3.7645l19.4345-42.601h-4.5191l-16.6953 37.67-16.9174-37.67h-4.8191zm328.4527-48.344h4.077v-4.883h-4.077zm-301.0886-4.881h4.0767v4.882h-4.0767z" fill="#06182e"/></g><path d="m455 150 23-52.0001c-30.5-.0001-38.5-1.9999-45.5 3.5001l-30 33c3 .5 5.5-1 16.5 4 7.152 3.251 13 8.658 18 10.5 9.5 3.5 14 2 18 1z" fill="#06182e"/><path d="m466.207 119.125c-.227-.393-.817-.665-1.866-.211-1.116.485-1.576.696-1.61.71-.033.014-1.364.705-1.23-1.1l.421-4.255s.167-1.55-1.046-1.54c0 0-.642-.076-1.679.833 0 0-.505.471-.895.57-.222.056-.484.081-.862-.047-.378-.126-.717-.069-.982.012 0 0-1.164.307-1.249 1.895l-.467 3.771s-.248 1.477-.118 1.751c0 0 .122.595 1.192.223 0 0 .907-.258 1.01-1.803 0 0 .26-3.031.692-3.62 0 0 .508-.952 1.245-1.364 0 0 1.045-.51 1.031.346l-.377 3.46s-.364 1.715.406 1.975c0 0 .084.04-.109.144 0 0-4.996 2.125-11.429 5.693.443-3.629 1.197-8.693 1.197-8.693.11-.821-.896-.821-.896-.821-.989-.038-1.125 1.117-1.208 1.621-.087.506-.827 4.604-.827 4.604-.34 1.865-1.449 1.782-1.449 1.782-1.093.119-.442-2.834-.442-2.834.293-1.053.397-1.948 1.23-2.65.817-.696.895-1.595.277-1.622-1.023-.042-2.073 1.056-2.073 1.056-1.826 1.805-1.823 6.155-1.823 6.155-.035 1.383.899 1.791.899 1.791 1.16.535 2.754-.398 2.754-.398.375-.249.321.1.321.1l-.081 1.109c-4.717 2.719-9.959 6.115-14.482 9.95 0 0-2.076 1.522-1.303 2.523.824 1.064 1.964.094 2.434-.339 0 0 4.635-4.747 13.195-10.056l-.276 3.571c-.122 1.608-.64 6.592-.64 6.592-.24 1.952.076 2.337.192 2.486.172.213.935.862 1.797.308 1.055-.679.531-2.309.356-3.073-.177-.769-.153-2.029-.153-2.029.08-1.027.675-7.966.675-7.966.011-.268.044-.653.09-1.124 3.279-1.922 7.042-3.876 11.252-5.663 0 0 1.822-.722 3.373-1.211 0 0 .511-.192 1.167-.383.876-.258 2.007-.642 2.338-1.127.196-.284.266-.689.028-1.102zm-12.114-5.968s.968-.8.526-1.387c0 0-.411-.612-1.558.199 0 0-1.027.84-.397 1.434 0 0 .597.563 1.429-.246zm-2.768 10.241s1.157-.248 1.361-1.56c0 0 .686-4.893.717-5.059.028-.167.328-1.452-.578-1.251 0 0-1.108.217-1.309 1.311l-.864 4.813-.158.977s-.229 1.041.831.769zm-14.826-4.465c.89-.712.628-1.302.628-1.302-.333-.956-1.542.062-1.542.062-1.02.731-.664 1.438-.664 1.438.446.765 1.578-.198 1.578-.198zm1.125 3.663s-.445 3.194-.516 3.906c0 0-.593 2.693.857 2.208 0 0 1.168-.322 1.352-1.962l.234-2.311s.071-1.711 1.431-2.445c0 0 1.461-.657 1.017-1.559 0 0-.276-.71-1.14-.333-.658.297-1.008.328-1.008.328s-.876.112-1.001.128c0 0-1.077.045-1.226 2.04zm-2.703-.549c-1.355.308-1.532 1.848-1.532 1.848l-.829 6.13c-.132 1.215 1.448.332 1.448.332.649-.388.764-1.188.764-1.188l.251-1.538.769-4.148c.251-1.73-.871-1.436-.871-1.436zm1.938-12.271s1.406-2.594 2.518-3.446c0 0 1.215-.735 1.251-1.944 0 0 .089-.807-.567-1.307 0 0-1.714-1.398-3.104.978 0 0-6.56 12.394-8.821 24.887 0 0-.173.409-.217-.733 0 0-.966-10.485-1.004-10.864-.038-.385-.011-1.324-.888-1.389 0 0-1.036-.189-1.647 1.363l-2.909 7.16s-.48.895.293 1.233c0 0 .864.49 1.432-.719l1.342-2.882c.269-.585.467-.502.467-.502.154.031.22.616.22.616s1.183 14.076 1.194 14.187c.014.107.118 1.238 1.067 1.236.69-.003.903-.772 1.04-1.409.139-.636 1.418-7.33 3.552-14.552 1.396-4.734 3.197-9.46 4.781-11.913z" fill="#fff"/></svg>