<svg width="500" height="300" viewBox="0 0 500 300" fill="none" xmlns="http://www.w3.org/2000/svg">
<rect width="500" height="300" fill="white"/>
<g clip-path="url(#clip0_834_355)">
<mask id="mask0_834_355" style="mask-type:luminance" maskUnits="userSpaceOnUse" x="-175" y="-4846" width="4561" height="5922">
<path d="M-174.041 1075.12H4385.8V-4845.86H-174.041V1075.12Z" fill="white"/>
</mask>
<g mask="url(#mask0_834_355)">
<path d="M336.608 75.9487L315.207 163.002L293.747 75.9487H231.762V108.094C224.23 79.9641 196.599 72.9088 171.909 72.508C141.805 72.1148 108.449 85.1591 107.292 124.965H148.928C148.928 112.949 159.931 106.068 170.321 106.242C183.078 106.136 188.946 111.58 189.241 120.057C188.802 127.415 184.462 132.535 170.427 132.535H156.422V161.421H169.134C176.355 161.421 186.405 165.353 186.798 175.637C187.282 187.895 178.76 193.279 168.272 193.385C149.548 192.69 144.716 178.307 144.716 165.936H101.5C101.681 174.269 101.409 228.586 169.141 228.185C201.59 228.48 225.205 214.838 231.867 196.032V224.858H273.549V130.939L296.598 224.858H333.84L356.972 131.045V224.941H399.5V75.9487H336.608ZM231.898 162.797C226.589 151.817 219.118 147.016 214.914 145.496C223.738 141.571 228.359 136.247 231.898 125.638V162.797Z" fill="#06182E"/>
</g>
</g>
<defs>
<clipPath id="clip0_834_355">
<rect width="300" height="157.69" fill="white" transform="translate(100.5 71.5)"/>
</clipPath>
</defs>
</svg>
