<svg width="500" height="300" viewBox="0 0 500 300" fill="none" xmlns="http://www.w3.org/2000/svg">
<rect width="500" height="300" fill="white"/>
<path d="M111.784 179.319H107.648V177.821H117.633V179.319H113.567V191.301H111.784V179.319ZM118.488 177.108H120.271V183.17H120.343C120.628 182.671 121.056 182.243 121.626 181.887C122.126 181.601 122.768 181.387 123.409 181.387C124.693 181.387 126.833 182.172 126.833 185.524V191.301H124.978V185.738C124.978 184.169 124.408 182.885 122.768 182.885C121.626 182.885 120.771 183.67 120.414 184.597C120.343 184.882 120.271 185.096 120.271 185.453V191.301H118.488V177.108ZM134.963 185.524C134.963 184.383 134.535 182.671 132.538 182.671C130.755 182.671 129.971 184.311 129.828 185.524H134.963ZM129.828 186.808C129.899 189.161 131.397 190.16 133.18 190.16C134.464 190.16 135.248 189.946 135.89 189.66L136.176 190.944C135.534 191.229 134.464 191.586 132.895 191.586C129.899 191.586 128.117 189.589 128.117 186.665C128.117 183.741 129.828 181.459 132.681 181.459C135.89 181.459 136.675 184.24 136.675 186.023C136.675 186.38 136.675 186.665 136.603 186.808H129.828ZM141.81 191.301V177.821H143.735L148.086 184.597C149.084 186.166 149.869 187.592 150.511 188.947H150.582C150.439 187.164 150.368 185.524 150.368 183.384V177.75H152.008V191.229H150.225L145.946 184.383C145.019 182.885 144.092 181.316 143.45 179.89H143.379C143.45 181.601 143.521 183.17 143.521 185.453V191.229H141.81M159.283 186.38C157.357 186.38 155.146 186.665 155.146 188.591C155.146 189.732 155.931 190.302 156.787 190.302C158.071 190.302 158.855 189.518 159.14 188.662C159.212 188.448 159.212 188.234 159.212 188.091V186.38H159.283ZM160.995 189.018C160.995 189.874 161.066 190.659 161.137 191.372H159.568L159.426 190.16H159.354C158.784 190.944 157.785 191.586 156.359 191.586C154.362 191.586 153.363 190.231 153.363 188.805C153.363 186.451 155.432 185.167 159.212 185.239V185.025C159.212 184.24 158.998 182.814 157.001 182.814C156.074 182.814 155.146 183.099 154.433 183.527L154.005 182.314C154.79 181.815 156.002 181.459 157.215 181.459C160.21 181.459 160.923 183.456 160.923 185.381V189.018H160.995ZM164.988 179.319V181.673H167.485V183.028H164.988V188.234C164.988 189.446 165.345 190.088 166.344 190.088C166.843 190.088 167.128 190.017 167.342 189.946L167.413 191.301C167.057 191.443 166.557 191.515 165.844 191.515C164.988 191.515 164.347 191.229 163.919 190.801C163.419 190.231 163.205 189.375 163.205 188.234V183.028H161.708V181.673H163.205V179.89L164.988 179.319ZM168.554 181.673H170.337V191.372H168.554V181.673ZM170.551 178.962C170.551 179.533 170.123 180.032 169.41 180.032C168.768 180.032 168.34 179.533 168.34 178.962C168.34 178.392 168.768 177.893 169.482 177.893C170.123 177.821 170.551 178.321 170.551 178.962ZM173.547 186.522C173.547 188.662 174.759 190.231 176.471 190.231C178.182 190.231 179.395 188.662 179.395 186.451C179.395 184.811 178.539 182.742 176.471 182.742C174.474 182.814 173.547 184.668 173.547 186.522ZM181.249 186.38C181.249 189.946 178.753 191.515 176.399 191.515C173.761 191.515 171.764 189.589 171.764 186.522C171.764 183.313 173.903 181.387 176.613 181.387C179.324 181.459 181.249 183.456 181.249 186.38ZM182.676 184.24C182.676 183.242 182.676 182.386 182.604 181.601H184.173L184.245 183.17H184.316C184.815 182.243 185.956 181.387 187.525 181.387C188.88 181.387 190.949 182.172 190.949 185.524V191.301H189.166V185.738C189.166 184.169 188.595 182.885 186.883 182.885C185.742 182.885 184.815 183.741 184.53 184.668C184.459 184.882 184.387 185.167 184.387 185.524V191.301H182.604V184.24M198.009 186.38C196.084 186.38 193.873 186.665 193.873 188.591C193.873 189.732 194.657 190.302 195.513 190.302C196.797 190.302 197.653 189.518 197.867 188.662C197.938 188.448 197.938 188.234 197.938 188.091V186.38H198.009ZM199.721 189.018C199.721 189.874 199.792 190.659 199.863 191.372H198.294L198.152 190.16H198.08C197.51 190.944 196.511 191.586 195.085 191.586C193.088 191.586 192.09 190.231 192.09 188.805C192.09 186.451 194.158 185.167 197.938 185.239V185.025C197.938 184.24 197.724 182.814 195.727 182.814C194.8 182.814 193.873 183.099 193.159 183.527L192.732 182.314C193.516 181.815 194.728 181.459 195.941 181.459C198.936 181.459 199.649 183.456 199.649 185.381V189.018H199.721ZM201.646 177.108H203.429V191.301H201.646V177.108ZM218.763 190.944C218.121 191.229 216.837 191.586 215.197 191.586C211.417 191.586 208.564 189.161 208.564 184.739C208.564 180.531 211.417 177.679 215.625 177.679C217.265 177.679 218.406 178.035 218.834 178.249L218.406 179.676C217.765 179.39 216.837 179.105 215.696 179.105C212.558 179.105 210.419 181.102 210.419 184.668C210.419 188.02 212.344 190.088 215.625 190.088C216.695 190.088 217.765 189.874 218.478 189.518L218.763 190.944ZM219.547 181.673L221.687 187.378C221.901 188.02 222.186 188.804 222.329 189.375H222.4C222.614 188.804 222.757 188.02 223.042 187.378L224.968 181.673H226.822L224.183 188.591C222.899 191.871 222.044 193.583 220.831 194.653C219.975 195.366 219.12 195.722 218.692 195.794L218.264 194.367C218.692 194.225 219.262 193.939 219.833 193.512C220.332 193.155 220.903 192.442 221.33 191.586C221.402 191.443 221.473 191.301 221.473 191.158C221.473 191.087 221.402 190.944 221.33 190.73L217.765 181.815H219.547M234.239 191.015C233.74 191.229 232.742 191.586 231.458 191.586C228.534 191.586 226.608 189.589 226.608 186.665C226.608 183.67 228.676 181.53 231.814 181.53C232.884 181.53 233.811 181.815 234.239 182.029L233.811 183.384C233.383 183.17 232.742 182.956 231.743 182.956C229.532 182.956 228.32 184.597 228.32 186.594C228.32 188.804 229.746 190.231 231.672 190.231C232.67 190.231 233.312 190.017 233.811 189.803L234.239 191.015ZM235.309 177.108H237.092V191.301H235.309V177.108ZM245.436 185.524C245.436 184.383 245.008 182.671 243.011 182.671C241.228 182.671 240.444 184.311 240.301 185.524H245.436ZM240.23 186.808C240.301 189.161 241.799 190.16 243.582 190.16C244.866 190.16 245.65 189.946 246.292 189.66L246.649 190.944C246.007 191.229 244.937 191.586 243.368 191.586C240.373 191.586 238.59 189.589 238.59 186.665C238.59 183.741 240.301 181.459 243.154 181.459C246.363 181.459 247.148 184.24 247.148 186.023C247.148 186.38 247.148 186.665 247.077 186.808H240.23ZM253.995 189.946C254.422 190.017 255.064 190.017 255.778 190.017C259.557 190.017 261.554 187.949 261.554 184.311C261.554 181.102 259.771 179.105 256.063 179.105C255.136 179.105 254.494 179.176 253.995 179.319V189.946ZM252.283 178.035C253.353 177.893 254.636 177.75 255.992 177.75C258.488 177.75 260.271 178.321 261.483 179.39C262.695 180.531 263.409 182.029 263.409 184.24C263.409 186.451 262.695 188.234 261.483 189.446C260.199 190.73 258.131 191.372 255.492 191.372C254.209 191.372 253.21 191.301 252.354 191.229V178.035H252.283ZM269.756 186.38C267.83 186.38 265.62 186.665 265.62 188.591C265.62 189.732 266.404 190.302 267.26 190.302C268.544 190.302 269.399 189.518 269.613 188.662C269.685 188.448 269.685 188.234 269.685 188.091V186.38H269.756ZM271.468 189.018C271.468 189.874 271.539 190.659 271.61 191.372H270.041L269.899 190.16H269.827C269.257 190.944 268.258 191.586 266.832 191.586C264.835 191.586 263.837 190.231 263.837 188.805C263.837 186.451 265.905 185.167 269.685 185.239V185.025C269.685 184.24 269.471 182.814 267.474 182.814C266.547 182.814 265.62 183.099 264.906 183.527L264.478 182.314C265.263 181.815 266.475 181.459 267.688 181.459C270.683 181.459 271.396 183.456 271.396 185.381V189.018H271.468ZM275.462 179.319V181.673H278.029V183.028H275.462V188.234C275.462 189.446 275.818 190.088 276.817 190.088C277.316 190.088 277.601 190.017 277.815 189.946L277.886 191.301C277.53 191.443 277.031 191.515 276.317 191.515C275.462 191.515 274.82 191.229 274.392 190.801C273.893 190.231 273.679 189.375 273.679 188.234V183.028H272.181V181.673H273.679V179.89L275.462 179.319ZM284.376 186.38C282.451 186.38 280.24 186.665 280.24 188.591C280.24 189.732 281.024 190.302 281.88 190.302C283.164 190.302 284.02 189.518 284.234 188.662C284.305 188.448 284.305 188.234 284.305 188.091V186.38H284.376ZM286.088 189.018C286.088 189.874 286.159 190.659 286.231 191.372H284.662L284.519 190.16H284.448C283.877 190.944 282.879 191.586 281.452 191.586C279.455 191.586 278.457 190.231 278.457 188.805C278.457 186.451 280.525 185.167 284.305 185.239V185.025C284.305 184.24 284.091 182.814 282.094 182.814C281.167 182.814 280.24 183.099 279.527 183.527L279.099 182.314C279.883 181.815 281.096 181.459 282.308 181.459C285.304 181.459 286.017 183.456 286.017 185.381V189.018H286.088ZM289.797 187.449C289.797 187.663 289.797 187.877 289.868 188.091C290.153 189.304 291.223 190.16 292.507 190.16C294.361 190.16 295.431 188.662 295.431 186.451C295.431 184.525 294.432 182.885 292.507 182.885C291.294 182.885 290.225 183.741 289.868 185.025C289.797 185.239 289.797 185.452 289.797 185.738V187.449ZM288.085 177.108H289.797V183.17H289.868C290.51 182.101 291.651 181.387 293.149 181.387C295.574 181.387 297.285 183.384 297.285 186.308C297.285 189.732 295.074 191.443 292.935 191.443C291.508 191.443 290.439 190.873 289.654 189.66H289.583L289.511 191.229H288.014C288.085 190.587 288.085 189.589 288.085 188.733V177.108ZM303.847 186.38C301.921 186.38 299.71 186.665 299.71 188.591C299.71 189.732 300.495 190.302 301.35 190.302C302.634 190.302 303.49 189.518 303.704 188.662C303.775 188.448 303.775 188.234 303.775 188.091V186.38H303.847ZM305.558 189.018C305.558 189.874 305.63 190.659 305.701 191.372H304.132L303.989 190.16H303.918C303.347 190.944 302.349 191.586 300.922 191.586C298.926 191.586 297.927 190.231 297.927 188.805C297.927 186.451 299.995 185.167 303.775 185.239V185.025C303.775 184.24 303.561 182.814 301.564 182.814C300.637 182.814 299.71 183.099 298.997 183.527L298.569 182.314C299.353 181.815 300.566 181.459 301.778 181.459C304.774 181.459 305.487 183.456 305.487 185.381V189.018H305.558ZM307.199 189.518C307.769 189.874 308.696 190.231 309.552 190.231C310.836 190.231 311.406 189.589 311.406 188.805C311.406 187.949 310.907 187.521 309.623 187.022C307.84 186.38 307.056 185.452 307.056 184.311C307.056 182.742 308.34 181.459 310.408 181.459C311.406 181.459 312.262 181.744 312.761 182.029L312.334 183.313C311.977 183.099 311.264 182.742 310.337 182.742C309.267 182.742 308.768 183.313 308.768 184.097C308.768 184.882 309.338 185.239 310.622 185.738C312.262 186.38 313.189 187.164 313.189 188.662C313.189 190.374 311.834 191.586 309.552 191.586C308.482 191.586 307.484 191.301 306.842 190.944L307.199 189.518ZM320.749 185.524C320.749 184.383 320.25 182.671 318.324 182.671C316.541 182.671 315.757 184.311 315.614 185.524H320.749ZM315.614 186.808C315.686 189.161 317.183 190.16 318.966 190.16C320.25 190.16 321.034 189.946 321.676 189.66L322.033 190.944C321.391 191.229 320.321 191.586 318.752 191.586C315.757 191.586 313.974 189.589 313.974 186.665C313.974 183.741 315.686 181.459 318.538 181.459C321.748 181.459 322.532 184.24 322.532 186.023C322.532 186.38 322.532 186.665 322.461 186.808H315.614ZM250.714 132.89C255.136 132.89 257.561 130.038 257.561 125.188C257.561 122.406 256.063 120.766 253.353 120.766H250.714L248.146 132.89H250.714ZM240.801 112.137H252.069C258.345 112.137 262.767 112.493 265.762 114.989C268.33 117.129 269.542 120.124 269.542 124.118C269.542 131.892 266.404 136.599 259.914 138.168C263.623 139.095 265.263 141.092 265.263 144.587C265.263 148.652 263.409 153.145 263.409 157.781C263.409 159.278 263.623 160.491 264.193 161.561V162.559H251.784C251.356 161.703 251.284 160.705 251.284 159.492C251.284 154.714 253.353 149.793 253.353 145.443C253.353 143.232 251.784 141.805 249.288 141.805H246.292L241.942 162.63H230.103L240.801 112.137ZM288.085 138.81C288.513 136.813 288.656 135.315 288.656 134.388C288.656 131.821 287.515 130.466 285.375 130.466C282.237 130.466 281.167 132.962 280.026 138.81H288.085ZM279.955 163.629C271.682 163.629 267.189 159.706 267.189 152.788C267.189 150.506 267.759 147.012 268.758 142.304C269.97 136.813 271.04 133.176 271.967 131.321C274.748 125.83 278.528 123.69 285.589 123.69C293.862 123.69 298.284 127.613 298.284 134.959C298.284 137.027 297.713 140.45 296.643 145.157H278.671L277.958 148.367C277.53 150.078 277.316 151.647 277.316 152.788C277.316 155.142 278.386 156.283 280.525 156.283C283.307 156.283 284.662 154.286 285.375 149.722H295.502C293.791 159.492 289.084 163.629 279.955 163.629ZM308.982 144.872C308.34 147.511 308.197 149.365 308.197 150.435C308.197 152.503 309.267 153.787 310.978 153.787C313.76 153.787 314.687 151.077 315.828 145.87L316.755 141.306C317.326 138.881 317.469 137.17 317.469 136.171C317.469 133.889 316.399 132.676 314.544 132.676C311.977 132.676 311.192 135.458 309.909 141.021L308.982 144.872ZM108.219 167.124L308.554 165.911C311.906 165.911 311.335 166.553 312.476 161.061L313.261 157.424C310.978 160.063 308.625 161.275 305.487 161.275C300.138 161.275 297.57 158.351 297.57 152.289C297.57 148.01 298.426 142.304 300.495 135.458C302.848 127.47 305.487 123.762 311.406 123.762C315.472 123.762 317.754 125.545 319.679 129.396L320.678 124.689H330.734L323.887 156.782C322.532 163.201 322.889 164.841 320.464 167.765C317.611 171.189 314.045 173.899 308.839 173.899L108.219 167.124ZM337.652 111.352H348.136L346.353 120.053H335.798L337.652 111.352ZM334.799 124.689H345.283L337.224 162.559H326.74L334.799 124.689ZM350.775 150.15V151.077C350.775 154.928 351.987 156.782 354.84 156.782C356.979 156.782 358.477 155.427 358.477 153.359C358.477 151.291 357.122 150.078 354.626 148.081C349.491 143.874 345.426 141.021 345.426 134.602C345.426 127.827 350.061 123.833 358.263 123.833C366.536 123.833 370.886 127.684 370.886 134.745C370.886 135.387 370.886 136.028 370.815 136.67H361.686V135.743C361.686 132.106 360.617 130.466 358.12 130.466C356.123 130.466 354.982 131.607 354.982 133.532C354.982 135.957 356.765 137.17 359.689 139.523C364.896 143.66 367.962 146.584 367.962 152.147C367.962 159.35 363.327 163.629 355.268 163.629C345.925 163.629 341.289 159.706 341.289 151.861C341.289 151.362 341.289 150.791 341.36 150.221H350.775M381.014 153.43C381.014 155.071 381.87 155.356 384.223 155.356H385.578L383.938 162.916C382.155 163.13 380.515 163.272 379.017 163.272C373.026 163.272 369.959 160.99 369.959 156.426C369.959 154.714 370.53 152.289 371.172 149.08L374.88 131.607H370.601L372.099 124.689H376.378L378.803 113.42H389.287L386.862 124.689H392.068L390.571 131.607H385.364L381.228 151.219C381.156 152.218 381.014 152.931 381.014 153.43ZM408.044 138.81C408.472 136.813 408.614 135.315 408.614 134.388C408.614 131.821 407.473 130.466 405.334 130.466C402.195 130.466 401.126 132.962 399.985 138.81H408.044ZM399.913 163.629C391.64 163.629 387.147 159.706 387.147 152.788C387.147 150.506 387.718 147.012 388.716 142.304C389.929 136.813 390.998 133.176 391.926 131.321C394.707 125.83 398.558 123.69 405.548 123.69C413.821 123.69 418.242 127.613 418.242 134.959C418.242 137.027 417.672 140.45 416.602 145.157H398.63L397.916 148.367C397.488 150.078 397.274 151.647 397.274 152.788C397.274 155.142 398.344 156.283 400.484 156.283C403.265 156.283 404.62 154.286 405.334 149.722H415.461C413.678 159.492 408.971 163.629 399.913 163.629ZM423.663 124.689H432.934L431.365 131.963C433.861 126.258 436.928 123.619 441.564 123.619H442.277L439.781 135.387H437.498C432.221 135.387 431.294 138.453 429.939 144.872L426.087 162.63H415.603L423.663 124.689Z" fill="#06182E"/>
<path d="M118.56 154.714H129.472C133.465 154.714 137.031 153.43 137.031 148.652C137.031 143.945 134.036 142.019 129.685 142.019H118.56V154.714ZM118.56 135.101H128.901C132.467 135.101 135.177 133.461 135.177 129.61C135.177 125.188 131.825 124.332 128.188 124.332H118.56V135.101ZM108.361 116.416H130.185C139.028 116.416 145.019 119.268 145.019 127.827C145.019 132.32 142.737 135.529 138.743 137.455C144.377 139.095 147.23 143.374 147.23 149.151C147.23 158.565 139.242 162.559 130.827 162.559H108.361V116.416ZM149.726 129.182H158.926V162.63H149.726V129.182ZM149.726 116.416H158.926V123.976H149.726V116.416ZM162.136 116.416H171.336V141.163L182.961 129.11H193.873L181.178 141.377L195.299 162.559H184.173L174.973 147.582L171.407 151.005V162.488H162.207V116.416M216.267 142.304C215.411 137.669 213.414 135.173 208.921 135.173C203.073 135.173 201.361 139.666 201.218 142.304H216.267ZM201.29 148.153C201.575 154.001 204.428 156.64 209.563 156.64C213.271 156.64 216.267 154.357 216.837 152.289H224.968C222.4 160.206 216.837 163.558 209.206 163.558C198.58 163.558 192.018 156.283 192.018 145.942C192.018 135.886 199.008 128.255 209.206 128.255C220.617 128.255 226.18 137.811 225.538 148.081H201.29V148.153ZM42.391 160.562C48.2391 172.9 57.7246 182.885 69.0643 183.527C78.4071 184.097 84.1126 179.89 86.5375 174.683C87.8212 171.831 90.5313 171.545 89.1763 176.252C88.7483 177.821 83.4707 188.091 68.5651 187.235C52.9462 186.308 43.6747 173.114 38.6824 161.846C36.6141 157.139 33.8327 148.652 38.6824 146.94C43.5321 145.229 46.0283 151.505 49.3089 158.922C55.7276 173.4 65.9976 176.823 70.4194 176.966C74.9125 177.108 80.8319 174.327 81.1885 168.55C81.6164 161.418 75.9109 159.564 75.9109 159.564C75.9109 159.564 81.8304 168.621 73.914 172.401C64.7138 176.823 55.371 166.054 52.3756 155.427C51.3772 151.933 53.9447 151.362 56.2269 156.212C58.5804 161.133 63.0022 168.978 68.993 169.334C73.9853 169.62 74.6272 165.768 72.6302 161.703C70.776 157.852 66.7821 155.071 62.0037 153.288C38.3258 144.301 36.2575 138.025 34.4746 135.672C33.2621 134.031 32.6203 130.893 34.2606 130.965C35.4017 131.036 36.1862 132.249 38.2545 134.816C41.9631 139.523 50.2361 144.301 61.8611 149.008C72.7016 153.359 79.8335 157.495 85.6103 161.347C91.3872 165.127 93.0275 168.193 92.5283 169.192C91.9577 170.404 88.7483 168.265 88.2491 167.908C87.6786 167.623 85.9669 166.482 85.539 169.762C85.0398 173.114 80.404 181.53 70.4194 180.888C56.9401 180.104 48.9523 167.266 45.4577 159.92C43.8174 156.426 41.2499 149.793 39.8235 150.292C38.3971 150.934 41.7491 159.278 42.391 160.562ZM36.1149 146.441C35.3304 146.441 34.6172 145.87 34.4746 145.086L34.3319 142.804C34.1893 141.948 34.5459 141.092 35.473 140.949C36.4002 140.807 37.1134 141.734 37.256 142.661L37.7552 144.587C37.8979 145.443 37.3273 146.298 36.4002 146.441C36.3289 146.441 36.1862 146.441 36.1149 146.441ZM69.2069 163.272C67.2813 161.632 64.9991 160.277 63.7154 157.923C62.4316 155.427 59.5789 154.928 60.506 157.995C61.4332 161.061 64.1433 163.914 66.996 165.412C69.9201 166.838 71.2039 164.913 69.2069 163.272ZM78.7637 149.65C67.2813 144.373 55.0144 139.666 49.0237 136.242C42.9615 132.819 38.3971 125.045 37.7552 121.408C37.3987 119.197 34.3319 116.273 34.6172 121.693C34.8312 127.185 39.8948 135.957 48.3105 139.951C56.7974 144.016 74.9838 150.791 83.4707 155.926C91.7437 160.919 94.3112 163.914 95.2384 162.559C96.2368 161.133 90.246 154.857 78.7637 149.65ZM51.1632 134.459C61.7898 141.377 77.4799 143.374 91.3158 153.573C92.9562 154.785 96.0229 155.784 93.598 152.147C90.9592 148.153 78.5497 141.948 69.8488 138.81C65.0704 137.098 43.5321 130.18 44.6732 116.701C45.2437 109.997 52.3756 109.783 54.0873 109.926C55.8703 110.068 63.7867 112.065 68.779 119.696C73.7713 127.328 75.483 133.176 69.4922 132.676C63.5014 132.177 51.9477 121.123 52.233 118.199C52.447 115.774 57.7959 116.986 65.4983 127.684C68.6364 132.035 69.2069 128.326 68.4937 126.686C67.4953 124.403 62.0037 113.991 53.7307 113.349C47.526 112.85 46.8128 118.413 50.664 123.476C53.802 127.613 62.4316 135.529 69.9914 136.171C72.9868 136.456 75.483 135.173 76.6954 132.819C78.4071 135.957 81.2598 141.734 81.8304 141.449C82.4723 141.163 83.6134 141.805 82.0444 136.742C80.4753 131.749 76.8381 125.188 75.4117 122.62C74.2706 120.41 72.5589 117.985 70.2054 115.417C67.424 112.493 62.9309 108.071 57.2967 106.93C45.4577 104.363 40.822 112.208 40.394 116.915C40.0375 120.053 41.8917 128.326 51.1632 134.459ZM452.975 120.196H453.759C454.686 120.196 455.399 119.91 455.399 119.197C455.399 118.555 454.9 118.127 453.902 118.127C453.474 118.127 453.189 118.199 453.046 118.199V120.196H452.975ZM452.903 124.118H451.263V117.129C451.905 117.058 452.832 116.915 453.973 116.915C455.328 116.915 455.899 117.129 456.327 117.485C456.754 117.771 457.04 118.27 457.04 118.983C457.04 119.839 456.398 120.41 455.613 120.624V120.695C456.255 120.909 456.612 121.479 456.826 122.406C457.04 123.476 457.182 123.833 457.325 124.118H455.613C455.399 123.833 455.257 123.262 455.043 122.406C454.9 121.693 454.472 121.337 453.616 121.337H452.832V124.118H452.903ZM448.624 120.481C448.624 123.619 450.978 126.044 454.116 126.044C457.111 126.115 459.465 123.548 459.465 120.552C459.465 117.414 457.182 114.918 454.044 114.918C450.978 114.918 448.624 117.414 448.624 120.481ZM461.248 120.481C461.248 124.403 458.11 127.47 454.044 127.47C450.051 127.47 446.841 124.403 446.841 120.481C446.841 116.558 450.051 113.492 454.116 113.492C458.038 113.492 461.248 116.558 461.248 120.481Z" fill="#06182E"/>
</svg>
