<svg width="500" height="300" viewBox="0 0 500 300" fill="none" xmlns="http://www.w3.org/2000/svg">
<rect width="500" height="300" fill="white"/>
<path fill-rule="evenodd" clip-rule="evenodd" d="M386.375 119.667C386.12 119.684 384.338 119.478 383.646 119.528C383.445 119.542 382.511 119.457 382.511 119.564C382.511 119.834 382.47 120.243 382.438 120.486C382.364 121.122 382.417 121.704 382.376 122.343C382.297 123.618 382.317 124.917 382.313 126.196C382.309 126.842 382.461 129.359 382.439 129.974C382.413 130.853 382.34 132.578 382.449 133.239C382.533 133.75 382.513 135.026 383.433 135.715C384.393 136.434 388.1 136.827 388.687 136.851C389.258 136.874 390.569 136.886 390.569 136.993C390.569 137.695 390.628 138.813 390.569 139.513C390.52 140.104 390.552 140.806 390.487 141.394C390.416 142.032 390.422 142.69 390.393 143.332C390.379 143.652 390.484 144.995 390.285 145.194C389.947 145.531 389.016 145.291 388.574 145.341C388.311 145.37 382.277 145.236 381.588 145.194C381.069 145.161 378.237 145.078 376.439 143.596C373.752 141.376 373.636 139.052 373.565 138.2C373.509 137.538 373.495 136.853 373.515 136.177C373.532 135.64 373.508 133.417 373.418 132.812C373.33 132.223 373.45 128.315 373.422 127.721C373.409 127.463 373.179 124.725 373.2 124.152C373.224 123.427 373.215 122.706 373.207 121.982C373.203 121.519 373.326 119.766 373.245 119.528C373.211 119.421 369.974 119.47 369.413 119.564C369.253 119.59 368.312 119.457 368.062 119.528C368.062 119.528 368.053 113.077 367.966 112.774C367.884 112.485 367.982 111.237 367.921 110.937C367.912 110.894 372.903 110.896 373.192 110.869C373.525 110.836 373.707 110.902 373.742 110.83C373.877 110.563 373.861 109.887 373.849 109.588C373.828 108.991 373.929 105.18 373.867 104.52C373.837 104.207 373.615 102.392 373.817 102.096C373.947 101.908 376.616 101.985 377.237 102.007C378.488 102.051 381.791 101.97 381.973 102.02C382.112 102.06 382.286 101.995 382.418 102.061C382.487 102.096 382.533 102.435 382.56 102.735C382.677 104.059 382.504 105.371 382.506 106.701C382.507 107.307 382.599 108.058 382.584 108.666C382.574 108.987 382.561 109.309 382.547 109.632C382.537 109.879 382.475 110.795 382.545 110.725C382.601 110.668 383.775 110.779 384.134 110.787C384.797 110.8 388.896 110.842 390.035 110.973C390.593 111.036 390.923 111.04 390.923 111.079C390.96 111.895 390.953 112.954 390.968 113.641C390.997 114.878 390.898 116.094 390.996 117.326C391.041 117.907 391.064 119.503 390.889 119.528C390.639 119.564 386.667 119.648 386.375 119.667ZM360.806 144.495C360.457 144.488 358.948 144.573 358.531 144.58C357.718 144.595 355.551 145.042 355.199 144.866C354.494 144.514 354.448 144.015 354.438 143.299C354.429 142.53 354.388 141.772 354.281 141.008C354.23 140.638 354.149 140.498 353.809 140.761C353.524 140.98 353.248 141.222 352.978 141.461C352.459 141.924 352.043 142.494 351.441 142.863C350.855 143.223 350.212 143.548 349.601 143.866C348.946 144.207 348.246 144.465 347.539 144.668C346.845 144.866 343.695 145.102 343.357 145.102C342.446 145.103 341.472 144.759 340.625 144.461C339.743 144.151 339.02 143.945 338.325 143.311C334.798 140.099 334.642 137.02 334.577 136.491C334.477 135.705 334.296 134.932 334.181 134.148C334.079 133.445 334.242 132.704 334.207 131.985C334.175 131.237 334.053 128.183 333.996 127.404C333.891 125.943 333.965 124.506 333.93 123.044C333.913 122.312 334.045 121.628 333.973 120.898C333.915 120.321 334.025 115.795 333.981 114.134C333.973 113.789 333.693 112.271 333.84 111.776C333.887 111.613 333.969 111.45 334.109 111.355C334.275 111.243 334.489 111.241 334.688 111.245C336.384 111.276 338.078 111.328 339.772 111.365C340.115 111.373 342.462 111.359 342.799 111.503C343.211 111.677 343.37 111.725 343.373 112.195C343.388 114.438 343.145 116.649 343.307 118.895C343.361 119.644 343.362 120.396 343.386 121.145C343.422 122.257 343.658 126.784 343.659 127.945C343.659 128.712 343.587 129.477 343.567 130.243C343.552 130.968 343.628 131.726 343.698 132.448C343.769 133.173 343.834 133.935 344.098 134.617C344.317 135.184 344.574 135.96 345.104 136.307C345.709 136.701 346.49 136.899 347.184 137.065C347.901 137.235 348.652 136.926 349.348 136.754C350.052 136.58 350.687 136.266 351.199 135.764C353.5 133.514 353.653 130.028 353.689 129.27C353.725 128.548 353.664 127.829 353.672 127.109C353.676 126.763 353.709 126.477 353.631 126.138C353.554 125.799 353.593 123.57 353.577 122.791C353.564 122.06 353.593 119.967 353.606 119.602C353.63 118.907 353.482 113.768 353.47 113.406C353.459 113.065 353.47 112.064 353.531 111.89C353.582 111.743 353.57 111.602 353.606 111.455C353.686 111.106 355.772 111.2 356.489 111.171C356.85 111.157 360.222 111.422 360.962 111.509C361.307 111.55 362.689 111.426 362.969 111.593C363.227 111.747 363.162 112.018 363.111 112.264C363.038 112.61 363.036 112.974 362.992 113.325C362.902 114.074 362.955 114.841 362.964 115.593C362.981 117.159 362.999 118.721 362.959 120.286C362.918 121.872 363.058 123.454 362.962 125.041C362.865 126.609 362.899 128.148 362.926 129.716C362.951 131.234 362.964 132.749 363.045 134.261C363.065 134.637 363.104 135.012 363.124 135.39C363.144 135.797 363.094 136.203 363.11 136.607C363.127 136.993 363.562 140.524 363.548 140.893C363.526 141.638 363.383 142.661 363.632 143.384C363.723 143.651 363.897 144.022 363.75 144.297C363.597 144.584 361.528 144.508 360.806 144.495ZM318.927 144.249C318.782 144.233 318.83 143.462 318.857 142.983C318.982 140.815 318.957 138.638 318.853 136.469C318.772 134.753 319.004 128.88 318.982 127.603C318.955 126.259 318.789 124.925 318.692 123.586C318.637 122.824 318.474 122.065 318.223 121.32C317.807 120.078 315.782 118.96 314.036 119.048C308.622 119.322 308.521 123.661 308.57 124.474C308.711 126.824 308.39 129.131 308.413 131.47C308.418 132.022 308.449 135.338 308.459 136.444C308.479 138.653 308.593 141.419 308.615 143.628C308.619 143.97 308.618 144.33 308.454 144.631C308.364 144.798 304.927 144.584 303.337 144.728C302.192 144.829 298.665 144.865 298.665 144.333C298.665 134.699 299.497 122.401 298.587 112.811C298.552 112.465 298.603 112.064 298.555 111.586C298.502 111.059 299.476 111.257 299.846 111.25C301.318 111.225 302.69 111.249 304.15 111.06C305.236 110.919 307.275 110.985 307.307 111.155C307.344 111.354 307.191 111.837 307.259 112.017C307.706 113.176 307.157 115.659 307.616 115.725C307.876 115.738 308.418 115.073 308.797 114.722C312.032 111.725 316.735 110.393 321.063 111.25C322.478 111.532 323.892 112.055 324.947 113.042C325.845 113.879 326.432 114.998 326.86 116.148C328.62 120.867 327.905 126.089 327.757 131.123C327.659 134.457 328.003 136.958 327.986 141.123C327.983 141.861 328.158 144.536 327.87 144.536C325.276 144.536 321.506 144.533 318.927 144.249ZM291.073 120.421C289.483 120.358 287.845 120.475 286.406 121.156C284.969 121.835 283.762 123.166 283.586 124.746C283.512 125.406 283.611 128.819 283.648 129.902C283.808 134.481 283.941 137.383 283.941 142.496C283.941 143.031 283.994 143.667 283.968 144.252C283.958 144.461 281.107 144.458 280.187 144.438C278.522 144.403 274.675 144.545 274.463 144.28C274.193 143.941 274.329 143.106 274.34 142.689C274.451 138.329 274.437 133.969 274.279 129.612C274.222 128.067 273.872 114.495 273.797 113.689C273.741 113.099 273.638 112.144 273.744 111.771C273.823 111.495 274.945 111.672 275.312 111.655C276.523 111.598 281.814 111.578 282.157 111.878C282.313 112.014 282.433 112.708 282.496 112.905C282.733 113.645 282.971 114.385 283.208 115.125C283.22 115.159 283.23 115.195 283.242 115.231C285.297 112.962 288.166 111.447 291.199 111.028C291.508 110.986 292.135 110.921 292.387 111.108C292.697 111.339 292.478 112.107 292.482 112.494C292.491 113.552 292.472 114.331 292.482 115.388C292.488 116.086 292.723 120.198 292.368 120.321C291.957 120.465 291.508 120.437 291.073 120.421ZM267.225 131.417C266.777 131.364 266.378 131.421 265.931 131.422C263.499 131.43 261.066 131.499 258.633 131.499C257.489 131.475 256.342 131.418 255.199 131.426C254.095 131.434 252.943 131.423 251.849 131.545C250.646 131.677 249.42 131.438 248.208 131.56C247.916 131.587 247.857 131.68 247.875 131.967C247.941 133.004 248.045 134.036 248.523 134.973C249.037 135.978 249.773 136.866 250.701 137.51C251.787 138.263 253.088 138.365 254.366 138.267C255.546 138.176 256.829 137.966 257.764 137.176C259.34 135.84 259.265 134.366 259.368 134.161C259.421 134.056 260.002 134.109 260.364 134.131C260.761 134.156 263.377 134.308 264.303 134.237C265.357 134.155 268.446 134.268 268.473 134.562C268.486 134.712 268.392 135.121 268.313 135.493C268.2 136.017 267.988 136.321 267.832 136.823C267.664 137.369 267.365 137.905 267.101 138.41C266.771 139.042 266.401 139.655 265.995 140.243C265.639 140.757 265.267 141.435 264.796 141.844C263.829 142.689 262.776 143.427 261.444 143.96C260.405 144.375 259.616 144.52 258.706 144.808C257.353 145.235 255.846 145.448 254.442 145.477C252.996 145.506 251.614 145.396 250.173 145.26C248.531 145.104 247.714 144.623 246.62 144.037C246.081 143.747 245.521 143.5 244.993 143.189C243.363 142.231 242.201 140.855 241.1 139.352C240.31 138.272 239.636 137.149 239.199 135.877C238.886 134.966 238.666 134.028 238.476 133.087C238.292 132.181 238.122 131.306 238.138 130.378C238.176 129.453 238.197 128.541 238.169 127.616C238.146 126.838 238.132 126.054 238.249 125.283C238.365 124.512 239.334 118.719 241.583 115.623C242.091 114.921 242.767 114.066 243.393 113.468C244.043 112.848 246.004 111.816 247.413 111.265C248.138 110.982 249.539 110.651 250.308 110.534C251.844 110.302 253.83 110.348 254.974 110.44C257.018 110.606 260.029 111.819 260.539 112.038C261.01 112.24 261.872 112.816 262.286 113.116C263.143 113.739 263.927 114.463 264.613 115.27C265.143 115.893 265.613 116.563 266.073 117.238C266.505 117.875 266.761 118.553 267.13 119.224C267.648 120.165 268.026 121.219 268.223 122.288C268.325 122.839 268.702 126.828 268.739 127.586C268.786 128.626 268.766 131.367 268.685 131.367C268.239 131.367 267.614 131.463 267.225 131.417ZM226.329 120.09C225.945 120.076 224.97 120.025 224.97 120.078C224.97 120.318 224.904 121.354 224.902 121.848C224.898 122.389 224.88 122.924 224.847 123.463C224.964 124.631 224.633 125.829 224.697 126.997C224.729 127.568 224.355 132.066 225.075 134.056C225.432 135.04 226.472 136.122 227.467 136.56C227.955 136.775 228.511 136.808 229.033 136.856C229.636 136.909 232.983 136.878 233.009 137.037C233.223 138.317 233.003 140.133 233.18 141.413C233.262 142.009 233.34 142.584 233.349 143.188C233.357 143.772 233.276 144.28 233.276 144.306C233.276 144.569 232.407 144.704 232.158 144.732C231.953 144.755 231.698 144.747 231.504 144.806C231.001 144.955 225.406 144.943 224.818 144.836C224.186 144.721 219.565 143.76 217.514 141.111C216.835 140.232 216.209 139.023 215.917 137.935C215.609 136.786 215.203 133.365 215.212 132.796C215.224 132.144 215.223 129.674 215.298 129.079C215.376 128.444 215.757 120.375 215.317 120.181C215.084 120.079 214.746 120.115 214.497 120.103C214.18 120.088 210.912 120.025 210.698 119.955C210.698 119.955 210.672 111.778 210.842 111.675C211.125 111.504 213.97 111.656 214.291 111.685C214.682 111.72 215.517 111.718 215.517 111.665C215.517 111.076 215.508 110.201 215.568 109.611C215.631 108.98 215.461 102.278 215.677 102.213C215.944 102.134 218.131 102.188 218.743 102.209C219.298 102.228 221.675 102.278 222.319 102.266C222.92 102.254 224.757 102.344 224.757 102.48C224.757 102.826 224.897 104.54 224.888 105.123C224.877 105.761 224.719 111.581 224.757 111.585C225.502 111.665 233.675 111.661 233.649 111.931C233.596 112.464 233.547 120.124 233.436 120.238C233.381 120.29 226.92 120.109 226.329 120.09ZM201.901 201.44C201.608 201.362 201.25 201.481 200.999 201.288C200.772 201.112 200.647 200.747 200.517 200.497C200.351 200.182 200.197 199.864 200.049 199.542C199.921 199.259 199.761 198.995 199.652 198.703C199.525 198.363 196.836 192.458 196.554 191.773C196.417 191.444 196.281 191.117 196.139 190.79C196.016 190.505 195.877 190.029 195.611 189.839C195.187 189.531 194.861 190.747 194.727 191.017C194.405 191.679 192.581 196.092 192.322 196.729C192.203 197.018 190.61 201.704 190.135 201.555C189.813 201.453 187.971 201.516 187.576 201.568C186.87 201.659 182.542 201.628 182.143 201.598C181.829 201.574 180.456 201.837 179.937 201.555C179.689 201.42 180.452 200.408 180.563 199.986C180.645 199.677 185.8 189.179 185.961 188.903C186.303 188.318 187.445 185.814 187.744 185.195C187.878 184.916 188.038 184.672 187.968 184.357C187.9 184.051 187.693 183.734 187.553 183.454C187.218 182.78 186.87 182.112 186.534 181.438C186.231 180.827 185.969 180.195 185.604 179.616C184.821 178.375 184.026 177.16 183.362 175.85C182.714 174.575 179.676 169.008 179.843 168.755C180.155 168.283 188.387 168.557 188.711 168.577C189.201 168.607 190.009 168.455 190.183 168.792C190.582 169.559 191.105 170.395 191.182 170.651C191.278 170.982 192.329 172.957 192.682 173.645C193.366 174.979 194.204 176.71 194.904 178.037C194.992 178.201 195.145 178.679 195.378 178.7C195.646 178.724 199.34 171.987 199.644 171.423C199.929 170.893 200.096 170.3 200.42 169.8C200.581 169.552 200.746 169.218 200.958 169.009C201.206 168.763 201.527 168.943 201.831 168.898C202.101 168.858 207.266 168.858 207.625 168.877C207.973 168.897 209.778 168.648 210.396 169.062C211.04 169.493 210.418 169.915 210.203 170.39C209.942 170.969 204.662 181.526 204.502 181.775C204.144 182.334 203.868 182.953 203.514 183.517C203.366 183.752 203.038 184.088 202.989 184.368C202.944 184.639 203.26 185.008 203.372 185.247C203.984 186.535 204.546 187.849 205.155 189.14C205.794 190.499 206.406 191.868 207.081 193.212C207.379 193.804 207.61 194.408 207.967 194.971C208.339 195.557 208.712 196.145 209.045 196.756C209.377 197.37 209.719 197.963 210.129 198.53C210.509 199.057 211.253 200.816 211.384 201.083C211.325 201.593 209.448 201.4 209.081 201.407C208.33 201.42 202.217 201.523 201.901 201.44ZM172.805 198.675C172.541 198.958 170.351 200.302 168.793 200.775C166.807 201.376 161.548 201.556 160.599 201.492C159.746 201.434 158.829 201.317 158.006 201.091C157.208 200.871 156.402 200.545 155.637 200.222C154.847 199.887 154.163 199.44 153.501 198.9C153.168 198.628 150.451 196.085 149.985 195.365C149.532 194.665 149.271 193.959 148.956 193.194C148.804 192.825 147.69 188.19 147.639 187.317C147.531 185.465 147.454 184.512 147.47 182.657C147.478 181.779 147.435 180.846 147.568 179.977C147.633 179.562 148.11 177.939 148.234 177.523C148.492 176.664 148.901 175.895 149.331 175.114C149.533 174.745 151.614 170.683 155.226 169.088C158.642 167.579 163.206 167.555 164.148 167.533C165.965 167.488 167.686 167.994 169.323 168.763C170.097 169.125 170.881 169.489 171.522 170.065C172.135 170.617 172.739 171.185 173.335 171.756C173.912 172.309 175.867 174.847 176.001 175.261C176.134 175.661 176.679 177.119 176.707 177.541C176.733 177.927 177.229 179.472 177.241 179.928C177.251 180.338 178.001 187.742 177.056 191.431C176.383 194.066 174.507 196.854 172.805 198.675ZM156.874 111.162C157.088 111.476 156.83 113.629 156.876 113.994C156.94 114.473 156.884 116.785 156.856 117.486C156.734 120.602 156.908 123.716 156.858 126.831C156.845 127.615 156.958 132.124 157.015 132.495C157.078 132.89 157.784 135.482 160.164 136.408C161.575 136.959 164.015 136.19 164.362 136.06C164.999 135.82 165.541 135.412 166.032 134.946C166.504 134.501 167.119 133.946 167.401 133.353C167.683 132.763 167.528 121.173 167.575 118.107C167.585 117.321 167.6 116.536 167.585 115.75C167.575 115.038 167.601 114.325 167.448 113.626C167.37 113.276 167.263 111.949 167.457 111.697C167.635 111.463 172.88 111.34 173.563 111.43C173.928 111.478 176.961 111.324 176.971 111.59C177.024 112.922 176.796 120.372 176.781 121.124C176.776 121.503 176.86 125.237 176.813 125.237C176.818 125.588 176.819 125.717 176.818 125.731C176.835 127.146 176.847 128.563 176.885 129.976C176.905 130.687 176.797 131.438 176.872 132.14C176.946 132.848 176.835 138.046 176.933 138.792C177.028 139.544 177.361 144.153 176.794 144.462C176.171 144.803 175.491 144.841 174.798 144.782C174.092 144.722 171.296 144.589 170.901 144.603C170.338 144.626 169.331 145.037 168.93 144.445C168.765 144.198 168.77 141.09 168.615 140.128C168.578 139.911 168.64 139.553 168.333 139.59C168.079 139.623 167.782 140.059 167.639 140.247C167.23 140.786 165.304 142.653 164.658 142.908C164.364 143.024 162.954 144.058 162.254 144.161C161.935 144.208 158.552 145.121 156.294 144.854C155.912 144.81 151.757 144.167 149.747 141.429C147.889 138.896 147.831 136.815 147.831 135.845C147.832 135.131 147.79 127.877 147.785 127.101C147.78 126.431 147.629 122.086 147.605 120.582C147.581 119.001 147.534 117.416 147.577 115.835C147.597 115.072 147.472 111.537 147.472 111.377C147.472 111.302 149.123 111.253 149.655 111.272C150.416 111.297 156.703 110.91 156.874 111.162ZM182.35 115.089C182.347 114.43 182.305 113.773 182.357 113.114C182.4 112.59 182.35 111.315 182.491 111.315C182.591 111.315 183.606 111.318 184.159 111.305C184.727 111.291 185.197 111.224 185.764 111.31C186.359 111.401 187.177 111.281 187.177 111.209C187.177 110.904 187.193 109.266 187.198 109.008C187.211 108.347 187.218 107.685 187.231 107.025C187.241 106.431 187.117 101.971 187.337 101.971C188.029 101.971 193.871 102.026 194.49 101.971C194.583 101.901 196.139 101.757 196.194 102.113C196.281 102.676 196.379 103.438 196.336 103.994C196.316 104.239 196.452 105.276 196.465 105.567C196.476 105.818 196.39 110.863 196.522 110.837C196.63 110.816 205.356 111.138 205.356 111.256C205.356 111.31 205.282 119.702 205.21 119.72C204.922 119.791 204.114 119.812 203.816 119.782C203.547 119.755 201.949 119.636 201.411 119.66C200.18 119.714 196.601 119.622 196.629 119.649C196.647 119.668 196.649 120.44 196.655 120.608C196.682 121.3 196.383 127.067 196.435 127.676C196.458 127.959 196.484 132.004 196.887 133.189C197.221 134.173 197.504 135.221 198.326 135.932C198.663 136.224 199.068 136.425 199.5 136.532C199.747 136.594 203.989 136.466 204.324 136.545C204.558 136.602 204.584 137.09 204.552 137.486C204.503 138.11 204.608 142.188 204.724 142.78C204.78 143.072 204.802 144.492 204.713 144.676C204.498 145.117 202.269 145.009 201.697 144.995C201.032 144.977 198.713 145.07 198.162 145.002C197.554 144.928 196.641 144.835 196.038 144.722C195.782 144.676 191.615 144.65 188.597 139.918C187.296 137.879 187.013 134.534 186.948 133.417C186.931 133.135 187.268 127.701 187.21 126.417C187.149 125.112 187.293 121.312 187.235 120.705C187.214 120.479 187.337 119.729 187.337 119.782C187.337 119.809 182.811 119.755 182.385 119.729C182.326 119.725 182.279 118.184 182.295 117.863C182.311 117.538 182.352 115.693 182.35 115.089ZM142.504 193.798C142.219 194.383 141.311 196.479 140.952 196.947C138.323 200.37 133.793 200.799 133.157 200.904C132.55 201.005 131.941 201.013 131.332 201.141C130.682 201.278 130.053 201.293 129.39 201.331C128.047 201.406 118.137 201.619 117.794 201.631C116.447 201.676 115.097 201.771 113.75 201.783C113.118 201.788 112.207 201.844 111.378 201.812C110.888 201.795 110.988 200.15 110.96 199.596C110.927 198.953 110.889 194.994 110.857 193.654C110.842 192.992 110.863 188.484 110.89 187.861C110.921 187.136 110.929 186.415 110.898 185.692C110.786 183.031 110.889 174.268 110.88 174.092C110.849 173.47 110.996 172.846 110.993 172.223C110.992 171.514 110.937 170.84 110.982 170.131C111.069 168.764 110.968 167.388 110.999 166.019C111.013 165.401 110.811 163.695 110.881 163.455C110.974 163.146 110.664 154.176 111.003 153.971C111.193 153.855 129.696 153.705 130.342 153.698C131.011 153.691 131.684 153.839 132.337 153.975C132.948 154.103 133.562 154.227 134.17 154.366C134.445 154.428 134.713 154.51 134.972 154.62C135.271 154.747 136.321 155.146 136.561 155.271C136.806 155.401 138.115 156.578 138.6 156.943C139.045 157.279 139.225 157.799 139.54 158.241C139.864 158.696 140.232 159.109 140.509 159.599C141.093 160.635 141.278 161.848 141.69 162.957C141.786 163.214 141.808 163.444 141.846 163.718C141.89 164.035 142.207 165.931 142.214 166.556C142.22 167.183 142.037 169.541 141.83 170.148C141.648 170.682 140.543 172.992 140.426 173.28C139.992 174.337 139.081 175.31 138.116 175.904C137.948 176.009 137.597 176.167 137.583 176.401C137.57 176.616 137.878 176.832 138.014 176.975C138.486 177.47 138.972 177.951 139.455 178.436C140.341 179.329 141.019 180.25 141.533 181.404C141.786 181.97 143.445 184.031 143.417 189.2C143.414 189.884 143.135 191.368 143.016 192.043C142.91 192.643 142.773 193.245 142.504 193.798ZM110.49 137.634C110.475 136.96 110.47 136.285 110.466 135.611C110.453 133.004 110.475 130.406 110.564 127.801C110.584 127.195 110.479 126.619 110.58 126.015C110.668 125.484 110.575 124.917 110.609 124.375C110.646 123.76 110.717 123.15 110.749 122.537C110.786 121.832 110.699 121.136 110.709 120.434C110.734 119.109 110.671 117.785 110.66 116.461C110.655 115.817 110.729 115.147 110.659 114.508C110.581 113.798 110.516 113.107 110.512 112.391C110.505 111.122 110.56 109.852 110.547 108.585C110.542 107.993 110.464 107.383 110.555 106.799C110.651 106.174 110.585 105.548 110.551 104.921C110.534 104.618 110.516 104.322 110.556 104.021C110.592 103.749 110.547 103.527 110.549 103.256C110.552 102.97 110.659 102.699 110.672 102.414C110.688 102.057 110.61 101.704 110.58 101.35C110.53 100.752 110.564 100.146 110.54 99.5452C110.512 98.8501 110.441 97.4811 110.412 96.7874C110.386 96.1861 111.029 96.4861 111.637 96.4147C112.248 96.3434 112.411 96.3658 113.022 96.3658C113.688 96.3658 114.355 96.3949 115.013 96.494C115.702 96.5958 123.936 96.5601 124.662 96.5733C125.997 96.5984 127.336 96.6103 128.669 96.6724C129.307 96.7002 129.938 96.8178 130.573 96.8825C131.186 96.946 136.29 98.1722 138.527 101.58C139.725 103.408 140.975 105.946 141.212 108.004C141.286 108.63 140.851 113.862 140.74 114.146C140.615 114.463 140.563 114.792 140.46 115.117C140.3 115.624 140.062 116.103 139.831 116.58C139.587 117.085 138.267 118.724 137.889 119.124C137.718 119.303 137.528 119.463 137.319 119.597C137.133 119.714 136.8 119.78 136.888 120.066C136.946 120.253 137.252 120.448 137.389 120.568C137.623 120.774 137.869 120.967 138.104 121.17C138.634 121.628 139.116 122.13 139.604 122.631C140.049 123.09 141.439 125.085 141.638 125.529C142.093 126.554 142.796 128.975 142.666 130.851C142.617 131.558 142.605 132.269 142.519 132.975C142.479 133.291 142.405 133.604 142.381 133.921C142.359 134.222 142.148 135.606 141.562 137.416C141.357 138.046 140.413 139.982 139.346 141.047C138.985 141.408 138.44 141.741 138.052 142.057C137.587 142.435 135.149 143.579 134.832 143.71C134.314 143.923 133.739 144.083 133.207 144.26C132.595 144.463 131.95 144.528 131.311 144.599C130.071 144.738 128.802 144.895 127.555 144.848C126.922 144.824 110.552 145.332 110.483 144.775C110.423 144.277 110.408 143.55 110.444 143.108C110.549 141.819 110.505 138.175 110.49 137.634ZM407.946 149.824C408.028 152.321 408.034 154.813 407.843 157.306C407.412 162.874 408.297 206.917 407.782 211.687C407.703 212.417 407.68 213.151 407.606 213.881C407.487 215.049 407.753 216.726 407.576 217.887C407.517 218.424 407.445 218.892 407.361 219.29H93.3811C93.3505 219.097 93.328 218.953 93.3135 218.857C92.4965 213.483 92.7872 156.565 93.6471 150.92C93.4369 147.207 94.7597 142.553 94.2021 138.868C93.9827 137.419 93.8704 135.951 93.8017 134.487C93.6841 131.994 93.6259 129.499 93.5717 127.006C93.5585 126.374 93.6986 125.739 93.6946 125.106C93.6827 122.612 93.6312 120.12 93.6127 117.626C93.6021 116.111 93.6589 114.595 93.6286 113.079C93.581 110.732 93.4118 108.386 93.4277 106.039C93.4462 103.155 93.6101 100.273 93.6946 97.3913C93.7224 96.4623 93.7277 95.5333 93.6946 94.6044C93.6101 92.1597 93.5638 89.719 94.0052 87.2942C94.1029 86.7511 94.0395 86.2344 93.8928 85.7019C93.7647 85.2381 93.6193 84.7095 93.7422 84.2721C93.9629 83.4779 93.836 82.73 93.7647 81.9503C93.7303 81.5715 93.7867 80.8749 93.9338 79.8604H406.553C407.085 84.8163 407.197 88.8108 406.889 91.8439C406.838 94.8753 407.766 96.4755 407.826 99.5042C407.884 102.298 407.748 105.082 407.582 107.862C407.178 114.66 407.367 121.46 407.351 128.26C407.346 130.41 407.581 132.56 407.641 134.711C407.708 137.156 407.689 139.603 407.737 142.049C407.787 144.642 407.861 147.233 407.946 149.824ZM256.213 118.549C255.487 118.089 254.611 117.924 253.752 117.891C252.767 117.853 251.761 117.982 250.857 118.38C249.895 118.804 249.146 119.528 248.656 120.453C248.094 121.51 247.963 122.934 247.972 124.099C247.972 124.21 247.984 124.689 248.025 124.792C248.078 124.924 248.486 124.814 248.718 124.818C251.14 124.858 255.951 124.792 255.898 124.782C255.971 124.785 257.47 124.834 258.147 124.851C258.358 124.856 258.609 124.842 258.721 124.663C258.788 124.558 258.783 124.422 258.775 124.296C258.702 123.292 258.496 122.297 258.165 121.345C257.783 120.251 257.191 119.17 256.213 118.549ZM167.329 177.967C166.668 177.165 165.109 176.031 163.646 175.985C158.264 175.81 157.38 180.208 157.204 180.952C157.114 181.327 156.715 182.794 156.668 183.176C156.619 183.555 156.689 183.946 156.645 184.331C156.592 184.793 156.549 185.236 156.606 185.701C156.719 186.649 156.981 187.591 157.183 188.521C157.281 188.973 158.005 190.827 158.132 190.976C158.768 191.719 159.293 192.418 160.119 192.964C160.48 193.202 160.851 193.521 161.273 193.636C161.708 193.754 163.574 193.729 163.708 193.717C164.11 193.685 164.508 193.404 164.88 193.244C165.517 192.972 168.291 191.289 168.415 188.119C168.431 187.714 168.522 187.058 168.557 186.655C168.592 186.24 168.55 181.487 168.415 180.611C168.284 179.756 167.876 178.631 167.329 177.967ZM120.999 116.223C121.812 116.272 122.626 116.319 123.438 116.366C122.458 116.308 123.775 116.344 123.438 116.366C124.809 116.276 126.183 116.283 127.556 116.193C128.226 116.149 128.79 115.888 129.373 115.571C131.498 114.413 131.874 111.32 131.825 110.599C131.78 109.948 131.285 106.372 129.619 105.599C129.328 105.464 128.647 105.077 128.335 105.056C127.988 105.032 127.639 105.008 127.29 104.989C125.941 104.909 124.957 105.073 123.617 104.882C122.896 104.778 122.145 104.983 121.419 105.003C121.184 105.01 120.773 104.94 120.569 105.08C120.322 105.25 120.398 105.643 120.395 105.898C120.383 106.581 120.444 107.26 120.436 107.943C120.427 108.638 120.375 109.332 120.346 110.027C120.277 111.617 120.292 113.215 120.174 114.802C120.15 115.125 120.032 115.649 120.154 115.959C120.277 116.27 120.729 116.208 120.999 116.223ZM120.024 135.302C119.999 135.619 119.823 136.184 120.209 136.172C120.739 136.156 121.248 136.238 121.632 136.271C122.105 136.313 130.392 137.587 132.148 134.367C132.308 134.075 133.126 132.214 133.159 131.37C133.292 127.968 130.92 125.366 130.609 125.192C130.303 125.023 129.454 124.851 129.118 124.761C128.78 124.671 128.345 124.674 127.993 124.669C127.589 124.662 127.185 124.658 126.78 124.653C125.953 124.644 122.679 124.592 121.87 124.547C121.491 124.526 120.64 124.538 120.308 124.58C120.175 124.596 120.303 125.325 120.29 125.59C120.266 126.007 120.251 126.425 120.237 126.842C120.206 127.667 120.149 128.489 120.122 129.312C120.095 130.126 120.025 130.932 119.979 131.745C119.937 132.514 119.976 133.283 119.954 134.051C119.942 134.474 120.057 134.887 120.024 135.302ZM120.631 172.775C120.92 173.095 122.276 172.81 122.661 172.775C124.066 172.647 125.507 172.681 126.912 172.539C128.355 172.392 129.67 172.379 130.736 171.311C131.136 170.911 131.647 169.803 131.703 169.218C131.765 168.568 131.762 167.902 131.792 167.25C131.754 168.072 131.773 166.9 131.792 167.25C131.725 165.963 131.903 164.19 130.169 162.859C129.146 162.073 123.04 162.506 122.33 162.599C122.001 162.641 121.674 162.681 121.345 162.717C121.124 162.739 120.691 162.71 120.548 162.932C120.43 163.116 120.443 163.549 120.408 163.77C120.348 164.144 120.385 164.491 120.383 164.864C120.379 165.538 120.445 166.209 120.449 166.884C120.451 167.562 120.552 168.231 120.576 168.907C120.599 169.554 120.486 170.2 120.63 170.833C120.7 171.137 120.45 172.574 120.631 172.775ZM130.897 182.105C129.761 181.103 128.329 181.152 126.905 181.095C126.082 181.061 125.271 180.98 124.446 181C123.623 181.02 122.804 181.093 121.982 181.128C121.563 181.145 121.018 181.028 120.831 181.493C120.606 182.051 120.68 182.8 120.654 183.39C120.581 184.996 120.614 190.095 120.633 190.5C120.666 191.273 120.5 192.19 120.726 192.938C120.929 193.612 122.35 193.281 122.882 193.252C123.746 193.202 124.615 193.197 125.481 193.177C125.544 193.174 126.261 193.155 125.639 193.174C126.467 193.148 127.283 193.139 128.112 193.111C130.452 193.033 131.364 192.216 131.87 191.712C132.483 191.097 132.586 190.68 132.762 190.072C132.864 189.72 133.239 188.017 133.239 187.649C133.239 186.233 132.689 184.293 132.422 183.66C132.154 183.023 131.402 182.549 130.897 182.105Z" fill="#06182E"/>
</svg>
