<svg width="500" height="300" viewBox="0 0 500 300" fill="none" xmlns="http://www.w3.org/2000/svg">
<rect width="500" height="300" fill="white"/>
<g clip-path="url(#clip0_834_362)">
<path d="M416.922 195.692L423.278 178.003L429.619 195.692H416.922ZM430.885 165.556H415.947L395.832 218.039H408.922L412.893 207.018H433.692L437.662 218.039H451L430.885 165.556ZM363.571 176.577C366.081 176.508 368.563 177.114 370.758 178.333C372.953 179.552 374.781 181.339 376.051 183.507L387.017 177.217C382.567 169.268 373.724 164.58 363.746 164.58C347.572 164.58 336.111 175.907 336.111 191.79C336.111 207.674 347.528 219 363.746 219C373.796 219 381.767 214.545 386.567 207.353L376.298 200.074C374.955 202.212 373.086 203.968 370.87 205.177C368.655 206.385 366.167 207.004 363.644 206.975C355.892 206.975 349.186 201.501 349.186 191.747C349.186 182.764 355.324 176.533 363.6 176.533M308.723 218.039H321.217V165.629H308.723V218.039ZM263.43 187.859V176.911H273.612C277.975 176.911 280.884 178.644 280.884 182.342C280.884 186.04 278.121 187.859 273.612 187.859H263.43ZM293.582 182.342C293.582 172.005 286.687 165.556 273.728 165.556H250.922V218.039H263.43V198.4H265.263L279.081 218.039H293.989L278.935 198.021C288.331 196.565 293.582 190.742 293.582 182.342ZM206.677 197.162H232.552V185.909H206.677V176.839H234.166V165.556H194.168V218.039H234.312V206.756H206.677V197.162ZM146.985 198.924L135.043 165.556H117.328V218.039H129.836V182.24L140.323 213.089H153.617L164.104 182.123V218.039H176.54V165.629H158.853L146.985 198.924ZM71.0754 195.692L77.446 178.003L83.8166 195.692H71.0754ZM70.1155 165.556L50 218.039H63.0903L67.061 207.018H87.8165L91.7872 218.039H105.11L85.0093 165.629L70.1155 165.556ZM401.446 110.234C403.207 107.996 405.538 106.276 408.195 105.255L410.202 110.962H410.347C412.26 111.045 414.134 110.405 415.598 109.171C416.256 108.608 416.78 107.906 417.132 107.115C417.484 106.324 417.656 105.465 417.634 104.599C417.667 103.858 417.546 103.119 417.278 102.427C417.009 101.736 416.6 101.108 416.076 100.583C415.552 100.059 414.925 99.6491 414.234 99.3806C413.543 99.112 412.804 98.9905 412.064 99.0235C409.834 99.1959 407.725 100.108 406.071 101.615C403.464 103.774 401.177 106.294 399.279 109.098L401.359 99.0235H398.755L385.854 102.023V104.672L392.064 105.575L386.072 136.002H395.293L398.202 118.532C398.594 115.507 399.707 112.621 401.446 110.117M357.942 108.356C359.94 104.677 362.364 102.833 365.215 102.823C366.193 102.776 367.166 102.999 368.026 103.469C368.885 103.939 369.599 104.638 370.087 105.488C371.333 107.969 371.895 110.738 371.716 113.509C371.885 118.259 370.844 122.973 368.691 127.209C366.655 130.868 364.192 132.697 361.302 132.697C360.344 132.73 359.395 132.499 358.559 132.03C357.723 131.56 357.032 130.869 356.561 130.033C355.327 127.626 354.764 124.93 354.932 122.23C354.759 117.429 355.783 112.661 357.913 108.356M347.005 112.403C345.857 115.167 345.264 118.13 345.259 121.123C345.156 123.192 345.466 125.26 346.17 127.207C346.874 129.154 347.959 130.941 349.361 132.464C350.822 133.897 352.563 135.011 354.476 135.735C356.389 136.459 358.431 136.778 360.473 136.672C363.174 136.686 365.85 136.156 368.342 135.114C370.78 134.11 372.991 132.625 374.843 130.746C376.936 128.578 378.587 126.021 379.701 123.22C380.833 120.412 381.411 117.411 381.403 114.383C381.504 112.324 381.189 110.267 380.477 108.333C379.765 106.399 378.67 104.629 377.258 103.129C375.79 101.71 374.045 100.608 372.134 99.8917C370.222 99.1755 368.184 98.8601 366.146 98.9653C363.468 98.9601 360.816 99.4949 358.35 100.538C355.883 101.572 353.655 103.103 351.804 105.036C349.736 107.171 348.11 109.694 347.019 112.461M346.35 100.945H336.169C336.744 97.4483 337.576 93.9984 338.656 90.6233C339.301 88.4216 340.33 86.3515 341.696 84.5087L347.979 91.1037C349.302 90.8614 350.52 90.2216 351.47 89.2693C351.884 88.8631 352.213 88.3784 352.438 87.8435C352.663 87.3085 352.779 86.7341 352.779 86.1538C352.78 85.4154 352.593 84.6889 352.237 84.0422C351.881 83.3955 351.367 82.8498 350.743 82.456C349.217 81.4278 347.402 80.9175 345.565 81.0001C343.419 81.0415 341.307 81.5394 339.369 82.4606C337.43 83.3818 335.71 84.7052 334.322 86.3431C330.837 90.1824 328.569 94.9705 327.806 100.101L321.988 102.663L321.915 105.968L326.933 105.342L323.704 128.286C323.152 132.548 322.365 136.777 321.348 140.952C320.87 143.064 320.023 145.075 318.846 146.892L310.832 142.597C309.916 142.967 309.139 143.613 308.606 144.446C308.076 145.323 307.808 146.333 307.836 147.358C307.822 147.988 307.945 148.613 308.196 149.191C308.448 149.769 308.821 150.286 309.29 150.706C310.309 151.599 311.631 152.067 312.984 152.016C315.702 151.909 318.315 150.941 320.446 149.25C323.219 147.178 325.565 144.587 327.355 141.622C328.766 139.361 329.894 136.936 330.715 134.401C331.684 131.306 332.394 128.136 332.838 124.923L335.572 105.342H346.437L346.35 100.945ZM291.269 124.676H263.634V115.067H289.509V103.813H263.619V94.7433H291.109V83.4605H251.111V135.944H291.269V124.676ZM208.727 124.37H199.07V95.0491H208.727C218.472 95.0491 223.141 101.12 223.141 109.695C223.141 118.27 218.472 124.355 208.727 124.355M208.989 83.4605H186.561V135.944H208.989C225.396 135.944 236.217 125.52 236.217 109.739C236.217 93.9572 225.396 83.5333 208.989 83.5333M142.534 94.4813C151.072 94.4813 157.079 100.712 157.079 109.695C157.079 118.678 151.014 124.923 142.534 124.923C134.054 124.923 127.989 118.692 127.989 109.695C127.989 100.698 134.054 94.4813 142.534 94.4813ZM142.534 136.919C158.708 136.919 170.169 125.374 170.169 109.695C170.169 94.0154 158.708 82.456 142.534 82.456C126.36 82.456 114.899 94.0009 114.899 109.666C114.899 125.331 126.346 136.89 142.534 136.89M79.7296 136.89C89.7655 136.89 97.7506 132.421 102.536 125.243L92.3544 117.964C91.0097 120.104 89.1387 121.862 86.9204 123.07C84.7022 124.279 82.2112 124.897 79.6859 124.865C71.9336 124.865 65.2429 119.391 65.2429 109.637C65.2429 100.654 71.3808 94.423 79.6568 94.423C82.1547 94.3713 84.621 94.9893 86.8 96.2129C88.9789 97.4365 90.7912 99.2212 92.049 101.382L103.03 95.1219C98.5651 87.1729 89.7364 82.456 79.7296 82.456C63.5557 82.456 52.0945 93.7825 52.0945 109.666C52.0945 125.549 63.5121 136.89 79.7296 136.89Z" fill="#06182E"/>
</g>
<defs>
<clipPath id="clip0_834_362">
<rect width="401" height="138" fill="white" transform="translate(50 81)"/>
</clipPath>
</defs>
</svg>
