<svg width="500" height="300" viewBox="0 0 500 300" fill="none" xmlns="http://www.w3.org/2000/svg">
<rect width="500" height="300" fill="white"/>
<g clip-path="url(#clip0_834_432)">
<path d="M74.1636 107.27H65.4896V149.778C65.4896 165.743 59.8645 170.544 45.6038 170.544C33.6493 170.506 29 165.9 29 159.927C29 158.56 29.5074 154.15 33.8831 154.15C38.2198 154.15 38.4934 157.078 38.4934 161.84C38.4934 163.83 39.3142 167.734 44.4319 167.734C52.5586 167.734 56.1917 164.026 56.1917 150.91V107.27H47.8311V105.006H74.1636V107.27ZM75.9218 160.395C74.4763 160.395 73.2262 160.863 72.2497 161.878C71.2341 162.893 70.726 164.103 70.726 165.547C70.726 166.992 71.2341 168.202 72.2497 169.139C73.2653 170.153 74.4763 170.622 75.9218 170.622C77.3673 170.622 78.5784 170.154 79.6337 169.139C80.6493 168.202 81.1567 166.992 81.1567 165.547C81.1567 164.064 80.6493 162.893 79.6337 161.878C78.6182 160.864 77.4057 160.395 75.9218 160.395ZM132.376 160.395C130.931 160.395 129.72 160.863 128.704 161.878C127.688 162.894 127.219 164.103 127.219 165.547C127.219 166.992 127.688 168.202 128.704 169.139C129.759 170.153 130.97 170.622 132.376 170.622C133.822 170.622 135.072 170.154 136.087 169.139C137.103 168.202 137.611 166.992 137.611 165.547C137.611 164.064 137.103 162.893 136.087 161.878C135.072 160.864 133.822 160.395 132.376 160.395ZM116.006 105.006C136.205 105.006 139.643 112.617 139.643 123.469C139.643 134.203 134.055 142.049 114.091 142.049L107.216 142.088V158.286C107.216 160.277 107.45 161.254 107.919 162.346C108.427 163.634 109.521 164.61 111.161 165.273C112.333 165.703 114.131 165.937 116.475 166.015V168.904H88.7362V166.015C91.0801 165.937 92.8383 165.702 94.0102 165.195C95.5731 164.531 96.6277 163.556 97.0975 162.268C97.5267 161.136 97.7613 160.94 97.7613 157.037V107.269H90.1818V105.044L116.006 105.006ZM112.45 139.59C124.64 139.59 130.695 134.321 130.695 124.016C130.695 113.75 127.335 107.465 111.942 107.465L107.176 107.543V139.629H112.45M218.952 162.113C218.6 160.981 218.405 159.575 218.405 157.78V107.27H225.085V105.006H208.794C208.597 105.591 189.181 153.838 189.181 153.838C189.138 153.916 189.076 153.982 189.001 154.029C188.926 154.077 188.84 154.105 188.751 154.111C188.516 154.111 188.36 153.994 188.282 153.838C188.282 153.838 167.654 105.591 167.42 105.006H149.331V107.23H156.833V155.789C156.833 155.789 156.677 160.278 156.677 160.317C156.559 161.488 156.169 162.542 155.582 163.401C154.957 164.299 153.98 165.001 152.691 165.47C151.831 165.743 150.543 165.938 148.98 165.977V168.865H167.381V165.977C165.858 165.9 165.194 165.743 164.295 165.47C162.966 165.04 161.989 164.376 161.325 163.44C160.739 162.581 160.348 161.527 160.231 160.278C160.231 160.278 160.035 155.789 160.035 155.75V113.944H161.09C161.09 113.944 184.375 168.28 184.649 168.904H186.602L208.676 114.569H209.223V157.779C209.223 159.653 209.027 161.136 208.676 162.268C208.246 163.595 207.308 164.572 205.941 165.235C204.925 165.703 203.402 165.938 201.37 166.015V168.904H226.531V166.015C224.499 165.899 222.936 165.664 221.882 165.196C220.32 164.455 219.381 163.44 218.952 162.113ZM252.785 122.103C265.209 122.103 274.429 130.573 274.429 146.109C274.429 166.055 260.052 170.778 252.512 170.778C248.683 170.778 230.985 169.294 230.985 146.538C230.946 131.003 239.385 122.103 252.785 122.103ZM252.63 167.968C261.655 167.968 264.428 162.347 264.428 145.992C264.428 134.633 264.389 124.952 252.63 124.952C241.768 124.952 240.987 134.32 240.987 146.811C240.987 162.932 242.51 167.968 252.63 167.968ZM309.552 122.805C301.543 122.805 298.77 127.529 296.542 132.369C296.542 132.369 295.955 132.33 295.917 132.33C295.878 132.369 294.315 123.196 294.315 123.196H279.078V125.616H287.439V157.078C287.439 160.2 287.283 162.62 286.462 163.948C285.525 165.47 283.61 166.056 280.406 166.056H279.039V168.944H305.098V166.056H303.691C300.293 166.056 298.534 165.314 297.636 163.83C296.815 162.543 296.425 160.318 296.425 157.078V140.761C296.425 135.258 300.84 128.934 305.84 128.934C311.075 128.934 311.232 136.429 316.858 133.736C320.843 131.861 319.945 122.805 309.552 122.805ZM413.279 164.22C414.92 164.22 416.913 162.503 417.342 159.263H418.905C418.475 166.68 414.842 169.646 408.786 169.646C403.395 169.646 400.426 165.821 399.918 162.659C396.754 166.016 392.065 170.232 384.641 170.232C377.961 170.232 372.765 165.079 372.452 159.224C371.554 144.235 391.284 142.635 399.605 141.893V134.242C399.605 131.471 398.98 129.246 397.769 127.568C396.48 125.811 394.175 124.953 390.893 124.953C388.08 124.953 386.009 125.656 384.681 127.021C383.43 128.348 382.884 129.792 382.494 132.291C381.946 135.687 380.501 137.014 377.923 137.014C376.79 137.014 375.891 136.701 375.071 135.999C374.29 135.336 373.899 134.359 373.899 132.954C373.899 129.949 375.071 127.879 378.041 125.616C381.088 123.275 385.855 122.104 392.301 122.104C399.02 122.104 403.669 123.353 406.052 125.773C408.475 128.193 409.14 131.003 409.14 135.101V154.228L409.296 160.083C409.607 162.699 410.466 164.22 413.279 164.22ZM399.644 144.704C393.236 144.704 381.594 148.958 381.594 157.468C381.594 160.122 382.532 165.43 388.939 165.43C391.439 165.43 394.838 163.986 399.292 159.927L399.488 159.731C399.644 159.614 399.644 159.536 399.644 159.38V144.704ZM466.491 163.948C465.359 162.543 465.123 159.459 465.123 157.117V136.429C465.123 133.424 464.733 130.887 463.6 128.778C462.468 126.748 460.866 125.188 458.873 124.173C456.841 123.158 454.537 122.651 451.997 122.651C442.855 122.651 438.87 127.921 437.073 131.472H436.37L434.768 123.197H420.585V125.578H427.696V157.079C427.696 159.5 427.5 161.256 427.148 162.427C426.758 163.832 425.86 164.769 424.531 165.355C423.672 165.706 422.343 165.941 420.625 166.018V168.907H443.128V166.018C440.863 165.823 439.339 165.238 438.519 164.067C437.62 162.817 437.23 160.71 437.23 157.587V145.526C437.23 140.49 437.19 135.611 438.909 132.566C440.784 129.288 444.183 127.453 447.972 127.453C451.411 127.453 453.247 128.546 454.341 130.732C455.553 133.191 455.825 137.758 455.825 141.388V156.338C455.825 158.836 455.748 160.632 455.592 161.803C455.318 163.169 455.005 164.301 453.912 165.003C453.131 165.55 451.92 165.902 450.318 166.018V168.868H472V165.977C469.226 165.86 467.585 165.392 466.491 163.948ZM364.756 120.268C367.217 119.488 369.249 120.073 369.913 122.845C370.226 124.172 369.953 125.773 369.171 127.177C368.429 128.582 367.139 129.598 365.108 130.222C363.35 130.808 361.474 130.808 359.404 130.339C360.381 132.447 361.201 135.414 361.201 138.887C361.201 150.988 351.942 154.618 342.058 156.14C331.978 157.701 329.4 158.912 329.4 162.073C329.4 164.22 330.728 165.469 337.721 165.469C352.176 166.172 358.623 165.352 363.155 171.559C364.561 173.549 365.265 176.204 365.265 179.522C365.265 181.942 364.64 184.479 363.272 186.939C361.983 189.397 359.561 191.544 356.083 193.301C352.606 195.057 347.762 195.995 341.823 195.995C337.33 195.995 334.087 195.643 329.165 194.16C325.961 193.223 321.742 190.647 321.742 185.222C321.742 183.581 322.016 182.216 322.757 181.045C323.578 179.795 325.258 179.054 326.664 179.288C329.164 179.718 329.906 181.982 329.477 184.128C328.97 186.236 329.438 189.203 331.861 190.686C335.142 192.716 338.737 193.183 343.151 193.183C348.309 193.183 352.45 192.286 355.498 190.607C358.779 188.773 360.381 186.313 360.381 183.269C360.381 181.044 359.6 179.327 358.076 178.156C356.63 177.102 354.638 176.399 352.176 176.087C349.871 175.814 346.316 175.62 341.355 175.58C335.651 175.463 331.119 174.799 327.876 173.472C324.946 172.262 322.68 170.115 322.68 166.134C322.68 159.537 328.852 157.507 335.807 156.102C336.237 156.025 336.237 155.439 335.729 155.361C327.564 153.643 323.853 148.959 323.853 139.357C323.853 131.121 329.439 122.105 342.137 122.105C349.99 122.105 354.483 124.759 356.827 126.906C357.53 127.452 359.132 127.413 360.069 127.14C361.007 126.827 361.71 125.773 362.061 123.9C362.53 121.869 363.388 120.698 364.756 120.268ZM342.37 153.564C347.917 153.564 351.903 151.886 351.903 139.2C351.903 130.339 349.754 124.562 342.37 124.562C336.041 124.562 333.071 130.886 333.071 139.356C333.033 151.417 336.431 153.564 342.37 153.564Z" fill="#06182E"/>
</g>
<defs>
<clipPath id="clip0_834_432">
<rect width="443" height="91" fill="white" transform="translate(29 105)"/>
</clipPath>
</defs>
</svg>
