<svg width="500" height="300" viewBox="0 0 500 300" fill="none" xmlns="http://www.w3.org/2000/svg">
<rect width="500" height="300" fill="white"/>
<path fill-rule="evenodd" clip-rule="evenodd" d="M74.5215 129.002C70.5003 130 66.142 132.99 63.6054 136.491C55.9615 147.038 61.0067 161.567 73.6986 165.557C78.6957 167.129 82.5306 166.647 88.4577 163.703C94.047 160.927 96.6036 160.952 102.262 163.84C110.477 168.033 118.521 166.894 124.902 160.633C128.508 157.096 130.115 153.096 130.134 147.612C130.161 139.848 127.029 134.427 120.443 130.839C114.665 127.69 108.382 127.76 102.12 131.04C96.5304 133.969 94.3139 134.001 88.8244 131.231C84.0026 128.798 78.6817 127.969 74.5215 129.002ZM87.2696 134.518C94.325 137.702 96.9696 137.756 102.533 134.831C108.422 131.735 112.637 131.31 117.248 133.349C121.741 135.335 123.249 136.684 125.169 140.43C129.044 147.99 126.074 156.887 118.31 160.976C113.207 163.662 108.855 163.415 102.535 160.08C96.7285 157.016 93.511 157.079 86.9421 160.386C84.1194 161.807 80.8309 162.97 79.6346 162.97C75.6526 162.97 71.4592 161.195 68.3356 158.186C61.7327 151.829 62.1467 141.607 69.2457 135.737C74.6886 131.237 79.3079 130.925 87.2696 134.518Z" fill="#06182E"/>
<path fill-rule="evenodd" clip-rule="evenodd" d="M110.847 155.318C115.216 155.318 118.797 151.831 118.797 147.483C118.797 143.134 115.216 139.647 110.847 139.647C106.479 139.647 102.898 143.134 102.898 147.483C102.898 151.831 106.479 155.318 110.847 155.318ZM110.847 157.822C116.657 157.822 121.367 153.193 121.367 147.483C121.367 141.772 116.657 137.143 110.847 137.143C105.037 137.143 100.327 141.772 100.327 147.483C100.327 153.193 105.037 157.822 110.847 157.822Z" fill="#06182E"/>
<path fill-rule="evenodd" clip-rule="evenodd" d="M79.2867 155.318C83.6555 155.318 87.2365 151.831 87.2365 147.483C87.2365 143.134 83.6555 139.647 79.2867 139.647C74.918 139.647 71.337 143.134 71.337 147.483C71.337 151.831 74.918 155.318 79.2867 155.318ZM79.2867 157.822C85.0969 157.822 89.8069 153.193 89.8069 147.483C89.8069 141.772 85.0969 137.143 79.2867 137.143C73.4766 137.143 68.7666 141.772 68.7666 147.483C68.7666 153.193 73.4766 157.822 79.2867 157.822Z" fill="#06182E"/>
<path d="M160.225 164.305V128.164H151.617V164.305H160.225Z" fill="#06182E"/>
<path d="M175.458 130.933C175.458 128.064 173.219 126 169.985 126C166.751 126 164.512 128.064 164.512 130.933C164.512 133.752 166.751 135.815 169.985 135.815C173.219 135.815 175.458 133.752 175.458 130.933ZM174.314 164.305V137.225H165.805V164.305H174.314Z" fill="#06182E"/>
<path d="M188.405 150.06C188.405 145.983 190.296 144.473 192.386 144.473C194.973 144.473 196.168 146.335 196.168 149.758V164.305H204.676V146.889C204.676 140.295 200.944 136.721 195.67 136.721C192.287 136.721 189.799 138.131 187.709 140.497V137.225H179.897V164.305H188.405V150.06Z" fill="#06182E"/>
<path d="M218.532 164.305V151.973L227.19 164.305H238.037L226.742 150.06L236.644 137.225H226.842L218.532 148.198V128.164H210.024V164.305H218.532Z" fill="#06182E"/>
<path d="M259.835 164.305V149.607C259.835 145.983 261.576 144.473 263.766 144.473C266.204 144.473 267.448 146.436 267.448 149.557V164.305H275.956V149.607C275.956 145.983 277.747 144.473 279.887 144.473C282.325 144.473 283.569 146.436 283.569 149.557V164.305H292.078V146.889C292.078 140.295 288.346 136.721 283.022 136.721C279.091 136.721 276.703 138.282 274.414 140.899C272.921 138.181 270.234 136.721 266.851 136.721C263.368 136.721 261.178 138.131 259.138 140.547V137.225H251.326V164.305H259.835Z" fill="#06182E"/>
<path d="M322.144 137.225H313.585L308.411 153.986L302.639 137.225H293.384L303.833 164.003L300.101 174.02H309.406L322.144 137.225Z" fill="#06182E"/>
<path d="M343.606 151.822C343.606 145.832 347.438 145.379 353.458 145.983V137.023C349.179 137.023 344.95 138.836 342.91 142.007V137.225H335.098V164.305H343.606V151.822Z" fill="#06182E"/>
<path d="M366.374 130.933C366.374 128.064 364.135 126 360.9 126C357.666 126 355.427 128.064 355.427 130.933C355.427 133.752 357.666 135.815 360.9 135.815C364.135 135.815 366.374 133.752 366.374 130.933ZM365.229 164.305V137.225H356.721V164.305H365.229Z" fill="#06182E"/>
<path d="M369.121 150.765C369.121 158.517 373.848 164.809 381.062 164.809C384.197 164.809 386.834 163.55 389.024 161.235V164.305H396.836V128.164H388.327V139.742C386.237 137.728 383.849 136.721 381.062 136.721C373.848 136.721 369.121 142.913 369.121 150.765ZM377.977 150.765C377.977 146.436 380.515 144.473 383.102 144.473C385.69 144.473 388.227 146.386 388.227 150.715C388.227 154.993 385.74 157.057 383.102 157.057C380.515 157.057 377.977 154.993 377.977 150.765Z" fill="#06182E"/>
<path d="M414.488 164.758C421.155 164.758 425.882 161.285 427.524 155.094H419.016C418.269 157.057 416.677 158.064 414.289 158.064C411.552 158.064 409.96 156.352 409.512 152.929H427.674C429.216 144.02 423.295 136.721 414.438 136.721C406.477 136.721 400.705 142.611 400.705 150.715C400.705 159.121 406.228 164.758 414.488 164.758ZM414.239 143.064C416.777 143.064 418.468 144.825 418.568 147.544H409.612C410.209 144.523 411.701 143.064 414.239 143.064Z" fill="#06182E"/>
<path d="M441 159.07C441 155.799 438.81 153.533 435.626 153.533C432.441 153.533 430.202 155.799 430.202 159.07C430.202 162.292 432.441 164.557 435.626 164.557C438.81 164.557 441 162.292 441 159.07Z" fill="#06182E"/>
</svg>
