<svg width="500" height="300" viewBox="0 0 500 300" fill="none" xmlns="http://www.w3.org/2000/svg">
<rect width="500" height="300" fill="white"/>
<g clip-path="url(#clip0_834_326)">
<path d="M57.6644 126.936H75.0857V127.616L72.2803 130.447C71.9506 130.74 71.689 131.102 71.5144 131.508C71.3398 131.915 71.2565 132.355 71.2704 132.798V177H70.5971L37.6621 146.475V169.298C37.6367 169.735 37.7121 170.172 37.8825 170.575C38.0529 170.978 38.3135 171.336 38.644 171.62L41.4494 174.451V175.131H24V174.451L26.8054 171.62C27.1409 171.339 27.4069 170.982 27.5822 170.579C27.7575 170.176 27.8373 169.737 27.8153 169.298V124.727H28.4325L61.3955 155.168V132.798C61.4322 132.36 61.3677 131.92 61.207 131.512C61.0463 131.104 60.7939 130.74 60.4697 130.447L57.6644 127.616V126.936ZM123.675 161.454C123.675 170.827 117.138 175.131 106.45 175.131H78.957V174.451L81.7624 171.62C82.1019 171.336 82.3703 170.975 82.5458 170.567C82.7212 170.158 82.7989 169.714 82.7723 169.27V132.798C82.7989 132.353 82.7212 131.909 82.5458 131.501C82.3703 131.092 82.1019 130.731 81.7624 130.447L78.957 127.616V126.936H106.702C116.745 126.936 121.739 131.75 121.739 139.962C121.657 142.326 120.778 144.591 119.248 146.383C117.717 148.174 115.627 149.386 113.323 149.816C119.747 150.92 123.787 154.771 123.787 161.341M93.4888 146.022H105.356C109.002 146.022 110.966 144.266 110.966 140.896C110.966 137.526 109.311 135.743 105.356 135.743H93.4888V146.022ZM112.79 160.18C112.79 155.932 110.237 154.262 105.159 154.262H93.4888V166.041H105.159C109.479 166.041 112.79 164.541 112.79 160.18ZM153.047 166.948C144.939 166.948 139.413 160.661 139.413 151.26C139.413 141.293 145.528 135.346 153.439 135.346C155.614 135.126 157.799 135.644 159.648 136.819C161.498 137.993 162.906 139.757 163.651 141.831L164.38 142.029L168.392 125.577L167.719 125.294C166.426 126.441 164.755 127.058 163.034 127.021C160.705 127.021 157.086 126.115 152.738 126.115C138.711 126.115 127.77 135.629 127.77 151.203C127.77 166.778 138.543 176.122 152.514 176.122C155.846 176.245 159.167 175.664 162.264 174.416C165.36 173.167 168.164 171.279 170.496 168.873L164.268 161.228C162.99 163.016 161.302 164.466 159.348 165.452C157.393 166.439 155.231 166.932 153.047 166.891M202.926 127.644L205.731 130.476C206.063 130.768 206.328 131.129 206.507 131.535C206.686 131.941 206.776 132.382 206.769 132.826V156.527C206.769 163.436 203.319 166.834 197.259 166.834C191.2 166.834 187.637 163.606 187.637 156.527V132.798C187.614 132.351 187.696 131.905 187.876 131.497C188.056 131.088 188.33 130.728 188.675 130.447L191.48 127.616V126.964H173.217V127.644L176.023 130.476C176.362 130.76 176.63 131.121 176.806 131.529C176.981 131.937 177.059 132.382 177.033 132.826V156.244C177.033 169.581 185.449 176.066 197.259 176.066C209.07 176.066 217.514 169.496 217.514 156.244V132.798C217.487 132.353 217.565 131.909 217.74 131.501C217.916 131.092 218.184 130.731 218.524 130.447L221.329 127.616V126.964H202.926V127.644ZM259.65 168.448V154.545C259.65 146.276 255.583 141.463 248.597 141.463C246.364 141.408 244.162 141.993 242.245 143.151C240.328 144.309 238.776 145.991 237.769 148.004V142.085H224.163V142.822L226.968 145.653C227.838 146.531 227.978 147.098 227.978 148.825V168.647C227.978 170.374 227.978 170.94 226.968 171.818L224.163 174.65V175.329H241.78V174.65L238.975 171.818C238.105 170.94 237.965 170.374 237.965 168.647V157.348C237.965 153.44 239.873 150.354 244.165 150.354C247.784 150.354 249.467 153.016 249.467 156.838V175.131H263.325V174.451L260.52 171.62C259.65 170.742 259.538 170.176 259.538 168.448M280.915 168.448V142.085H267.169V142.822L269.974 145.653C270.844 146.531 270.984 147.098 270.984 148.825V168.647C270.984 170.374 270.984 170.94 269.974 171.818L267.169 174.65V175.329H284.899V174.65L282.093 171.818C281.224 170.94 281.055 170.374 281.055 168.647M275.922 137.158C276.703 137.17 277.479 137.022 278.203 136.724C278.926 136.426 279.583 135.983 280.133 135.423C280.683 134.862 281.116 134.195 281.404 133.462C281.693 132.729 281.832 131.944 281.813 131.155C281.828 130.37 281.686 129.59 281.395 128.861C281.105 128.133 280.671 127.471 280.121 126.916C279.571 126.361 278.916 125.923 278.194 125.63C277.472 125.337 276.699 125.193 275.922 125.209C275.096 125.127 274.262 125.222 273.475 125.485C272.687 125.748 271.963 126.175 271.348 126.738C270.734 127.3 270.243 127.986 269.907 128.752C269.571 129.518 269.397 130.346 269.397 131.184C269.397 132.021 269.571 132.849 269.907 133.615C270.243 134.381 270.734 135.067 271.348 135.63C271.963 136.192 272.687 136.619 273.475 136.882C274.262 137.146 275.096 137.24 275.922 137.158ZM322.491 142.057H309.923L304.115 158.028H303.947L297.298 142.085H284.899V142.822C287.119 144.557 288.874 146.825 290.004 149.42L303.358 176.604H304.087L317.357 149.42C318.447 146.793 320.221 144.513 322.491 142.822V142.057ZM354.696 158.594C354.696 159.755 354.696 160.831 354.696 161.426H332.057C332.4 163.315 333.437 165.004 334.962 166.154C336.486 167.304 338.384 167.83 340.277 167.627C341.564 167.678 342.848 167.452 344.043 166.964C345.238 166.475 346.316 165.736 347.206 164.795L352.817 171.535C349.006 174.556 344.247 176.093 339.407 175.867C328.606 175.867 321.733 169.241 321.733 158.877C321.577 156.521 321.92 154.158 322.741 151.946C323.562 149.735 324.841 147.726 326.493 146.053C328.144 144.38 330.131 143.083 332.319 142.247C334.508 141.412 336.848 141.057 339.182 141.208C350.039 141.208 354.808 148.428 354.808 158.339M344.569 155.281C344.628 154.456 344.515 153.627 344.238 152.848C343.961 152.069 343.527 151.356 342.961 150.757C342.396 150.157 341.713 149.683 340.956 149.365C340.199 149.047 339.385 148.892 338.565 148.91C336.853 148.879 335.198 149.531 333.959 150.723C332.72 151.916 331.996 153.554 331.945 155.281H344.569ZM372.174 148.485V142.085H358.568V142.822L361.373 145.653C362.243 146.531 362.383 147.098 362.383 148.825V168.647C362.383 170.374 362.383 170.94 361.373 171.818L358.568 174.65V175.329H376.213V174.65L373.408 171.818C372.566 170.94 372.426 170.374 372.426 168.647V158.453C372.426 153.497 374.839 150.835 378.71 150.835C380.512 150.827 382.249 151.516 383.563 152.761L386.2 142.425C384.883 141.773 383.432 141.443 381.964 141.463C379.78 141.504 377.661 142.229 375.903 143.537C374.144 144.846 372.831 146.674 372.145 148.768M407.213 154.885C402.724 154.148 399.357 154.148 399.357 151.458C399.357 149.929 400.62 148.91 403.566 148.91C407.549 148.91 411.252 150.241 412.627 153.299L413.328 153.497L416.498 140.896L415.825 140.641C414.605 141.742 413.029 142.356 411.393 142.369C409.176 142.369 407.128 141.491 402.976 141.491C395.795 141.491 388.95 144.096 388.95 152.279C388.95 158.679 393.999 161.143 398.824 161.964C403.65 162.785 406.988 162.898 406.988 165.645C406.988 167.231 405.613 168.477 402.696 168.477C398.752 168.513 394.917 167.172 391.839 164.682L387.154 171.733C391.482 174.822 396.698 176.385 401.995 176.179C411.421 176.179 417.256 171.988 417.256 164.626C417.256 158.283 411.926 155.819 407.016 154.97M452.828 171.705L455.633 174.536V175.216H441.999V170.657C440.973 172.425 439.479 173.87 437.686 174.83C435.892 175.79 433.869 176.228 431.844 176.094C430.525 176.199 429.199 176.029 427.948 175.593C426.698 175.158 425.549 174.467 424.575 173.563C423.601 172.66 422.822 171.563 422.287 170.342C421.751 169.121 421.471 167.801 421.464 166.466C421.464 159.132 426.457 155.734 437.37 155.508C440.877 155.508 441.803 154.658 441.803 152.676C441.803 150.694 440.204 149.306 435.967 149.306C434.461 149.316 432.973 149.641 431.597 150.26C430.221 150.879 428.987 151.778 427.972 152.902L422.642 146.56C424.596 144.786 426.879 143.423 429.359 142.548C431.839 141.673 434.467 141.304 437.09 141.463C447.441 141.463 451.93 145.795 451.93 154.262V168.42C451.93 170.147 452.07 170.714 452.94 171.592M441.915 160.265C440.537 160.604 439.125 160.784 437.707 160.803C433.19 161.086 431.619 162.757 431.619 165.022C431.594 165.521 431.674 166.019 431.854 166.484C432.033 166.949 432.308 167.371 432.661 167.721C433.013 168.072 433.435 168.343 433.898 168.517C434.362 168.691 434.857 168.764 435.35 168.732C436.193 168.819 437.044 168.726 437.848 168.46C438.653 168.193 439.393 167.759 440.02 167.185C440.647 166.61 441.148 165.909 441.489 165.127C441.83 164.344 442.003 163.498 441.999 162.643L441.915 160.265ZM473.251 171.592C472.353 170.714 472.213 170.147 472.213 168.42V123H458.41V123.68L461.216 126.511C462.085 127.389 462.226 127.955 462.226 129.654V168.448C462.226 170.176 462.085 170.742 461.216 171.62L458.41 174.451V175.131H476V174.451L473.251 171.592Z" fill="#06182E"/>
</g>
<defs>
<clipPath id="clip0_834_326">
<rect width="452" height="54" fill="white" transform="translate(24 123)"/>
</clipPath>
</defs>
</svg>
