<svg width="500" height="300" viewBox="0 0 500 300" fill="none" xmlns="http://www.w3.org/2000/svg">
<rect width="500" height="300" fill="white"/>
<g clip-path="url(#clip0_834_329)">
<mask id="mask0_834_329" style="mask-type:luminance" maskUnits="userSpaceOnUse" x="83" y="65" width="334" height="170">
<path d="M83 65H417V235H83V65Z" fill="white"/>
</mask>
<g mask="url(#mask0_834_329)">
<path d="M272.619 124.883H276.72V101.848L294.075 124.883H297.584V94.6438H293.483V117.743L276.128 94.6438H272.619V124.883ZM272.619 204.953H276.635V182.874L283.463 195.666H286.634L293.568 182.704V204.953H297.584V174.714H293.737L285.281 190.694L276.466 174.714H272.619V204.953ZM302.023 114.151C302.023 120.59 306.738 125.414 312.72 125.414C316.229 125.414 319.125 123.756 320.753 120.93V124.883H324.769V103.42H320.753V107.266C319.921 105.886 318.738 104.753 317.327 103.983C315.915 103.214 314.325 102.836 312.72 102.889C306.738 102.889 302.023 107.691 302.023 114.151ZM302.869 196.538C302.869 201.956 306.294 205.463 311.663 205.463C317.053 205.463 320.563 201.956 320.563 196.538V183.469H316.546V196.793C316.546 199.98 314.665 202.041 311.684 202.041C308.767 202.041 306.886 199.98 306.886 196.793V183.469H302.869V196.538ZM306.146 114.151C306.146 109.753 309.317 106.586 313.481 106.586C317.603 106.586 320.753 109.774 320.753 114.13C320.753 118.444 317.582 121.695 313.481 121.695C312.502 121.701 311.531 121.509 310.627 121.13C309.723 120.751 308.905 120.193 308.22 119.488C307.536 118.784 306.999 117.949 306.643 117.032C306.286 116.115 306.117 115.135 306.146 114.151ZM324.325 203.316C326.376 204.868 329.187 205.463 331.344 205.463C336.565 205.463 339.63 203.061 339.63 199.024C339.63 195.943 338.108 193.711 333.923 192.649L331.174 191.99C329.039 191.459 328.257 190.503 328.257 189.228C328.257 187.591 329.885 186.401 332.464 186.401C334.768 186.401 336.903 187.081 338.785 188.378V184.51C336.75 183.467 334.494 182.935 332.21 182.959C328.088 182.959 324.325 185.445 324.325 189.398C324.325 192.16 325.869 194.476 330.139 195.496L332.633 196.113C334.853 196.623 335.804 197.558 335.804 199.109C335.804 201.021 334.155 202.041 331.428 202.041C328.83 202.048 326.314 201.13 324.325 199.449V203.316ZM328.025 106.841H331.788V116.808C331.788 122.481 334.958 125.393 339.482 125.393C340.772 125.393 342.23 125.053 343.858 124.288V120.93C342.569 121.61 341.448 121.95 340.095 121.95C337.601 121.95 335.804 120.25 335.804 116.723V106.841H343.33V103.399H335.804V97.0238H331.788V103.399H328.025V106.841ZM347.261 116.468C347.261 121.865 350.686 125.393 356.077 125.393C361.467 125.393 364.955 121.865 364.955 116.468V103.399H360.939V116.723C360.939 119.91 359.078 121.95 356.077 121.95C353.18 121.95 351.299 119.889 351.299 116.723V103.399H347.283V116.468H347.261ZM384.297 114.13C384.297 120.59 389.011 125.393 394.994 125.393C398.503 125.393 401.399 123.756 403.027 120.93V124.883H407.043V103.42H403.027V107.266C402.195 105.886 401.012 104.753 399.6 103.983C398.189 103.214 396.599 102.836 394.994 102.889C389.011 102.889 384.297 107.691 384.297 114.151V114.13ZM388.398 114.13C388.398 109.753 391.569 106.586 395.755 106.586C399.856 106.586 403.027 109.774 403.027 114.13C403.027 118.444 399.856 121.695 395.755 121.695C394.774 121.704 393.801 121.514 392.895 121.136C391.988 120.758 391.167 120.201 390.48 119.496C389.794 118.792 389.255 117.955 388.897 117.037C388.54 116.119 388.37 115.137 388.398 114.151V114.13ZM412.518 124.883H416.535V94.6438H412.518V124.883ZM369.775 124.883V103.42H373.791V107.5C374.254 106.155 375.121 104.987 376.272 104.157C377.423 103.328 378.801 102.877 380.218 102.868C381.148 102.868 382.183 102.953 383.114 103.378V107.16C382.099 106.788 381.022 106.615 379.943 106.65C377.406 106.65 373.812 108.966 373.812 113.769V124.861H369.796L369.775 124.883ZM389.159 204.953V183.49H393.282V186.231C393.718 185.226 394.446 184.376 395.369 183.793C396.293 183.209 397.37 182.918 398.461 182.959C400.913 182.959 403.111 184.17 404.168 186.571C404.706 185.471 405.544 184.546 406.584 183.907C407.625 183.267 408.825 182.938 410.045 182.959C414.252 182.959 416.979 185.976 416.979 190.779V204.953H412.835V190.503C412.835 187.103 410.933 186.401 409.432 186.401C406.895 186.401 405.12 188.293 405.12 190.694V204.953H400.997V190.8C400.997 187.273 399.158 186.423 397.573 186.423C395.036 186.423 393.282 188.314 393.282 190.8V204.974H389.159V204.953ZM366.477 196.538V183.469H370.493V196.793C370.493 199.98 372.396 202.041 375.356 202.041C378.273 202.041 380.239 199.98 380.239 196.793V183.469H384.255V196.538C384.255 201.956 380.767 205.463 375.377 205.463C369.986 205.463 366.498 201.956 366.498 196.538H366.477ZM362.461 193.775C362.461 187.613 359.29 182.959 352.884 182.959C346.733 182.959 342.463 187.761 342.463 194.221C342.463 200.915 346.987 205.484 353.498 205.484C357.26 205.484 360.156 204.188 361.869 202.551V198.514C360.917 199.627 359.736 200.519 358.407 201.128C357.078 201.737 355.634 202.048 354.174 202.041C349.566 202.041 346.818 199.109 346.395 195.156H362.376C362.461 194.391 362.461 193.966 362.461 193.775ZM346.564 191.905C347.156 188.378 349.481 186.38 352.715 186.38C356.309 186.38 358.36 188.718 358.444 191.905H346.564ZM272.577 164.918H276.699V151.424H293.462V164.918H297.563V134.679H293.462V147.556H276.699V134.7H272.619V164.939L272.577 164.918ZM302.235 137.505C302.235 139.056 303.419 140.268 305.046 140.268C306.674 140.268 307.879 139.056 307.879 137.505C307.879 135.975 306.674 134.679 305.046 134.679C303.419 134.679 302.235 135.954 302.235 137.505ZM303.08 164.918H307.097V143.455H303.08V164.918ZM311.895 163.281C314.054 164.706 316.585 165.453 319.167 165.428C324.452 165.428 327.708 163.026 327.708 158.989C327.708 155.908 326.08 153.676 321.725 152.614L318.914 151.955C316.758 151.424 315.912 150.468 315.912 149.193C315.912 147.641 317.286 146.43 319.675 146.366C322.148 146.281 324.537 146.961 326.608 148.343V144.475C324.51 143.419 322.19 142.887 319.844 142.924C315.574 142.924 311.895 145.41 311.895 149.363C311.895 152.125 313.439 154.441 317.878 155.461L320.436 156.078C322.761 156.588 323.691 157.523 323.691 159.074C323.691 160.88 322.148 161.921 319.59 162.006C316.797 162.113 314.061 161.191 311.895 159.414V163.281ZM329.441 146.876H333.352V156.843C333.352 162.516 336.523 165.428 341.047 165.428C342.336 165.428 343.795 165.088 345.422 164.323V160.965C344.133 161.645 343.012 162.006 341.66 162.006C339.165 162.006 337.368 160.285 337.368 156.758V146.876H345.253V143.434H337.368V137.08H333.352V143.455H329.42V146.876H329.441ZM346.818 154.186C346.817 155.687 347.115 157.173 347.694 158.556C348.273 159.939 349.121 161.192 350.188 162.242C351.256 163.291 352.521 164.115 353.91 164.666C355.298 165.217 356.782 165.483 358.275 165.449C359.764 165.483 361.244 165.216 362.628 164.665C364.012 164.113 365.272 163.287 366.332 162.237C367.393 161.186 368.233 159.933 368.803 158.55C369.372 157.167 369.66 155.683 369.648 154.186C369.648 147.811 364.701 142.924 358.275 142.924C356.782 142.89 355.298 143.156 353.91 143.707C352.521 144.258 351.256 145.082 350.188 146.131C349.121 147.18 348.273 148.433 347.694 149.817C347.115 151.2 346.817 152.686 346.818 154.186ZM350.919 154.186C350.919 149.894 354.089 146.621 358.275 146.621C359.252 146.621 360.219 146.818 361.118 147.201C362.017 147.584 362.83 148.146 363.509 148.852C364.188 149.558 364.718 150.394 365.068 151.31C365.418 152.227 365.581 153.205 365.547 154.186C365.547 158.564 362.376 161.751 358.275 161.751C357.29 161.769 356.311 161.585 355.399 161.209C354.487 160.833 353.661 160.274 352.972 159.565C352.283 158.857 351.746 158.014 351.392 157.089C351.039 156.164 350.878 155.176 350.919 154.186ZM373.58 164.918H377.596V153.846C377.596 149.023 381.19 146.706 383.769 146.706C384.849 146.671 385.925 146.844 386.94 147.216V143.434C386.015 143.056 385.02 142.882 384.023 142.924C381.021 142.924 378.548 144.9 377.617 147.556V143.434H373.601V164.918H373.58ZM388.99 143.455L398.397 164.578C397.023 167.234 395.226 168.615 392.838 168.615C391.758 168.65 390.682 168.477 389.667 168.105V171.888C390.597 172.313 391.717 172.398 392.669 172.398C397.361 172.398 400.279 169.295 402.076 165.088L411.313 143.434H407.022L400.448 160.115L393.514 143.434H388.99V143.455ZM184.405 146.005L196.623 138.993L187.956 139.715L186.645 137.441L191.634 130.259L179.458 137.378L177.83 134.743L195.376 124.585L197.025 127.263L190.958 136.549L201.929 135.784L203.409 138.546L185.863 148.746L184.405 146.005ZM177.83 165.151L195.376 175.351L197.046 172.653L190.894 163.494L201.929 164.131L203.409 161.348L185.863 151.148L184.405 153.91L196.644 160.923L187.956 160.2L186.645 162.453L191.634 169.635L179.458 162.516L177.83 165.151ZM159.651 166.384V186.72L162.822 186.826L167.62 176.903L172.588 186.826L175.759 186.72V166.384L172.651 166.469L172.715 180.621L169.015 172.695H166.394L162.695 180.621L162.758 166.469L159.672 166.384H159.651ZM149.525 151.169L131.979 161.369L133.459 164.131L144.452 163.366L138.363 172.653L140.033 175.351L157.579 165.151L155.951 162.538L143.754 169.656L148.743 162.474L147.453 160.2L138.765 160.944L150.984 153.931L149.525 151.169ZM157.558 134.764L140.012 124.585L138.363 127.284L144.494 136.421L133.459 135.784L131.979 138.589L149.525 148.746L150.984 146.026L138.744 138.993L147.432 139.736L148.743 137.463L143.754 130.28L155.93 137.399L157.558 134.764ZM175.738 133.553V113.195L172.567 113.089L167.768 123.013L162.8 113.089L159.63 113.195V133.553L162.737 133.446L162.695 119.294L166.394 127.22H168.994L172.694 119.294L172.651 133.446L175.738 133.553ZM202.859 100.084L193.431 118.104L190.429 116.404L194.34 108.924L186.202 104.631L182.291 112.111L179.204 110.581L188.633 92.5613L191.719 94.0913L187.808 101.571L195.947 105.864L199.858 98.3838L202.859 100.084ZM220.024 119.315L213.112 124.096L207.89 116.489L214.803 111.708L212.774 108.903L196.095 120.463L198.124 123.246L205.058 118.465L210.279 126.073L203.345 130.854L205.227 133.765L221.906 122.205L220.024 119.315ZM228.226 147.238L219.876 148.236L218.756 139.078L227.106 138.058L226.599 134.636L206.495 137.08L207.003 140.501L215.353 139.481L216.452 148.661L208.102 149.681L208.419 153.124L228.522 150.68L228.226 147.238ZM222.519 175.819L214.655 172.823L217.932 164.174L225.774 167.17L226.916 163.898L207.975 156.673L206.833 159.945L214.697 162.941L211.442 171.59L203.578 168.594L202.267 171.781L221.208 179.006L222.519 175.819ZM204.297 198.45L198.737 192.139L205.607 185.998L211.188 192.33L213.704 189.971L200.259 174.714L197.765 177.094L203.324 183.426L196.454 189.546L190.873 183.214L188.231 185.424L201.654 200.681L204.297 198.45ZM177.661 209.989L175.674 201.786L184.595 199.576L186.603 207.779L189.922 206.865L185.081 187.103L181.762 188.016L183.771 196.219L174.85 198.429L172.842 190.226L169.459 190.949L174.321 210.711L177.682 209.989H177.661ZM148.785 207.8L150.814 199.598L159.735 201.808L157.727 210.01L161.088 210.733L165.95 190.97L162.568 190.248L160.56 198.45L151.639 196.24L153.647 188.038L150.328 187.103L145.466 206.865L148.785 207.8ZM124.221 192.288L129.802 185.976L136.672 192.096L131.092 198.429L133.734 200.66L147.179 185.424L144.536 183.214L138.955 189.525L132.085 183.405L137.645 177.094L135.15 174.714L121.706 189.95L124.221 192.309V192.288ZM109.614 167.128L117.478 164.153L120.733 172.78L112.87 175.776L114.18 178.964L133.121 171.76L131.81 168.573L123.947 171.548L120.691 162.92L128.555 159.924L127.434 156.651L108.473 163.876L109.614 167.128ZM108.303 138.036L116.653 139.056L115.554 148.236L107.204 147.216L106.887 150.659L126.991 153.103L127.308 149.66L118.958 148.64L120.078 139.481L128.428 140.501L128.935 137.08L108.832 134.615L108.303 138.036ZM120.607 111.686L127.54 116.468L122.319 124.075L115.385 119.273L113.525 122.163L130.183 133.744L132.064 130.833L125.151 126.03L130.373 118.423L137.285 123.225L139.336 120.441L122.636 108.881L120.607 111.665V111.686ZM143.712 94.0488L147.622 101.55L139.484 105.843L135.573 98.3625L132.571 100.063L141.978 118.083L144.98 116.383L141.069 108.903L149.229 104.61L153.119 112.09L156.226 110.56L146.798 92.54L143.712 94.07V94.0488ZM172.313 89.2463V97.7038H163.118V89.2463L159.672 89.3525V109.71L163.118 109.604V101.168H172.313V109.625L175.759 109.731V89.3738L172.313 89.2675V89.2463ZM202.584 72.7563L196.01 92.0088L192.966 90.8613L188.527 74.435L184.088 87.78L180.79 86.76L187.364 67.5075L190.472 68.4638L194.911 84.89L199.35 71.545L202.584 72.7563ZM222.984 86.1225L214.465 97.2788L215.585 80.3213L212.964 78.4088L200.492 94.4525L203.282 96.4925L211.822 85.3363L210.702 102.294L213.196 104.376L225.647 88.3113L222.984 86.1225ZM240.635 107.606L228.945 115.384L235.498 99.7013L233.638 97.045L216.663 108.159L218.629 111.006L230.319 103.229L223.766 118.911L225.457 121.674L242.432 110.56L240.635 107.606ZM250.359 133.701L236.809 137.25L248.055 124.543L247.167 121.419L227.508 126.413L228.459 129.728L242.03 126.179L230.763 138.886L231.461 142.074L251.12 137.08L250.359 133.68V133.701ZM251.141 161.539L237.168 160.476L251.923 152.146L252.093 148.874L231.905 147.195L231.693 150.659L245.687 151.721L230.932 160.051L230.573 163.303L250.761 164.981L251.141 161.539ZM242.897 188.144L230.002 182.576L246.66 179.495L247.865 176.478L229.304 168.296L228.036 171.484L240.889 177.073L224.252 180.133L222.857 183.086L241.396 191.268L242.876 188.144H242.897ZM226.451 210.563L216.071 201.106L232.814 203.635L234.928 201.17L220.024 187.358L217.762 189.993L228.142 199.449L211.4 196.92L209.138 199.258L224.041 213.049L226.451 210.563ZM203.684 226.5L196.919 214.175L211.928 222.016L214.761 220.359L205.121 202.466L202.141 204.209L208.905 216.534L193.875 208.671L190.979 210.159L200.619 228.051L203.684 226.5ZM177.006 234.086L174.596 220.21L186.265 232.535L189.457 231.898L186.117 211.816L182.735 212.496L185.145 226.373L173.476 214.048L170.263 214.473L173.603 234.554L177.006 234.086ZM149.314 232.578L151.533 218.659L158.594 234.129L161.807 234.554L165.147 214.494L161.722 214.026L159.524 227.924L152.463 212.454L149.292 211.816L145.931 231.898L149.314 232.578ZM123.629 222.101L130.204 209.67L131.895 226.585L134.791 228.073L144.43 210.159L141.344 208.608L134.77 221.039L133.079 204.103L130.288 202.466L120.649 220.359L123.608 222.101H123.629ZM102.702 203.826L112.954 194.2L109.064 210.775L111.326 213.091L126.251 199.3L123.841 196.835L113.588 206.44L117.478 189.886L115.364 187.421L100.44 201.213L102.702 203.826ZM88.8131 179.686L101.623 173.949L92.597 188.314L93.9922 191.268L112.552 183.086L111.073 179.963L98.2835 185.7L107.289 171.314L106.084 168.296L87.5236 176.478L88.8131 179.665V179.686ZM83.486 152.338L97.4379 151.063L84.2682 161.773L84.6275 165.003L104.816 163.324L104.435 159.881L90.4831 161.156L103.674 150.489L103.505 147.216L83.3169 148.916L83.486 152.359V152.338ZM87.2911 124.734L100.905 128.113L84.9869 133.893L84.2893 137.08L103.928 142.074L104.668 138.695L91.0539 135.338L106.972 129.558L107.86 126.413L88.2212 121.419L87.2911 124.734ZM99.7844 99.8713L111.58 107.5L94.6687 107.776L92.9775 110.56L109.931 121.695L111.728 118.741L99.9112 111.134L116.823 110.858L118.704 108.18L101.729 97.045L99.7632 99.8713H99.7844ZM119.655 80.4488L128.322 91.4988L112.257 86.2288L109.741 88.3113L122.192 104.376L124.834 102.188L116.167 91.1375L132.254 96.3863L134.876 94.4738L122.424 78.4088L119.676 80.4488H119.655ZM144.726 68.5488L149.377 81.83L135.848 71.5875L132.804 72.735L139.378 91.9875L142.612 90.7763L137.962 77.495L151.491 87.7163L154.598 86.76L148.024 67.5075L144.726 68.5488ZM172.292 65.4675L172.377 79.535L162.906 65.4675L159.672 65.5525V85.91L163.118 85.8038L163.012 71.7363L172.524 85.8038L175.759 85.91V65.5525L172.292 65.4675Z" fill="#06182E"/>
</g>
</g>
<defs>
<clipPath id="clip0_834_329">
<rect width="334" height="170" fill="white" transform="translate(83 65)"/>
</clipPath>
</defs>
</svg>
