<svg width="500" height="300" viewBox="0 0 500 300" fill="none" xmlns="http://www.w3.org/2000/svg">
<rect width="500" height="300" fill="white"/>
<path d="M424.053 124.942C406.974 126.184 393.31 140.158 392.068 157.237C390.826 177.421 406.663 194.189 426.537 194.189C433.679 194.189 443.305 190.463 447.653 183.011V193.258H461.005V160.342C461.626 138.605 444.237 123.389 424.053 124.942ZM446.721 160.342C446.1 171.832 436.163 180.526 424.363 178.974C415.358 177.732 408.216 170.589 406.974 161.584C405.732 149.474 415.047 139.226 426.847 139.226C437.405 139.226 446.1 147.611 446.721 158.168V160.342Z" fill="#06182E"/>
<path d="M350.768 124.942C332.447 125.563 316.921 139.537 316.921 160.032C316.921 178.663 332.137 194.5 351.7 194.5C365.363 194.5 378.716 186.426 383.995 173.074L370.642 169.037C368.158 174.626 362.258 179.284 355.737 180.526C346.421 182.39 337.726 176.49 334.31 170.279L386.168 155.995C384.616 142.332 372.816 124.321 350.768 124.942ZM331.516 157.858C331.516 150.716 335.863 142.332 345.179 138.916C355.737 134.879 365.052 140.158 369.089 147.611L331.516 157.858Z" fill="#06182E"/>
<path d="M236.805 138.916V124.632C223.763 124.632 219.416 131.153 217.242 134.568V126.805H202.337V158.479V192.947H217.553C217.553 172.453 217.553 172.763 217.553 160.342C217.553 145.437 226.247 139.537 236.805 138.916Z" fill="#06182E"/>
<path d="M99.8632 166.553L54.5263 113.142H39V192.947H55.1474V139.537L101.105 193.258H115.079V113.142H99.8632V166.553Z" fill="#06182E"/>
<path d="M307.916 106H293.632V132.084C290.216 127.737 279.658 124.011 270.653 124.942C253.574 126.184 239.911 140.158 238.668 157.237C237.426 177.421 253.263 194.189 273.137 194.189C280.59 194.189 290.837 190.774 294.253 184.253V192.947H307.605V160.032C307.605 159.721 307.605 159.721 307.605 159.411C307.605 159.1 307.605 159.1 307.605 158.789L307.916 106ZM293.011 160.342C292.39 171.832 282.453 180.526 270.653 178.974C261.647 177.732 254.505 170.589 253.263 161.584C252.021 149.474 261.337 139.226 273.137 139.226C283.695 139.226 292.39 147.611 293.011 158.168V160.342Z" fill="#06182E"/>
<path d="M158.863 124.632C139.61 124.632 124.084 140.158 124.084 159.411C124.084 178.663 139.61 194.189 158.863 194.189C178.116 194.189 193.642 178.663 193.642 159.411C193.331 140.158 177.805 124.632 158.863 124.632ZM158.863 179.284C147.995 179.284 138.989 170.279 138.989 159.411C138.989 148.542 147.995 139.537 158.863 139.537C169.731 139.537 178.737 148.542 178.737 159.411C178.737 170.589 169.731 179.284 158.863 179.284Z" fill="#06182E"/>
</svg>
