<svg width="500" height="300" viewBox="0 0 500 300" fill="none" xmlns="http://www.w3.org/2000/svg">
<rect width="500" height="300" fill="white"/>
<g clip-path="url(#clip0_834_435)">
<path d="M298.073 173.901C297.931 173.532 297.537 173.319 297.151 173.407L297.031 173.441C295.888 173.684 295.008 173.616 294.39 173.205C293.514 172.624 293.089 171.309 293.089 169.187V150.018C293.089 142.53 288.556 138.732 279.606 138.732C271.594 138.732 265.316 142.465 265.316 147.232C265.316 149.684 266.833 151.455 269.073 151.721C270.536 151.896 271.934 151.242 272.945 150.189C274.915 148.144 274.664 145.707 272.274 143.096C273.687 141.64 276.189 140.781 279.042 140.781C283.691 140.781 285.675 143.495 285.675 149.858V154.705C284.587 155.036 283.567 155.347 281.699 155.781C277.934 156.651 272.768 157.81 268.872 159.928C265.656 161.665 264.022 164.406 264.022 168.074C264.022 172.069 266.686 176.733 274.192 176.733C278.397 176.733 282.162 174.771 286.027 170.56C286.363 174.935 288.046 176.577 292.131 176.577C294.097 176.577 295.668 176.125 297.537 175.235C298.043 174.992 298.282 174.414 298.073 173.901ZM285.675 168.043C284.764 169.294 281.783 173.015 278.069 173.015C273.053 173.015 271.999 169.549 271.999 166.641C271.999 161.859 275.721 159.646 285.675 157.225V168.043ZM381.864 176.896C371.23 176.896 363.211 168.693 363.211 157.814C363.211 147.163 371.578 138.497 381.864 138.497C392.277 138.497 400.44 146.84 400.44 157.499C400.44 169.48 390.798 176.896 381.864 176.896ZM381.462 140.542C376.867 140.542 371.589 142.488 371.589 157.655C371.589 169.225 375.057 174.847 382.188 174.847C389.011 174.847 392.057 169.549 392.057 157.655C392.057 146.141 388.59 140.542 381.462 140.542ZM217.469 139.181C217.469 148.007 215.26 152.865 203.962 152.865H197.974V126.204H204.206C215.893 126.204 217.469 132.764 217.469 139.181ZM197.974 169.187V155.317H203.399C211.492 155.317 217.646 153.633 221.697 150.307C225.932 146.829 226.82 142.423 226.82 139.34C226.82 126.66 214.391 123.999 203.962 123.999L204.005 123.995H182.858C182.379 123.995 181.989 124.383 181.989 124.85V124.907V124.892C181.989 125.326 182.255 125.713 182.672 125.862C184.556 126.546 189.672 125.588 189.672 130.989V169.18C189.672 171.959 188.421 173.92 182.703 174.452C182.247 174.494 181.908 174.859 181.908 175.3V175.433C181.908 175.904 182.294 176.284 182.773 176.284H205.368C205.847 176.284 206.237 175.904 206.237 175.433V175.315C206.237 174.874 205.881 174.502 205.426 174.464C199.213 173.973 197.966 172.08 197.966 169.18V155.343L197.974 169.187ZM243.921 138.478C234.087 138.478 226.083 147.243 226.083 158.02C226.083 168.929 233.585 176.847 243.921 176.847C252.605 176.847 256.833 171.738 259.254 167.899C259.493 167.519 259.389 167.017 259.018 166.755L258.902 166.675C258.528 166.413 258.007 166.489 257.717 166.846C254.524 170.788 251.728 173.068 246.902 173.068C240.797 173.068 234.276 168.929 234.276 157.305V157.221C234.264 156.708 234.276 156.005 234.295 155.347H259.273C259.342 155.347 259.397 155.294 259.4 155.226L259.416 155.028C259.771 150.265 258.401 145.981 255.559 142.974C252.783 140.032 248.759 138.478 243.921 138.478ZM234.434 152.899C235.257 144.947 238.408 140.587 243.357 140.587C245.832 140.587 247.67 141.264 248.968 142.655C250.752 144.56 251.508 148.007 251.211 152.899H234.434ZM347.45 153.325H347.442C340.611 151.436 337.951 149.528 337.951 146.513C337.951 143.081 340.719 140.587 344.534 140.587C349.021 140.587 350.944 142.701 355.681 150.497L355.743 150.6C355.766 150.641 355.809 150.664 355.809 150.664H356.504C356.983 150.664 357.373 150.28 357.373 149.809V138.603C357.373 138.535 357.315 138.478 357.315 138.478H356.384C356.125 138.478 355.878 138.592 355.716 138.789L354.203 140.599C352.295 139.565 349.187 138.478 346.067 138.478C338.221 138.478 332.743 143.248 332.743 150.083C332.743 156.499 337.063 158.901 344.523 160.886C351.77 162.839 354.342 164.873 354.342 168.648C354.342 172.848 350.21 174.733 347.276 174.733C341.816 174.733 339.511 172.738 334.279 163.486L334.217 163.375C334.194 163.334 334.152 163.307 334.152 163.307H333.449C332.97 163.307 332.58 163.695 332.58 164.162V176.718C332.58 176.79 332.638 176.847 332.711 176.847H333.6C333.827 176.847 334.051 176.756 334.213 176.596L336.603 174.243C339.403 175.954 343.588 176.847 346.306 176.847C350.388 176.847 353.743 175.573 356.009 173.167C358.033 171.02 359.145 167.979 359.145 164.603C359.145 158.757 355.975 155.701 347.45 153.325ZM306.116 171.78C306.116 173.715 305.618 174.349 302.487 174.543C302.031 174.574 301.676 174.946 301.676 175.395C301.676 175.866 302.066 176.246 302.545 176.246H318.001C318.472 176.246 318.854 175.87 318.854 175.41C318.854 174.954 318.495 174.578 318.032 174.559C314.456 174.387 313.53 173.817 313.53 171.78V149.467C316.074 145.301 317.9 143.119 320.989 142.461C320.839 142.99 320.742 143.617 320.742 144.13C320.742 146.84 322.665 148.733 325.418 148.733C328.121 148.733 330.013 146.84 330.013 144.13C330.013 141.568 328.387 138.573 323.8 138.573C320.043 138.573 316.452 140.694 313.367 145.768V140.028C313.367 139.443 312.877 138.972 312.282 138.987L302.545 139.245C302.07 139.261 301.703 139.633 301.703 140.097V140.219C301.703 140.64 302.012 141.002 302.425 141.059C305.672 141.511 306.12 143.031 306.116 144.609V171.78ZM413.019 138.964C413.243 138.964 413.459 139.052 413.618 139.207C413.791 139.367 413.884 139.58 413.888 139.816L413.919 146.179C413.919 146.179 417.093 138.713 427.386 138.713H427.479C433.896 138.713 437.576 142.743 437.576 149.767V171.746C437.576 173.68 438.078 174.315 441.205 174.509C441.661 174.536 442.016 174.908 442.016 175.361C442.016 175.828 441.626 176.212 441.151 176.212H427.263C426.784 176.212 426.394 175.828 426.394 175.357C426.394 174.901 426.745 174.528 427.186 174.49C429.711 174.277 430.112 173.65 430.112 171.746V151.911C430.112 145.358 428.22 142.811 423.367 142.811C420.085 142.811 417.401 145.628 415.726 147.992C415.726 147.992 414.869 149.049 413.942 151.041L414.042 171.742C414.042 173.646 414.436 174.273 416.888 174.486C417.328 174.524 417.676 174.901 417.676 175.338C417.676 175.828 417.286 176.212 416.811 176.212H403.007C402.532 176.212 402.142 175.828 402.142 175.357C402.142 174.908 402.501 174.536 402.953 174.505C406.081 174.311 406.579 173.68 406.579 171.746V144.613C406.579 143.031 406.131 141.503 402.868 141.047C402.455 140.99 402.142 140.625 402.142 140.203V140.078C402.142 139.61 402.513 139.238 402.988 139.223L413.019 138.964Z" fill="#06182E"/>
<path d="M141.713 100.325C166.189 114.055 171.888 144.837 154.857 175.984C139.891 203.36 107.21 215.053 82.8583 201.118C58.5023 187.175 53.7493 148.285 64.2168 125.907C79.4142 93.4069 114.67 85.1507 141.713 100.325Z" fill="#06182E"/>
<path d="M141.146 123.942C145.937 128.978 147.428 136.619 146.598 142.887C145.644 150.033 141.242 156.647 133.925 161.03C128.122 164.512 120.496 165.896 112.994 165.964C112.932 167.135 112.697 171.168 112.577 171.807C112.404 172.745 112.068 173.255 111.658 173.779C110.851 174.817 109.454 175.482 108.064 175.874C106.963 176.178 105.87 176.315 105.094 176.315C104.967 176.315 104.84 176.303 104.712 176.292C103.897 176.201 102.99 175.821 102.43 175.209C101.87 174.589 101.554 173.814 101.48 172.932L101.419 172.133C101.26 171.449 100.392 136.722 100.558 137.341C100.685 133.179 107.508 132.457 111.21 133.19C114.921 133.924 113.983 138.364 113.882 143.818C113.882 143.818 113.705 150.991 113.361 158.571C118.087 158.392 121.84 157.066 125.35 155.351C132.443 151.884 136.196 146.574 136.196 138.755C136.196 130.936 128.466 122.178 114.199 122.178C99.9321 122.178 93.8083 125.721 86.9008 131.347C85.3447 132.616 84.1439 133.893 83.0126 134.734C81.8775 135.574 78.8619 135.703 78.0588 133.734C77.0819 131.362 78.9005 128.716 79.9701 127.435C81.6497 125.424 85.7849 121.376 90.3719 119.023C95.6269 116.324 102.052 113.416 110.998 113.192C119.091 112.994 131.871 113.637 141.076 123.873M110.203 181.439C109.457 180.869 108.623 180.477 107.778 180.314C107.492 180.257 107.195 180.226 106.905 180.226C105.314 180.226 103.751 181.089 102.731 182.537C101.882 183.738 101.531 185.179 101.755 186.57C101.901 187.464 102.237 188.235 102.739 188.809C103.299 189.455 104.156 189.953 105.222 190.254C105.836 190.421 106.465 190.512 107.094 190.512H107.098C108.473 190.512 109.709 190.102 110.67 189.341C111.786 188.441 112.392 187.167 112.38 185.742C112.365 184.088 111.554 182.473 110.203 181.439Z" fill="white"/>
</g>
<defs>
<clipPath id="clip0_834_435">
<rect width="385" height="116" fill="white" transform="translate(58 92)"/>
</clipPath>
</defs>
</svg>
