<svg width="500" height="300" viewBox="0 0 500 300" fill="none" xmlns="http://www.w3.org/2000/svg">
<rect width="500" height="300" fill="white"/>
<path d="M180.472 244.13C171.712 244.13 166.092 237.401 166.092 227.378C166.092 217.283 171.712 210.626 180.472 210.626C189.31 210.626 194.93 217.354 194.93 227.378C194.93 237.401 189.31 244.13 180.472 244.13ZM180.472 207.637C169.464 207.637 162.353 215.641 162.353 227.378C162.353 239.044 169.464 247.124 180.401 247.124C191.404 247.124 198.597 239.044 198.597 227.378C198.597 215.641 191.404 207.637 180.472 207.637ZM151.712 197.164L162.72 196.343V194.022H136.657V196.343L147.742 197.093V217.283H118.532V197.093L129.623 196.343V194.022H103.56V196.343L114.486 197.164V242.558L103.56 243.308V245.63H129.623V243.308L118.532 242.558V220.277H147.742V242.558L136.657 243.308V245.63H162.72V243.308L151.712 242.558V197.164ZM118.461 57.2432H135.083C142.424 57.2432 146.92 61.9567 146.92 68.9858C146.92 76.0917 143.028 81.473 135.692 81.473H118.461V57.2432ZM130.067 103.535L118.461 102.785V84.4621H136.207C145.5 84.4621 150.889 77.8873 150.889 69.0625C150.889 60.3855 145.193 54.2487 135.84 54.2487H103.56V56.5643L114.415 57.391V102.785L103.56 103.535V105.856H130.067V103.535ZM198.828 173.537V175.699H220.017V173.608L211.481 172.858V149.975C214.551 144.818 219.94 141.002 225.861 141.002C231.771 141.002 235.066 144.818 235.066 150.801V172.858L226.382 173.608V175.699H246.826V173.537L238.816 172.787V150.429C238.816 143.619 235.516 137.783 226.607 137.783C220.247 137.783 214.661 141.358 211.404 146.236V138.237L209.304 137.641C206.234 141.002 202.194 142.502 197.325 142.502V144.073C200.916 144.741 204.738 144.67 207.736 143.17V172.787L198.828 173.537ZM118.461 127.168H135.911C143.324 127.168 148.044 131.652 148.044 138.533C148.044 145.414 144.075 150.352 136.059 150.352H118.461V127.168ZM130.067 173.378L118.461 172.639V153.413H133.883L144.826 175.699H158.526V173.378L147.37 172.261L138.082 153.413C146.849 152.964 152.013 146.685 152.013 138.533C152.013 130.157 146.169 124.179 137.183 124.179H103.56V126.495L114.486 127.316V172.639L103.56 173.378V175.699H130.067V173.378ZM389.429 102.933V80.5807C389.429 73.7705 386.134 67.8636 377.225 67.8636C370.932 67.8636 365.345 71.4439 362.089 76.3873V68.3125L360 67.7158C356.924 71.0771 352.884 72.6482 348.004 72.5716V74.2194C351.606 74.8928 355.427 74.8161 358.421 73.3216V102.933L349.512 103.688V105.856H370.701V103.759L362.171 103.009V80.1263C365.235 74.9639 370.63 71.0771 376.469 71.0771C382.39 71.0771 385.679 74.9639 385.679 80.953V103.009L376.995 103.759V105.856H397.439V103.688L389.429 102.933ZM266.305 225.363C261.431 224.164 255.296 222.516 255.296 217.206C255.296 213.692 257.835 210.549 264.288 210.549C270.05 210.549 273.043 213.095 275.746 217.808L278.136 221.991L280.011 221.624L277.61 207.489H275.581L275.516 213.691C273.416 210.33 269.671 207.637 263.756 207.637C256.267 207.637 251.771 211.825 251.771 217.283C251.771 224.837 260.39 227.153 265.554 228.505C272.594 230.295 277.385 232.02 277.385 237.1C277.385 241.589 273.569 244.277 267.796 244.277C261.81 244.277 258.065 241.288 254.392 235.305L252.067 231.494L250.121 231.867L252.594 246.451H254.693L254.469 239.421C257.314 244.129 261.656 247.124 268.246 247.124C275.889 247.124 280.905 243.084 280.905 236.805C280.905 229.551 274.545 227.454 266.305 225.363ZM389.276 150.122C389.276 143.323 386.436 137.783 378.492 137.783C372.429 137.783 367.664 140.996 364.49 145.934C363.459 141.38 360.45 137.783 354.227 137.783C348.761 137.783 343.629 141.287 340.515 146.016V138.237L338.427 137.641C335.285 141.002 331.234 142.502 326.437 142.502V144.073C329.962 144.741 333.86 144.588 336.853 143.099V172.786L327.944 173.536V175.699H347.495V173.608L340.598 172.858V149.608C343.443 144.67 348.158 141.002 353.328 141.002C359.32 141.002 361.266 145.047 361.266 151.179V172.858L353.931 173.608V175.699H372.429V173.608L365.016 172.858V150.73C365.016 150.276 365.016 149.756 364.934 149.224C368.081 143.92 372.429 141.002 377.522 141.002C383.591 141.002 385.532 145.113 385.532 151.097V172.858L378.717 173.608V175.699H397.44V173.608L389.276 172.786L389.276 150.122ZM324.797 103.688V105.856H346.14V103.688L337.456 102.933V68.3889L335.351 67.7156C332.138 71.0769 328.01 72.648 323.301 72.5714V74.2192C326.815 74.8925 330.707 74.7447 333.706 73.2502V102.933L324.797 103.688ZM290.346 223.786C291.464 215.783 296.557 210.626 303.904 210.626C309.967 210.626 316.108 214.595 316.327 223.786H290.346ZM303.97 207.637C293.416 207.637 286.448 215.712 286.448 227.378C286.448 239.044 293.487 247.124 304.644 247.124C312.813 247.124 317.528 243.308 319.397 237.549L317.084 236.728C314.967 241.551 311.201 244.129 305.094 244.129C295.669 244.129 290.116 237.626 290.116 227.454V226.704H319.858C319.929 226.179 319.929 224.985 319.929 224.317C319.929 216.089 314.759 207.637 303.97 207.637ZM306.662 174.204C297.906 174.204 292.287 167.476 292.287 157.458C292.287 147.358 297.906 140.777 306.662 140.777C315.51 140.777 321.124 147.434 321.124 157.458C321.124 167.476 315.51 174.204 306.662 174.204ZM306.662 137.783C295.669 137.783 288.548 145.715 288.548 157.458C288.548 169.119 295.669 177.199 306.596 177.199C317.599 177.199 324.798 169.119 324.798 157.458C324.798 145.715 317.599 137.783 306.662 137.783ZM239.568 208.086L237.468 207.489C234.25 210.85 230.127 212.421 225.412 212.345V213.987C228.926 214.666 232.748 214.595 235.741 213.095V235.305C232.6 240.248 227.21 243.987 221.366 243.987C215.527 243.987 212.227 240.095 212.227 234.182V208.086L210.21 207.489C207.063 210.85 203.839 212.421 199.195 212.345V213.987C202.342 214.666 205.785 214.595 208.483 213.325V234.407C208.483 241.14 211.701 247.124 220.763 247.124C227.128 247.124 232.616 243.576 235.823 238.819L235.894 246.379L236.119 246.522L247.802 245.399V243.385H239.568V208.086ZM281.728 73.5404V94.6388C281.728 101.367 284.946 107.35 294.008 107.35C300.373 107.35 305.872 103.809 309.074 99.0512L309.134 106.6L309.365 106.748L321.048 105.626V103.611H312.813V68.312L310.713 67.7153C307.495 71.0766 303.378 72.6478 298.658 72.5712V74.219C302.177 74.8923 305.993 74.8157 308.986 73.3212V95.531C305.845 100.469 300.456 104.208 294.617 104.208C288.773 104.208 285.472 100.316 285.472 94.4087V68.312L283.444 67.7153C280.308 71.0766 277.084 72.6478 272.441 72.5712V74.219C275.582 74.8923 279.03 74.8159 281.728 73.5404ZM198 73.3212V102.932L189.086 103.688V105.856H210.281V103.759L201.745 103.009V80.1259C204.815 74.9635 210.21 71.0766 216.114 71.0766C222.041 71.0766 225.336 74.9635 225.336 80.9525V103.009L216.641 103.759V105.856H237.096V103.688L229.08 102.932V80.5803C229.08 73.7701 225.785 67.8631 216.871 67.8631C210.5 67.8631 204.925 71.4434 201.674 76.3868V68.312L199.568 67.7153C196.504 71.0766 192.452 72.6478 187.589 72.5712V74.219C191.186 74.8923 195.001 74.8157 198 73.3212ZM276.788 165.828C274.913 171.144 270.275 174.204 264.502 174.204C256.043 174.204 251.021 167.777 251.021 157.606C251.021 147.659 256.646 140.777 265.259 140.777C270.275 140.777 274.612 143.323 276.788 147.511V165.828ZM264.804 137.783C254.321 137.783 247.282 145.934 247.282 157.748C247.282 169.348 253.488 177.199 263.91 177.199C269.595 177.199 274.414 174.544 276.865 170.016L276.936 176.449L277.161 176.596L288.992 175.474V173.459H280.533V119.613L278.51 119.016C275.231 123.215 271.246 125.449 266.607 125.372V127.02C270.176 127.803 274.316 127.024 276.788 125.301V143.542C274.085 139.879 269.891 137.783 264.804 137.783ZM249.749 105.106L257.238 105.773C266.004 106.567 268.702 109.069 268.702 112.359C268.702 116.919 264.053 120.434 254.694 120.434C246.306 120.434 241.514 117.067 241.514 112.584C241.514 109.217 244.365 106.003 249.749 105.106ZM243.609 81.8501C243.609 75.7899 248.175 70.7753 254.996 70.7753C261.58 70.7753 266.081 75.7899 266.081 81.9979C266.081 87.8337 261.81 92.914 254.765 92.914C248.4 92.914 243.609 87.9048 243.609 81.8501ZM238.066 112.814C238.066 118.567 243.537 123.357 254.612 123.357C266.224 123.357 272.293 118.496 272.293 112.058C272.293 104.958 263.976 103.075 255.812 102.412C249.749 101.892 244.129 101.668 244.129 98.6731C244.129 97.1785 245.632 95.7552 252.298 95.7552H254.765C263.757 95.7552 269.524 89.6238 269.524 81.6968C269.524 78.1056 268.175 74.7443 265.851 72.2753C266.377 65.4706 272.369 68.8374 272.369 65.3228C272.369 63.8228 271.476 63.0783 269.968 63.0783C266.52 63.0783 263.91 66.5107 263.46 70.2607C261.213 68.7607 258.444 67.8629 255.22 67.8629C246.081 67.8629 240.166 73.9943 240.166 81.6968C240.166 87.3081 243.011 91.5672 247.123 93.8118C243.088 94.1897 240.911 96.2862 240.911 99.122C240.911 101.142 242.189 103.085 245.549 104.208C241.213 105.33 238.066 108.845 238.066 112.814ZM184.815 168.149C182.195 171.067 177.025 174.204 171.487 174.204C167.063 174.204 163.401 172.113 163.401 167.854C163.401 162.543 167.968 157.605 184.815 157.304V168.149ZM159.728 167.854C159.728 173.459 164.07 177.198 170.89 177.198C177.025 177.198 182.008 174.166 185.045 171.144C185.698 174.406 188.039 176.082 191.262 176.082C194.782 176.082 197.101 174.204 197.852 170.317L196.131 169.573C195.522 171.888 194.404 173.158 192.386 173.158C189.76 173.158 188.56 171.817 188.56 167.032V150.801C188.56 143.323 185.49 137.782 175.528 137.782C169.689 137.782 166.317 139.507 163.998 141.598C161.975 143.47 161.372 145.189 161.372 146.235C161.372 147.511 162.271 148.408 163.62 148.408C165.418 148.408 165.643 146.684 166.69 144.74C167.968 142.501 169.908 140.777 175.232 140.777C181.219 140.777 184.815 143.99 184.815 150.428V154.611C168.79 154.764 159.728 159.324 159.728 167.854ZM335.434 60.3082C337.226 60.3082 338.723 58.8848 338.723 57.0892C338.723 55.2991 337.226 53.8757 335.434 53.8757C333.63 53.8757 332.205 55.2991 332.205 57.0892C332.205 58.8848 333.63 60.3082 335.434 60.3082ZM169.464 70.852C175.528 70.852 181.668 74.8155 181.899 84.0125H155.912C157.03 76.0144 162.123 70.852 169.464 70.852ZM170.215 107.35C178.373 107.35 183.094 103.534 184.963 97.7753L182.644 96.9541C180.533 101.777 176.767 104.356 170.66 104.356C161.224 104.356 155.682 97.8519 155.682 87.6804V86.9359H185.413C185.49 86.4103 185.49 85.2169 185.49 84.5381C185.49 76.31 180.325 67.8629 169.541 67.8629C158.977 67.8629 152.014 75.9377 152.014 87.6038C152.014 99.2698 159.059 107.35 170.215 107.35Z" fill="#06182E"/>
<path d="M51.8057 245.626H55.7695V149.823V54.1299H51.8057V149.911V245.626Z" fill="#06182E"/>
<path d="M445.225 245.626H449.194V149.823V54.1299H445.225V149.911V245.626Z" fill="#06182E"/>
</svg>
