<svg width="500" height="300" viewBox="0 0 500 300" fill="none" xmlns="http://www.w3.org/2000/svg">
<rect width="500" height="300" fill="white"/>
<g clip-path="url(#clip0_834_365)">
<mask id="mask0_834_365" style="mask-type:luminance" maskUnits="userSpaceOnUse" x="-1214" y="-27" width="1810" height="2563">
<path d="M-1213.29 2535.89H595.205V-26.6261H-1213.29V2535.89Z" fill="white"/>
</mask>
<g mask="url(#mask0_834_365)">
<mask id="mask1_834_365" style="mask-type:luminance" maskUnits="userSpaceOnUse" x="103" y="67" width="307" height="159">
<path d="M103.709 225.823H409.616V67.6565H103.709V225.823Z" fill="white"/>
</mask>
<g mask="url(#mask1_834_365)">
<path d="M257.781 185.527L265.712 166.944L273.641 185.527H257.781ZM270.82 143.122C270.66 142.754 270.199 142.455 269.801 142.455H260.134C259.733 142.455 259.279 142.758 259.124 143.124L226.293 221.084H241.882C242.28 221.084 242.736 220.782 242.894 220.414L252.009 199.055H279.413L288.528 220.414C288.685 220.782 289.139 221.084 289.54 221.084H305.15L270.82 143.122ZM229.138 199.854C229.138 206.085 226.587 211.765 221.951 215.844C217.395 219.859 211.096 222.069 204.215 222.069C194.98 222.069 187.33 219.766 180.136 214.823L179.293 214.247V196.69C179.293 196.288 179.62 195.963 180.021 195.963C180.255 195.963 180.461 196.073 180.594 196.243C183.518 200.078 191.29 208.541 202.892 208.541C211.213 208.541 214.311 203.952 214.311 201.056C214.311 195.023 207.418 191.228 199.441 186.833C189.772 181.51 178.814 175.474 178.814 163.357C178.814 156.788 181.423 151.238 186.359 147.304C191.144 143.488 197.818 141.469 205.659 141.469C212.313 141.469 218.985 143.385 224.956 147.01L225.89 147.577V163.331C225.89 163.733 225.565 164.058 225.162 164.058C225.004 164.058 224.856 164.005 224.737 163.917C221.939 161.27 214.297 154.997 204.697 154.997C198.188 154.997 193.641 157.85 193.641 161.932C193.641 167.025 199.835 170.211 207.012 173.903C216.87 178.972 229.138 185.283 229.138 199.854ZM144.579 171.581C142.283 173.927 138.297 175.115 132.728 175.115H127.086V155.545H132.728C145.3 155.545 146.847 160.899 146.916 164.931C146.968 167.705 146.183 169.943 144.579 171.581ZM177.176 216.535C172.379 210.495 170.393 207.994 167.187 203.261L166.92 202.864C161.655 195.028 157.349 188.612 151.298 184.013C158.841 180.175 162.944 173.652 162.944 165.33C162.944 158.364 160.177 152.539 154.943 148.478C149.864 144.538 142.639 142.455 134.053 142.455H111.418V221.084H126.119C126.651 221.084 127.086 220.646 127.086 220.113V188.643H130.081C135.182 188.643 139.614 189.81 150.279 204.918L161.127 220.29C161.435 220.725 162.122 221.084 162.655 221.084H180.788L177.176 216.535Z" fill="#06182E"/>
<mask id="mask2_834_365" style="mask-type:luminance" maskUnits="userSpaceOnUse" x="111" y="78" width="278" height="145">
<path d="M111.418 222.069H388.139V78.934H111.418V222.069Z" fill="white"/>
</mask>
<g mask="url(#mask2_834_365)">
<path d="M312.351 165.277C312.141 165.629 312.244 166.11 312.583 166.344L313.21 166.781C313.549 167.016 314.046 166.954 314.315 166.643L316.046 164.648C315.344 163.952 314.673 163.226 314.031 162.472L312.351 165.277ZM320.975 170.278C320.841 170.667 321.042 171.114 321.421 171.275L322.004 171.516C322.381 171.676 322.856 171.509 323.054 171.15L323.5 170.337C322.786 169.928 322.087 169.491 321.404 169.032L320.975 170.278ZM304.966 158.574C304.685 158.876 304.687 159.366 304.969 159.667L305.584 160.323C305.866 160.624 306.367 160.667 306.694 160.418L310.504 157.553C309.897 156.532 309.341 155.482 308.835 154.399L304.966 158.574ZM375.013 112.884C374.965 112.525 374.653 112.307 374.28 112.391L371.49 113.022L374.825 110.669C374.6 108.725 374.218 106.831 373.7 105.002C373.586 104.624 373.206 104.452 372.844 104.621L367.533 107.085L372.569 101.656C371.951 100.088 371.228 98.5762 370.404 97.1295C370.208 96.7731 369.781 96.6823 369.454 96.9286L362.489 102.17L367.846 93.2387C366.96 92.0598 365.998 90.9431 364.976 89.8862C364.692 89.6303 364.275 89.6519 364.017 89.946L356.611 98.4806L360.845 86.2274C359.826 85.455 358.761 84.7377 357.663 84.0753C357.317 83.8768 356.878 83.9963 356.685 84.3503L350.188 96.1346L351.956 82.0617C352.006 81.6599 351.741 81.2248 351.367 81.0813C350.529 80.7776 349.674 80.5074 348.81 80.2659C348.414 80.1535 347.992 80.383 347.872 80.7776L343.511 95.2139L343.507 95.2212L342.22 79.6823C342.184 79.271 341.822 78.9364 341.409 78.9364H339.024C338.611 78.9364 338.248 79.271 338.215 79.6823L336.886 95.7185L332.284 80.3137C332.164 79.9192 331.739 79.6657 331.336 79.7518L329.138 80.2205C328.734 80.3066 328.448 80.7106 328.501 81.1195L330.618 97.5718L322.701 83.0135C322.505 82.6524 322.037 82.4946 321.66 82.662L319.726 83.5228C319.354 83.6902 319.158 84.1447 319.294 84.5344L324.968 100.654L313.895 87.6646C313.628 87.3537 313.139 87.2939 312.805 87.5354L311.203 88.7025C310.871 88.944 310.776 89.4294 310.988 89.7809L320.173 104.791L306.257 94.059C305.933 93.8079 305.441 93.8533 305.167 94.1594L303.93 95.5321C303.653 95.8382 303.663 96.3331 303.947 96.632L316.418 109.76L300.126 101.912C299.753 101.733 299.281 101.881 299.078 102.237L298.221 103.72C298.016 104.076 298.128 104.559 298.464 104.791L313.84 115.311L295.767 110.88C295.371 110.779 294.939 111.021 294.812 111.413L294.325 112.912C294.197 113.302 294.404 113.752 294.786 113.909L310.745 120.447C316.418 111.183 326.204 104.617 337.79 103.486C338.606 103.4 339.43 103.356 340.27 103.356C353.317 103.356 363.893 113.95 363.893 127.023C363.893 139.437 354.355 149.614 342.22 150.609C354.668 149.576 365.098 142.28 370.683 132.069C373.791 126.385 375.398 119.797 375.013 112.884ZM306.04 145.597L299.145 150.468C298.808 150.705 298.708 151.188 298.92 151.539L299.457 152.424C299.672 152.778 300.149 152.924 300.524 152.752L307.04 149.729C306.627 148.385 306.296 147.008 306.04 145.597ZM293.063 123.589L307.871 126.249C308.563 124.462 309.394 122.743 310.351 121.102L293.38 120.557C292.972 120.545 292.602 120.868 292.559 121.279L292.406 122.712C292.364 123.123 292.659 123.518 293.063 123.589ZM307.248 127.999L293.07 130.522C292.667 130.596 292.371 130.988 292.411 131.399L292.55 132.698C292.593 133.109 292.963 133.432 293.376 133.418L306 132.994C306.296 131.287 306.716 129.62 307.248 127.999ZM305.541 136.849L295.156 141.319C294.779 141.484 294.581 141.936 294.717 142.323L295.101 143.43C295.237 143.818 295.677 144.062 296.078 143.971L305.563 141.811C305.441 140.137 305.439 138.48 305.541 136.849Z" fill="#06182E"/>
<path d="M385.754 140.137L369.798 133.599C364.139 142.837 354.386 149.394 342.841 150.552V150.549C341.993 150.64 341.136 150.69 340.27 150.69C327.223 150.69 316.647 140.094 316.647 127.023C316.647 114.789 325.911 104.727 337.79 103.486C318.461 105.375 304.14 122.384 305.563 141.811L309.05 141.022L306.324 142.945C306.315 142.95 306.305 142.957 306.296 142.962C305.961 143.198 305.739 143.727 305.806 144.131L305.804 144.136L305.811 144.14C306.076 146.061 306.489 147.926 307.04 149.729L313.005 146.962L308.46 151.86C308.179 152.161 308.088 152.716 308.255 153.091C308.255 153.091 308.253 153.091 308.253 153.094C308.902 154.641 309.656 156.128 310.503 157.553L318.048 151.874L313.053 160.203C312.857 160.557 312.897 161.09 313.15 161.403C314.05 162.544 315.017 163.63 316.046 164.651L323.927 155.564L319.905 167.207C319.819 167.585 319.984 168.042 320.294 168.264C321.326 169.01 322.395 169.704 323.5 170.337L330.345 157.924L328.579 171.983C328.529 172.384 328.789 172.817 329.166 172.963C330.006 173.264 330.861 173.537 331.727 173.778H331.732C332.126 173.891 332.548 173.661 332.668 173.267L337.017 158.849C337.026 158.833 337.033 158.823 337.033 158.823L338.32 174.364C338.353 174.773 338.718 175.11 339.131 175.11H341.516C341.924 175.11 342.289 174.773 342.323 174.364L343.652 158.326L348.256 173.731C348.373 174.125 348.798 174.379 349.202 174.293L351.402 173.824C351.803 173.738 352.092 173.334 352.037 172.927L349.92 156.472L357.837 171.031C358.035 171.392 358.503 171.552 358.878 171.382L360.811 170.521C361.184 170.354 361.382 169.9 361.243 169.512L355.572 153.39L366.645 166.38C366.912 166.693 367.401 166.75 367.733 166.509L369.335 165.344C369.669 165.1 369.764 164.615 369.552 164.266L360.367 149.253L374.28 159.985C374.607 160.239 375.099 160.193 375.376 159.885L376.607 158.512C376.884 158.206 376.877 157.711 376.593 157.412L364.119 144.286L380.412 152.132C380.784 152.311 381.257 152.166 381.462 151.809L382.319 150.324C382.522 149.968 382.412 149.485 382.073 149.253L366.7 138.736L384.773 143.167C385.169 143.265 385.601 143.026 385.728 142.634L386.215 141.132C386.341 140.742 386.133 140.293 385.754 140.137ZM387.475 130.455L372.669 127.796C371.979 129.582 371.149 131.301 370.192 132.942L387.157 133.487C387.568 133.501 387.938 133.176 387.983 132.767L388.134 131.332C388.177 130.924 387.878 130.527 387.475 130.455ZM361.396 84.6324C361.53 84.2426 361.336 83.7811 360.964 83.6089L360.396 83.3411C360.024 83.1666 359.556 83.3172 359.358 83.6783L358.766 84.7639C359.477 85.2254 360.169 85.7156 360.845 86.2274L361.396 84.6324ZM373.297 126.045L387.468 123.522C387.873 123.451 388.169 123.054 388.127 122.645L387.99 121.349C387.947 120.937 387.575 120.612 387.165 120.627L374.543 121.05C374.244 122.757 373.827 124.426 373.297 126.045ZM374.779 119.479L385.962 114.665C386.339 114.502 386.551 114.048 386.432 113.653L386.093 112.532C385.973 112.137 385.549 111.891 385.148 111.982L375.066 114.285C375.097 116.042 374.999 117.779 374.779 119.479ZM376.889 97.0074C377.168 96.7061 377.178 96.204 376.908 95.8907L376.319 95.2116C376.049 94.8983 375.562 94.8482 375.235 95.0969L371.029 98.2749C371.6 99.3701 372.113 100.496 372.571 101.656L376.889 97.0074ZM374.827 110.669L382.36 105.353C382.696 105.117 382.809 104.626 382.608 104.268L382.112 103.359C381.911 102.998 381.443 102.845 381.071 103.019L374.042 106.295C374.39 107.718 374.653 109.179 374.827 110.669ZM367.85 93.2436C367.232 92.4233 366.58 91.6295 365.893 90.869L367.891 88.5565C368.16 88.2456 368.65 88.1931 368.977 88.4418L369.585 88.9056C369.915 89.1519 370.01 89.6446 369.795 89.9985L367.85 93.2436Z" fill="#06182E"/>
</g>
</g>
</g>
</g>
<defs>
<clipPath id="clip0_834_365">
<rect width="284" height="148" fill="white" transform="translate(108 76)"/>
</clipPath>
</defs>
</svg>
