<svg width="500" height="300" viewBox="0 0 500 300" fill="none" xmlns="http://www.w3.org/2000/svg">
<rect width="500" height="300" fill="white"/>
<path d="M393.786 91.5913C363.9 91.5913 344.385 112.139 344.385 146.112C344.385 188.303 374.271 200.358 395.696 200.358C411.799 200.358 427.083 193.782 438.137 182.139L424.354 168.303C416.985 174.878 408.524 178.851 395.969 178.851C379.32 178.851 368.13 169.125 368.13 155.7H442.368C442.231 155.563 455.195 91.5913 393.786 91.5913ZM368.13 137.344C368.13 119.262 381.777 110.632 396.379 110.632C410.981 110.632 424.218 119.536 424.218 137.344H368.13Z" fill="#06182E"/>
<path d="M120.445 135.563C110.892 134.33 83.4629 135.427 83.4629 122.824C83.4629 115.427 95.0624 111.317 105.57 111.317C116.76 111.18 127.678 114.331 136.957 120.358L151.286 106.111C147.056 102.687 131.362 91.5911 105.57 91.5911C82.0982 91.5911 60.946 103.92 60.946 123.646C60.946 153.919 97.3823 153.919 112.53 155.426C121.81 156.385 130.134 156.933 130.134 165.974C130.134 174.467 117.306 179.125 107.344 179.125C91.1049 179.125 81.4159 173.782 71.8633 165.152L56.5791 180.632C69.8163 193.508 87.6933 200.494 106.116 200.357C133.409 200.357 153.197 188.303 153.197 164.056C153.197 148.029 142.416 138.44 120.445 135.563Z" fill="#06182E"/>
<path d="M198.776 91.5913C183.628 91.4541 168.754 96.6597 156.881 106.112L171.21 120.495C179.262 114.468 188.951 111.317 198.913 111.454C217.063 111.454 222.521 118.714 222.521 126.933V137.207H190.179C178.17 137.207 154.698 140.221 154.698 166.659C154.698 186.111 165.751 200.358 192.226 200.358C205.463 200.358 215.561 196.111 222.521 187.755V198.303H245.993V128.577C245.993 104.194 231.119 91.5913 198.776 91.5913ZM222.658 160.221C222.658 180.358 208.329 179.262 195.637 179.262C182.946 179.262 174.485 175.837 174.485 166.796C174.485 158.44 181.172 155.563 195.092 155.563H222.658V160.221Z" fill="#06182E"/>
<path d="M318.457 93.7831V105.427C310.405 96.2488 300.853 91.5913 287.888 91.5913C265.644 91.5913 254.181 104.057 250.36 117.482C248.859 122.413 248.45 131.865 248.45 145.838C248.45 158.988 248.586 171.043 253.09 180.221C259.503 193.097 274.924 200.358 287.888 200.358C300.443 200.358 311.087 195.426 318.457 186.933V193.508C318.457 201.18 315.864 206.248 310.951 210.221C306.038 214.193 299.897 216.659 291.3 216.659C283.521 216.659 276.152 212.412 271.922 209.399L256.092 225.289C266.327 233.645 278.472 239.261 291.709 239.398C304.401 239.672 316.819 235.563 326.781 227.481C336.197 220.084 342.202 205.974 342.202 191.18V93.7831H318.457ZM318.457 145.838C318.457 153.92 318.32 159.947 317.638 163.098C316.137 169.81 308.495 178.714 294.575 178.714C291.027 178.714 273.286 176.659 271.239 161.18C270.694 156.111 270.421 150.906 270.557 145.838C270.557 133.783 271.103 129.947 271.649 126.934C272.877 120.906 280.792 111.865 294.575 111.865C311.36 111.865 316.819 123.372 317.638 127.892C318.32 133.783 318.593 139.81 318.457 145.838Z" fill="#06182E"/>
</svg>
