<svg width="500" height="300" viewBox="0 0 500 300" fill="none" xmlns="http://www.w3.org/2000/svg">
<rect width="500" height="300" fill="white"/>
<path d="M242.664 97.1128C242.664 97.1128 238.786 97.1944 236.539 97.1562C236.446 98.1037 235.363 106.689 234.431 113.596C233.36 119.987 224.871 167.394 221.995 181.585C221.238 185.87 218.898 197.976 218.676 199.185C215.975 199.509 212.784 199.809 210.7 199.89C210.421 199.899 209.955 199.99 209.734 199.99V202.448C209.99 202.438 211.34 202.542 212.295 202.501C214.589 202.427 221.098 202.117 222.333 202.117C227.014 202.117 230.134 202.428 234.466 202.515C234.524 202.515 235.712 202.51 236.236 202.443V199.96C235.875 199.96 235.398 199.948 235.118 199.948C233.895 199.987 229.389 199.639 227.107 199.327C227.375 197.703 231.357 173.151 233.267 163.332C236.9 145.159 239.415 132.279 239.415 132.279L240.09 133.878L268.793 202.608L274.033 202.635C274.033 202.635 277.026 195.193 280.577 186.845C280.671 186.647 280.927 186.049 281.288 185.195C285.014 176.527 303.482 132.533 303.482 132.533C303.482 132.533 303.656 133.325 303.948 134.742C305.706 143.365 311.656 174.44 312.925 181.937C313.519 185.794 314.078 189.706 314.404 191.998C314.882 195.243 315.196 198.419 315.196 199.332C314.614 199.359 308.768 199.89 306.556 199.986C306.241 199.975 305.648 200.004 305.613 200.01V202.51C306.404 202.51 307.173 202.545 307.942 202.528C312.459 202.441 316.803 202.085 321.321 202.088C326.398 202.092 334.63 202.538 339.905 202.572C340.499 202.572 341.559 202.519 341.559 202.519V199.994C341.256 199.991 339.928 199.926 339.439 199.887C337.076 199.701 333.093 199.33 332.08 199.263C332.08 199.263 331.428 195.633 330.566 191.44C327.12 174.668 317.304 123.688 315.801 111.144C315.289 106.832 313.834 97.1515 313.834 97.1515L307.93 97.1497C307.93 97.1497 304.914 105.843 302.166 113.769C300.291 119.186 297.741 125.873 295.797 131C286.202 156.334 275.442 179.941 275.442 179.941C275.442 179.941 252.573 125.12 251.362 121.95C250.139 118.779 242.664 97.1128 242.664 97.1128ZM78.2694 97.1356L78.3195 102.93L78.2217 117.04L79.7432 116.997L79.9024 104.447C79.9024 104.447 88.2457 104.375 89.3247 104.376L104.883 104.383L114.924 104.433L114.94 191.711L114.942 199.249L114.73 199.278C113.394 199.383 108.25 199.698 106.161 199.774C105.693 199.79 105.394 199.801 105.343 199.795L105.352 202.349C105.729 202.368 106.746 202.393 106.88 202.388C111.822 202.323 118.509 201.892 123.25 201.896C128.068 201.899 134.847 202.369 139.042 202.418C139.458 202.421 139.951 202.38 140.35 202.38V199.985L139.83 199.99C138.493 199.984 131.1 199.505 130.335 199.405C130.303 198.234 130.166 192.581 130.166 192.456L130.202 104.424L137.847 104.403L157.792 104.417L164.449 104.509C164.493 104.986 164.83 111.343 164.824 111.516C164.809 111.979 165.073 116.714 165.063 117.879L166.641 117.898L166.528 103.626L166.6 97.2062C160.738 97.3664 145.8 97.5681 122.616 97.5558C102.733 97.5436 83.5722 97.3763 78.2694 97.1356ZM171.128 97.1585L171.152 99.6582C171.94 99.7011 176.567 100.112 177.692 100.168C178.59 100.278 179.843 100.391 180.739 100.478C180.739 101.279 180.753 106.801 180.766 108.981C180.916 129.639 180.788 175.295 180.728 191.449C180.709 196.12 180.696 199.13 180.696 199.13C180.129 199.301 178.853 199.365 177.473 199.459C176.293 199.54 172.067 199.896 171.123 199.916V202.416C171.515 202.416 172.232 202.499 172.641 202.496C177.425 202.497 184.078 201.9 188.979 201.904C193.932 201.907 200.546 202.513 204.447 202.514L204.435 202.517C204.773 202.521 205.576 202.433 205.914 202.434V199.935H205.576C205.425 199.902 200.395 199.689 199.172 199.562C198.532 199.521 195.76 199.28 195.725 199.187C195.714 199.138 195.702 198.391 195.702 197.145C195.714 195.962 195.714 193.996 195.714 191.864C195.725 175.57 195.772 127.175 195.784 108.676C195.784 105.101 195.795 102.196 195.795 100.638C196.878 100.569 201.303 100.105 202.887 99.9643C202.957 99.9574 205.053 99.8362 205.914 99.7838V97.1791C200.5 97.1771 193.335 97.6022 188.051 97.5995C182.524 97.5961 175.716 97.1605 171.128 97.1585ZM421.713 97.2293C421.713 97.2293 421.143 97.2318 420.083 97.2339C416.462 97.2496 407.193 97.3179 396.352 97.3778C389.691 97.4166 384.486 97.4703 377.628 97.4669C372.819 97.5236 366.088 97.7098 361.931 97.7023C355.294 97.6914 349.88 97.2805 346.934 97.2682C345.536 97.262 344.756 97.3149 344.372 97.291C344.395 97.3264 344.395 99.7586 344.395 99.7586C344.651 99.8036 345.164 99.8609 345.641 99.85C347.306 99.9625 350.427 100.216 352.011 100.426C352.325 100.484 352.861 100.572 354.351 100.739C354.339 101.292 354.421 107.555 354.409 111.318C354.409 114.804 354.374 192.586 354.374 192.586C354.374 192.712 354.2 198.841 354.2 199.336C351.568 199.789 346.514 200.067 344.791 200.074H344.279V202.548C344.523 202.547 345.653 202.592 346.293 202.592C349.076 202.59 356.249 202.146 363.573 202.141C368.708 202.137 374.356 202.33 380.073 202.411C387.118 202.51 394.244 202.514 400.649 202.606C411.21 202.755 419.769 202.768 422.552 202.772C422.552 202.772 422.889 183.092 422.889 181.505L421.364 181.523C421.364 183.197 420.747 189.431 420.723 189.704C420.526 192.05 420.316 194.509 420.153 195.721C420.153 195.721 419.408 195.781 419.047 195.774C417.312 195.741 411.769 195.943 411.653 195.943L386.932 195.954L369.57 195.662L369.454 190.823L369.442 153.257C372.539 153.152 377.267 152.987 380.143 152.993C382.588 152.998 388.352 152.86 391.578 152.867C399.414 152.881 406.378 152.931 406.937 152.947C408.229 152.985 410.628 153.064 411.536 153.121C411.571 153.452 411.676 153.969 411.688 154.115C412.153 156.992 412.409 158.984 412.724 161.808C412.77 162.062 412.794 162.307 412.829 162.539H414.61C414.61 162.539 414.657 161.529 414.634 160.901C414.599 158.687 414.459 154.269 414.459 149.374C414.447 145.98 414.645 140.792 414.668 138.297C414.68 137.622 414.599 137.142 414.599 136.949L412.968 136.98C412.957 137.52 412.829 138.315 412.829 138.315C412.689 140.175 412.165 142.552 411.746 145.06C411.629 145.373 411.548 145.809 411.548 145.809C411.361 145.872 406.25 146.146 405.795 146.143C405.621 146.141 398.18 146.351 398.052 146.351L369.454 146.243L369.5 104.819C369.5 104.82 373.133 104.691 374.146 104.696C378.268 104.697 384.975 104.659 391.811 104.669C401.813 104.681 411.524 104.744 411.548 104.758C411.606 104.786 414.564 104.828 414.622 104.879C414.692 104.935 418.395 105.046 419.303 105.075C419.303 105.075 419.373 105.384 419.419 105.772C419.827 110.14 420.165 115.327 420.316 117.165L420.328 117.9L421.853 117.896C421.853 115.206 421.713 106.97 421.69 101.73C421.678 100.047 421.713 98.6763 421.713 97.8965V97.2293Z" fill="#06182E"/>
</svg>
