<svg width="500" height="300" viewBox="0 0 500 300" fill="none" xmlns="http://www.w3.org/2000/svg">
<rect width="500" height="300" fill="white"/>
<mask id="mask0_834_397" style="mask-type:luminance" maskUnits="userSpaceOnUse" x="22" y="97" width="457" height="107">
<path d="M22.6938 203.308H478.306V97.6946H22.6938V203.308Z" fill="white"/>
</mask>
<g mask="url(#mask0_834_397)">
<path d="M79.4252 191.033H83.5019V173.486C83.5019 159.707 92.0664 152.315 101.882 152.315H102.302V148.02C93.9035 147.689 86.9315 152.648 83.5019 160.208V148.422H79.4252V191.033ZM416.741 181.156C414.647 183.478 409.873 187.732 402.575 187.732C392.909 187.732 385.322 179.647 385.322 169.505V169.338C385.322 159.274 392.659 151.271 402.245 151.271C406.724 151.271 411.694 152.807 416.683 157.724L419.22 154.948C416.51 151.75 410.735 147.485 402.328 147.485C389.703 147.485 380.942 157.71 380.942 169.505V169.669C380.942 181.464 389.718 191.521 402.328 191.521C411.16 191.521 417.306 186.568 419.371 183.556L416.741 181.156ZM120.06 184.001C111.444 184.001 104.066 177.16 104.066 167.788V167.624C104.066 157.745 111.364 151.601 120.032 151.601C128.625 151.601 136.785 157.907 136.785 167.702V167.871C136.785 177.499 128.647 184.001 120.06 184.001ZM120.601 203.307C126.68 203.307 132.023 201.317 135.586 197.661C138.914 194.253 140.796 189.632 140.796 181.89V148.422H136.835V157.083C134.613 152.327 127.893 147.694 119.628 147.694C109.655 147.694 99.774 155.581 99.774 167.788V167.96C99.774 180.082 109.655 187.881 119.628 187.881C127.808 187.881 134.506 183.059 136.835 178.08V181.985C136.835 193.595 130.706 199.488 120.683 199.488C113.808 199.488 108.831 196.991 103.969 193.551L101.641 196.826C104.381 199.187 111.406 203.307 120.601 203.307ZM345.062 191.033H349.139V166.114C349.139 153.792 342.783 147.689 332.405 147.689C321.546 147.689 317.27 155.883 316.865 156.915V148.422H312.792V191.033H316.865V170.301C316.865 157.164 323.624 151.423 331.824 151.423C344.927 151.423 345.062 163.258 345.062 168.483V191.033ZM187.669 191.033H191.749V166.114C191.749 153.792 185.391 147.689 175.012 147.689C164.153 147.689 159.873 155.883 159.472 156.915V148.422H155.404V191.033H159.472V170.301C159.472 157.164 166.233 151.423 174.44 151.423C187.535 151.423 187.669 163.258 187.669 168.483V191.033ZM288.11 188.298C295.628 188.298 303.631 184.079 303.631 174.063V168.395H291.444C281.244 168.395 276.112 171.01 276.112 178.447V178.438C276.112 184.19 281.185 188.298 288.11 188.298ZM303.558 164.747V164.163C303.558 155.484 298.234 151.795 289.751 151.795C285.274 151.795 281.07 152.913 276.605 155.086L275.134 151.771C279.656 149.475 284.977 147.994 290.317 147.994C295.856 147.994 300.324 149.357 303.301 152.327C306.557 155.581 307.477 159.795 307.477 164.108V191.033H303.558V184.28C302.724 185.991 297.498 191.951 287.746 191.951C279.542 191.951 271.944 187.114 271.944 178.672V178.514C271.944 164.776 286.597 164.747 290.936 164.747H303.558ZM222.536 188.298C230.054 188.298 238.053 184.079 238.053 174.063V168.395H225.863C215.665 168.395 210.538 171.01 210.538 178.447V178.438C210.538 184.19 215.613 188.298 222.536 188.298ZM237.977 164.747V164.163C237.977 155.484 232.657 151.795 224.172 151.795C219.703 151.795 215.496 152.913 211.028 155.086L209.557 151.771C214.076 149.475 219.4 147.994 224.736 147.994C230.285 147.994 234.747 149.357 237.722 152.327C240.982 155.581 241.899 159.795 241.899 164.108V191.033H237.977V184.28C237.141 185.991 231.918 191.951 222.175 191.951C213.965 191.951 206.366 187.114 206.366 178.672V178.514C206.366 164.776 221.016 164.747 225.352 164.747H237.977ZM358.262 191.04V152.164H366.783V148.432H358.262V137.799H354.197V148.434V152.171V191.04H358.262ZM250.887 191.04V152.164H259.401V148.422H250.887V137.799H246.807V148.434V152.171V191.04H250.887ZM370.898 191.04H374.975V148.434H370.898V191.04ZM262.682 191.04H266.755V137.808H262.682V191.04ZM146.092 191.033H150.169V148.432H146.092V191.033ZM146.092 142.689H150.169V137.806H146.092V142.689ZM69.8094 191.033H73.8861V148.432H69.8094V191.033ZM42.4453 191.033H46.2098L65.6443 148.432H61.1252L44.4299 186.102L27.5125 148.432H22.6934L42.4453 191.033ZM370.898 142.689H374.975V137.806H370.898V142.689ZM69.8094 137.808H73.8861V142.69H69.8094V137.808Z" fill="#06182E"/>
</g>
<path d="M455 150L478 97.9999C447.5 97.9998 439.5 96 432.5 101.5L402.5 134.5C405.5 135 408 133.5 419 138.5C426.152 141.751 432 147.158 437 149C446.5 152.5 451 151 455 150Z" fill="#06182E"/>
<path d="M466.207 119.125C465.98 118.732 465.39 118.46 464.341 118.914C463.225 119.399 462.765 119.61 462.731 119.624C462.698 119.638 461.367 120.329 461.501 118.524L461.922 114.269C461.922 114.269 462.089 112.719 460.876 112.729C460.876 112.729 460.234 112.653 459.197 113.562C459.197 113.562 458.692 114.033 458.302 114.132C458.08 114.188 457.818 114.213 457.44 114.085C457.062 113.959 456.723 114.016 456.458 114.097C456.458 114.097 455.294 114.404 455.209 115.992L454.742 119.763C454.742 119.763 454.494 121.24 454.624 121.514C454.624 121.514 454.746 122.109 455.816 121.737C455.816 121.737 456.723 121.479 456.826 119.934C456.826 119.934 457.086 116.903 457.518 116.314C457.518 116.314 458.026 115.362 458.763 114.95C458.763 114.95 459.808 114.44 459.794 115.296L459.417 118.756C459.417 118.756 459.053 120.471 459.823 120.731C459.823 120.731 459.907 120.771 459.714 120.875C459.714 120.875 454.718 123 448.285 126.568C448.728 122.939 449.482 117.875 449.482 117.875C449.592 117.054 448.586 117.054 448.586 117.054C447.597 117.016 447.461 118.171 447.378 118.675C447.291 119.181 446.551 123.279 446.551 123.279C446.211 125.144 445.102 125.061 445.102 125.061C444.009 125.18 444.66 122.227 444.66 122.227C444.953 121.174 445.057 120.279 445.89 119.577C446.707 118.881 446.785 117.982 446.167 117.955C445.144 117.913 444.094 119.011 444.094 119.011C442.268 120.816 442.271 125.166 442.271 125.166C442.236 126.549 443.17 126.957 443.17 126.957C444.33 127.492 445.924 126.559 445.924 126.559C446.299 126.31 446.245 126.659 446.245 126.659L446.164 127.768C441.447 130.487 436.205 133.883 431.682 137.718C431.682 137.718 429.606 139.24 430.379 140.241C431.203 141.305 432.343 140.335 432.813 139.902C432.813 139.902 437.448 135.155 446.008 129.846L445.732 133.417C445.61 135.025 445.092 140.009 445.092 140.009C444.852 141.961 445.168 142.346 445.284 142.495C445.456 142.708 446.219 143.357 447.081 142.803C448.136 142.124 447.612 140.494 447.437 139.73C447.26 138.961 447.284 137.701 447.284 137.701C447.364 136.674 447.959 129.735 447.959 129.735C447.97 129.467 448.003 129.082 448.049 128.611C451.328 126.689 455.091 124.735 459.301 122.948C459.301 122.948 461.123 122.226 462.674 121.737C462.674 121.737 463.185 121.545 463.841 121.354C464.717 121.096 465.848 120.712 466.179 120.227C466.375 119.943 466.445 119.538 466.207 119.125ZM454.093 113.157C454.093 113.157 455.061 112.357 454.619 111.77C454.619 111.77 454.208 111.158 453.061 111.969C453.061 111.969 452.034 112.809 452.664 113.403C452.664 113.403 453.261 113.966 454.093 113.157ZM451.325 123.398C451.325 123.398 452.482 123.15 452.686 121.838C452.686 121.838 453.372 116.945 453.403 116.779C453.431 116.612 453.731 115.327 452.825 115.528C452.825 115.528 451.717 115.745 451.516 116.839L450.652 121.652L450.494 122.629C450.494 122.629 450.265 123.67 451.325 123.398ZM436.499 118.933C437.389 118.221 437.127 117.631 437.127 117.631C436.794 116.675 435.585 117.693 435.585 117.693C434.565 118.424 434.921 119.131 434.921 119.131C435.367 119.896 436.499 118.933 436.499 118.933ZM437.624 122.596C437.624 122.596 437.179 125.79 437.108 126.502C437.108 126.502 436.515 129.195 437.965 128.71C437.965 128.71 439.133 128.388 439.317 126.748L439.551 124.437C439.551 124.437 439.622 122.726 440.982 121.992C440.982 121.992 442.443 121.335 441.999 120.433C441.999 120.433 441.723 119.723 440.859 120.1C440.201 120.397 439.851 120.428 439.851 120.428C439.851 120.428 438.975 120.54 438.85 120.556C438.85 120.556 437.773 120.601 437.624 122.596ZM434.921 122.047C433.566 122.355 433.389 123.895 433.389 123.895L432.56 130.025C432.428 131.24 434.008 130.357 434.008 130.357C434.657 129.969 434.772 129.169 434.772 129.169L435.023 127.631L435.792 123.483C436.043 121.753 434.921 122.047 434.921 122.047ZM436.859 109.776C436.859 109.776 438.265 107.182 439.377 106.33C439.377 106.33 440.592 105.595 440.628 104.386C440.628 104.386 440.717 103.579 440.061 103.079C440.061 103.079 438.347 101.681 436.957 104.057C436.957 104.057 430.397 116.451 428.136 128.944C428.136 128.944 427.963 129.353 427.919 128.211C427.919 128.211 426.953 117.726 426.915 117.347C426.877 116.962 426.904 116.023 426.027 115.958C426.027 115.958 424.991 115.769 424.38 117.321L421.471 124.481C421.471 124.481 420.991 125.376 421.764 125.714C421.764 125.714 422.628 126.204 423.196 124.995L424.538 122.113C424.807 121.528 425.005 121.611 425.005 121.611C425.159 121.642 425.225 122.227 425.225 122.227C425.225 122.227 426.408 136.303 426.419 136.414C426.433 136.521 426.537 137.652 427.486 137.65C428.176 137.647 428.389 136.878 428.526 136.241C428.665 135.605 429.944 128.911 432.078 121.689C433.474 116.955 435.275 112.229 436.859 109.776Z" fill="white"/>
</svg>
