<?xml version="1.0" encoding="UTF-8"?>
<svg width="300px" height="358px" viewBox="0 0 300 358" version="1.1" xmlns="http://www.w3.org/2000/svg" xmlns:xlink="http://www.w3.org/1999/xlink">
    <!-- Generator: Sketch 53.2 (72643) - https://sketchapp.com -->
    <title>cheese2</title>
    <desc>Created with Sketch.</desc>
    <defs>
        <polygon id="path-1" points="0 0.173813604 299.896702 0.173813604 299.896702 357.546186 0 357.546186"></polygon>
    </defs>
    <g id="cheese2" stroke="none" stroke-width="1" fill="none" fill-rule="evenodd">
        <g id="Group-175">
            <g id="Group-174">
                <g id="Group-3" transform="translate(0.000000, 0.279957)">
                    <mask id="mask-2" fill="white">
                        <use xlink:href="#path-1"></use>
                    </mask>
                    <g id="Clip-2"></g>
                    <path d="M229.452526,86.8259351 C230.10472,87.198001 230.728775,87.6381278 231.415008,87.9312431 C236.601241,90.1427665 238.392617,89.1159554 238.582784,83.4814256 C238.748442,78.5665257 236.291256,74.598579 232.51289,71.8933876 C224.085658,65.8586601 214.821967,64.3368198 205.080363,68.4926144 C199.815159,70.7390758 194.584448,73.1343635 189.583389,75.9062545 C186.321059,77.7144041 183.494433,80.3116056 180.48354,82.5694104 C178.431649,84.1089465 176.449652,85.7473977 174.331952,87.1884725 C173.553585,87.7179858 172.475219,87.8073724 170.736036,88.3436918 C171.612436,83.0707919 170.910318,78.2938286 175.077186,74.5677247 C177.741785,72.184688 179.713343,69.0457222 182.184145,66.4226575 C188.777337,59.4205587 195.142693,52.1525688 202.229228,45.6799833 C208.187474,40.2378388 213.96236,34.3814307 221.096097,30.4044091 C225.281573,28.0717374 229.728018,26.0439782 234.280212,24.5656968 C245.046172,21.0691848 256.103964,18.5595549 267.306536,17.0209262 C276.417277,15.7695143 285.638759,15.3184978 294.811225,14.5140188 C297.339667,14.2921404 298.386717,16.2963052 299.896702,17.4615067 C299.261755,19.5060542 298.021815,19.4103153 296.549955,19.4180289 C284.033464,19.4833673 271.628169,19.8899174 259.237398,22.6314079 C251.007141,24.4527158 243.021513,27.2822317 234.658729,28.4991594 C233.623933,28.6498008 232.562814,28.9556208 231.63059,29.4220644 C224.101089,33.1880973 216.543449,36.7730885 210.842995,43.4398743 C207.748593,47.0579883 203.432405,49.6016487 200.007595,52.9747437 C194.636641,58.2644319 189.508956,63.804584 184.367655,69.3215954 C181.806989,72.069892 179.398366,74.9647463 177.020151,77.8745739 C176.377943,78.6609034 176.098366,79.7439782 176.329834,81.0226144 C178.613646,79.1391442 180.836188,77.174001 183.193525,75.3867234 C190.451619,69.8865004 198.715915,66.0669262 207.27295,63.4946804 C214.219697,61.4065739 221.66115,62.4125131 228.607443,65.1081759 C230.14466,65.7048426 231.593828,66.5306474 233.087474,67.2430175 C239.547231,70.3239047 244.809259,78.6037323 241.596399,87.4216943 C239.140121,94.1638008 234.415915,94.6007513 229.708956,92.5099224 C223.880968,89.9208882 217.867806,88.8201176 211.725749,88.6417982 C202.994433,88.3886119 194.638003,90.3809795 187.101694,95.0327108 C182.980666,97.5759174 181.627262,100.600995 182.573101,105.063517 C186.365991,104.589813 190.188381,103.979535 194.034826,103.663279 C199.893222,103.182769 205.76705,102.89646 211.635885,102.54572 C218.256762,102.149606 224.878094,101.768011 231.499879,101.391862 C237.127262,101.071522 242.634372,101.854222 248.010318,103.45229 C252.060998,104.656059 256.054947,106.054029 260.063873,107.397096 C268.166142,110.111816 273.187625,119.027332 271.126203,127.197355 C269.582179,133.318293 267.887474,139.400663 266.254493,145.498914 C266.137398,145.93541 266.000333,146.369639 265.837852,146.791162 C263.300787,153.362663 256.837398,154.719342 251.5023,150.046285 C249.157216,147.992209 246.410469,146.339238 243.685053,144.786997 C235.953585,140.382554 228.246626,135.912318 220.320908,131.878125 C214.438003,128.883902 208.327262,126.292599 201.517126,125.951841 C198.217126,125.78668 194.944357,124.902343 191.649803,124.843357 C189.00472,124.796168 186.241634,125.168688 183.72,125.959101 C180.651467,126.921028 179.726505,129.160229 181.234221,131.934843 C182.18823,133.690812 183.788533,135.339246 185.497307,136.383753 C187.921815,137.864303 190.615461,139.185137 193.366747,139.79723 C200.613041,141.410272 206.580363,145.58467 212.973858,148.919197 C214.046324,149.47775 215.033011,150.28359 216.16584,150.626617 C221.725598,152.311803 226.724387,154.842305 231.253434,158.617867 C233.973404,160.8852 237.549349,162.110749 240.690953,163.892128 C246.338306,167.093256 252.188079,170.015334 257.505477,173.699241 C262.614554,177.239765 266.209107,182.330262 268.021815,188.365897 C268.498366,189.951261 268.275522,192.006244 267.702753,193.60522 C264.310166,203.074751 259.086263,211.504313 252.697307,219.251905 C250.782027,221.574594 249.375068,224.374617 247.240575,226.446389 C243.366899,230.206523 239.122874,233.584156 234.829834,237.297101 C233.550408,236.300237 232.392617,235.754389 231.76947,234.843281 C230.07885,232.368135 228.384145,229.846708 227.102905,227.148777 C222.953737,218.410673 217.757973,210.368151 211.783843,202.777552 C209.649803,200.066462 208.017277,196.966972 205.990348,194.16468 C204.060545,191.496696 201.982784,188.926265 199.847837,186.416635 C196.231498,182.166916 192.352375,178.130455 188.904418,173.751421 C186.616974,170.846584 184.016369,168.453565 180.972345,166.425806 C177.599728,164.179344 174.363722,161.726432 170.957065,159.536234 C169.728018,158.746275 168.214856,158.254876 166.764327,157.979002 C163.019092,157.268447 162.639667,157.952232 161.666596,161.693309 C159.813041,168.817917 162.250711,174.704272 166.124841,180.383722 C169.95177,185.994658 173.515461,191.791172 177.503964,197.281867 C179.881725,200.554685 182.770983,203.477671 185.579002,206.415177 C191.412436,212.518873 197.151921,218.73192 203.291256,224.516637 C209.368411,230.242369 214.728472,236.548886 220.030439,242.949327 C221.048442,244.178505 222.628321,244.968919 224.010772,245.866868 C229.272799,249.283976 230.35888,255.470706 226.411225,260.19322 C225.256611,261.574855 223.934977,262.837157 222.574766,264.022323 C219.752678,266.480227 216.85888,268.856457 213.983238,271.252199 C213.172648,271.927362 212.41062,272.917874 211.475673,273.147012 C203.842239,275.015963 199.904569,281.48265 194.725598,286.396642 C192.31879,288.68031 190.128018,291.228054 187.540121,293.278047 C183.518487,296.463748 180.743147,295.729598 178.690348,291.003907 C174.065991,280.357377 169.929531,269.525268 167.255401,258.197223 C165.418638,250.418323 161.782784,243.63901 156.61289,237.543481 C155.134675,235.80067 154.293676,233.374528 153.616067,231.124891 C151.879153,225.358777 150.596551,219.452911 148.75888,213.722642 C146.914856,207.973317 142.796551,203.67777 138.576127,199.551469 C137.490953,198.490173 136.260998,197.426609 134.579909,198.433456 C133.042239,199.354092 131.995643,200.798343 132.275219,202.55522 C132.675522,205.06848 133.052224,207.746447 134.206838,209.952526 C141.690953,224.252107 147.397761,239.441471 155.93528,253.218799 C156.987776,254.918052 157.472042,257.164059 157.609107,259.197717 C157.984902,264.775076 157.826505,270.391002 158.278094,275.959286 C158.66705,280.759844 159.719546,285.50323 160.266899,290.296075 C160.779304,294.792627 161.062057,299.318219 161.351619,303.837005 C161.511831,306.332569 160.464781,308.122115 158.077943,309.242396 C154.662209,310.845456 151.331346,312.634549 147.996853,314.405945 C141.562965,317.824414 136.040877,322.460718 130.617731,327.620637 C129.85525,327.371535 129.037398,326.989486 128.178699,326.844744 C125.5318,326.397811 124.835129,324.973978 125.169622,322.337301 C125.903056,316.554853 126.31062,310.731114 126.857065,304.924617 C126.89882,304.479953 127.147534,303.989461 127.028169,303.60469 C125.325295,298.095393 126.496248,292.502607 126.420908,286.94249 C126.371891,283.345248 125.879909,279.748914 125.478699,276.163469 C124.757973,269.729905 124.074009,263.288173 123.115008,256.88864 C122.834523,255.016059 121.905023,253.126237 120.863419,251.507296 C119.272194,249.033966 116.913495,249.238148 115.630439,251.907494 C114.993222,253.232865 114.669622,254.784652 114.543903,256.263388 C114.366445,258.361023 114.365991,260.496318 114.527564,262.596675 C115.303661,272.660151 116.642088,282.708199 116.833616,292.779388 C116.98475,300.731616 115.827413,308.715606 115.126657,316.674186 C114.459939,324.243005 111.837095,331.355362 109.686263,338.565727 C108.577489,342.282756 108.427262,342.157071 104.649803,342.337659 C103.044054,342.414794 101.307595,342.727421 99.9047201,343.458394 C96.7308926,345.111365 93.7272617,347.091481 90.3260514,349.135575 C85.6331619,344.929869 85.8868684,338.234498 82.3799092,332.938457 C81.5811195,335.537928 80.835885,337.846551 80.1637216,340.176047 C78.5783964,345.67264 75.8629652,350.039423 69.9174281,351.824432 C68.1378517,352.358936 66.6809682,353.954736 65.0629652,355.044163 C58.8673525,359.215839 55.339062,358.267071 52.2319516,351.472784 C51.5516188,349.984974 51.3006354,348.304325 50.7982148,346.729851 C50.4836914,345.744331 50.2953404,344.600001 49.6640242,343.853147 C45.1186384,338.47135 43.2278669,332.06501 42.1054766,325.29341 C41.6148563,322.331857 40.8546445,319.410685 40.1193949,316.495413 C38.5022995,310.087712 41.2336157,303.965867 41.2812708,297.672962 C41.3257489,291.860113 42.8280182,286.321322 44.6048714,280.871917 C45.4817247,278.183061 46.7702269,275.596295 48.126354,273.100731 C52.8886838,264.334042 58.3622088,256.105033 65.3357337,248.843395 C71.7973071,242.114447 77.8013918,234.944011 83.9575189,227.923763 C87.2361876,224.183593 88.4715885,219.44066 89.9597882,214.868787 C90.7708321,212.37776 89.1269592,210.527413 86.3375492,210.469334 C83.6216641,210.412617 81.3514675,211.704412 79.3508623,213.302934 C70.7602421,220.166642 62.315764,227.21593 53.6711346,234.010216 C49.7979123,237.054351 45.5035098,239.556721 41.542239,242.495588 C38.893525,244.461185 35.9738578,246.386399 34.090348,248.990407 C29.7768835,254.954351 25.4779425,261.018118 24.8398185,268.825149 C24.5339183,272.563958 23.6765809,276.278265 22.7901967,279.936308 C22.4802118,281.217213 21.3351286,282.296204 19.8410287,284.586678 C19.2514675,283.22047 18.8688654,282.681882 18.7926172,282.103365 C17.8721936,275.116239 15.5457186,268.227575 17.2581241,261.044888 C17.3965507,260.463649 17.4346747,259.837943 17.401997,259.239007 C16.9622088,251.15338 18.9569138,243.413502 20.7301362,235.641862 C20.7637216,235.494396 20.829531,235.346478 20.8277156,235.19992 C20.7160666,226.776711 26.4237821,221.936678 32.044357,217.074865 C37.8460212,212.056967 43.706233,207.107129 49.5396672,202.12553 C49.8845991,201.831053 50.1691679,201.423142 50.5613011,201.233479 C58.7997277,197.254189 65.2758245,190.788409 72.6446596,185.585385 C80.8826324,179.768906 89.0193949,173.808138 97.1983661,167.907717 C100.475219,165.543284 101.958427,161.430594 101.06115,157.540237 C100.609561,155.581446 99.1685628,155.124077 97.6308926,155.469826 C92.9334644,156.524315 88.0817247,157.431793 84.6478366,161.253636 C82.4448109,163.707002 79.8183359,165.510161 76.6921634,166.218901 C66.2833888,168.579251 57.6959455,174.559983 48.8720424,180.020731 C42.0755219,184.226437 35.1623601,188.393121 28.996702,193.428716 C22.6367927,198.623573 16.4856581,204.338414 14.2131921,212.875966 C13.8060817,214.403704 12.4631165,215.681433 11.197761,217.617083 C7.45298033,212.438107 4.59140696,207.737372 3.317882,202.241233 C2.19367625,197.389403 1.25555219,192.494467 0.250257186,187.614959 C-0.551255673,183.721426 0.720907716,180.108303 1.9608472,176.550082 C2.90260212,173.847159 3.90245083,171.079806 5.40971256,168.674536 C9.10320726,162.781375 13.4774887,157.721732 21.4449622,158.077917 C23.0561573,158.150062 24.790348,157.757124 26.3116793,157.172254 C36.7313464,153.168009 47.146475,149.147428 57.4862632,144.941722 C63.1948865,142.61994 69.0078971,140.368034 74.3153101,137.292592 C80.6420877,133.626381 87.3124357,130.391223 93.7354312,125.079301 C90.6664448,124.434085 88.4216641,123.871448 86.1455673,123.50029 C77.7805144,122.13862 69.3196974,120.798729 61.0209077,123.288394 C55.8519213,124.83882 50.9257489,127.257248 45.9891377,129.504163 C41.6416339,131.482465 37.431649,133.762049 33.1054766,135.937274 C29.2363389,132.101365 29.3788502,131.529654 31.1706808,126.676462 C33.1608472,121.28559 37.3304387,117.787717 41.2045688,114.067512 C45.5516188,109.89266 50.3783964,106.222366 54.8434493,102.164125 C59.4373979,97.9888198 65.146475,95.9193166 70.6177307,93.3938058 C73.8941301,91.8819478 77.2585779,90.5606601 80.9180333,89.0120492 C80.618941,86.8454459 80.4687141,84.7709516 80.028472,82.7599807 C79.0794554,78.4276816 80.0262027,74.5332406 83.1160666,71.4940973 C87.4694705,67.2121632 91.4448109,62.3181354 98.0688654,61.1806119 C108.681422,59.3593039 116.49413,61.9855447 122.226808,71.0966221 C124.684448,75.0024066 126.130893,79.5615752 127.892315,83.8834383 C129.591104,88.0519376 130.622723,92.5430454 134.406082,96.1788553 C136.940877,94.0385688 139.664932,91.9967437 142.086263,89.6436537 C147.821664,84.0690175 153.371891,78.3578058 158.183691,71.8824978 C161.758275,67.0728654 166.287322,62.9706119 170.406989,58.5675295 C172.880514,55.9240466 175.139818,53.0105891 177.920605,50.7391721 C184.913192,45.0279605 192.023328,39.4410733 199.318185,34.1232532 C207.348744,28.2686601 215.395189,22.3668781 223.893222,17.2459807 C230.417882,13.3147868 236.512284,8.31957516 244.277791,6.70562586 C248.705174,5.78589708 253.118941,4.79538504 257.562663,3.96549658 C264.226203,2.72225196 270.91879,1.63600101 277.580968,0.384135361 C279.454493,0.032487706 281.097458,-0.142201774 282.531195,2.08747123 C281.547685,2.56253587 280.834221,3.10656882 280.04587,3.25584892 C273.84118,4.43330139 267.623782,5.55040659 261.40593,6.65662205 C256.654947,7.50239138 251.765991,7.87082738 247.178396,9.24837871 C242.460998,10.6649516 237.83528,12.6890809 233.519546,15.07847 C221.74829,21.5950682 211.193828,29.947494 200.392466,37.898361 C193.73528,42.7991949 186.742693,47.4781506 181.007746,53.3390961 C172.809713,61.7151163 164.093828,69.6410276 157.123026,79.2539402 C153.356006,84.4483432 148.206536,88.652688 143.596248,93.2182089 C141.35056,95.4410758 138.919697,97.4783635 136.553737,99.5782672 C135.339213,100.656805 134.081573,101.687699 132.575673,102.968151 C131.761452,101.834711 130.996248,101.105552 130.63407,100.212594 C127.968109,93.6510758 125.479153,87.0165054 122.740575,80.4858413 C120.500333,75.1453343 117.609259,70.3034864 112.315461,67.223053 C105.550711,63.2859605 97.5578215,63.7587564 91.6812708,68.839271 C89.9675038,70.321636 88.4461725,72.0326854 86.6915582,73.460148 C84.0396672,75.6172228 83.2004841,78.2566221 84.008351,81.5226347 C84.6537368,84.1320872 85.2455673,86.7556056 86.0107716,90.0102748 C84.1018457,91.0638565 82.0499546,92.5847894 79.7479879,93.398797 C70.1520726,96.7936715 60.8266566,100.595096 53.2917095,107.775061 C48.2738578,112.557015 43.1375492,117.215099 38.1228744,122.000229 C35.491407,124.510767 34.5573676,127.760445 34.2119818,131.634467 C38.7260514,129.293175 42.7000303,126.875654 46.9472315,125.114693 C52.9363389,122.63138 59.0997277,120.552348 65.2513162,118.486475 C66.7740091,117.975111 68.5413313,118.037274 70.1901967,118.079925 C76.9862632,118.253707 83.7950378,118.322675 90.5688654,118.835854 C94.0504085,119.099476 97.8641755,119.306381 100.286415,122.894549 C98.7065356,126.239058 96.154947,128.688794 93.2203026,130.381241 C84.6215129,135.341061 76.4021483,140.884843 67.0917095,144.717575 C53.4265053,150.341215 40.0004841,156.543372 25.9853555,161.300825 C24.7131921,161.732784 23.3375492,162.391613 22.0826324,162.260029 C14.8731014,161.501377 11.4224206,166.242949 8.49730711,171.504052 C2.36160363,182.538075 4.49972769,193.622009 8.73240545,204.63153 C9.25933434,206.002275 9.97461422,207.300876 10.83059,209.116739 C11.590348,208.077677 12.1504085,207.454239 12.5516188,206.740962 C17.6257489,197.718817 24.8016944,190.777519 33.522118,185.306336 C42.1976097,179.864191 50.749652,174.221948 59.4855068,168.88008 C62.6743116,166.92991 66.1036611,165.150799 69.6596369,164.06954 C75.9877761,162.14614 81.707292,159.317078 86.6207564,154.909912 C90.222118,151.679745 94.9268079,151.513677 99.2479879,150.480967 C101.907595,149.845732 104.223631,151.84899 104.919395,154.54919 C106.378548,160.213213 106.123026,167.263408 98.6566112,171.838911 C94.0558548,174.658445 89.9439032,178.267484 85.5664448,181.459083 C83.3729501,183.058059 81.0355825,184.459205 78.8334644,186.046838 C72.3451135,190.723524 66.0523752,195.691966 59.3838427,200.094594 C51.1744629,205.514959 43.6567625,211.77701 36.1377005,218.055849 C34.1752194,219.6943 32.452829,221.629043 30.6827837,223.487104 C27.5044175,226.8239 25.1375492,230.481489 24.6106203,235.311993 C24.1213616,239.79811 22.7311952,244.180774 22.1420877,248.6619 C21.6373979,252.497355 21.7059304,256.40813 22.3554009,260.540784 C22.9091074,259.804366 23.5458699,259.116498 24.0010893,258.32427 C25.8791528,255.051451 27.5711346,251.664744 29.5771861,248.474959 C32.1650832,244.360455 35.5640242,241.01413 39.7426929,238.430541 C41.7569138,237.185481 43.5482905,235.574254 45.4159153,234.098696 C46.125295,233.537874 46.6744629,232.712977 47.452829,232.310511 C55.4148563,228.186931 61.5773374,221.638571 68.7963994,216.511322 C72.4667474,213.904592 75.6423903,210.609086 79.2541906,207.907978 C83.2081997,204.950962 88.6939788,205.150607 92.3606959,207.844455 C93.9691679,209.025991 94.8069894,210.284209 94.5265053,212.393641 C93.5693192,219.596746 91.0245386,226.096102 86.2490469,231.621281 C80.6402723,238.110655 74.9960968,244.569175 69.292466,250.975061 C67.4938275,252.995106 65.2504085,254.638549 63.5756732,256.744805 C61.1429955,259.803459 58.8682602,263.01956 56.8331619,266.355902 C52.2029047,273.9465 47.2304387,281.43047 46.0508623,290.552891 C45.5870197,294.141966 45.8230257,297.88032 44.9393646,301.345978 C42.7159153,310.068201 44.7705295,318.451481 46.4193949,326.859263 C46.987171,329.75321 48.6423903,332.414843 48.4322542,335.53702 C48.3963994,336.072432 48.7113767,336.788886 49.106233,337.170934 C51.9904992,339.964604 53.800938,343.376267 55.3032073,347.05246 C55.9758245,348.699078 57.2466263,350.100678 58.6050227,352.157476 C60.1749168,352.581722 61.9885325,351.862546 63.7672012,350.489078 C65.5476853,349.115157 67.3508623,347.486234 69.4181846,346.827405 C73.8877761,345.403119 75.8311952,342.090825 77.143298,338.077504 C77.4673525,337.086538 77.6452648,336.047476 77.8803631,335.07103 C76.6240847,334.029246 73.8455673,336.219897 73.9299849,333.448914 C74.0193949,330.514584 76.7820272,332.531907 78.2793041,331.878523 C78.7186384,328.170569 79.1547958,324.489839 79.6100151,320.643494 C83.2022995,320.599935 83.8086536,323.002936 84.586112,325.242592 C86.4169743,330.514584 88.240121,335.789299 90.1172769,341.04541 C90.3550983,341.711953 90.8951891,342.270505 91.3717398,342.994673 C96.4245386,341.717398 99.7240847,336.331971 105.261604,337.873322 C112.205174,324.968987 115.101241,296.689256 111.696399,281.326564 C110.350257,280.275251 109.306384,279.459882 108.262965,278.644513 C109.3082,277.780594 110.353888,276.916222 111.874312,275.660272 C111.67053,273.103907 111.422269,269.987175 111.179002,266.930336 C109.657216,265.957519 106.98944,266.742941 107.318941,263.564047 C110.027564,262.751854 110.550408,260.551674 110.570832,257.79521 C110.587625,255.561907 111.274766,253.331327 111.685507,251.103469 C112.272345,247.919583 114.589289,246.694034 117.434523,246.143195 C120.401846,245.568308 122.183238,247.1632 123.805779,249.434617 C127.370832,254.426652 127.254644,260.284876 127.911377,265.944361 C128.589894,271.790333 129.37416,277.661261 129.459939,283.530827 C129.620151,294.529912 129.305628,305.536257 129.198971,316.539426 C129.185356,317.953276 129.23528,319.36758 129.264781,321.42574 C136.281422,318.657025 140.402451,313.111882 146.439213,309.960211 C145.882784,308.863071 145.372648,307.856678 144.865688,306.85573 C146.196399,304.686858 147.461301,302.625976 148.985356,300.141755 C152.260847,304.195005 147.862057,306.430576 147.794433,309.794143 C150.497156,308.192898 152.930287,306.793114 155.318941,305.321639 C156.839818,304.385121 157.665386,302.998042 157.494735,301.16176 C157.064478,296.538161 157.276884,291.721722 156.003812,287.339512 C154.060847,280.650039 153.897458,273.814462 154.04587,267.136787 C154.213343,259.628769 151.770227,253.428881 148.397156,247.098769 C143.007595,236.983568 138.008351,226.6601 132.874766,216.40923 C131.14466,212.954009 129.508956,209.451598 127.760242,205.825317 C126.380061,206.087124 124.189743,208.79413 123.250711,205.749542 C122.216369,202.395504 126.181725,203.803002 126.963722,202.104658 C128.515915,199.804201 129.886566,197.350381 131.668411,195.242764 C133.718487,192.818437 136.965386,192.495829 139.378094,194.482751 C144.040121,198.320021 148.578699,202.333796 151.303207,207.902533 C152.024841,209.377185 152.665234,210.921712 153.102753,212.500723 C154.757973,218.465575 156.24118,224.478977 157.957216,230.425225 C158.401543,231.965669 159.355098,233.397215 160.255098,234.758886 C161.742844,237.009431 163.269622,239.250901 164.971589,241.339461 C168.954191,246.22759 170.112436,252.225111 171.49761,258.06337 C173.773253,267.657679 177.13997,276.808232 181.466596,285.71558 C183.00472,285.530908 184.458427,285.054936 185.760998,285.320827 C186.452224,285.461486 186.88112,286.888495 187.612284,288.018305 C190.049955,285.784095 192.78354,283.755428 194.362965,280.59196 C194.36705,280.588331 194.238154,280.723091 194.238154,280.723091 C197.333011,277.648556 200.428775,274.573568 203.523631,271.498579 L203.388381,271.631524 C205.049501,270.916432 206.695643,270.163679 208.376278,269.495775 C210.358729,268.708085 211.840575,267.527456 213.31062,265.837732 C215.542239,263.271839 218.361604,261.03536 221.314402,259.318412 C226.361755,256.384082 225.282481,251.498222 221.155552,248.927791 C220.266445,248.374683 219.439516,247.722206 218.58354,247.115104 C217.326808,247.467205 216.16947,248.062057 215.028018,248.032564 C213.995492,248.006247 212.437398,247.570204 212.069319,246.835147 C211.24466,245.188982 212.516369,244.439859 214.073555,244.177598 C214.297761,244.139484 214.475219,243.822774 214.99534,243.331829 C205.496551,231.614021 193.954493,221.848652 184.0377,210.35227 C182.598517,211.128617 181.450257,211.747971 180.341029,212.346906 C178.12938,210.225223 178.12938,210.225223 179.875371,207.118472 C177.991861,206.798587 176.203661,206.378424 174.392769,206.225061 C172.998971,206.106635 171.593828,206.294936 171.288835,204.420541 C171.003812,202.67047 172.162511,202.022077 173.500484,201.484396 C173.763268,201.379129 173.973404,201.14137 174.533918,200.719393 C173.211831,198.787372 171.879304,196.839925 170.624387,195.005459 C168.813041,194.845289 168.267504,198.98974 166.238306,196.137083 C164.479607,193.665114 167.149198,193.273083 168.946021,192.369689 C167.562209,190.274777 166.285053,188.449385 165.119546,186.555025 C162.671891,182.578004 160.110318,178.655431 157.955855,174.522323 C157.106233,172.892039 157.042693,170.769448 156.940575,168.854216 C156.837095,166.908584 157.275976,164.937088 157.21289,162.986011 C157.09534,159.36336 158.962965,156.650455 161.085658,154.066865 C161.584902,153.459763 162.568411,152.934333 163.33997,152.919813 C167.025295,152.848576 170.569017,153.516026 173.672496,155.688075 C176.885356,157.936351 180.028775,160.287172 183.297005,162.451053 C188.671135,166.009727 192.433162,171.169646 196.762057,175.765114 C197.793222,176.859986 198.469017,178.315126 199.57416,179.309722 C206.166445,185.246896 210.488986,192.847023 215.232708,200.167646 C219.161755,206.230959 223.428472,212.07557 227.484599,218.058118 C228.322874,219.294556 228.928775,220.695248 229.57643,222.051474 C230.159637,223.272939 230.487322,224.64686 231.22348,225.757159 C232.378548,227.499517 233.782784,229.077167 235.396248,231.123983 C244.117579,227.247238 248.019849,218.91886 254.032103,212.536569 C253.118941,210.673971 250.45525,209.628102 252.107292,207.360315 C253.438457,205.533562 255.175825,205.83666 256.712133,207.018196 C259.355401,204.855677 259.979909,202.142772 260.698366,199.550107 C257.242239,197.180683 256.369017,200.804696 254.470076,201.733499 C252.929682,200.997081 251.350711,200.479365 250.085809,199.540125 C249.443601,199.063246 249.366899,197.8259 249.034221,196.932034 C249.842542,196.715601 250.686263,196.242805 251.447837,196.351248 C252.271135,196.468767 252.991861,197.405737 253.802905,197.478336 C254.735582,197.561824 255.987776,197.388042 256.632254,196.806802 C259.38944,194.319405 259.326354,194.249983 261.484448,196.962434 C265.146626,191.797071 265.008654,190.355088 262.058124,185.252794 C259.56826,180.947266 256.441634,177.59595 252.057368,175.172077 C245.076127,171.31212 238.270076,167.135453 231.546626,163.185203 C229.187474,164.158472 227.434675,166.558751 225.176278,163.914815 C223.787474,162.287707 224.847685,161.302186 226.443449,159.925542 C222.054191,157.786617 218.125144,155.915398 214.234675,153.966589 C208.703056,151.195606 203.230439,148.30665 197.668411,145.600097 C195.802602,144.692166 193.731195,144.214379 191.771437,143.492934 C188.529985,142.299601 185.135129,141.382594 182.109259,139.776812 C177.833011,137.50721 176.180061,133.503872 176.43649,128.743243 C176.610772,125.517159 178.534675,122.883205 181.636339,122.055585 C185.88354,120.921692 190.202451,120.456609 194.633918,121.166257 C199.087625,121.878627 203.587171,122.302873 208.349501,122.88865 L208.349501,118.503263 C209.12469,118.454713 209.97295,118.129836 210.464932,118.416146 C212.697005,119.715654 212.836793,120.648541 211.408502,123.834242 C212.456006,124.292518 213.465386,124.895537 214.559183,125.188199 C222.975068,127.437383 230.465991,131.598622 237.798517,136.151892 C240.355098,137.739978 243.195794,138.863889 245.816823,140.358052 C248.167806,141.698396 250.787474,142.890369 252.58112,144.808323 C255.070983,147.47177 258.039213,147.625134 261.704569,148.131053 C262.84829,145.125033 264.248896,142.288257 264.992769,139.288589 C266.077943,134.912277 266.517277,130.377157 267.560696,125.98814 C268.424387,122.353238 267.326505,119.287778 265.148896,116.709633 C262.728926,113.844272 259.966747,111.16449 256.226505,109.963897 C246.733616,106.917494 237.208048,104.273557 227.016218,105.235938 C220.562814,105.845763 214.056762,105.886146 207.577489,106.233256 C205.774766,106.329902 203.972496,106.546789 202.187474,106.819033 C196.082179,107.749197 189.986415,108.745608 183.879758,109.672143 C182.994735,109.805996 182.06705,109.756538 181.167958,109.68394 C179.258124,109.529215 178.306384,108.525545 177.943752,106.554049 C177.02469,101.559291 180.069622,93.9909262 184.806989,91.9590834 C190.69761,89.4322114 196.066747,85.3340416 202.451619,85.4275118 C203.71879,83.8103863 204.741331,82.5054332 205.764327,81.2004801 C206.527262,82.1628603 207.290197,83.1252406 208.25056,84.3376309 C215.120151,85.0509085 215.450106,85.0055346 219.57885,82.5399174 C221.564932,86.9275726 225.510772,87.0727691 229.572799,86.9357399 L229.452526,86.8259351 Z" id="Fill-1" fill="#231F20" mask="url(#mask-2)"></path>
                </g>
                <path d="M165.624327,88.6514175 C166.707685,90.5566672 165.499516,91.585747 164.613132,92.8049435 C159.212678,100.240363 153.795885,107.664893 148.523873,115.19106 C145.581059,119.392229 142.866536,123.755836 140.121604,128.092219 C135.910257,134.744485 132.691044,141.896771 130.020091,149.271843 C124.731286,163.870893 119.272738,178.410049 115.750802,193.59669 C113.434766,203.584845 110.793313,213.508568 107.931286,223.354703 C106.209803,229.276449 104.11525,235.141932 101.59997,240.769656 C97.450348,250.054061 94.7303782,259.798104 92.1057186,269.529897 C88.651407,282.33577 85.9391528,295.342649 83.0144932,308.287821 C82.5887746,310.173559 82.8147958,312.19905 82.6282602,314.14922 C82.4957337,315.538115 82.1766717,316.909767 81.5004236,318.266447 C80.0975492,315.466878 79.3868079,312.651881 79.6795461,309.629073 C80.8173676,297.8609 83.3340091,286.357712 86.765174,275.078216 C90.8449017,261.667055 94.5992133,248.098447 99.7087443,235.074325 C104.323116,223.312051 106.71767,211.059739 109.992254,199.002535 C114.300272,183.141638 119.051256,167.457699 124.9859,152.104989 C128.250953,143.658639 132.066989,135.498599 136.330983,127.581762 C139.525234,121.651395 143.735673,116.26143 147.581664,110.691331 C150.64112,106.259663 153.738699,101.846599 156.999213,97.5628497 C159.183631,94.6929511 161.661694,92.0440233 164.066687,89.3488142 C164.408442,88.9658586 165.08469,88.8819169 165.624327,88.6514175" id="Fill-4" fill="#231F20"></path>
                <path d="M257.641316,127.203752 C257.364917,124.523517 257.137988,122.32379 256.842073,119.464328 C258.524523,119.345448 260.350393,118.663479 261.494115,119.268766 C263.066732,120.10047 264.195477,121.852356 265.331936,123.348333 C265.524372,123.601519 264.947519,124.932789 264.476415,125.112923 C262.467186,125.879288 260.364009,126.400181 257.641316,127.203752" id="Fill-6" fill="#231F20"></path>
                <path d="M207.661135,155.403353 C212.569153,156.722826 217.477625,158.041845 223.33239,159.615865 C222.086097,161.15404 221.570968,162.353726 220.742224,162.637313 C220.049183,162.875072 218.71711,162.279767 218.147065,161.632281 C216.924372,160.24384 215.804251,158.851769 213.785492,158.834981 C212.822859,158.827721 211.738593,158.780986 210.924826,159.185721 C209.844191,159.723402 208.778079,160.814644 207.775507,159.604068 C207.063404,158.743779 206.952209,157.385739 206.572784,156.249576 C206.934962,155.967805 207.298048,155.685579 207.661135,155.403353" id="Fill-8" fill="#231F20"></path>
                <path d="M192.610257,266.656232 C192.420545,266.66939 191.665325,266.961144 191.287716,266.70206 C190.526142,266.178445 189.542179,265.407996 189.450045,264.642992 C189.35882,263.885702 190.115855,262.440544 190.739909,262.289902 C192.744145,261.807124 194.855038,261.70594 196.931891,261.610202 C198.371528,261.543502 199.266989,262.531292 199.073646,263.851672 C198.95292,264.676569 198.152769,265.792767 197.405719,266.050037 C196.038245,266.522379 194.484236,266.455679 192.610257,266.656232" id="Fill-10" fill="#231F20"></path>
                <path d="M242.520862,215.909709 C240.714962,219.148951 244.33947,222.155425 240.740378,224.300703 C239.123737,223.506206 237.488487,222.880954 236.069728,221.93264 C235.329486,221.438518 234.670484,220.413522 234.558381,219.551871 C234.49711,219.082252 235.565038,218.234667 236.280772,217.941098 C237.962315,217.251869 239.738714,216.793139 242.520862,215.909709" id="Fill-12" fill="#231F20"></path>
                <path d="M220.034977,74.6510766 C222.144962,74.5371881 223.290953,74.3361817 224.406989,74.4450791 C226.473858,74.6460854 228.574766,76.4297331 230.581725,74.0884403 C230.726959,73.9191957 232.656762,74.6678649 232.883691,75.3021919 C233.388381,76.7142274 232.593676,78.5155708 231.083238,78.122633 C228.735431,77.5128079 226.723026,78.3898852 224.56357,78.5432489 C222.335129,78.7011501 221.5259,77.118055 220.034977,74.6510766" id="Fill-14" fill="#231F20"></path>
                <path d="M65.2956127,329.686919 C65.8189107,334.096807 60.9553707,332.460625 60.8360061,335.184873 C60.1624811,335.096848 59.8048411,335.154926 59.597882,335.005646 C58.2503782,334.030108 55.6515885,333.97702 56.0763994,331.616217 C56.5470499,329.003588 58.9633888,330.3521 60.5482602,330.098914 C61.9797277,329.870229 63.4425113,329.838468 65.2956127,329.686919" id="Fill-16" fill="#231F20"></path>
                <path d="M190.502315,230.029656 C191.497171,228.59085 193.041195,227.838551 194.23348,229.112649 C194.881589,229.806416 194.285673,231.66357 194.232572,233.68906 C194.544372,234.064302 195.44528,235.145108 196.302163,236.174642 C194.967368,238.469199 193.375234,238.030888 191.899743,237.089833 C190.614418,236.269927 191.223949,235.240393 191.56888,233.976277 C191.873419,232.858718 190.918502,231.397679 190.502315,230.029656" id="Fill-18" fill="#231F20"></path>
                <path d="M229.572617,87.2157876 C230.202118,85.0727787 230.830711,82.9297698 231.480182,80.7191539 C234.840091,80.5898383 234.875946,80.6147939 236.227534,84.3481577 C234.01997,85.3395772 232.835401,88.6432502 229.463238,87.1155113 C229.452345,87.1059828 229.572617,87.2157876 229.572617,87.2157876" id="Fill-20" fill="#231F20"></path>
                <path d="M259.848563,189.209125 C258.479274,191.176084 256.991074,191.665214 255.655371,190.551739 C254.355068,189.467757 253.113767,188.001726 252.541906,186.44767 C252.019516,185.02656 253.905749,183.818707 255.186989,184.773374 C256.913011,186.058816 258.341755,187.744003 259.848563,189.209125" id="Fill-22" fill="#231F20"></path>
                <path d="M186.991135,277.264149 C189.652103,277.117591 192.313525,276.971033 195.669349,276.785454 C195.135159,278.36628 194.690378,279.681216 194.242421,280.999327 C194.238336,281.002957 194.367231,280.868197 194.362693,280.871827 C192.336672,280.996605 190.315189,281.117753 187.691437,281.275201 C187.498548,279.896288 187.307474,278.532803 187.116399,277.169317 L186.991135,277.264149 Z" id="Fill-24" fill="#231F20"></path>
                <path d="M193.594221,152.06987 C192.960635,150.571624 192.522209,149.535738 192.135976,148.623723 C193.436732,147.306065 199.021452,148.028417 201.432799,149.620133 C199.637791,153.652965 195.908896,149.760339 193.594221,152.06987" id="Fill-26" fill="#231F20"></path>
                <path d="M149.933011,298.61025 C149.595794,298.772235 148.883691,299.095751 148.188835,299.451936 C146.757368,300.186539 145.831952,299.649312 145.543752,298.206876 C145.269168,296.83114 145.84466,295.918671 147.413646,295.801606 C148.569168,295.714488 149.767352,295.636899 150.850257,295.271186 C152.385658,294.751654 153.289743,295.273454 153.402753,296.724511 C153.501241,297.991804 152.883994,299.061267 151.317731,299.015439 C151.029985,299.006364 150.746778,298.854815 149.933011,298.61025" id="Fill-28" fill="#231F20"></path>
                <path d="M245.770983,177.637876 C248.563116,177.418266 250.259637,178.727303 251.542239,180.881655 C250.464781,183.168046 248.675673,183.297815 247.015461,182.376725 C245.251316,181.399371 245.057973,179.613001 245.770983,177.637876" id="Fill-30" fill="#231F20"></path>
                <path d="M182.853222,218.153131 C184.375008,217.353643 185.876369,216.979308 186.013434,218.553328 C186.161392,220.251673 188.754735,221.245815 187.193011,223.306697 C186.260333,224.537237 184.670923,224.55947 184.049138,223.04489 C183.449592,221.585212 183.272587,219.952205 182.853222,218.153131" id="Fill-32" fill="#231F20"></path>
                <path d="M262.749894,133.441755 C262.140817,135.223134 261.752769,137.279479 259.040514,136.512206 C257.43295,136.05756 256.461241,133.900939 257.059425,132.642267 C257.896793,130.882214 259.011467,131.02015 262.749894,133.441755" id="Fill-34" fill="#231F20"></path>
                <path d="M98.104584,326.150977 C99.5696369,326.451806 100.72289,326.386921 101.442708,326.913258 C102.360408,327.583884 103.172814,328.646087 103.551331,329.710105 C103.773722,330.33445 103.248154,331.467436 102.703979,332.02735 C102.395809,332.344967 101.267519,332.163925 100.69112,331.860827 C99.5442209,331.256447 98.627882,329.174693 98.104584,326.150977" id="Fill-36" fill="#231F20"></path>
                <path d="M220.596082,124.304951 C219.457806,122.77948 219.480045,121.679617 221.286399,121.085219 C222.488215,120.690466 223.716808,120.161407 224.943585,120.134183 C225.767337,120.115579 226.607428,120.870601 227.440257,121.278966 C227.007731,121.972733 226.705915,123.102089 226.117262,123.279047 C224.3218,123.820357 222.415598,123.995047 220.596082,124.304951" id="Fill-38" fill="#231F20"></path>
                <path d="M152.334826,268.548732 C152.269924,271.061538 151.020454,272.458146 148.634523,273.402377 C147.879758,272.497621 147.16584,271.64187 146.344357,270.657256 C148.05767,268.675325 149.726505,267.561849 152.334826,268.548732" id="Fill-40" fill="#231F20"></path>
                <path d="M199.8782,239.474413 C199.044917,242.086134 198.755809,243.567138 198.103616,244.866192 C197.513147,246.041376 195.497564,245.900263 195.273359,244.641138 C195.032814,243.28582 195.247489,241.644646 195.861558,240.430894 C196.163828,239.83332 197.816324,239.918169 199.8782,239.474413" id="Fill-42" fill="#231F20"></path>
                <path d="M192.673207,244.535553 C191.729183,245.537862 190.942648,246.807877 189.802557,247.473966 C188.377443,248.306123 187.05354,247.398645 186.74764,245.956209 C186.61239,245.316891 187.501498,244.035986 188.215416,243.73788 C189.337806,243.268714 190.70528,243.38351 191.969274,243.251018 C192.203918,243.679347 192.438109,244.107677 192.673207,244.535553" id="Fill-44" fill="#231F20"></path>
                <path d="M97.7158548,311.427467 C97.596944,312.002808 97.5951286,312.308628 97.4734947,312.556369 C96.5544327,314.42895 95.0412708,315.191231 93.176823,314.225675 C92.713888,313.986101 92.4438427,312.231946 92.8228139,311.719221 C94.1040545,309.986392 95.7751589,309.285819 97.7158548,311.427467" id="Fill-46" fill="#231F20"></path>
                <path d="M108.215764,289.700315 C107.198669,291.184042 106.408502,292.555694 105.380514,293.71772 C105.017428,294.128353 103.888684,294.337073 103.44708,294.072997 C102.978245,293.792587 102.64239,292.809334 102.718185,292.189527 C102.957368,290.228014 105.029228,289.213907 108.215764,289.700315" id="Fill-48" fill="#231F20"></path>
                <path d="M209.547912,161.095009 C210.676657,161.813278 212.006914,162.355949 212.850635,163.322867 C213.278169,163.812905 212.82885,165.068401 212.775295,165.977693 C211.84534,165.861536 210.483767,166.080238 210.076657,165.557531 C209.289213,164.54524 209.039592,163.115054 208.567579,161.858198 C208.894357,161.60365 209.221135,161.349556 209.547912,161.095009" id="Fill-50" fill="#231F20"></path>
                <path d="M234.358094,204.31364 C231.885477,207.40451 230.511649,207.914058 229.222239,206.354104 C228.73888,205.771049 228.545083,204.712477 228.681694,203.954279 C228.749319,203.582213 229.906657,203.118946 230.510287,203.192451 C231.667625,203.334018 232.781846,203.828593 234.358094,204.31364" id="Fill-52" fill="#231F20"></path>
                <path d="M239.020303,186.847369 C240.956006,187.360094 242.023933,187.407737 242.783691,187.916378 C243.429531,188.349245 243.856611,189.27215 244.09171,190.063924 C244.173404,190.337529 243.346475,191.24546 243.001089,191.210522 C242.06115,191.11433 240.965991,190.885192 240.296551,190.296239 C239.728775,189.796672 239.669319,188.720403 239.020303,186.847369" id="Fill-54" fill="#231F20"></path>
                <path d="M252.213676,130.532336 C254.540605,131.13354 255.456944,132.41626 254.420787,134.230761 C254.041815,134.893674 251.974039,135.442244 251.50475,135.051121 C249.776006,133.608232 250.982814,132.141294 252.213676,130.532336" id="Fill-56" fill="#231F20"></path>
                <path d="M183.014523,148.185638 C182.020121,146.645648 181.188654,145.837993 181.017549,144.908735 C180.919062,144.374231 181.891225,143.643258 182.380938,143.00031 C183.239183,143.660046 184.393343,144.170048 184.831316,145.040773 C185.05416,145.484076 183.98941,146.574411 183.014523,148.185638" id="Fill-58" fill="#231F20"></path>
                <path d="M138.276762,291.980943 C137.185234,294.27777 136.207625,295.546424 134.274191,295.036875 C133.603843,294.860824 132.747867,293.96469 132.692042,293.333993 C132.64711,292.828528 133.616551,291.865694 134.254675,291.748629 C135.351195,291.547169 136.539395,291.846183 138.276762,291.980943" id="Fill-60" fill="#231F20"></path>
                <path d="M140.681664,300.590503 C140.105719,300.922186 139.247474,301.782929 138.32115,301.863694 C136.988169,301.979851 135.998759,300.906305 136.306021,299.593185 C136.468956,298.899418 137.59997,298.0659 138.37652,297.970161 C139.514796,297.830409 140.784236,298.230153 140.681664,300.590503" id="Fill-62" fill="#231F20"></path>
                <path d="M107.019077,300.146928 C105.908487,301.771767 105.016203,303.07672 104.123918,304.381673 C103.757201,304.342198 103.390938,304.302722 103.024675,304.263247 C102.718775,303.284532 101.904554,302.09256 102.208185,301.3693 C102.939349,299.628304 104.552814,299.348347 107.019077,300.146928" id="Fill-64" fill="#231F20"></path>
                <path d="M208.419032,238.070681 C206.832799,238.967722 206.080756,239.698242 205.259274,239.786267 C203.971679,239.925565 202.734917,239.262199 203.10708,237.747165 C203.294523,236.985791 204.430076,235.879575 205.044145,235.935839 C205.969561,236.020688 206.813283,236.988513 208.419032,238.070681" id="Fill-66" fill="#231F20"></path>
                <path d="M245.782965,133.19052 C244.404599,134.197366 243.636672,135.195138 242.950893,135.142051 C242.190681,135.082611 241.084175,134.158345 240.919425,133.431455 C240.786899,132.847493 241.887504,131.356961 242.3459,131.395982 C243.304448,131.476294 244.200817,132.300284 245.782965,133.19052" id="Fill-68" fill="#231F20"></path>
                <path d="M203.523676,271.77849 C203.234115,271.732209 202.946823,271.660972 202.655446,271.644638 C201.232148,271.563872 199.713994,271.220845 200.070272,269.476219 C200.476475,267.480222 201.924281,266.688447 204.346974,267.633586 C204.008396,269.151342 203.701135,270.527986 203.39115,271.90826 C203.388427,271.911436 203.523676,271.77849 203.523676,271.77849" id="Fill-70" fill="#231F20"></path>
                <path d="M250.481982,189.125819 C250.481982,190.78605 250.567307,192.60282 248.234478,192.399092 C247.537806,192.33829 246.273812,190.619981 246.461256,190.058706 C247.112088,188.107175 248.688336,188.109444 250.481982,189.125819" id="Fill-72" fill="#231F20"></path>
                <path d="M258.07525,139.812703 C258.618971,141.392622 259.357852,142.651747 259.326082,143.890454 C259.313374,144.376409 257.572829,144.816536 256.470862,145.349679 C255.517761,142.953484 255.671619,141.418031 258.07525,139.812703" id="Fill-74" fill="#231F20"></path>
                <path d="M218.946853,253.560692 C219.712965,254.65148 220.671059,255.653336 220.520378,255.864778 C219.918109,256.708732 219.05351,257.551325 218.109032,257.870758 C217.7523,257.991906 216.915386,256.692398 216.297231,256.041282 C217.084221,255.304864 217.870303,254.568446 218.946853,253.560692" id="Fill-76" fill="#231F20"></path>
                <path d="M221.438669,166.362645 C221.784962,166.973832 222.688139,167.872235 222.660454,168.740691 C222.638215,169.436273 221.552587,170.512995 220.811437,170.632329 C220.269077,170.720354 219.141241,169.625936 218.95062,168.88498 C218.643812,167.693462 219.087685,166.500128 221.438669,166.362645" id="Fill-78" fill="#231F20"></path>
                <path d="M215.71711,254.823992 C214.432693,255.66477 213.330272,256.795487 212.900015,256.580869 C212.063101,256.162975 211.60289,254.990514 210.986097,254.130679 C211.665068,253.72186 212.415295,252.9015 213.00531,253.003137 C213.828154,253.146065 214.53118,253.97913 215.71711,254.823992" id="Fill-80" fill="#231F20"></path>
                <path d="M144.604629,261.079327 C142.726112,259.603314 142.226868,258.290194 143.673313,257.016549 C144.163026,256.585497 145.743359,256.508361 146.03292,256.882696 C147.460756,258.726691 145.721573,259.633261 144.604629,261.079327" id="Fill-82" fill="#231F20"></path>
                <path d="M241.532042,170.858835 C240.054281,171.989099 239.099818,173.164282 238.614191,172.995038 C237.691044,172.672883 236.80466,171.689631 236.375764,170.762189 C236.182874,170.346564 237.346566,168.748949 237.523116,168.807481 C238.676823,169.189983 239.728865,169.879666 241.532042,170.858835" id="Fill-84" fill="#231F20"></path>
                <path d="M147.032587,284.27936 C146.782057,284.776658 146.751195,284.952255 146.646808,285.027576 C145.22351,286.058924 143.750287,286.781277 142.449985,284.938189 C142.225779,284.620118 142.37646,283.612818 142.673283,283.424063 C144.235461,282.428106 145.72003,282.508417 147.032587,284.27936" id="Fill-86" fill="#231F20"></path>
                <path d="M233.901558,126.537754 C232.588548,127.482893 231.820166,128.469775 231.047247,128.473405 C230.250726,128.476581 228.918654,127.64397 228.763888,126.962454 C228.460711,125.629369 229.464191,124.588038 230.893843,124.791313 C231.755719,124.914277 232.523646,125.703782 233.901558,126.537754" id="Fill-88" fill="#231F20"></path>
                <path d="M234.545129,176.934671 C235.73469,176.063493 236.59475,174.996752 237.148457,175.137411 C237.861467,175.317999 238.783253,176.475034 238.770091,177.195571 C238.756929,177.867105 237.657231,179.009166 236.997776,179.036844 C236.351029,179.064068 235.656626,177.94787 234.545129,176.934671" id="Fill-90" fill="#231F20"></path>
                <path d="M232.381316,173.598556 C231.822617,175.918523 230.802799,176.902683 229.096293,175.838665 C228.4677,175.446634 227.861346,173.813628 228.167247,173.337656 C229.536989,171.200999 230.819138,173.002797 232.381316,173.598556" id="Fill-92" fill="#231F20"></path>
                <path d="M208.942511,76.3854028 C208.010741,77.563309 207.584115,79.3682824 205.635703,78.4363027 C205.158245,78.208072 204.826021,76.4257856 205.195915,75.9094307 C206.370953,74.2718869 207.652194,74.8699148 208.942511,76.3854028" id="Fill-94" fill="#231F20"></path>
                <path d="M141.943071,260.811213 C143.030968,262.032224 143.994054,262.635697 144.176959,263.420665 C144.520076,264.889418 143.323253,265.757421 142.088759,265.568211 C141.348064,265.454777 140.409939,264.329958 140.245643,263.520488 C140.122648,262.9152 141.094357,262.08758 141.943071,260.811213" id="Fill-96" fill="#231F20"></path>
                <path d="M187.116536,277.169317 C185.306551,277.007332 184.017595,276.075806 184.908064,274.279454 C185.548003,272.988113 187.066611,272.12737 188.950121,274.043056 C188.318351,275.083933 187.657988,276.172906 186.994448,277.262787 C186.991271,277.264149 187.116536,277.169317 187.116536,277.169317" id="Fill-98" fill="#231F20"></path>
                <path d="M107.538064,280.550216 C106.583147,282.255367 105.920968,283.437357 104.681483,285.649788 C103.982995,283.72775 103.313555,282.82844 103.45879,282.088845 C103.761967,280.543864 104.991921,280.075152 107.538064,280.550216" id="Fill-100" fill="#231F20"></path>
                <path d="M135.995492,312.726249 C134.905779,313.545248 134.121059,314.575689 133.47885,314.494016 C132.82711,314.410982 132.315159,313.228992 131.741936,312.528419 C132.455401,311.951263 133.101694,311.120013 133.911831,310.905395 C134.312587,310.799674 135.014251,311.830115 135.995492,312.726249" id="Fill-102" fill="#231F20"></path>
                <path d="M146.578275,255.519664 C144.89764,253.923864 143.99764,252.686972 145.537579,251.362508 C146.015946,250.951875 147.534554,250.916029 147.864962,251.308967 C149.401271,253.13209 147.665265,254.03866 146.578275,255.519664" id="Fill-104" fill="#231F20"></path>
                <path d="M205.830635,254.691954 C206.493722,256.175226 207.220802,257.023718 207.045613,257.594068 C206.795537,258.404899 205.881467,259.011094 205.251513,259.704861 C204.69236,259.120445 203.573147,258.376314 203.68525,257.983376 C203.966641,256.999216 204.804917,256.174319 205.830635,254.691954" id="Fill-106" fill="#231F20"></path>
                <path d="M254.077852,139.311548 C253.058033,140.278466 252.402209,141.39784 251.656067,141.46091 C250.969834,141.518988 250.187383,140.441358 249.447141,139.864202 C250.148351,139.185409 250.751982,138.22076 251.587534,137.935358 C252.089955,137.763391 252.9541,138.651812 254.077852,139.311548" id="Fill-108" fill="#231F20"></path>
                <path d="M70.2712103,339.486182 C68.0463994,338.875449 66.3948109,338.346844 67.6896672,336.651221 C68.076354,336.145302 69.2513918,336.241041 70.0651589,336.060453 L70.2712103,339.486182 Z" id="Fill-110" fill="#231F20"></path>
                <path d="M100.828185,298.710844 C100.421982,300.44821 100.15466,302.152 97.8499697,301.598892 C97.3847655,301.486819 96.7262179,300.333868 96.8641906,299.872416 C97.4955068,297.753001 98.9737216,297.827414 100.828185,298.710844" id="Fill-112" fill="#231F20"></path>
                <path d="M71.4297731,342.357941 C70.7226626,343.202349 70.0164599,344.047211 69.3846899,344.802232 C68.8314372,344.639794 68.49059,344.637979 68.302239,344.468281 C67.2960363,343.560803 66.8857489,342.354311 68.0857489,341.522154 C68.8110136,341.019411 70.0414221,341.244466 71.0449017,341.141921 C71.1733434,341.547563 71.3017852,341.952298 71.4297731,342.357941" id="Fill-114" fill="#231F20"></path>
                <path d="M139.738502,242.463599 C140.620348,243.573445 141.614297,244.340717 141.484493,244.762694 C141.228971,245.595305 140.350756,246.235985 139.729425,246.956522 C139.158926,246.38345 138.108245,245.789959 138.130938,245.240481 C138.162708,244.450522 138.975113,243.69187 139.738502,242.463599" id="Fill-116" fill="#231F20"></path>
                <path d="M147.993041,280.334872 C146.039183,278.525361 145.654766,277.232205 146.939183,276.184976 C147.512405,275.717625 148.709228,276.014824 150.660363,275.908195 C149.475794,277.8747 148.811346,278.977285 147.993041,280.334872" id="Fill-118" fill="#231F20"></path>
                <path d="M93.5420424,326.155378 C91.8872769,327.014306 90.9945386,327.645457 90.0051286,327.89093 C89.7024054,327.96625 88.6780484,326.662205 88.7665507,326.536065 C89.2775946,325.804638 89.9352345,324.954785 90.7181392,324.712035 C91.2350832,324.552319 92.0465809,325.347269 93.5420424,326.155378" id="Fill-120" fill="#231F20"></path>
                <path d="M253.087262,127.993803 C251.768805,128.703904 250.976369,129.429432 250.171225,129.443498 C249.740968,129.451212 248.826445,128.119488 248.95534,127.59542 C249.144599,126.82724 250.0741,126.241009 250.688169,125.577189 C251.339909,126.234203 251.992557,126.891217 253.087262,127.993803" id="Fill-122" fill="#231F20"></path>
                <path d="M239.285356,124.900891 C240.041483,127.109239 239.866747,128.454121 238.157519,128.622004 C237.329228,128.703223 236.403359,127.788032 234.530741,126.802511 C236.778245,125.903654 237.897458,125.455814 239.285356,124.900891" id="Fill-124" fill="#231F20"></path>
                <path d="M98.4684418,318.345216 C100.023812,317.128742 101.366778,316.606034 102.536823,318.155553 C102.76239,318.454113 102.331225,319.63701 101.876006,319.991834 C100.063298,321.405231 99.2645083,320.076683 98.4684418,318.345216" id="Fill-126" fill="#231F20"></path>
                <path d="M105.559107,313.300501 C104.310998,314.013779 103.511301,314.806007 102.706611,314.810998 C102.18649,314.814628 101.659561,313.664853 101.135356,313.031434 C101.854266,312.497837 102.527791,311.653429 103.307519,311.540448 C103.829002,311.464674 104.502073,312.428869 105.559107,313.300501" id="Fill-128" fill="#231F20"></path>
                <path d="M75.2193041,329.480468 C74.076944,330.289484 73.3730106,331.138883 72.6009985,331.205129 C72.1289864,331.245512 70.993888,329.832569 71.1382148,329.508146 C71.4749773,328.749948 72.3264145,328.030772 73.1279274,327.753991 C73.4828442,327.631935 74.2208169,328.62154 75.2193041,329.480468" id="Fill-130" fill="#231F20"></path>
                <path d="M142.953177,309.193347 C141.666944,310.119428 140.95121,310.986977 140.144705,311.082716 C139.663162,311.139433 139.038654,309.984668 138.478593,309.374389 C139.073601,308.855766 139.621407,308.007728 140.277231,307.913804 C140.90174,307.823963 141.639713,308.522267 142.953177,309.193347" id="Fill-132" fill="#231F20"></path>
                <path d="M205.332027,253.048058 C204.05941,251.654625 203.635961,250.389601 205.371513,249.302443 C205.773177,249.050618 207.024917,249.353715 207.244584,249.753459 C208.279834,251.640106 206.977716,252.356106 205.332027,253.048058" id="Fill-134" fill="#231F20"></path>
                <path d="M134.406536,234.506788 C135.333767,235.735513 136.21062,236.38799 136.162965,236.964692 C136.105779,237.667534 135.270227,238.305944 134.771437,238.972033 C134.128321,238.481541 132.979607,238.011014 132.959637,237.49602 C132.928775,236.711959 133.679455,235.897498 134.406536,234.506788" id="Fill-136" fill="#231F20"></path>
                <path d="M184.937655,233.231101 C184.741135,236.028402 183.980923,237.018006 182.338865,236.508004 C181.777443,236.333768 181.505129,235.229821 181.100741,234.551028 C182.194992,234.174425 183.28879,233.798275 184.937655,233.231101" id="Fill-138" fill="#231F20"></path>
                <path d="M188.298608,225.386818 C189.889834,224.107274 191.21056,224.015619 192.101029,225.644995 C192.314342,226.036118 191.640363,227.353776 191.068048,227.647799 C189.219486,228.597928 188.94944,226.964922 188.298608,225.386818" id="Fill-140" fill="#231F20"></path>
                <path d="M192.996309,114.905341 C194.853495,114.585455 196.169228,114.981569 196.155613,116.937184 C196.152436,117.42223 194.919304,118.380981 194.386475,118.294317 C192.34003,117.960819 192.482995,116.522012 192.996309,114.905341" id="Fill-142" fill="#231F20"></path>
                <path d="M152.212466,288.428576 C151.493555,289.331516 151.051044,290.39508 150.460121,290.485374 C149.877368,290.574761 149.143933,289.678173 148.477216,289.213998 C149.082663,288.565605 149.601422,287.763848 150.338487,287.34777 C150.613979,287.192137 151.39643,287.934908 152.212466,288.428576" id="Fill-144" fill="#231F20"></path>
                <path d="M252.873631,118.88091 C251.589213,119.649998 250.82174,120.260277 249.950333,120.523899 C249.735204,120.589237 248.729909,119.280654 248.866974,119.030644 C249.225976,118.376806 249.952148,117.717977 250.656082,117.534213 C251.094054,117.419871 251.757141,118.165818 252.873631,118.88091" id="Fill-146" fill="#231F20"></path>
                <path d="M246.795749,209.489122 C246.078654,208.292613 245.180015,207.340668 245.371543,206.999003 C245.765038,206.295708 246.696808,205.797502 247.511029,205.493497 C247.712995,205.418177 248.753238,206.561599 248.64295,206.874679 C248.356112,207.690047 247.643101,208.356136 246.795749,209.489122" id="Fill-148" fill="#231F20"></path>
                <path d="M244.017186,211.578363 C243.067716,212.327032 242.356067,213.29032 241.833222,213.197303 C241.194191,213.083415 240.714463,212.082013 240.166203,211.464475 C240.819304,211.008013 241.429743,210.312885 242.1423,210.18357 C242.572103,210.105526 243.161664,210.907283 244.017186,211.578363" id="Fill-150" fill="#231F20"></path>
                <path d="M128.780287,214.082775 C128.071815,215.443084 127.282103,216.724897 125.499349,215.733477 C125.158956,215.544268 124.994206,214.228879 125.286944,213.855452 C126.395265,212.442509 127.656536,212.27644 128.780287,214.082775" id="Fill-152" fill="#231F20"></path>
                <path d="M63.7771407,344.632398 C61.50059,343.601957 60.6663994,342.738946 61.7129955,341.504776 C62.0860666,341.065103 63.2325113,341.279721 64.0254009,341.195779 C63.9523298,342.208071 63.8792587,343.220362 63.7771407,344.632398" id="Fill-154" fill="#231F20"></path>
                <path d="M132.412511,222.959042 C131.442163,223.706804 130.859864,224.446398 130.151846,224.596586 C129.692995,224.69414 129.051241,223.931405 128.490726,223.553894 C129.144281,222.884629 129.722042,222.088771 130.498139,221.625957 C130.722345,221.492104 131.516596,222.313826 132.412511,222.959042" id="Fill-156" fill="#231F20"></path>
                <path d="M194.463359,254.119471 C194.708442,255.840503 194.667595,257.041096 192.986051,257.071497 C192.621604,257.077849 191.959879,256.346876 191.923116,255.914462 C191.78469,254.280095 192.83174,253.983803 194.463359,254.119471" id="Fill-158" fill="#231F20"></path>
                <path d="M244.491422,126.856778 C243.841952,125.833143 243.318654,125.197001 243.062678,124.466935 C243.000045,124.28907 244.016687,123.430142 244.190968,123.52452 C244.889002,123.901577 245.451331,124.531366 246.064039,125.067686 C245.638321,125.551825 245.213056,126.035965 244.491422,126.856778" id="Fill-160" fill="#231F20"></path>
                <path d="M95.6491225,336.645867 C94.6633434,337.230283 93.8990469,337.978952 93.563646,337.821051 C92.8855825,337.499804 92.4408018,336.687157 91.8993495,336.077332 C92.446702,335.657624 93.0866415,334.820476 93.5200756,334.915761 C94.1940545,335.065041 94.7286989,335.84774 95.6491225,336.645867" id="Fill-162" fill="#231F20"></path>
                <path d="M204.463298,115.736636 C203.815643,116.626418 203.577368,117.230798 203.136218,117.489883 C202.568442,117.823835 201.837731,117.880552 200.571014,118.21768 C200.914584,116.832869 200.880545,115.472106 201.422905,115.180352 C202.046505,114.845039 203.17888,115.455318 204.463298,115.736636" id="Fill-164" fill="#231F20"></path>
                <path d="M72.672118,324.878375 C72.257292,324.087055 71.842466,323.29528 71.4276399,322.50396 L73.342466,321.901394 C73.581649,322.713133 73.8212859,323.524419 74.0609228,324.336157 C73.5979879,324.516746 73.135053,324.697787 72.672118,324.878375" id="Fill-166" fill="#231F20"></path>
                <path d="M110.437171,296.952606 C109.586641,297.474859 109.035658,297.813349 108.484675,298.152292 C108.14292,297.595554 107.800711,297.038816 107.458956,296.482532 C108.03354,296.164008 108.586339,295.679868 109.192693,295.599556 C109.476808,295.561442 109.864402,296.301037 110.437171,296.952606" id="Fill-168" fill="#231F20"></path>
                <path d="M225.581891,85.2838127 C225.042254,84.4512018 224.393691,83.8926492 224.4359,83.3917214 C224.477201,82.8957848 225.215174,82.4583805 225.648154,81.9951131 C226.15239,82.5359698 226.84997,83.0096733 227.070545,83.6485376 C227.166762,83.9271333 226.283555,84.542857 225.581891,85.2838127" id="Fill-170" fill="#231F20"></path>
                <path d="M107.492405,309.716236 C106.744902,310.412271 106.350045,311.067017 105.961089,311.063841 C105.537186,311.060211 104.973041,310.513909 104.766082,310.066522 C104.676218,309.87323 105.279849,309.089623 105.652012,309.019747 C106.081815,308.938981 106.603298,309.350976 107.492405,309.716236" id="Fill-172" fill="#231F20"></path>
            </g>
        </g>
    </g>
</svg>