<?xml version="1.0" encoding="UTF-8"?>
<svg width="75px" height="75px" viewBox="0 0 75 75" version="1.1" xmlns="http://www.w3.org/2000/svg" xmlns:xlink="http://www.w3.org/1999/xlink">
    <!-- Generator: Sketch 53.2 (72643) - https://sketchapp.com -->
    <title>Artboard</title>
    <desc>Created with Sketch.</desc>
    <g id="Artboard" stroke="none" stroke-width="1" fill="none" fill-rule="evenodd">
        <g id="Group-5" transform="translate(38.000000, 37.500000) scale(-1, 1) rotate(-255.000000) translate(-38.000000, -37.500000) translate(9.000000, 0.000000)">
            <path d="M15.1062623,35.9411708 C13.1181204,35.2484761 12.8990242,34.9083798 13.4928793,33.2494301 C13.7979447,32.3959049 14.1355616,31.5220374 14.6325971,30.776792 C16.6929363,27.6890139 18.7970949,24.6306897 20.9348482,21.5975813 C21.5885896,20.6694679 22.264658,19.777801 22.8176152,18.5526066 C21.5994401,18.7668355 20.6516923,18.9579675 19.6966414,19.0973964 C16.205082,19.6067993 12.6920304,19.9916061 9.22300663,20.6262407 C5.24755757,21.3530509 3.28758523,24.6414965 4.3605308,28.6222128 C5.29283746,32.0812363 6.31862517,35.5154676 7.36903513,38.9397398 C7.53805223,39.4910985 7.95350043,40.0945841 8.42653964,40.3933603 C9.53433195,41.0928357 9.86548026,42.0203134 9.71482551,43.2643667 C9.65660851,43.7445276 9.76407,44.2439713 9.77575513,44.7351509 C9.86276764,48.4437902 10.8247045,52.153489 9.77283385,55.8608569 C9.4091341,57.14284 8.99305991,58.4108378 8.67651801,59.7044753 C8.51668209,60.3566974 8.23665623,61.2233604 8.50958755,61.6965287 C9.54601708,63.4938478 10.3956932,65.4867487 12.4092919,66.5083091 C13.0192141,66.8178922 13.60827,67.2734729 14.0531397,67.7970729 C16.0256318,70.1175683 18.6887987,70.7746641 21.4984471,71.1158199 C23.0986843,71.3101304 24.5109161,71.00754 25.6391574,69.6874153 C26.4107934,68.7843059 27.3191038,68.0034616 28.1500002,67.150784 C30.4444595,64.7968087 32.7326589,62.4360528 35.017937,60.0727541 C35.9009991,59.1594736 36.9322121,58.8818872 38.2098561,58.8837942 C42.3795705,58.8901512 46.5194461,58.5458169 50.6319868,57.7189908 C54.0607386,57.0298984 55.3052052,53.2968908 54.1218769,50.0018764 C53.8798277,50.1535954 53.6605228,50.3017121 53.4314107,50.4333008 C51.2008024,51.7140125 49.0703523,53.2220908 46.5248713,53.8164648 C45.4498391,54.0677758 44.3370389,54.2258518 43.2357152,54.2688671 C42.0868162,54.3137894 41.4291102,53.7064897 41.3615033,52.7425655 C41.2901406,51.7237598 41.8103376,51.1641371 42.7735264,50.985719 C43.1138559,50.9227853 43.4506381,50.8280668 43.7936802,50.7937394 C46.4608118,50.5269597 48.853134,49.3723274 51.2575587,48.3204656 C53.1186248,47.5063533 54.6735821,45.0303249 54.2633504,43.4707554 C53.7844687,41.6503394 53.101723,39.8610724 52.2935709,38.1631335 C51.7723305,37.0682564 50.8999102,36.123615 49.7355702,35.6057362 C47.0073004,39.371588 43.534312,42.0103541 39.7510417,44.2738489 C39.3954798,44.4865945 38.9986026,44.6548416 38.5994301,44.7603668 C37.6654542,45.0070161 36.9486965,44.685143 36.5574532,43.7720744 C36.1685052,42.864727 36.3517114,42.1048607 37.2518839,41.6263949 C37.8027545,41.3335518 38.3765779,41.0835122 38.9472715,40.8313535 C41.3216487,39.7828821 43.479225,38.4407199 45.2388808,36.4550235 C46.232743,35.333871 46.8620709,34.1029554 46.6260729,32.626238 C46.4307643,31.4046459 46.1761953,30.0963874 45.5646038,29.0593585 C44.3639564,27.0240779 42.934823,25.1049175 40.3791175,24.4081967 C39.6366943,25.5410036 38.9785709,26.6127838 38.2549274,27.6364632 C35.6017763,31.3885416 33.1600009,35.294458 29.8485177,38.546669 C28.6860557,39.6885874 27.6901068,40.8463983 26.026436,41.2418 C25.4367542,41.3820765 24.8833797,41.6111383 24.5576566,41.0576606 C24.3049656,40.6281433 24.1902009,39.9723189 24.3131035,39.4966078 C24.4416399,38.9980118 24.8942302,38.5642565 25.2618945,38.1542338 C26.2344731,37.0688921 27.3604191,36.1032728 28.2071739,34.9276625 C31.6868395,30.0982945 35.1172606,25.2316325 38.5034451,20.3342452 C41.3350031,16.2386801 44.0457452,12.0606867 45.6610062,7.27391017 C45.8604881,6.68335036 46.0345131,6.05634409 46.0610133,5.43929703 C46.0991986,4.55589415 45.4972056,4.14629526 44.7076245,4.23296155 C44.177203,4.29123351 43.6085961,4.51309074 43.1716556,4.82648793 C41.7039195,5.87919734 40.2257502,6.93254245 38.8629716,8.11747623 C34.6590365,11.7725053 30.5074758,15.5048772 26.9209747,19.7956004 C24.3312572,22.8939734 21.9489507,26.1754263 19.5507859,29.4333585 C18.0210769,31.5120782 16.6315894,33.6969588 15.1062623,35.9411708 M42.6543798,21.032873 C43.1564232,21.4267915 43.576462,21.7694306 44.0092292,22.0944821 C46.4518393,23.9295191 48.5269936,26.0713844 49.5369229,29.0682582 C50.0867502,30.6996611 51.5551123,31.5483127 52.6247192,32.6796363 C55.2332164,35.4389725 56.7065865,38.6661794 57.3849502,42.3430341 C57.5116086,43.0293718 57.7384254,43.8566217 57.4886557,44.4234489 C56.8200992,45.9410626 57.3371663,47.3169165 57.6906416,48.7152316 C58.2991031,51.122817 57.9126591,53.4674687 57.3680484,55.804704 C57.1047156,56.9345443 56.4084069,57.768363 55.5662427,58.5735755 C52.3373902,61.660506 48.290161,62.1330386 44.1715691,62.4195248 C42.3739366,62.5445446 40.5656623,62.5422137 38.7747071,62.7242341 C37.0770243,62.8965072 35.6466388,63.5701311 34.4814642,64.9974762 C32.2740174,67.7015069 29.9413728,70.3044623 27.5742988,72.867369 C26.3859625,74.1542257 24.9672622,75.2065113 23.057995,74.9653714 C20.7902446,74.6790972 18.4521748,74.5947617 16.2908426,73.9319447 C14.7012472,73.4443673 13.3069605,72.2248942 11.8943114,71.2306686 C8.82446014,69.0693087 6.60136365,66.09087 4.50951624,63.017501 C4.0055949,62.2771293 3.76959695,61.4036856 4.12954077,60.4175122 C4.99590989,58.0442542 6.0223236,55.688372 6.50996922,53.2286596 C6.91206298,51.2001598 6.64100964,49.0324429 6.64643488,46.9263884 C6.6468522,46.7358921 6.52687093,46.5106445 6.39749982,46.3591374 C4.34237711,43.9574851 3.93172817,40.9004323 3.11314289,37.9967936 C2.46440937,35.695581 1.59261501,33.4551831 1.0206695,31.136383 C0.535736491,29.1706049 0.267187103,27.140198 0.0355710805,25.122505 C-0.151599705,23.4904664 0.40031415,22.059519 1.68108815,20.9773557 C1.73429724,20.9322215 1.78500237,20.8830611 1.83299488,20.8319937 C6.1658838,16.2041407 4.65328511,17.0612683 11.5132926,16.2066835 C13.9899148,15.8983719 16.4604857,15.5383571 18.9379424,15.2349191 C21.0748611,14.9732251 23.2236735,14.8020115 25.3541236,14.4966664 C25.9849121,14.4061859 26.7043824,14.1398301 27.1565553,13.7090414 C30.6418548,10.3894469 34.006547,6.9369923 37.5515241,3.68626463 C38.8698575,2.47759827 40.5934145,1.73404809 42.0895288,0.714606668 C45.340917,-1.50121103 50.0249859,1.82643563 49.8482483,5.3570806 C49.7789721,6.73886765 49.6139196,8.18740258 49.1271086,9.46175733 C47.5706907,13.5367683 45.3941261,17.2837612 42.6543798,21.032873" id="Fill-33" fill="#231F20"></path>
            <path d="M14.0329779,57.0806126 C14.11202,57.1119979 14.191062,57.1433833 14.2701041,57.1747686 C14.2701041,57.3859835 14.1944345,57.6396111 14.2835939,57.800567 C14.6020806,58.3731376 14.8678727,59.1310514 15.3705801,59.3867996 C15.6770524,59.542666 16.4042392,58.9410428 16.8961968,58.6102242 C17.1021277,58.471747 17.2332321,58.1682846 17.3211269,57.9129605 C17.9146799,56.1893111 18.5086545,54.4652375 19.0594194,52.7273798 C19.3958224,51.6647312 19.1199129,51.0066992 18.2453918,50.6347404 C17.3263963,50.2432718 16.5515735,50.4502454 16.1696424,51.4051659 C15.41927,53.2817129 14.7409839,55.1871005 14.0329779,57.0806126 M18.0645436,60.170585 C18.2692098,60.7501537 18.382398,61.3174227 18.6547242,61.7926562 C19.2876929,62.8977174 20.1282786,62.9341923 20.9728692,61.9124719 C21.2283331,61.6037079 21.3868387,61.204393 21.5487168,60.8290412 C21.9310695,59.9434654 22.3047803,59.0536483 22.6515114,58.1538643 C23.0039335,57.2392358 23.5260325,56.3224867 23.578938,55.3838951 C23.6135057,54.7703964 23.0933037,53.8581006 22.5545531,53.5442471 C21.8183029,53.1154554 21.0968071,53.6657593 20.7041262,54.4482724 C20.0445994,55.7632761 19.3743229,57.0734024 18.7424082,58.4015541 C18.4734544,58.9669145 18.2904985,59.572991 18.0645436,60.170585 M22.6749078,62.0869999 C22.7265486,62.5024317 22.6538299,63.000356 22.8589177,63.3144215 C23.1780367,63.802591 23.654186,64.4495957 24.1225364,64.5021874 C24.5873036,64.554567 25.4489673,64.0524014 25.5748022,63.6257303 C26.1734139,61.5943772 27.6029156,60.3160604 29.1612031,59.0945765 C29.6584302,58.7050165 30.2081413,58.2376292 29.8422293,57.5087681 C29.4491269,56.7260429 28.7156168,56.3460257 27.9133928,56.7400391 C26.6126769,57.3785613 25.2889862,58.0418949 24.1533101,58.9261983 C23.213026,59.6582404 22.6601533,60.7828114 22.6749078,62.0869999 M15.1482085,35.7443007 C16.6890013,33.4983397 18.0925772,31.3115442 19.6377964,29.2314166 C22.0602769,25.9709453 24.4667382,22.686723 27.0827136,19.5859353 C30.7055792,15.2918681 34.8992338,11.5567995 39.1457938,7.89892186 C40.52239,6.71285254 42.0155468,5.65889858 43.4981648,4.60536875 C43.9395355,4.29151525 44.5139077,4.06948511 45.0497073,4.0113798 C45.8472942,3.92464597 46.455391,4.33435201 46.4168185,5.21844338 C46.3900496,5.83618339 46.2142601,6.46367832 46.0127556,7.05469838 C44.381117,11.8449934 41.64289,16.0262429 38.7826219,20.1249999 C35.362104,25.026416 31.8969009,29.8968708 28.381954,34.7300026 C27.5266137,35.906317 26.3892514,36.8729009 25.4068115,37.9590885 C25.0354193,38.3694307 24.5782402,38.8033119 24.4484004,39.3025087 C24.3242517,39.7785905 24.4401801,40.434926 24.6954332,40.864566 C25.0244588,41.418687 25.5834441,41.1892347 26.179105,41.0488489 C27.8596442,40.6533511 28.8656913,39.4944258 30.0399398,38.3518295 C33.384999,35.0970839 35.8515323,31.1879114 38.5315844,27.4329088 C39.2625652,26.4084316 39.9273615,25.3360282 40.6773124,24.2023385 C43.2589308,24.8996022 44.7025547,26.8202583 45.9153758,28.8571251 C46.5331684,29.8949622 46.7903185,31.2042403 46.9876074,32.4267845 C47.226209,33.9046527 46.5902894,35.1365277 45.5863501,36.2585539 C43.8088527,38.2457979 41.6294001,39.589006 39.2309484,40.6382946 C38.6544685,40.8904377 38.0750376,41.1408843 37.5183708,41.4339556 C36.6090712,41.9127942 36.4240074,42.6732528 36.8168991,43.5813073 C37.2121093,44.4948754 37.9361344,44.8172114 38.8795802,44.5703699 C39.2828,44.4647624 39.6837012,44.2963843 40.0428683,44.0834729 C43.8644983,41.818002 47.3727002,39.1773914 50.1286327,35.4086047 C51.3047783,35.9268871 52.1860444,36.8722647 52.7125698,37.9679951 C53.528916,39.6672573 54.2185841,41.4579187 54.7023214,43.2797534 C55.1167125,44.8403263 53.5459891,47.3184965 51.6660531,48.1332432 C49.2372493,49.1857128 46.8206706,50.341457 44.1264963,50.6082325 C43.779976,50.6427988 43.439779,50.737591 43.0959988,50.8005738 C42.123044,50.979131 41.5975725,51.5391898 41.6696589,52.5587896 C41.7379512,53.5234649 42.4023259,54.131238 43.5628738,54.0862806 C44.6753642,54.0432318 45.7994474,53.8850326 46.8853797,53.6335257 C49.45667,53.0384765 51.6087213,51.5292229 53.8619464,50.2475131 C54.0933815,50.1160339 54.31491,49.9678017 54.5594134,49.8159645 C55.7547399,53.1135468 54.4976552,56.8494637 51.0341384,57.5390931 C46.8798995,58.3663516 42.6980485,58.7109542 38.4860562,58.7048044 C37.1954578,58.7026838 36.153789,58.9806986 35.2617733,59.8946908 C32.9533241,62.2598314 30.641924,64.6222151 28.3242006,66.978237 C27.4848795,67.8313671 26.5673595,68.6130319 25.7878996,69.5168452 C24.6482187,70.8379987 23.221668,71.1408249 21.6052055,70.946363 C18.7670693,70.6047293 16.0768997,69.9473334 14.084408,67.6250296 C13.6350276,67.1010215 13.0399991,66.6450857 12.4238928,66.3352614 C10.3898776,65.3126928 9.53158638,63.3184507 8.48464819,61.5197309 C8.20894955,61.0459818 8.49181467,60.1786434 8.65327121,59.525913 C8.97302262,58.2314794 9.3933155,56.9622813 9.76070291,55.6795112 C10.8232387,51.9690419 9.85154856,48.256664 9.76365381,44.5451344 C9.7518502,44.0533599 9.64329913,43.5537391 9.70210641,43.0729918 C9.85428869,41.828181 9.51978277,40.8999805 8.40075824,40.1997479 C7.92292275,39.9007389 7.50326221,39.296995 7.3325314,38.7452066 C6.27147103,35.3182658 5.23528256,31.881358 4.29352299,28.4196388 C3.20969852,24.43582 5.18954357,21.1448117 9.20530083,20.4172229 C12.709498,19.7823058 16.2581695,19.3971991 19.7851308,18.8871871 C20.7498652,18.7476496 21.7072224,18.5565807 22.9377489,18.3421848 C22.3791852,19.568122 21.6962619,20.4604838 21.035892,21.3893205 C18.8764635,24.4250048 16.7509703,27.4855005 14.6697406,30.5758971 C14.1676656,31.3215112 13.8266255,32.1960597 13.5184669,33.0504622 C12.9185905,34.7107048 13.1399083,35.0510662 15.1482085,35.7443007" id="Fill-140" fill="#FEFEFE"></path>
            <path d="M22.0002767,62.5575867 C21.9861025,61.2407573 22.5172311,60.1052864 23.4205345,59.3661489 C24.5115451,58.4732744 25.783176,57.8035114 27.0327355,57.1585861 C27.8034086,56.7609679 28.5080703,57.1446684 28.8857122,57.9347661 C29.2372331,58.6709058 28.7091418,59.1428232 28.2314703,59.5361591 C26.7344692,60.7692682 25.3611889,62.0601892 24.7861202,64.1112313 C24.6652343,64.542038 23.8374593,65.0490708 23.3909711,64.9961835 C22.9410405,64.9430821 22.4836179,64.2898063 22.1770496,63.7966911 C21.9800278,63.4797956 22.0498865,62.9770451 22.0002767,62.5575867" id="Fill-164" fill="#231F20"></path>
            <path d="M18,60.3204134 C18.24578,59.6748344 18.4447885,59.0198626 18.7373401,58.4093345 C19.4246988,56.9745362 20.1540143,55.5592106 20.8711784,54.1386159 C21.2983129,53.2932693 22.0831123,52.6985485 22.8839609,53.1620001 C23.4699811,53.500826 24.0358255,54.4866055 23.9982248,55.1493664 C23.9406774,56.1633242 23.3727696,57.1536855 22.9894262,58.1415268 C22.6122731,59.1135609 22.2057731,60.0750567 21.7898729,61.0315126 C21.6137917,61.4372331 21.4413789,61.8686119 21.1635007,62.2021687 C20.2448062,63.3057011 19.3304678,63.2662974 18.6419627,62.0725031 C18.3457428,61.5593388 18.2226235,60.9462907 18,60.3204134" id="Fill-165" fill="#231F20"></path>
            <path d="M14,57.919349 C14.8224114,56.2295607 15.6103007,54.5291746 16.4819246,52.8545262 C16.9255713,52.002346 17.8255965,51.8176407 18.8930909,52.1669911 C19.9089245,52.4989307 20.2294176,53.0861647 19.8386559,54.0344825 C19.1988938,55.5853633 18.5089398,57.123943 17.8194755,58.6621442 C17.717378,58.8899979 17.5650886,59.1608106 17.3258817,59.284389 C16.7544295,59.5796147 15.9097378,60.116509 15.553743,59.9774123 C14.969804,59.7491802 14.6610631,59.0728107 14.2911126,58.5618432 C14.187546,58.4182046 14.2754429,58.191865 14.2754429,58.0033747 C14.1836286,57.9753662 14.0918143,57.9473576 14,57.919349" id="Fill-166" fill="#231F20"></path>
        </g>
    </g>
</svg>