<?xml version="1.0" encoding="UTF-8"?>
<svg width="378px" height="347px" viewBox="0 0 378 347" version="1.1" xmlns="http://www.w3.org/2000/svg" xmlns:xlink="http://www.w3.org/1999/xlink">
    <!-- Generator: Sketch 53.2 (72643) - https://sketchapp.com -->
    <title>lightbulb</title>
    <desc>Created with Sketch.</desc>
    <defs>
        <polygon id="path-1" points="0.726193308 0.32268711 41.926 0.32268711 41.926 17.1943 0.726193308 17.1943"></polygon>
    </defs>
    <g id="lightbulb" stroke="none" stroke-width="1" fill="none" fill-rule="evenodd">
        <g id="Group-50">
            <path d="M209.7753,181.7407 C213.9533,176.8587 214.2723,171.5767 211.0803,165.3097 C207.5183,170.8007 207.8463,176.1497 209.7753,181.7407 M164.7503,183.9017 C170.6573,174.5867 170.0813,168.1937 163.3603,162.0327 C158.7643,169.3627 158.9723,174.1487 164.7503,183.9017 M125.1213,202.4827 C118.6383,189.8647 118.2593,189.5247 102.8513,181.7417 C103.4823,196.5687 116.3933,197.3137 125.1213,202.4827 M244.9873,198.9097 C262.2213,190.9757 263.5573,185.5557 259.1593,164.7217 C256.0193,170.9017 252.9803,176.1397 250.6543,181.6777 C248.5333,186.7307 247.1833,192.1077 244.9873,198.9097 M218.8133,314.1317 C206.7253,322.5047 193.6303,320.2277 179.8823,318.9727 C186.3013,329.5597 195.8683,330.0867 206.0383,329.5547 C215.6423,329.0527 216.5553,321.4827 218.8133,314.1317 M172.9003,288.4947 C179.1663,301.0637 187.7953,305.4547 201.0443,303.8457 C210.6013,302.6847 217.0733,296.7947 219.0743,286.5227 C204.0313,290.8527 189.1433,292.3117 172.9003,288.4947 M201.0723,206.3227 C190.3533,211.7867 180.2083,215.0447 168.8553,211.9567 C166.9263,211.4317 164.1723,212.0947 162.4113,213.1907 C158.8473,215.4077 155.7023,218.2987 153.1793,220.2847 C156.1263,232.5767 158.4783,244.1757 161.7553,255.5057 C164.4533,264.8277 169.9873,271.7587 180.3813,274.0627 C191.0203,276.4217 201.3513,276.3607 210.5063,273.4577 C213.5923,269.4397 216.0663,266.4547 218.2533,263.2727 C219.3033,261.7447 220.3993,259.8727 220.4763,258.1127 C221.0313,245.5387 221.3283,232.9547 221.7143,220.1247 C218.3963,218.2967 214.8083,216.6237 211.5583,214.4467 C208.0153,212.0727 204.7853,209.2317 201.0723,206.3227 M237.9263,256.1767 C247.9073,254.1797 257.2563,251.3417 264.3103,244.8717 C272.8363,237.0527 280.6353,228.0227 284.8173,217.0187 C289.2913,205.2457 293.1513,193.1517 296.1263,180.9177 C301.3113,159.5907 296.9043,139.1887 287.0043,120.1337 C283.5773,113.5377 278.3093,107.4057 272.5993,102.5797 C254.2293,87.0577 231.3343,83.4227 208.5363,81.1867 C193.1493,79.6777 177.6943,81.0527 162.3803,85.1077 C134.5273,92.4837 109.1923,103.9597 89.5013,125.5947 C83.7533,131.9097 77.8053,138.6017 74.2213,146.1937 C69.1693,156.8937 65.6693,168.4387 62.5113,179.8997 C56.2943,202.4677 62.9323,222.0417 78.9593,238.2617 C91.0283,250.4777 106.3893,258.0167 122.1103,264.4517 C130.7323,267.9817 139.9103,268.2017 149.4803,266.4157 C148.3663,261.8717 147.6203,257.9717 146.4443,254.2067 C143.5833,245.0507 140.5033,235.9627 137.5523,226.8337 C136.4213,223.3337 134.2123,221.5137 130.4733,220.8067 C118.4393,218.5317 108.2763,212.2187 98.5983,205.1147 C92.7323,200.8077 89.3413,194.6767 87.6393,187.7247 C85.7683,180.0857 89.3583,174.0077 94.4423,168.9707 C99.5573,163.9037 105.8063,165.3597 111.1043,168.4977 C121.0803,174.4077 130.8923,180.6807 137.1253,191.0577 C140.1453,196.0847 143.5393,200.8877 147.1523,206.3837 C150.1933,204.3217 152.5493,202.7247 154.5173,201.3907 C151.5253,194.5937 148.5413,188.6747 146.2803,182.4917 C141.9913,170.7577 146.0773,156.6447 155.5913,149.0727 C159.8163,145.7097 164.4233,144.6517 169.5533,147.0017 C182.8873,153.1117 188.8213,171.4607 181.8193,184.3867 C179.8573,188.0087 178.6253,192.0257 176.9223,196.1917 C186.5813,197.1427 186.9543,197.0497 194.7873,192.0857 C194.4213,190.9057 194.0303,189.6647 193.6543,188.4187 C189.3683,174.2467 194.2103,161.8767 202.7543,151.2497 C210.2413,141.9367 222.8253,144.0457 225.9413,154.2937 C230.3913,168.9307 231.0343,183.1477 219.6043,195.4357 C218.7643,196.3387 218.2063,197.5027 216.9993,199.3297 C220.1093,201.0997 222.7783,202.6197 226.0363,204.4737 C227.4213,200.9487 228.3533,198.5127 229.3303,196.0957 C234.0533,184.4157 238.3523,172.5327 243.7363,161.1637 C245.8853,156.6267 249.8323,152.3167 254.0333,149.5047 C262.5763,143.7867 269.8173,146.0287 274.4303,155.3617 C276.2673,159.0757 276.9883,163.4907 277.4933,167.6747 C278.0873,172.5907 277.8583,177.6027 278.0493,182.5707 C278.2353,187.4137 277.2003,191.7407 273.5843,195.2947 C265.3523,203.3857 257.8643,212.3407 245.8253,215.3447 C243.3713,215.9567 239.8783,218.6267 239.6023,220.7107 C238.0953,232.0867 234.9233,243.4937 237.9263,256.1767 M240.8793,273.1427 C240.5683,274.6357 240.3653,274.9997 240.4573,275.2587 C245.5473,289.5507 243.8553,303.2407 237.0533,316.5837 C234.6443,321.3087 232.3323,326.1357 230.5563,331.1217 C226.5893,342.2657 210.3503,347.4877 199.6693,346.9387 C176.1943,345.7337 164.0673,334.6367 156.7143,310.7237 C154.2363,302.6657 154.5673,293.7437 153.4763,283.9707 C150.5333,283.6117 146.6873,282.5177 142.9423,282.7947 C127.4053,283.9407 113.3703,279.5437 100.1393,271.9337 C93.8203,268.2997 87.6763,264.3597 81.4353,260.5877 C59.8683,247.5547 47.2373,228.0187 43.2603,203.6987 C40.6593,187.7937 44.3723,171.9357 50.7873,156.9887 C52.2273,153.6337 54.1443,150.4287 55.1633,146.9567 C58.2393,136.4677 64.4833,128.0987 71.4543,119.8967 C101.3973,84.6607 140.7793,68.9267 185.4323,63.1847 C200.9483,61.1907 215.7823,63.4287 230.9523,65.9837 C243.8813,68.1617 255.9423,71.3527 267.6513,77.5957 C285.3773,87.0477 298.5633,100.3057 306.7413,118.4277 C313.0453,132.3967 317.0473,147.5947 315.4653,162.5537 C313.6733,179.5007 311.4393,196.6067 305.1573,213.0387 C299.6923,227.3327 291.4753,239.5017 282.5603,251.4697 C274.5763,262.1867 262.6923,266.5677 250.5273,270.3237 C247.3763,271.2977 244.1953,272.1777 240.8793,273.1427" id="Fill-1" fill="#231F20"></path>
            <path d="M35.1815,284.7319 C31.0655,284.0609 26.7705,283.4919 25.6945,278.7739 C24.6185,274.0619 27.5075,271.4139 31.7225,269.8269 C38.8675,267.1379 45.9415,264.2609 53.0835,261.5639 C55.2435,260.7479 57.5875,259.6169 59.7385,259.8149 C61.7525,260.0009 64.1745,261.3489 65.3615,262.9619 C66.1455,264.0279 65.4975,266.6869 64.7105,268.2349 C63.6835,270.2559 62.2405,272.5459 60.3525,273.5619 C53.6925,277.1419 46.7875,280.2779 39.9215,283.4619 C38.4425,284.1479 36.7305,284.3319 35.1815,284.7319" id="Fill-3" fill="#FAAF3A"></path>
            <path d="M81.3978,76.4282 C74.6418,84.8582 72.1158,86.0282 65.2838,81.1282 C59.5248,76.9972 54.8908,71.2412 50.0308,65.9542 C48.8168,64.6332 48.2928,62.3862 48.0838,60.4952 C47.6648,56.7072 48.2458,53.0652 52.4098,51.4372 C56.5268,49.8282 59.4518,52.1152 61.9058,54.9672 C66.4068,60.1972 70.6668,65.6342 75.1908,70.8432 C76.8688,72.7742 79.0088,74.3052 81.3978,76.4282" id="Fill-5" fill="#F69320"></path>
            <g id="Group-9" transform="translate(336.000000, 140.978000)">
                <mask id="mask-2" fill="white">
                    <use xlink:href="#path-1"></use>
                </mask>
                <g id="Clip-8"></g>
                <path d="M17.2606,17.1943 C14.0576,16.6423 9.9816,16.4703 6.3046,15.1693 C1.9116,13.6143 -0.1934,9.1833 1.1066,5.7093 C2.7386,1.3413 5.9676,-0.1417 10.5836,0.4453 C17.1166,1.2773 23.6956,1.7613 30.2556,2.3843 C30.9156,2.4473 31.5886,2.3983 32.2456,2.4783 C37.9326,3.1713 42.4246,6.1963 41.8816,9.3163 C41.0266,14.2223 37.0236,15.0743 32.8906,15.5123 C27.9416,16.0373 22.9936,16.5763 17.2606,17.1943" id="Fill-7" fill="#FAAF3A" mask="url(#mask-2)"></path>
            </g>
            <path d="M53.0155,119.8281 C42.1125,131.8301 20.2285,129.2191 14.2265,116.9471 C12.5165,113.4491 13.2315,110.5761 15.9305,107.9831 C18.5695,105.4481 21.5835,105.6831 24.0485,107.7211 C30.1965,112.8021 37.1645,114.9861 45.0315,115.5501 C47.5295,115.7291 49.8725,118.0691 53.0155,119.8281" id="Fill-10" fill="#FAAF3A"></path>
            <path d="M111.826,27.893 C112.975,28.474 115.291,28.918 116.368,30.316 C120.987,36.316 125.507,42.43 129.519,48.842 C131.646,52.24 130.852,56.031 127.453,58.627 C123.884,61.354 121.005,58.99 118.744,56.605 C113.723,51.308 108.638,45.99 104.325,40.13 C100.777,35.309 105.197,27.886 111.826,27.893" id="Fill-12" fill="#FAAF3A"></path>
            <path d="M19.4247,171.7988 C22.7407,171.7988 26.1067,171.4468 29.3617,171.8958 C32.7387,172.3618 36.4877,173.9708 36.1077,177.8628 C35.8847,180.1508 33.2227,183.5098 31.0647,184.0598 C23.7097,185.9338 16.1267,187.3758 8.5637,187.8068 C3.0757,188.1198 0.3627,184.6938 0.0257,180.0558 C-0.3703,174.6158 3.9207,173.1378 7.5137,172.2498 C11.2717,171.3198 15.4377,172.0418 19.4247,172.0418 L19.4247,171.7988 Z" id="Fill-14" fill="#FAAF3A"></path>
            <path d="M177.9901,30.4179 C178.0761,31.7309 178.6421,33.2639 178.1591,34.3159 C176.5961,37.7179 176.7761,42.9409 171.5691,43.1549 C167.1441,43.3359 165.8241,39.2739 164.4981,35.9139 C162.4481,30.7179 160.6201,25.4349 158.6911,20.1909 C156.6881,14.7459 158.1981,10.5729 162.8921,8.6059 C166.8001,6.9689 171.2651,8.6029 173.3551,13.4389 C175.6641,18.7819 177.0671,24.5149 178.8641,30.0779 C178.5731,30.1909 178.2821,30.3049 177.9901,30.4179" id="Fill-16" fill="#FAAF3A"></path>
            <path d="M216.3895,10.0121 C216.2545,4.4351 218.8425,0.0741 222.5835,0.0021 C227.3525,-0.0899 229.6525,3.0721 230.6925,7.2481 C232.1255,13.0061 233.6075,18.7691 234.6225,24.6081 C235.5725,30.0691 233.4615,34.5551 230.1035,35.5931 C226.1905,36.8021 220.6515,32.9921 219.3245,27.4341 C217.9475,21.6691 217.3195,15.7251 216.3895,10.0121" id="Fill-18" fill="#FAAF3A"></path>
            <path d="M286.9413,18.519 C286.7043,19.131 286.5453,20.207 285.9603,20.943 C280.6363,27.631 275.3563,34.36 269.8103,40.861 C267.2123,43.907 263.8073,45.09 260.0823,42.447 C255.9043,39.484 257.6863,36.034 259.5833,32.821 C264.1723,25.048 269.6163,17.921 277.5723,13.341 C281.8113,10.901 287.2323,13.97 286.9413,18.519" id="Fill-20" fill="#FAAF3A"></path>
            <path d="M349.2167,244.4438 C344.1347,245.5478 341.7097,246.5618 339.3077,246.5098 C329.7147,246.3038 322.4847,241.3038 316.7547,234.1128 C313.1947,229.6428 313.6597,224.2348 317.1397,221.7408 C320.2897,219.4838 324.9577,220.5828 328.5907,224.1418 C332.5687,228.0398 336.7807,231.6978 340.7947,235.5598 C343.0667,237.7448 345.1457,240.1298 349.2167,244.4438" id="Fill-22" fill="#FAAF3A"></path>
            <path d="M30.8212,226.5185 C32.7382,227.4935 35.6472,228.0525 36.8642,229.7935 C39.0192,232.8795 36.6352,236.1805 34.1052,237.2365 C26.2422,240.5175 18.1682,243.4405 9.9452,245.6415 C6.1352,246.6615 2.9102,244.2175 2.2612,239.7755 C1.6252,235.4235 3.7482,232.5965 7.7512,231.5975 C15.1132,229.7595 22.5732,228.3095 30.8212,226.5185" id="Fill-24" fill="#FAAF3A"></path>
            <path d="M356.8055,206.1069 C349.9865,205.9869 344.5865,202.6119 339.5155,198.9739 C336.1955,196.5909 335.5905,192.7389 338.1085,189.2899 C340.4395,186.0989 343.4875,184.9149 347.6395,186.7339 C353.6295,189.3589 359.9655,191.1959 365.9485,193.8349 C368.0505,194.7609 370.8065,196.9639 370.9465,198.7629 C371.0725,200.3939 368.3545,202.9499 366.3315,203.8729 C363.4225,205.1999 360.0055,205.4169 356.8055,206.1069" id="Fill-26" fill="#FAAF3A"></path>
            <path d="M326.8602,64.4457 C317.5272,68.0567 310.0132,71.0217 302.4522,73.8627 C299.2172,75.0777 296.0892,75.1107 293.1892,72.6497 C289.1162,69.1937 288.9502,63.4017 293.7192,61.1427 C302.2112,57.1217 311.3312,55.5257 320.5492,58.5667 C322.5512,59.2267 323.9672,61.6667 326.8602,64.4457" id="Fill-28" fill="#FAAF3A"></path>
            <path d="M303.4364,252.4946 C309.2304,252.1576 323.3684,266.0816 323.3664,272.1236 C323.3654,275.7496 320.4394,278.5186 316.7484,277.2496 C309.2234,274.6626 301.9864,271.1626 298.1294,263.5516 C295.3804,258.1276 298.1024,252.8046 303.4364,252.4946" id="Fill-30" fill="#FAAF3A"></path>
            <path d="M341.2269,95.1821 C346.0759,96.1591 351.5659,95.8861 352.3389,101.0761 C353.1479,106.5151 347.9799,107.1181 343.4579,107.8741 C339.2789,108.5731 335.3409,110.6371 331.2489,111.9531 C329.0579,112.6581 326.5359,113.9071 324.5769,113.3771 C321.9619,112.6711 318.5029,110.9051 317.7689,108.7791 C317.2119,107.1661 319.8229,103.1481 321.9349,102.1721 C328.1219,99.3141 334.7639,97.4411 341.2269,95.1821" id="Fill-32" fill="#FAAF3A"></path>
            <path d="M237.9261,256.1762 C234.9231,243.4932 238.0951,232.0862 239.6021,220.7102 C239.8781,218.6262 243.3711,215.9572 245.8251,215.3442 C257.8641,212.3402 265.3521,203.3852 273.5841,195.2942 C277.2001,191.7402 278.2351,187.4142 278.0491,182.5712 C277.8581,177.6022 278.0871,172.5902 277.4931,167.6742 C276.9881,163.4902 276.2671,159.0752 274.4301,155.3612 C269.8171,146.0292 262.5761,143.7862 254.0331,149.5052 C249.8321,152.3162 245.8851,156.6262 243.7361,161.1632 C238.3521,172.5322 234.0531,184.4152 229.3301,196.0962 C228.3531,198.5132 227.4211,200.9482 226.0361,204.4742 C222.7781,202.6192 220.1091,201.1002 216.9991,199.3292 C218.2061,197.5022 218.7641,196.3382 219.6041,195.4352 C231.0341,183.1472 230.3911,168.9312 225.9411,154.2932 C222.8251,144.0462 210.2411,141.9362 202.7541,151.2492 C194.2101,161.8772 189.3681,174.2462 193.6541,188.4182 C194.0301,189.6642 194.4221,190.9062 194.7871,192.0862 C186.9541,197.0492 186.5811,197.1422 176.9231,196.1912 C178.6251,192.0262 179.8571,188.0092 181.8191,184.3862 C188.8211,171.4602 182.8871,153.1122 169.5531,147.0022 C164.4241,144.6512 159.8161,145.7092 155.5911,149.0722 C146.0771,156.6442 141.9911,170.7572 146.2801,182.4912 C148.5411,188.6752 151.5251,194.5932 154.5171,201.3902 C152.5491,202.7242 150.1941,204.3222 147.1521,206.3832 C143.5391,200.8882 140.1451,196.0852 137.1251,191.0572 C130.8921,180.6812 121.0801,174.4072 111.1041,168.4982 C105.8061,165.3602 99.5571,163.9042 94.4421,168.9712 C89.3591,174.0082 85.7681,180.0862 87.6391,187.7242 C89.3421,194.6762 92.7321,200.8082 98.5981,205.1142 C108.2771,212.2182 118.4391,218.5312 130.4731,220.8072 C134.2131,221.5142 136.4211,223.3332 137.5521,226.8332 C140.5031,235.9622 143.5831,245.0502 146.4441,254.2072 C147.6201,257.9712 148.3661,261.8712 149.4801,266.4162 C139.9101,268.2022 130.7321,267.9822 122.1101,264.4522 C106.3891,258.0162 91.0281,250.4782 78.9591,238.2622 C62.9321,222.0422 56.2941,202.4672 62.5111,179.9002 C65.6691,168.4392 69.1691,156.8942 74.2211,146.1932 C77.8051,138.6012 83.7531,131.9102 89.5011,125.5942 C109.1921,103.9592 134.5271,92.4842 162.3811,85.1072 C177.6941,81.0522 193.1491,79.6782 208.5361,81.1872 C231.3341,83.4232 254.2291,87.0582 272.5991,102.5802 C278.3091,107.4052 283.5771,113.5382 287.0041,120.1342 C296.9041,139.1892 301.3111,159.5912 296.1261,180.9182 C293.1521,193.1522 289.2911,205.2462 284.8171,217.0182 C280.6351,228.0222 272.8361,237.0532 264.3101,244.8722 C257.2571,251.3412 247.9071,254.1802 237.9261,256.1762" id="Fill-34" fill="#F9EC23"></path>
            <path d="M201.0721,206.3227 C204.7851,209.2317 208.0151,212.0727 211.5581,214.4467 C214.8081,216.6237 218.3961,218.2967 221.7151,220.1247 C221.3281,232.9547 221.0311,245.5387 220.4761,258.1127 C220.3991,259.8727 219.3031,261.7447 218.2531,263.2727 C216.0661,266.4547 213.5931,269.4397 210.5071,273.4577 C201.3511,276.3607 191.0201,276.4217 180.3821,274.0627 C169.9881,271.7587 164.4531,264.8277 161.7561,255.5057 C158.4781,244.1757 156.1261,232.5767 153.1791,220.2847 C155.7021,218.2987 158.8471,215.4077 162.4111,213.1907 C164.1731,212.0947 166.9261,211.4317 168.8551,211.9567 C180.2081,215.0447 190.3531,211.7867 201.0721,206.3227" id="Fill-36" fill="#FAAF3A"></path>
            <path d="M172.8998,288.4946 C189.1428,292.3116 204.0308,290.8526 219.0738,286.5226 C217.0728,296.7946 210.6018,302.6846 201.0438,303.8456 C187.7958,305.4546 179.1658,301.0636 172.8998,288.4946" id="Fill-38" fill="#FAAF3A"></path>
            <path d="M218.8134,314.1318 C216.5554,321.4828 215.6424,329.0528 206.0384,329.5548 C195.8684,330.0868 186.3014,329.5598 179.8824,318.9728 C193.6304,320.2278 206.7254,322.5048 218.8134,314.1318" id="Fill-40" fill="#FAAF3A"></path>
            <path d="M244.9872,198.9096 C247.1832,192.1076 248.5332,186.7306 250.6542,181.6776 C252.9802,176.1396 256.0192,170.9016 259.1592,164.7216 C263.5572,185.5556 262.2212,190.9756 244.9872,198.9096" id="Fill-42" fill="#F9EC23"></path>
            <path d="M125.121,202.4829 C116.393,197.3139 103.482,196.5679 102.851,181.7419 C118.26,189.5249 118.639,189.8649 125.121,202.4829" id="Fill-44" fill="#F9EC23"></path>
            <path d="M164.7504,183.9013 C158.9724,174.1493 158.7644,169.3623 163.3604,162.0323 C170.0814,168.1933 170.6574,174.5863 164.7504,183.9013" id="Fill-46" fill="#F9EC23"></path>
            <path d="M209.7753,181.7407 C207.8463,176.1497 207.5183,170.8007 211.0803,165.3097 C214.2723,171.5767 213.9533,176.8587 209.7753,181.7407" id="Fill-48" fill="#F9EC23"></path>
        </g>
    </g>
</svg>