<svg width="52" height="71" fill="none" xmlns="http://www.w3.org/2000/svg">
  <path d="M14.46 2.056V8.65c0 1.764-.672 3.423-1.932 4.662-1.239 1.26-2.898 1.932-4.662 1.932-1.764 0-3.423-.672-4.662-1.932a6.546 6.546 0 0 1-1.89-3.906h3.76v-7.35h9.386Zm.756-.756H4.317v7.35h-3.8c0 4.053 3.296 7.35 7.35 7.35 4.052 0 7.35-3.297 7.35-7.35V1.3ZM25.625.922c-4.263 0-7.728 3.465-7.728 7.728s3.465 7.728 7.728 7.728 7.728-3.465 7.728-7.728S29.888.922 25.625.922Zm6.93 7.728a6.937 6.937 0 0 1-6.93 6.93 6.937 6.937 0 0 1-6.93-6.93 6.937 6.937 0 0 1 6.93-6.93 6.937 6.937 0 0 1 6.93 6.93Zm17.61-6.594v13.188H36.977V2.56l7.35 4.032V2.056h5.838Zm.756-.756h-7.35v4.032L36.22 1.3V16h14.7V1.3ZM9.674 20.854l6.825 12.39H2.87l6.804-12.39ZM17.76 34 9.674 19.3 1.61 34h16.15Zm12.994-13.944v13.188h-9.387V20.056h9.387Zm.756-.756H20.61V34h10.9V19.3Zm16.95.756-4.032 7.35h4.537v5.838H36.28l4.053-7.35h-4.557v-5.838h12.683Zm1.26-.756h-14.7v7.35h4.032L35.02 34h14.7v-7.35h-4.032l4.032-7.35ZM10.95 38.056v7.35h3.802v5.838H1.563V38.056h9.387Zm.757-.756H.806V52h14.7v-7.35h-3.8V37.3Zm21.192 0H18.744V52H32.92l-.02-14.7Zm-.735 13.944H19.5V38.056h12.663v4.914h-2.646v.735h2.646v1.89h-2.646v.735h2.646v4.914Zm18.279-13.188V50.74l-6.595-3.633-6.593 3.633V38.056h13.188Zm.755-.756h-14.7V52l7.35-4.032L51.197 52V37.3ZM8.21 54.922c-4.263 0-7.728 3.465-7.728 7.728s3.465 7.728 7.728 7.728 7.728-3.465 7.728-7.728-3.465-7.728-7.728-7.728Zm6.93 7.728a6.937 6.937 0 0 1-6.93 6.93 6.937 6.937 0 0 1-6.93-6.93 6.937 6.937 0 0 1 6.93-6.93 6.937 6.937 0 0 1 6.93 6.93Zm10.68-7.728c-4.263 0-7.728 3.465-7.728 7.728s3.465 7.728 7.728 7.728 7.728-3.465 7.728-7.728-3.465-7.728-7.728-7.728Zm6.93 7.728a6.937 6.937 0 0 1-6.93 6.93 6.937 6.937 0 0 1-6.93-6.93 6.937 6.937 0 0 1 6.93-6.93 6.937 6.937 0 0 1 6.93 6.93Zm11.016-6.594c1.764 0 3.422.672 4.662 1.932 1.26 1.239 1.931 2.898 1.931 4.662 0 1.764-.672 3.423-1.931 4.662-1.24 1.26-2.898 1.932-4.662 1.932h-6.594V56.056h6.594Zm0-.756h-7.35V70h7.35c4.053 0 7.35-3.297 7.35-7.35 0-4.053-3.297-7.35-7.35-7.35Z" fill="#fff"/>
</svg>
