<svg width="52" height="71" fill="none" xmlns="http://www.w3.org/2000/svg">
  <path d="M15.216 1.3H4.317v7.35h-3.8c0 4.053 3.296 7.35 7.35 7.35 4.052 0 7.35-3.297 7.35-7.35V1.3ZM25.625.922c-4.263 0-7.728 3.465-7.728 7.728s3.465 7.728 7.728 7.728 7.728-3.465 7.728-7.728S29.888.922 25.625.922Zm25.296.378h-7.35v4.032L36.22 1.3V16h14.7V1.3ZM17.759 34 9.674 19.3 1.61 34h16.15Zm13.75-14.7H20.61V34h10.9V19.3Zm18.21 0h-14.7v7.35h4.032L35.02 34h14.7v-7.35h-4.032l4.032-7.35Zm-38.013 18H.806V52h14.7v-7.35h-3.8V37.3Zm21.213 8.295v-1.89h-2.667v-.735h2.667V37.3H18.744V52H32.92v-5.67h-2.667v-.735h2.667ZM51.198 37.3h-14.7V52l7.35-4.032L51.197 52V37.3ZM8.21 54.922c-4.263 0-7.728 3.465-7.728 7.728s3.465 7.728 7.728 7.728 7.728-3.465 7.728-7.728-3.465-7.728-7.728-7.728Zm17.61 0c-4.263 0-7.728 3.465-7.728 7.728s3.465 7.728 7.728 7.728 7.728-3.465 7.728-7.728-3.465-7.728-7.728-7.728Zm17.946.378h-7.35V70h7.35c4.053 0 7.35-3.297 7.35-7.35 0-4.053-3.297-7.35-7.35-7.35Z" fill="#fff"/>
</svg>
