<?xml version="1.0" encoding="UTF-8"?>
<svg width="151px" height="152px" viewBox="0 0 151 152" version="1.1" xmlns="http://www.w3.org/2000/svg" xmlns:xlink="http://www.w3.org/1999/xlink">
    <!-- Generator: Sketch 53.2 (72643) - https://sketchapp.com -->
    <title>LOGO</title>
    <desc>Created with Sketch.</desc>
    <defs>
        <polygon id="path-1" points="0.000119066782 0.0137982599 142.275198 0.0137982599 142.275198 144.164474 0.000119066782 144.164474"></polygon>
        <polygon id="path-3" points="0 0.018915818 31.8759134 0.018915818 31.8759134 38.8301454 0 38.8301454"></polygon>
    </defs>
    <g id="LOGO" stroke="none" stroke-width="1" fill="none" fill-rule="evenodd">
        <g id="Group" transform="translate(1.000000, 0.000000)">
            <g id="Group-11" transform="translate(75.000000, 76.000000) rotate(3.000000) translate(-75.000000, -76.000000) translate(3.776978, 3.781991)">
                <g id="Group-10">
                    <g id="Group-3" transform="translate(0.000000, 0.077682)">
                        <mask id="mask-2" fill="white">
                            <use xlink:href="#path-1"></use>
                        </mask>
                        <g id="Clip-2"></g>
                        <path d="M4.99043484,12.9162073 C4.73709726,13.7431594 4.3313965,14.4468139 4.33680585,15.1468552 C4.38864539,21.8740267 3.41270968,28.6224252 4.84573491,35.3274663 C5.2505341,37.2229976 5.40695428,39.2065986 5.40379883,41.1491004 C5.39343093,47.9002088 5.18967899,54.6513171 5.20230079,61.4024255 C5.21086559,66.3356845 5.13513478,71.30101 5.64767007,76.1940732 C6.45997314,83.9509829 7.76542801,91.6550507 8.79004781,99.3907333 C9.10424051,101.764099 9.25254667,104.165467 9.35577497,106.559157 C9.74975549,115.711181 10.0472694,124.868173 10.4998511,134.017488 C10.5832452,135.707072 11.2197446,137.369557 11.6538444,139.274121 C21.5876528,138.388004 30.9593402,137.630604 40.3138981,136.700227 C57.0174998,135.039548 73.7152413,133.316543 90.4057704,131.526696 C95.1718527,131.015891 99.8856448,130.002864 104.654432,129.540385 C114.033332,128.629879 123.43432,127.947 132.825391,127.162502 C136.236432,126.877518 136.520874,126.430846 136.155743,122.931091 C135.547192,117.103586 134.899423,111.275177 134.510401,105.430961 C134.181333,100.492734 134.285913,95.5269568 134.038887,90.5810518 C133.478118,79.3383879 131.733605,68.1476625 132.66266,56.8390592 C132.833955,54.7470647 132.694665,52.6315849 132.742898,50.5273962 C133.05078,37.1968025 133.37489,23.8666605 133.68187,10.5356152 C133.718834,8.9395209 133.686829,7.34207172 133.686829,5.63261594 C132.73839,5.48854291 132.155984,5.28395019 131.595667,5.33227562 C124.422877,5.95418331 117.258202,6.66687056 110.082257,7.24722741 C101.412883,7.94817203 92.7457622,8.8162233 84.0601598,9.1278546 C68.3284368,9.69285571 52.5782319,9.74479426 36.8474105,10.3138601 C27.2561939,10.661171 17.6839099,11.5617403 8.10621665,12.2545554 C7.08610464,12.3286243 6.08582688,12.6768384 4.99043484,12.9162073 M5.8789195,135.751784 C5.71844231,125.88933 5.74278435,116.018748 5.32040479,106.167585 C5.10403105,101.110577 4.38954694,96.0269218 3.37754895,91.0615963 C0.921256261,79.013659 1.89043029,66.8487471 1.60824287,54.7168049 C1.33236636,42.8581046 0.659804663,31.0088887 0.168005191,19.1547048 C0.0931759403,17.3540178 -0.0551302249,15.5474595 0.0215021401,13.7521922 C0.167103634,10.3454749 2.5986035,7.87500642 6.0348889,7.72325553 C12.7568996,7.4274316 19.491983,7.37910617 26.2054289,6.96992072 C31.5498602,6.64383694 36.8613847,5.61319543 42.2031113,5.46234782 C52.5227862,5.17149193 62.8550829,5.34492153 73.1801671,5.19452555 C77.7952386,5.12768289 82.412564,4.83276225 87.0168168,4.48274158 C96.2731049,3.77953876 105.52759,3.03072035 114.771256,2.17757319 C121.025359,1.59992618 127.265938,0.858333998 133.501559,0.0986762339 C136.882849,-0.313219058 138.360952,0.73910115 138.204532,4.02252085 C137.789365,12.7165827 137.107788,21.3998051 136.826502,30.0970284 C136.598858,37.1353795 136.809823,44.1877315 136.804864,51.2342121 C136.801709,55.5866627 136.7386,59.93821 136.743558,64.2902089 C136.745812,66.0913475 136.657009,67.9268108 136.953621,69.6882051 C138.408735,78.3212956 137.966521,87.0532951 138.506103,95.7301946 C139.111949,105.467092 140.219963,115.174633 141.216184,124.883981 C141.389283,126.572209 142.956189,127.991261 141.928865,129.983895 C141.219339,131.360492 140.38585,132.019886 138.847342,132.110214 C131.703853,132.531142 124.549546,132.860387 117.427244,133.53062 C103.256567,134.86386 89.1043726,136.385434 74.9463177,137.854618 C59.8858041,139.416839 44.8320522,141.043193 29.7679323,142.570638 C23.6490634,143.191191 17.514868,143.67309 11.3811233,144.124278 C7.8605423,144.383068 6.91931655,143.446819 6.65561106,139.79441 C6.55869365,138.445814 6.50324788,137.09496 6.42932019,135.745461 C6.24585329,135.747267 6.06238639,135.749526 5.8789195,135.751784" id="Fill-1" fill="#231F20" mask="url(#mask-2)"></path>
                    </g>
                    <path d="M126.534685,10.5156075 C125.279717,10.3656632 124.457948,10.0106745 123.843537,10.2333328 C117.657502,12.4734651 111.065315,11.4139186 104.75171,12.6599922 C102.278738,13.1482146 99.6718855,13.0904047 97.1290433,13.0569834 C85.8897801,12.9092973 74.672605,13.0027867 63.4364971,13.7136673 C51.9407408,14.4412587 40.3963004,14.3635767 28.8775544,14.7736654 C23.3676874,14.9692254 17.8578203,15.3707329 12.3695907,15.9045709 C10.4803775,16.0883882 9.27679856,17.2269716 9.34171068,19.5800138 C9.75507467,34.4552148 12.2028026,49.0806591 14.4386645,63.7408797 C15.0449618,67.7175662 15.5146731,71.781419 15.4015276,75.7870104 C15.2063405,82.679482 15.1531486,89.541242 15.7864926,96.4151963 C16.1160117,99.988117 16.1097008,103.592652 16.2390743,107.183187 C16.5036814,114.521879 16.6546922,121.866441 17.060393,129.196552 C17.2506215,132.643013 19.1154927,133.960897 22.4508037,133.638878 C30.1875171,132.890963 37.9161165,132.032848 45.6659025,131.454298 C55.0799631,130.752902 64.5102518,130.256098 73.9369343,129.738519 C85.6215668,129.096739 97.3260336,128.729105 108.991283,127.84073 C115.453194,127.348894 122.161231,128.483413 128.230965,124.538341 C131.884075,122.16362 132.331698,122.324404 130.806263,118.272745 C130.542558,117.572252 130.313111,116.849629 130.158043,116.118424 C127.469149,103.442256 126.84437,90.5619475 126.465716,77.6649278 C126.324622,72.871677 126.639266,68.0549409 126.299829,63.280659 C125.712915,55.0215261 125.561454,46.7858784 126.437317,38.5502308 C126.690654,36.169187 127.406491,33.8229194 127.513325,31.4432305 C127.721585,26.794956 127.780637,22.1304225 127.639543,17.480793 C127.569673,15.1571074 126.923707,12.8510358 126.534685,10.5156075 M4.99034469,12.9937539 C6.08573673,12.7543849 7.08646526,12.4066224 8.10612649,12.3321019 C17.6838198,11.6392868 27.2561037,10.7387175 36.8473204,10.3918583 C52.5785926,9.82234077 68.3283467,9.77085386 84.0600697,9.20585276 C92.7456721,8.89376981 101.412793,8.02571855 110.082167,7.32522557 C117.258112,6.74441708 124.422787,6.03172983 131.596027,5.40982213 C132.155894,5.3614967 132.7383,5.56608943 133.686738,5.71016245 C133.686738,7.42006988 133.719195,9.01751905 133.68178,10.6136133 C133.3748,23.944207 133.05069,37.274349 132.742808,50.6053943 C132.694575,52.7091315 132.834316,54.8246112 132.662569,56.9166057 C131.733515,68.225209 133.478028,79.416386 134.038797,90.6585983 C134.285823,95.6045033 134.181243,100.570732 134.510311,105.508508 C134.899784,111.353175 135.547102,117.181132 136.155653,123.008638 C136.520784,126.508393 136.236342,126.955064 132.825301,127.240049 C123.43423,128.024998 114.033692,128.707426 104.654342,129.617931 C99.8855546,130.08041 95.1717626,131.093889 90.406131,131.604242 C73.7151512,133.39409 57.0174096,135.117546 40.3138079,136.777773 C30.9597008,137.708151 21.5875626,138.466002 11.6537542,139.352119 C11.2196544,137.447103 10.583155,135.784618 10.499761,134.095034 C10.0471792,124.94572 9.74966533,115.789179 9.35568482,106.636703 C9.25245652,104.243013 9.10415035,101.841646 8.78995765,99.4682799 C7.76533786,91.7325972 6.45988298,84.028981 5.64757991,76.2720713 C5.13504462,71.3790082 5.21077543,66.4136827 5.20221064,61.4804236 C5.19003961,54.7293153 5.39334077,47.9777553 5.40370868,41.2266469 C5.40686413,39.2841451 5.25044395,37.3009957 4.84564475,35.4050128 C3.41261952,28.7004233 4.38855523,21.9515732 4.33671569,15.2248534 C4.33130635,14.5243604 4.73745788,13.8207059 4.99034469,12.9937539" id="Fill-4" fill="#FEFEFE"></path>
                    <path d="M13.9179701,19.9815214 C14.0951261,23.7066446 14.0130844,26.5596518 14.400754,29.3476228 C15.9104116,40.2009735 17.6111993,51.026774 19.1470021,61.8765115 C19.6288844,65.2827772 20.0097924,68.7269806 20.0810154,72.1612479 C20.1517876,75.5968702 19.4950032,79.0541711 19.6482679,82.4803089 C20.271244,96.4174545 21.0848994,110.346019 21.822824,124.278648 C22.0292806,128.178104 22.2375403,128.484768 26.0290392,128.288304 C35.5990693,127.791501 45.1690994,127.269405 54.7287615,126.61498 C64.5854867,125.939327 74.4232793,124.966947 84.2840616,124.362202 C94.4590365,123.738487 104.657001,123.488731 114.83423,122.892115 C118.666299,122.668102 122.468166,121.930122 126.051405,121.457256 C125.096656,116.17217 123.799766,111.348659 123.431029,106.454692 C122.711136,96.8898695 122.515948,87.2862056 122.083201,77.699704 C122.042631,76.8031995 121.805071,75.9161793 121.745117,75.0187715 C121.626562,73.2393116 121.543168,71.4566902 121.492681,69.6736171 C121.42867,67.425807 121.370069,65.1761903 121.382691,62.9279285 C121.418753,56.7811139 121.165866,50.6094591 121.632873,44.4947109 C122.249088,36.429783 123.834025,28.4344076 123.101059,20.2868297 C122.975743,18.8912634 122.838706,17.4966004 122.700317,16.0355464 C116.033301,16.653841 109.950494,17.3692381 103.846952,17.7382276 C98.3406912,18.0715376 92.812793,18.0882483 87.2934596,18.126186 C83.7057126,18.1505745 80.1075977,17.7526801 76.5302186,17.9121088 C67.3938375,18.3176812 58.2696275,18.9883659 49.1345989,19.4327793 C44.9410054,19.6369204 40.7334378,19.548399 36.5330826,19.6125318 C29.2151425,19.7236352 21.8972024,19.8505459 13.9179701,19.9815214 M126.53464,10.5156075 C126.923662,12.8510358 127.569628,15.1571074 127.639498,17.480793 C127.780592,22.1304225 127.72154,26.794956 127.51328,31.4432305 C127.406446,33.8229194 126.690609,36.169187 126.437272,38.5502308 C125.561409,46.7858784 125.71287,55.0215261 126.300235,63.280659 C126.639671,68.0549409 126.324577,72.871677 126.465671,77.6649278 C126.844776,90.5619475 127.469104,103.442256 130.157998,116.118424 C130.313066,116.849629 130.542513,117.572252 130.806218,118.272745 C132.331653,122.324404 131.88403,122.16362 128.23092,124.538341 C122.161186,128.483413 115.453149,127.349346 108.991238,127.84073 C97.3259885,128.729105 85.6215217,129.096739 73.93734,129.738519 C64.5102067,130.256098 55.079918,130.752902 45.6658574,131.454298 C37.9160714,132.032848 30.187472,132.890963 22.4507586,133.638878 C19.1154476,133.960897 17.2510272,132.643013 17.0603479,129.196552 C16.6546471,121.866441 16.5036363,114.521879 16.2390292,107.183187 C16.1096558,103.592652 16.1159667,99.988117 15.7868983,96.4151963 C15.1531035,89.541242 15.2062954,82.679482 15.4014826,75.7874621 C15.514628,71.781419 15.0449167,67.7175662 14.4386194,63.7408797 C12.2027575,49.0806591 9.75548038,34.4552148 9.34211638,19.5800138 C9.27675348,17.2269716 10.4803324,16.0883882 12.3695456,15.9045709 C17.8577752,15.3707329 23.3676423,14.9692254 28.8779601,14.7736654 C40.3962554,14.3635767 51.9411465,14.4412587 63.4369028,13.7136673 C74.6725599,13.0027867 85.889735,12.9092973 97.1289983,13.0569834 C99.6718405,13.0904047 102.279144,13.1482146 104.751665,12.6599922 C111.06527,11.4139186 117.657457,12.4734651 123.843491,10.2333328 C124.457903,10.0106745 125.279672,10.3656632 126.53464,10.5156075" id="Fill-6" fill="#231F20"></path>
                    <path d="M13.9179701,19.9815214 C21.8972024,19.8505459 29.2151425,19.7236352 36.5330826,19.6125318 C40.7334378,19.548399 44.9410054,19.6369204 49.1345989,19.4327793 C58.2696275,18.9883659 67.3938375,18.3176812 76.5302186,17.9121088 C80.1075977,17.7526801 83.7057126,18.1505745 87.2934596,18.126186 C92.812793,18.0882483 98.3406912,18.0715376 103.846952,17.7382276 C109.950494,17.3692381 116.033301,16.653841 122.700317,16.0355464 C122.838706,17.4966004 122.975743,18.8912634 123.101059,20.2868297 C123.834025,28.4344076 122.249088,36.429783 121.632873,44.4947109 C121.165866,50.6094591 121.418753,56.7811139 121.382691,62.9279285 C121.370069,65.1761903 121.42867,67.425807 121.492681,69.6736171 C121.543168,71.4566902 121.626562,73.2393116 121.745117,75.0187715 C121.805071,75.9161793 122.042631,76.8031995 122.083201,77.699704 C122.515948,87.2862056 122.711136,96.8898695 123.431029,106.454692 C123.799766,111.348659 125.096656,116.17217 126.051405,121.457256 C122.468166,121.930122 118.666299,122.668102 114.83423,122.892115 C104.657001,123.488731 94.4590365,123.738487 84.2840616,124.362202 C74.4232793,124.966947 64.5854867,125.939327 54.7287615,126.61498 C45.1690994,127.269405 35.5990693,127.791501 26.0290392,128.288304 C22.2375403,128.484768 22.0292806,128.178104 21.822824,124.278648 C21.0848994,110.346019 20.271244,96.4174545 19.6482679,82.4803089 C19.4950032,79.0541711 20.1517876,75.5968702 20.0810154,72.1612479 C20.0097924,68.7269806 19.6288844,65.2827772 19.1470021,61.8765115 C17.6111993,51.026774 15.9104116,40.2009735 14.400754,29.3476228 C14.0130844,26.5596518 14.0951261,23.7066446 13.9179701,19.9815214" id="Fill-8" fill="#FEFEFE"></path>
                </g>
            </g>
            <g id="Group-55" transform="translate(26.718702, 27.162709)">
                <g id="Group-54" transform="translate(0.000000, 0.090047)">
                    <path d="M30.4325928,15.1035746 C34.3191923,12.8354345 34.25266,11.0818761 30.4325928,8.73542296 L30.4325928,15.1035746 Z M30.822329,22.5044789 C32.5639118,20.8243389 34.0807847,19.4874708 35.4371971,18.0040921 C36.2094945,17.1592907 36.0973026,16.2361763 34.9013506,15.7225736 C30.6592595,17.9757037 29.954799,19.0286872 30.822329,22.5044789 L30.822329,22.5044789 Z M76.9021947,86.0541686 C80.5591923,87.3048924 83.489552,86.1429233 85.6994705,82.5349784 C85.0334945,81.8131937 84.3352307,81.056168 83.4243242,80.0687717 C81.1504825,82.155813 79.0488422,84.0839442 76.9021947,86.0541686 L76.9021947,86.0541686 Z M37.6813602,19.6610646 C34.8374273,22.8353513 32.2230964,25.6735447 29.7307415,28.614524 C29.3110005,29.1098537 29.415365,30.0499359 29.2777343,30.7841202 C29.4747223,30.8683067 29.6723626,30.9528195 29.8693506,31.0373322 C33.162377,28.04806 36.4554034,25.059114 39.8306168,21.9951181 C39.0811492,21.1809893 38.5847655,20.6419348 37.6813602,19.6610646 L37.6813602,19.6610646 Z M57.7747894,69.0905951 C59.6164969,71.2996742 60.2550772,71.2337607 62.0602571,69.6391124 C64.3856288,67.5850278 66.8675472,65.7081264 69.2793458,63.7516067 C69.9114034,63.2393092 70.5333506,62.7149385 71.1347511,62.2173246 C70.5124777,60.8357529 69.816823,59.9997617 68.5660796,60.9245076 C64.9426743,63.6037909 61.3750388,66.3577979 57.7747894,69.0905951 L57.7747894,69.0905951 Z M76.356564,69.6528171 C72.787624,72.586944 69.3246791,75.434274 65.9934945,78.1732709 C66.6033746,80.1754732 67.4216576,80.5813955 68.7594801,79.5799681 C71.6934273,77.3829623 74.6404201,75.2035769 77.5629525,72.9918874 C77.878329,72.7533591 78.0694465,72.3506998 78.4060221,71.9098629 C77.7782043,71.2184244 77.2208326,70.60432 76.356564,69.6528171 L76.356564,69.6528171 Z M73.0423386,65.2862151 C68.6417439,67.4721266 64.8898398,70.2463644 61.5971396,73.9662316 C62.3678062,74.7842761 62.9268086,75.3781496 63.5014657,75.9880121 C66.8137343,73.3713792 69.9381468,70.8689527 73.1046312,68.4206927 C74.2917775,67.5024728 74.6091108,66.6305882 73.0423386,65.2862151 L73.0423386,65.2862151 Z M42.8483818,52.737863 C47.2949621,48.9641556 51.606847,45.304002 56.5882954,41.0754266 C55.164046,40.9576308 54.3992499,40.6447051 53.9485257,40.8959593 C49.2511444,43.5148764 44.642799,46.2744305 41.0803818,50.6795364 C41.6543866,51.3478073 42.1872978,51.9684378 42.8483818,52.737863 L42.8483818,52.737863 Z M50.4774273,34.9653815 C45.8504921,38.7263631 41.5236048,42.2435954 36.7737151,46.1040997 C37.6960365,47.1110743 38.3143962,47.785545 38.7171779,48.225403 C43.6865592,44.3469519 48.0975904,40.9041169 52.6563626,37.3464228 C52.0161516,36.6468268 51.3749621,35.9465781 50.4774273,34.9653815 L50.4774273,34.9653815 Z M81.9612643,77.4149401 C81.3011588,76.50292 80.8122763,75.8274704 80.143365,74.9033771 C76.3741755,77.6286693 72.7546839,80.2466075 69.0151731,82.9503636 C70.1488326,84.2914736 70.9677679,85.2599443 71.8822619,86.3416426 C75.791365,83.9230762 78.4275472,80.4332534 81.9612643,77.4149401 L81.9612643,77.4149401 Z M66.3887751,54.6950352 C61.6666072,58.0148536 57.2764489,61.1010382 52.5285161,64.4388032 C53.6103194,65.5909832 54.3222811,66.3489877 55.2299261,67.3155006 C59.6768326,63.741165 63.7679213,60.4529981 67.9637007,57.0803185 C67.4360077,56.2805471 67.0387703,55.6794948 66.3887751,54.6950352 L66.3887751,54.6950352 Z M33.1659645,41.373016 C35.2542331,43.4476577 35.3934945,43.4881194 36.9465688,42.2037863 C39.1170245,40.4084609 41.2548662,38.5733264 43.3969477,36.7437391 C45.0126408,35.3644515 46.6133314,33.9672171 48.2388086,32.5624778 C46.0644393,30.4477006 45.9561612,30.3742822 44.2807847,31.7007086 C42.2482859,33.3100406 40.2950388,35.0221584 38.3388566,36.7254661 C36.6546743,38.1922032 35.0138686,39.7088648 33.1659645,41.373016 L33.1659645,41.373016 Z M62.4715185,49.2881756 C57.675317,52.8005134 53.2121036,56.069102 48.725082,59.355311 C50.7742139,61.8192336 50.8140029,61.8756842 52.8207367,60.4627873 C56.5158926,57.860838 60.160823,55.1877545 63.8174945,52.5309861 C63.9753458,52.4167797 64.03666,52.1700938 64.2303866,51.8330216 C63.8018398,51.2130437 63.3338302,50.5356363 62.4715185,49.2881756 L62.4715185,49.2881756 Z M44.7514034,54.6718676 C45.7034034,55.7042939 46.2578398,56.3063251 46.9146839,57.0183207 C51.5863002,53.515772 56.1134369,50.1215564 60.8744153,46.5521153 C59.9507894,45.6949143 59.2009957,44.9992339 58.2105113,44.0803614 C53.6977247,47.6318557 49.3904058,51.0211769 44.7514034,54.6718676 L44.7514034,54.6718676 Z M41.9541084,24.534417 C37.415883,28.3711011 32.7739453,31.5124311 29.2871923,36.190001 C30.0712307,37.1574927 30.71666,37.9540012 31.5564681,38.9906694 C35.901293,35.1543116 39.9995568,31.5352724 44.2077295,27.8196471 C43.3914034,26.6296159 42.7511923,25.6970386 41.9541084,24.534417 L41.9541084,24.534417 Z M80.9929573,69.5147905 C82.4282954,69.1098471 83.6193554,68.7737538 84.8818398,68.4174297 C85.7082763,70.6490237 83.5498878,71.4386797 83.2990868,72.9501205 C83.7321995,75.1128644 85.287883,75.1118855 87.3249477,74.5043071 C87.0262043,76.0203162 86.8083434,77.1271399 86.5004681,78.690463 C87.7133794,79.2083077 88.9967367,79.7561723 90.4640365,80.38235 C90.4813218,84.484972 93.8421851,85.3656669 97.5477775,86.0058756 C96.3113842,87.9995939 94.927576,88.7226839 92.8963818,88.8120912 C86.2923914,89.1018493 79.6900317,89.4973299 73.1020221,90.0357318 C71.256401,90.1868106 70.0832787,89.7551102 68.9551635,88.2841311 C65.3353458,83.5612049 61.6111635,78.9169181 57.8595856,74.2974303 C56.908564,73.1266511 55.6261851,72.229641 54.6330916,71.0875765 C50.9392403,66.8384439 47.3011588,62.5403657 43.6444873,58.2586028 C40.346895,54.3977721 37.0731108,50.5163844 33.7468182,46.6810055 C32.4686791,45.207416 31.07313,43.8356333 29.6619261,42.3440971 C28.9232211,42.3440971 27.7213986,42.6929162 27.2514321,42.2550161 C26.6797103,41.7218351 26.5701276,40.534088 26.5283818,39.6171734 C26.2782331,34.0905601 26.1024441,28.5603575 25.9083914,23.0311338 C25.8894753,22.4956687 25.6960748,21.7738839 25.9622043,21.4518217 C28.2719213,18.6553952 26.6787319,15.6263139 26.4882667,12.7238385 C26.4008614,11.3921913 26.0760269,10.2723155 27.173811,9.1325351 C27.6679118,8.61925868 27.7018302,7.57932738 27.7784729,6.76291441 C27.9412163,5.04035484 27.9033842,3.29495398 28.1417918,1.58544657 C28.2259357,0.981783906 28.8459261,0.0312599369 29.2734945,0.00189256403 C29.8331492,-0.0362850207 30.6850245,0.547473091 30.9922475,1.09762188 C32.41454,3.64736245 33.7738878,6.23952257 35.0040844,8.88682808 C37.4537151,14.1602293 41.0379837,18.679868 44.6757391,23.1019418 C49.9722379,29.5389436 55.590636,35.7119654 61.101082,41.9721104 C65.7064921,47.2034184 69.3109813,53.1258386 73.1036528,58.9350313 C75.5154513,62.6291205 78.3737343,66.0321464 80.9929573,69.5147905 L80.9929573,69.5147905 Z" id="Fill-1" fill="#231F20"></path>
                    <g id="Group-5" transform="translate(0.000000, 54.560663)">
                        <mask id="mask-4" fill="white">
                            <use xlink:href="#path-3"></use>
                        </mask>
                        <g id="Clip-4"></g>
                        <path d="M18.2074647,11.4422137 C18.0880978,11.3120184 17.9684048,11.1811704 17.8483856,11.0506487 C16.8155031,11.9623425 15.7829468,12.8740363 14.7503904,13.7854038 L15.2082897,14.2853017 C16.207906,13.3377145 17.2081746,12.3898009 18.2074647,11.4422137 M26.6802321,28.978451 C26.4209516,28.7271968 26.161671,28.4756163 25.9023904,28.2243621 C24.1154743,29.8007374 22.3285583,31.3771127 20.2158293,33.2406357 C21.1971818,33.4931951 21.8018436,33.8152573 21.9626302,33.6648311 C23.5766926,32.1468642 25.1180259,30.5515633 26.6802321,28.978451 M12.732894,16.3788691 C9.40073094,17.9692755 5.04253429,22.3541506 4.69519616,24.3873517 C7.91157986,22.2777954 9.91570456,18.8920636 12.732894,16.3788691 M14.4836086,4.16432611 C10.4587261,4.00117403 7.34996835,7.18622878 6.60343597,11.9933414 C9.23016019,9.38356088 11.8565583,6.77410664 14.4836086,4.16432611 M3.80385803,18.6349359 C7.78373333,16.9521855 18.0982082,7.30304566 19.284376,4.87991109 C17.8862177,4.71741163 16.9850954,5.39057708 16.1090859,6.21514765 C12.3304384,9.77447324 8.52178609,13.301821 4.76825132,16.887251 C4.30937362,17.3258037 4.11890839,18.0456307 3.80385803,18.6349359 M12.9677141,33.632527 C15.3188508,34.4903806 16.0882129,33.2608666 16.9974887,32.4294436 C20.1189659,29.5733034 23.05487,26.4786349 26.4010571,23.9187789 C28.1472058,22.5832161 28.3807213,21.3886166 27.8611818,19.1903056 C22.2444144,23.3758088 18.0789659,28.5862334 12.9677141,33.632527 M25.1330283,9.03931001 C18.6203568,15.3118546 12.1986782,21.4966233 5.80733046,27.6526772 C7.58641918,30.1668507 7.76644796,30.1655455 9.34072134,28.2132678 C10.2881554,27.0382465 11.2770091,25.8850877 12.3438101,24.8190521 C16.7750619,20.3930627 21.2337094,15.9935039 25.7057285,11.6083025 C26.6864288,10.6466842 26.4232345,9.93599379 25.1330283,9.03931001 M24.192117,17.9774331 C23.7025823,18.172563 23.1005295,18.246634 22.7414504,18.5817484 C19.047599,22.0268675 15.3739683,25.4948279 11.7443664,29.0078184 C11.0549084,29.6751103 10.5839635,30.5675522 10.0125679,31.3565556 C10.1805295,31.5033924 10.348165,31.6505556 10.5161266,31.7977188 C11.0200115,31.4965401 11.6158676,31.2857476 12.0134312,30.8801515 C15.6414024,27.1844308 19.2452393,23.4652162 22.8262465,19.7241392 C23.3360019,19.1916108 23.6875799,18.5076773 24.1089516,17.8890047 C25.359695,16.6059768 28.0043568,16.5974929 27.9675031,13.804982 C25.183906,15.1780699 25.0919348,15.2831398 24.192117,17.9774331 M31.2363952,8.33873501 C31.3136902,10.0240959 31.1646446,11.5730617 31.491436,13.0133682 C32.4427837,17.2024608 31.4474072,21.2532004 30.4683376,25.1907125 C29.6490763,28.4837739 28.1817765,31.6140095 25.6558293,34.2185692 C23.601153,36.337262 21.178918,37.5876595 18.5580643,38.580603 C17.7074935,38.9029915 16.5438293,38.9127806 15.6818436,38.6112756 C9.88961343,36.5865584 4.30187242,34.0410598 1.66601631,28.0210746 C-0.642396163,22.7493049 -0.523681535,17.1450312 1.84539281,11.9408064 C3.25463981,8.84548534 5.37291319,5.96291454 7.63599233,3.39326942 C10.9994647,-0.426120581 14.8749755,-0.780160576 19.5935559,1.21551556 C23.3281746,2.79515392 26.949623,4.35488773 29.4393688,7.79184927 C29.8010571,8.29109461 30.9082993,8.24900137 31.2363952,8.33873501" id="Fill-3" fill="#231F20" mask="url(#mask-4)"></path>
                    </g>
                    <path d="M41.9541736,24.5345475 C42.7512576,25.6971691 43.3914686,26.6297464 44.2077947,27.8194513 C39.9996221,31.5354029 35.9010321,35.1544421 31.5565333,38.9907999 C30.7167252,37.9541317 30.0709698,37.1576233 29.2872576,36.1901315 C32.7740106,31.5125616 37.4159482,28.3712316 41.9541736,24.5345475" id="Fill-6" fill="#FEFEFE"></path>
                    <path d="M44.7515012,54.6717697 C49.3905036,51.021079 53.6978225,47.6317578 58.2106091,44.0802636 C59.2010935,44.999136 59.9508873,45.6948165 60.8745132,46.5520174 C56.1135348,50.1217848 51.5863981,53.5156742 46.9147818,57.0182228 C46.2579376,56.3062272 45.7035012,55.704196 44.7515012,54.6717697" id="Fill-8" fill="#FEFEFE"></path>
                    <path d="M62.4716163,49.2880777 C63.3339281,50.5355384 63.8019376,51.2129458 64.2304844,51.8329237 C64.0367578,52.1699959 63.9751175,52.4166818 63.8175923,52.5308883 C60.1609209,55.1876566 56.5156643,57.8607401 52.8205084,60.4626894 C50.8141007,61.8755863 50.7743118,61.8191357 48.7251799,59.3555394 C53.2118753,56.0690041 57.6754149,52.8007418 62.4716163,49.2880777" id="Fill-10" fill="#FEFEFE"></path>
                    <path d="M33.1659319,41.3729833 C35.013836,39.7088322 36.6546417,38.1921706 38.338824,36.7254334 C40.2950062,35.0221258 42.2482532,33.310008 44.280752,31.7006759 C45.9561285,30.3742496 46.0644067,30.4479943 48.238776,32.5624452 C46.6132988,33.9671845 45.0126082,35.3644188 43.3969151,36.7437065 C41.2548336,38.5732938 39.1169918,40.4084283 36.9465362,42.2037537 C35.3934619,43.4880868 35.2542005,43.4476251 33.1659319,41.3729833" id="Fill-12" fill="#FEFEFE"></path>
                    <path d="M66.3888077,54.6950352 C67.0388029,55.6794948 67.4360403,56.2805471 67.9637333,57.0803185 C63.767954,60.4529981 59.6768652,63.741165 55.2299588,67.3155006 C54.3223137,66.3489877 53.610352,65.5909832 52.5285487,64.4388032 C57.2764815,61.1010382 61.6666398,58.0148536 66.3888077,54.6950352" id="Fill-14" fill="#FEFEFE"></path>
                    <path d="M81.9612969,77.4149075 C78.4275799,80.4332208 75.7913976,83.9230436 71.8822945,86.3416099 C70.9678005,85.2599117 70.1488652,84.291441 69.0152058,82.950331 C72.7547165,80.2465748 76.3742082,77.6286367 80.1433976,74.9033445 C80.8123089,75.8274378 81.3011914,76.5028874 81.9612969,77.4149075" id="Fill-16" fill="#FEFEFE"></path>
                    <path d="M50.4773947,34.9654468 C51.3749295,35.9466433 52.0161189,36.646892 52.65633,37.3464881 C48.0975578,40.9041822 43.6865266,44.3470172 38.7171453,48.2254682 C38.3143635,47.7856103 37.69633,47.1111396 36.7736825,46.104165 C41.5235722,42.2436607 45.8504595,38.726102 50.4773947,34.9654468" id="Fill-18" fill="#FEFEFE"></path>
                    <path d="M42.8484796,52.737863 C42.1873957,51.9684378 41.6544844,51.3478073 41.0804796,50.6795364 C44.6428969,46.2744305 49.2512422,43.5148764 53.9486235,40.8959593 C54.3993477,40.6447051 55.1641439,40.9576308 56.5883933,41.0754266 C51.6066187,45.304002 47.29506,48.9641556 42.8484796,52.737863" id="Fill-20" fill="#FEFEFE"></path>
                    <path d="M73.0424691,65.2862151 C74.6092412,66.6305882 74.2919079,67.5024728 73.1044355,68.4206927 C69.9379511,70.8689527 66.8135386,73.3713792 63.50127,75.9880121 C62.9266129,75.3781496 62.3679367,74.7842761 61.5969439,73.9662316 C64.8899703,70.2463644 68.6418743,67.4721266 73.0424691,65.2862151" id="Fill-22" fill="#FEFEFE"></path>
                    <path d="M76.3564336,69.6527845 C77.2207022,70.6042874 77.7780739,71.2183918 78.4058916,71.9098303 C78.0696422,72.3509935 77.8781986,72.7533265 77.5628221,72.9918548 C74.6402897,75.2035443 71.6932969,77.3829297 68.7593496,79.5799355 C67.4215271,80.5813629 66.6035703,80.1754405 65.9936902,78.1732383 C69.3245487,75.4342413 72.7878197,72.5869114 76.3564336,69.6527845" id="Fill-24" fill="#FEFEFE"></path>
                    <path d="M57.7747568,69.0906604 C61.3750062,66.3578632 64.9429679,63.6038562 68.566047,60.9245729 C69.8167904,59.9998269 70.5124451,60.8358182 71.1347185,62.2173899 C70.533318,62.7150037 69.9113707,63.2390482 69.2793132,63.751672 C66.8675146,65.7081916 64.3859223,67.5850931 62.0602245,69.6391776 C60.2550446,71.2334997 59.6164643,71.2997394 57.7747568,69.0906604" id="Fill-26" fill="#FEFEFE"></path>
                    <path d="M37.6812297,19.6609993 C38.5849612,20.6418696 39.0810187,21.180924 39.8308125,21.9950529 C36.4552729,25.0590488 33.1625727,28.0479947 29.8695463,31.037267 C29.6722321,30.9527542 29.474918,30.8685677 29.2776038,30.784055 C29.4152345,30.0498706 29.31087,29.1097884 29.730611,28.6144587 C32.2232921,25.6734795 34.8372969,22.8356123 37.6812297,19.6609993" id="Fill-28" fill="#FEFEFE"></path>
                    <path d="M76.9023252,86.0540054 C79.0489727,84.0841073 81.1502868,82.1559762 83.4244547,80.0686086 C84.3353612,81.0563312 85.0336249,81.8133568 85.699601,82.5351416 C83.4893564,86.1427602 80.5593228,87.3047292 76.9023252,86.0540054" id="Fill-30" fill="#FEFEFE"></path>
                    <path d="M30.8224269,22.504381 C29.9548969,19.0289156 30.6593573,17.9756058 34.9014484,15.722802 C36.0974005,16.2360784 36.2095923,17.1591928 35.4369688,18.0039943 C34.0805564,19.4873729 32.5640096,20.8245673 30.8224269,22.504381" id="Fill-32" fill="#FEFEFE"></path>
                    <path d="M30.4325928,15.1035746 L30.4325928,8.73542296 C34.25266,11.0818761 34.3191923,12.8354345 30.4325928,15.1035746" id="Fill-34" fill="#FEFEFE"></path>
                    <path d="M25.1331588,63.5999079 C26.423365,64.4965917 26.6865592,65.2072821 25.705859,66.1689004 C21.2338398,70.5541018 16.7751923,74.9536606 12.3439405,79.37965 C11.2771396,80.4456856 10.2879597,81.5988445 9.34052566,82.774192 C7.76657842,84.7261434 7.5862235,84.7274486 5.80713477,82.2132752 C12.1988086,76.0575475 18.6201612,69.8727788 25.1331588,63.5999079" id="Fill-36" fill="#FEFEFE"></path>
                    <path d="M12.9675837,88.1931575 C18.0791616,83.1468639 22.2442839,77.9364394 27.8610513,73.7509361 C28.380917,75.9495735 28.1470753,77.1438466 26.4009266,78.4794095 C23.0550657,81.0392655 20.1191616,84.1342603 16.9973583,86.9900741 C16.0880825,87.8214971 15.3187204,89.0510111 12.9675837,88.1931575" id="Fill-38" fill="#FEFEFE"></path>
                    <path d="M3.80385803,73.1955991 C4.11890839,72.6062938 4.30937362,71.8864669 4.76825132,71.4482404 C8.52178609,67.8624842 12.3307645,64.3351364 16.1090859,60.7758108 C16.9850954,59.9512403 17.8862177,59.2780748 19.284376,59.4405743 C18.0982082,61.8637088 7.78373333,71.5128487 3.80385803,73.1955991" id="Fill-40" fill="#FEFEFE"></path>
                    <path d="M24.1117237,72.4543993 C23.6874168,73.0685037 23.3358388,73.7524371 22.8264096,74.2846392 C19.2450763,78.0257162 15.6412393,81.7452571 12.0132681,85.4409779 C11.6160307,85.8462476 11.0198484,86.0573664 10.5159635,86.3582188 C10.3483281,86.2110556 10.1803664,86.0642188 10.0127309,85.9173819 C10.5838005,85.1283785 11.0550715,84.2356104 11.7442034,83.5686447 C15.3738053,80.0556543 19.0477621,76.5876938 22.7416134,73.1422484 C23.1003664,72.807134 23.7024192,72.733063 24.191954,72.5382594 L24.1117237,72.4543993 Z" id="Fill-42" fill="#FEFEFE"></path>
                    <path d="M14.4836412,58.7250872 C11.8565909,61.3348677 9.23019281,63.9443219 6.60346859,66.5541025 C7.35000096,61.7469898 10.4587588,58.5619351 14.4836412,58.7250872" id="Fill-44" fill="#FEFEFE"></path>
                    <path d="M12.7328614,70.9394996 C9.91567194,73.4526942 7.91154724,76.8384259 4.69516355,78.9479822 C5.04250168,76.9147811 9.40069832,72.529906 12.7328614,70.9394996" id="Fill-46" fill="#FEFEFE"></path>
                    <path d="M26.6800691,83.5391794 C25.118189,85.1122917 23.5765295,86.7075926 21.9624671,88.2252332 C21.8020067,88.3759857 21.1970187,88.0539235 20.2159923,87.8013641 C22.3283952,85.9378412 24.1156374,84.3614659 25.9022273,82.7847642 C26.1615079,83.0363447 26.4207885,83.2875989 26.6800691,83.5391794" id="Fill-48" fill="#FEFEFE"></path>
                    <path d="M24.1919866,72.5381942 C25.0921305,69.8439009 25.1837755,69.7388309 27.9673727,68.3657431 C28.0042264,71.1582539 25.3595645,71.1667379 24.1104518,72.4520499 C24.1117564,72.454334 24.1919866,72.5381942 24.1919866,72.5381942" id="Fill-50" fill="#FEFEFE"></path>
                    <path d="M18.2074647,66.0028769 C17.2081746,66.9504641 16.207906,67.8983777 15.2082897,68.8459649 L14.7503904,68.3460669 C15.7829468,67.4346995 16.8155031,66.5230057 17.8483856,65.6113119 C17.9684048,65.7418336 18.0880978,65.8726815 18.2074647,66.0028769" id="Fill-52" fill="#FEFEFE"></path>
                </g>
            </g>
        </g>
    </g>
</svg>