<svg width="331" height="338" xmlns="http://www.w3.org/2000/svg" xmlns:xlink="http://www.w3.org/1999/xlink">
  <defs>
    <path id="a" d="M0 .113h299.924v305.531H0z"/>
  </defs>
  <g fill="none" fill-rule="evenodd">
    <g transform="translate(16 16.243)">
      <mask id="b" fill="#fff">
        <use xlink:href="#a"/>
      </mask>
      <path d="M296.69 170.939c.703-12.218-3.227-22.633-11.902-31.234-4.95-4.91-9.997-9.721-14.91-14.666-7.402-7.448-13.692-15.652-17.319-25.69-2.57-7.117-5.105-14.262-8.088-21.209-2.703-6.295-5.318-12.806-9.178-18.382-5.64-8.146-11.932-15.95-18.759-23.121-5.088-5.346-11.439-9.494-17.277-14.112-4.074-3.223-8.186-6.41-12.998-8.514-.215-.094-.392-.307-.61-.356-2.653-.59-4.771-2.138-7.084-3.487-6.656-3.885-13.912-5.835-21.748-4.881-1.15.14-2.413.17-3.505-.153-3.82-1.132-7.486-.37-11.138.655-7.553 2.12-14.683 5.346-21.422 9.266A336.693 336.693 0 0 0 83.76 40.023C71.437 49.576 59.3 59.375 47.252 69.273a86.281 86.281 0 0 0-16.473 17.966c-3.133 4.576-6.223 9.194-9.09 13.94-4.821 7.982-9.88 15.877-12.376 25.014-2.052 7.508-2.777 15.083-1.092 22.804 2.85 13.056 2.748 26-.923 38.982-1.764 6.235-2.93 12.73-3.526 19.186-.918 9.942 1.018 19.507 5.354 28.594 2.962 6.208 6.39 12.077 10.494 17.599 5.268 7.086 11.685 13.012 18.303 18.741 3.12 2.702 6.405 5.224 9.727 7.676 5.938 4.383 12.684 7.302 19.392 10.207 4.868 2.108 9.902 3.868 14.948 5.514 7.666 2.5 15.616 3.647 23.616 4.432 6.456.633 12.903 1.485 19.375 1.794 12.384.59 24.437-1.872 36.392-4.731 11.799-2.822 23.56-5.63 35.793-5.973a60.98 60.98 0 0 0 18.7-3.475c6.221-2.206 12.484-4.235 18.467-7.155 4.581-2.236 8.803-4.983 13.08-7.657 3.796-2.372 7.39-5.09 10.941-7.828 6.092-4.7 10.268-11.058 14.448-17.37 1.888-2.852 3.831-5.734 5.213-8.84 3.844-8.646 7.405-17.417 11.082-26.137 3.752-8.896 6.498-18.037 6.886-27.775.183-4.616.468-9.228.707-13.842m3.234 2.412c-.346 5.4-.704 10.242-.956 15.09-.474 9.136-3.217 17.644-6.83 25.957-2.725 6.27-5.425 12.565-7.778 18.98-2.89 7.876-7.546 14.67-12.098 21.588-4.983 7.574-11.38 13.545-19.05 18.232-6.646 4.062-13.039 8.673-20.045 11.971-6.786 3.195-14.169 5.161-21.367 7.417-7.4 2.318-15.143 2.256-22.788 2.957-5.613.515-11.23 1.583-16.694 2.995-10.435 2.696-20.965 4.872-31.623 6.324-11.562 1.574-23.11.548-34.606-1.096-5.02-.718-10.081-1.24-15.04-2.256-4.96-1.017-9.95-2.173-14.688-3.916-8.973-3.299-17.949-6.718-26.161-11.708-3.716-2.259-7.263-4.882-10.568-7.714-5.73-4.91-11.49-9.842-16.727-15.262-6.078-6.288-10.696-13.693-15.051-21.33-5.579-9.78-8.132-20.183-7.83-31.25.154-5.64 1.18-11.295 2.226-16.866 1.22-6.493 3.587-12.755 4.041-19.416.153-2.234.514-4.493.329-6.702-.444-5.298-.854-10.63-1.823-15.846-2.11-11.36-1.567-22.32 3.352-32.957 5.53-11.956 12.321-23.177 19.902-33.878 6.02-8.496 13.313-15.911 21.574-22.323 10.352-8.034 20.542-16.28 31.008-24.16 8.566-6.45 17.301-12.697 26.213-18.656 6.934-4.636 13.956-9.208 21.645-12.581 10.298-4.52 21.016-7.1 32.306-6.81a33.323 33.323 0 0 1 14.33 3.633c6.412 3.271 12.896 6.527 18.862 10.52 7.446 4.985 14.484 10.604 21.517 16.179 2.567 2.035 4.753 4.61 6.869 7.145 4.533 5.432 9.026 10.908 13.3 16.547 2.197 2.9 4.107 6.074 5.757 9.323 2.566 5.052 4.726 10.308 7.194 15.412 2.376 4.914 3.974 10.082 5.682 15.25 2.831 8.562 6.987 16.543 13.209 23.17 6.06 6.456 12.417 12.632 18.673 18.901 6.664 6.68 11.678 14.31 12.972 23.844.62 4.559.548 9.212.762 13.292" fill="#231F20" mask="url(#b)"/>
    </g>
    <path d="M26.271 159.614c.575.114 1.161.125 1.187.251.432 2.107.857 4.222 1.078 6.357.023.223-1.338.946-1.902.807-1.489-.367-1.968-1.646-1.659-3.063.318-1.458.846-2.871 1.296-4.352M38.52 147.543c-.84.938-1.626 1.918-2.54 2.756-.22.202-.96.078-1.299-.145-1.033-.679-1.29-1.66-.576-2.72.742-1.103 3.053-1.947 3.658-1.355.305.298.422.79.758 1.464M88.701 262.4c-1.053.655-1.995.482-2.722-.514-.664-.911-.412-2.039.779-4.105 2.213 1.11 2.275 1.257 1.943 4.62M36.292 167.705c1.66 1.946 2.562 3.652 1.627 5.89-3.137-.801-3.68-2.547-1.627-5.89M49.984 270.316c-.43-.551-1.303-1.21-1.495-2.03-.26-1.111-.025-2.482 1.456-2.71 1.626-.249 1.81 1.13 1.958 2.265.142 1.088-.053 2.11-1.92 2.475M278.587 242.08c-1.343 1.25-1.972 2.157-2.83 2.523-.572.244-1.554-.145-2.187-.526-.315-.19-.52-1.171-.31-1.49.335-.511 1.038-1.04 1.616-1.076.953-.06 1.93.267 3.711.568M46.839 135.468c.705 1.098 1.546 1.962 1.385 2.239-.527.907-1.42 1.6-2.173 2.376-.596-.626-1.808-1.54-1.676-1.824.429-.92 1.35-1.61 2.464-2.79M52.26 141.008c-.058.768-.011 1.668-.22 2.505-.295 1.186-1.07 1.83-2.318 1.165-1.163-.618-1.268-1.746-.635-2.667.618-.898 1.497-1.851 3.174-1.003M279.5 255.578c.241.329.991.964.876 1.262-.434 1.114-1.15 2.117-1.76 3.162-.675-.515-1.643-.894-1.957-1.577-.457-.994 1.188-2.697 2.84-2.847M95.854 300.976c-1.818-.432-2.816-.942-2.464-2.475.341-1.487 1.778-2.212 4.006-1.85l-1.542 4.325M98.871 269.001c-1.375.116-2.474.373-3.513.22-.458-.067-1.142-1.008-1.088-1.478.056-.484.825-1.108 1.393-1.263 1.465-.4 2.493.245 3.208 2.521M60.526 253.816c-.684 1.72-1.264 3.197-3.29 2.417-1.253-.483-1.317-1.545-.711-2.585.715-1.226 1.79-1.183 4 .168M63.976 274.647c-.52-.75-1.452-1.497-1.455-2.248-.004-.93.602-2 1.24-2.76.648-.773 1.962-.117 1.923.986-.044 1.228-.379 2.446-.587 3.668l-1.121.354M52.984 217.662c0 1.138.175 2.316-.07 3.398-.131.574-.98 1.365-1.526 1.384-1.018.034-1.88-.827-1.498-1.868.44-1.2 1.336-2.232 2.034-3.337l1.06.423zM216.075 289.48c-.638 1.134-1.118 2.421-1.99 3.33-.365.38-1.562-.043-2.382-.1.083-.719-.1-1.763.302-2.092.942-.771 2.164-1.201 3.273-1.769l.797.63M60.186 122.61l-1.03 4.22c-1.566.47-2.587.047-2.676-1.217-.13-1.827 1.035-2.716 3.706-3.002M250.08 265.294c.576 2.42-.459 3.274-1.622 3.833-.43.207-1.46-.128-1.747-.543-.27-.39-.151-1.517.2-1.78.843-.633 1.923-.949 3.168-1.51M37.905 257.846c-2.83-1.154-3.355-2.665-1.595-3.963.382-.282 1.114-.3 1.6-.154.31.094.682.736.644 1.092-.107 1.002-.41 1.984-.65 3.025M77.205 286.756c-1.876-.09-2.88-1.082-2.534-2.32.165-.594 1.023-1.424 1.537-1.404 1.27.052 2.28.898 2.113 2.3-.071.598-.855 1.11-1.116 1.424M286.604 245.77c-1.005.857-1.658 1.848-2.317 1.853-.668.005-1.616-.839-1.944-1.543-.413-.888.867-2.068 1.995-1.816.675.15 1.239.797 2.266 1.506M121.766 306.16c1.093 1.462 1.851 2.247 2.275 3.183.13.287-.562 1.274-1.05 1.447-1.08.38-2.377-.682-2.342-1.912.018-.657.51-1.3 1.117-2.718M289.16 230.804c-1.064.867-1.573 1.556-2.23 1.756-1.095.332-2.643-.896-2.396-1.92.141-.584 1.1-1.426 1.598-1.367.88.106 1.69.81 3.027 1.531M197.272 288.713c-2.405 2.765-2.898 2.815-4.78.666 1.734-1.94 1.734-1.94 4.78-.666M31.63 240.28c-.446.908-.693 2.058-1.404 2.639-.476.388-1.822.263-2.4-.157-.953-.69-.601-1.772.332-2.304.84-.48 1.859-.644 2.799-.947l.672.769M57.516 239.085c-.635 1.366-1.063 2.974-3.15 2.296-1.104-.358-1.273-1.338-.796-2.318.608-1.252 1.763-1.251 3.946.022M41.324 132.585l-1.658 3.892c-1.618-.273-2.626-.95-2.28-2.298.386-1.495 1.62-2.151 3.938-1.594M255.79 275.467c.2.316.328.425.31.5-.455 2.03-1.513 3.24-2.643 2.792-.59-.233-1.403-1.217-1.296-1.665.44-1.837 1.861-2.11 3.628-1.627M84.444 301.934c-.965-1.363-1.957-2.2-1.808-2.68.253-.812 1.17-1.485 1.946-2.01.162-.108 1.39.78 1.336 1.04-.212 1.008-.745 1.948-1.474 3.65M48.098 226.74l-2.134 2.646c-.638-.557-1.687-1.03-1.823-1.69-.223-1.084.46-2.175 1.742-2.182.608-.003 1.22.648 2.215 1.226M37.538 227.636c-1.065.972-1.669 1.89-2.453 2.085-.39.098-1.475-1.06-1.6-1.764-.219-1.24.79-1.945 1.953-1.827.589.06 1.113.767 2.1 1.506M33.478 199.451c-.912 1.789-1.063 3.48-3.002 3-.478-.119-1.142-1.338-.99-1.822.573-1.841 2.048-1.347 3.992-1.178M264.948 268.178c-.316 2.128-1.11 3.225-2.864 2.81-.534-.127-1.334-1.312-1.193-1.742.702-2.134 2.343-1.194 4.057-1.068M178.31 304.116c1.809 1.198 1.611 2.36.847 3.316-.366.458-1.516.826-1.912.582-.484-.297-.9-1.407-.71-1.934.272-.75 1.124-1.287 1.775-1.964M179.949 280.193c-.768.598-1.467 1.335-2.322 1.758-.972.483-1.824.063-2.146-1.02-.357-1.205.332-1.775 1.417-1.78.958-.006 1.918.217 2.878.34l.173.702M182.005 290.865c-1.272 1.147-2.142 2.775-3.83 1.221-.356-.327-.299-1.573.036-2.094.81-1.26 1.852-1.021 3.794.873M234.964 290.804c-1.098.725-1.885 1.586-2.276 1.433-.873-.34-1.961-1.062-2.204-1.86-.34-1.117.884-1.726 1.802-1.502.83.203 1.505 1.045 2.678 1.929M73.312 234.611c.755 1.386 1.417 2.086 1.438 2.804.016.57-.682 1.575-1.188 1.662-1.141.197-2.139-.561-2.051-1.765.052-.71.87-1.364 1.801-2.7M65.106 290.4c.995 1.93.098 2.908-.726 3.629-.362.316-1.547.07-2.062-.317-.318-.24-.349-1.537-.032-1.813.745-.652 1.776-.977 2.82-1.5M105.019 286.886c-1.045.955-1.656 1.904-2.433 2.07-.446.095-1.163-1.076-1.758-1.678.708-.642 1.34-1.456 2.168-1.838.303-.14 1.076.741 2.023 1.446M48.244 202.173c-.98.907-1.56 1.9-2.228 1.962-1.176.111-1.887-.857-1.79-2.078.092-1.174 1.017-1.613 2.01-1.388.612.14 1.107.8 2.008 1.504M275.172 259.811c-1.163.727-1.758 1.396-2.378 1.42-1.131.045-2.14-.608-1.825-1.912.148-.612 1.163-1.565 1.53-1.461.824.232 1.489 1.03 2.673 1.953M29.349 149.023c-1.186.69-1.954 1.407-2.798 1.514-.415.052-.97-1.03-1.463-1.597.806-.53 1.563-1.198 2.445-1.511.276-.099.89.753 1.816 1.594M87.186 280.85c-1.867-.27-2.961-.908-2.425-2.566.557-1.723 1.82-1.496 3.423-.475l-.998 3.042M300.438 179.132c-.654.757-1.192 1.721-2.011 2.183-.414.232-1.482-.302-1.963-.782-.205-.205.169-1.497.578-1.704.851-.432 1.901-.47 2.87-.67l.526.973M170.039 284.08c-.117 1.938-.597 3.231-2.403 3.037-.456-.049-1.225-1.259-1.115-1.78.404-1.935 1.888-1.54 3.518-1.256M147.441 288.45c.41 1.636.19 2.894-1.608 3.166-.395.06-1.34-.822-1.324-1.245.063-1.767 1.177-2.277 2.932-1.92M37.69 212.492l-1.828 3.674c-1.523-.275-2.444-.998-2.128-2.172.43-1.596 1.76-1.993 3.956-1.502M64.588 219.351l-2.336-2.427c.626-.542 1.245-1.5 1.88-1.512.66-.012 1.683.779 1.894 1.431.16.49-.712 1.317-1.438 2.508M218.731 277.564c-.834.284-1.687.823-2.498.765-.597-.042-1.14-.864-1.707-1.338.523-.51 1.035-1.424 1.57-1.438.887-.022 1.79.534 2.686.847l-.05 1.164M277.468 232.94c-1.27.971-1.945 1.889-2.56 1.849-.692-.045-1.665-.826-1.915-1.508-.4-1.095.504-1.802 1.55-1.693.767.08 1.482.657 2.925 1.352M200.594 295.58c1.424-.91 2.09-1.643 2.798-1.688.565-.035 1.181.77 1.775 1.203-.53.67-.956 1.712-1.622 1.9-.578.164-1.43-.636-2.95-1.416M60.278 267.506c-.87-1.08-1.67-1.662-1.856-2.4-.268-1.061.47-1.739 1.6-1.759 1.196-.02 1.728.821 1.64 1.804-.058.645-.697 1.238-1.384 2.355M39.99 206.637c.785.942 1.71 1.725 1.587 1.962-.366.704-1.073 1.485-1.787 1.66-.444.108-1.143-.824-1.729-1.288l1.928-2.334M295.313 196.42c-.755.954-1.075 1.751-1.593 1.913-.678.212-1.57.06-2.254-.218-.281-.115-.515-1.284-.335-1.428a4.599 4.599 0 0 1 2.052-.915c.48-.08 1.033.291 2.13.648M74.328 271.38l-1.167 3.06c-1.663.06-2.733-.515-2.417-1.965.353-1.618 1.715-1.55 3.584-1.095M98.568 271.663c3.333-1.198 3.333-1.198 4.015 1.79-1.8.714-3.052.287-4.015-1.79M271.096 268.492c.644.875 1.281 1.349 1.305 1.852.054 1.152-.548 2.177-1.837 1.988-.614-.09-1.117-.946-1.669-1.455l2.2-2.385M136.278 283.881c-1.237.773-1.808 1.387-2.45 1.476-1.239.171-2.04-.668-1.903-1.837.054-.459 1.124-1.145 1.69-1.108.718.048 1.395.726 2.663 1.469M301.82 209.743c-1.14.746-1.82 1.486-2.573 1.571-.424.048-.97-.985-1.46-1.531.628-.565 1.185-1.398 1.91-1.592.43-.114 1.127.786 2.123 1.552M236.33 252.797c.703 1.148 1.453 1.843 1.442 2.526-.008.525-.973 1.035-1.513 1.552-.585-.631-1.414-1.184-1.65-1.926-.12-.374.836-1.092 1.721-2.152M155.564 279.532c1.325-.44 1.968-.856 2.568-.802.724.067 1.46.458 2.083.871.17.113.091 1.092-.11 1.19-.774.38-1.683.842-2.465.73-.6-.085-1.083-.988-2.076-1.99M285.958 211.473c-.203 2.493-1.44 2.988-2.949 2.773-.364-.052-.974-1.225-.816-1.621.738-1.853 2.28-.901 3.765-1.152M56.202 108.075c-1.04.749-1.803 1.61-2.128 1.468-.734-.321-1.51-1.053-1.753-1.789-.129-.393.814-1.14 1.272-1.729l2.609 2.05M139.774 295.843c-1.087.89-1.769 1.613-2.606 2.001-.18.084-1.431-1.337-1.305-1.556.404-.706 1.153-1.339 1.912-1.656.324-.135 1.002.579 2 1.211M45.028 118.93c-1.018.89-1.705 1.922-2.24 1.848-.655-.089-1.518-1.025-1.69-1.74-.274-1.137.729-1.664 1.725-1.505.624.101 1.167.713 2.205 1.398M122.32 294.472c1.302-.546 2.08-1.141 2.804-1.08.49.04.903 1.004 1.35 1.555-.674.496-1.309 1.285-2.036 1.383-.468.062-1.07-.893-2.118-1.858M265.048 254.411c-1.032.652-1.775 1.472-2.245 1.336-.714-.205-1.674-1.025-1.745-1.671-.123-1.11.959-1.622 1.955-1.344.635.177 1.12.894 2.035 1.679M253.001 280.74c.754 1.205 1.428 1.806 1.419 2.396-.01.653-.548 1.749-1.026 1.85-1.045.225-1.834-.556-1.694-1.683.082-.667.623-1.276 1.301-2.564M300.184 221.114c-.058 1.811-.105 3.214-1.95 3.001-.492-.057-1.309-1.107-1.234-1.585.269-1.724 1.595-1.572 3.184-1.416M292.621 221.723c-.979.749-1.665 1.64-2.115 1.533-.693-.164-1.223-1.015-1.822-1.574.583-.459 1.139-1.229 1.757-1.283.56-.049 1.19.683 2.18 1.324M147.344 309.247c.153 1.745.645 3.15-.955 3.72-.449.16-1.705-.581-1.812-1.077-.376-1.758 1.18-1.881 2.767-2.643M56.273 279.829c.222 1.74-.455 2.915-2.073 3.071-1.028.1-1.816-.894-1.438-1.93.609-1.671 1.987-1.665 3.511-1.141M223.102 298.65c-1.106.709-1.856 1.53-2.28 1.385-.7-.238-1.19-1.099-1.769-1.698.562-.498 1.168-1.439 1.673-1.387.697.072 1.319.892 2.376 1.7M289.985 173.717c-1.286.707-1.978 1.35-2.736 1.44-1.05.125-1.752-.614-1.611-1.736.144-1.154 1.042-1.551 2.034-1.276.646.18 1.177.775 2.313 1.572M131.054 302.851c.598.9 1.244 1.432 1.228 1.942-.035 1.077-.509 2.234-1.882 1.911-.612-.144-1.59-1.31-1.481-1.506.44-.808 1.236-1.421 2.135-2.347M241.326 276.662c-.794 1.52-1.555 2.55-3.07 1.56-.398-.26-.713-1.383-.487-1.733.998-1.54 2.158-.781 3.557.173M191.836 282.092c-1.14.82-1.767 1.626-2.293 1.564-.742-.087-1.41-.814-2.11-1.268.438-.592.91-1.7 1.306-1.672.86.059 1.68.696 3.097 1.376M42.057 192.123c.855 1.086 1.817 1.781 1.755 2.369-.068.643-1.012 1.558-1.698 1.686-1.056.196-1.705-.733-1.49-1.788.129-.64.722-1.185 1.433-2.267M71.289 251.182c.096 1.504.29 2.942-1.478 3.065-.584.04-1.795-1.055-1.77-1.586.083-1.777 1.504-1.718 3.248-1.48M73.874 260.674c-.807 1.772-1.69 2.856-3.343 1.66-.385-.277-.637-1.47-.386-1.775 1.13-1.373 2.413-1.089 3.73.115M43.446 246.877c.867 1.085 1.551 1.59 1.715 2.23.24.939 0 2.143-1.248 2.015-.712-.074-1.717-.921-1.884-1.596-.144-.582.71-1.413 1.417-2.65M128.645 284.422c-1.296.847-1.94 1.52-2.685 1.66-.45.084-1.054-.658-1.589-1.028.542-.64.977-1.542 1.666-1.827.442-.184 1.26.538 2.608 1.195M87.104 270.936c-1.241.652-2.141 1.442-2.499 1.244-.66-.364-1.098-1.27-1.396-2.041-.06-.154 1.05-1.113 1.392-1 .76.249 1.375.941 2.503 1.797M35.032 177.965l-1.91 1.896-1.76-1.882c.53-.492 1.02-1.313 1.597-1.378.523-.06 1.137.707 2.073 1.364M201.733 277.491c.786.856 1.622 1.347 1.692 1.931.135 1.132-.797 1.78-1.827 1.52-.602-.151-1.397-.952-1.439-1.511-.037-.506.83-1.079 1.574-1.94M40.412 159.29c0 1.326.632 2.806-1.237 3.094-.452.07-1.607-1.206-1.572-1.814.092-1.602 1.368-1.528 2.809-1.28M230 274.817c-.6 1.134-.773 1.934-1.26 2.259-.589.391-1.442.465-2.186.481-.184.005-.647-.869-.526-1.119.322-.67.781-1.43 1.396-1.754.508-.267 1.315.037 2.576.133M34.478 135.192c-.823-.974-1.57-1.476-1.706-2.11-.21-.972.266-2.014 1.459-1.824.556.089 1.305.947 1.38 1.533.076.596-.568 1.285-1.133 2.401M46.553 235.427c-.147 1.433-.192 2.748-1.768 2.71-1.13-.026-1.626-1.056-1.3-2.025.495-1.467 1.648-1.33 3.068-.685M109.447 294.156c-.146 1.908-.065 3.322-1.695 3.534-.51.066-1.651-.885-1.645-1.358.026-1.856 1.445-1.937 3.34-2.176M155.889 296.668c-.113 1.872-.586 3.149-2.382 2.955-.504-.055-1.388-1.174-1.274-1.563.491-1.679 1.914-1.605 3.656-1.392M161.042 297.005c.808 1.083 1.49 1.68 1.698 2.412.098.347-.923 1.427-1.076 1.36-.77-.343-1.596-.844-2.023-1.527-.162-.259.696-1.156 1.401-2.245M110.643 308.866c-.95.756-1.554 1.577-2.27 1.69-.49.076-1.534-.761-1.631-1.314-.247-1.39.979-1.737 2.022-1.723.5.006.992.68 1.88 1.347M226.414 261.418c-1.081.667-1.729 1.388-2.287 1.324-.61-.07-1.139-.866-1.703-1.346.625-.543 1.183-1.35 1.898-1.53.424-.108 1.096.774 2.092 1.552M30.35 210.867c-.993.824-1.578 1.686-2.114 1.656-.61-.034-1.175-.866-1.76-1.351.485-.522.919-1.39 1.468-1.47.582-.087 1.274.575 2.406 1.165M48.183 158.826l-2.004 1.637-1.585-1.966c.545-.441 1.107-1.248 1.633-1.224.566.024 1.098.827 1.956 1.553M46.476 128.806c-1.578-.923-2.142-2.01-1.037-3.256.342-.386 1.845-.421 2.1-.08.943 1.268.368 2.383-1.063 3.336M254.402 259.819c-.295 1.827-.92 2.787-2.385 2.156-.47-.202-.987-1.455-.778-1.871.759-1.507 1.893-.64 3.163-.285M89.519 239.585c.74.956 1.55 1.548 1.505 2.065-.051.596-.772 1.456-1.357 1.61-1.06.28-1.849-.494-1.698-1.575.086-.611.805-1.134 1.55-2.1M245.445 291.133c-.81-1.33-1.52-2.023-1.581-2.77-.039-.466.9-1.013 1.4-1.524.463.561 1.214 1.08 1.307 1.697.087.586-.514 1.276-1.126 2.597M119.455 293.382c-1.236 1.064-2.33 1.787-3.669.66-.26-.217-.276-1.267-.04-1.445 1.36-1.02 2.5-.464 3.709.785M81.372 248.99c-1.142.899-1.872 1.785-2.185 1.655-.697-.286-1.287-1.023-1.684-1.714-.094-.163.785-1.27 1.154-1.237.723.065 1.401.626 2.715 1.297M26.208 229.853c-1.068.792-1.702 1.558-2.447 1.688-.373.065-.949-1.03-1.432-1.6.617-.45 1.184-1.108 1.87-1.272.416-.1 1.014.565 2.009 1.184M265.37 244.9c-.773-1.169-1.586-1.881-1.464-2.347.15-.57 1.04-1.184 1.693-1.295.434-.074 1.505.864 1.438 1.063-.253.756-.853 1.394-1.668 2.578M299.561 162.37c.474 1.337.628 2.563-.936 3.115-.355.125-1.424-.597-1.483-1.022-.222-1.636.783-2.19 2.42-2.092M306.531 193.271c-1.008.74-1.634 1.391-2.394 1.65-.242.082-1.15-.846-1.203-1.369-.109-1.048.557-1.867 1.704-1.69.54.084.996.715 1.893 1.41M226.109 288.951c-1.064.708-1.704 1.466-2.217 1.388-.602-.09-1.095-.909-1.635-1.412.514-.48 1.003-1.306 1.546-1.343.576-.04 1.203.67 2.306 1.367M40.91 188.039c-1.65.144-2.712-.24-2.657-1.492.029-.633 1.036-1.222 1.6-1.83l.827.285.23 3.037M88.107 284.911c1.418-1.15 2.556-1.633 3.815-.283-1.601 2.067-1.601 2.067-3.815.283M159.17 308.323c-.813.715-1.34 1.515-1.744 1.456-.638-.092-1.192-.76-1.782-1.185.483-.552.9-1.447 1.467-1.554.501-.094 1.167.689 2.059 1.283M117.322 283.195c-1.19.664-1.869 1.209-2.63 1.372-.25.054-1.118-1.1-1-1.317.329-.605.964-1.224 1.603-1.411.365-.107.973.617 2.027 1.356M235.431 264.59c.704.971 1.513 1.62 1.414 2.066-.13.583-1.01 1.424-1.51 1.386-.56-.043-1.357-.882-1.478-1.49-.084-.424.795-1.04 1.574-1.961M65.51 225.853c1.623.893 2.431 1.708 1.574 3.033-.233.36-1.4.574-1.75.319-1.333-.975-.493-1.984.177-3.352M184.89 299.143l-1.28 2.114c-.456-.067-.83-.037-.873-.143-.278-.674-.483-1.377-.71-2.071l2.382-.73c.16.277.32.554.482.83M209.694 280.35c.17-1.71 1.346-2.132 2.782-2.706.221.61.696 1.28.527 1.563-.702 1.178-1.748 1.76-3.309 1.143M172.926 297.335c-1.04.451-1.696.97-2.307.921-.422-.034-.784-.85-1.173-1.317.59-.424 1.143-1.07 1.787-1.181.357-.062.868.772 1.693 1.577M34.115 187.963c-.938.583-1.526 1.185-2.166 1.247-.327.031-1.167-1.148-1.045-1.361.348-.61 1.014-1.157 1.676-1.405.228-.086.812.78 1.535 1.52M154.49 287.889c.792-.749 1.298-1.574 1.697-1.524.612.075 1.15.752 1.72 1.174-.385.503-.759 1.406-1.155 1.416-.631.016-1.277-.563-2.261-1.066M216.629 284.506c-1.618.15-2.38-.438-2.05-1.966.066-.304.719-.754 1.003-.69 1.61.354 1.443 1.438 1.047 2.656M190.473 297.154c.383-.204.74-.514 1.132-.572.536-.08 1.1.034 2.148.093-.454.912-.623 1.886-1.092 2.064-1.114.423-1.967-.103-2.188-1.585M293.209 159.457c.395 1.126.326 2.028-1.611 2.405 0-.775-.066-1.32.02-1.841.074-.457.318-.886.487-1.328l1.104.764M63.397 130.43c-.655.607-1.103 1.29-1.383 1.225-.555-.125-1.016-.662-1.516-1.03.346-.392.685-1.096 1.039-1.104.517-.01 1.044.478 1.86.909" fill="#231F20"/>
  </g>
</svg>
