<?xml version="1.0" encoding="UTF-8"?>
<svg width="329px" height="326px" viewBox="0 0 329 326" version="1.1" xmlns="http://www.w3.org/2000/svg" xmlns:xlink="http://www.w3.org/1999/xlink">
    <!-- Generator: Sketch 53.2 (72643) - https://sketchapp.com -->
    <title>shape2</title>
    <desc>Created with Sketch.</desc>
    <defs>
        <polygon id="path-1" points="9.41256648e-05 0.108917791 299.710591 0.108917791 299.710591 291.641718 9.41256648e-05 291.641718"></polygon>
    </defs>
    <g id="shape2" stroke="none" stroke-width="1" fill="none" fill-rule="evenodd">
        <g id="Group-461" transform="translate(9.000000, 14.000000)">
            <g id="Group-460">
                <g id="Group-3" transform="translate(0.000000, 0.249364)">
                    <mask id="mask-2" fill="white">
                        <use xlink:href="#path-1"></use>
                    </mask>
                    <g id="Clip-2"></g>
                    <path d="M12.5718258,220.602632 L12.4726611,220.495506 C13.4134726,225.494617 17.355358,228.39742 20.0843556,232.149709 C21.8507041,231.374387 23.3088186,230.521317 24.5997494,232.547044 C24.102136,233.200193 23.5694391,233.900276 22.8903222,234.792041 C30.9036874,242.650603 40.0912768,248.46409 49.9186038,253.239633 C52.5491527,251.275889 54.0552387,250.997862 54.629821,252.502647 C54.2274344,253.149705 53.7577446,253.904247 53.2361456,254.742269 C55.9504654,256.459516 58.604284,257.887628 61.8119212,257.216566 C63.0534487,260.792939 66.4637112,261.098195 69.1003461,262.377263 C71.8848329,263.72727 74.5894869,265.883771 77.9320883,264.259319 C80.577315,268.748954 85.381253,268.701302 88.7388902,270.619903 C89.6890095,269.480924 90.2381742,268.183226 90.9774344,268.063918 C92.8160979,267.766902 94.2734964,265.392208 96.5890095,266.942853 C96.1726611,269.680129 93.1859069,269.503854 91.4005847,271.509876 C95.7205131,272.889263 99.6212291,274.13501 103.309654,275.313042 C104.137339,274.246078 104.703329,273.516257 105.26932,272.787152 C105.466575,272.895712 105.663831,273.004271 105.861086,273.112831 L105.861086,276.349552 C113.583043,278.446936 121.1908,280.875373 128.963234,282.523471 C136.87636,284.202024 144.936981,285.22062 152.961086,286.323413 C158.501778,287.084404 164.080776,287.812433 169.660489,287.982617 C176.312757,288.18648 182.996527,287.991933 189.643425,287.591015 C203.798556,286.737228 217.916456,285.425199 231.761921,282.161965 C235.790084,281.212517 239.731611,279.891889 244.057625,278.641842 C242.878389,277.062176 242.358222,275.81392 244.021826,275.013876 C244.737458,274.669567 245.684714,274.424144 246.410728,274.60436 C247.011444,274.753047 247.441038,275.592502 248.294141,276.493224 C250.188294,274.603285 251.982566,272.736635 253.858103,270.955614 C258.428628,266.6161 263.136981,262.41739 267.596527,257.967884 C271.046527,254.525508 274.010012,250.582613 277.558103,247.255604 C279.967411,244.996635 281.840084,242.450323 283.312876,239.627059 C286.447482,233.616517 289.43889,227.526436 292.321468,221.390136 C297.087458,211.243226 297.579344,200.672109 294.670632,189.979177 C293.144857,184.371344 290.951778,179.025057 288.313711,173.746485 C282.991038,163.094755 275.761325,154.018392 267.0871,146.154814 C262.119916,141.652281 257.422661,136.953052 253.009654,131.95824 C249.050227,127.477204 245.464905,122.633228 243.559654,116.889248 C241.011802,109.208752 240.637697,101.153135 240.996766,93.1878052 C241.344737,85.4757806 242.705477,77.8135573 243.467291,70.1140726 C244.404881,60.6364334 243.147243,51.5249585 238.172542,43.2128113 C235.971945,39.5361193 233.547243,35.9927082 231.193783,32.4091696 C230.875525,31.9251303 230.412279,31.5174052 229.958341,31.1447917 C225.929463,27.8349806 221.886981,24.540934 217.87278,21.2619352 C215.376122,23.9325708 215.303807,23.9397364 212.908819,21.6413561 C209.901659,18.7553929 206.673974,16.4978567 202.150346,17.3201144 C201.242828,17.4852825 200.220036,17.3401782 199.319678,17.0890223 C198.801301,16.943918 198.421826,16.3000849 197.613115,15.533361 C199.406671,15.1596726 200.655716,14.8992015 201.904403,14.6390886 C185.441277,6.18362847 168.311563,1.94443337 150.284714,4.02748613 C149.611683,5.27645791 149.198914,6.04318184 148.604642,7.14633276 C146.715143,4.90276957 144.735788,3.94902233 142.625764,5.07152049 C142.218007,6.27033276 142.174332,7.53041129 141.544976,7.99653644 C140.447363,8.80876221 139.386623,8.4443892 138.756193,6.94461988 C138.597601,6.56842356 137.23722,6.40433031 136.550943,6.59099534 C130.355835,8.27563828 124.371587,10.5299499 118.877792,13.2349806 C118.607506,14.7892088 118.398079,15.9937536 118.075167,17.8518052 C116.648914,16.7056604 115.796885,16.0216996 114.779105,15.2040996 C108.23173,17.9026812 102.470155,22.052664 96.4855489,26.2678542 C97.3128759,26.7984702 97.9354296,27.1979548 98.8640692,27.7944947 C97.7335203,28.981842 96.8038067,29.958161 95.0972434,31.7506469 C94.5409189,30.3261168 94.1507041,29.3257929 93.7848329,28.3885266 C87.4132339,33.1185683 82.5480788,38.2083254 78.5281504,44.1085168 C80.8594153,46.0826518 81.1425895,46.574215 80.5504654,47.3696015 C79.1657399,49.2305193 77.8708711,47.0661364 76.5985561,47.0930076 C71.2912768,54.5968702 67.9415155,62.7019303 66.1107279,71.5565168 C67.2731384,71.6485953 68.1376969,71.7170272 69.3133532,71.8105389 C68.9768377,72.8560064 68.9317303,74.0415622 68.4484368,74.2611892 C67.6526134,74.622696 66.5736158,74.3590002 65.3993914,74.3590002 C65.0374582,75.5828923 64.5774344,77.0461168 64.1718258,78.5240309 C62.9131146,83.1093266 61.7779117,87.7315254 60.3939021,92.2781266 C59.4656205,95.3263917 58.0225418,98.2184456 57.1118019,101.271368 C54.55321,109.847928 50.3095346,117.580733 44.8944988,124.569744 C38.9260024,132.273528 32.4487947,139.584635 26.1441408,147.02544 C19.605716,154.74248 13.5190811,162.752237 8.87015513,171.799938 C5.07039379,179.196674 3.40142005,186.997552 3.78089499,195.273871 C4.08698091,201.946161 6.55213604,208.064546 8.8121599,214.201204 C9.65416468,216.486686 11.2952148,218.477302 12.5718258,220.602632 M174.627673,291.641754 C162.180537,291.10648 149.917053,289.421479 137.652136,287.629351 C124.608222,285.724006 112.216933,281.456149 99.6717064,277.680929 C85.0268377,273.273341 70.982685,267.444448 57.3734964,260.518136 C50.7992721,257.172139 44.0195585,254.153253 37.7467661,250.309243 C26.8318496,243.621189 16.8627566,235.714259 9.95022673,224.627933 C4.0350716,215.141695 0.727195704,204.738254 0.0627565632,193.608934 C-0.38473747,186.11582 1.60392601,179.025057 4.76860382,172.226293 C9.07457041,162.975089 15.1934248,154.970706 21.6505847,147.192399 C25.5262411,142.523982 29.4112053,137.858073 33.4576253,133.339059 C42.3416348,123.418225 49.6139499,112.533253 54.2077446,99.9428579 C57.1121599,91.9825438 59.277673,83.8280407 61.232685,75.5918493 C63.2968854,66.8952653 66.0781504,58.5057291 70.3508234,50.5045708 C74.7649045,42.2400751 80.4684845,35.2138027 87.4010621,29.1588334 C93.854284,23.5237708 100.962637,18.7378371 108.531014,14.6648849 C115.775764,10.7656996 123.170513,7.19326773 131.04068,4.76053153 C135.013711,3.53234012 139.089129,2.5843254 143.169558,1.76385914 C152.231492,-0.0590807362 161.395095,-0.538462331 170.502136,1.15083828 C181.611444,3.21167755 192.612995,5.7741119 202.809773,10.9240604 C206.297005,12.6853757 209.849749,14.2980039 213.415382,15.8877021 C220.589248,19.0864456 226.987339,23.7752849 232.765382,29.1917953 C233.111205,29.5160407 233.445215,29.878264 233.689368,30.280615 C236.83543,35.4613757 240.319439,40.4755352 243.012637,45.8830886 C246.901181,53.6904162 247.147124,62.2092923 246.402136,70.7385585 C245.697243,78.8102984 244.379105,86.8573168 244.170394,94.9369389 C243.949153,103.503825 244.534833,112.16888 248.706193,119.989822 C251.05321,124.390603 254.203926,128.221714 257.507148,132.026671 C262.069797,137.282671 267.541038,141.462033 272.413353,146.314608 C275.526838,149.415898 278.522184,152.6734 281.243305,156.119359 C283.741754,159.283707 285.870394,162.750446 288.040919,166.161292 C292.740322,173.545847 296.342828,181.434505 298.279582,189.998166 C300.766933,200.994922 300.057387,211.7785 295.792232,222.280826 C292.551659,230.260129 288.401778,237.78513 283.757864,244.982303 C281.3371,248.733518 278.016337,251.949459 274.857029,255.166475 C269.850107,260.264114 264.643067,265.165415 259.510131,270.139447 C256.858819,272.70833 254.32278,275.420527 251.49068,277.774082 C246.594021,281.843452 240.613711,283.806122 234.540322,284.984512 C224.733759,286.887707 214.857029,288.598146 204.933043,289.683741 C194.879821,290.782593 184.733162,291.024433 174.627673,291.641754" id="Fill-1" fill="#231F20" mask="url(#mask-2)"></path>
                </g>
                <path d="M46.5432458,146.048691 C42.7603103,147.512632 41.8373986,146.771346 42.0629356,142.371999 C41.1894272,142.227969 40.2185442,142.238359 39.4184248,141.874345 C38.9168735,141.646119 38.2735561,140.715302 38.4020764,140.345554 C38.6150835,139.730742 39.3582816,138.953628 39.9478998,138.890212 C41.0730788,138.768396 42.3113842,138.922457 43.376778,139.309402 C44.0276134,139.545868 44.9981384,140.779792 44.879284,140.967891 C43.6628162,142.895449 45.331432,143.652857 46.1934845,144.772848 C46.4458711,145.100676 46.4365632,145.628784 46.5432458,146.048691" id="Fill-6" fill="#231F20"></path>
                <path d="M55.8434606,123.801623 C54.9681623,125.38523 54.3431026,126.516685 53.7287828,127.628435 C51.318043,126.600523 51.0606444,126.049843 52.4195943,124.450472 C54.238568,122.309019 56.2018138,120.290099 58.4088544,117.885667 C59.2852267,118.577868 60.1121957,119.231375 61.29,120.162192 C58.9383294,121.330192 58.7894033,124.518187 55.8434606,123.801623" id="Fill-8" fill="#231F20"></path>
                <path d="M91.1038783,238.752815 C90.8769093,240.442832 89.9658115,240.946935 88.6279833,240.922572 C87.4551909,240.901075 86.2823986,240.871696 85.1099642,240.844466 C83.5612768,240.80828 82.0945704,240.771735 81.0409905,242.353551 C80.7520883,242.787072 79.5846659,242.723298 78.828222,242.693919 C78.6377685,242.686395 78.2203461,241.795347 78.3524463,241.548849 C78.6502983,240.991362 79.1708234,240.506964 79.6977924,240.126469 C82.574642,238.049507 86.0658115,238.672201 89.2745227,238.058822 C89.8161695,237.955279 90.4823986,238.501659 91.1038783,238.752815" id="Fill-10" fill="#231F20"></path>
                <path d="M20.83858,176.424322 C22.4542124,176.877907 23.759821,177.243713 25.0611337,177.609161 C24.2520644,179.84735 23.2890573,180.733024 21.7912053,180.393731 C20.2668616,180.047988 19.336432,179.123978 19.3167422,177.404224 C19.3095823,176.772214 18.9011098,176.153819 18.7582697,175.510702 C18.5993198,174.795929 18.2785561,173.955399 18.5176969,173.369966 C18.6823747,172.966899 20.0406086,172.553083 20.236432,172.755512 C20.8042124,173.340587 21.1099403,174.214437 21.3945465,175.018781 C21.4804654,175.261338 21.1618496,175.647208 20.83858,176.424322" id="Fill-12" fill="#231F20"></path>
                <path d="M13.2143914,194.992369 C13.6575895,196.132423 13.8781146,197.013797 14.3213126,197.762965 C14.970716,198.862892 15.0405251,199.876472 13.8330072,200.431451 C12.5066348,201.040889 11.9220286,200.134794 11.6921957,198.925591 C11.6284726,198.590597 11.516778,198.264919 11.3657041,197.708865 C10.4596181,197.798794 9.55460621,198.001223 8.67143198,197.932433 C8.17847255,197.894097 7.36868735,197.448752 7.32536993,197.107667 C7.25162291,196.522951 7.4775179,195.606465 7.90961814,195.303358 C9.55890215,194.14754 11.3778759,193.974489 13.2143914,194.992369" id="Fill-14" fill="#231F20"></path>
                <path d="M250.084869,266.238399 C249.628783,265.857545 249.469833,265.611405 249.280811,265.585608 C248.155274,265.431547 246.953842,265.258138 247.631527,263.696028 C248.196802,262.394389 249.123294,262.509397 250.199785,263.324489 C250.814821,263.790614 251.697279,263.885201 252.417208,264.234168 C254.242267,265.119841 254.482124,266.735336 253.02043,268.125829 C252.596563,268.529613 252.193103,269.008637 251.684391,269.257284 C251.019594,269.58153 250.25957,269.71087 249.540358,269.924406 C249.529618,269.169505 249.456587,268.407797 249.531408,267.661137 C249.575442,267.221883 249.853962,266.806276 250.084869,266.238399" id="Fill-16" fill="#231F20"></path>
                <path d="M292.496134,217.332519 C291.955203,218.136862 291.679905,219.004622 291.14864,219.209559 C290.591241,219.425245 289.433842,219.23643 289.16284,218.818673 C288.496253,217.79112 287.592673,216.365515 287.860453,215.398511 C288.399952,213.450889 286.843747,212.993005 285.864272,211.738659 C286.65401,211.280416 287.263317,210.750516 287.964988,210.560268 C289.155322,210.23674 289.942554,210.950796 289.654726,212.074727 C288.983126,214.695203 290.311647,216.201064 292.496134,217.332519" id="Fill-18" fill="#231F20"></path>
                <path d="M69.5461933,259.764454 C68.4979833,258.102741 68.4306802,256.786412 69.570179,255.594407 C70.6606325,254.454353 71.6830668,255.229676 72.7864081,255.767099 C73.6760263,256.200621 74.7274582,256.30094 75.9958353,256.622319 C74.3064558,259.449166 71.2677924,257.928258 69.5461933,259.764454" id="Fill-20" fill="#231F20"></path>
                <path d="M114.386527,265.632722 C112.387124,267.266131 111.040346,268.366416 109.514212,269.613238 C108.977578,269.420124 108.203592,269.335927 107.71994,268.916379 C107.176504,268.44488 106.697864,267.698936 106.599057,267.013542 C106.560036,266.741964 107.574236,266.182327 108.183902,265.980973 C109.415048,265.573606 110.684857,265.233238 111.965048,265.045856 C112.533902,264.962735 113.166838,265.317434 114.386527,265.632722" id="Fill-22" fill="#231F20"></path>
                <path d="M18.6699881,211.275651 C17.1341885,210.844637 15.52679,210.850728 14.7248807,210.049609 C13.7840692,209.109118 15.0796539,208.293309 15.9155728,207.636936 C16.7303699,206.997403 17.4238067,205.983822 18.6076969,206.847641 C20.1445704,207.968706 19.3866945,209.292559 18.6699881,211.275651" id="Fill-24" fill="#231F20"></path>
                <path d="M87.5858234,112.719703 C85.7933413,112.961544 84.317327,113.306569 82.8459666,113.288297 C82.2527685,113.280773 81.6692363,112.479296 81.0810501,112.039325 C81.5994272,111.53773 82.0379714,110.797877 82.6555131,110.590432 C83.6213842,110.26547 84.7064678,110.22785 85.7442959,110.201696 C87.2876134,110.161926 87.7608831,111.057274 87.5858234,112.719703" id="Fill-26" fill="#231F20"></path>
                <path d="M123.941563,276.206598 C122.24037,277.214446 120.363759,277.52436 118.468532,276.728615 C117.898246,276.488924 117.650871,275.479643 117.255644,274.822554 C117.930465,274.560291 118.658986,273.989906 119.269726,274.096316 C120.845263,274.37076 122.368174,274.94437 123.912566,275.398313 C123.922232,275.667741 123.931897,275.93717 123.941563,276.206598" id="Fill-28" fill="#231F20"></path>
                <path d="M37.8111695,205.120147 C36.8918377,205.727794 36.1067542,206.518523 35.8472076,206.37306 C34.4832458,205.606694 33.2026969,204.659396 32.0313365,203.619303 C31.8684487,203.474557 32.52358,201.931436 32.7079475,201.949708 C33.6809785,202.048594 34.7302625,202.269296 35.5482816,202.777698 C36.3616468,203.282876 36.9326492,204.179298 37.8111695,205.120147" id="Fill-30" fill="#231F20"></path>
                <path d="M158.10247,273.07514 C157.633854,271.048695 157.794236,269.548926 159.533735,268.886821 C160.898413,268.366595 162.060465,268.915483 162.711659,270.549608 C161.795191,272.244641 160.454499,273.236725 158.10247,273.07514" id="Fill-32" fill="#231F20"></path>
                <path d="M218.917625,271.66512 C216.763926,273.153424 215.223831,274.414578 213.489344,275.289145 C213.010704,275.530985 211.577291,274.823019 211.246504,274.198175 C210.697697,273.163098 211.600203,272.533596 212.632303,272.272767 C213.974785,271.933832 215.301158,271.517508 216.658317,271.257753 C217.146623,271.1646 217.703305,271.430087 218.917625,271.66512" id="Fill-34" fill="#231F20"></path>
                <path d="M87.0292482,213.882297 C90.4996539,213.988348 90.5436874,216.774351 91.8997733,218.268029 C89.6021599,220.107809 88.8872434,219.988501 88.2256683,217.72344 C88.0617064,217.162371 87.9564558,216.584103 87.7871241,216.024466 C87.6210143,215.476294 87.4076492,214.942454 87.0292482,213.882297" id="Fill-36" fill="#231F20"></path>
                <path d="M275.810549,235.263074 C274.987876,235.882544 274.338831,236.701219 273.973317,236.589435 C272.190143,236.045563 271.119737,239.270103 269.220573,237.425307 C268.383222,236.612365 268.725465,234.927722 269.819499,234.913033 C271.345632,234.892969 272.677017,234.422903 274.08358,234.026284 C274.443723,233.924532 275.048735,234.693047 275.810549,235.263074" id="Fill-38" fill="#231F20"></path>
                <path d="M91.4583652,228.495589 C90.5093198,230.131506 89.7213723,231.488679 88.9151671,232.877739 C86.7378401,231.99099 86.596432,230.676095 87.3059785,229.23795 C88.1053819,227.618514 89.4915394,227.653626 91.4583652,228.495589" id="Fill-40" fill="#231F20"></path>
                <path d="M28.1180549,215.147821 C24.6186516,214.633686 24.2012291,213.784558 25.6088663,210.444293 C28.5018258,211.184504 28.5018258,211.184504 28.1180549,215.147821" id="Fill-42" fill="#231F20"></path>
                <path d="M62.6799523,109.126061 C62.9316229,109.380441 63.7968974,109.863047 63.9909308,110.538768 C64.3156325,111.668431 62.6359189,113.039219 61.1011933,112.779465 C60.3934368,112.659798 59.4504773,111.864412 59.2653938,111.194782 C58.9718377,110.134267 60.3658711,109.225663 62.6799523,109.126061" id="Fill-44" fill="#231F20"></path>
                <path d="M97.1048449,256.668322 C98.0789499,255.32763 98.4856325,254.249559 98.9442243,254.227346 C100.899594,254.131684 102.103174,255.4258 103.158544,257.109368 C100.883842,259.177014 99.6383771,256.415733 97.1048449,256.668322" id="Fill-46" fill="#231F20"></path>
                <path d="M116.722912,273.067437 C115.257637,273.435751 113.807041,273.955976 112.320644,274.096065 C111.747494,274.149807 110.703222,273.443991 110.555012,272.898686 C110.224582,271.678376 111.205847,271.21261 112.267661,271.325468 C113.740811,271.482038 115.196778,271.805567 116.660263,272.057797 C116.681026,272.394224 116.70179,272.73101 116.722912,273.067437" id="Fill-48" fill="#231F20"></path>
                <path d="M281.538831,224.14547 C281.027613,225.14866 280.633819,226.264709 279.934296,227.135335 C279.633222,227.509382 278.640859,227.566348 278.074869,227.395448 C277.748735,227.29692 277.449451,226.44385 277.477375,225.949779 C277.612697,223.553946 279.290979,222.771099 281.538831,224.14547" id="Fill-50" fill="#231F20"></path>
                <path d="M22.4911575,224.708797 C22.0153819,226.447899 21.8682458,228.206348 19.6640692,227.714068 C19.1929475,227.608733 18.629105,226.465096 18.6649045,225.832012 C18.7508234,224.315403 19.7643079,224.022687 22.4911575,224.708797" id="Fill-52" fill="#231F20"></path>
                <path d="M19.2209427,193.440971 C17.9933771,193.545231 16.7486277,193.81466 15.5454057,193.687111 C14.9081742,193.619038 13.8571002,192.876319 13.8427804,192.412343 C13.8066229,191.238969 14.6955251,190.326066 15.9230907,190.620574 C17.1846659,190.92368 18.3420644,191.660309 19.5445704,192.207764 C19.4371718,192.618714 19.3290573,193.030022 19.2209427,193.440971" id="Fill-54" fill="#231F20"></path>
                <path d="M273.71957,219.254452 C273.447136,221.262266 273.252745,222.695753 273.054773,224.156469 C271.370406,224.439512 270.370883,223.779198 270.227327,222.504788 C270.020048,220.671458 271.31778,219.889328 273.71957,219.254452" id="Fill-56" fill="#231F20"></path>
                <path d="M131.735298,262.636659 C129.884821,263.079496 128.679451,263.536664 127.457971,263.585749 C126.894845,263.608679 126.300215,262.833356 125.720263,262.41954 C126.237924,261.912571 126.741265,260.996443 127.275394,260.978171 C128.610358,260.931594 130.249618,260.40062 131.735298,262.636659" id="Fill-58" fill="#231F20"></path>
                <path d="M70.0391527,111.999986 C68.7407041,111.425301 67.6885561,111.140108 66.8834248,110.528521 C66.4742363,110.21789 66.2247136,109.200369 66.4255489,108.723137 C66.6245943,108.251637 67.5109905,107.752908 68.0461933,107.802351 C69.5512053,107.941365 70.3076492,109.43576 70.0391527,111.999986" id="Fill-60" fill="#231F20"></path>
                <path d="M145.419523,19.4806277 C144.315107,18.3215848 143.318091,17.4631406 142.597804,16.4140903 C142.351504,16.0554498 142.61284,14.8881664 142.975847,14.6843038 C143.445895,14.4202498 144.505919,14.5026547 144.861408,14.8713271 C145.922864,15.9726866 146.503532,17.3287848 145.419523,19.4806277" id="Fill-62" fill="#231F20"></path>
                <path d="M65.0265036,139.260246 C64.0305609,139.720997 63.1724463,140.339392 62.2488186,140.462283 C61.6828282,140.537522 60.5447613,139.902288 60.5032339,139.498862 C60.4391527,138.879392 60.945358,137.810994 61.4776969,137.59495 C62.8269809,137.047137 64.1762649,137.216604 65.0265036,139.260246" id="Fill-64" fill="#231F20"></path>
                <path d="M27.6950119,159.156087 C26.342148,159.072965 25.1675656,159.163253 24.1104057,158.85298 C23.6954893,158.731164 23.2354654,157.634821 23.3636277,157.124985 C23.4792601,156.664592 24.4358234,156.032224 24.9044391,156.118212 C26.1534845,156.346796 27.5120764,156.724784 27.6950119,159.156087" id="Fill-66" fill="#231F20"></path>
                <path d="M45.2934129,233.730236 C44.009642,234.035492 42.7219332,234.567899 41.4435322,234.546044 C40.8370883,234.536012 40.2481862,233.467973 39.6514081,232.878957 C40.3022434,232.543963 40.9609547,231.917686 41.6014081,231.936317 C42.808926,231.97107 44.0053461,232.377362 45.206778,232.629234 C45.2357757,232.996115 45.2644153,233.363355 45.2934129,233.730236" id="Fill-68" fill="#231F20"></path>
                <path d="M247.074093,252.548077 C245.982924,253.760862 245.297721,254.683797 244.437458,255.393913 C244.12099,255.6551 243.223138,255.616406 242.895215,255.345903 C242.557267,255.065726 242.385072,254.288254 242.497482,253.81353 C242.843663,252.351022 244.324332,251.835095 247.074093,252.548077" id="Fill-70" fill="#231F20"></path>
                <path d="M132.985847,17.831598 C133.194558,16.3282459 133.374988,15.0266066 133.620215,13.2577674 C134.602912,13.3498459 135.502554,13.4347588 137.040143,13.5787882 C135.50685,15.2863612 136.039905,17.6546066 132.985847,17.831598" id="Fill-72" fill="#231F20"></path>
                <path d="M154.12679,13.775736 C154.959845,12.6374734 155.548747,11.579466 156.395406,10.8034267 C156.723329,10.5031863 157.835621,10.6167617 158.217601,10.9585629 C158.523329,11.2330071 158.513305,12.3229016 158.2108,12.7270439 C157.366289,13.8559912 156.249344,14.6624844 154.12679,13.775736" id="Fill-74" fill="#231F20"></path>
                <path d="M91.5503341,121.707212 C90.4663246,121.586113 89.3321957,121.613342 88.3230072,121.270466 C87.9177566,121.132528 87.4208592,119.92225 87.6084487,119.657121 C87.9936516,119.115399 89.012506,118.433229 89.4152506,118.611654 C90.3961575,119.045892 91.1747971,119.938731 92.0350597,120.647055 C91.8732458,121.000321 91.71179,121.353946 91.5503341,121.707212" id="Fill-76" fill="#231F20"></path>
                <path d="M79.0243317,246.582571 C79.453568,246.46792 79.8867422,246.270865 80.3281504,246.250443 C81.4297017,246.199209 82.6497494,246.324966 82.6658592,247.694679 C82.6715871,248.17836 81.6713484,248.842973 81.0036874,249.130316 C79.7066706,249.688878 79.0168138,248.935768 78.8013007,247.699336 C78.7472434,247.387631 78.926599,247.035081 79.0243317,246.582571" id="Fill-78" fill="#231F20"></path>
                <path d="M38.7173628,149.559785 C37.5442124,150.226548 36.9105609,150.802307 36.1970764,150.930214 C35.5122315,151.053105 34.5832339,150.91015 34.0759547,150.496693 C33.7924224,150.265959 33.9123508,149.027019 34.274642,148.641507 C34.7421838,148.143137 35.700179,147.725738 36.3263126,147.855436 C37.0695107,148.009497 37.6849045,148.78267 38.7173628,149.559785" id="Fill-80" fill="#231F20"></path>
                <path d="M287.91247,207.902065 C287.0608,208.711067 286.227745,209.692043 286.0892,209.602473 C285.301253,209.090129 284.678699,208.322689 283.999582,207.641594 C284.610322,207.067984 285.198866,206.079125 285.838604,206.04473 C286.401014,206.014635 287.020704,207.052578 287.91247,207.902065" id="Fill-82" fill="#231F20"></path>
                <path d="M40.3115513,180.448691 C39.4162053,179.549044 38.5616706,179.00553 38.2140573,178.232716 C37.9724105,177.696725 38.4281384,176.846163 38.5727685,176.136048 C39.2969928,176.327013 40.2481862,176.295484 40.6978282,176.75516 C41.607494,177.686693 41.5441289,178.851827 40.3115513,180.448691" id="Fill-84" fill="#231F20"></path>
                <path d="M100.794236,222.043034 C103.301635,220.810902 103.419057,220.849954 104.747578,223.376202 C101.905095,224.482936 101.905095,224.482936 100.794236,222.043034" id="Fill-86" fill="#231F20"></path>
                <path d="M216.300465,261.735006 C214.544141,262.238751 213.376718,262.643968 212.175644,262.872552 C211.847721,262.934893 211.112757,262.4788 211.102017,262.23696 C211.080179,261.743963 211.286026,260.958609 211.641516,260.780901 C213.050227,260.076876 214.475764,259.983723 216.300465,261.735006" id="Fill-88" fill="#231F20"></path>
                <path d="M12.5718258,220.851997 C12.4515394,219.681847 12.0949761,218.14195 13.7725418,218.072443 C15.5413962,217.998995 15.9001074,219.471893 16.1285084,221.59794 C14.5902029,221.239658 13.531253,220.992801 12.4726611,220.745587 C12.4726611,220.74487 12.5718258,220.851997 12.5718258,220.851997" id="Fill-90" fill="#231F20"></path>
                <path d="M57.0873508,140.561097 C53.5396181,141.687178 53.3810263,141.585067 53.3817422,138.35372 C55.3392601,137.635006 56.2721957,138.69588 57.0873508,140.561097" id="Fill-92" fill="#231F20"></path>
                <path d="M48.0234845,245.403106 C46.8929356,246.313143 46.1193079,247.132176 45.1716945,247.598659 C44.8072554,247.778159 43.8929356,247.283013 43.5288544,246.84555 C43.3294511,246.604784 43.5836277,245.617359 43.9273031,245.361903 C44.9948449,244.567592 46.2105967,244.298522 48.0234845,245.403106" id="Fill-94" fill="#231F20"></path>
                <path d="M213.669344,282.303701 C213.440227,281.851549 213.17173,281.549159 213.145239,281.226705 C213.058962,280.185178 212.752518,278.941581 214.185215,278.587598 C214.586885,278.488712 215.379487,278.902886 215.58784,279.295922 C216.225788,280.500108 216.042136,281.612933 214.655621,282.242077 C214.459439,282.331289 214.198461,282.276472 213.669344,282.303701" id="Fill-96" fill="#231F20"></path>
                <path d="M34.7773031,180.979128 C35.7052267,182.032478 36.2529594,182.654455 36.8003341,183.276075 C36.137327,183.789135 35.5283771,184.550485 34.7887589,184.710637 C34.4185919,184.790892 33.4860143,183.820664 33.4065394,183.243113 C33.3345823,182.715722 34.0699045,182.077263 34.7773031,180.979128" id="Fill-98" fill="#231F20"></path>
                <path d="M148.830967,262.103105 C147.438007,262.798889 146.826193,263.335238 146.18574,263.372141 C145.141468,263.432332 144.20889,262.808205 144.466289,261.667434 C144.591229,261.113172 145.571778,260.351464 146.112351,260.391949 C146.819391,260.444259 147.474523,261.198084 148.830967,262.103105" id="Fill-100" fill="#231F20"></path>
                <path d="M19.305895,197.874714 C17.6129356,198.866797 16.307327,199.019067 15.5369212,197.327258 C15.3436038,196.902336 15.8047017,195.71678 16.2253461,195.553761 C18.0453938,194.849379 18.6922912,196.138478 19.305895,197.874714" id="Fill-102" fill="#231F20"></path>
                <path d="M180.459021,242.855576 C179.226444,243.004621 178.578115,242.232881 178.669045,241.206761 C178.826563,239.423949 180.467971,239.315031 181.771074,238.7167 C181.897088,240.513843 181.897088,240.513843 180.459021,242.855576" id="Fill-104" fill="#231F20"></path>
                <path d="M98.2347852,115.504452 C97.5417064,114.509144 96.7666468,113.872476 96.7419451,113.207504 C96.7218974,112.685487 97.6294153,112.128358 98.1241647,111.586636 C98.8190334,112.235485 99.5135442,112.884334 100.208413,113.532466 C99.6868138,114.053767 99.1655728,114.575067 98.2347852,115.504452" id="Fill-106" fill="#231F20"></path>
                <path d="M109.579081,110.581905 C110.452232,111.582229 111.31679,112.161213 111.469296,112.889242 C111.573831,113.389404 110.815239,114.372531 110.216671,114.646616 C109.314165,115.060074 107.922995,113.891358 108.107363,112.896766 C108.232303,112.222479 108.875621,111.644212 109.579081,110.581905" id="Fill-108" fill="#231F20"></path>
                <path d="M134.984535,267.764251 C134.284296,269.192005 133.786683,270.205944 133.329523,271.139269 C131.542053,271.380035 131.243126,270.310921 131.458282,269.20347 C131.773317,267.583318 132.978687,267.33682 134.984535,267.764251" id="Fill-110" fill="#231F20"></path>
                <path d="M139.74963,265.087954 C138.509177,266.804484 137.178866,266.230875 136.053329,265.874026 C135.635907,265.741819 135.133998,264.680587 135.284356,264.265338 C135.454045,263.797422 136.455716,263.189417 136.848079,263.330938 C137.856909,263.69352 138.728986,264.437314 139.74963,265.087954" id="Fill-112" fill="#231F20"></path>
                <path d="M112.775871,245.523094 C112.166205,245.869195 111.590549,246.377239 110.93685,246.515894 C110.269189,246.657416 109.158329,246.699335 108.887327,246.321706 C108.235776,245.412385 108.780644,244.419944 109.769069,244.116837 C110.514057,243.888611 111.410477,244.154815 112.239236,244.200675 C112.417876,244.641362 112.596874,245.082407 112.775871,245.523094" id="Fill-114" fill="#231F20"></path>
                <path d="M76.3484606,63.5192437 C75.3102745,64.3260952 74.6655251,65.1845394 74.223401,65.0906694 C73.4644511,64.9294425 72.8318735,64.1731087 72.1463126,63.6664977 C72.7022792,63.0402204 73.1981026,62.0008437 73.8328282,61.907332 C74.4342601,61.8188363 75.1813962,62.7217075 76.3484606,63.5192437" id="Fill-116" fill="#231F20"></path>
                <path d="M81.6344749,60.8142847 C80.4616826,62.3205031 79.8577446,63.2695926 79.0662172,64.0198356 C78.778031,64.2935632 78.0226611,64.182854 77.5193198,64.0721448 C77.2952148,64.0227018 76.9493914,63.4035902 77.0302983,63.2728172 C77.5594153,62.4186724 78.0713484,61.4753153 78.8349523,60.8741178 C79.2577446,60.5409153 80.1573866,60.8142847 81.6344749,60.8142847" id="Fill-118" fill="#231F20"></path>
                <path d="M101.237864,266.863279 C100.452064,266.015225 99.7958592,265.618964 99.6447852,265.080825 C99.3028998,263.863382 99.887506,262.850876 101.165549,262.852667 C101.702184,262.853384 102.692757,263.826837 102.667339,264.31625 C102.628317,265.068285 101.890131,265.783416 101.237864,266.863279" id="Fill-120" fill="#231F20"></path>
                <path d="M68.0415036,104.818971 C66.9367303,104.736208 65.7854177,104.807148 64.7522434,104.490068 C64.3727685,104.373627 63.9682339,103.234289 64.1347017,102.756699 C64.2929356,102.302755 65.3325537,101.716964 65.7199045,101.868159 C66.7136993,102.256537 67.560716,103.021828 68.4664439,103.636282 C68.3246778,104.03075 68.1832697,104.424861 68.0415036,104.818971" id="Fill-122" fill="#231F20"></path>
                <path d="M119.434439,244.899612 C118.375489,245.132495 117.316181,245.525173 116.258663,245.519082 C115.839809,245.516932 115.099833,244.623376 115.108067,244.145786 C115.115227,243.725163 115.980859,242.956289 116.433007,242.980652 C117.42358,243.033678 118.391957,243.492279 119.369284,243.785354 C119.391122,244.156534 119.412601,244.528073 119.434439,244.899612" id="Fill-124" fill="#231F20"></path>
                <path d="M118.270274,250.641908 C117.514905,250.954689 116.77457,251.451626 115.998079,251.517192 C115.467888,251.562335 114.886504,251.00664 114.327673,250.719655 C114.754403,250.110576 115.134594,249.040745 115.61753,248.992377 C116.500704,248.903523 117.443663,249.419091 118.361921,249.682428 C118.331492,250.002374 118.300704,250.321962 118.270274,250.641908" id="Fill-126" fill="#231F20"></path>
                <path d="M63.0204773,133.979059 C62.2869451,133.018146 61.5935084,132.418381 61.3686874,131.675662 C61.2666587,131.33816 62.067852,130.329238 62.5006683,130.303083 C63.6623628,130.232143 64.6089021,130.926136 64.5695227,132.188364 C64.5548449,132.659505 63.8062768,133.108075 63.0204773,133.979059" id="Fill-128" fill="#231F20"></path>
                <path d="M52.1740095,223.197276 C51.3749642,223.94931 50.8043198,224.679131 50.6503819,224.599234 C49.6981146,224.108388 48.839642,223.435175 47.9496659,222.822513 C48.3355847,222.361404 48.8883294,221.445993 49.0791408,221.516574 C50.0539618,221.874498 50.9349881,222.487519 52.1740095,223.197276" id="Fill-130" fill="#231F20"></path>
                <path d="M72.690537,90.0009924 C71.5897017,90.8164427 70.9739499,91.5892574 70.2669093,91.6849188 C69.7975776,91.748693 68.6663126,90.6509163 68.7540215,90.4094341 C69.0225179,89.6710145 69.6321838,88.8355004 70.3191766,88.5563985 C70.7118974,88.3966047 71.5134487,89.2471666 72.690537,90.0009924" id="Fill-132" fill="#231F20"></path>
                <path d="M37.7909069,224.77318 C36.435537,225.789627 35.5165632,227.202692 33.9850597,225.818648 C33.6481862,225.51375 33.5941289,224.25188 33.8909069,224.001082 C35.1363723,222.949166 36.4176372,223.050201 37.7909069,224.77318" id="Fill-134" fill="#231F20"></path>
                <path d="M142.220979,250.057622 C141.166683,250.832944 140.722053,251.410853 140.200453,251.492542 C138.973604,251.684581 138.150215,250.926814 138.05642,249.765263 C138.0242,249.363987 138.943174,248.465057 139.248902,248.538505 C140.119189,248.747025 140.897112,249.339624 142.220979,250.057622" id="Fill-136" fill="#231F20"></path>
                <path d="M24.0168258,187.327423 C24.9705251,188.604341 25.6421241,189.300125 26.0054893,190.130623 C26.097494,190.340576 25.05179,191.428679 24.7976134,191.340184 C24.0383055,191.075413 23.174821,190.551246 22.8268496,189.881258 C22.6310263,189.503629 23.3699284,188.639452 24.0168258,187.327423" id="Fill-138" fill="#231F20"></path>
                <path d="M166.36364,260.970862 C165.649797,263.157458 164.419726,263.201169 163.254451,263.052123 C162.848126,262.999814 162.2492,262.325885 162.234881,261.91816 C162.219845,261.499686 162.782613,260.724722 163.143831,260.693193 C164.11185,260.607922 165.107434,260.837581 166.36364,260.970862" id="Fill-140" fill="#231F20"></path>
                <path d="M31.6399761,172.926879 C30.4177804,173.553514 29.7708831,174.162236 29.1343675,174.152204 C27.9207637,174.132498 27.6554893,173.067325 27.9590692,172.138299 C28.1212411,171.642079 29.0534606,170.930172 29.3670644,171.046613 C30.074821,171.309593 30.6136038,172.026874 31.6399761,172.926879" id="Fill-142" fill="#231F20"></path>
                <path d="M73.8204773,245.070692 C72.1547255,244.656517 71.0481623,243.851457 71.8565155,242.082618 C72.0165394,241.732934 73.4907637,241.53158 73.9411217,241.851526 C75.3534129,242.854358 74.8847971,244.018775 73.8204773,245.070692" id="Fill-144" fill="#231F20"></path>
                <path d="M264.697303,247.026196 C263.46401,247.738103 262.711146,248.50196 262.272959,248.351482 C261.545155,248.101401 261.019618,247.26302 260.408878,246.67293 C260.969499,246.197847 261.569857,245.302142 262.08179,245.350152 C262.804582,245.418225 263.461862,246.183516 264.697303,247.026196" id="Fill-146" fill="#231F20"></path>
                <path d="M68.641074,242.084087 C67.1256802,242.843287 66.2192363,243.437677 65.2254415,243.705672 C64.9447733,243.78127 64.4067064,242.902403 63.98642,242.461716 C64.7586158,241.908529 65.4706683,241.188023 66.3302148,240.877392 C66.7211456,240.736229 67.4042005,241.405859 68.641074,242.084087" id="Fill-148" fill="#231F20"></path>
                <path d="M162.015251,241.847549 C163.007255,241.262116 163.828496,240.777718 164.937924,240.123137 L164.937924,244.064241 C163.086372,244.420373 162.717637,243.214754 162.015251,241.847549" id="Fill-150" fill="#231F20"></path>
                <path d="M61.1906563,240.887138 C59.9065274,241.768154 58.8615394,242.6678 57.7907757,241.160149 C57.5219212,240.781444 57.7073628,239.540355 58.0342124,239.370529 C59.5453103,238.584458 60.2895823,239.664679 61.1906563,240.887138" id="Fill-152" fill="#231F20"></path>
                <path d="M144.50531,239.350788 C143.067243,237.195362 143.090513,237.112599 145.742542,234.908447 C146.065095,236.931666 146.065095,236.931666 144.50531,239.350788" id="Fill-154" fill="#231F20"></path>
                <path d="M23.1795465,167.307724 C21.3287112,167.618354 20.1287112,167.378664 19.8179714,165.816195 C19.7359905,165.403812 20.5260859,164.394531 20.9392124,164.381275 C22.6368258,164.326099 22.8365871,165.675748 23.1795465,167.307724" id="Fill-156" fill="#231F20"></path>
                <path d="M164.905776,5.12064098 C164.714606,7.12272196 164.285728,8.30362012 162.717351,8.33479067 C162.310668,8.3423146 161.473317,7.34306552 161.542053,6.92172564 C161.814129,5.24532319 163.22284,5.44273669 164.905776,5.12064098" id="Fill-158" fill="#231F20"></path>
                <path d="M67.0888425,123.16062 C67.8263126,124.208595 68.2652148,124.832365 68.7041169,125.455776 C68.096599,125.871383 67.5162888,126.540654 66.8726134,126.608728 C66.4741647,126.651005 65.5702267,125.726995 65.6207041,125.330019 C65.701969,124.691918 66.3860979,124.131565 67.0888425,123.16062" id="Fill-160" fill="#231F20"></path>
                <path d="M86.1877446,123.535706 C84.9186516,124.195303 84.2989618,124.738459 83.6244988,124.817639 C82.5369093,124.945546 81.7514678,124.197811 81.9974105,123.145536 C82.1270048,122.58984 83.1089857,121.818459 83.6330907,121.871126 C84.3483652,121.943141 84.9938305,122.708432 86.1877446,123.535706" id="Fill-162" fill="#231F20"></path>
                <path d="M74.4875298,116.474321 C72.8296539,117.134994 72.0084129,117.74479 71.2630668,117.663102 C70.7314439,117.604702 70.3014916,116.616918 69.826074,116.044025 C70.3906325,115.591156 70.9892005,114.737011 71.5118735,114.78108 C72.2683174,114.845212 72.9696301,115.559269 74.4875298,116.474321" id="Fill-164" fill="#231F20"></path>
                <path d="M78.4233652,73.2099892 C78.21179,74.3385782 78.1502148,75.3206297 77.8033174,76.1880309 C77.6690692,76.5233831 76.8002148,76.8537193 76.4250358,76.7247377 C76.0222912,76.5857242 75.5397136,75.8917315 75.5583294,75.460718 C75.6195465,74.0537438 76.2778998,73.0892481 78.4233652,73.2099892" id="Fill-166" fill="#231F20"></path>
                <path d="M80.8992601,53.9831328 C81.2798091,54.1303867 81.5636993,54.1533168 81.7015274,54.3070199 C82.637685,55.3528456 83.3296897,56.5255033 81.9510501,57.6426272 C81.6102387,57.9188628 80.3998568,57.7572775 80.157494,57.4050861 C79.2302864,56.0586616 79.3473508,54.7835352 80.8992601,53.9831328" id="Fill-168" fill="#231F20"></path>
                <path d="M207.55722,236.149321 C204.696122,234.904649 204.693974,234.840158 207.326671,232.526372 C209.036814,233.708703 207.744809,234.891392 207.55722,236.149321" id="Fill-170" fill="#231F20"></path>
                <path d="M77.7028282,225.577201 C79.3181026,225.601206 80.639105,225.561437 80.8195346,227.244647 C80.8596301,227.61941 79.9356444,228.465673 79.4645227,228.458865 C77.9613007,228.437727 77.6942363,227.301614 77.7028282,225.577201" id="Fill-172" fill="#231F20"></path>
                <path d="M118.394033,259.133985 C117.439618,260.19235 116.818496,261.557047 115.284845,260.741597 C114.916468,260.545617 114.710263,259.092782 115.020286,258.743457 C116.120048,257.504517 117.218735,258.1505 118.394033,259.133985" id="Fill-174" fill="#231F20"></path>
                <path d="M51.0535203,208.305133 C51.9284606,209.345943 52.4586516,209.976161 52.9884845,210.606738 C52.4174821,211.019479 51.82142,211.787994 51.2812053,211.750374 C50.6729714,211.708455 49.8116348,211.032377 49.6369332,210.456976 C49.5109189,210.043876 50.3318019,209.342718 51.0535203,208.305133" id="Fill-176" fill="#231F20"></path>
                <path d="M65.7460024,204.852116 C65.252685,207.379081 63.6388425,207.259056 62.3883652,207.520602 C62.0869332,207.58366 61.3727327,206.895758 61.3007757,206.475851 C61.2313246,206.071709 61.6759547,205.241569 62.0189141,205.16633 C63.1072196,204.927356 64.2535203,204.95351 65.7460024,204.852116" id="Fill-178" fill="#231F20"></path>
                <path d="M9.48340095,208.37335 C8.66609785,207.261242 8.01132458,206.540378 7.60428401,205.698773 C7.50225537,205.487745 8.18638425,204.544388 8.52683771,204.534356 C9.75118138,204.498886 10.5416348,205.270984 10.5896062,206.493085 C10.607148,206.934488 10.081611,207.397389 9.48340095,208.37335" id="Fill-180" fill="#231F20"></path>
                <path d="M33.3596778,196.834871 C32.1643317,197.513816 31.5049045,198.195985 30.9167184,198.139018 C30.2798449,198.077394 29.3207757,197.416005 29.1908234,196.856726 C28.9101551,195.643941 29.9100358,195.132314 30.9521599,195.327936 C31.617315,195.452977 32.1886754,196.074238 33.3596778,196.834871" id="Fill-182" fill="#231F20"></path>
                <path d="M289.36611,189.451248 C290.131504,190.621398 290.885084,191.298193 290.954177,192.03912 C291.003222,192.569378 290.134726,193.185265 289.675776,193.762458 C289.146659,193.07169 288.429594,192.444338 288.16611,191.663999 C288.03222,191.266306 288.7142,190.593452 289.36611,189.451248" id="Fill-184" fill="#231F20"></path>
                <path d="M26.5374702,186.580082 C26.1204057,186.609103 25.8551313,186.709064 25.6700477,186.627375 C24.5441527,186.129721 23.4912888,185.454001 24.0451074,184.031262 C24.1904535,183.656857 25.3159905,183.265255 25.7094272,183.458011 C27.1231504,184.15057 27.2405728,185.314987 26.5374702,186.580082" id="Fill-186" fill="#231F20"></path>
                <path d="M206.348628,277.234581 C204.878341,277.744058 203.875597,278.171847 202.829535,278.399357 C202.558532,278.458473 201.947792,277.939322 201.864021,277.595013 C201.781683,277.256795 202.062351,276.615469 202.373449,276.435612 C203.564141,275.74556 204.753401,275.707224 206.348628,277.234581" id="Fill-188" fill="#231F20"></path>
                <path d="M261.759594,256.827901 C261.204702,255.656677 260.882148,255.168338 260.738234,254.63199 C260.444678,253.53493 261.474988,252.198895 262.668186,252.247263 C263.12463,252.265536 263.976659,253.004314 263.941933,253.07812 C263.485489,254.037241 262.901599,254.935455 261.759594,256.827901" id="Fill-190" fill="#231F20"></path>
                <path d="M161.798842,280.042761 C161.962088,280.240891 162.093831,280.325804 162.103854,280.423257 C162.235239,281.752484 162.253854,283.077053 160.562327,283.399507 C160.287029,283.452175 159.627243,282.91081 159.60111,282.605196 C159.46722,281.020513 160.459582,280.3516 161.798842,280.042761" id="Fill-192" fill="#231F20"></path>
                <path d="M258.597422,261.33545 C258.02821,260.475214 257.469379,260.017688 257.494081,259.594915 C257.56747,258.330895 258.49432,257.736147 259.664606,257.847214 C260.070573,257.885909 260.789069,258.855779 260.726062,258.944274 C260.174033,259.719239 259.477375,260.39066 258.597422,261.33545" id="Fill-194" fill="#231F20"></path>
                <path d="M172.259714,277.276572 C171.974391,277.866663 171.839069,278.697161 171.369379,278.99131 C170.668425,279.429848 169.736205,279.517627 168.887399,279.668464 C168.800406,279.68387 168.413413,278.940076 168.498258,278.844415 C169.002315,278.276896 169.560072,277.730157 170.189069,277.310609 C170.627613,277.017534 171.208998,276.939428 171.727017,276.764945 C171.904582,276.935845 172.082148,277.105671 172.259714,277.276572" id="Fill-196" fill="#231F20"></path>
                <path d="M38.8963604,212.760909 C37.1185561,213.276478 35.9181981,213.16326 35.7266706,211.439923 C35.6772673,210.993145 36.4372912,210.033307 36.822494,210.035098 C38.396599,210.041189 38.9400358,211.09633 38.8963604,212.760909" id="Fill-198" fill="#231F20"></path>
                <path d="M11.1342601,187.009734 C9.54082339,187.508821 8.21087112,187.918338 7.694642,186.144841 C7.55896181,185.679074 8.10848449,184.545827 8.47399761,184.48277 C10.0520406,184.212267 10.7383174,185.248419 11.1342601,187.009734" id="Fill-200" fill="#231F20"></path>
                <path d="M55.0103341,184.568256 C54.1142721,185.468261 53.51821,186.240359 52.7485203,186.750194 C52.4563962,186.943667 51.5345585,186.684987 51.3172554,186.356084 C51.0788305,185.995652 51.1085442,185.095647 51.3956563,184.817262 C52.244105,183.995362 53.3105728,183.689031 55.0103341,184.568256" id="Fill-202" fill="#231F20"></path>
                <path d="M74.93642,123.988825 C73.9558711,124.715421 73.4972792,125.287598 72.9337947,125.423745 C71.8082578,125.695323 70.9920286,125.094126 71.1051551,123.923618 C71.1567064,123.39121 71.9783055,122.451078 72.2686396,122.515569 C73.0705489,122.694351 73.7768735,123.304148 74.93642,123.988825" id="Fill-204" fill="#231F20"></path>
                <path d="M98.5130549,124.272226 C97.7709308,123.525208 96.8659189,123.022896 96.8351313,122.470783 C96.8029117,121.896457 97.6141289,121.275196 98.056969,120.673998 C98.6737947,121.264447 99.4144869,121.782523 99.8315513,122.490847 C99.9518377,122.695426 99.1427685,123.447819 98.5130549,124.272226" id="Fill-206" fill="#231F20"></path>
                <path d="M117.122864,110.294312 C117.831695,111.637512 118.507232,112.36375 118.487184,113.07064 C118.472864,113.548947 117.422864,114.417065 116.94136,114.350425 C116.401862,114.275185 115.646134,113.366582 115.604248,112.776849 C115.563079,112.197865 116.300191,111.563347 117.122864,110.294312" id="Fill-208" fill="#231F20"></path>
                <path d="M88.0238663,49.7456574 C88.6131265,50.9634587 89.0470167,52.1905752 87.5054893,52.911439 C87.1843675,53.061201 85.951074,52.2095642 85.8408115,51.6742906 C85.5318616,50.1741629 86.5177804,49.65752 88.0238663,49.7456574" id="Fill-210" fill="#231F20"></path>
                <path d="M134.156993,28.8974307 C133.835513,30.4423436 133.604964,31.548719 133.376563,32.6454209 C131.807112,32.7833595 131.192792,31.9901227 131.281217,30.819973 C131.384678,29.4473939 132.385632,28.9612049 134.156993,28.8974307" id="Fill-212" fill="#231F20"></path>
                <path d="M129.103461,20.3266395 C128.604415,21.0736579 128.22494,21.9704383 127.556921,22.5057119 C127.216826,22.7776481 126.27673,22.5365242 125.771957,22.2441659 C125.576134,22.1305904 125.631981,20.9604407 125.920167,20.7512039 C126.692721,20.1904923 127.652506,19.8891769 128.538544,19.4850346 C128.726492,19.7655696 128.915155,20.0461045 129.103461,20.3266395" id="Fill-214" fill="#231F20"></path>
                <path d="M233.851325,246.320846 C233.159678,247.30863 232.577578,248.139486 232.015525,248.942397 C230.788675,248.56835 229.976384,247.970377 230.697029,246.890514 C231.280561,246.015589 232.100728,244.816419 233.851325,246.320846" id="Fill-216" fill="#231F20"></path>
                <path d="M275.818568,242.34789 C274.562721,243.362904 273.426444,243.687507 272.663914,242.379061 C272.424773,241.967394 272.952458,240.56042 273.416778,240.388445 C274.825847,239.867502 275.49673,240.834506 275.818568,242.34789" id="Fill-218" fill="#231F20"></path>
                <path d="M46.8848449,222.160945 C46.2332936,222.563296 45.6214797,223.159836 44.9173031,223.303865 C44.4,223.409917 43.4778043,223.087104 43.2357995,222.667198 C42.7417661,221.810187 43.1889021,220.938844 44.1852029,220.815595 C45.0078759,220.714201 45.8781623,221.004052 46.728043,221.120493 C46.7803103,221.466952 46.8325776,221.814128 46.8848449,222.160945" id="Fill-220" fill="#231F20"></path>
                <path d="M185.660764,282.145197 C184.828425,283.555754 183.729021,284.097835 182.460286,283.10826 C182.130931,282.85173 182.220788,281.309683 182.617088,281.00156 C184.036539,279.898409 184.911838,280.890851 185.660764,282.145197" id="Fill-222" fill="#231F20"></path>
                <path d="M64.9904893,218.366414 C64.5497971,220.146001 64.0024224,221.232313 62.3280788,220.788043 C61.9192482,220.679842 61.3171002,219.841462 61.4144749,219.527965 C61.9206802,217.892406 63.2280788,218.119199 64.9904893,218.366414" id="Fill-224" fill="#231F20"></path>
                <path d="M226.953652,230.655099 C227.181337,232.288508 226.244821,233.011163 225.185871,233.546795 C224.884439,233.699423 224.180621,233.513117 223.960453,233.240106 C223.738138,232.964945 223.710573,232.279909 223.90568,231.966054 C224.586587,230.871502 225.636587,230.514294 226.953652,230.655099" id="Fill-226" fill="#231F20"></path>
                <path d="M85.4525298,257.526265 C84.1096897,258.148601 83.3611217,258.697848 82.5681623,258.771296 C82.2083771,258.804616 81.7612411,257.895654 81.3542005,257.414481 C81.9688783,256.986692 82.5441766,256.323512 83.2114797,256.212086 C83.6840334,256.132906 84.2808115,256.80146 85.4525298,257.526265" id="Fill-228" fill="#231F20"></path>
                <path d="M255.219523,246.348147 C254.606993,245.544161 254.23432,245.055465 253.861647,244.566409 C254.436229,244.135396 254.974296,243.45466 255.59864,243.363656 C255.996014,243.305614 256.520835,244.122856 256.988377,244.54742 C256.47716,245.068363 255.965585,245.588947 255.219523,246.348147" id="Fill-230" fill="#231F20"></path>
                <path d="M237.601181,261.557979 C236.914189,260.524335 236.116575,259.837508 236.221468,259.344153 C236.338174,258.800281 237.311563,258.055054 237.859296,258.096614 C238.402017,258.1371 239.243305,259.026715 239.277673,259.585277 C239.308461,260.087947 238.422422,260.647226 237.601181,261.557979" id="Fill-232" fill="#231F20"></path>
                <path d="M91.8289618,261.981003 C90.8208473,262.624119 90.1556921,263.195579 89.3856444,263.458917 C89.1225179,263.548846 88.3603461,262.935108 88.2379117,262.521292 C87.9776492,261.639201 89.2220406,260.487682 90.2505609,260.675064 C90.689821,260.755678 91.0435203,261.306357 91.8289618,261.981003" id="Fill-234" fill="#231F20"></path>
                <path d="M195.560871,263.660451 C194.602518,264.491665 194.170776,265.171685 193.640943,265.260181 C192.632828,265.427857 191.659081,264.95994 191.751444,263.76686 C191.791897,263.249859 192.576623,262.349854 192.937482,262.39034 C193.704308,262.475611 194.414928,263.063911 195.560871,263.660451" id="Fill-236" fill="#231F20"></path>
                <path d="M84.8225298,118.021527 C83.7030788,118.603736 83.1703819,119.06807 82.5861337,119.146175 C81.3893556,119.304894 80.7413842,118.536379 80.9812411,117.436453 C81.0915036,116.929483 82.0401909,116.136605 82.3670406,116.23979 C83.1256325,116.479839 83.7370883,117.185655 84.8225298,118.021527" id="Fill-238" fill="#231F20"></path>
                <path d="M86.6908353,38.702934 C86.4230549,39.9526223 86.4516945,40.5953806 86.1556325,41.0013144 C85.8033652,41.4839205 85.2105251,41.8719401 84.6416706,42.0718616 C84.4383294,42.1438763 83.7241289,41.5466199 83.7266348,41.2589193 C83.7320048,40.6480481 83.8913126,39.8741585 84.2933413,39.4764653 C84.692506,39.0819966 85.4668496,39.067307 86.6908353,38.702934" id="Fill-240" fill="#231F20"></path>
                <path d="M205.212422,264.982655 C204.503592,266.596717 203.607172,267.258106 202.316957,266.568771 C201.973998,266.385688 201.749893,265.164304 202.006933,264.81892 C202.935573,263.571023 203.989869,264.066528 205.212422,264.982655" id="Fill-242" fill="#231F20"></path>
                <path d="M26.744463,161.34426 C27.7461337,160.888166 28.4123628,160.330679 29.0216706,160.387288 C29.51821,160.433148 29.9467303,161.214203 30.4056802,161.668863 C29.7262053,162.128181 29.0925537,162.752667 28.3436277,162.960471 C28.0618854,163.038576 27.5123628,162.148961 26.744463,161.34426" id="Fill-244" fill="#231F20"></path>
                <path d="M63.747673,235.244193 C62.8408711,234.444507 61.9072196,233.997013 61.872494,233.487893 C61.8352625,232.94223 62.7621122,231.801459 63.0610382,231.866667 C63.8167661,232.032551 64.5617542,232.644497 65.0676014,233.274357 C65.1900358,233.426986 64.3702267,234.337739 63.747673,235.244193" id="Fill-246" fill="#231F20"></path>
                <path d="M174.909737,269.910791 C173.923103,271.164779 172.860931,271.395154 171.894702,270.234678 C171.650549,269.941603 171.950191,268.660386 172.304248,268.498443 C173.646014,267.88363 174.499833,268.54896 174.909737,269.910791" id="Fill-248" fill="#231F20"></path>
                <path d="M126.985919,268.24288 C127.696897,269.074811 128.103938,269.550968 128.510979,270.027125 C127.82327,270.573506 127.135203,271.11917 126.447494,271.665192 C126.085919,271.15464 125.357041,270.561324 125.449045,270.152882 C125.588305,269.534129 126.298568,269.043641 126.985919,268.24288" id="Fill-250" fill="#231F20"></path>
                <path d="M236.06642,275.783968 C237.033007,275.0348 237.597566,274.262344 238.214391,274.217917 C238.782172,274.177431 239.406516,274.919791 240.0058,275.317126 C239.439809,275.81478 238.940048,276.543526 238.284916,276.731983 C237.817375,276.866339 237.140764,276.27589 236.06642,275.783968" id="Fill-252" fill="#231F20"></path>
                <path d="M43.9803222,165.242334 C42.5558592,165.819527 41.3440453,165.892975 40.7791289,164.262432 C40.6706563,163.949652 41.2556205,163.052155 41.6333055,162.974408 C43.3151671,162.628666 43.9262649,163.601043 43.9803222,165.242334" id="Fill-254" fill="#231F20"></path>
                <path d="M113.724702,237.919414 C112.936754,238.743464 112.482816,239.481883 111.829833,239.7746 C111.555609,239.897132 110.382816,238.948759 110.446897,238.70656 C110.620525,238.049829 111.131026,237.287763 111.71778,237.007228 C112.07506,236.836686 112.820764,237.479802 113.724702,237.919414" id="Fill-256" fill="#231F20"></path>
                <path d="M196.258353,275.880525 C195.620406,275.188682 194.899403,274.768417 194.838544,274.26718 C194.705012,273.171195 195.446062,272.385124 196.538663,272.661718 C197.148687,272.815421 197.58401,273.660967 198.098449,274.194807 C197.548568,274.698194 196.999045,275.201939 196.258353,275.880525" id="Fill-258" fill="#231F20"></path>
                <path d="M68.2729475,83.3752079 C67.3904893,83.9355612 66.5986038,84.6600079 66.4002745,84.5227858 C65.8120883,84.116852 65.2704415,83.4178434 65.1018258,82.736749 C65.0316587,82.453706 66.1489618,81.4867023 66.3873866,81.5927539 C67.0253341,81.8765134 67.4792721,82.5733723 68.2729475,83.3752079" id="Fill-260" fill="#231F20"></path>
                <path d="M68.1981265,196.888757 C67.112327,197.377454 66.3977685,197.986175 65.8199642,197.875824 C65.2668616,197.770848 64.8558831,196.918853 64.3822554,196.395044 C65.0434726,196.060408 65.6943079,195.50113 66.3694869,195.469959 C66.8270048,195.448821 67.3185322,196.170043 68.1981265,196.888757" id="Fill-262" fill="#231F20"></path>
                <path d="M81.7715155,231.748827 C80.6338067,232.414874 79.9546897,232.961613 79.185,233.164042 C78.9820167,233.217785 78.1031384,232.051934 78.2334487,231.724823 C78.4647136,231.144405 79.1799881,230.532818 79.7903699,230.406702 C80.2031384,230.321073 80.7834487,231.043012 81.7715155,231.748827" id="Fill-264" fill="#231F20"></path>
                <path d="M40.3891647,193.913653 C38.7656563,194.525599 37.5735322,194.697574 37.0748449,193.197089 C36.9441766,192.80262 37.59358,191.745329 38.043222,191.634262 C39.6552745,191.235852 39.9473986,192.481957 40.3891647,193.913653" id="Fill-266" fill="#231F20"></path>
                <path d="M56.3234606,133.034376 C54.7518616,134.580722 53.7655847,135.449198 52.7932697,133.980241 C52.5083055,133.549227 53.0739379,132.554278 53.2493556,131.81765 C54.1103341,132.158734 54.9713126,132.499461 56.3234606,133.034376" id="Fill-268" fill="#231F20"></path>
                <path d="M256.674916,248.875362 C255.688998,249.594793 255.095084,250.316731 254.757494,250.212113 C254.132434,250.017924 253.447589,249.424967 253.206659,248.828785 C253.080286,248.515647 253.978854,247.362336 254.175752,247.419303 C254.92253,247.634272 255.572291,248.188177 256.674916,248.875362" id="Fill-270" fill="#231F20"></path>
                <path d="M265.724785,250.769278 C266.448294,248.999005 267.114523,247.985425 268.6829,248.622451 C269.061659,248.776512 269.524905,249.681174 269.387076,249.988581 C268.674308,251.582936 267.373353,251.045513 265.724785,250.769278" id="Fill-272" fill="#231F20"></path>
                <path d="M32.1724224,165.250396 C31.9146659,166.808923 31.302136,167.680982 29.8701551,167.406538 C29.5443795,167.344197 29.0496301,166.361787 29.1828043,166.01282 C29.7652625,164.485463 30.9047613,164.950155 32.1724224,165.250396" id="Fill-274" fill="#231F20"></path>
                <path d="M46.1121838,154.795828 C45.0557399,155.392368 44.4117064,156.008255 43.7465513,156.03226 C43.3778162,156.045517 42.5762649,154.968162 42.6786516,154.562228 C42.8340215,153.946341 43.6244749,153.05386 44.1131384,153.073207 C44.6834248,153.096137 45.2193437,153.974287 46.1121838,154.795828" id="Fill-276" fill="#231F20"></path>
                <path d="M263.096814,242.027765 C262.227959,243.509262 261.073425,243.666189 259.812208,242.883343 C259.566265,242.730356 259.540489,241.560923 259.787864,241.383932 C260.976408,240.531578 262.136313,240.587112 263.096814,242.027765" id="Fill-278" fill="#231F20"></path>
                <path d="M29.3682458,191.187018 C28.7442601,190.249035 28.0927088,189.685099 28.0669332,189.093933 C28.0479594,188.655754 28.8427088,188.182463 29.2748091,187.724579 C29.8246897,188.260211 30.5174105,188.723469 30.8449761,189.371602 C30.9545227,189.588004 30.1318496,190.276623 29.3682458,191.187018" id="Fill-280" fill="#231F20"></path>
                <path d="M242.11074,266.798214 C242.383532,269.118092 241.092959,269.409733 239.85179,269.61897 C239.513842,269.675937 238.902387,269.353483 238.769928,269.050018 C238.625298,268.719324 238.765274,267.932894 239.000477,267.82541 C239.937351,267.398337 240.959069,267.158288 242.11074,266.798214" id="Fill-282" fill="#231F20"></path>
                <path d="M108.52994,254.058559 C109.327912,255.095786 110.022422,255.632134 110.126957,256.265219 C110.19426,256.674736 109.397721,257.226849 108.988174,257.714471 C108.54247,257.258377 107.850465,256.860684 107.723377,256.328277 C107.605955,255.834564 108.09247,255.196822 108.52994,254.058559" id="Fill-284" fill="#231F20"></path>
                <path d="M214.672375,254.660688 C214.279296,255.610853 214.055907,256.497601 213.561158,257.189086 C213.342064,257.494342 212.402327,257.645179 212.098389,257.429851 C211.760084,257.190877 211.536337,256.373994 211.679893,255.949787 C212.093377,254.723746 212.964379,254.102126 214.672375,254.660688" id="Fill-286" fill="#231F20"></path>
                <path d="M113.971897,23.4007367 C113.286695,24.8044864 112.371659,25.4726827 111.095048,24.8413894 C110.780728,24.6862533 110.596718,23.4147097 110.871659,23.0721919 C111.807816,21.9031171 112.875716,22.2101649 113.971897,23.4007367" id="Fill-288" fill="#231F20"></path>
                <path d="M153.180036,258.412154 C152.880752,260.070642 151.971086,260.745646 150.487554,260.422475 C150.203305,260.360492 149.794833,259.362676 149.949845,259.039864 C150.668341,257.540095 151.830394,257.740016 153.180036,258.412154" id="Fill-290" fill="#231F20"></path>
                <path d="M176.962625,260.118903 C175.664893,260.65346 174.533628,261.154696 173.941146,259.581838 C173.809761,259.233587 174.196038,258.331791 174.510716,258.236488 C175.831718,257.836645 176.765728,258.305278 176.962625,260.118903" id="Fill-292" fill="#231F20"></path>
                <path d="M127.112112,13.2481296 C127.874642,14.2921639 128.566289,14.8568167 128.649702,15.5002915 C128.697673,15.8703971 127.790871,16.6654253 127.258174,16.7195259 C126.79457,16.7668191 125.813663,16.0097688 125.839081,15.6661762 C125.888842,14.9936805 126.481325,14.3613124 127.112112,13.2481296" id="Fill-294" fill="#231F20"></path>
                <path d="M123.548592,264.685603 C121.135704,266.53004 120.891551,266.491704 119.618162,264.196907 C121.116372,263.041805 122.261957,263.575645 123.548592,264.685603" id="Fill-296" fill="#231F20"></path>
                <path d="M231.296778,264.372787 C231.949045,265.148827 232.349284,265.625342 232.749523,266.101141 C232.162053,266.556876 231.62506,267.218981 230.965274,267.380925 C230.631981,267.462255 229.624582,266.440076 229.703699,266.260934 C229.981146,265.629283 230.596897,265.146677 231.296778,264.372787" id="Fill-298" fill="#231F20"></path>
                <path d="M245.672184,221.505253 C244.480418,222.035868 243.741874,222.494828 242.946408,222.642082 C242.697601,222.687942 242.293425,221.892914 241.960847,221.483039 C242.669678,221.038411 243.340919,220.488806 244.110609,220.213287 C244.344379,220.129091 244.848795,220.80087 245.672184,221.505253" id="Fill-300" fill="#231F20"></path>
                <path d="M76.2390215,218.027407 L76.2390215,215.281532 C77.5886635,215.653787 78.5881862,215.929665 79.7362768,216.246028 C78.9039379,218.307942 77.5585919,218.193292 76.1624105,217.957184 L76.2390215,218.027407 Z" id="Fill-302" fill="#231F20"></path>
                <path d="M148.415979,283.454145 C147.634833,281.835068 148.107745,281.002062 149.091516,280.723318 C149.655,280.563524 150.40321,281.054371 151.894618,281.498283 C150.273974,282.409394 149.445215,282.87552 148.415979,283.454145" id="Fill-304" fill="#231F20"></path>
                <path d="M189.176384,251.606906 C189.453115,251.922552 189.756695,252.130356 189.725907,252.255396 C189.520418,253.083387 189.243329,253.894179 188.989511,254.710346 C188.527697,254.458115 187.832112,254.318027 187.647745,253.932874 C187.054547,252.693934 187.694284,251.980236 189.176384,251.606906" id="Fill-306" fill="#231F20"></path>
                <path d="M202.595263,279.708269 C203.334881,280.421609 203.855048,280.922846 204.374857,281.424082 C203.846814,281.920662 203.297649,282.829265 202.796456,282.803469 C202.242995,282.774806 201.585,281.962222 201.283568,281.340244 C201.175453,281.117035 201.974499,280.453496 202.595263,279.708269" id="Fill-308" fill="#231F20"></path>
                <path d="M145.87679,268.54029 C146.545883,269.329944 147.358532,270.065856 147.262232,270.214901 C146.863425,270.833296 146.252685,271.429836 145.585024,271.698906 C145.345525,271.795642 144.285859,270.809291 144.36426,270.55312 C144.565095,269.902479 145.197673,269.384403 145.87679,268.54029" id="Fill-310" fill="#231F20"></path>
                <path d="M82.322506,208.90135 C81.7511456,208.153973 81.0684487,207.649512 81.0963723,207.188761 C81.1250119,206.724427 81.947685,205.889272 82.2663007,205.956629 C82.8147494,206.072354 83.5074702,206.701139 83.6288305,207.232113 C83.7126014,207.597561 82.9350358,208.160781 82.322506,208.90135" id="Fill-312" fill="#231F20"></path>
                <path d="M29.0137232,222.073094 C28.0865155,222.608009 27.4933174,223.227479 26.9885442,223.161914 C26.5099045,223.100289 26.1236277,222.321384 25.6961814,221.857766 C26.1973747,221.484078 26.6939141,220.826272 27.2008353,220.81839 C27.6927208,220.810866 28.1946301,221.469747 29.0137232,222.073094" id="Fill-314" fill="#231F20"></path>
                <path d="M48.0598568,196.444021 C47.1655847,197.014765 46.5942243,197.516718 45.9322912,197.715206 C45.7404057,197.77289 44.9313365,196.708792 45.0158234,196.588051 C45.4300239,195.996885 46.0089021,195.477376 46.6346778,195.114078 C46.7592601,195.041705 47.3435084,195.761852 48.0598568,196.444021" id="Fill-316" fill="#231F20"></path>
                <path d="M75.5510263,252.028496 C74.9288305,252.396452 74.3281146,252.998008 73.6772792,253.058558 C73.1603341,253.106567 72.5821718,252.491755 72.0312172,252.170734 C72.4518616,251.729331 72.8077088,251.042862 73.3099761,250.909223 C73.9067542,250.75122 74.6295465,251.067942 75.2975656,251.179367 C75.3820525,251.46241 75.4668974,251.745453 75.5510263,252.028496" id="Fill-318" fill="#231F20"></path>
                <path d="M136.679391,257.029077 C135.719964,258.181312 135.162566,259.386215 133.734165,258.446083 C133.430227,258.245803 133.276289,257.294206 133.481778,256.934132 C134.290131,255.518201 135.29395,255.926642 136.679391,257.029077" id="Fill-320" fill="#231F20"></path>
                <path d="M183.534129,265.261506 C185.160501,262.590154 185.160501,262.590154 187.615274,264.618748 C186.517303,266.037904 185.242124,265.434198 183.534129,265.261506" id="Fill-322" fill="#231F20"></path>
                <path d="M184.826957,272.397055 C183.618007,272.938061 182.962518,273.466885 182.334236,273.435715 C181.855239,273.412068 181.411683,272.677948 180.952017,272.259833 C181.478628,271.767911 181.981969,270.919141 182.537936,270.882954 C183.100346,270.846409 183.714666,271.614566 184.826957,272.397055" id="Fill-324" fill="#231F20"></path>
                <path d="M231.248162,274.2665 C231.285752,274.52303 231.335871,274.646637 231.315107,274.75663 C231.055919,276.139241 230.230024,276.833592 228.833126,276.551265 C228.55926,276.495732 228.141122,275.735098 228.242434,275.479285 C228.812721,274.037557 229.845895,273.594362 231.248162,274.2665" id="Fill-326" fill="#231F20"></path>
                <path d="M51.588401,153.68003 C50.5190692,154.251848 49.8957995,154.828324 49.2689499,154.832982 C48.8690692,154.835848 48.058926,153.880668 48.1487828,153.549615 C48.3148926,152.934086 49.0147733,152.028707 49.4755131,152.038381 C50.0497375,152.050562 50.607494,152.866013 51.588401,153.68003" id="Fill-328" fill="#231F20"></path>
                <path d="M57.3422076,148.985637 C56.4561695,149.561755 55.7659547,150.305907 55.4201313,150.170118 C54.8358831,149.940818 54.2892243,149.209205 54.0994869,148.576479 C54.0210859,148.314575 55.0263365,147.343272 55.3223986,147.430334 C55.9743079,147.622015 56.487673,148.282688 57.3422076,148.985637" id="Fill-330" fill="#231F20"></path>
                <path d="M92.774642,243.70861 C91.7042363,244.150014 90.746599,244.545199 88.9798926,245.273945 C89.3869332,243.78779 89.3597255,242.799648 89.7986277,242.503707 C90.7920644,241.834436 91.8134248,242.162981 92.774642,243.70861" id="Fill-332" fill="#231F20"></path>
                <path d="M39.596957,170.728208 C37.5800119,171.892625 36.522852,172.057435 36.1165274,170.444807 C35.999463,169.979757 36.6098449,169.331624 36.8869332,168.766971 C37.6208234,169.298662 38.3554296,169.829636 39.596957,170.728208" id="Fill-334" fill="#231F20"></path>
                <path d="M50.9797375,247.105269 C50.4101671,245.374766 50.4652983,244.30816 51.9287828,243.872847 C52.3010979,243.761779 53.1960859,244.178103 53.264821,244.484076 C53.6002625,245.983487 52.513389,246.450329 50.9797375,247.105269" id="Fill-336" fill="#231F20"></path>
                <path d="M27.0874224,202.389284 C25.1660621,203.841044 24.2589021,203.624283 23.6789499,202.460583 C23.5411217,202.184705 23.9137947,201.653731 24.0519809,201.239915 C24.8886158,201.556995 25.7259666,201.874075 27.0874224,202.389284" id="Fill-338" fill="#231F20"></path>
                <path d="M94.1681742,46.2132456 C93.6254535,47.434988 93.2703222,48.2343156 92.7787947,49.340691 C92.1472912,48.8233315 91.4742601,48.5506788 91.3969332,48.1601512 C91.0536158,46.4210493 91.9639976,45.9119303 94.1681742,46.2132456" id="Fill-340" fill="#231F20"></path>
                <path d="M70.1800239,99.1557119 C69.5982816,98.3922125 69.2048449,97.8759279 68.8121241,97.3596432 C69.3956563,96.9164481 69.9791885,96.4736113 70.5630788,96.0300579 C70.922148,96.5398935 71.5912411,97.0733757 71.5550835,97.5534739 C71.517852,98.0464702 70.7918377,98.4875156 70.1800239,99.1557119" id="Fill-342" fill="#231F20"></path>
                <path d="M47.7931146,130.559649 C47.1433532,131.109971 46.5902506,131.798231 46.3894153,131.707227 C45.7546897,131.419885 45.2513484,130.840901 44.6975298,130.374417 C45.1686516,130.00467 45.6480072,129.333966 46.109105,129.346147 C46.6052864,129.359404 47.084284,130.013627 47.7931146,130.559649" id="Fill-344" fill="#231F20"></path>
                <path d="M42.313031,138.787887 C41.7602864,137.84238 41.1728162,137.232225 41.2995465,136.976412 C41.6185203,136.33222 42.2092124,135.7733 42.8131504,135.359842 C42.9366587,135.275288 43.9995465,136.160961 43.9429833,136.285285 C43.5971599,137.042694 43.0530072,137.709099 42.313031,138.787887" id="Fill-346" fill="#231F20"></path>
                <path d="M223.417375,274.198641 C222.864272,273.360619 222.283246,272.857232 222.367733,272.521522 C222.498401,272.004521 223.084797,271.60217 223.477876,271.151451 C223.935752,271.57709 224.772029,272.017061 224.756277,272.425144 C224.736587,272.946445 224.030263,273.441949 223.417375,274.198641" id="Fill-348" fill="#231F20"></path>
                <path d="M225.38599,269.141738 C225.027995,268.288668 224.499236,267.633012 224.619523,267.133925 C224.725847,266.692521 225.677041,266.053346 226.033962,266.171579 C226.527279,266.334956 227.186348,267.210956 227.092554,267.627638 C226.975847,268.143206 226.160334,268.500055 225.38599,269.141738" id="Fill-350" fill="#231F20"></path>
                <path d="M34.3032458,237.916942 C33.1050358,238.522081 32.3783055,238.976025 31.586778,239.210341 C31.442148,239.252977 30.692148,238.206076 30.8102864,238.000422 C31.1611217,237.390984 31.7346301,236.739269 32.3632697,236.528599 C32.6969212,236.416815 33.3248449,237.184613 34.3032458,237.916942" id="Fill-352" fill="#231F20"></path>
                <path d="M241.392315,238.177951 C240.772625,239.309764 240.361647,240.060007 239.951026,240.81025 C239.444821,240.415423 238.555919,240.065023 238.50401,239.617529 C238.343628,238.241009 239.310573,237.920346 241.392315,238.177951" id="Fill-354" fill="#231F20"></path>
                <path d="M89.9858592,249.867983 C88.872136,250.373161 88.2571002,250.818147 87.602327,250.888371 C87.1902745,250.932798 86.7187947,250.414363 86.2738067,250.148518 C86.6819212,249.555202 87.0166468,248.875183 87.5471957,248.428047 C87.6828759,248.313755 88.4375298,248.935016 89.9858592,249.867983" id="Fill-356" fill="#231F20"></path>
                <path d="M65.866969,252.203123 C65.3152983,251.28592 64.73821,250.633847 64.8552745,250.465813 C65.3102864,249.811589 65.9861814,249.311069 66.5797375,248.752865 C66.9302148,249.138735 67.6508592,249.700522 67.5660143,249.879663 C67.2223389,250.603751 66.6309308,251.210323 65.866969,252.203123" id="Fill-358" fill="#231F20"></path>
                <path d="M59.9764797,251.873503 C59.1194391,252.406627 58.5416348,253.049027 58.0289857,253.000659 C57.5786277,252.957665 56.8733771,252.130392 56.8884129,251.669641 C56.9023747,251.248659 57.7518974,250.51024 58.1950955,250.537469 C58.7267184,250.569714 59.2178878,251.26514 59.9764797,251.873503" id="Fill-360" fill="#231F20"></path>
                <path d="M92.5106921,249.858166 C93.2753699,250.891093 93.9075895,251.426367 94.0364678,252.063751 C94.094821,252.352168 93.1747733,253.115668 92.6549642,253.16117 C92.1863484,253.202014 91.2104535,252.503005 91.244463,252.226411 C91.3246539,251.570397 91.8705967,250.97099 92.5106921,249.858166" id="Fill-362" fill="#231F20"></path>
                <path d="M283.330883,226.394873 C284.407733,225.664336 284.914654,225.052748 285.434821,225.040925 C285.99401,225.028027 286.565728,225.579065 287.132076,225.883246 C286.739714,226.376601 286.391026,227.223938 285.944964,227.278755 C285.303079,227.357577 284.59031,226.859565 283.330883,226.394873" id="Fill-364" fill="#231F20"></path>
                <path d="M193.339833,276.382264 C192.181002,277.662764 191.252363,278.258946 190.123604,277.137881 C189.898425,276.914671 189.907375,276.071991 190.137208,275.838033 C191.216921,274.73954 192.18136,275.234327 193.339833,276.382264" id="Fill-366" fill="#231F20"></path>
                <path d="M136.516826,277.856308 C136.475656,277.171631 136.142363,276.146944 136.456683,275.877157 C137.014797,275.398134 137.964916,275.376637 138.751074,275.163817 C138.894988,275.394193 139.038902,275.624568 139.182816,275.854586 C138.623986,276.58584 138.064439,277.317093 137.505609,278.048347 C137.176253,277.984215 136.846539,277.920441 136.516826,277.856308" id="Fill-368" fill="#231F20"></path>
                <path d="M92.5533294,31.7423347 L95.2962888,31.7423347 C95.6295823,33.1743887 95.0367422,33.8855789 93.9631146,33.9167494 C92.8418735,33.9493531 92.3224224,33.1851372 92.5533294,31.7423347" id="Fill-370" fill="#231F20"></path>
                <path d="M130.3292,219.717353 C130.815358,220.7252 131.276456,221.283404 131.292566,221.854506 C131.304021,222.231777 130.676814,222.627321 130.335644,223.014982 C129.886002,222.564263 129.13636,222.151164 129.074427,221.652435 C129.017148,221.190251 129.695191,220.636705 130.3292,219.717353" id="Fill-372" fill="#231F20"></path>
                <path d="M105.755119,28.597226 C105.024093,29.2503745 104.53543,30.0210395 104.091516,29.9956015 C103.57815,29.9665806 103.104165,29.237118 102.613353,28.8121953 C103.036862,28.3342469 103.412041,27.5442346 103.898914,27.4679205 C104.36216,27.3951892 104.942112,28.0673266 105.755119,28.597226" id="Fill-374" fill="#231F20"></path>
                <path d="M57.3694869,160.836932 C56.533568,162.144304 55.6457399,162.627268 54.5187709,161.522684 C54.2939499,161.302341 54.2624463,160.47435 54.4668616,160.29306 C55.6074344,159.280554 56.4970525,159.831592 57.3694869,160.836932" id="Fill-376" fill="#231F20"></path>
                <path d="M40.0808234,239.269243 C39.0723508,239.816698 38.4558831,240.251653 37.7717542,240.441184 C37.6292721,240.480595 36.9003938,239.388192 37.0224702,239.20511 C37.3579117,238.701724 37.9604177,238.238107 38.5403699,238.09336 C38.8389379,238.018838 39.3154296,238.657655 40.0808234,239.269243" id="Fill-378" fill="#231F20"></path>
                <path d="M114.251921,34.2936982 C114.445955,35.6293742 114.111587,36.5286626 112.813496,36.6067681 C112.522446,36.6243239 111.871969,35.8034994 111.921014,35.4412761 C112.114332,34.0210454 113.14142,34.1034503 114.251921,34.2936982" id="Fill-380" fill="#231F20"></path>
                <path d="M223.067434,246.645879 C220.926981,246.476053 220.333425,245.831862 220.643091,244.725128 C220.736527,244.388701 221.526623,244.24718 221.998103,244.016088 C222.299535,244.75809 222.601683,245.500451 223.067434,246.645879" id="Fill-382" fill="#231F20"></path>
                <path d="M50.073222,138.534223 C49.2927924,137.159136 48.9874224,136.1821 50.4186874,135.679788 C50.7387351,135.567646 51.4762053,135.837791 51.6025776,136.119759 C52.1907637,137.432505 51.2596181,137.92156 50.073222,138.534223" id="Fill-384" fill="#231F20"></path>
                <path d="M103.488616,249.333354 C103.02716,248.401104 102.450788,247.768377 102.57537,247.340947 C102.702816,246.90635 103.508305,246.458139 104.041002,246.426611 C104.417613,246.404755 104.83432,247.067577 105.233126,247.424785 C104.742315,247.96185 104.251504,248.498915 103.488616,249.333354" id="Fill-386" fill="#231F20"></path>
                <path d="M131.890167,248.425754 C131.019165,249.161307 130.520835,249.777911 129.881814,250.012227 C129.666301,250.091049 128.751623,249.179221 128.776683,248.75609 C128.805322,248.258794 129.443628,247.528615 129.939809,247.409307 C130.370835,247.306122 130.972267,247.91341 131.890167,248.425754" id="Fill-388" fill="#231F20"></path>
                <path d="M84.7036754,46.4689875 C84.1913842,45.7165948 83.5477088,45.0587887 83.6597613,44.8821556 C83.9991408,44.3490317 84.6317184,44.0018562 85.1500955,43.5823077 C85.4619093,44.0018562 86.0919809,44.4977188 86.0139379,44.8233973 C85.8872076,45.3529384 85.2965155,45.7706955 84.7036754,46.4689875" id="Fill-390" fill="#231F20"></path>
                <path d="M217.875788,247.725634 C218.288198,248.71521 218.794761,249.338263 218.652995,249.721266 C218.405263,250.390537 217.759439,250.912196 217.280084,251.495121 C216.795358,251.080947 215.846313,250.539941 215.917912,250.278037 C216.092613,249.637787 216.739153,249.126876 217.875788,247.725634" id="Fill-392" fill="#231F20"></path>
                <path d="M64.4979236,99.4720034 C64.0626014,98.3924991 63.646253,97.7189286 63.5818138,97.0138292 C63.5581862,96.7526415 64.3618854,96.4158562 64.7882578,96.1138243 C65.1691647,96.7322194 65.7061575,97.3151445 65.8583055,97.9858488 C65.9234606,98.2746243 65.1913604,98.7450488 64.4979236,99.4720034" id="Fill-394" fill="#231F20"></path>
                <path d="M12.0295704,173.327151 C12.6829117,174.12218 13.2818377,174.54961 13.3842243,175.074852 C13.4601193,175.464305 12.8912649,175.979515 12.6098807,176.439191 C12.0907876,176.092373 11.2727685,175.832977 11.1385203,175.373659 C11.00821,174.928673 11.5813604,174.277674 12.0295704,173.327151" id="Fill-396" fill="#231F20"></path>
                <path d="M236.6342,267.309734 C235.706635,268.568379 235.181456,269.281003 234.656277,269.993268 C234.279308,269.618146 233.610215,269.266313 233.577995,268.863604 C233.466301,267.470244 234.435752,267.191859 236.6342,267.309734" id="Fill-398" fill="#231F20"></path>
                <path d="M54.8865752,223.543663 C55.4951671,224.054932 56.3156921,224.531447 56.253043,224.732444 C56.0754773,225.301754 55.5366945,225.758922 55.1403938,226.259801 C54.7039976,225.828787 54.0950477,225.461548 53.9031623,224.939889 C53.8047136,224.672611 54.451253,224.13053 54.8865752,223.543663" id="Fill-400" fill="#231F20"></path>
                <path d="M173.906706,283.414233 C173.024964,283.937683 172.423532,284.414915 171.741193,284.616269 C171.567924,284.667504 170.80432,283.549663 170.875919,283.468333 C171.39716,282.878959 172.040119,282.378439 172.71852,281.974655 C172.785465,281.934885 173.349666,282.732063 173.906706,283.414233" id="Fill-402" fill="#231F20"></path>
                <path d="M171.198687,252.383661 C170.589737,253.040751 170.152983,253.511892 169.716229,253.983391 C169.291289,253.485737 168.536277,252.985575 168.539141,252.490788 C168.542363,252.044368 169.318496,251.470758 169.873389,251.230351 C170.072792,251.143647 170.621957,251.863077 171.198687,252.383661" id="Fill-404" fill="#231F20"></path>
                <path d="M76.1624821,217.957076 C76.9310979,219.273405 76.8297852,220.301317 75.0766826,220.324605 C74.6553222,220.330338 73.8258473,219.40382 73.8652267,218.967432 C74.0109308,217.351221 75.193389,217.731359 76.2398091,218.026941 C76.2390931,218.0273 76.1624821,217.957076 76.1624821,217.957076" id="Fill-406" fill="#231F20"></path>
                <path d="M94.1447613,235.322549 C94.9720883,234.809489 95.4682697,234.288905 96.0081265,234.240179 C96.3833055,234.205784 96.8171957,234.820238 97.2249523,235.144483 C96.6847375,235.628522 96.195,236.210731 95.5710143,236.532468 C95.4027566,236.619173 94.8281742,235.919089 94.1447613,235.322549" id="Fill-408" fill="#231F20"></path>
                <path d="M58.2707399,174.877116 C58.7905489,175.591173 59.3440095,176.034009 59.3966348,176.53023 C59.4338663,176.881347 58.7937709,177.304478 58.4561814,177.695364 C58.0000955,177.254319 57.4183532,176.874898 57.1552267,176.338907 C57.058926,176.142927 57.7190692,175.574692 58.2707399,174.877116" id="Fill-410" fill="#231F20"></path>
                <path d="M100.84074,233.34046 C101.829165,232.952441 102.407685,232.501722 102.770334,232.635719 C103.310907,232.835999 103.69969,233.448662 104.15327,233.885408 C103.700406,234.151253 103.20494,234.682586 102.804702,234.618095 C102.258401,234.529957 101.784415,233.988951 100.84074,233.34046" id="Fill-412" fill="#231F20"></path>
                <path d="M228.801659,258.368085 C227.932804,259.524262 227.396169,260.237601 226.859893,260.950941 C226.556671,260.641027 226.036504,260.360851 225.987816,260.015108 C225.799153,258.675133 226.460012,258.06032 228.801659,258.368085" id="Fill-414" fill="#231F20"></path>
                <path d="M204.099988,256.807587 C204.445811,258.116033 204.643067,259.15326 203.188532,259.410865 C202.90858,259.45995 202.30679,258.970895 202.225883,258.638767 C201.902613,257.315989 202.560967,256.732347 204.099988,256.807587" id="Fill-416" fill="#231F20"></path>
                <path d="M106.968258,30.2682542 C107.4,31.6659131 107.681384,32.4136481 107.810263,33.1868211 C107.827446,33.2914395 106.938544,33.7804947 106.705131,33.6540211 C105.548449,33.0291769 105.504057,32.1241561 106.968258,30.2682542" id="Fill-418" fill="#231F20"></path>
                <path d="M98.0330549,39.9516908 C97.1903341,40.4593767 96.6189737,41.0745472 96.1023866,41.0311951 C95.6699284,40.9946503 95.3019093,40.1895902 94.9056086,39.7248982 C95.4483294,39.3902626 95.9670644,38.8643043 96.5434368,38.7908564 C96.901074,38.7453546 97.3457041,39.387038 98.0330549,39.9516908" id="Fill-420" fill="#231F20"></path>
                <path d="M101.73605,43.2483171 C102.359678,44.4191833 102.767434,45.4223735 101.400251,45.9852348 C101.131754,46.0955858 100.323401,45.5262753 100.147267,45.1085183 C99.642136,43.9125723 100.397864,43.4367735 101.73605,43.2483171" id="Fill-422" fill="#231F20"></path>
                <path d="M252.61253,256.112018 C252.319332,257.52365 251.780191,258.330501 250.410143,257.944989 C250.184248,257.881573 249.90537,257.359198 249.948329,257.097652 C250.188544,255.61723 251.127924,255.534825 252.61253,256.112018" id="Fill-424" fill="#231F20"></path>
                <path d="M179.671002,280.902782 C179.320525,279.923955 178.858353,279.291945 179.002983,278.865589 C179.180191,278.342855 179.807041,277.826571 180.353341,277.63704 C180.628998,277.541736 181.155967,278.174463 181.569809,278.47757 C181.189618,278.963042 180.809785,279.448156 179.671002,280.902782" id="Fill-426" fill="#231F20"></path>
                <path d="M57.6837709,115.232229 C57.2480907,114.592695 56.6624105,114.065304 56.7637232,113.804832 C56.924821,113.388867 57.5520286,112.896229 57.9640811,112.911635 C58.3331742,112.925608 58.6782816,113.581623 59.0337709,113.954236 C58.65358,114.313951 58.273031,114.673667 57.6837709,115.232229" id="Fill-428" fill="#231F20"></path>
                <path d="M253.622864,232.089626 C253.080859,232.293846 252.508425,232.71017 252.006516,232.637439 C251.584081,232.575814 251.124415,231.99898 250.925012,231.543245 C250.843389,231.35658 251.390048,230.625684 251.676444,230.60992 C252.123938,230.585199 252.59327,230.95817 253.053294,231.162749 L253.622864,232.089626 Z" id="Fill-430" fill="#231F20"></path>
                <path d="M126.361181,242.024934 C124.559033,240.70144 125.024785,239.852669 126.361181,238.490122 L126.361181,242.024934 Z" id="Fill-432" fill="#231F20"></path>
                <path d="M240.859869,245.987034 C240.144594,246.726887 239.715716,247.170799 239.286838,247.614352 C238.920251,247.238872 238.283735,246.877365 238.262971,246.483972 C238.242208,246.091294 238.769535,245.461792 239.187315,245.319196 C239.531348,245.202038 240.066193,245.644516 240.859869,245.987034" id="Fill-434" fill="#231F20"></path>
                <path d="M33.8746539,156.516908 L37.4610501,156.516908 C36.3677327,157.492153 35.8626014,157.942872 35.3571122,158.393949 C34.9747733,157.910268 34.5927924,157.426229 33.8746539,156.516908" id="Fill-436" fill="#231F20"></path>
                <path d="M122.191074,25.5227706 C122.634988,26.2085227 123.157303,26.6635411 123.090358,27.0014012 C123.008735,27.4123509 122.438807,27.9924098 122.065776,28.0028 C121.721742,28.0128319 121.077351,27.3657742 121.078783,27.01 C121.080215,26.6044245 121.650143,26.2009988 122.191074,25.5227706" id="Fill-438" fill="#231F20"></path>
                <path d="M165.12358,22.0323136 C164.494582,22.5665124 164.073222,23.1927897 163.710931,23.1605443 C163.306396,23.1243578 162.692434,22.5102621 162.660573,22.108986 C162.632649,21.756078 163.248759,21.0943308 163.643628,21.0409467 C164.012721,20.9911455 164.465943,21.5618891 165.12358,22.0323136" id="Fill-440" fill="#231F20"></path>
                <path d="M289.461551,197.566125 C288.613461,198.059121 288.104033,198.469713 287.525513,198.626999 C287.331122,198.679666 286.962029,198.085634 286.672411,197.786827 C287.153914,197.400957 287.592458,196.914052 288.139117,196.681526 C288.342816,196.59518 288.798902,197.104658 289.461551,197.566125" id="Fill-442" fill="#231F20"></path>
                <path d="M53.4035442,233.575923 C52.9037828,232.789494 52.3768138,232.327668 52.4165513,231.921376 C52.4584368,231.496095 53.0333771,230.822883 53.3963842,230.80891 C53.8102267,230.792787 54.6393437,231.457401 54.5953103,231.6996 C54.4936396,232.258878 53.9731146,232.741842 53.4035442,233.575923" id="Fill-444" fill="#231F20"></path>
                <path d="M181.011014,246.131888 C180.603258,245.404216 180.132136,244.934867 180.185835,244.536815 C180.225931,244.242666 180.936551,243.894057 181.373663,243.855362 C181.61531,243.834582 182.184881,244.488089 182.122947,244.684786 C181.982613,245.130489 181.542279,245.481964 181.011014,246.131888" id="Fill-446" fill="#231F20"></path>
                <path d="M121.285597,35.3695838 C120.410656,33.8733973 119.924141,33.4054807 119.96352,32.9859323 C119.991444,32.6889163 120.728556,32.4578243 121.1492,32.1973531 C121.382613,32.637682 121.746337,33.060455 121.81006,33.5244304 C121.865907,33.931439 121.585239,34.3850243 121.285597,35.3695838" id="Fill-448" fill="#231F20"></path>
                <path d="M139.116516,23.0452491 C138.571289,23.5382454 138.087637,24.1200957 137.971647,24.0541718 C137.539905,23.809465 137.229523,23.3512221 136.872959,22.9732344 C137.197303,22.7217202 137.514845,22.282108 137.847064,22.2706429 C138.185728,22.2595362 138.538711,22.6690528 139.116516,23.0452491" id="Fill-450" fill="#231F20"></path>
                <path d="M264.517267,228.972857 C264.899248,229.709127 265.370012,230.201407 265.283019,230.557539 C265.184212,230.962398 264.587076,231.245083 264.206527,231.580793 C263.893998,231.161603 263.361301,230.753878 263.339105,230.320715 C263.321921,229.978197 263.933735,229.604508 264.517267,228.972857" id="Fill-452" fill="#231F20"></path>
                <path d="M108.438687,43.1699249 C108.112912,43.6510979 107.864463,44.1476771 107.778902,44.1211642 C107.399427,44.002931 107.021742,43.776855 106.74895,43.4898709 C106.683795,43.4210807 107.022816,42.7367617 107.178186,42.7360452 C107.546921,42.7335372 107.91673,42.9710783 108.438687,43.1699249" id="Fill-454" fill="#231F20"></path>
                <path d="M170.268365,235.247346 C169.607864,235.573741 169.124212,235.981108 168.933759,235.872548 C168.503807,235.627841 168.218842,235.127321 167.874809,234.731419 C168.187697,234.476681 168.607983,233.948573 168.792709,234.021304 C169.247363,234.200087 169.594618,234.654389 170.268365,235.247346" id="Fill-456" fill="#231F20"></path>
                <path d="M200.959117,253.360876 C200.388831,252.76147 199.892291,252.470545 199.8479,252.121936 C199.811026,251.828145 200.298974,251.467713 200.554582,251.13666 C200.890382,251.409313 201.388353,251.624999 201.510072,251.973249 C201.607446,252.250918 201.246945,252.689455 200.959117,253.360876" id="Fill-458" fill="#231F20"></path>
            </g>
        </g>
    </g>
</svg>