<svg width="84" height="84" viewBox="0 0 84 84" fill="none" xmlns="http://www.w3.org/2000/svg">
<path fill-rule="evenodd" clip-rule="evenodd" d="M40.7032 5.48026C51.6485 4.45971 64.3963 4.31752 71.1396 12.9007C77.8343 21.4219 74.5774 33.5767 70.7011 43.6625C67.5376 51.8935 60.2068 56.7178 52.5621 61.2369C43.4178 66.6426 34.1345 74.3647 23.939 71.3058C12.3932 67.8418 2.7656 57.6371 1.16209 45.8156C-0.337117 34.7631 8.85463 25.9844 16.7052 17.9762C23.3248 11.2236 31.2329 6.36328 40.7032 5.48026Z" fill="white"/>
<path d="M70.0545 27.4481C69.9552 25.5197 68.9858 23.3166 65.2048 22.9641L56.3005 22.185C55.6948 19.8928 54.1855 18.1753 52.8148 17.2322C52.6309 16.7107 52.3002 16.2535 51.8627 15.9154C51.4251 15.5773 50.8993 15.3727 50.3483 15.3263L33.0552 13.8853C32.5988 13.8475 32.14 13.9191 31.7169 14.0943C31.2937 14.2694 30.9185 14.5429 30.6223 14.8922L29.9764 15.1941C28.5739 15.8494 26.9314 17.3184 26.653 20.5772C23.6736 20.9241 20.0614 21.3441 18.0336 21.5784C16.258 21.7838 15.192 24.0666 14.953 24.6141L14.9455 24.6131V24.6291C13.5673 27.8063 13.4698 33.6619 14.9455 37.0069V54.9244C14.9455 57.7838 16.6761 60.5222 18.8436 61.0472L55.663 69.99C56.0352 70.0809 56.398 70.125 56.7477 70.125C57.8867 70.125 58.8889 69.6563 59.637 68.8584C59.6202 68.8763 59.6098 68.8978 59.593 68.9147V68.9241C60.2613 68.3497 60.9631 67.8157 61.6948 67.3247V67.335C61.6948 67.335 69.9645 67.5103 70.1108 64.2028C70.1155 64.2026 70.1202 64.2023 70.1248 64.2019V64.1175C70.1248 64.1175 70.0958 27.6975 70.0545 27.4481ZM50.2208 18.5138C50.3183 18.0141 50.7195 17.4741 51.1948 17.4741C51.297 17.4741 51.4039 17.4984 51.5117 17.5491C53.172 18.3244 55.6442 20.7497 55.6639 24.1875C55.603 24.2625 55.2495 24.4041 54.6758 24.4041C54.102 24.4041 53.7495 24.2625 53.7073 24.2531C53.7073 21.4509 51.6898 19.8844 50.622 19.4466C50.1495 19.2534 50.1673 18.7791 50.2208 18.5138ZM30.8605 18.8831C31.3288 19.3234 31.9319 19.5929 32.5723 19.6481L49.8683 21.0872C50.3295 21.1256 50.7692 21.0459 51.1705 20.8838C51.4677 21.1303 51.7583 21.4406 52.0095 21.8072L31.5064 20.0119L30.2108 20.1628C30.3477 19.6669 30.5623 19.2356 30.8605 18.8831ZM29.458 16.6059C29.4252 17.2763 29.5986 17.9381 29.952 18.5138C29.397 19.2806 29.1083 20.2641 29.0895 21.4425C28.9742 21.4931 28.7108 21.5606 28.3152 21.5606C27.9233 21.5606 27.6608 21.4941 27.5445 21.4434C27.567 19.2159 28.2092 17.595 29.458 16.6059ZM16.3414 35.4C15.1864 31.6453 15.8952 26.3916 16.9817 24.7322L18.9814 24.9384L58.2945 29.1975C57.7658 31.6022 57.7339 35.2303 58.2055 40.0472C58.1745 42.0319 57.0345 43.4644 55.4736 43.4644C55.3367 43.4644 41.037 41.2406 41.037 41.2406V36.9253L31.1155 35.5969L30.0973 39.5306C30.0973 39.5306 20.4186 38.22 17.9445 37.6528C17.2892 37.5028 16.6761 36.4894 16.3414 35.4ZM38.5386 43.3716L30.328 42.0806L31.8158 36.3291L40.0273 37.4288L38.5386 43.3716ZM39.9964 48.8681L31.8364 47.3972L30.357 43.1597L38.518 44.4422L39.9964 48.8681ZM59.1045 65.13C59.1045 66.9675 58.1352 68.25 56.7477 68.25C56.5414 68.25 19.2852 59.2266 19.2852 59.2266C18.1189 58.9434 16.8195 57.1078 16.8195 54.9253V40.3181C17.1814 41.2369 18.6017 41.7675 19.0002 41.8331L29.6877 43.6031L31.1136 47.6944L41.0342 49.4831V45.4819L55.8195 47.9297C56.9952 48.1238 58.1502 47.8238 59.1205 47.1881L59.1045 65.13ZM65.6745 25.5834L61.018 27.6056L17.4664 22.8881C17.7411 22.6875 18.0027 22.5375 18.1723 22.5066L26.608 21.5203L26.607 21.5634C26.607 22.1484 27.2464 22.4981 28.3152 22.4981C29.3867 22.4981 30.0252 22.1484 30.0252 21.5634C30.0252 21.4069 30.0439 21.2653 30.0542 21.1163L31.4708 20.9503L52.5111 22.7925C52.6677 23.2303 52.7661 23.715 52.7661 24.2531C52.7661 24.9141 53.5152 25.3416 54.6739 25.3416C55.8317 25.3416 56.5798 24.9141 56.5798 24.2531C56.5798 23.8706 56.548 23.5013 56.4973 23.1422L65.1177 23.8969C66.4564 24.0216 67.4427 24.4069 68.1083 25.0463C67.5073 24.9572 66.7208 25.0706 65.6745 25.5834Z" fill="#360EFF"/>
</svg>
